<?xml version="1.0" encoding="utf-8"?>
<!-- Generator: Adobe Illustrator 22.0.0, SVG Export Plug-In . SVG Version: 6.00 Build 0)  -->
<svg version="1.1" id="Layer_1" xmlns="http://www.w3.org/2000/svg" xmlns:xlink="http://www.w3.org/1999/xlink" x="0px" y="0px"
	 viewBox="0 0 800 800" style="enable-background:new 0 0 800 800;" xml:space="preserve">
<style type="text/css">
	.st0{fill:#3A798C;}
</style>
<g>
	<path class="st0" d="M551.1,251.7c-9.3,2-19.6,5.2-28.2,9.3c-16.2,7.8-29.9,18.5-40.5,32.8c-10.1,13.7-16.4,28.9-18.4,45.7
		c-0.5,4,0.1,7.9,1.7,11.7c1,2.4,0.5,4.2-1,6.3c-5.9,8-12.4,15.6-18.7,23.3c-6.3,7.8-13,15.3-18.2,24c-1.6,2.6-2.9,5.3-3.2,8.3
		c-0.3,3.3,0.9,5.9,3.7,7.6c4.3,2.7,8.7,5.4,14.1,5.8c1,0.1,2,0.4,2.9,0.7c3.7,1.1,5.2,3.2,4.2,6.8c-1.3,4.7-2.2,9.6-5.8,13.5
		c-2.6,2.8-2.2,5.7,0.6,8.4c1.3,1.3,2.8,2.5,4.3,3.6c1.6,1.2,1.8,2.6,0.5,4.1c-1.1,1.3-2.4,2.4-3.5,3.7c-2,2.4-1.9,4.3,0.3,6.5
		c0.6,0.6,1.2,1.3,1.8,2c5.2,5.2,6.5,10.9,3.6,17.9c-1.9,4.6-3.7,9.3-4.3,14.4c-0.8,6.5,2.2,11.3,6.7,15.4
		c5.7,5.1,12.4,7.8,20.5,7.7c13.9-0.1,27.9,0.2,41.8,0.4c1.8,0,3.1,0.4,4.2,1.9c6.6,9.7,10.9,18.4,11.5,30.1
		c0.2,3.8-14.6,10.6-26.5,17.8c-24.9,14.2-62.9,22.4-92.5,22.2c-25.5-0.2-56.7-3.4-82.7-17.2c-7.1-2.3-8.5-4.3-17.6-8.4
		c-8.8-3.4-15.8-9.7-18.6-12.4c-8.7-8.4,4.1-22.2,10.9-32.2c1-1.4,2.2-1.9,3.9-1.8c6.9,0,13.8,0,20.7-0.1c8.4-0.1,16.9,0.2,25.2-0.5
		c10.3-0.9,18-6.4,22.4-15.4c2.3-4.7,0.9-9.8-0.8-14.7c-1.2-3.6-2.4-7.2-3.7-10.8c-1.3-3.7-0.7-7.1,1.6-10.3
		c1.5-2.2,3.1-4.4,5.1-6.2c2-1.8,1.9-3.7,0.4-5.6c-1.2-1.5-2.6-2.9-3.9-4.4c-1.3-1.5-1.2-2.9,0.5-4c1.7-1.2,3.3-2.5,4.7-4
		c2.3-2.4,2.7-5.1,0.5-7.6c-3-3.5-4.4-7.6-5.6-11.8c-1.7-5.9-0.5-8.3,5.8-9.2c5.2-0.8,9.7-2.7,13.9-5.5c4.7-3,5.9-6.1,4-11.3
		c-2.3-6.3-6.5-11.5-10.6-16.8c-9-11.6-18.8-22.5-27.6-34.2c-2.2-2.9-3.2-5.4-1.7-9.1c2.4-5.8,1.4-12,0.1-17.9
		c-6.3-28-22.1-49.7-47-65.1c-10.5-6.5-21.9-11.3-34-14.3c-1.1-0.3-4.9-0.4-6.1-0.6c1.1-1,4.3-3.9,4.7-4.4
		c10.4-11.3,27.8-21.7,38.9-27.6c37.4-19.8,60.8-23.7,93.2-24.7c46.8-1.4,100.5,16,136,51.4C546,247.2,550,250.7,551.1,251.7z"/>
</g>
</svg>
