<?xml version="1.0" encoding="utf-8"?>
<!-- Generator: Adobe Illustrator 24.0.1, SVG Export Plug-In . SVG Version: 6.00 Build 0)  -->
<svg version="1.1" id="Layer_1" xmlns="http://www.w3.org/2000/svg" xmlns:xlink="http://www.w3.org/1999/xlink" x="0px" y="0px"
	 viewBox="0 0 175.2 174.7" style="enable-background:new 0 0 175.2 174.7;" xml:space="preserve">
<style type="text/css">
	.st0{display:none;}
	.st1{display:inline;}
	.st2{fill:#3C3C42;stroke:#FF6F0F;stroke-width:4.7647;stroke-miterlimit:15.8824;}
	.st3{fill:#595A63;stroke:#000000;stroke-width:4.7647;stroke-miterlimit:15.8824;}
	.st4{fill:none;stroke:#000000;stroke-width:3.1765;stroke-miterlimit:15.8824;}
	.st5{fill:#3C3C42;stroke:#FFA40F;stroke-width:3.1765;stroke-miterlimit:15.8824;}
	.st6{fill:#595A63;stroke:#FFA40F;stroke-width:3.1765;stroke-miterlimit:15.8824;}
	.st7{fill:none;stroke:#FFA40F;stroke-width:3.1765;stroke-miterlimit:15.8824;}
	.st8{fill:none;stroke:#FFA40F;stroke-width:4.7647;stroke-miterlimit:15.8824;}
	.st9{fill:#8C6239;}
	.st10{fill:#D9A46F;}
	.st11{fill:#402A14;}
	.st12{fill:#482B8C;}
	.st13{fill:#231740;}
	.st14{fill:#3A798C;}
</style>
<g id="Layer_1_3_" class="st0">
	<g id="Layer_1_1_" class="st1">
	</g>
	<g id="Layer_1_2_" class="st1">
		<path class="st2" d="M-312.4,32.1c-70.2,0-127.1-56.9-127.1-127.1S-382.6-222-312.4-222s127.1,56.9,127.1,127.1
			S-242.2,32.1-312.4,32.1"/>
		<ellipse class="st3" cx="-312.4" cy="-94.9" rx="110.2" ry="110.2"/>
		<path id="Superior_esquerdo_1_" class="st4" d="M-353.3-164.4c-22.4,0-40.7,16.7-40.7,37v12.2c0,12.1,6.4,22.7,16.2,29.5
			c0-1.1,0-2.2,0-3.3c0-18.3,8.9-34.6,22.7-45.9c0.2-0.3,1-0.8,1-0.8c1.4-1.1,3.2-2.2,4.9-3.5c1.7-1.1,3.3-2.1,5.2-3
			c0,0,0,0,0.2-0.2c3.3-1.7,6.7-3.2,10-4.1c7.1-2.4,14.8-3.7,22.7-3.7v-14.5L-353.3-164.4L-353.3-164.4L-353.3-164.4z"/>
		<path id="Superior_direito_1_" class="st4" d="M-269.2-164.4h-42.1v14.8c0.2,0,0.3,0,0.5,0c14.3-0.6,32.7,6.2,41.1,13.2
			c0,0,0,0.2,0.2,0.2c0.3,0.2,0.6,0.5,1,0.6c1,0.8,2.4,1.7,2.4,1.9l0,0c13.3,11.1,21.8,27.2,21.8,44.9c0,1.1,0,2.2,0,3.3
			c9.7-6.8,16.2-17.5,16.2-29.5v-12.2C-228.5-147.7-246.8-164.4-269.2-164.4z"/>
		<ellipse id="Circulo_1_" class="st4" cx="-311.3" cy="-90.7" rx="67" ry="59.4"/>
		<path id="Inferior_x5F_direito_1_" class="st4" d="M-244.6-85.9c-1.6,30.5-30.8,54.6-66.7,54.6l0,0v18.4l0,0
			c45.4,0,82.4-31.8,82.4-71V-110h-0.2C-230.1-100.2-236-91.6-244.6-85.9z"/>
		<path id="Inferior_x5F_esquerdo_1_" class="st4" d="M-377.8-85.9c-8.6-5.7-14.5-14.5-15.7-24.1h-0.2v26.4c0,38.8,36.2,70.4,81,71
			c0.5,0,0.8,0,1.3,0l0,0v-18.3C-347-31.3-376.2-55.4-377.8-85.9z"/>
	</g>
	<g id="Taça_1_" class="st1">
		<path class="st4" d="M-71.6-124c-3.3,0.6-7,0.3-10,1.6c-5.7,2.2-10.5,5.4-14.1,9.4c-3.5,3.8-5.6,8.1-6.2,12.7
			c-0.2,1.1,0,2.2,0.6,3.2c0.3,0.6,0.2,1.1-0.3,1.7c-2.1,2.2-4.3,4.4-6.5,6.5c-2.2,2.2-4.6,4.3-6.4,6.8c-0.5,0.8-1,1.4-1.1,2.2
			c0,1,0.3,1.6,1.4,2.1c1.6,0.8,3.2,1.4,5.1,1.4c0.3,0,0.6,0.2,1.1,0.2c1.3,0.3,1.9,0.8,1.6,1.7c-0.5,1.3-0.6,2.7-2.1,3.8
			c-1,0.8-0.8,1.6,0.3,2.2c0.5,0.3,1,0.6,1.6,1s0.6,0.8,0.2,1.1c-0.3,0.3-0.8,0.6-1.3,1.1c-0.6,0.6-0.6,1.1,0.2,1.7
			c0.2,0.2,0.5,0.3,0.6,0.5c1.9,1.4,2.4,2.9,1.4,4.8c-0.6,1.3-1.3,2.5-1.4,4c-0.2,1.7,0.8,3.2,2.5,4.1c2.1,1.4,4.4,2.1,7.3,1.9
			c4.9-0.2,10-0.3,14.9-0.3c0.6,0,1.1,0.2,1.6,0.5c2.4,2.5,4.1,4.9,4.4,8.1c0,1-4.6,4.1-8.9,6.2c-8.7,4.1-22.6,9.2-33,9.5
			c-9.1,0.2-20-1.1-29.4-4.6c-2.5-0.5-3.3-1.7-6.7-2.9c-3.2-0.8-6.2-3.5-7.1-4.1c-3.2-2.2,1.6-7.1,4-10c0.3-0.3,0.8-0.5,1.4-0.5
			c2.4-0.2,4.9-0.2,7.3-0.3c3-0.2,6-0.2,9.1-0.5c3.7-0.3,6.4-1.9,7.8-4.4c0.8-1.3,0.2-2.7-0.3-4c-0.5-1-1-1.9-1.4-2.9
			c-0.5-1-0.3-1.9,0.5-2.9c0.5-0.6,1.1-1.3,1.7-1.7c0.6-0.5,0.6-1,0-1.6c-0.5-0.3-1-0.8-1.4-1.1c-0.5-0.5-0.5-0.8,0.2-1.1
			c0.6-0.3,1.1-0.8,1.6-1.1c0.8-0.6,1-1.4,0.2-2.1c-1.1-1-1.6-2.1-2.1-3.2c-0.6-1.6-0.2-2.2,2.1-2.5c1.9-0.3,3.5-0.8,4.9-1.6
			c1.7-1,2.1-1.7,1.3-3.2c-0.8-1.7-2.4-3.2-4-4.4c-3.3-3.2-7-5.9-10.2-9.1c-0.8-0.8-1.1-1.4-0.6-2.5c0.8-1.6,0.3-3.3,0-4.9
			c-2.4-7.6-8.3-13.3-17.3-17.3c-3.8-1.6-7.9-2.9-12.2-3.5c-0.3-0.2-3-0.2-3.5-0.2c0.3-0.3,2.1-2.1,2.2-2.1
			c2.5-3.8,11-8.6,14.8-10.3c13.2-5.9,21.8-7.5,33.4-8.1c16.7-1,35.9,6.4,48.1,16.2C-73.5-126.6-72.1-124.2-71.6-124z"/>
	</g>
</g>
<g id="Medalhão_1_">
	<g class="st0">
	</g>
	<g id="Medalhão">
		<ellipse class="st5" cx="87.7" cy="87.9" rx="82.9" ry="82.6"/>
		<ellipse class="st6" cx="87.7" cy="87.9" rx="71.9" ry="71.6"/>
		<path id="Superior_esquerdo" class="st7" d="M61.2,42.8c-14.6,0-26.5,10.8-26.5,24.1v7.9c0,7.8,4.1,14.8,10.5,19.2
			c0-0.8-0.2-1.4-0.2-2.2c0-11.9,5.7-22.6,14.9-29.7c0.2-0.2,0.6-0.5,0.6-0.5c1-0.8,1.9-1.6,3.2-2.2c1.1-0.8,2.2-1.3,3.3-1.9
			c0,0,0,0,0.2,0c2.2-1.1,4.4-2.1,6.5-2.9c4.6-1.6,9.5-2.4,14.9-2.4v-9.5L61.2,42.8L61.2,42.8z"/>
		<path id="Superior_direito" class="st7" d="M115.8,42.8H88.5v9.5c0.2,0,0.2,0,0.3,0c9.4-0.5,21.4,4,26.7,8.6c0,0,0,0,0.2,0.2
			s0.5,0.3,0.6,0.5c0.6,0.5,1.6,1.1,1.6,1.3l0,0c8.7,7.3,14.3,17.6,14.3,29.2c0,0.8,0,1.4-0.2,2.2c6.4-4.4,10.5-11.4,10.5-19.2v-7.9
			C142.5,53.7,130.6,42.8,115.8,42.8z"/>
		<ellipse id="Circulo" class="st8" cx="88.5" cy="90.7" rx="43.7" ry="38.6"/>
		<path id="Inferior_x5F_direito" class="st7" d="M132,93.7c-1.1,19.9-20.2,35.6-43.4,35.6l0,0v11.9l0,0c29.7,0,53.7-20.6,53.7-46.1
			V78h-0.2C141.4,84.5,137.6,90.1,132,93.7z"/>
		<path id="Inferior_x5F_esquerdo" class="st7" d="M45.1,93.9C39.6,90.2,35.6,84.5,35,78h-0.2v17c0,25.3,23.5,45.7,52.9,46.1
			c0.3,0,0.5,0,0.8,0l0,0v-11.9C65.3,129.3,46.3,113.6,45.1,93.9z"/>
		<path class="st9" d="M89,53.7c23.3,0,42.4,16.8,42.4,37s-18.6,37.2-42.4,37.2c-24.1,0-42.7-17-42.7-37
			C46.3,69.9,64.7,53.6,89,53.7z"/>
		<g id="Taça">
			<path class="st7" d="M120.4,65c-2.2-0.8-4.1-0.6-6.2,0.2c-3.7,1.6-6.8,3.5-9.4,6c-2.2,2.5-3.7,5.2-4,8.3
				c-0.2,0.8,0.2,1.4,0.5,2.1c0.2,0.5,0.2,0.8-0.2,1.1c-1.3,1.4-2.9,2.9-4.3,4.3c-1.4,1.4-3,2.9-4.1,4.4c-0.3,0.5-0.6,1-0.8,1.6
				c0,0.6,0.2,1.1,1,1.3c1.1,0.5,1.9,1,3.3,1c0.2,0,0.5,0.2,0.6,0.2c0.8,0.2,1.3,0.5,1.1,1.1c-0.3,1-0.5,1.9-1.3,2.5
				c-0.6,0.5-0.5,1.1,0.2,1.4c0.3,0.2,0.6,0.5,1.1,0.6c0.5,0.2,0.5,0.5,0.2,0.8c-0.2,0.2-0.5,0.5-0.8,0.8c-0.5,0.5-0.5,0.8,0.2,1.1
				c0.2,0.2,0.3,0.2,0.5,0.3c1.3,1,1.6,1.9,1,3.2c-0.5,0.8-0.8,1.6-1,2.5c-0.2,1.1,0.5,1.9,1.6,2.7c1.3,0.8,3,1.3,4.9,1.3
				c3.3-0.2,6.5-0.2,9.7-0.2c0.5,0,0.8,0,1,0.3c1.6,1.6,2.7,3.2,2.9,5.2c0.2,0.8-3.2,2.7-5.7,4c-5.7,2.7-14.6,6-21.6,6.2
				c-5.9,0.2-13-0.8-19.2-3c-1.6-0.3-2.2-1.3-4.3-1.9c-2.1-0.5-4-2.2-4.8-2.7c-2.1-1.4,1.1-4.6,2.7-6.5c0.2-0.2,0.5-0.3,1-0.3
				c1.6,0,3.2-0.2,4.9-0.2c1.9-0.2,4-0.2,5.9-0.3c2.4-0.2,4.1-1.3,5.2-2.9c0.5-0.8,0.2-1.7-0.2-2.5c-0.3-0.6-0.6-1.3-1-1.9
				c-0.3-0.6-0.2-1.3,0.3-1.9c0.3-0.5,0.8-0.8,1.1-1.1c0.5-0.3,0.5-0.8,0.2-1.1c-0.3-0.3-0.5-0.5-0.8-0.8s-0.3-0.5,0.2-0.8
				c0.5-0.2,0.8-0.5,1.1-0.8c0.5-0.5,0.6-1,0.2-1.3c-0.8-0.6-1.1-1.3-1.3-2.1c-0.5-1.1-0.2-1.4,1.3-1.6c1.1-0.2,2.2-0.5,3.2-1.1
				c1.1-0.6,1.3-1.1,0.8-2.1c-0.5-1.1-1.6-1.9-2.5-2.9c-2.1-1.9-4.6-3.8-6.7-5.9c-0.5-0.5-0.8-1-0.5-1.6c0.5-1.1,0.2-2.2-0.2-3.2
				C75.8,74,72,70.2,66.1,67.7c-2.4-1.1-5.2-1.9-8.1-2.2c-0.2,0-1.9-0.2-2.2-0.2c0.2-0.2,1.3-1.3,1.3-1.3c1.6-2.5,7-5.6,9.7-6.7
				c8.6-3.8,14.3-4.9,21.8-5.2c10.8-0.6,23.3,4.1,31.4,10.5C119.6,62.6,120.3,65,120.4,65z"/>
		</g>
		<g>
			<path class="st10" d="M60.7,42.8c-14.3,0-26,10.5-26,23.2v7.6c0,7.5,4,14.1,10.3,18.4c0-0.8-0.2-1.3-0.2-2.1
				c0-11.4,5.7-21.6,14.6-28.6c0.2-0.2,0.6-0.5,0.6-0.5c1-0.8,1.9-1.4,3.2-2.2c1.1-0.6,2.2-1.3,3.3-1.9c0,0,0,0,0.2,0
				c2.2-1.1,4.3-1.9,6.5-2.5c4.6-1.6,9.4-2.4,14.6-2.4v-9.1L60.7,42.8L60.7,42.8z"/>
		</g>
		<g>
			<path class="st11" d="M116,42.8H89v9.1c0.2,0,0.2,0,0.3,0c9.1-0.5,21.1,4,26.4,8.3c0,0,0,0,0.2,0.2s0.5,0.3,0.6,0.5
				c0.6,0.5,1.6,1.1,1.6,1.3l0,0c8.6,7,14,17,14,28c0,0.8,0,1.3-0.2,2.1c6.4-4.3,10.3-11,10.3-18.4v-7.6
				C142.2,53.2,130.3,42.8,116,42.8z"/>
		</g>
		<g>
			<path class="st12" d="M45.9,96c-5.4-3.5-9.8-6.5-10.6-12.4v4.6v8.4c-0.2,23.3,23.2,43,51.6,43.4c0.3,0,0.5,0,0.8,0l0,0v-11.1
				C65.3,128.8,47,114.4,45.9,96z"/>
		</g>
		<g>
			<path class="st13" d="M131.4,96c-1.1,18.1-19.7,32.7-42.4,32.7l0,0v11l0,0c28.9,0,52.4-19.1,52.4-42.4V81.5h-0.2
				C140.6,87.4,136.8,92.6,131.4,96z"/>
		</g>
		<g>
			<path class="st14" d="M117.2,63.1c-2.2,0.3-1.6,0.3-3.5,1.1c-3.7,1.4-7,3.2-9.4,5.7s-4.8,6.8-4.9,10c-0.2,0.8,0.6,1.9,1,2.5
				c0.2,0.5,0.2,0.6-0.2,1.1c-1.3,1.4-1.9,2.2-3.3,3.7s-2.5,2.7-3.7,4.3c-0.5,0.5-0.8,1.6-1,2.1c-0.2,0.6,1.1,1,1.6,1.3
				c1.1,0.5,1.9,1,3.2,1.1c0.2,0,0.5,0.2,0.6,0.2c0.8,0.2,1.3,0.6,1,1.3c-0.3,0.8-0.5,1.7-1.3,2.5c-0.6,0.5-0.5,1.1,0.2,1.6
				c0.3,0.2,0.6,0.5,1.1,0.6c0.5,0.2,0.5,0.5,0.2,0.8c-0.2,0.2-0.5,0.5-0.8,0.6c-0.5,0.5-0.5,0.8,0.2,1.1c0.2,0.2,0.3,0.2,0.5,0.3
				c1.3,1,1.6,1.9,0.8,3.2c-0.5,0.8-0.8,1.6-1.1,2.5c-0.2,1.1,0.8,2.1,1.9,2.9c1.4,0.8,3,1.3,4.9,1.4c3.2,0.5,6,0.5,9.2,0.5
				c0.2,0,0.2,0.2,0.6,0.6c1.1,1.4,1.1,1.4,1.6,3.2c-0.6,0.8-2.5,2.2-5.2,3.7c-5.7,2.5-14.6,5.4-21.4,5.4c-5.9,0-12.2-0.6-18.1-3.2
				c-1.6-0.6-2.2-0.8-4.1-1.7c-1.9-0.8-3.3-1.9-4.1-2.5c0-0.8,1.9-4,2.5-5.2c0.2-0.2,0.8-0.5,1.3-0.5c1.6,0,2.5,0,4.3,0
				c1.9,0,3.7-0.2,5.7-0.3c2.4-0.2,4.1-1.1,5.2-2.9c0.5-0.8,0.2-1.7-0.2-2.7c-0.3-0.6-0.5-1.3-0.8-1.9c-0.3-0.6-0.2-1.3,0.5-1.9
				c0.3-0.5,0.8-0.8,1.1-1.1s0.5-0.6,0.2-1.1c-0.3-0.3-0.6-0.5-1-0.8s-0.3-0.5,0.2-0.8c0.5-0.2,0.8-0.5,1.1-0.8
				c0.5-0.5,0.6-1,0.2-1.3c-0.8-0.6-1.1-1.3-1.3-2.2c-0.5-1.1-0.2-1.6,1.3-1.6c1.3-0.2,2.2-0.5,3.2-1.1c1.1-0.5,1.3-1.1,1-2.1
				c-0.5-1.1-1.6-2.1-2.5-3c-2.1-2.1-4.3-4-6.4-6.2c-0.5-0.5-0.8-1-0.5-1.6c0.5-1.1,0.3-2.2,0-3.2c-1.4-5.1-4.9-8.1-10.8-11
				c-2.4-1.1-4-1.7-6.8-2.4c-0.2-0.2-2.4-0.5-2.5-0.5c0.2-0.3,1.1-1.3,1.1-1.4c2.4-2.1,6.4-4,9.1-4.9c8.6-3.7,14.1-4.6,21.6-4.8
				c10.8-0.2,17,1.1,25.1,7.5C114.9,61.2,117.1,62.9,117.2,63.1z"/>
		</g>
	</g>
</g>
</svg>
