<?xml version="1.0" encoding="utf-8"?>
<!-- Generator: Adobe Illustrator 22.0.0, SVG Export Plug-In . SVG Version: 6.00 Build 0)  -->
<svg version="1.1" id="Layer_1" xmlns="http://www.w3.org/2000/svg" xmlns:xlink="http://www.w3.org/1999/xlink" x="0" y="0" height="200" width="200"
	 viewBox="-10 -10 500 500" style="enable-background:new 0 0 160 160; border: 0px solid transparent;" xml:space="preserve">
<style type="text/css">
	.st0{display:none;}
	.st1{display:inline;}
	.st2{fill:#3C3C42;stroke:#FF6F0F;stroke-width:30;stroke-miterlimit:10;}
	.st3{fill:#595A63;stroke:#000000;stroke-width:3;stroke-miterlimit:10;}
	.st4{fill:none;stroke:#000000;stroke-width:2;stroke-miterlimit:10;}
	.st5{fill:#3C3C42;stroke:#000000;stroke-width:2;stroke-miterlimit:10;}
	.st6{fill:#595A63;stroke:#000000;stroke-width:2;stroke-miterlimit:10;}
	.st7{display:none;fill:#8C6239;}
	.st8{display:inline;fill:#D9A46F;}
	.st9{display:inline;fill:#402A14;}
	.st10{display:inline;fill:#482B8C;}
	.st11{display:inline;fill:#231740;}
	.st12{display:inline;fill:#3A798C;}
</style>
<g id="Layer_1_3_" class="st0">
	<g id="Layer_1_1_" class="st1">
		
		<image style="overflow:visible;enable-background:new;" width="1051" height="1437" xlink:href="../../Parte_amuleto_padronizado/Circulo.png"  transform="matrix(7.966473e-02 0 0 5.141885e-02 198.1342 50.4931)">
		</image>
		
			<image style="overflow:visible;enable-background:new    ;" width="1051" height="1437" xlink:href="../../Parte_amuleto_padronizado/Taça.png"  transform="matrix(7.126968e-02 0 0 5.204649e-02 202.2066 49.5912)">
		</image>
		
			<image style="overflow:visible;enable-background:new    ;" width="1051" height="1437" xlink:href="../../Parte_amuleto_padronizado/pedaço_medalhão_baixo_unificado.png"  transform="matrix(9.700208e-02 0 0 4.257470e-02 188.629 75.574)">
		</image>
		
		<image style="overflow:visible;enable-background:new;" width="1051" height="1437" xlink:href="../../Parte_amuleto_padronizado/Parte_superior_unificado.png"  transform="matrix(9.719935e-02 0 0 3.456087e-02 349.4217 -50.5798)">
		</image>
	</g>
	<g id="Layer_1_2_" class="st1">
		<path class="st2" d="M-172.6,44.9c-44.2,0-80-35.8-80-80s35.8-80,80-80s80,35.8,80,80S-128.4,44.9-172.6,44.9"/>
		<ellipse class="st3" cx="-172.6" cy="-35.1" rx="69.4" ry="69.4"/>
		<path id="Superior_esquerdo_1_" class="st4" d="M-198.4-78.8c-14.1,0-25.6,10.5-25.6,23.3v7.7c0,7.6,4,14.3,10.2,18.6
			c0-0.7,0-1.4,0-2.1c0-11.5,5.6-21.8,14.3-28.9c0.1-0.2,0.6-0.5,0.6-0.5c0.9-0.7,2-1.4,3.1-2.2c1.1-0.7,2.1-1.3,3.3-1.9
			c0,0,0,0,0.1-0.1c2.1-1.1,4.2-2,6.3-2.6c4.5-1.5,9.3-2.3,14.3-2.3v-9.1L-198.4-78.8L-198.4-78.8L-198.4-78.8z"/>
		<path id="Superior_direito_1_" class="st4" d="M-145.4-78.8h-26.5v9.3c0.1,0,0.2,0,0.3,0c9-0.4,20.6,3.9,25.9,8.3
			c0,0,0,0.1,0.1,0.1c0.2,0.1,0.4,0.3,0.6,0.4c0.6,0.5,1.5,1.1,1.5,1.2l0,0c8.4,7,13.7,17.1,13.7,28.3c0,0.7,0,1.4,0,2.1
			c6.1-4.3,10.2-11,10.2-18.6v-7.7C-119.8-68.3-131.3-78.8-145.4-78.8z"/>
		<ellipse id="Circulo_1_" class="st4" cx="-171.9" cy="-32.4" rx="42.2" ry="37.4"/>
		<path id="Inferior_x5F_direito_1_" class="st4" d="M-129.9-29.4c-1,19.2-19.4,34.4-42,34.4l0,0v11.6l0,0c28.6,0,51.9-20,51.9-44.7
			v-16.5h-0.1C-120.8-38.4-124.5-33-129.9-29.4z"/>
		<path id="Inferior_x5F_esquerdo_1_" class="st4" d="M-213.8-29.4c-5.4-3.6-9.1-9.1-9.9-15.2h-0.1V-28c0,24.4,22.8,44.3,51,44.7
			c0.3,0,0.5,0,0.8,0l0,0V5.2C-194.4,5-212.8-10.2-213.8-29.4z"/>
	</g>
	<g id="Taça_1_" class="st1">
		<path class="st4" d="M-21-53.4c-2.1,0.4-4.4,0.2-6.3,1c-3.6,1.4-6.6,3.4-8.9,5.9c-2.2,2.4-3.5,5.1-3.9,8c-0.1,0.7,0,1.4,0.4,2
			c0.2,0.4,0.1,0.7-0.2,1.1c-1.3,1.4-2.7,2.8-4.1,4.1c-1.4,1.4-2.9,2.7-4,4.3c-0.3,0.5-0.6,0.9-0.7,1.4c0,0.6,0.2,1,0.9,1.3
			c1,0.5,2,0.9,3.2,0.9c0.2,0,0.4,0.1,0.7,0.1c0.8,0.2,1.2,0.5,1,1.1c-0.3,0.8-0.4,1.7-1.3,2.4c-0.6,0.5-0.5,1,0.2,1.4
			c0.3,0.2,0.6,0.4,1,0.6s0.4,0.5,0.1,0.7c-0.2,0.2-0.5,0.4-0.8,0.7c-0.4,0.4-0.4,0.7,0.1,1.1c0.1,0.1,0.3,0.2,0.4,0.3
			c1.2,0.9,1.5,1.8,0.9,3c-0.4,0.8-0.8,1.6-0.9,2.5c-0.1,1.1,0.5,2,1.6,2.6c1.3,0.9,2.8,1.3,4.6,1.2c3.1-0.1,6.3-0.2,9.4-0.2
			c0.4,0,0.7,0.1,1,0.3c1.5,1.6,2.6,3.1,2.8,5.1c0,0.6-2.9,2.6-5.6,3.9c-5.5,2.6-14.2,5.8-20.8,6c-5.7,0.1-12.6-0.7-18.5-2.9
			c-1.6-0.3-2.1-1.1-4.2-1.8c-2-0.5-3.9-2.2-4.5-2.6c-2-1.4,1-4.5,2.5-6.3c0.2-0.2,0.5-0.3,0.9-0.3c1.5-0.1,3.1-0.1,4.6-0.2
			c1.9-0.1,3.8-0.1,5.7-0.3c2.3-0.2,4-1.2,4.9-2.8c0.5-0.8,0.1-1.7-0.2-2.5c-0.3-0.6-0.6-1.2-0.9-1.8c-0.3-0.6-0.2-1.2,0.3-1.8
			c0.3-0.4,0.7-0.8,1.1-1.1c0.4-0.3,0.4-0.6,0-1c-0.3-0.2-0.6-0.5-0.9-0.7c-0.3-0.3-0.3-0.5,0.1-0.7s0.7-0.5,1-0.7
			c0.5-0.4,0.6-0.9,0.1-1.3c-0.7-0.6-1-1.3-1.3-2c-0.4-1-0.1-1.4,1.3-1.6c1.2-0.2,2.2-0.5,3.1-1c1.1-0.6,1.3-1.1,0.8-2
			c-0.5-1.1-1.5-2-2.5-2.8c-2.1-2-4.4-3.7-6.4-5.7c-0.5-0.5-0.7-0.9-0.4-1.6c0.5-1,0.2-2.1,0-3.1c-1.5-4.8-5.2-8.4-10.9-10.9
			c-2.4-1-5-1.8-7.7-2.2c-0.2-0.1-1.9-0.1-2.2-0.1c0.2-0.2,1.3-1.3,1.4-1.3c1.6-2.4,6.9-5.4,9.3-6.5c8.3-3.7,13.7-4.7,21-5.1
			c10.5-0.6,22.6,4,30.3,10.2C-22.2-55-21.3-53.5-21-53.4z"/>
	</g>
</g>
<g id="Medalhão_1_">
	<g class="st0">
		
			<image style="display:inline;overflow:visible;enable-background:new    ;" width="246" height="246" xlink:href="../../Parte_amuleto_padronizado/DE5AD487.png"  transform="matrix(0.6504 0 0 0.6504 0 0)">
		</image>
	</g>
	<g id="Medalhão">
		<ellipse class="st5" cx="79.3" cy="80" rx="52.2" ry="52"/>
		<ellipse class="st6" cx="79.3" cy="80" rx="45.3" ry="45.1"/>
		<path id="Superior_esquerdo" class="st4" d="M62.6,51.6c-9.2,0-16.7,6.8-16.7,15.2v5c0,4.9,2.6,9.3,6.6,12.1
			c0-0.5-0.1-0.9-0.1-1.4c0-7.5,3.6-14.2,9.4-18.7c0.1-0.1,0.4-0.3,0.4-0.3c0.6-0.5,1.2-1,2-1.4c0.7-0.5,1.4-0.8,2.1-1.2
			c0,0,0,0,0.1,0c1.4-0.7,2.8-1.3,4.1-1.8c2.9-1,6-1.5,9.4-1.5v-6L62.6,51.6L62.6,51.6z"/>
		<path id="Superior_direito" class="st4" d="M97,51.6H79.8v6c0.1,0,0.1,0,0.2,0c5.9-0.3,13.5,2.5,16.8,5.4c0,0,0,0,0.1,0.1
			c0.1,0.1,0.3,0.2,0.4,0.3c0.4,0.3,1,0.7,1,0.8l0,0c5.5,4.6,9,11.1,9,18.4c0,0.5,0,0.9-0.1,1.4c4-2.8,6.6-7.2,6.6-12.1v-5
			C113.8,58.5,106.3,51.6,97,51.6z"/>
		<ellipse id="Circulo" class="st4" cx="79.8" cy="81.8" rx="27.5" ry="24.3"/>
		<path id="Inferior_x5F_direito" class="st4" d="M107.2,83.7c-0.7,12.5-12.7,22.4-27.3,22.4l0,0v7.5l0,0c18.7,0,33.8-13,33.8-29
			V73.8h-0.1C113.1,77.9,110.7,81.4,107.2,83.7z"/>
		<path id="Inferior_x5F_esquerdo" class="st4" d="M52.5,83.8c-3.5-2.3-6-5.9-6.4-10H46v10.7c0,15.9,14.8,28.8,33.3,29
			c0.2,0,0.3,0,0.5,0l0,0V106C65.2,106.1,53.2,96.2,52.5,83.8z"/>
		<path class="st7" d="M80.1,58.5c14.7,0,26.7,10.6,26.7,23.3s-11.7,23.4-26.7,23.4c-15.2,0-26.9-10.7-26.9-23.3
			C53.2,68.7,64.8,58.4,80.1,58.5z"/>
		<g id="Taça">
			<path class="st4" d="M99.9,65.6c-1.4-0.5-2.6-0.4-3.9,0.1c-2.3,1-4.3,2.2-5.9,3.8c-1.4,1.6-2.3,3.3-2.5,5.2
				c-0.1,0.5,0.1,0.9,0.3,1.3c0.1,0.3,0.1,0.5-0.1,0.7c-0.8,0.9-1.8,1.8-2.7,2.7c-0.9,0.9-1.9,1.8-2.6,2.8c-0.2,0.3-0.4,0.6-0.5,1
				c0,0.4,0.1,0.7,0.6,0.8c0.7,0.3,1.2,0.6,2.1,0.6c0.1,0,0.3,0.1,0.4,0.1c0.5,0.1,0.8,0.3,0.7,0.7C85.6,86,85.5,86.6,85,87
				c-0.4,0.3-0.3,0.7,0.1,0.9c0.2,0.1,0.4,0.3,0.7,0.4c0.3,0.1,0.3,0.3,0.1,0.5c-0.1,0.1-0.3,0.3-0.5,0.5c-0.3,0.3-0.3,0.5,0.1,0.7
				c0.1,0.1,0.2,0.1,0.3,0.2c0.8,0.6,1,1.2,0.6,2c-0.3,0.5-0.5,1-0.6,1.6c-0.1,0.7,0.3,1.2,1,1.7c0.8,0.5,1.9,0.8,3.1,0.8
				c2.1-0.1,4.1-0.1,6.1-0.1c0.3,0,0.5,0,0.6,0.2c1,1,1.7,2,1.8,3.3c0.1,0.5-2,1.7-3.6,2.5c-3.6,1.7-9.2,3.8-13.6,3.9
				c-3.7,0.1-8.2-0.5-12.1-1.9c-1-0.2-1.4-0.8-2.7-1.2c-1.3-0.3-2.5-1.4-3-1.7c-1.3-0.9,0.7-2.9,1.7-4.1c0.1-0.1,0.3-0.2,0.6-0.2
				c1,0,2-0.1,3.1-0.1c1.2-0.1,2.5-0.1,3.7-0.2c1.5-0.1,2.6-0.8,3.3-1.8c0.3-0.5,0.1-1.1-0.1-1.6c-0.2-0.4-0.4-0.8-0.6-1.2
				c-0.2-0.4-0.1-0.8,0.2-1.2c0.2-0.3,0.5-0.5,0.7-0.7c0.3-0.2,0.3-0.5,0.1-0.7c-0.2-0.2-0.3-0.3-0.5-0.5s-0.2-0.3,0.1-0.5
				c0.3-0.1,0.5-0.3,0.7-0.5c0.3-0.3,0.4-0.6,0.1-0.8c-0.5-0.4-0.7-0.8-0.8-1.3c-0.3-0.7-0.1-0.9,0.8-1c0.7-0.1,1.4-0.3,2-0.7
				c0.7-0.4,0.8-0.7,0.5-1.3c-0.3-0.7-1-1.2-1.6-1.8c-1.3-1.2-2.9-2.4-4.2-3.7c-0.3-0.3-0.5-0.6-0.3-1c0.3-0.7,0.1-1.4-0.1-2
				c-1-3.1-3.4-5.5-7.1-7.1c-1.5-0.7-3.3-1.2-5.1-1.4c-0.1,0-1.2-0.1-1.4-0.1c0.1-0.1,0.8-0.8,0.8-0.8c1-1.6,4.4-3.5,6.1-4.2
				c5.4-2.4,9-3.1,13.7-3.3c6.8-0.4,14.7,2.6,19.8,6.6C99.4,64.1,99.8,65.6,99.9,65.6z"/>
		</g>
		<g class="st0">
			<path class="st8" d="M62.3,51.6c-9,0-16.4,6.6-16.4,14.6V71c0,4.7,2.5,8.9,6.5,11.6c0-0.5-0.1-0.8-0.1-1.3c0-7.2,3.6-13.6,9.2-18
				c0.1-0.1,0.4-0.3,0.4-0.3c0.6-0.5,1.2-0.9,2-1.4c0.7-0.4,1.4-0.8,2.1-1.2c0,0,0,0,0.1,0c1.4-0.7,2.7-1.2,4.1-1.6
				c2.9-1,5.9-1.5,9.2-1.5v-5.7H62.3L62.3,51.6z"/>
		</g>
		<g class="st0">
			<path class="st9" d="M97.1,51.6h-17v5.7c0.1,0,0.1,0,0.2,0c5.7-0.3,13.3,2.5,16.6,5.2c0,0,0,0,0.1,0.1c0.1,0.1,0.3,0.2,0.4,0.3
				c0.4,0.3,1,0.7,1,0.8l0,0c5.4,4.4,8.8,10.7,8.8,17.6c0,0.5,0,0.8-0.1,1.3c4-2.7,6.5-6.9,6.5-11.6v-4.8
				C113.6,58.2,106.1,51.6,97.1,51.6z"/>
		</g>
		<g class="st0">
			<path class="st10" d="M53,85.1c-3.4-2.2-6.2-4.1-6.7-7.8v2.9v5.3c-0.1,14.7,14.6,27.1,32.5,27.3c0.2,0,0.3,0,0.5,0l0,0v-7
				C65.2,105.8,53.7,96.7,53,85.1z"/>
		</g>
		<g class="st0">
			<path class="st11" d="M106.8,85.1c-0.7,11.4-12.4,20.6-26.7,20.6l0,0v6.9l0,0c18.2,0,33-12,33-26.7V76H113
				C112.6,79.7,110.2,83,106.8,85.1z"/>
		</g>
		<g class="st0">
			<path class="st12" d="M97.9,64.4c-1.4,0.2-1,0.2-2.2,0.7c-2.3,0.9-4.4,2-5.9,3.6c-1.5,1.6-3,4.3-3.1,6.3
				c-0.1,0.5,0.4,1.2,0.6,1.6c0.1,0.3,0.1,0.4-0.1,0.7c-0.8,0.9-1.2,1.4-2.1,2.3c-0.9,0.9-1.6,1.7-2.3,2.7c-0.3,0.3-0.5,1-0.6,1.3
				c-0.1,0.4,0.7,0.6,1,0.8c0.7,0.3,1.2,0.6,2,0.7c0.1,0,0.3,0.1,0.4,0.1c0.5,0.1,0.8,0.4,0.6,0.8c-0.2,0.5-0.3,1.1-0.8,1.6
				c-0.4,0.3-0.3,0.7,0.1,1c0.2,0.1,0.4,0.3,0.7,0.4c0.3,0.1,0.3,0.3,0.1,0.5c-0.1,0.1-0.3,0.3-0.5,0.4c-0.3,0.3-0.3,0.5,0.1,0.7
				c0.1,0.1,0.2,0.1,0.3,0.2c0.8,0.6,1,1.2,0.5,2c-0.3,0.5-0.5,1-0.7,1.6c-0.1,0.7,0.5,1.3,1.2,1.8c0.9,0.5,1.9,0.8,3.1,0.9
				c2,0.3,3.8,0.3,5.8,0.3c0.1,0,0.1,0.1,0.4,0.4c0.7,0.9,0.7,0.9,1,2c-0.4,0.5-1.6,1.4-3.3,2.3c-3.6,1.6-9.2,3.4-13.5,3.4
				c-3.7,0-7.7-0.4-11.4-2c-1-0.4-1.4-0.5-2.6-1.1c-1.2-0.5-2.1-1.2-2.6-1.6c0-0.5,1.2-2.5,1.6-3.3c0.1-0.1,0.5-0.3,0.8-0.3
				c1,0,1.6,0,2.7,0c1.2,0,2.3-0.1,3.6-0.2c1.5-0.1,2.6-0.7,3.3-1.8c0.3-0.5,0.1-1.1-0.1-1.7c-0.2-0.4-0.3-0.8-0.5-1.2
				c-0.2-0.4-0.1-0.8,0.3-1.2c0.2-0.3,0.5-0.5,0.7-0.7s0.3-0.4,0.1-0.7c-0.2-0.2-0.4-0.3-0.6-0.5c-0.2-0.2-0.2-0.3,0.1-0.5
				c0.3-0.1,0.5-0.3,0.7-0.5c0.3-0.3,0.4-0.6,0.1-0.8c-0.5-0.4-0.7-0.8-0.8-1.4c-0.3-0.7-0.1-1,0.8-1c0.8-0.1,1.4-0.3,2-0.7
				c0.7-0.3,0.8-0.7,0.6-1.3c-0.3-0.7-1-1.3-1.6-1.9c-1.3-1.3-2.7-2.5-4-3.9c-0.3-0.3-0.5-0.6-0.3-1c0.3-0.7,0.2-1.4,0-2
				c-0.9-3.2-3.1-5.1-6.8-6.9c-1.5-0.7-2.5-1.1-4.3-1.5c-0.1-0.1-1.5-0.3-1.6-0.3c0.1-0.2,0.7-0.8,0.7-0.9c1.5-1.3,4-2.5,5.7-3.1
				c5.4-2.3,8.9-2.9,13.6-3c6.8-0.1,10.7,0.7,15.8,4.7C96.4,63.2,97.8,64.3,97.9,64.4z"/>
		</g>
	</g>
</g>
</svg>
