<svg id="Layer_3" data-name="Layer 3" xmlns="http://www.w3.org/2000/svg" viewBox="0 0 331.94 368.38"><defs><style>.cls-1{fill:#888;stroke-width:3px;}.cls-1,.cls-2,.cls-3{stroke:#000;stroke-miterlimit:10;}.cls-2,.cls-4{fill:#512d17;}.cls-2,.cls-3{stroke-width:10px;}.cls-5{fill:#17c7ff;}</style></defs><title>caneca</title><path class="cls-1" d="M943.76,578.26l-19.52,35.15s31.13,17.69,42.5,21.05c13.16,3.9,40.81,5.55,54.5,6.34,17.47,1,52.55,1.23,70,0,11.34-.79,34-3.35,45-6.34,9.93-2.7,38-15.69,38-15.69L1151.54,584Z" transform="translate(-912.15 -274.77)"/><path class="cls-2" d="M950.53,587c-10.46-8.55-21.67-43.24-25.74-60-5.09-20.91-8.14-66-7.57-88.27.43-16.74,5.2-49.92,9.08-65.64,4.35-17.57,13.43-56.1,24.23-65.63,42.69-37.69,155-36.07,198.33,0,8.17,6.8,16.41,34.43,19.68,47.53,4.16,16.64,6.62,52.45,7.57,70.16.88,16.36,1.44,49.37,0,65.64-1.34,15.1-6.39,45-10.6,58.84-3.1,10.22-10,32-16.65,37.35C1105.14,621.94,994,622.52,950.53,587Z" transform="translate(-912.15 -274.77)"/><path class="cls-3" d="M950.53,307.45s19.39,24.12,28.21,29.1c10.28,5.79,34.28,9.22,46,10.55,14.41,1.63,43.53.91,58,0,11.57-.73,35.33-1.3,46-5.83,8.18-3.47,27.72-22.25,27.72-22.25l-7.6-11.57-42.78-20.39-43.34-7.27-45.5,2-37.32,9Z" transform="translate(-912.15 -274.77)"/><path class="cls-1" d="M926.51,377s24.15,14,34.23,19.79c14.68,8.43,50.24,14.1,67,16.5,12.62,1.81,38.28.76,51,0,12.57-.75,37.7-3.35,50-6,11.56-2.49,42.71-13.36,42.71-13.36l.79,32.36s-35.91,10.56-49.5,13c-18.7,3.36-56.66,7.62-75.67,7.33-14.45-.22-43.21-4.24-57.33-7.33-11.86-2.6-35.53-9-46.33-14.53-6.16-3.17-22.12-16.68-22.12-16.68Z" transform="translate(-912.15 -274.77)"/><path class="cls-1" d="M921.29,485.77s26,22.06,36,27.5c8.87,4.87,28.2,11.39,38,13.9,11.52,2.94,35.15,6.21,47,7.1a378.51,378.51,0,0,0,40,0,318.2,318.2,0,0,0,34-4.5c7.78-1.65,23.16-6,30.5-9s22.6-8.12,22.6-8.12L1163.76,544s-15.49,6.15-23.52,8.78c-12.6,4.13-36.3,9.7-49.5,11-15.63,1.56-47.49,2.51-63,0-13.57-2.21-45.51-8.15-58-13.91-8-3.67-22.94-12.92-30-18.11-4.57-3.35-17-15-17-15Z" transform="translate(-912.15 -274.77)"/><circle class="cls-1" cx="27.22" cy="128.63" r="6.62"/><circle class="cls-1" cx="130.84" cy="156.25" r="8.25"/><circle class="cls-1" cx="245.47" cy="141.63" r="6.37"/><circle class="cls-1" cx="24.47" cy="237.88" r="6.88"/><circle class="cls-1" cx="127.26" cy="273.67" r="7.66"/><circle class="cls-1" cx="241.59" cy="258.15" r="7.36"/><path class="cls-4" d="M1217.2,360.58a29,29,0,0,1,4.08,15.7c-.13,4.34-1.66,9.17-5.57,11a15.19,15.19,0,0,1-6.54,1c-9.64,0-22.54,0-32.18,0V410c7.5.21,18.11-4.54,25.25-2.25,3.94,1.27,3.54-2.29,4.45-1.19.58.7,1.1,4.31,1.23,5.22l1.55,11.05c.58,4.15-.37,12.24-.73,16.42-.48,5.6-.14,13.88-1,19.43-1.51,9.18-1.32,14.81-1.75,24.09-.3,6.38,0,16.46-2.46,22.34-.31.74-2-2.27-2.74-1.86s-.36,4.15-1.25,4c-8.58-1.17-15.66-4.36-24.25-5.53l-4.49,19.14,22-.66a2.45,2.45,0,0,1,3.14,3l-.38,16.38c-.21,9.18-1,19.57-8.1,25.38-1.19,1-2.8,1.8-4.21,1.19a4.33,4.33,0,0,1-2.06-2.63,17.56,17.56,0,0,1,3.9-18.25c-2.65-1.58-6.25-.52-8.45,1.65s-3.32,5.18-4.33,8.1c-2.76,8-5,17.37-.39,24.48,4.35,6.76,13.36,8.84,21.39,8.52a22.92,22.92,0,0,0,7.63-1.36,22.63,22.63,0,0,0,8.21-6.2c11.28-12.51,15.09-29.87,18.35-46.4,1.37-6.93,2.72-13.91,3-21,.72-19-6.37-38.07-3.11-56.81,1-6,3.14-11.82,4.61-17.76,5.56-22.44,11.8-46,8.31-68.85l2-6c1.29-6.46-.84-6.87-3.64-12.83-1.25-2.68-2.9-5.21-3.62-8.08-1.61-6.49,1.83-13.46.13-19.93a18.37,18.37,0,0,0-5.94-8.81c-5.16-4.57-12-7.4-18.9-6.95-10.21.67-18.94,8.45-23.24,17.73s-4.86,19.84-4.44,30.05c.36,8.67,2.15,18.59,9.64,23l3.44-25.17c.61-4.46,1.34-9.19,4.32-12.57s9-4.38,11.77-.81a3,3,0,0,1,.46,3.38c-.67,1-.21,4.17-.21,5.36,0,4.25,4.29,8.12,5.16,12.51" transform="translate(-912.15 -274.77)"/><path d="M1215.91,361.33a27.73,27.73,0,0,1,3.79,16.27c-.35,3.25-1.48,6.39-4.46,8-2.76,1.5-6,1.17-9,1.17-9.74,0-19.47,0-29.2,0a1.52,1.52,0,0,0-1.5,1.5V410a1.52,1.52,0,0,0,1.5,1.5c6.34,0,12.35-2.31,18.64-2.79,3.2-.24,8.85,2.45,11.27-.74q1-1.25-1.11.45c.17.72.32,1.43.43,2.16.2,1.07.33,2.16.48,3.24.23,1.6.45,3.19.67,4.79a75,75,0,0,1,.13,17.84c-.57,6.25-.39,12.52-.92,18.76-.56,6.71-1.62,13.25-1.86,20-.23,6.55-.25,13.14-.75,19.67a43.4,43.4,0,0,1-.81,6.13l-.32,1.31c-.81,1.2-.47,1.69,1,1.48-1.3-.8-1.47-1.87-3.11-2.05a1.47,1.47,0,0,0-1.29.74c-.47.73-.31,2.22-.77,2.77.1.87-.1,1-.61.29l-1.77-.33c-1.41-.42-2.89-.65-4.32-1-5.44-1.4-10.77-3.05-16.34-3.91a1.53,1.53,0,0,0-1.84,1.05l-4.5,19.14a1.52,1.52,0,0,0,1.45,1.9l12-.36c2.68-.08,10.25-1.58,11.64,1.19,1,2-.17,7.6-.23,10-.08,3.35-.11,6.7-.28,10-.3,5.86-.91,14.28-5.49,18.66a3.07,3.07,0,0,1-3.22,1.46q-2.91,1.73-3-1.59a15.83,15.83,0,0,1-.55-5.17,16.55,16.55,0,0,1,4.51-10.29,1.52,1.52,0,0,0-.3-2.36c-13.86-6.06-19,19.53-17.9,28.51,1.77,14.72,19.31,19.78,31.92,16.13,14.06-4.08,21.23-22.91,24.81-35.5,5.12-18,8.66-36.95,6.51-55.66-1.15-10.07-3.13-20.09-3.17-30.26,0-10.48,3.36-20.05,5.87-30.09,4.74-19,9.72-38.43,8.82-58.13-.15-3.31-1.2-7-.52-10.19.47-2.24,1.61-4.19,1.88-6.5.81-6.85-4.88-12.26-7-18.41-3-8.62,2.78-17.65-2.43-25.94-3.75-6-10.73-10.37-17.57-11.81-17-3.59-30.39,11-34.15,26.3a78,78,0,0,0-1.23,28.24c1,7.33,3.47,14.32,9.89,18.48a1.51,1.51,0,0,0,2.2-.9l2.78-20.33c.77-5.65.81-14.63,6.18-18.1,3.66-2.36,7.58-1.46,7.87,3.28.09,1.63-.16,3.29,0,4.94.49,4.87,4,8.29,5.22,12.91a1.5,1.5,0,0,0,2.89-.8c-1-3.64-3.6-6.45-4.71-10-1-3.15.24-5.58.16-8.58-.13-4.89-5.69-6.67-9.72-5.68-5.94,1.45-8.48,7.13-9.54,12.65-1.84,9.52-2.72,19.31-4,28.91l2.2-.89c-11.55-7.49-10.08-28.3-8-40,2.55-14.26,13.38-30.09,29.8-27.72,7.58,1.09,16.79,6.57,18.87,14.44,1.8,6.85-2,13.88.13,20.77,1.76,5.82,7.94,11.71,7.16,18-.35,2.79-2,5.31-2.19,8.07-.33,4,.91,8.56,1,12.63a117.94,117.94,0,0,1-.57,12.18,201.09,201.09,0,0,1-4.25,24.84c-1.78,7.94-3.66,15.89-5.89,23.72-2,6.95-3.78,13.76-4,21-.53,15.42,4,30.47,4,45.87,0,14.8-3.72,30.91-8.15,45a68.65,68.65,0,0,1-10,20.7c-5.63,7.55-12.29,11.1-21.83,10.39s-17.94-6.06-18.21-16.5c-.16-6,3.86-27.62,13.54-23.39l-.3-2.35c-4.69,5.12-8.42,16-3,22.06,5.6,6.24,12.52-6,13.91-10.26,3.26-9.87,2.46-21.67,2.47-31.9,0-3.47-1-5.22-4.62-5.4-7.25-.35-14.75.44-22,.66l1.44,1.89,4.5-19.13-1.85,1.05a123.49,123.49,0,0,1,13.81,3.23c2.95.8,7.9,3,10.84,2.35a2.29,2.29,0,0,0,2-2c.24-1.41-1.25-2.4-.3-1.43.29.3.82,1,1.27,1.13,5.89,1.75,5.13-27.68,5.26-31.28.27-7.48,1.61-14.81,2-22.27.37-6.85.59-13.66,1.12-20.5a71,71,0,0,0-.75-15.83c-.44-3.14-.16-9.51-2.94-11.56a1.5,1.5,0,0,0-1.52,0c-1.68.81-2,1.15-4.22.94a33,33,0,0,0-7.23-.13c-5.78.65-11.35,2.6-17.2,2.64l1.5,1.5V388.29l-1.5,1.5h21.14c5.54,0,13.21,1.38,18.33-1.18,10.2-5.09,6.28-21.19,2-28.79-.94-1.69-3.53-.17-2.59,1.51Z" transform="translate(-912.15 -274.77)"/><path class="cls-5" d="M960.88,320.55A78.86,78.86,0,0,1,997.74,308a17.68,17.68,0,0,1,7.46.62c3.31,1.22,5.7,4.08,8.63,6,7.3,4.87,17.13,3.63,25.3.43s15.65-8.14,24.12-10.44c5.86-1.59,12-1.87,18-2.1,4.9-.2,10-.34,14.46,1.65,3.48,1.55,6.3,4.27,9.7,6,5.26,2.64,11.38,2.64,17.26,2.81s12.08.68,16.89,4.07,7.34,10.65,3.77,15.33c-1.67,2.19-4.3,3.41-6.89,4.37-12.54,4.63-26.2,5-39.56,5.31l-41.86,1c-17.76.41-35.73.8-53.07-3.08s-34.25-12.54-44.57-27" transform="translate(-912.15 -274.77)"/></svg>