<svg id="Layer_8" data-name="Layer 8" xmlns="http://www.w3.org/2000/svg" viewBox="0 0 757.71 1052.45"><defs><style>.cls-1{fill:#888;}.cls-1,.cls-2{stroke:#000;stroke-miterlimit:10;stroke-width:10px;}.cls-2{fill:#693d1a;}</style></defs><title>escudo - parede</title><polygon class="cls-1" points="451.74 267.42 438.71 166.66 499.43 163.62 512.5 245.26 451.74 267.42"/><polygon class="cls-1" points="432.36 829.41 414.09 966.53 434.3 1040.23 473.32 978.78 492.41 840.53 432.36 829.41"/><polygon class="cls-1" points="190.04 438.06 110.92 364.32 151.32 320.21 231.08 390.47 190.04 438.06"/><polygon class="cls-1" points="592.71 785.07 686.52 868.83 748.07 888.97 717.45 825.9 623.11 740.91 592.71 785.07"/><polygon class="cls-1" points="380.45 136.78 394.84 219.44 446.09 180.48 527.49 169.97 568.99 200.42 558.24 121.5 380.45 136.78"/><polygon class="cls-2" points="450.65 127.37 446.23 87.61 440.09 55.03 442.46 21.63 484.39 27.75 489.76 56.43 487.21 89.6 485.91 125.45 450.65 127.37"/><ellipse class="cls-1" cx="1121.95" cy="46.76" rx="23.09" ry="44.81" transform="matrix(0.09, -1, 1, 0.09, 322.23, 1142.22)"/><polygon class="cls-1" points="49.38 379.72 116.88 437.69 125.69 370.6 175.39 306.19 225.59 302.74 163.24 245.35 49.38 379.72"/><polygon class="cls-2" points="96.91 328.24 62.35 303.37 32.59 284.99 7.07 259.27 36.16 230.34 62.35 246.56 87.57 272.26 115.68 298.88 96.91 328.24"/><ellipse class="cls-1" cx="691.77" cy="273.37" rx="37.28" ry="21.14" transform="translate(-614.31 619.29) rotate(-50.89)"/><path class="cls-1" d="M1173.1,245.34,789.33,450.42s37,124.36,51.83,165.63c11.42,31.68,36.35,95.2,56.37,122.69,21.15,29,75.17,79.46,106.45,98.34,56.28,34,249.29,89.09,249.29,89.09s60.79-180.61,68.61-243.67c5.35-43.11-2-135.91-9.2-178.76-9.76-57.91-85.28-219.94-85.28-219.94l-21.66-53.74Z" transform="translate(-657.61 -18.43)"/><path class="cls-2" d="M1142.87,313.74,838,476s34.22,112.75,47.39,145.12c10.1,24.86,32.08,74.72,49.39,96.42C953,740.47,994.47,784,1019.19,802c71.92,52.3,219,84.63,219,84.63s48.55-158.23,54.25-207.3c3.9-33.54-3.64-106-10.36-139.51-9.08-45.29-53.89-170.17-53.89-170.17l-39.11-82.19Z" transform="translate(-657.61 -18.43)"/><polygon class="cls-1" points="329 378.81 556.48 861.8 580.6 868.17 595.85 816.96 384.35 349.01 329 378.81"/><polygon class="cls-1" points="277.14 699.11 621.31 497.46 600.53 447.56 248.83 649.53 277.14 699.11"/></svg>