<svg id="Objeto" xmlns="http://www.w3.org/2000/svg" viewBox="0 0 596.71 537.92"><defs><style>.cls-1{fill:#7a7a7a;}.cls-1,.cls-2,.cls-3{stroke:#000;stroke-miterlimit:10;stroke-width:10px;}.cls-2{fill:#1a0f06;}.cls-3{fill:#693d1a;}</style></defs><title>escudo - mesa</title><polygon class="cls-1" points="294.78 42.62 7.4 325.18 226.24 511.42 590.82 532.57 538.26 193.73 331.15 6.87 294.78 42.62"/><polygon class="cls-2" points="306.17 91.03 72.08 317.2 247.25 475.11 551.86 492.79 503.9 218.27 336.03 60.31 306.17 91.03"/><polygon class="cls-1" points="192.61 197.29 504.95 490.06 551.86 492.79 538.34 443.84 230.36 160.81 192.61 197.29"/><polygon class="cls-1" points="215.74 446.7 469.68 185.54 503.9 218.27 247.25 475.11 215.74 446.7"/><ellipse class="cls-3" cx="819.89" cy="566.27" rx="7.01" ry="6.11" transform="translate(-940.09 485.81) rotate(-44.3)"/><ellipse class="cls-3" cx="1108.61" cy="282.57" rx="7.54" ry="6.57" transform="translate(-659.86 606.8) rotate(-44.3)"/><ellipse class="cls-3" cx="1293.57" cy="443.68" rx="8.11" ry="7.07" transform="translate(-719.79 781.79) rotate(-44.3)"/><ellipse class="cls-3" cx="1012.26" cy="739.33" rx="7.9" ry="6.89" transform="translate(-1006.27 669.38) rotate(-44.3)"/><ellipse class="cls-3" cx="1345.55" cy="757.64" rx="8.33" ry="7.26" transform="translate(-924.29 907.36) rotate(-44.3)"/></svg>