<svg id="Layer_5" data-name="Layer 5" xmlns="http://www.w3.org/2000/svg" viewBox="0 0 643.93 1029.59"><defs><style>.cls-1{fill:#693d1a;}.cls-2{fill:#140b06;}.cls-2,.cls-3,.cls-5{stroke:#000;stroke-miterlimit:10;}.cls-2,.cls-5{stroke-width:5px;}.cls-3,.cls-4,.cls-5{fill:#512d17;}.cls-3{stroke-width:3px;}.cls-6{fill:#17c7ff;}</style></defs><title>Jarra</title><path class="cls-1" d="M776.85,894.36C762.76,815.27,765,722.07,790.71,638.87c12.51-40.41,46.4-72.47,58.65-113,26.14-86.37,12.45-167.48-3.48-257.14-8.5-47.88-52.1-89.46-41.74-137,8-36.56,40.44-64.48,76.43-77.47s75.33-13.45,113.7-12.43q77.43,2,154.44,11.2c25.76,3.06,52.64,7.18,73.44,22.28,29.53,21.43,52.26,64.12,52,100-.33,48.69-19.16,183.24-9.62,232.3,17.94,92.21-5.75,48.16,48,133.33,67.2,106.55,110.6,220.89,81.5,342.68-11.89,49.8-45.38,121.57-90.62,147.5-29.21,16.74-68.65,16.23-102.22,20.83-63.88,8.76-148.2,14.48-210.4,6.36-54.2-7.07-110.19-17.83-153.93-49.81s-46.19-49.82-60-114.16" transform="translate(-763.71 -37.02)"/><path d="M781.19,893.16a569.55,569.55,0,0,1-4.87-162.55,497.15,497.15,0,0,1,16.62-83.54c7.14-24.45,20.19-45.23,33.74-66.57,6.75-10.61,13.4-21.34,18.84-32.7,5.61-11.73,9.43-24,12.57-36.6a364.44,364.44,0,0,0,10.4-83.26c.36-27.78-2.07-55.51-5.73-83-1.9-14.26-4.12-28.48-6.5-42.67-2.35-14-4.16-28.34-7.64-42.11-5.69-22.53-17.6-42.82-27.46-63.66C811.49,176,803.37,153.59,809,130.81,821,82.1,871.93,57,917.49,49.61c28.65-4.62,57.94-3.88,86.84-3q45.24,1.47,90.36,5.37c28.72,2.47,58.31,4.28,86.47,10.78,12.14,2.81,24,6.9,34.58,13.61,9.84,6.25,18.33,14.71,25.54,23.82,14.35,18.11,24.94,40.66,27.73,63.72,1.88,15.44,0,31.59-1.2,47-3,39.64-7.11,79.19-9.26,118.89-1,17.89-1.65,35.86-.93,53.77.7,17.35,4.5,34.05,7.17,51.16,3,19.39,2.36,39.81,12,57.4,8.15,14.89,17.88,29,27,43.31,14.58,23,28.54,46.39,41,70.66,24.17,47.19,43,97.63,50.5,150.31,7.15,50,3.53,101.75-12.37,149.75a323,323,0,0,1-27,60.43c-11,18.88-24.1,37-41,51-18.23,15.12-40.72,21.14-63.78,24.29-12.85,1.76-25.79,2.72-38.68,4.12-11.63,1.26-23.2,3-34.82,4.33-51.51,6-103.83,9.29-155.67,6.25a573.63,573.63,0,0,1-75.77-9.94c-25.2-4.91-50.33-11.65-73.65-22.55-32.73-15.31-65.4-38.8-77.47-74.22-6.28-18.43-9.72-37.83-13.79-56.83-1.21-5.66-9.89-3.26-8.68,2.39,7.49,35,12.76,72,39.42,98.18,35.23,34.54,82.55,52,130.09,61.38,51.27,10.16,102.89,13,155,10.8,26.62-1.14,53.19-3.32,79.66-6.37,12.43-1.43,24.81-3.28,37.25-4.6,12.6-1.33,25.23-2.34,37.78-4,23.91-3.23,47.06-9.31,66.36-24.38,17-13.24,30.4-30.7,41.63-48.91,24.45-39.66,39.74-84.83,45.43-131,13.61-110.41-31.13-216.35-88.8-308-10.07-16-20.72-31.7-30.17-48.08-4.12-7.15-6.89-13.28-8.11-21.54-1.69-11.37-2.76-24.66-4.63-36.64-2.71-17.41-6.43-34.24-7-51.9-1.2-39.9,2.76-80,6.15-119.73,1.63-19.14,3.37-38.27,4.7-57.44,1.14-16.46,2.4-33-.9-49.29-4.74-23.39-16.29-45.65-31.74-63.74-16.61-19.46-38-31.07-62.83-36.56-27.82-6.14-56.87-8.08-85.2-10.56q-47.1-4.12-94.37-5.6c-53.38-1.67-112.11-1.84-157.65,30.26-18.51,13-34,30.65-41.81,52.15-8,22-4.66,44.65,3.91,66,9.06,22.54,22.25,43.27,30.11,66.3,4.31,12.63,6.14,25.87,8.41,39,2.52,14.52,4.94,29.06,7.06,43.64,8.35,57.44,11.28,116.16-2.71,173-3.4,13.79-7.58,27.08-14.06,39.75-5.75,11.24-12.55,21.89-19.33,32.52s-13.61,21.27-19.4,32.49c-6.18,12-10.49,24.38-14.09,37.32C767.58,704.43,762,761.62,764.18,818.05a577.72,577.72,0,0,0,8.33,77.5c1,5.7,9.68,3.28,8.68-2.39Z" transform="translate(-763.71 -37.02)"/><path class="cls-2" d="M809.68,104.9s15.85,22.52,23.39,28.39c12.79,10,44.22,23.78,60.23,29.6,19.32,7,60,17.41,80.76,20.12,19.62,2.56,59.54,1.15,79.4,1.32,21.55.17,64.77,1.73,86.24,0,20.82-1.69,64-4.61,82.13-13.4,12.83-6.24,38.78-37.64,38.78-37.64L1245.1,90.61l-22.95-19.92-38.71-14.3L1141,50.74l-92.81-6.89-53.94-2-54.64.62-49.77,7.45-34.6,13L819.84,90.06Z" transform="translate(-763.71 -37.02)"/><path class="cls-3" d="M809.68,175c5.66,9.15,25.35,16,36.46,22,14.62,7.9,47.28,19,63,24.58,17.6,6.29,58.16,12.67,76.66,15.56,21.34,3.33,63.27,1.44,84.88,1.47,22.87,0,62.55-3,85.08-6.83,16.61-2.8,55.78-11.26,71-18.36,11.4-5.33,47.39-31.48,47.39-31.48l-13.49-48.66s-26.67,31.42-38.78,37.64c-14.88,7.63-49.37,10.42-66.1,12.09-20.87,2.1-62.92,1.32-83.9,1.6-20.33.27-61.1,2.49-81.34.6-16.94-1.58-50.35-8.57-66.73-13.07-15-4.12-44.26-14.52-58.35-20.9-8.44-3.83-25.26-12.08-32.34-18S813,113.5,813,113.5l-7,26S806.64,170.11,809.68,175Z" transform="translate(-763.71 -37.02)"/><path class="cls-4" d="M1304.61,528.5c-42.09,21.39-74.6,23.22-122,25.21s-94.86-3-142-8.57c-61.57-7.3-129.16-24.27-185.5-49.53l-14.33,65.94S884.55,583.2,900.09,588c21.84,6.8,68.58,16.49,91.87,19.56,30.56,4,92.07,9.84,122.91,10.07,29.24.21,88.06-.72,116.81-5.93,16.42-3,48.75-12.09,63.89-19,9.26-4.2,35.1-20.43,35.1-20.43Z" transform="translate(-763.71 -37.02)"/><path d="M1303.1,525.91a217.86,217.86,0,0,1-76.14,22,635.67,635.67,0,0,1-89.84,2.75c-32.86-1.26-65.61-4.79-98.24-8.76A691.47,691.47,0,0,1,951,525.35c-32.26-8.26-64-18.76-94.43-32.33-1.66-.74-4-.28-4.41,1.79l-14.33,65.94a3.06,3.06,0,0,0,1.38,3.39c22.38,11.05,45.14,22.92,69.33,29.45a699.14,699.14,0,0,0,106.8,19.77c36.64,4,73.52,7.41,110.4,7.32,19.59,0,39.19-.46,58.76-1.44,17.38-.88,35-1.88,52.1-5.42,20.07-4.16,40.78-9.69,59.55-18.05,12.59-5.61,24.37-13.52,36-20.84a3,3,0,0,0,1.07-4.1L1307.2,527c-2-3.31-7.16-.3-5.18,3l26.06,43.85,1.08-4.11c-10.33,6.49-20.73,13-31.55,18.67-15.49,8.08-33.45,12.51-50.29,16.76-35.56,9-73.13,9-109.6,9.42-36.1.4-72-2.16-107.88-5.73a786.33,786.33,0,0,1-106.69-17.76,260.17,260.17,0,0,1-46.88-16.05q-17.14-7.74-34-16.1l1.38,3.39,14.32-66-4.4,1.8c55.15,24.61,114.52,40.11,174.28,48.3,63.94,8.77,128.53,13.66,193,8,30-2.62,58.36-9.85,85.32-23.43C1309.57,529.35,1306.54,524.17,1303.1,525.91Z" transform="translate(-763.71 -37.02)"/><path class="cls-5" d="M1333.77,968.12s-62.24,15.79-83.5,18.07c-27.89,3-84.33,2.8-112.25,0-28.51-2.86-86.84-5.2-114.83-11.23-21.9-4.72-77.14-17.84-98.56-24.31-25-7.54-60.87-31.62-83.65-44.1-17-9.32-62.54-38.76-62.54-38.76l10.21,54.83s13.35,42.54,22.81,53.8c6.61,7.87,38.33,35.18,38.33,35.18s48.18,23.87,63.89,28.81c18,5.66,69,11.1,69,11.1l83.4,8.45,86.69-3.55,48.37-4.44,65.9-6.65,30.24-10.11,20.74-18.1,22.08-24.58,25.62-37.18Z" transform="translate(-763.71 -37.02)"/><path class="cls-6" d="M814.2,104.88s33.42-20.45,42.14-22.06c10.84-2,26,.92,37,0,12.8-1.07,48.79,1.07,61.6,0,13.64-1.14,36.08-3.55,49.28,0,10.23,2.75,20.73,9.92,31,12.67,8.84,2.38,27.51,0,36.68,0,12.86,0,36.39-2.2,48.4-3.94,12.38-1.8,37.63-6.79,49.58-6.66,8.09.08,23.63,5.47,31.34,7.84,10.61,3.26,31.33,11.48,40.26,18.46,4.85,3.78,13.59,20.26,13.59,20.26s-18.47,25-28,32.08c-6.16,4.56-30.15,11.5-40.76,13-17,2.45-68.45,3.26-68.45,3.26l-49.28,1.83s-51.61.69-67.54-.06C987.49,181,948.05,171,948.05,171l-43.5-11-33.16-14.22s-2.43.59-27.37-13.94C836.86,127.64,813.22,107.05,814.2,104.88Z" transform="translate(-763.71 -37.02)"/></svg>