<?xml version="1.0" encoding="utf-8"?>
<!-- Generator: Adobe Illustrator 22.0.0, SVG Export Plug-In . SVG Version: 6.00 Build 0)  -->
<svg version="1.1" id="Layer_1" xmlns="http://www.w3.org/2000/svg" xmlns:xlink="http://www.w3.org/1999/xlink" x="0px" y="0px"
	 viewBox="0 0 550 550" style="enable-background:new 0 0 550 550;" xml:space="preserve">
<style type="text/css">
	.st0{fill:#A67C52;stroke:#000000;stroke-width:3;stroke-miterlimit:10;}
	.st1{fill:none;stroke:#754C24;stroke-width:2;stroke-miterlimit:10;}
</style>
<g>
	<g>
		<path class="st0" d="M2.6,326.6c0-33.4,0-66.8,0-100.2c3.7-1.1,7.6-1.4,11.4-1.9c15.7-2.4,31.5-4.6,47.3-6.9
			c1.7-0.2,2.6-1,3.1-2.7c4.1-14.7,9.8-28.7,17-42.1c1.2-2.2,1-3.7-0.5-5.6c-11-15-21.9-30.1-32.9-45.1c-1.3-1.7-1.1-2.7,0.4-4.1
			C71,95.9,93.5,73.7,116,51.5c1.8-1.8,2.9-1.8,4.9-0.4c15.1,10.7,30.2,21.4,45.4,32.1c1.3,0.9,2.4,1.2,3.9,0.4
			c13.5-7.3,27.5-13.5,42.4-17.6c1.3-0.4,2-1,2.3-2.5c2.5-15.4,5.1-30.8,7.7-46.2c0.7-4.3,1.1-8.7,2.4-12.9c33.3,0,66.5,0,99.8,0
			c0.4,0.7,0.5,1.4,0.6,2.1c3.1,18.5,6.3,36.9,9.4,55.4c0.3,1.8,1.1,2.6,2.7,3.1c14.2,4.2,27.9,10,41,17c2.1,1.1,3.6,1.1,5.5-0.3
			c14.8-10.3,29.7-20.6,44.6-30.8c4.5-3.1,3.4-3.1,7.1,0.6c21.7,22,43.4,44.1,65.1,66.1c2.4,2.4,2.4,2.4,0.4,5.2
			c-11,15.1-21.9,30.2-32.9,45.3c-0.9,1.2-1.3,2.2-0.5,3.7c7.7,13.4,13.5,27.5,17.6,42.4c0.5,1.6,1.3,2.3,3,2.5
			c18.7,3.1,37.4,6.3,56.1,9.3c2.2,0.4,2.8,1.2,2.8,3.3c-0.1,31.5,0,63,0,94.6c0,0.4,0,0.8,0,1.1c0.1,1.3-0.6,1.9-1.9,2.1
			c-6.1,0.9-12.1,1.8-18.1,2.7c-12.4,1.9-24.8,3.7-37.2,5.6c-1.7,0.3-3,0.7-3.6,2.7c-3.9,14.5-10,28.2-17.1,41.4
			c-1,1.9-0.9,3.3,0.4,5.1c11.1,15.4,22,30.9,33.1,46.3c1.2,1.7,1.2,2.7-0.3,4.2c-22.3,22.2-44.5,44.4-66.7,66.7
			c-1.5,1.5-2.5,1.7-4.3,0.4c-15.4-11.1-30.9-22-46.3-33c-1.8-1.3-3.1-1.4-5.1-0.3c-13.2,7-26.8,12.9-41.2,17.1
			c-1.9,0.6-2.6,1.7-2.9,3.5c-3,18.3-6.1,36.5-9,54.7c-0.4,2.2-1.1,3-3.4,3c-31.6-0.1-63.2-0.1-94.8,0c-2.2,0-3-0.7-3.3-2.9
			c-3-18-6.1-35.9-9.1-53.8c-0.3-2-1.2-2.9-3.2-3.5c-14.8-4.1-28.8-10-42.3-17.2c-1.7-0.9-2.9-0.8-4.5,0.3
			c-15.5,11.1-31,22.1-46.5,33.2c-1.9,1.3-2.9,1.2-4.5-0.4c-22.1-22.2-44.2-44.3-66.4-66.4c-1.8-1.8-1.7-2.9-0.3-4.9
			c11-15.4,21.9-30.8,32.9-46.1c1.3-1.8,1.2-3,0.3-4.9c-7.1-13.1-13.1-26.7-17.1-41.1c-0.5-1.9-1.6-2.7-3.4-3
			c-7.6-1.2-15.2-2.5-22.8-3.8C26.3,330.4,14.5,328.5,2.6,326.6z M273.7,192.6c-43.5-0.4-83.7,35.1-83.9,83.4
			c-0.2,48,37.8,84,83.1,84.4c46.3,0.4,84.6-36.1,84.6-83.8C357.6,227.8,317.2,192.2,273.7,192.6z"/>
	</g>
	<path class="st1" d="M273.7,105.3"/>
	<path class="st1" d="M127,291.3"/>
	<path class="st1" d="M269,441.3"/>
	<path class="st1" d="M136,345.3"/>
	<path class="st1" d="M429.3,171.5"/>
	<path class="st1" d="M296.3,75.5"/>
</g>
</svg>
