<?xml version="1.0" encoding="utf-8"?>
<!-- Generator: Adobe Illustrator 22.0.0, SVG Export Plug-In . SVG Version: 6.00 Build 0)  -->
<svg version="1.1" id="Layer_1" xmlns="http://www.w3.org/2000/svg" xmlns:xlink="http://www.w3.org/1999/xlink" x="0px" y="0px"
	 viewBox="0 0 800 800" style="enable-background:new 0 0 800 800;" xml:space="preserve">
<style type="text/css">
	.st0{fill:#A67C52;}
	.st1{fill:none;stroke:#754C24;stroke-width:2;stroke-miterlimit:10;}
</style>
<g>
	<path class="st0" d="M672.1,368.7c0,28.1-20.2,52.3-47.9,57.3l-9.3,1.7c-1.7,0.3-3,0.7-3.6,2.7c-3.9,14.5-10,28.2-17.1,41.4
		c-1,1.9-0.9,3.3,0.4,5.1l7.3,11.2c14.8,22.9,11.6,53-7.6,72.3l-0.7,0.7c-19.3,19.3-49.3,22.4-72.2,7.7l-13.3-8.6
		c-0.4-0.3-0.9-0.3-1.3-0.1c-13.8,7.4-28.1,13.7-43.2,18.1c-1.9,0.6-2.6,1.7-2.9,3.5l-2.5,11.8c-5.8,26.8-29.5,45.9-56.9,45.9h-1
		c-27.4,0-51-19.1-56.9-45.8l-2.4-10.8c-0.3-2-1.2-2.9-3.2-3.5c-14.8-4.1-28.8-10-42.3-17.2c-1.7-0.9-2.9-0.8-4.5,0.3
		c-2.9,2.1-5.9,4.2-8.8,6.3c-23.1,16.5-54.8,13.9-74.9-6.2l-0.7-0.7c-19.3-19.3-22.6-49.4-7.9-72.4l7.4-11.6c1.3-1.8,1.2-3,0.3-4.9
		c-7.1-13.1-13.1-26.7-17.1-41.1c-0.5-1.9-1.6-2.7-3.4-3l-9.2-1.5c-28.3-4.7-49.1-29.2-49.1-57.9v0c0-29,21.2-53.7,49.9-58l8.7-1.3
		c1.7-0.2,2.6-1,3.1-2.7c4.1-14.7,9.8-28.7,17-42.1c1.2-2.2,1-3.7-0.5-5.6l-6.1-9.2c-15.3-23.2-12.1-54,7.7-73.5l0.7-0.7
		c19.2-18.9,48.9-22.1,71.7-7.7l11.3,7.1c1.3,0.9,2.4,1.2,3.9,0.4c13.5-7.3,27.5-13.5,42.4-17.6c1.3-0.4,2-1,2.3-2.5l1.6-9.7
		c4.8-28.5,29.5-49.4,58.4-49.4h0c28.3,0,52.5,20,58.1,47.7c0.7,3.3,1.3,6.6,1.8,9.8c0.3,1.8,1.1,2.6,2.7,3.1
		c14.2,4.2,27.9,10,41,17c2.1,1.1,3.6,1.1,5.5-0.3l12.6-7.4c23-13.4,52.1-9.5,70.8,9.4l0.7,0.7c19.1,19.4,22.2,49.5,7.4,72.4
		l-7.3,11.3c-1,1.4-1.5,2.6,0.3,4.7c9.3,11.1,15,24.9,16.5,39.3c0.3,3.1,1.1,4.2,3.3,4.5l12.9,2.8
		C653,317.5,672.1,341.3,672.1,368.7L672.1,368.7z M398.7,285.3c-33,33-38.3,37.8-83.9,83.4c43.3,43.3,54,55.2,83.1,84.4
		c33.2-33.2,47.6-46.8,84.6-83.8C438,324.7,434.4,321,398.7,285.3z"/>
</g>
<path class="st1" d="M398.7,198"/>
<path class="st1" d="M252,384"/>
<path class="st1" d="M394,534"/>
<path class="st1" d="M261,438"/>
<path class="st1" d="M554.3,264.2"/>
<path class="st1" d="M421.3,168.2"/>
</svg>
