<?xml version="1.0" encoding="utf-8"?>
<!-- Generator: Adobe Illustrator 22.0.0, SVG Export Plug-In . SVG Version: 6.00 Build 0)  -->
<svg version="1.1" id="Layer_1" xmlns="http://www.w3.org/2000/svg" xmlns:xlink="http://www.w3.org/1999/xlink" x="0px" y="0px"
	 viewBox="0 0 550 550" style="enable-background:new 0 0 550 550;" xml:space="preserve">
<style type="text/css">
	.st0{fill:none;stroke:#754C24;stroke-width:2;stroke-miterlimit:10;}
	.st1{fill:#A67C52;stroke:#000000;stroke-width:3;stroke-miterlimit:10;}
</style>
<g>
	<path class="st0" d="M273.7,105.3"/>
	<path class="st0" d="M127,291.3"/>
	<path class="st0" d="M269,441.3"/>
	<path class="st0" d="M136,345.3"/>
	<path class="st0" d="M429.3,171.5"/>
	<path class="st0" d="M296.3,75.5"/>
</g>
<g>
	<path class="st1" d="M545.9,324.2l-57.2,10.4c-1.7,0.3-3,0.7-3.6,2.7c-3.9,14.5-10,28.2-17.1,41.4c-1,1.9-0.9,3.3,0.4,5.1
		l32.7,50.5L434.4,501l-52.5-33.9c-0.4-0.3-0.9-0.3-1.3-0.1c-13.8,7.4-28.1,13.7-43.2,18.1c-1.9,0.6-2.6,1.7-2.9,3.5L322,546.3
		h-94.8l-12.4-56.6c-0.3-2-1.2-2.9-3.2-3.5c-14.8-4.1-28.8-10-42.3-17.2c-1.7-0.9-2.9-0.8-4.5,0.3c-16.3,11.7-32.6,23.2-48.9,34.9
		l-68.5-68.5l32.6-51c1.3-1.8,1.2-3,0.3-4.9c-7.1-13.1-13.1-26.7-17.1-41.1c-0.5-1.9-1.6-2.7-3.4-3l-58.3-9.6V225.9l58.6-8.9
		c1.7-0.2,2.6-1,3.1-2.7c4.1-14.7,9.8-28.7,17-42.1c1.2-2.2,1-3.7-0.5-5.6l-32.5-49.2l67.6-66.5L165,82.5c1.3,0.9,2.4,1.2,3.9,0.4
		c13.5-7.3,27.5-13.5,42.4-17.6c1.3-0.4,2-1,2.3-2.5l9.9-59.1h98.1c3.1,18.5,8.9,39.1,11.9,57.5c0.3,1.8,1.1,2.6,2.7,3.1
		c14.2,4.2,27.9,10,41,17c2.1,1.1,3.6,1.1,5.5-0.3l51.7-30.2l65,66.1l-32.6,50.4c-1,1.3-1.5,2.4-0.1,4.3c8.9,11.9,15,25.6,16.9,40.3
		c0.4,2.7,1.1,3.7,3.2,4l58.9,12.7L545.9,324.2z M189.9,223.6c36.6,58.3,60,101.8,81.8,136.3c33.8-50.3,46.2-72.5,86-135.7
		L189.9,223.6z"/>
</g>
</svg>
