<svg id="Layer_1" data-name="Layer 1" xmlns="http://www.w3.org/2000/svg" viewBox="0 0 289.8 289.8"><title>1</title><path d="M199.4,306.9c-.6-6.1-1.3-12.1.8-18,2.6-7.6,8.4-8,14.5-3,24,19.6,46.2,41.7,74.7,55.3,1.2.6,2.2,2.4,3.9.6,2.2-2.5-.9-2.9-1.7-3.7a295,295,0,0,1-39-42.4c-22.5-30.5-40.3-63.6-47-101.4-2.7-15.4.8-31.4-2.9-46.9-.5-2,.3-4.6,1-6.6a9.86,9.86,0,0,1,8.5-6.6c4.1-.5,5.1,2.8,6.2,5.4a299.26,299.26,0,0,0,19.9,39.1c10.9,17.9,27.5,30.1,43.8,42.5,22.1,16.8,47.2,27.7,72.7,38.2,12.7,5.2,25.2,10.9,37.8,16.3a142.15,142.15,0,0,0,2.4-26.3A144.9,144.9,0,1,0,250.1,394.3c1.4,0,2.7,0,4.1-.1-2.3-2-4.6-4.1-6.9-6.2C224.3,366.3,202.7,341.5,199.4,306.9Z" transform="translate(-105.2 -104.5)"/></svg>