<svg id="Layer_1" data-name="Layer 1" xmlns="http://www.w3.org/2000/svg" viewBox="0 0 244.6 255.3"><title>2</title><path d="M355.7,313c5.4-2.5,11-4.7,16.5-7-15.4-3.1-30.6-3.8-45.2-8.5-9.3-3-17.3-8.1-25.4-13.3-6.5-4.2-2.9-11.8-6.3-17-.7-1.1,3.4-3,5.9-3.8,11.6-3.5,23.6-5.9,34.2-12.3a133.46,133.46,0,0,0,14.4-9.6,286,286,0,0,1-49-.7c-24.2-2.6-48.4-6-70.3-17s-39.4-28-52.7-48.9a43,43,0,0,1-5.7-14.8c-1.7-8.4,2.8-14.9,11.4-15.4a30.91,30.91,0,0,1,14.2,2c17.4,7.3,35.9,8.5,54.3,10.5a8.2,8.2,0,0,0,2.2-.2c1-3.3-1.9-3.2-3.4-3.9-10.1-4.6-20.6-8.5-30.4-13.6-10.4-5.3-20.5-11.2-30.3-17.5A139.16,139.16,0,1,0,355.8,345.1a110.58,110.58,0,0,1-7.6-14C344.5,323,347.6,316.8,355.7,313Z" transform="translate(-127.6 -122)"/></svg>