<svg id="Layer_1" data-name="Layer 1" xmlns="http://www.w3.org/2000/svg" viewBox="0 0 330.9 330.8"><title>3</title><path d="M250.1,270.9c-12.7,3.7-23.2-1.4-32.6-16.1-3-4.7-5.9-5.8-11.1-5.1-12,1.8-24.8.1-33.5-6.9-12.8-10.4-31.6-9.6-41.6-24-.8-1.1-3.2-1.3-4.9-1.7-9-1.9-16.2-7-22.5-13.4-6.6-6.7-4.5-15.7,4.2-19.6,13.6-6,28.1-8.3,42.5-10.9,26.1-4.8,52-11.1,78.1-15.8,25.7-4.7,51.1-10,75.1-20,12.4-5.2,25-11.1,33.9-22a16.52,16.52,0,0,0,2.7-4.2A165.35,165.35,0,0,0,84.8,249.8c0,91.3,74.2,165.4,165.5,165.4s165.4-74.1,165.4-165.4a161.61,161.61,0,0,0-1.8-24.3c-26.7,15.8-56.7,21.3-86.2,29.2C302.2,261.6,275.6,263.5,250.1,270.9Z" transform="translate(-84.8 -84.4)"/></svg>