<svg id="Layer_1" data-name="Layer 1" xmlns="http://www.w3.org/2000/svg" viewBox="0 0 280.6 236.8"><title>7</title><path d="M283.8,231.1" transform="translate(-109.8 -111.7)"/><path d="M228.9,286" transform="translate(-109.8 -111.7)"/><path d="M166.6,328.8c2.9-2.6,3-4.5,1.7-7.6-5.1-12.3-3.7-24.5-.8-37.1,1.4-6.1,4.7-7.3,9.4-5.8,12.9,4.1,26.8,5.4,39,14.4a66.72,66.72,0,0,0-8.4-26.4c-4.5-8.1-3.9-17.3-7.5-25.5-.8-1.9,1.9-2.3,3.6-2.4,7.9-.8,14.9,1.7,21.4,6,2.9,1.9,5.8,3.9,9,6,.6-5.6-2.3-9.9-4.1-14.5a33.41,33.41,0,0,1-1.9-17.1c.8-6.2,4.9-8.5,10.9-6.5,10.2,3.4,15.9,12.1,22.5,19.7,2.9,3.4,5.4,7.1,9.5,10.2-1.9-9.7-4-19.4-5.8-29.2a61.3,61.3,0,0,1-.9-12.8c.2-7,4.4-9.3,9.9-4.8,9.6,8,21.4,13.9,27.7,27.5,1.5-7.5-.6-13.2-1.1-18.9-.3-4.3-.2-8.5-.3-12.8-.1-5.7,2.9-8,7.8-9.4s7.6.9,10.1,4.5c11.4,16.7,18.1,35.4,23.9,54.6,10.2,33.9,9.9,68.8,10.9,103.6v2.8a140.29,140.29,0,1,0-204.9,1.2c.7-1.2,1.4-2.5,2.2-3.7C154.7,338.2,161,333.9,166.6,328.8Z" transform="translate(-109.8 -111.7)"/></svg>