<?xml version="1.0" encoding="utf-8"?>
<!-- Generator: Adobe Illustrator 22.0.0, SVG Export Plug-In . SVG Version: 6.00 Build 0)  -->
<svg version="1.1" xmlns="http://www.w3.org/2000/svg" xmlns:xlink="http://www.w3.org/1999/xlink" x="0px" y="0px"
	 viewBox="0 0 800 800" style="enable-background:new 0 0 800 800;" xml:space="preserve">
<g id="Layer_2">
	<g>
		<path d="M83.5,232.7c-0.4-4.2-0.9-8.4,0.5-12.4c1.8-5.2,5.8-5.5,10-2.1c16.6,13.5,32,28.8,51.7,38.2c0.8,0.4,1.5,1.7,2.7,0.4
			c1.5-1.7-0.6-2-1.2-2.6c-9.9-9-19.1-18.7-27-29.3c-15.6-21.1-27.9-43.9-32.5-70.1c-1.9-10.7,0.6-21.7-2-32.4
			c-0.3-1.4,0.2-3.2,0.7-4.6c1-2.6,3-4.2,5.9-4.6c2.9-0.4,3.5,1.9,4.3,3.8c3.9,9.3,8.5,18.4,13.8,27c7.6,12.4,19,20.8,30.3,29.4
			c15.3,11.6,32.6,19.2,50.2,26.4c8.8,3.6,17.4,7.5,26.1,11.3c1.1-5.9,1.7-12,1.7-18.2c0-55.3-44.8-100.1-100.1-100.1
			S18.5,137.6,18.5,192.9s44.8,100.1,100.1,100.1c1,0,1.9,0,2.8,0c-1.6-1.4-3.2-2.8-4.7-4.3C100.7,273.8,85.8,256.6,83.5,232.7z"/>
		<path d="M336.1,243.7c9.2,1.8,18.4,3.4,27.6,5.1c12.9,2.4,22.4,10.3,29.3,20.6c10.7,15.9,21.7,31.7,30.6,48.8
			c0.7,1.4,1.6,2.8,2.5,4.1c24.3-16.8,40.2-44.8,40.2-76.6c0-51.4-41.7-93-93-93c-47.5,0-86.7,35.6-92.3,81.6
			c2.7,0.8,5.3,1.4,8.1,1.9C304.7,239.1,320.5,240.6,336.1,243.7z"/>
		<path d="M626.7,261.1c2-1.8,2-3.1,1.2-5.2c-3.5-8.5-2.5-17-0.6-25.7c1-4.2,3.3-5.1,6.5-4c8.9,2.9,18.5,3.8,26.9,10
			c-0.7-7-2.8-12.9-5.8-18.2c-3.1-5.6-2.7-12-5.2-17.6c-0.6-1.3,1.3-1.6,2.5-1.7c5.5-0.6,10.3,1.2,14.8,4.1c2,1.3,4,2.7,6.2,4.2
			c0.4-3.8-1.6-6.8-2.9-10c-1.5-3.9-1.9-7.8-1.3-11.8c0.6-4.3,3.4-5.8,7.5-4.5c7.1,2.4,11,8.4,15.6,13.6c2,2.3,3.7,4.9,6.6,7
			c-1.3-6.7-2.8-13.4-4-20.2c-0.5-2.9-0.7-5.9-0.6-8.9c0.1-4.8,3.1-6.4,6.9-3.3c6.7,5.5,14.8,9.6,19.2,19c1-5.2-0.4-9.1-0.7-13
			c-0.2-3-0.1-5.9-0.2-8.9c-0.1-3.9,2-5.5,5.4-6.5c3.4-1,5.3,0.6,7,3.1c7.9,11.5,12.5,24.4,16.5,37.7c7.1,23.4,6.8,47.5,7.5,71.6
			c0,0.6,0,1.3,0,1.9c16-17.3,25.8-40.4,25.8-65.9c0-53.6-43.4-97-97-97c-53.6,0-97,43.4-97,97c0,25.8,10.1,49.3,26.6,66.7
			c0.5-0.8,1-1.7,1.5-2.5C618.5,267.6,622.8,264.6,626.7,261.1z"/>
		<path d="M507.2,409.8c4.2,3.7,8.7,2.5,12.5-1.8c3.9-4.5,7.8-9.1,13.4-11.6c4.7-2,8.9-4.6,12.8-7.5c-5.8-15.6-20.9-26.7-38.5-26.7
			c-14.3,0-27,7.4-34.3,18.5c1.4,1.4,2.8,2.8,4.2,4.2C486.6,394.1,497.4,401.3,507.2,409.8z"/>
		<path d="M600.3,323.9c3.2-2.8,2.9-7.1,3.8-10.6c2.3-9.8,5.9-19.1,10.4-27.9c-8.1-5.5-17.8-8.7-28.3-8.7
			c-27.9,0-50.5,22.6-50.5,50.5c0,19.3,10.8,36,26.7,44.5c1.4-1.9,2.8-3.9,4.1-6C576.2,350.5,586.6,335.8,600.3,323.9z"/>
		<path d="M750.7,324.6c-8.4,18.7-17.7,36.7-34.5,49.6c-4.2,3.2-8.3,6.6-12.4,10c6.5,5.1,14.6,8.2,23.5,8.2
			c20.9,0,37.9-17,37.9-37.9C765.3,342.4,759.6,331.6,750.7,324.6z"/>
		<path d="M713.2,438.7c3.6,5.5,8.4,6.5,13.6,7.9c1.2,0.3,2.4,0.3,3.6,0.6c13.2,3.5,19.2,11.3,19.3,25.4c0,4.2-2.5,5.6-6.3,6
			c-12.5,1.2-24.9,2.4-36.9,6.7c-8.9,3.2-16.3,8.5-23.8,13.9c-5.5,4-10,9-14.5,14c8,4.2,17.1,6.5,26.7,6.5
			c32.2,0,58.2-26.1,58.2-58.2s-26.1-58.2-58.2-58.2c-9.7,0-18.8,2.4-26.8,6.5c4.6,1.1,8.1,1.8,11.5,2.7
			C694.2,416.8,705,426.5,713.2,438.7z"/>
		<path d="M524.4,600.8c-4.6,1.1-9.1,2.3-13.2,4.8c-7,4.2-14.9,4.6-22.6,5.9c8.4,22.4,30,38.4,55.4,38.4c32.6,0,59.1-26.5,59.1-59.1
			c0-10.1-2.5-19.5-6.9-27.8c-10.8,7.1-21.1,15.1-32,22.1C552,592.8,538.3,597.3,524.4,600.8z"/>
		<path d="M265.1,641.2c-8.8,2.5-16-1-22.5-11.1c-2.1-3.2-4.1-4-7.6-3.5c-8.3,1.2-17.2,0.1-23.1-4.8c-8.8-7.2-21.8-6.6-28.8-16.6
			c-0.5-0.8-2.2-0.9-3.4-1.1c-6.3-1.3-11.2-4.8-15.5-9.3c-4.6-4.6-3.1-10.9,2.9-13.5c9.4-4.1,19.4-5.7,29.4-7.5
			c18.1-3.3,35.9-7.7,54-10.9c17.7-3.2,35.3-6.9,51.9-13.8c8.5-3.6,17.2-7.7,23.4-15.2c0.8-1,1.5-2,1.9-2.9
			c-17.9-11.7-39.3-18.5-62.4-18.5c-63.1,0-114.3,51.2-114.3,114.3s51.2,114.3,114.3,114.3s114.3-51.2,114.3-114.3
			c0-5.7-0.4-11.3-1.2-16.8c-18.4,10.9-39.2,14.7-59.5,20.2C301.1,634.8,282.7,636.1,265.1,641.2z"/>
		<path d="M261.3,444.2c3.7-1.8,7.6-3.2,11.4-4.9c-10.6-2.1-21.1-2.6-31.2-5.9c-6.4-2.1-12-5.6-17.6-9.2c-4.5-2.9-2-8.1-4.4-11.8
			c-0.5-0.8,2.3-2.1,4.1-2.6c8-2.4,16.3-4.1,23.6-8.5c3.4-2,6.7-4.1,10-6.6c-11.4,0.8-22.7,0.7-33.9-0.5
			c-16.7-1.8-33.4-4.1-48.6-11.7c-15.2-7.6-27.2-19.4-36.4-33.8c-2-3.1-3.2-6.5-3.9-10.2c-1.2-5.8,1.9-10.3,7.9-10.7
			c3.4-0.2,6.8,0.1,9.8,1.4c12,5,24.8,5.9,37.5,7.2c0.5,0.1,1-0.1,1.5-0.1c0.7-2.3-1.3-2.2-2.4-2.7c-7-3.2-14.2-5.9-21-9.4
			c-7.2-3.7-14.2-7.7-20.9-12.1c-26,17.2-43.2,46.7-43.2,80.3c0,53.1,43.1,96.2,96.2,96.2c23.4,0,44.8-8.4,61.5-22.2
			c-2-3-3.7-6.3-5.2-9.7C253.6,451.2,255.8,446.8,261.3,444.2z"/>
	</g>
</g>
<g id="Layer_1">
</g>
<g id="Layer_3">
	<path d="M238.3,90.6c-0.5-3.9-5.4-7.1-8.5-3.5c-3.5,4-7.1,8-10.8,11.9c-4.4,4.7,2.7,11.8,7.1,7.1c1-1.1,2-2.2,3-3.3
		c0,2.8,0,5.5-0.2,8.3c-0.4,6.4,9.6,6.4,10,0C239.3,104.2,239.1,97.4,238.3,90.6z"/>
	<path d="M73.5,389.7c-1.8-1.3-3.7-2.6-5.5-3.8c0.9-0.5,1.8-1,2.7-1.6c5-3.7,6.7-9.7,6-15.7c-1.1-10-10.4-25-22.1-16.7
		c-5.2,3.7-0.2,12.4,5,8.6c5-3.5,7.5,7.9,7.3,11c-0.4,6.3-7.2,6.8-12.2,7.1c-4.7,0.3-7.1,6.8-2.5,9.3c5.6,3.2,11,6.6,16.2,10.4
		C73.7,402.1,78.7,393.4,73.5,389.7z"/>
	<path d="M127.9,640.1c-1.3-2-2.7-4-4-6.1c4.3-3.3,6.9-8.5,6.2-14.1c-1-7.9-8.3-13.5-16.1-13.4c-6.4,0.1-6.4,10.1,0,10
		c7.1-0.1,8.2,9,1.3,10.7c-3,0.7-4.8,4.7-3,7.3c1.8,2.8,3.7,5.5,5.5,8.3c0.5,0.7,1.1,1.5,1.6,2.3c-0.5-0.2-1.1-0.3-1.6-0.6
		c-6.1-2.2-8.7,7.5-2.7,9.6c5.6,2,13.3,1.7,15.3-5.2C131.4,645.7,129.6,642.8,127.9,640.1z"/>
	<path d="M611.9,660.4c0-5-6.8-6.8-9.3-2.5c-0.1,0.2-0.7-4-0.6-4.5c1.2-6.3-8.4-9-9.6-2.7c-1.1,5.7-0.5,12.5,5.2,15.7
		c1.4,0.8,2.9,1.2,4.4,1.3c0,4.1,0.1,8.2,0.1,12.2c0.1,6.4,10.1,6.4,10,0L611.9,660.4z"/>
	<path d="M726.3,544.2c-3.3-3.2-7.3-5.6-11.7-7.2c-0.2-0.1-0.5-0.2-0.9-0.3c0.4-0.3,0.8-0.5,1.1-0.7c1.3-0.5,2.8-0.8,4.2-0.9
		c6.4-0.5,6.4-10.5,0-10c-6.7,0.6-20.7,5.4-17.4,14.7c1.3,3.7,4.9,5.1,8.4,6.3c2.3,0.8,4.4,1.6,6.5,2.9c0.1,0,0.1,0.1,0.2,0.1
		c-0.8-0.1-1.4-0.1-1.6-0.1c-6.4-0.3-6.4,9.7,0,10c4.4,0.2,11.1,1.1,14.4-2.5C733.1,552.3,729.5,547.3,726.3,544.2z"/>
	<path d="M703,331.8c-9.4-0.9-18.8,5.3-21.4,14.4c-1.4,4.7-0.7,10.3,3.1,13.7c3.5,3.3,8.6,3.9,12.7,1.5c3-1.8,3-5.4,1-7.9
		c-0.6-0.7-1.2-1.5-1.8-2.2c-1.7-2.1-3.9-2.1-5.7-0.9c0-1.9,1.1-3.7,2.3-5.1c2.5-2.9,6.1-3.9,9.8-3.5
		C709.4,342.5,709.4,332.4,703,331.8z"/>
	<path d="M629.2,78.6c0.2-3.8,0.3-7.7-0.2-11.3c-0.7-4.8-4.2-6-8.5-5.6c-6.5,0.5-12.9,1.3-19.4,2c-6.3,0.6-6.4,10.7,0,10
		c5.7-0.6,12.1-2,18-2.2c0,1.3,0,2.5,0,3.8c0,2.1-0.1,4.2-0.1,6.3c-3.1,0.9-6.3,1.1-9.6,0.5c-6.3-1.2-9,8.4-2.7,9.6
		c4,0.8,8,0.9,11.8,0.2c-0.2,4.1-0.5,8.1-0.8,12.1c-0.5,6.4,9.5,6.4,10,0c0.4-5.3,0.8-10.6,1-15.9c0.3-0.2,0.6-0.4,0.9-0.6
		C633.4,85.1,632.1,80.2,629.2,78.6z"/>
	<path d="M541.7,252.9c7.3-4.5,10.9-15.5,6.4-22.5c1.6-2.7,1.1-6.4-2.8-7.1c-8.6-1.4-17.5,3-21.7,10.8c-3.1,5.7-2.7,12.7,1.6,17
		c-1.7,1.1-3.2,2.6-4.4,4.5c-4.3,6.9-2,16,3.5,21.5c6.3,6.2,15,5.2,18.4-3.2c2.5-6.2,3.2-13.1-1.2-18.1
		C541.8,254.8,541.9,253.8,541.7,252.9z M537.5,234.3c0.3,0.2,0.7,0.4,1.2,0.6c4.6,1.5-1.1,13.7-6.3,9.2
		C528.9,241.1,533.2,236.6,537.5,234.3z M534,268.5c-0.2,0.7-0.5,1.4-0.7,2.1c-0.3,1-0.5,1.1-0.5,0.4c-1.1-0.1-2.3-2.1-2.8-2.9
		c-1.3-2-2.1-4.9-0.8-7.1c0.6-1,1.8-2,3.1-2.3c0.1,1.4,0.7,2.8,2.1,3.8C535.7,263.5,534.4,267.2,534,268.5z"/>
	<path d="M479.5,409.6c0.7-2.4-0.2-5.3-3.3-6.1c-7.2-2.1-15.2-0.4-20.1,5.6c-4.8,5.8-5.3,14.9-0.4,20.8c4.2,5,11.5,7.1,17.6,4.5
		c-0.2,10.9-0.4,21.8-0.6,32.7c-0.1,6.4,9.9,6.4,10,0c0.3-17.5,0.7-35.1,1-52.6C483.8,411.4,481.8,409.8,479.5,409.6z M471.1,424
		c-2.1,2.1-5.4,1.9-7.4-0.3c-2.2-2.4-1.7-6.4,0.4-8.7c2.4-2.7,6.2-2.8,9.5-1.9c0.1,0,0.2,0.1,0.4,0.1c-0.1,0.4-0.2,0.8-0.2,1.2
		C473.6,417.4,473.4,421.6,471.1,424z"/>
	<path d="M371.4,102c-0.5-3.8-5.4-7.2-8.5-3.5c-1.7,2-3.3,2.7-5.9,2.6c-6.4-0.3-6.4,9.7,0,10c1.8,0.1,3.4-0.1,5.1-0.6
		c0.2,5.1,0,10.1-0.8,15.2c-0.9,6.3,8.7,9,9.6,2.7C372.2,119.5,372.5,110.9,371.4,102z"/>
	<path d="M399.8,96.2c-2.1-2.3-4.8-1.8-6.6-0.2c-1-0.6-2.3-0.8-3.7-0.4c-17.6,4.9-11.7,30.3,3.5,34.2c8.1,2.1,13.1-3.7,14.1-11.2
		C408.3,110.3,405.5,102.2,399.8,96.2z M395.7,120.1c-2.9,0.2-6-5-6.7-7.1c-1.1-3.1-0.2-6.8,3.3-7.8c0.6-0.2,1.1-0.4,1.6-0.7
		c1.8,2.3,3,4.9,3.5,7.7C397.6,114.3,398.1,119.9,395.7,120.1z"/>
</g>
</svg>
