<?xml version="1.0" encoding="utf-8"?>
<!-- Generator: Adobe Illustrator 22.0.0, SVG Export Plug-In . SVG Version: 6.00 Build 0)  -->
<svg version="1.1" xmlns="http://www.w3.org/2000/svg" xmlns:xlink="http://www.w3.org/1999/xlink" x="0px" y="0px"
	 viewBox="0 0 1920 1080" style="enable-background:new 0 0 1920 1080;" xml:space="preserve">
<style type="text/css">
	.st0{display:none;}
	.st1{fill:#45E8FF;stroke:#000000;stroke-width:3;stroke-miterlimit:10;}
	.st2{fill:#333333;stroke:#000000;stroke-width:3;stroke-miterlimit:10;}
	.st3{fill:#FFFFFF;}
	.st4{fill:#737BFF;stroke:#000000;stroke-width:3;stroke-miterlimit:10;}
	.st5{fill:#FBFF17;stroke:#000000;stroke-width:3;stroke-miterlimit:10;}
	.st6{fill:#FBFFFF;stroke:#000000;stroke-width:3;stroke-miterlimit:10;}
	.st7{fill:#BCBFBF;stroke:#000000;stroke-width:3;stroke-miterlimit:10;}
	.st8{fill:#FFFF17;stroke:#000000;stroke-width:3;stroke-miterlimit:10;}
	.st9{fill:#FFFFFF;stroke:#000000;stroke-width:3;stroke-miterlimit:10;}
	.st10{fill:#A06136;stroke:#000000;stroke-width:0.5;stroke-miterlimit:10;}
	.st11{fill:#807E73;stroke:#000000;stroke-width:0.5;stroke-miterlimit:10;}
	.st12{fill:#A06136;stroke:#000000;stroke-miterlimit:10;}
	.st13{fill:#5D000A;stroke:#000000;stroke-width:0.25;stroke-miterlimit:10;}
	.st14{fill:#FFFFFF;stroke:#000000;stroke-width:0.25;stroke-miterlimit:10;}
	.st15{fill:#131111;stroke:#000000;stroke-miterlimit:10;}
	.st16{fill:none;stroke:#000000;stroke-width:0.25;stroke-miterlimit:10;}
	.st17{fill:#AA1121;stroke:#000000;stroke-width:0.25;stroke-miterlimit:10;}
	.st18{fill:none;stroke:#000000;stroke-width:0.5;stroke-miterlimit:10;}
	.st19{fill:none;stroke:#000000;stroke-miterlimit:10;}
	.st20{fill:none;stroke:#000000;stroke-width:0.75;stroke-miterlimit:10;}
	.st21{fill:#807E73;stroke:#000000;stroke-width:3;stroke-miterlimit:10;}
	.st22{stroke:#000000;stroke-width:3;stroke-miterlimit:10;}
	.st23{fill:#131111;stroke:#000000;stroke-width:0.5;stroke-miterlimit:10;}
	.st24{fill:#FFA273;stroke:#000000;stroke-miterlimit:10;}
	.st25{stroke:#000000;stroke-miterlimit:10;}
	.st26{fill:#FFFFFF;stroke:#000000;stroke-width:0.5;stroke-miterlimit:10;}
	.st27{fill:#FFA273;stroke:#000000;stroke-width:0.5;stroke-miterlimit:10;}
	.st28{stroke:#000000;stroke-width:0.5;stroke-miterlimit:10;}
	.st29{fill:#FFFFFF;stroke:#000000;stroke-miterlimit:10;}
	.st30{fill:#007273;stroke:#000000;stroke-miterlimit:10;}
	.st31{fill:#003973;stroke:#000000;stroke-miterlimit:10;}
	.st32{fill:#5D000A;stroke:#000000;stroke-miterlimit:10;}
	.st33{fill:#AA1121;stroke:#000000;stroke-width:0.75;stroke-miterlimit:10;}
	.st34{fill:#40291D;stroke:#000000;stroke-miterlimit:10;}
	.st35{fill:#546925;stroke:#000000;stroke-miterlimit:10;}
	.st36{fill:#242D10;stroke:#000000;stroke-miterlimit:10;}
	.st37{fill:#2A3D40;stroke:#000000;stroke-miterlimit:10;}
	.st38{fill:#7DB8BF;stroke:#000000;stroke-miterlimit:10;}
	.st39{fill:#7DB8BF;stroke:#000000;stroke-width:0.5;stroke-miterlimit:10;}
	.st40{fill:#233327;stroke:#000000;stroke-miterlimit:10;}
	.st41{fill:#DBDADA;stroke:#000000;stroke-width:0.5;stroke-miterlimit:10;}
	.st42{fill:#424141;stroke:#000000;stroke-miterlimit:10;}
	.st43{fill:#434260;stroke:#000000;stroke-miterlimit:10;}
	.st44{fill:#D0CFCF;}
	.st45{fill:#807E73;stroke:#000000;stroke-width:2;stroke-miterlimit:10;}
	.st46{fill:#404040;stroke:#000000;stroke-width:2;stroke-miterlimit:10;}
	.st47{fill:#FFFFFF;stroke:#000000;stroke-width:2;stroke-miterlimit:10;}
	.st48{fill:#807E73;stroke:#000000;stroke-miterlimit:10;}
	.st49{fill:#80FF73;stroke:#000000;stroke-miterlimit:10;}
	.st50{fill:#D00005;stroke:#000000;stroke-miterlimit:10;}
	.st51{fill:#2F3030;stroke:#000000;stroke-width:3;stroke-miterlimit:10;}
	.st52{fill:#8D8F8F;}
	.st53{fill:#B81E24;stroke:#000000;stroke-width:3;stroke-miterlimit:10;}
	.st54{fill:#F2F2F2;stroke:#000000;stroke-width:3;stroke-miterlimit:10;}
	.st55{fill:none;}
	.st56{font-family:'MyriadPro-Regular';}
	.st57{font-size:38.5445px;}
	.st58{display:none;opacity:0.16;fill:#807E73;stroke:#000000;stroke-width:3;stroke-miterlimit:10;}
</style>
<g id="modelo" class="st0">
	
		<image style="display:inline;overflow:visible;opacity:0.58;" width="1416" height="795" xlink:href="9DF6708D.jpg"  transform="matrix(1.3559 0 0 1.3585 0 0)">
	</image>
</g>
<g id="Cenário">
	<rect x="-32.9" y="-15.9" class="st1" width="1981.9" height="903.9"/>
	<polygon class="st2" points="185.7,837.2 -33,865.1 -33,535.6 45.5,531.4 49.6,519.3 110.5,519.3 141.5,531.4 148.7,438.3 
		224,438.3 228.2,421.8 308.7,421.8 318,433.3 339.7,438.3 397.5,472 387.1,562.8 415,562.8 452.2,584.7 452.2,634.7 485.2,635.8 
		485.2,601.7 610.1,601.7 625.6,614.7 618.4,699.6 625.6,699.6 625.6,663.1 643.3,667.3 653.4,776.2 	"/>
	<g>
		<path class="st3" d="M1891.2,365.4c-23.9,1.2-48-3-70.1-12.3c-4.4-1.9-8.9-4-13.7-3.9c-5.9,0-11.3,3.3-16.5,6.2
			c-34.2,18.7-74.4,21.5-113.2,23.1c-17.4,0.7-35.1,1.3-51.4,7.3c-32.6,12-56.3,44.2-90.3,51.1c-12.9,2.6-26.5,1.3-38.7-3.9
			c11.4-1.5,23.2-0.5,34.3-3.5c22.8-6,38.3-26.9,58.2-39.7c35.7-23,81.8-18,122.3-30.1c23.6-7,45.2-19.8,68.6-27.6
			c23.4-7.8,50.6-9.8,71.3,3.7c12.6,8.3,21.4,21.5,34,29.8"/>
		<g>
			<path d="M1891.2,363.9c-15.2,0.7-30.4-0.6-45.2-4.2c-7.2-1.7-14.2-4-21.1-6.7c-6.1-2.4-12.3-5.9-19.1-5.3
				c-5.7,0.5-10.8,3.7-15.7,6.3c-6.5,3.5-13.2,6.5-20.2,9c-13,4.7-26.7,7.7-40.4,9.7c-14.3,2.1-28.7,3.1-43.2,3.7
				c-13.8,0.7-27.7,0.8-41.4,2.9c-25.3,4-44.5,18.2-64.7,32.9c-10.9,7.9-22.2,15.8-34.9,20.3c-15.6,5.6-32.3,5.1-47.7-1.1
				c-0.1,1-0.3,2-0.4,2.9c14-1.7,28.4-0.4,41.8-5.9c10.9-4.5,20.2-12.1,29.1-19.7c10.2-8.7,20.2-17.4,32.3-23.3
				c12.4-6.1,25.9-9.5,39.5-11.9c27.5-4.9,55.6-6.1,82-15.7c27.7-10.1,53.5-26.5,83.3-30c15.5-1.8,31.9,0.1,45.3,8.6
				c13,8.3,21.9,21.5,34.6,30.3c1.6,1.1,3.1-1.5,1.5-2.6c-11.4-7.8-19.7-19.2-30.7-27.5c-10.3-7.7-22.7-11.6-35.5-12.3
				c-28.8-1.6-55,11.6-80.6,22.9c-13.8,6.1-27.7,11.3-42.5,14.4c-13.7,2.9-27.6,4.5-41.4,6.4c-26.8,3.7-53.2,9.2-75.1,26.1
				c-11.4,8.8-21.6,19.3-34,26.9c-7,4.3-14.6,7.2-22.8,8.4c-9,1.3-18,1-27,2.1c-1.7,0.2-2,2.3-0.4,2.9c24.9,10.1,49.7,3.8,71.5-10.2
				c20.3-13,38.3-30.7,61.7-38.2c14.2-4.6,29.2-5.3,44-5.9c14-0.6,28-1.2,42-2.6c26.8-2.7,53.1-8.6,77-21.6c3.7-2,7.4-4.2,11.6-4.9
				c5.6-1,10.7,1.3,15.7,3.4c6.9,2.9,14,5.4,21.3,7.3c16.2,4.3,32.9,6,49.6,5.2C1893.1,366.8,1893.1,363.8,1891.2,363.9
				L1891.2,363.9z"/>
		</g>
	</g>
	<polygon class="st2" points="1949,430.5 1899.4,432.7 1899.4,421.8 1859.2,421.8 1859.2,413.2 1810.7,413.2 1785.9,431.7 
		1737.4,432.7 1725,439.2 1716.7,330.8 1610.4,336.2 1513.4,398 1519.6,501.7 1453.5,504.9 1428.7,519.3 1418.4,516.3 1390.5,527.8 
		1371.9,527.8 1360.6,519.3 1311,519.3 1279,536.8 1279,667.3 1258.6,672.1 1258.5,760.6 1949,851 	"/>
	<polygon class="st4" points="711.7,843.8 -33,1107 1941.8,1107 1242.4,843.8 	"/>
	<polygon class="st5" points="925.6,1107 940,1040.5 976,1040.5 990.4,1107 	"/>
	<polygon class="st5" points="934.8,975.4 947.2,909 969.8,909 979.1,975.4 	"/>
	<polygon class="st6" points="748.7,843.8 100.7,1107 -33,1107 711.7,843.8 	"/>
	<polygon class="st6" points="1242.4,843.8 1213.6,843.8 1804,1107 1941.8,1107 	"/>
	<polygon class="st5" points="943.1,871.7 951.8,843.8 965.7,843.8 972.9,871.7 	"/>
	<polygon class="st7" points="-33,1107 -33,813.5 701.3,755.2 711.7,843.8 	"/>
	<polygon class="st7" points="1949,1107 1949,806 1241.6,742.4 1236.6,842 	"/>
	<ellipse class="st8" cx="610.8" cy="111.5" rx="90.5" ry="92.2"/>
	<g>
		<image style="overflow:visible;" width="330" height="331" xlink:href="9DF6708F.png"  transform="matrix(1 0 0 1 450 -54)">
		</image>
	</g>
	<path class="st9" d="M475.2,191.4l-20.6-46.3l-13.8-43.5l-4.1-38.6V45.6l4.8,4.2l6.9-30.2l7.6-8.4l8.3,2.8l1.4-14h-45.4l-5.5,53.3
		c0,0,5.5,39.3,6.9,42.4c1.4,3.2,30.3,78.9,30.3,78.9l31.7,31.6L475.2,191.4z"/>
	<path class="st9" d="M405.7,1l-4.1,44.7c0,0,3.8,36.6,6.9,48.4c3.9,15.1,22,58.2,22,58.2l13.1,25.9c0,0-38.1-42.5-46.1-59.6
		c-5.5-11.8-11-51.2-11-51.2s-1.2-34.8,0-46.3c0.7-6.4,5.5-25.2,5.5-25.2H407L405.7,1z"/>
	<path class="st9" d="M-33,53.4l45.1,47.7l92.9,42.1l42,28.8l28.2,31.8L191,221l-65.4-35.8c0,0-45.1-30.9-46.6-32.3
		s-53.9-27.3-53.9-27.3l-47.5-37.9L-33,75.1V53.4z"/>
	<polygon class="st9" points="175.2,-16.7 181.4,1.2 197.2,7.5 208.9,27.8 208.9,10.3 192,-16.7 	"/>
	<path class="st9" d="M165.5,58.3c1.1,3.3,17.1,35.4,26.5,44.2c7.4,6.9,29.2,16.1,35.4,19.6s39.2,15.1,39.2,15.1l12.4,5.3
		c0,0-40.7,3.4-53.7,0c-15.1-4-42.8-20.3-54.4-30.9c-9.1-8.4-23.3-29.7-28.2-41.3c-5.4-12.8-11-54.7-11-54.7S161.1,45.4,165.5,58.3z
		"/>
	<path class="st9" d="M216.8,268.3l59.9,24.2c0,0,71.2,30.8,73.3,34.3s85.7,38.1,85.7,38.1l-83.6-51.6l-72.3-32.4L216.8,268.3z"/>
	<path class="st9" d="M872.8-0.2c0,0,14.8,50,13.6,67.1c-1.1,15.3-12.9,44.5-20.4,57.9c-10.5,18.8-54,67-54,67s75.4-48.1,89.3-73.7
		c9.9-18.2,16.9-63.1,10-82.7c-4.9-13.7-41.8-40-41.8-40"/>
	<path class="st7" d="M789.6,312.6l-104.1,30.6c0,0-80-32.2-107.4-40.6c-7.9-2.4-23.8-8.1-32-7.7c-5.7,0.3-17.6,3.6-21.7,7.7
		c-2.2,2.2-5.5,9.1-4.2,12c3.2,6.8,20.5,10,27.9,9.9c5.5,0,15.2-6.6,20.6-7.6c5.3-1,16.4-1,21.7,0c24,4.7,90.7,37.1,90.7,37.1v33.3
		l-12.3,370.5l13.3-1.1l19.1-400.6l83.7-32.5l16.7-2.7l18.7,2l18,7.3l6-6.7c0,0,1.5-10.8,0-14c-1.9-4.1-9.9-9.4-14-11.3
		c-4.2-2-13.8-4.6-18.3-3.5C805.1,296.6,789.6,312.6,789.6,312.6z"/>
	<path class="st7" d="M1192.7,541.7l63.9,20.8c0,0,49.1-21.9,66-27.7c4.8-1.7,14.6-5.5,19.7-5.2c3.5,0.2,10.8,2.4,13.3,5.2
		c1.4,1.5,3.4,6.2,2.6,8.2c-2,4.6-12.6,6.8-17.1,6.8c-3.4,0-9.4-4.5-12.7-5.2c-3.3-0.6-10-0.7-13.3,0c-14.7,3.2-55.7,25.3-55.7,25.3
		v22.7l7.2,149.8l-8.4,1.5L1247,571.3l-61-23l-13.3-2.7l-11.3,1.3l-12.7,4.3c0,0-3.5-6.1-4-8.3c-0.5-2.1-0.6-6.6,0-8.7
		c0.7-2.3,3.2-6.9,5.3-8c5.8-3.1,20-2.4,26.1,0C1181.4,528.4,1192.7,541.7,1192.7,541.7z"/>
	<g>
		<path class="st3" d="M1750.1,56.6c-20.3,12-48.4,9.2-73.7,5.8c-14.7-1.9-29.4-3.9-44.1-5.8c-9.2-1.2-18.8-2.4-27.2,0.4
			c-18.6,6.1-21.1,26.6-30.3,41.3c-12.4,19.9-40.3,30.5-67.6,30.4c-16.8-0.1-35.2-3.4-49.4,3.6c-5.8,2.9-10.3,7.3-15.4,11
			c-22.6,16.2-56.4,17.1-86.6,12c-30.2-5.1-59.4-15.3-89.8-18.6c-5.7-0.6-12.7-1.9-14.2-6.6c-0.7-2.3,0.3-4.7,1.6-6.7
			c8.2-13.5,26-22.2,44.5-21.8c9.2,0.2,18.3,2.4,27.5,3.2c15.4,1.2,30.9-1.9,43.4-8.8c17.8-9.8,28.8-26.2,45.8-36.9
			c16.6-10.5,37.8-14.8,58.3-18.8c18.6-3.7,37.2-7.4,55.8-11c30.4-6,60.9-12.1,92.4-13.1c37.3-1.2,74.8,4.6,111.3,12.9
			c6.1,1.4,12.7,3.1,16.8,7.2c6.2,6.2,4.3,15.2,2.1,22.8"/>
		<g>
			<path d="M1749.3,55.3c-15.4,8.8-33.8,9.3-51.1,8c-18.9-1.4-37.6-4.5-56.4-6.9c-15.2-2-33.3-6.3-46.4,4.1
				c-10.1,8-13.6,21.1-19.2,32.2c-7.3,14.2-20.2,23.5-35,28.8c-16.5,5.9-33.1,5.9-50.4,5.1c-8.2-0.4-16.5-0.6-24.6,1.2
				c-7.9,1.8-14,5.9-20.3,10.8c-14,11.1-30.4,16.3-48.1,17.6c-37.5,2.9-73.2-10.2-109.4-17.4c-8.9-1.8-18-2.4-26.9-4.2
				c-1.8-0.4-3.7-0.8-5.3-1.7c-3.5-2-3.3-5.3-1.6-8.7c1.7-3.5,5-6.6,7.9-9.1c14.7-12.6,33.3-12.9,51.5-10.3
				c16.9,2.5,33.7,2.2,49.6-4.7c15.1-6.5,26.1-18.5,38.2-29.3c28.4-25.3,68.4-28.6,104.2-35.7c39.6-7.8,79.4-17,119.9-17.7
				c20.5-0.4,41,1.4,61.3,4.4c9.9,1.5,19.8,3.3,29.6,5.3c8.9,1.8,19.3,2.9,27.4,7.3c9.5,5.2,8,15.3,5.5,24.1
				c-0.5,1.9,2.4,2.7,2.9,0.8c1.9-6.5,3.6-14,0.3-20.4c-3.3-6.4-10.5-9.1-17.1-10.7c-20.2-5.1-41.1-8.7-61.8-11.1
				c-21.1-2.5-42.4-3.4-63.6-2c-20.4,1.4-40.7,4.7-60.8,8.4c-21.3,4-42.5,8.3-63.7,12.6c-19.1,3.8-38.8,6.8-56.9,14.1
				c-16.3,6.5-28.2,17.6-40.9,29.3c-14.9,13.7-31.5,22.9-52.1,23.9c-18.8,0.9-36.9-6.4-55.5-1.1c-7.3,2.1-14.3,5.6-20.1,10.6
				c-4.1,3.5-10.8,10-10.4,16c0.4,6.2,7.8,8.1,12.8,8.9c9.9,1.5,19.7,2.7,29.4,4.8c20.2,4.3,40,10.1,60.3,13.7
				c17.5,3.1,35.6,4.5,53.3,2c16.2-2.2,30.2-8.1,43-18.2c8.7-6.9,17.3-10.2,28.4-10.8c9.4-0.4,18.8,0.6,28.2,0.7
				c16.2,0.2,32.8-2.9,47.2-10.4c13.3-6.9,22.4-17.2,28.6-30.7c6.6-14.4,12.7-29.8,30.5-31.9c10-1.2,20.2,1,30.1,2.3
				c10.5,1.4,21.1,2.8,31.6,4.2c17.9,2.4,36.2,4.8,54.2,2.1c8.1-1.2,16-3.7,23.1-7.8C1752.5,56.9,1751,54.3,1749.3,55.3L1749.3,55.3
				z"/>
		</g>
	</g>
</g>
<g id="Wallace">
	<polygon class="st10" points="1055.3,509.7 1057.4,480.6 1069.2,480.5 1067.8,497 	"/>
	<polygon class="st10" points="1133.8,506.6 1134.8,480.6 1121.9,480.5 1122.9,495.9 	"/>
	<path class="st11" d="M1053.9,476.8c-0.1,1.3-1.4,3.7-1.1,4.9c0.2,0.6,1.2,1.6,1.8,1.8c1.2,0.5,5.2,0,5.2,0h5.5l7-1.8l-2,17.4h44.8
		h5.1v-18.6c0,0,3.2,2.2,4.5,2.5c1.5,0.4,4.6,0.5,6.1,0.2c1.1-0.2,3.5-0.8,4.4-1.6c1.1-1.1,2-4.2,2.4-5.9c0.6-2.5,0.5-7.2-0.1-9.5
		c-0.8-3.4-3.6-9.7-5.2-12.8c-1.1-2-3.2-6.3-5-7.6c-2.2-1.6-7.6-2.4-10.2-2.8c-8.4-1-33.8,0.8-33.8,0.8s-6.9,0-9.1,0.7
		c-2.9,0.9-8.3,4.2-10.5,6.4c-2,1.9-4.9,6.6-6.1,9c-1.3,2.6-3.3,8.2-3.7,11.1C1053.7,472.6,1054.1,475.4,1053.9,476.8z"/>
	<path class="st10" d="M1083.9,417.6l0.6,26.4c0,0,11.2,8.1,15.2,8c3.8-0.1,14.3-8.7,14.3-8.7l-1.8-30L1083.9,417.6z"/>
	<path class="st12" d="M1064.6,373.2c-0.3,2.8-1,8.3-0.9,11.1c0,3.5,0.5,10.4,1.5,13.8c1.1,3.7,4.7,10.6,6.8,13.8
		c1.6,2.6,5.4,7.4,7.6,9.5c2.3,2.1,7.5,5.7,10.3,6.9c2.1,0.9,6.6,1.8,8.9,2c2.3,0.1,7.1-0.2,9.2-1c2.7-1.1,7.2-4.9,9.2-6.9
		c2.5-2.6,6.5-8.5,8.1-11.7c1.2-2.3,2.9-7.4,3.6-9.9c0.7-2.7,1.6-8.3,1.8-11.2c0.2-3.8-0.3-11.5-0.8-15.3c-0.4-2.4-1.8-7.2-2.3-9.6
		c-0.6-2.8-1.6-8.4-2.3-11.2c-0.4-1.6-0.7-5.1-1.8-6.3c-1.8-2.2-10.1-5.2-10.1-5.2l2.2,5l-12.2-8.6l1.9,4l-9.4-6.1l1.9,3.6l-8.4-2.9
		l1.5,2.2l-8.2-1.4l2.8,4.1l-7.1-2.8c0,0-5.2,3.1-6.3,4.7c-1.2,1.7-1.6,5.9-2.3,7.9c-0.8,2.1-3.2,5.9-3.8,8
		C1065.1,362.9,1064.9,369.8,1064.6,373.2z"/>
	<path class="st13" d="M1085.6,404.2c0,0-1.4,2.1-1.4,2.9c0.1,1.7,2.1,4.6,3.4,5.7c1.4,1.2,4.9,2.4,6.7,2.8c2.1,0.5,6.5,0.7,8.6,0.3
		c1.9-0.4,5.6-2.1,7.2-3.3c1.2-0.9,3.3-3.4,3.9-4.8c0.7-1.6,0.9-7,0.9-7s-7.3-0.1-9.8,0c-2.8,0.2-8.5,0.8-11.3,1.3
		C1091.8,402.6,1085.6,404.2,1085.6,404.2z"/>
	<path class="st14" d="M1071.7,367.6c0,0,0.8,4.8,1.9,5.8c1.1,1,4.2,0.8,5.7,0.9c2.4,0.1,9.4-0.8,9.4-0.8s1-3.2,0.8-4.3
		c-0.4-1.5-3.3-2.4-4.6-3c-1.7-0.8-4.6-1.9-6.3-1.5C1076.7,365.1,1071.7,367.6,1071.7,367.6z"/>
	<path d="M1070.2,362.1c0,0,3.1-2.1,4.3-2.4c1.7-0.5,5.4-0.7,7.2-0.6c2.3,0.2,8.9,2.2,8.9,2.2l-0.6-2.8c0,0-4.3-2.4-6-2.7
		c-1.8-0.4-5.7-0.6-7.6-0.1c-1.4,0.3-4,1.6-4.8,2.5C1070.9,358.9,1070.2,362.1,1070.2,362.1z"/>
	<path d="M1105.3,360.9c0,0,2.9-1.6,4-1.9c1-0.3,3.1-0.8,4.2-0.8c1.2,0,3.7,0.6,4.9,0.9c1.4,0.4,5.4,2,5.4,2s-0.8-3.5-1.7-4.3
		c-0.9-0.8-3.3-1.2-4.5-1.4c-1.1-0.2-4.7-0.3-6-0.2c-1.2,0-2.8,0.2-4,0.7c-0.7,0.3-2.3,2.1-2.3,2.1L1105.3,360.9z"/>
	<path class="st14" d="M1122.2,366.8c0,0-0.7,4.8-1.7,5.8c-1.1,1-4.1,0.8-5.5,0.9c-2.3,0.1-9.2-0.8-9.2-0.8s-1-3.2-0.8-4.3
		c0.3-1.5,3.2-2.4,4.4-3c1.6-0.8,4.4-1.9,6.1-1.5C1117.2,364.3,1122.2,366.8,1122.2,366.8z"/>
	<ellipse transform="matrix(0.9986 -5.226617e-02 5.226617e-02 0.9986 -17.7666 58.709)" cx="1113.6" cy="369" rx="3.8" ry="3.6"/>
	<polygon class="st15" points="1063.3,383.8 1061.6,369.6 1060.1,364.5 1058,355.6 1057.2,348.3 1059.2,340.3 1057.8,341 
		1060.9,333 1063.9,327.6 1062.1,328.7 1067.4,321.3 1072.9,317.3 1079.1,312.9 1077.6,315.6 1088.3,309.4 1086.6,312.9 
		1093.8,311.2 1093.4,313.1 1099.2,311.4 1098.6,313.6 1105.3,311.4 1104.3,314.1 1109.8,314.6 1115.5,317 1112.5,317.5 
		1119.4,320.5 1123.6,326.4 1127,331.2 1128.6,337 1131.1,343.2 1132.1,352 1131.8,361.8 1131.9,369.9 1130.6,380.9 1129.5,370.9 
		1127.6,364.6 1125.3,353.4 1123.6,347 1113.5,341.8 1115.7,346.8 1103.5,338.3 1105.4,342.3 1096.1,336.2 1097.9,339.7 
		1089.5,336.9 1091.1,339 1082.8,337.6 1085.6,341.8 1078.5,339 1072.7,343.1 1072.2,343.7 1070.7,348.5 1069.9,351.5 1066.2,359.1 
		1065.6,361.8 1064.8,370.3 	"/>
	<path class="st10" d="M1063.4,385.5c0,0-2.9-3-3.8-4.1c-0.9-1.1-2.8-3.4-3.2-4.7c-0.4-1.2-0.6-3.6-0.5-4.9c0.1-1.1,0.5-3.3,1-4.4
		c0.3-0.7,0.9-2.7,1.9-2.8c1.3-0.1,2.7,3,2.7,3L1063.4,385.5z"/>
	<path class="st10" d="M1130.4,381.9c0,0,3.3-4.5,4.2-6.1c0.9-1.6,2.5-4.8,3-6.5c0.4-1.5,0.8-4.6,0.2-6c-0.5-1.2-2.6-3.8-4.1-3.6
		c-1.1,0.2-2.2,3.2-2.2,3.2l0.3,4.7L1130.4,381.9z"/>
	<path class="st16" d="M1062.8,381.7c0,0-3-3.5-3.7-4.8c-0.5-0.9-1.4-2.9-1.4-4c0-1,0.2-3.8,1.6-3.9c1.1-0.1,1.2,2.9,1.2,2.9"/>
	<path class="st16" d="M1130.9,377.4c0,0,2.7-3.3,3.3-4.6c0.5-1,1.1-3.1,1.1-4.2c0.1-1.4,0.7-5.5-1-5.5c-0.9,0-1.3,3-1.3,3"/>
	
		<ellipse transform="matrix(0.9986 -5.226617e-02 5.226617e-02 0.9986 -17.8386 56.9836)" cx="1080.6" cy="369.6" rx="3.8" ry="3.6"/>
	
		<ellipse transform="matrix(0.9967 -8.122911e-02 8.122911e-02 0.9967 -26.3466 89.1245)" class="st3" cx="1082.2" cy="368.4" rx="1" ry="1"/>
	
		<ellipse transform="matrix(0.9967 -8.122911e-02 8.122911e-02 0.9967 -26.208 91.7806)" class="st3" cx="1114.9" cy="368" rx="1" ry="1"/>
	<path class="st14" d="M1114.6,403.8l-30.6,3.8c0,0,0.8-2.4,1.4-2.9c1.8-1.6,9-2.1,9-2.1l8.8-1l3.6-0.2l8.1,0L1114.6,403.8z"/>
	<path class="st17" d="M1089.9,414.2c0,0,2.3-2.2,3.2-2.6c1.3-0.6,4.2-0.9,5.6-1c1.1-0.1,3.2-0.3,4.2-0.3c1.4,0,4.1-0.1,5.4,0.1
		c0.9,0.1,3.5,0.8,3.5,0.8s-2.1,1.9-2.9,2.4c-1,0.6-3,1.5-4.1,2c-0.5,0.2-1.4,0.5-1.9,0.6c-1,0.2-2.9,0.3-3.9,0.3
		c-1.2,0-3.6-0.3-4.8-0.6C1093.1,415.4,1089.9,414.2,1089.9,414.2z"/>
	<polyline class="st18" points="1098,381.3 1098.1,383.9 1098.6,388.3 1098.6,391.2 	"/>
	<polyline class="st19" points="1091.9,328.8 1098,324.5 1097.8,328.1 1108.7,326.1 1105.9,330.1 1115.8,329.4 1112.7,332.1 	"/>
	<polyline class="st20" points="1078,329.2 1074.3,329.5 1075.6,331.2 1068.3,333.4 1069.5,335.4 1066,340.7 1068.8,339.8 	"/>
	<path class="st10" d="M1123.4,496.7c0,0-2.9-2.2-3.7-3.1c-0.6-0.7-1.1-3.3-2.1-3.2c-1,0.2-1.4,3-1.1,4c0.1,0.6,1.1,1.4,1.6,1.8
		c0.5,0.4,1.8,1,2.5,1.1c0.3,0.1,1.1-0.1,1.1-0.1L1123.4,496.7z"/>
	<path class="st10" d="M1066.3,496.3c0,0,3-1.9,3.9-2.7c0.7-0.6,1.4-3.1,2.3-2.9c1,0.2,1.1,3,0.8,3.9c-0.2,0.6-1.2,1.3-1.7,1.6
		c-0.6,0.4-1.8,0.8-2.5,0.9c-0.3,0-1.1-0.1-1.1-0.1L1066.3,496.3z"/>
	<ellipse class="st2" cx="1095" cy="536.8" rx="46.2" ry="47.9"/>
	<ellipse class="st21" cx="1095" cy="536.8" rx="33.8" ry="35.1"/>
	<ellipse class="st22" cx="1095" cy="536.8" rx="17.6" ry="18.3"/>
	<line class="st11" x1="1072.4" y1="481.7" x2="1075.4" y2="462.2"/>
	<line class="st11" x1="1120.3" y1="480.5" x2="1118.5" y2="462.2"/>
	<path class="st10" d="M1134.8,503.6c0,0-0.2-2.5-0.8-3c-0.2-0.2-0.8,0.1-1,0c-0.7-0.5-0.6-2.9-1.3-3.3c-0.3-0.2-1.2,0.5-1.5,0.3
		c-0.5-0.3-0.3-1.8-0.8-2.1c-0.3-0.2-1.4,0-1.4,0s0-2.7-0.9-2.9c-1.1-0.3-4.3,2.1-4.3,2.1l11.7,10.1L1134.8,503.6z"/>
	<path class="st10" d="M1054.9,504.8c0,0,0.2-2.5,0.8-3c0.2-0.2,0.8,0.2,1,0c0.7-0.5,0.6-3,1.3-3.4c0.3-0.2,1.2,0.5,1.5,0.3
		c0.5-0.3,0.3-1.8,0.8-2.1c0.3-0.2,1.4,0,1.4,0s0-2.7,0.9-3c1.1-0.3,4.3,2.2,4.3,2.2l-11.7,10.3L1054.9,504.8z"/>
	<ellipse transform="matrix(0.6309 -0.7759 0.7759 0.6309 29.2742 1055.5165)" class="st10" cx="1124" cy="497" rx="4.4" ry="1.9"/>
	
		<ellipse transform="matrix(0.5863 -0.8101 0.8101 0.5863 60.582 1119.3801)" class="st10" cx="1126.2" cy="500.4" rx="4.4" ry="1.9"/>
	
		<ellipse transform="matrix(0.5863 -0.8101 0.8101 0.5863 59.8433 1123.0439)" class="st10" cx="1129.4" cy="502.9" rx="4.4" ry="1.9"/>
	
		<ellipse transform="matrix(0.5863 -0.8101 0.8101 0.5863 57.9754 1126.2656)" class="st10" cx="1131.6" cy="506.4" rx="4.4" ry="1.9"/>
	
		<ellipse transform="matrix(0.8043 -0.5943 0.5943 0.8043 -93.8858 728.205)" class="st10" cx="1058.5" cy="506.6" rx="1.9" ry="4.4"/>
	
		<ellipse transform="matrix(0.7695 -0.6386 0.6386 0.7695 -76.7746 793.2044)" class="st10" cx="1060.6" cy="503" rx="1.9" ry="4.4"/>
	
		<ellipse transform="matrix(0.7695 -0.6386 0.6386 0.7695 -74.3018 794.51)" class="st10" cx="1063.7" cy="500.2" rx="1.9" ry="4.4"/>
	
		<ellipse transform="matrix(0.7695 -0.6386 0.6386 0.7695 -72.441 796.4979)" class="st10" cx="1067.3" cy="498.6" rx="1.9" ry="4.4"/>
	<path class="st23" d="M1063.7,384.3c0,0-0.7,11.5,0,15.2c0.4,2.1,2.2,6.1,3.1,8.1c1,2.1,3,6.2,4.3,8c1.2,1.8,4,4.9,5.6,6.3
		c2.5,2.3,10.7,7.8,10.7,7.8l9.1,2h6.3l7.1-1.4c0,0,4.8-3,6.2-4.3c1.6-1.4,4.5-4.5,5.8-6.2c1.2-1.5,3.4-4.7,4.3-6.5
		c1-2.1,2.6-6.5,3.2-8.8c0.6-2.4,1.6-7.3,1.8-9.8c0.2-3.4-0.5-10.8-0.5-10.8l-4.7,2.4l-0.8,5.7l-3.1,4.5l0.4,4.5l-2.3,3.5l0.2,5.3
		l-2.6,2.8l0.1,3.8l-6.7,1.3l-2.7,4.8l-7.7-2.6l-6.2,3.4l-5.9-4.5h-4.5l-2-6.9l-5.6-3.3l-0.7-5.7l-4.3-3.8l0.8-3.8l-3.4-2.8
		l-0.3-4.5L1063.7,384.3z"/>
	<path class="st23" d="M1076.2,404.4c0,0,4.2-4.4,5.5-5.2c1.7-1.1,6.8-3.6,9.2-4.3c1.8-0.5,7.4-0.9,7.4-0.9s5.9-0.1,7.5-0.1
		c2.9-0.1,8,1,10.9,1.7c2.4,0.6,5.8,1.9,5.5,1.8l0.3,3.5c0,0-5.9-1.7-8-2c-1.9-0.4-4.1-0.5-6.1-0.6c-2.5-0.1-8,0.2-10.5,0.5
		c-2.5,0.3-7.1,0.5-9.5,1.5c-2.8,1.3-12,7.3-12,7.3L1076.2,404.4z"/>
</g>
<g id="Angelo">
	<path class="st24" d="M976.1,411.3l5.3-13.3l18.1-13.2l-4.9-18.8c0,0-13.4,9.9-17.2,14.1c-2.5,2.9-6.7,9.6-8.5,13.1
		c-1.7,3.1-5.7,13.2-5.7,13.2L976.1,411.3z"/>
	<path class="st24" d="M1046.2,411.8c0,0-1.5-11.8-3.6-15c-3.4-5.2-19.7-14.9-19.7-14.9l9.4-17.6c0,0,13.2,12.2,16.6,17
		c2.3,3.3,5.6,10.7,7,14.5c1.3,3.4,3.8,14,3.8,14L1046.2,411.8z"/>
	<path class="st24" d="M995.6,411.8v20.6c0,0,11.2,13.1,17.3,12.7c5.3-0.3,14.6-12.7,14.6-12.7l-1.5-22.7L995.6,411.8z"/>
	<path class="st24" d="M981.8,362.8c-0.3,2.2-0.5,6.5-0.7,8.6c-0.3,2.1-1.3,6.2-1.5,8.4c-0.2,2.7-0.3,8.2,0,11
		c0.4,3.7,1.8,11.1,3.5,14.4c1,2,4.1,5.6,6,7c2.6,1.9,9,4.4,12.2,5.3c2.2,0.6,6.7,1.6,9,1.5c3.1-0.1,9-2,11.8-3.2
		c2.5-1.1,7.4-3.7,9.4-5.5c1.7-1.5,4.7-5.2,5.6-7.3c1-2.5,0.9-8,1.2-10.7c0.3-3.1,1-9.4,0.9-12.5c-0.1-2-0.9-6-1.3-7.9
		c-0.4-1.8-1.8-5.4-2.2-7.3c-0.5-2.6-0.5-7.9-0.9-10.6c-0.2-1.2-0.4-3.7-1.2-4.7c-1-1.3-6-3-6-3l-3.1,1.9l-0.9-3.2l-3.8,1.5
		l-5.6,2.2l2.4-4.7l-0.7-2.6l-7.1,2.7l-6.2,2.9l0.7-2.7l-7.2,4.5l-4.4,0.1l-4,0.3l-2.6,1.6l-1.9,3.6
		C983.1,354.7,982.1,360.8,981.8,362.8z"/>
	<polygon class="st25" points="979.6,379.8 977.4,366.2 975.8,354.8 977.7,343.7 980.5,336.1 986.9,329.1 983.1,327.1 996.2,323.2 
		995,319.5 998.7,320.3 1004.6,323.7 1003.7,319.5 1004.6,316.9 1006.5,318 1011.9,321.7 1015.7,321.4 1013.1,316.9 1020.6,320.9 
		1025.7,325.4 1026.5,323.7 1030.3,329.4 1033.5,332.2 1033.5,328.8 1037.2,335.8 1040.3,346.3 1041.8,352.5 1042.9,359.6 
		1042.2,369.2 1039.1,379.9 1037.5,370.9 1036.1,366.7 1035.6,364.7 1034.9,356.2 1033.5,349.5 1027.5,346.5 1024.4,348.4 
		1023.5,345.3 1014.1,349 1016.5,344.3 1015.7,341.7 1002.5,347.3 1003.3,344.6 996.1,349.1 987.7,349.5 985,351.1 983.1,354.7 
		981.7,364.1 981.1,371.4 	"/>
	<path class="st26" d="M985.8,370.4c0,0-0.1,3.1,0.3,4c0.5,0.9,2.1,2.2,3.1,2.6c0.9,0.5,3.1,0.8,4.1,0.9c1,0.1,2.9-0.2,3.9-0.3
		c1-0.1,4.1-0.5,4.1-0.5s0.1-3.8-0.4-4.9c-0.3-0.7-1.4-1.9-2.1-2.4c-0.8-0.5-2.6-1.2-3.6-1.4c-1.2-0.3-3.8-0.6-5-0.3
		C989,368.5,985.8,370.4,985.8,370.4z"/>
	<path class="st26" d="M1016.8,376.9c1.1,0.1,3.4,0,4.5,0c0.8,0,2.4-0.1,3.2-0.2c0.8-0.1,2.5-0.5,3.2-0.9c0.7-0.3,2.2-1.2,2.6-1.9
		c0.5-0.7,0.9-3.4,0.9-3.4s-2.4-1.7-3.3-2c-1-0.4-3.2-0.9-4.3-0.9c-1.1-0.1-3.3,0-4.2,0.4c-0.9,0.4-2.6,1.7-3.2,2.4
		c-0.6,0.7-1.2,2.5-1.5,3.3c-0.2,0.7,0,2.8,0,2.8S1016.3,376.9,1016.8,376.9z"/>
	<ellipse cx="994.1" cy="373" rx="3.7" ry="3.4"/>
	<ellipse cx="1023" cy="372.3" rx="3.5" ry="3.3"/>
	<path class="st27" d="M1038.2,392.4c0,0,3.7-4.5,4.3-5.1c0.6-0.6,1.3-1.9,1.6-2.6c0.4-0.7,0-2.6,0-3.4c0-1.1-0.1-3.3-0.5-4.3
		c-0.1-0.4-0.4-1-0.8-1c-1.5-0.1-3.8,4-3.8,4L1038.2,392.4z"/>
	<path class="st27" d="M979.7,392.4c0,0-4.1-4.7-4.9-5.7c-0.5-0.6-1.2-3-1.4-3.7c-0.2-0.7,0.4-3.6,0.6-4.3c0.2-0.7,1-1.7,1.5-2.2
		c0.4-0.4,1.5-0.1,2.1,0c0.9,0.1,1.8,2.9,1.8,2.9v8.4L979.7,392.4z"/>
	<path class="st18" d="M1038.7,387.3c0,0,2.2-1.6,2.7-2.3c0.4-0.5,0.8-1.8,1-2.4c0.2-0.8,0.4-2.6,0-3.3c-0.1-0.2-0.7-0.6-1-0.5
		c-0.5,0.1-0.9,1.6-0.9,1.6"/>
	<path class="st18" d="M979.4,386.7c0,0-1.7-1.4-2.1-1.9c-0.4-0.5-0.9-1.6-1.1-2.3c-0.1-0.5-0.2-1.7,0-2.2c0.2-0.5,0.7-1.7,1.2-1.6
		c0.4,0.1,0.4,1.6,0.4,1.6"/>
	<path class="st28" d="M984.7,366.4c0,0,2.6-1.1,3.5-1.4c0.9-0.3,2.7-0.7,3.6-0.8c1.1-0.1,3.4,0.2,4.5,0.4c0.8,0.1,2.4,0.6,3.2,0.9
		c0.7,0.2,2,0.8,2.6,0.9c0.3,0.1,1.2,0.3,1.4,0c0.4-0.4-0.3-1.7-0.6-2.2c-0.4-0.5-1.5-1.3-2.1-1.6c-1-0.6-3.3-1.3-4.5-1.5
		c-1-0.2-3.1-0.1-4.1,0c-1.2,0.2-3.7,0.8-4.8,1.3c-0.7,0.3-2,1.2-2.4,1.8c-0.5,0.6-1,2.9-1,2.9L984.7,366.4z"/>
	<path class="st28" d="M1014.7,365.8c0.6-0.1,1.4-0.7,2-0.9c0.8-0.4,2.5-0.8,3.3-0.9c0.9-0.1,2.9-0.1,3.8,0c0.9,0.1,2.7,0.4,3.6,0.7
		c0.8,0.2,2.2,0.8,2.9,1.1c0.4,0.2,1,0.7,1.4,0.9c0.3,0.2,1,0.6,1,0.6s-0.2-2.3-0.6-3c-0.4-0.7-1.9-1.6-2.6-2
		c-0.8-0.4-2.7-0.8-3.6-1c-0.9-0.2-2.7-0.5-3.7-0.5c-1,0-3.1,0.3-4,0.5c-0.5,0.1-2,0.8-2,0.8s-1.2,0.8-1.6,1.1c-0.6,0.5-2,2-1.7,2.6
		C1013.1,366.1,1014.2,365.8,1014.7,365.8z"/>
	<ellipse class="st3" cx="1024.9" cy="371.3" rx="1" ry="1"/>
	<ellipse class="st3" cx="995.6" cy="371.3" rx="1" ry="1"/>
	<polyline class="st19" points="1009.3,382.7 1008.8,388.9 1009.4,394 	"/>
	<polyline class="st24" points="1025.4,400.7 1020.9,402 1014.7,405.1 	"/>
	<polygon class="st29" points="993.5,404.7 997.7,407.8 1023.9,406.3 1027.5,399.2 	"/>
	<polyline class="st24" points="1025.6,402.9 1021.7,403.1 1017.9,404.2 	"/>
	<path class="st19" d="M996.1,406.6c0.1,0.1,3.3-0.8,3.3-0.8h1.9"/>
	<path class="st30" d="M981.4,465.2c2.6,6.1,3.9,17,3.4,23.7c-0.6,9-6,35.4-6,35.4h63.2c0,0-4.2-23.6-4.6-31.6
		c-0.5-9,1.4-25.4,5.3-33.5c2.5-5.2,13.5-17.5,13.5-17.5l5.1-16.4l-1.5-15.4l-15.6,2.4c0,0,1.6,8.4,1,11.1
		c-0.7,3.2-6.3,11.6-6.3,11.6l-16.9-6.6l-31.9,1.9l-11.5,3.1c0,0-4.2-8.4-4.2-11.5c0-2.5,3.5-9.2,3.5-9.2l-15.6-6.5
		c0,0-5.1,9.4-5.5,12.8c-0.6,4.9,0.9,15,3.1,19.4c2.2,4.3,10,10.5,13.6,13.7C976.4,454.7,979.9,461.8,981.4,465.2z"/>
	<polygon class="st31" points="990.4,441.3 1010.5,452 1032.8,440.8 	"/>
</g>
<g id="Igor">
	<polygon class="st24" points="898.1,405.2 899,430.3 928.3,430.5 928.2,403.9 	"/>
	<path class="st24" d="M880,364.2c0.2,6,3.4,18.6,5.5,24.2c2.5,6.6,8.9,17.3,13.3,22.4c1.4,1.6,4.4,4.7,6.2,5.6
		c3.2,1.5,10.8,2.1,14.1,0.4c1.7-0.9,5-6.5,5-6.5s13.6-18.9,16.4-26.4c1.7-4.5,2.9-14.2,3.2-19.1c0.3-4.9-0.5-14.7-1-19.6
		c-0.7-5.3-3.1-16.3-5.5-20.6c-1.7-3.2-7.2-8.1-10.3-9.4c-4.3-1.7-13.9-0.8-18.4-0.1c-3.9,0.6-11.9,2.5-15.2,4.9
		c-3,2.2-8,8.5-9.6,12.2c-1.3,3.1-2.1,13.8-2.1,13.8S879.8,359.6,880,364.2z"/>
	<path class="st32" d="M894.4,387.9c0,0,5.2,9.5,7.4,12.3c1.3,1.7,4.6,4.4,6.4,5.2c1.9,0.8,6,1,8,0.6c1.8-0.4,5-2.6,6.4-3.9
		c1.5-1.4,3.6-5.3,4.7-7.1c1.2-1.9,4.5-7.9,4.5-7.9s-9.5,0.3-12.7,0.2c-2.1,0-6,0.2-8.1,0.2C907,387.6,894.4,387.9,894.4,387.9z"/>
	<polygon class="st29" points="897.4,393.3 915,392.7 929.1,391.9 931.8,387.1 911,387.5 894.4,387.9 	"/>
	<polyline class="st19" points="912.5,360.4 911.4,368.8 912.3,378.1 	"/>
	<path class="st26" d="M920.5,357.6c1,0.6,3,1,4.1,1.4c1.1,0.4,3.5,0.8,4.7,0.9c1.2,0.1,3.8-0.1,4.9-0.5c0.7-0.2,2.1-0.7,2.4-1.4
		c0.6-1.1,0.2-4,0-5.3c-0.2-1.1-0.6-3.6-1.5-4.3c-0.9-0.7-3.4-0.3-4.6-0.2c-1.4,0.1-4.2,0.4-5.5,1c-1,0.5-2.8,2.1-3.6,2.9
		c-0.8,0.8-3,4.4-3,4.4S920.1,357.4,920.5,357.6z"/>
	<ellipse transform="matrix(0.9979 -6.413347e-02 6.413347e-02 0.9979 -20.8248 60.3157)" cx="929.1" cy="354.5" rx="3.7" ry="4"/>
	
		<ellipse transform="matrix(4.450437e-02 -0.999 0.999 4.450437e-02 536.5471 1266.6259)" class="st3" cx="930.4" cy="352.8" rx="1.1" ry="0.9"/>
	<polygon class="st33" points="904.4,402.8 907.3,399.5 911.2,398 915.3,398.5 919.4,398.3 924.4,399 922.7,402 917,405.6 
		911.3,406 907.6,405 	"/>
	<path class="st26" d="M903,356.5c-1,0.6-2.8,1.1-3.8,1.4c-1.1,0.4-3.2,0.9-4.3,0.9c-1.2,0.1-3.5-0.1-4.6-0.5
		c-0.6-0.2-1.9-0.7-2.3-1.3c-0.6-1.1-0.2-4,0-5.3c0.2-1.1,0.6-3.6,1.4-4.3c0.9-0.7,3.2-0.3,4.3-0.2c1.3,0.1,3.9,0.4,5.1,0.9
		c1,0.5,2.6,2.1,3.4,2.9c0.8,0.8,2.9,4.3,2.9,4.3S903.4,356.2,903,356.5z"/>
	<ellipse transform="matrix(5.275359e-02 -0.9986 0.9986 5.275359e-02 494.8075 1228.5038)" cx="895" cy="353.4" rx="4" ry="3.4"/>
	
		<ellipse transform="matrix(0.9998 -2.144562e-02 2.144562e-02 0.9998 -7.335 19.2978)" class="st3" cx="896.1" cy="351.6" rx="0.9" ry="1.1"/>
	<path d="M886.2,344.7c0,0,1.9-1.6,2.7-2c0.9-0.4,3.1-0.6,4.1-0.5c0.8,0,2.5,0.3,3.3,0.6c0.9,0.3,2.5,1.1,3.3,1.5
		c0.6,0.3,1.9,0.9,2.6,1.3c0.5,0.3,1.9,1.2,1.9,1.2s1.1-1.2,1.1-1.7c0-0.6-0.7-1.8-1.1-2.2c-0.8-0.9-2.8-2.1-3.9-2.5
		c-0.9-0.4-3-0.7-4-0.8c-1-0.1-3-0.1-4,0c-1.1,0.2-3.4,0.5-4.3,1.2C887.1,341.7,886.2,344.7,886.2,344.7"/>
	<path d="M918.9,347.7c0,0,1.6-1.8,2.2-2.3c0.6-0.5,2-1.5,2.8-1.9c1-0.5,3.2-1,4.4-1.1c0.9-0.1,2.7-0.1,3.7-0.1c0.5,0,2,0.4,2,0.4
		s1.2,0.7,1.6,0.9c0.5,0.3,1.9,1.4,1.9,1.4s-0.6-2.9-1.2-3.7c-0.4-0.5-1.5-1.3-2.2-1.6c-1.3-0.5-4.1-0.5-5.5-0.4
		c-1.2,0.1-3.5,0.6-4.6,1.1c-0.9,0.4-2.4,0.9-3.2,1.6c-0.7,0.6-2.1,1.6-2.3,2.5C918.2,345.1,918.9,347.7,918.9,347.7z"/>
	<path class="st34" d="M880.5,355c0,0-1.5-16.7-1.4-22.1c0-3.6,1.8-11.4,3.2-14.7c1-2.6,4.4-7.4,4.4-7.4l7.5-8l8.4-7l12.1-4.2
		l-8.3,8.1l16.2-6.8l-6.5,7.5l11.6-2.7l-4.2,3.8l14.2-1l-5.9,3.3l12.9,1.6l-5.8,1.1l7.5,6.8l-6-0.6c0,0,2.4,4.7,2.9,6.4
		c0.8,2.4,2.1,7.5,2.3,10.1c0.3,3.5,0,10.6-0.6,14c-0.3,2.1-2.3,8.3-2.3,8.3s-2.3-15.1-4.5-19.4c-1.4-2.7-5.4-7.2-7.8-8.6
		c-3.5-2.1-11.5-3.4-15.4-3.6c-1.9-0.1-5.6,0.4-7.4,0.8c-2.3,0.5-6.7,2.1-8.9,3.2c-2.5,1.3-7.6,4.2-9.4,6.6
		C885.7,335.4,880.5,355,880.5,355z"/>
	<polyline class="st34" points="934.3,320.2 936.6,331.8 927.5,320.2 930,329.4 917.7,316.6 923.2,330 910.7,317.4 911,324.1 
		902.3,318.6 	"/>
	<path class="st27" d="M881.1,372.1c0,0-6.5-7.7-7.4-8.9c-0.7-1-1.2-4.3-1.4-5.4c-0.2-1.2,1.3-5,2.3-5.6c0.6-0.3,3.9-0.5,4.6-0.1
		c1.2,0.7,1.1,6.6,1.1,6.6L881.1,372.1z"/>
	<path class="st18" d="M880.7,366c0,0-2.7-3.2-3.2-3.9c-0.5-0.8-1.4-2.5-1.6-3.4c-0.1-0.8-0.1-2.6,0.5-3c0.2-0.2,1-0.2,1.3,0.1
		c0.4,0.3,0.6,1.6,0.6,1.6"/>
	<path class="st27" d="M943.4,368.9c0,0,4.2-6.6,5.1-7.7c0.7-0.9,1.2-4,1.3-5c0.2-1.2-1-5.1-1.8-5.8c-0.5-0.4-3.3-1-3.9-0.7
		c-1,0.5-1.1,6.3-1.1,6.3L943.4,368.9z"/>
	<path class="st18" d="M943.1,361.8c0,0,1.8-1.6,2.2-2.3c0.5-0.7,1.3-2.3,1.4-3.1c0.1-0.8,0.2-2.5-0.3-3c-0.2-0.2-0.9-0.3-1.1-0.1
		c-0.3,0.2-0.5,1.5-0.5,1.5"/>
	<path class="st35" d="M888.3,438.3c0,0-4.6,19.7-5.2,25.6c-0.9,9-0.6,24.3-0.3,33.4c0.2,6.7-0.3,26.9-0.3,26.9h66.7
		c0,0-0.3-39-1.5-51.9c-0.6-6.1-2-18.6-3.9-24.3c-1.4-4.2-8.2-14.8-8.2-14.8L888.3,438.3z"/>
	<path class="st36" d="M900,429.4l-2.7-7.5l-4.6,5.5c0,0-2.8,5-3.1,6.9c-0.3,1.7,0.2,5.4,0.7,7c0.4,1.6,2.2,4.1,3.3,5.1
		c2.5,2.3,4.9,4.9,7.7,6.2c2.6,1.2,12,4,12,4s8.6-3.6,11-5.3c2.4-1.7,7-5.6,8.8-8.2c1.3-1.8,3.8-5.8,3.9-8.2
		c0.1-3.7-5.3-13.1-5.3-13.1l-4.8,8.4L900,429.4z"/>
	<path class="st35" d="M942.6,445.5c0,0,6.2,1.9,8,3.2c2,1.5,5.3,5.6,6.7,7.9c1.6,2.6,3.8,8.7,4.9,11.7c1.5,4.1,5.4,16.8,5.4,16.8
		l-14.7,6L942.6,470"/>
	<polygon class="st37" points="908.4,498.4 927.7,498.4 927.7,459.1 907.2,459.1 	"/>
	<polygon class="st38" points="910.7,495.3 926.3,495.3 925.6,462.3 909.9,462.3 	"/>
	<path class="st24" d="M946.1,498.6l14.2,7.3l-5.3-15l10-4.8c0,0,6.9,11.4,8.2,15.5c0.9,2.9,1.1,12.5-1,14.7
		c-3.8,4-17.4,3.6-22.4,1.4c-10-4.6-22.1-20.4-22.1-20.4s-4.7-2-5.9-3.2c-0.9-0.8-4.2-3.2-3.5-4.1c0.7-0.9,3.7,0.3,3.7,0.3
		s-5.5-4.5-4.2-6.3c0.6-0.8,3.1,1,3.1,1s-3-5.3-1.7-6.6c1.3-1.2,4.4,5.6,4.4,5.6s-1.8-6.2-0.6-7c1.1-0.7,3.6,5.4,3.6,5.4
		s1.4-0.6,1.2-1.5c-0.2-1.1,1.4-4.6,2.5-4.7c2.1-0.2,0.1,5.2,1.2,6.7c0.8,1,3.1,3.9,3.1,3.9l2.5,3.2L946.1,498.6z"/>
	<path class="st35" d="M887.3,442.7c0,0-9.7,3.3-12.1,6.3c-2.4,3-5.5,10.9-6.5,15c-1.2,4.8-4.6,21-4.6,21l16.6,3.3l6.9-19.3"/>
	<path class="st24" d="M890.4,498.1l-13.7,5.1l2.4-14.9l-12.7-2.9c0,0-0.7,5.8-2.3,9.7c-1.1,2.8-1.7,18.4,0.1,20.9
		c3.2,4.5,12.7,1.3,17.5-0.3c9.7-3.2,26-16.4,26-16.4s4.6-1.3,5.8-2.3c0.9-0.7,4.2-2.6,3.6-3.6c-0.6-1-3.5-0.2-3.5-0.2
		s5.5-3.7,4.5-5.7c-0.5-0.9-2.9,0.6-2.9,0.6s3.3-4.8,2.1-6.3c-1.1-1.4-4.6,5-4.6,5s2.3-5.9,1.2-6.8c-0.9-0.8-3.9,4.9-3.9,4.9
		s-1.2-0.8-1-1.6c0.3-1.1-0.9-4.8-2-5.1c-2-0.5-0.5,5.2-1.7,6.5c-0.9,0.9-3.3,3.5-3.3,3.5l-2.7,2.8L890.4,498.1z"/>
	<rect x="912.2" y="465.4" class="st39" width="3.5" height="7.9"/>
	<ellipse class="st28" cx="914" cy="467.3" rx="0.9" ry="1.1"/>
	<ellipse class="st28" cx="914" cy="471.2" rx="0.9" ry="1.1"/>
</g>
<g id="Patrick">
	<path class="st40" d="M794.2,438.3c0,0-7.1,13.6-8.5,18.7c-1.5,5.3-2.8,16.6-3.3,22.3c-1,11.2-1.1,45.1-1.1,45.1l69.7-1.6v-41.5
		c0,0-0.7-21.3-2.3-27c-1.2-4-8-13.6-8-13.6L794.2,438.3z"/>
	<path class="st25" d="M799.7,425.2l-8.6-5.9c0,0,2,17.5,4.3,22.4c3.7,7.8,21.6,23.6,21.6,23.6s17.5-12.3,21.4-19
		c3.6-6.1,7.7-29.2,7.7-29.2l-9.1,8H799.7z"/>
	<path class="st24" d="M799.7,443.4v-31.2h37.1l0.5,32.2c0,0-14.5,10.3-19.9,10C812.5,454.2,799.7,443.4,799.7,443.4z"/>
	<path class="st24" d="M782.2,369.4c0.6,5.3,2.5,15.8,3.9,20.9c1.7,5.9,5.2,18,8.6,22.4c3.1,4,11.3,8.8,15.4,10.6
		c2,0.9,6.2,2.1,8.3,2c4.4-0.3,13-3.7,16.8-6.7c3.8-3,7.9-12.1,10-17.4c2.1-5.2,5.2-16.7,5.8-22.6c0.6-6.4,1.9-19.4,1.7-25.9
		c-0.2-5.7-1.6-17-3.2-22.3c-1.2-3.8-4.5-11-6.9-13.6c-3.2-3.5-11.4-7.3-15.5-8.5c-4.6-1.4-14.2-2.1-18.8-1.2
		c-3.2,0.6-9.6,3.5-12.4,5.7c-2.2,1.7-6,6.3-7.5,9c-1.8,3.3-4.2,10.8-5.1,14.7c-0.8,3.5-1.7,10.8-1.8,14.4
		C781.2,355.5,781.7,364.8,782.2,369.4z"/>
	<path class="st15" d="M782,364.3c0,0-3.6-14.6-4.2-19.7c-0.4-4-0.5-12.1,0-16.1c0.5-3.6,2.3-10.5,3.6-13.8c0.8-1.9,2.8-5.3,3.8-6.9
		c2.9-4.4,8.8-13.2,12.4-16.6c1.5-1.4,6.5-4.6,6.5-4.6l-1.9,10c0,0,4.4-7.5,6.2-9.6c1-1.3,3.4-3.5,4.6-4.4c1.8-1.2,7.8-3.4,7.8-3.4
		s-3.9,4.3-4.5,6.3c-0.3,1.1,0,4.6,0,4.6s3.1-4.5,4.5-5.2c2.9-1.4,12.2,0,12.2,0l-4.4,5.2l14.6,5.2l-5.6,2.2c0,0,9.2,5.5,11.5,8.7
		c1.4,2.1,2.8,7.7,3.5,10.3c0.7,2.5,2,7.7,2.2,10.3c0.6,6.8-1.1,27.3-1.1,27.3l-2.1,4.3l-1-8l-4.7-10.3l-0.6-5.3l-2.3-8.1L841,326
		l-5.5-3l5.5,8.5c0,0-4.6,1.7-6.1,1.1c-0.9-0.3-2.8-2.9-2.8-2.9l-4.7-4.8c0,0-0.2,5.4,0.1,7.1c0.3,1.6,2,6,2,6s-5.4-3.6-7-5.2
		c-1.1-1.1-2.9-4-3.9-5.2c-0.5-0.6-1.6-1.8-2.2-2.2c-1.8-1.2-4.1-0.6-5.5-0.3c-4.2,0.9-13.3,0.2-16.9,3.2c-2.2,1.8-4.7,8.3-5.8,11.4
		c-0.7,2.1-1.3,6.6-1.9,8.7c-0.8,2.4-3.8,9.2-3.8,9.2L782,364.3"/>
	<path class="st41" d="M824.9,358.5c0,0,2.6,5,3.8,5.8c1.2,0.7,4.4,2.1,5.6,2c1.3-0.1,3.4-1.7,4.5-2.6c0.7-0.6,1.7-2.8,2.2-3.7
		c0.5-0.9,1.8-3.7,1.8-3.7s-3-1.7-4.3-2.3c-1-0.5-3.7-1-4.7-0.9c-1.5,0.1-5-0.3-6.3,0.9C826.7,354.7,824.9,358.5,824.9,358.5z"/>
	<ellipse cx="833.6" cy="359.1" rx="3.2" ry="5.1"/>
	<ellipse class="st3" cx="835.1" cy="357.4" rx="0.8" ry="1.3"/>
	<path class="st41" d="M809.1,358.5c0,0-2.6,5-3.8,5.8c-1.2,0.7-4.4,2.1-5.6,2c-1.3-0.1-3.4-1.7-4.5-2.6c-0.7-0.6-1.7-2.8-2.2-3.7
		c-0.5-0.9-1.8-3.7-1.8-3.7s3-1.7,4.3-2.3c1-0.5,3.7-1,4.7-0.9c1.5,0.1,5-0.3,6.3,0.9C807.3,354.7,809.1,358.5,809.1,358.5z"/>
	<ellipse cx="800.4" cy="359.1" rx="3.2" ry="5.1"/>
	<ellipse class="st3" cx="801.5" cy="357.4" rx="0.8" ry="1.3"/>
	<path d="M792.8,349.6c1-0.4,3.1-1.1,4.1-1.2c1.6-0.2,4.9-0.1,6.5,0c0.8,0.1,2.5,0.3,3.4,0.5c1,0.3,3.9,1.8,3.9,1.8l-0.3-4.3
		c0,0-2.8-2.1-3.8-2.5c-1-0.3-3.2-0.3-4.2-0.3c-1,0-3,0.2-4,0.5c-1.7,0.4-6.6,2.5-6.6,2.5l-2.1,4.7
		C789.6,351.3,791.9,349.9,792.8,349.6z"/>
	<polygon points="824.7,350.7 828.9,348.2 834.3,347.4 836.9,347.4 839.7,348.4 843.1,350.6 845.4,351.6 843.6,347.4 839.9,344.3 
		836.9,343.2 833.9,343.2 828.5,344 825.3,346.4 	"/>
	<path class="st19" d="M808.4,402.3l0.5,1.5l12.7-4.1c0,0,6.7-1.5,8.5-3.1c0.5-0.4,1.6-1.6,1.5-2.4c-0.1-0.6-1.5-1.5-1.5-1.5"/>
	<path class="st24" d="M783.7,380.6c0,0-4.7-2.3-5.6-3.5c-1.3-1.8-2.4-6.3-2.8-8.5c-0.3-1.5-0.9-4.7-0.5-6.3
		c0.3-1.4,1.9-4.3,3.1-5.1c0.4-0.2,1.3-0.4,1.6-0.2c1.5,0.8,2.7,6.3,2.7,6.3l0,7.9L783.7,380.6z"/>
	<path class="st19" d="M782.4,376.9c0,0-2.9-4.4-3.5-6c-0.6-1.5-1.6-4.6-1.3-6.2c0.2-0.9,1-3.2,1.9-3.1c0.7,0.1,0.8,2.8,0.8,2.8"/>
	<path class="st15" d="M805.7,420.9c0,0,6.5-1.8,8.5-2.9c0.6-0.3,1.6-1.1,2.1-1.6c0.7-0.7,2.8-3,2.8-3s1.6,2.8,2.4,3.5
		c1.1,1,4.9,2.7,4.9,2.7l5,1.3l-6.7,2.8l-6.3,1.5l-5.4-0.9L805.7,420.9z"/>
	<path class="st15" d="M829.5,393.8"/>
	<path class="st15" d="M830.9,391"/>
	<path class="st15" d="M832.5,395.8"/>
	<path class="st15" d="M833.6,391.8"/>
	<path class="st15" d="M835.9,393"/>
	<path class="st24" d="M851,378.6c0,0,4.5-4.7,5.7-6.6c1.2-1.9,2.5-6.4,2.8-8.6c0.3-2.5,0.3-7.8-0.6-10.1c-0.2-0.6-1.1-2-1.7-1.9
		c-1.8,0.1-4.5,6.1-4.5,6.1l-0.2,6.7L851,378.6z"/>
	<path class="st19" d="M851.9,373.7c0,0,2.4-3.4,3.1-4.8c0.6-1.3,1.3-4.2,1.4-5.6c0.1-1.3,0.9-5-0.3-5.2c-1-0.1-1.5,3.9-1.5,3.9"/>
	<path class="st19" d="M816.3,368.4c0,0-1,9.1-0.9,12.2c0.1,1.4,0.9,5.4,0.9,5.4"/>
	<path class="st42" d="M794,328.4l-4.4-15.8l-2.5-7.5c0,0-6.6,10.9-7.8,15.6c-1.2,4.5-1.8,15.7-1.7,20.4c0.1,4,2.1,15.9,2.1,15.9
		l2.3,8.9l0.5-8.2l3.8-9.2l1.9-8.7L794,328.4z"/>
	<path class="st42" d="M843.9,329.6l0.5-14.7l1-12.4c0,0,2.8,1.9,4.3,4.1c1.2,1.8,2.3,6.3,2.9,8.5c0.8,3.1,2.1,9.4,2.3,12.6
		c0.3,3.2-0.3,12.8-0.3,12.8l-0.9,13.4l-2,5l-1.4-9.3l-4.4-9.6l-1-6.3L843.9,329.6z"/>
	<path class="st43" d="M805.1,372.1h-9.5c-3.9,0-7.2-3.2-7.2-7.2v-6.7c0-3.9,3.2-7.2,7.2-7.2h9.5c3.9,0,7.2,3.2,7.2,7.2v6.7
		C812.3,368.9,809.1,372.1,805.1,372.1z"/>
	<path class="st43" d="M839,372.1h-9.5c-3.9,0-7.2-3.2-7.2-7.2v-6.7c0-3.9,3.2-7.2,7.2-7.2h9.5c3.9,0,7.2,3.2,7.2,7.2v6.7
		C846.2,368.9,842.9,372.1,839,372.1z"/>
	<polygon class="st43" points="788.5,360.6 777.6,351 778,357.2 789,366 	"/>
	<polygon class="st43" points="812.3,360.6 822.3,360.6 822.5,364.8 812.3,364.8 	"/>
	<polygon class="st43" points="845.4,357 854.3,347.4 853.8,354.1 846.2,362.6 	"/>
	<polygon class="st44" points="796.5,371.6 798.9,361.6 796.3,362.7 800.1,351.3 805.4,351 800.4,358.7 802.7,358.5 798.9,371.4 	
		"/>
	<polygon class="st44" points="832.5,371.8 834.9,361.8 832.3,362.9 836.1,351.5 841.4,351.3 836.4,359 838.7,358.8 834.9,371.7 	
		"/>
	<polyline class="st40" points="792.4,454.4 771.1,425.2 755.4,446.4 785.7,475 	"/>
	<path class="st24" d="M747.4,386H759c0,0,3.9-0.8,5,0c1,0.7,2.9,3.6,2.6,5c-0.5,1.9-4.7,1.3-5.7,2.8c-0.9,1.5-0.8,7.5-0.8,7.5
		l1.9,18.1c1.2,3.2,6.5,9.2,6.5,9.2l-9.4,12.7c0,0-7.9-5.4-10-9.8c-3-6.3-4.9-30.2-4.9-30.2l-0.8-15.3"/>
	<rect x="755.8" y="325.3" class="st45" width="17" height="79.5"/>
	<polygon class="st46" points="755.8,404.8 729,368.6 728.7,337.3 755.8,325.3 	"/>
	<ellipse class="st47" cx="735.4" cy="356.4" rx="3" ry="13.6"/>
	<ellipse class="st47" cx="747.8" cy="358.8" rx="4.2" ry="20.2"/>
	<polygon class="st48" points="735.3,333.6 735.2,321.5 754.4,314.6 753.4,325.8 750.1,326.6 750,319.4 738.5,323.6 738.7,332.2 	
		"/>
	<polygon class="st49" points="760,337.9 760,345.2 768.6,341.6 	"/>
	<rect x="759.2" y="356.7" class="st50" width="10.2" height="7.5"/>
	<line class="st25" x1="726.1" y1="347.4" x2="717.2" y2="337.9"/>
	<line class="st25" x1="724.6" y1="351.6" x2="717.2" y2="348.9"/>
	<line class="st25" x1="724.1" y1="357" x2="716.7" y2="357.4"/>
	<path class="st40" d="M848,487.6l8.3,20.7h18.9c0,0-6.9-32.6-11.7-39.8c-3-4.6-14.8-14.2-14.8-14.2"/>
	<rect x="859.6" y="508.4" class="st24" width="13.5" height="15.9"/>
</g>
<g id="Carro">
	<path class="st51" d="M1188.1,815.5c-5.7,0.6-17.5,3.1-22,7.9c-5.5,5.7-13.8,32.9-13.8,32.9s-1.2,27.1-1.3,37.1
		c-0.1,11.4,0.4,34.2,0.4,46.1c0,11.3,4,31.9,8.7,41.2c5.4,10.6,22.9,16,32.1,15.3c10.5-0.8,27.1-11.4,31.3-24.6
		c3.1-9.8,4.5-41.2,4.5-41.2s1.2-32.7,0-44.5c-1-9.3-4.1-52.9-4.1-52.9s-11.8-11.8-15.3-14.4C1204.1,814.9,1193.3,815,1188.1,815.5z
		"/>
	<path class="st52" d="M1165.9,873.6c-0.6-0.1-1.8,0-2.3,1.4c-0.6,1.7-1.8,10.8-1.8,10.8s-0.5,9.5-0.6,13c-0.2,4-0.4,12.1-0.5,16.4
		c-0.1,4,0,11.5,0.4,15.1c0.4,4.1,2.1,7.1,3,7.5c1.1,0.4,2.9-2.3,3.5-6.7c0.4-3.3,1-14.3,1-14.3s0.5-11.5,0.6-15.8
		c0-3.4,0.3-19,0.3-19s-1-4.9-1.4-6.1C1167.6,874.4,1166.5,873.7,1165.9,873.6z"/>
	<path class="st52" d="M1216.3,923.6c-0.6-0.1-1.8,0-2.3,1.1c-0.6,1.3-1.8,8.5-1.8,8.5s-0.5,7.5-0.6,10.3c-0.2,3.2-0.4,9.6-0.5,12.9
		c-0.1,3.2,0,9.1,0.4,12c0.4,3.2,2.1,5.6,3,5.9c1.1,0.3,2.9-1.8,3.4-5.3c0.4-2.6,1-11.3,1-11.3s0.5-9.1,0.5-12.4
		c0-2.7,0.2-15,0.2-15s-1-3.9-1.4-4.8C1217.9,924.2,1216.8,923.7,1216.3,923.6z"/>
	<path class="st51" d="M708.7,815.5c-5.7,0.6-17.5,3.1-22,7.9c-5.5,5.7-13.8,32.9-13.8,32.9s-1.2,27.1-1.3,37.1
		c-0.1,11.4,0.4,34.2,0.4,46.1c0,11.3,4,31.9,8.7,41.2c5.4,10.6,22.9,16,32.1,15.3c10.5-0.8,27.1-11.4,31.3-24.6
		c3.1-9.8,4.5-41.2,4.5-41.2s1.2-32.7,0-44.5c-1-9.3-4.1-52.9-4.1-52.9s-11.8-11.8-15.3-14.4C724.7,814.9,713.8,815,708.7,815.5z"/>
	<path class="st7" d="M636.5,682.1c-0.9,8.5-0.3,20.4,0,33.7c0.3,11.1,3.4,44.3,3.4,44.3l9.6,47.6c0,0,18.1,38.5,22.6,41.9
		c7.4,5.4,27.2-17.9,35.7-16.8c6.9,0.8,30.2,21.3,30.2,21.3l32.9,3.8l50.8,0l27.8-14h209.8l23.1,14h75.2c0,0,19.6-20.7,32.2-19.7
		c8.2,0.6,24.8,20.6,33,19.7c5.5-0.6,12.1-8.5,15.8-14c3.3-4.9,6.4-14.5,9.5-20.8c5-10.2,6.5-25.3,8.2-37.2
		c1.7-11.5,2.6-45,2.1-56.7c-1-21.5,1.8-56.5-7.5-74.4c-5.4-10.4-11.9-22.6-21.3-25.7c-9-3-33.6-5.4-33.6-5.4s-10.5-57.2-19.5-70.7
		c-5.6-8.5-22.2-11.7-30.6-14.3c-37.8-11.5-155.7-5.6-155.7-5.6H831.1c0,0-63.1-5.3-82.4,3.9c-8.4,4-22.1,16.5-27.2,26
		c-7.1,13.3-16.6,60.8-16.6,60.8s-15.8,2.3-21,1.8c-6.3-0.6-18,2.7-23.3,7.1c-5,4.1-14.2,12.4-16.5,19.5
		C641.3,661.1,637.9,669.9,636.5,682.1z"/>
	<polygon class="st53" points="710.4,672.1 688.5,672.1 689,740.8 692.7,777.4 813.5,767.4 1086,767.4 1201.2,782.4 1204.9,742.4 
		1204.3,692 1201.2,668.2 1180.9,668.2 743.8,672.1 725,663.1 710.4,672.1 	"/>
	<path class="st53" d="M704.9,623.6c0,0-8.9,20.9-10.8,28.4c-2.6,10.3-4.8,31.9-5.5,42.6c-0.7,10.4-0.6,31.2,0,41.6
		c1,16.8,4.3,50.4,8.1,66.5c1.9,8,11.1,30.1,11.1,30.1l-17.8,15.1c0,0-14.1,11.6-18,10c-4.3-1.8-13-22.1-15.6-26.8
		c-3.1-5.7-4.7-16.8-6.9-23.3c-2.4-7.3-4.6-23-6.2-30.6c-0.9-4.3-2.8-12.7-3.4-17c-1.4-9.9-2.9-29.8-3.2-39.8
		c-0.4-10.9-1-32.9,0.5-43.6c0.9-6.4,4-19.2,6.8-24.6c3.1-6,11.6-15.9,16.5-19.5c3.4-2.6,11.3-5.5,15.2-6.4
		c2.7-0.6,8.2-0.5,10.9-0.7C691.2,625,704.9,623.6,704.9,623.6z"/>
	<path class="st53" d="M1189.9,838.1c0,0,6-24.6,7.5-33c2.2-12,6-36.2,6.9-48.5c1.1-16.1,0.8-48.5,0-64.6
		c-0.5-10.5-2.7-31.4-4.1-41.7c-0.8-5.8-4.1-23.1-4.1-23.1s21.4-0.9,28.2,1.5c4.7,1.6,13.2,7.9,17,11.8c2.9,2.9,7.8,10,9.6,14.2
		c1.5,3.4,2.8,11.2,3.4,15.1c1.6,9.2,3.7,27.8,4.3,37.2c0.6,11.7,0.3,35.2-0.2,47c-0.3,6.9-0.8,20.6-1.5,27.4
		c-0.8,7.4-2.7,22.2-4.6,29.3c-2.2,8.1-8.2,23.6-12.1,30.6c-3.1,5.7-11.9,16-17.4,16.6c-4.8,0.5-20.4-10.8-20.4-10.8L1189.9,838.1z"
		/>
	<path class="st52" d="M686.5,873.6c-0.6-0.1-1.8,0-2.3,1.4c-0.6,1.7-1.8,10.8-1.8,10.8s-0.5,9.5-0.6,13c-0.2,4-0.4,12.1-0.5,16.4
		c-0.1,4,0,11.5,0.4,15.1c0.4,4.1,2.1,7.1,3,7.5c1.1,0.4,2.9-2.3,3.5-6.7c0.4-3.3,1-14.3,1-14.3s0.5-11.5,0.6-15.8
		c0-3.4,0.3-19,0.3-19s-1-4.9-1.4-6.1C688.1,874.4,687,873.7,686.5,873.6z"/>
	<path class="st52" d="M736.8,923.6c-0.6-0.1-1.8,0-2.3,1.1c-0.6,1.3-1.8,8.5-1.8,8.5s-0.5,7.5-0.6,10.3c-0.2,3.2-0.4,9.6-0.5,12.9
		c-0.1,3.2,0,9.1,0.4,12c0.4,3.2,2.1,5.6,3,5.9c1.1,0.3,2.9-1.8,3.4-5.3c0.4-2.6,1-11.3,1-11.3s0.5-9.1,0.5-12.4
		c0-2.7,0.2-15,0.2-15s-1-3.9-1.4-4.8C738.4,924.2,737.3,923.7,736.8,923.6z"/>
	<polygon class="st53" points="692.7,777.4 813.5,767.4 845.4,767.4 1057.2,767.4 1086,767.4 1201.2,782.4 1189.9,838.1 
		1182.7,844.5 1171.9,851.1 1157.7,857.8 1082.5,857.8 1057.2,843.8 849.6,843.8 821.8,857.8 771,857.8 738.1,854 707.9,832.8 
		696.8,802.6 	"/>
	<path class="st54" d="M1043.5,834.5H860.3c-6.6,0-12-5.4-12-12v-33.2c0-6.6,5.4-12,12-12h183.2c6.6,0,12,5.4,12,12v33.2
		C1055.5,829.1,1050.1,834.5,1043.5,834.5z"/>
	<ellipse class="st54" cx="735.4" cy="809.4" rx="10.4" ry="13.5"/>
	<ellipse class="st54" cx="1165" cy="812.6" rx="10.4" ry="13.5"/>
	<path class="st5" d="M675.7,714.2h-26.9c-3,0-5.5-2.5-5.5-5.5v-3.6c0-3,2.5-5.5,5.5-5.5h26.9c3,0,5.5,2.5,5.5,5.5v3.6
		C681.2,711.8,678.7,714.2,675.7,714.2z"/>
	<path class="st5" d="M1246,714.2h-26.9c-3,0-5.5-2.5-5.5-5.5v-3.6c0-3,2.5-5.5,5.5-5.5h26.9c3,0,5.5,2.5,5.5,5.5v3.6
		C1251.5,711.8,1249,714.2,1246,714.2z"/>
	<path class="st2" d="M768.6,533.2L725,633.8l-14.6,38.3c0,0,10.6-8.3,14.6-9c1.8-0.3,7.1,1.8,7.1,1.8l11.6,7.2h52.7l358.1-3
		c0,0,7.6-5.6,10.4-5.9c4.1-0.5,15.9,5.1,15.9,5.1l-18.2-66.5l-23.5-64.6c0,0-9.9-2.2-15.6-2.7c-32.2-3.4-129.1-3-129.1-3H923
		l-92,1.5l-31.5-1l-18.1-0.3L768.6,533.2z"/>
	<path class="st2" d="M1180.9,668.2l-20.2-75.6l-21.5-55.5l11.4,2.7l14.4,4.7l11.6,8.3l8.7,23.1l10.8,47.6c0,0,4,33.4,5.1,44.6
		c1.1,11.5,3.3,34.5,3.8,46c0.3,8.6,0.4,25.9-0.1,34.6c-0.5,8.5-3.7,33.6-3.7,33.6l-20.3-2.6V668.2"/>
	<ellipse class="st54" cx="1169.3" cy="687.4" rx="18.8" ry="24.3"/>
	<path class="st2" d="M768.6,533.2l-13.9,1.6l-10.8,4.9c0,0-18,15.8-22.3,23.2c-3.5,6-9,27.5-9,27.5l-7.6,33.3
		c0,0-8.2,21.5-9.2,24.9c-4.7,15.1-6.3,35-7.3,51.2c-1.2,19.4,4.3,77.8,4.3,77.8l17.7-1.5V672.1L768.6,533.2z"/>
	<ellipse class="st54" cx="725" cy="687.4" rx="18.8" ry="24.3"/>
	<rect x="887.5" y="789.9" class="st55" width="188.6" height="39"/>
	<text transform="matrix(0.7738 0 0 1 887.5322 817.3145)" class="st56 st57">PIAW-2021</text>
	<path class="st21" d="M1169.3,508l-14.8-45.6c0,0-5.4-16.3-10.6-20.4c-3.4-2.7-13.5-5.7-18.5-6.8c-11.8-2.6-37-3.9-49.4-4.6
		c-20.2-1.3-60.7-2.4-80.9-2.8c-21.4-0.4-64.3-0.3-85.7,0c-19.6,0.3-58.7,1.5-78.2,2.5c-16.8,0.8-50.9,1.7-67.2,4.6
		c-4.8,0.9-15,3-18.3,5.6c-6.1,4.7-8.4,18-10.4,24.2C731.9,475.2,725,508,725,508l-3.5,54.9c0,0,19.2-27,27.2-28.3
		c19.4-3.1,82.4-1.4,82.4-1.4l92-0.5l99.6,0h61l55.5,0.6l37.5,19.6L1169.3,508z M1146.9,516.3c-0.4,6.4-33.8,8-33.8,8h-67.9h-83.7
		H813.5c0,0-27.4,1.2-59-2.8c-14.3-1.8-0.7-38.3-0.7-38.3s3.8-26.7,14.7-33c9.8-5.7,51.1-5.6,51.1-5.6l67.9-1.9l70.5-1.9h72.9
		l52.8,1.9c0,0,39.4-1.3,44.1,5C1145.1,471.1,1148.3,495.2,1146.9,516.3z"/>
	<path class="st58" d="M761.9,534.3c-13.9-2-0.7-42.4-0.7-42.4s3.7-29.5,14.3-36.5c9.5-6.3,49.5-6.2,49.5-6.2l65.8-2.1L959,445h70.6
		l51.1,2.1c0,0,38.2-1.4,42.7,5.5c16.8,26,19.9,52.7,18.6,76.1c-0.4,7.1-32.7,8.8-32.7,8.8h-65.8h-81H819
		C819,537.4,792.4,538.8,761.9,534.3z"/>
	<path class="st21" d="M721.5,562.8c0,0-11.7-24.3-18.4-25.7c-5-1-12.7,11.2-17.6,12.8c-3.3,1.1-10.8,2-13.9,0
		c-3.6-2.4-9-11.7-9.5-16.8c-0.4-4.3,2.7-13.1,5.2-16c4.9-5.6,18.8-9.4,25.3-8.8c4.1,0.4,15.2,8.8,15.2,8.8l14.7,19.9L721.5,562.8z"
		/>
	<path class="st21" d="M1177.9,555.1c0,0,10.8-24.3,17-25.7c4.6-1,11.7,11.2,16.2,12.8c3.1,1.1,9.9,2,12.8,0
		c3.3-2.4,8.3-11.7,8.7-16.8c0.4-4.3-2.5-13.1-4.8-16c-4.5-5.6-17.3-9.4-23.3-8.8c-3.8,0.4-13.9,8.8-13.9,8.8l-18.3,21L1177.9,555.1
		z"/>
</g>
</svg>
