<svg id="Layer_1" data-name="Layer 1" xmlns="http://www.w3.org/2000/svg" viewBox="0 0 336.16 126.91">
<defs>
<style>
.cls-1{fill:#ffdf0f;}
.cls-1,.cls-2{stroke:#000;stroke-miterlimit:10;stroke-width:5px;}
.cls-2{fill:#bfa70b;}
</style>
</defs>
<title>coroa</title>
<path class="cls-1" d="M609.7,347.5l39.7,23.7,60.2-28.4,44.2,22.6,58.9-26.8,58.9,33.7,68.5-30.5s-2.5,75.8-17.8,98.4c-2.2,3.2-10.2,7.2-14.3,8.7-11.3,4.1-36.1,6.4-48.3,7.8-10.1,1.1-30.4,2.2-40.5,2.7s-30.2.8-40.2.8c-11.2,0-33.7-.4-44.9-1-11.6-.6-34.8-2.2-46.3-3.6-7.6-.9-22.9-2.5-30.1-4.8-6-1.9-18.5-6.3-22.1-10.7C619,420.5,609.7,347.5,609.7,347.5Z" transform="translate(-606.57 -335.79)"/>
<ellipse class="cls-2" cx="172.13" cy="104.31" rx="143.4" ry="20"/>
</svg>