<svg id="Layer_1" data-name="Layer 1" xmlns="http://www.w3.org/2000/svg" viewBox="0 0 478.44 119.46"><defs><style>.cls-1{fill:#9d7654;}.cls-2{fill:#c69c6d;}.cls-3{fill:#846248;}.cls-3,.cls-4{stroke:#000;}.cls-3,.cls-4,.cls-5{stroke-miterlimit:10;stroke-width:3px;}.cls-4,.cls-5{fill:none;}.cls-5{stroke:#73543b;}</style></defs><title>placa2</title><polygon class="cls-1" points="478.44 0.07 425.39 59.73 477.51 119.46 433.65 119.46 61.52 119.46 0 57.94 57.94 0 433.65 0 478.44 0.07"/><polygon class="cls-2" points="285.04 0 58.01 0.07 0 57.94 58.93 119.46 285.04 119.46 285.04 0"/><path class="cls-3" d="M786.62,298.72" transform="translate(-361.23 -238.99)"/><path class="cls-3" d="M361.23,296.93" transform="translate(-361.23 -238.99)"/><path class="cls-4" d="M361.23,296.93" transform="translate(-361.23 -238.99)"/><path class="cls-4" d="M786.62,298.72" transform="translate(-361.23 -238.99)"/><path class="cls-5" d="M624.29,260.15c70.52,0,127.53,4.17,127.53,9.26" transform="translate(-361.23 -238.99)"/><path class="cls-5" d="M397.21,282.64c78.52,0,142-.59,142-1.32" transform="translate(-361.23 -238.99)"/><path class="cls-5" d="M667.75,338.87c58.74,0,106.23-8.6,106.23-19.19" transform="translate(-361.23 -238.99)"/><path class="cls-5" d="M521.3,312.41c61.59,0,111.39,6.81,111.39,15.28" transform="translate(-361.23 -238.99)"/><path class="cls-5" d="M427.31,338.87c53.64,0,97.1-1.19,97.1-2.65" transform="translate(-361.23 -238.99)"/></svg>