<svg id="Layer_1" data-name="Layer 1" xmlns="http://www.w3.org/2000/svg" viewBox="0 0 478.44 119.81"><defs><style>.cls-1{fill:#9d7654;}.cls-2{fill:#c69c6d;}.cls-3{fill:#846248;}.cls-3,.cls-4{stroke:#000;}.cls-3,.cls-4,.cls-5{stroke-miterlimit:10;stroke-width:3px;}.cls-4,.cls-5{fill:none;}.cls-5{stroke:#73543b;}</style></defs><title>Untitled-3</title><polygon class="cls-1" points="44.78 0.35 420.49 0.35 478.44 58.3 416.92 119.81 44.78 119.81 0.93 119.81 53.05 60.08 0 0.42 44.78 0.35"/><polygon class="cls-2" points="198.11 0 0 0.42 53.05 60.08 0.93 119.81 198.11 119.46 198.11 0"/><path class="cls-3" d="M501.89,449.26" transform="translate(-448.84 -389.18)"/><path class="cls-3" d="M927.28,447.48" transform="translate(-448.84 -389.18)"/><path class="cls-4" d="M927.28,447.48" transform="translate(-448.84 -389.18)"/><path class="cls-4" d="M501.89,449.26" transform="translate(-448.84 -389.18)"/><path class="cls-5" d="M536.68,420c0-5.09,57-9.26,127.53-9.26" transform="translate(-448.84 -389.18)"/><path class="cls-5" d="M749.28,431.87c0,.72,63.5,1.32,142,1.32" transform="translate(-448.84 -389.18)"/><path class="cls-5" d="M514.52,470.23c0,10.58,47.5,19.18,106.23,19.18" transform="translate(-448.84 -389.18)"/><path class="cls-5" d="M655.81,478.23c0-8.46,49.81-15.27,111.39-15.27" transform="translate(-448.84 -389.18)"/><path class="cls-5" d="M764.09,486.77c0,1.45,43.46,2.64,97.11,2.64" transform="translate(-448.84 -389.18)"/></svg>