<?xml version="1.0" encoding="utf-8"?>
<!-- Generator: Adobe Illustrator 22.0.0, SVG Export Plug-In . SVG Version: 6.00 Build 0)  -->
<svg version="1.1" id="Layer_1" xmlns="http://www.w3.org/2000/svg" xmlns:xlink="http://www.w3.org/1999/xlink" x="0px" y="0px"
	 viewBox="0 0 1920 1080" style="enable-background:new 0 0 1920 1080;" xml:space="preserve">
<style type="text/css">
	.st0{fill:#C9A679;}
	.st1{fill:#764F34;}
	.st2{fill:#906E50;}
	.st3{fill:#513525;}
	.st4{fill:#A9835E;}
	.st5{fill:#BABABA;}
	.st6{fill:#B3B3B3;}
	.st7{fill:#B2B2B2;}
	.st8{fill:#ADADAD;}
	.st9{fill:#C4C4C4;}
	.st10{fill:#AFAFAF;}
	.st11{fill:#B6B6B6;}
	.st12{fill:#888888;}
	.st13{fill:#929292;}
	.st14{fill:#A3A3A3;}
	.st15{fill:#727272;}
	.st16{fill:#949494;}
	.st17{fill:#9B9B9B;}
	.st18{fill:#7F7F7F;}
	.st19{fill:#8F8F8F;}
	.st20{fill:#C3C3C3;}
	.st21{fill:#BCBCBC;}
	.st22{fill:#B8B8B8;}
	.st23{fill:#AAAAAA;}
	.st24{fill:#B7B7B7;}
	.st25{fill:#A7A7A7;}
</style>
<g>
	<path class="st0" d="M1031.8,475.9c0.5,21,1.3,42.1,1.3,63.1c0,55.2-0.3,110.4-0.6,165.6c0,3-0.5,6-0.8,8.9
		c-5.7,1.1-1.8,8.4-4.1,8.7c-7.9,0.8-3.9,6.6-3.1,8.5c1.3,3.2,5.2-0.3,7.9,0.5c-0.1,34-0.2,67.9-0.3,101.9c-8.8-4.3,0.3-14.3-6-19.6
		c0,14.1,0,28.1,0,42c-3.7-1.4-7.4-4.7-7.1,3.6c0.4,16.7-2.4,32.7-13.8,46c0-2.2,0.1-4.4,0.1-6.7c3.9-12.1,1.9-24.3,0.1-36.4
		c0-2.9,0-5.8,0-8.7c5.9-5,4.7-11.8,4.9-18.3c0.2-9-3.5-17.5-1.9-29.1c-4.5,6.9,1.4,16.2-9.3,15.7c0-8.2-0.1-16.5-0.1-24.7
		c0.6-6-0.7-12,1.1-17.9c4.8-15.8,7.6-31.8,2.1-48.1c-1.2-3.5-1.3-7.1-0.3-10.7c3-0.3,0.2,4.7,3.9,3.8c0-6,0.1-12-0.1-18
		c0-1.3,1.3-4.6-2-3.6c-6.9,2.2-5.9-4.5-5.8-6.3c0.5-20.2,1.9-40.3-5.3-59.8c-0.7-1.8,0.1-4.8,1.3-6.3c3.1-4,2.7-8.4,2.9-12.9
		c0.5-12.8-3.8-25.3-2.2-38.3c2-17.1-4.1-34.5,3.4-51.9c4.1-9.6,7.2-21.4,0-31.7c-4.2-6-3.2-12.1-3-18.8c2.8,0.9,0.7,4.3,4.3,4.4
		c-5.2-30.2,11.7-59.8,0.5-90.1c-1.3,0.9,0.2,4.3-3.7,5.2c-3.7-21.6-5.9-43.3,0-64.4c1.7-5.9,0.7-10.8,0.6-16
		c-0.4-25.5,3.8-50.7,5.1-76.1c0.9-16.8-4.8-32.8-2.7-49.4c0.4-2.9,1.3-6.4-2.5-11c0,7.7,0,13.6,0,22.6c-2.9-7.6-3-12-2-16.4
		c0-2.2,0-4.4-0.1-6.7c2.3-10.8,5.4-21.6,1.7-32.6c-1.7-5.2-1.1-10.4-1.5-15.5c-0.9-9.9,4.8-11.5,12.6-10.4c2.6,0.3,5,1.3,7.5,2
		c4,5.6,9.3,6.3,15.4,4.3c0.9,4.7,0.8,9.3-0.2,14c-5.7,6.8-5.6,25,0.3,31.3c-0.5,20.5,1.1,41,1.5,61.5c0.4,23.2,0.2,46.4,0.7,69.6
		c-1-0.1-2.1-0.2-3.1-0.4c-0.2,11.3-4.2,22.9,2.2,33.9c2.1,20.6,1,41.2,1,61.8c0,24.7,2,49.5-0.6,74.2c-6.8-2.9-1.6-9.7-5.3-14.9
		c-0.3,8.9-6.2,16.2-3.1,26C1026.6,479.8,1028,476.2,1031.8,475.9z M1023.2,194.5c-4.6,10.4-4.2,19.4-3.9,28.3
		c0.1,2.5,0.1,6,3.8,5.5c3.2-0.5,4-4.7,2.8-6.3C1020,213.8,1025,204.9,1023.2,194.5z M1017.5,701.9c0.3,0,0.6,0,1,0
		c0-7.3,0-14.6,0-21.9c-0.3,0-0.6,0-1,0C1017.5,687.2,1017.5,694.5,1017.5,701.9z M1027.7,688.4c-0.3,0-0.6,0-0.9,0
		c0,5.8,0,11.6,0,17.4c0.3,0,0.6,0,0.9,0C1027.7,700,1027.7,694.2,1027.7,688.4z M1021.7,722.5c-0.3-5.9-0.4-8.8-0.7-14.3
		C1017.2,714.4,1018.6,717.2,1021.7,722.5z M1020.6,234.2c-2,1.1-1.3,2.8-1.1,4.4c0,0.2,1.3,0.5,1.4,0.4
		C1021.7,237.3,1021.9,235.7,1020.6,234.2z M1014.1,851.7c-0.3,0.6-0.9,1.4-0.7,1.9c0.2,0.4,1.2,0.6,1.8,0.9
		c0.3-0.6,0.9-1.4,0.7-1.9C1015.7,852.2,1014.7,852,1014.1,851.7z"/>
	<path class="st1" d="M915.9,446.7c-0.1-9.7-0.1-19.4-0.2-29.2c4.7,4.5-1.2,13.6,9.9,17.7c-5.1-9.1-0.1-19.2-9.7-24.8
		c0-66.2-0.1-132.4-0.1-198.6c6.7-1.8,2.9-7.5,4.1-11.3c4.7-14.7,0.9-29.8,2-44.7c2-1.2,2.6-3.2,3.1-5.3c3.1-0.1,3.1,3.9,6.2,5
		c0-3.5,0-6.3,0-9.2c0.3-0.2,0.8-0.5,0.8-0.6c-0.2-0.5-0.6-1-0.9-1.5c0-1.5-0.1-3-0.1-4.5c4.2-3.9,2.1-8.9,2.2-13.4
		c0.1-5.1,1.8-7.6,7.1-6.8c2.2,3.7,2,7.9,2,12c0,22.5,0,45,0.1,67.5c0,4-1.2,8.7,2.7,11.5c5,3.7,3.6,7.9,2.9,13
		c-2.1,15.7-5.8,31.5,0.8,47.1c0.1,2.2,0.3,4.5,0.4,6.7c-0.8,17.9,1.3,36.1-3.4,54.3c-2.8-3.8,1.7-10.4-5.5-11.2
		c-0.1-6.1-0.2-12.1-0.2-18.2c5.4-13.6,0-26.6-2.2-39.9c0-0.3-1.4-0.4-2.1-0.6c-0.9-3.2,1.3-7.6-4.5-10.2
		c-1.1,17.6,2.2,34.1,4.1,50.7c-2.2,0.7-4.3,1.5-6.5,2.2c-0.9,0-1.9,0-2.8,0c-3.4-1.8-0.4-6.6-4-9c0,11.2-0.1,21.6,0.1,32
		c0,2.1-1.5,7.3,4.3,4.1c6.4-0.1-1-9.9,6.5-9.3c1.5,16.5,3.8,33,4.2,49.6c0.4,21.5,7.8,42.1,7.5,63.6c0,1.5-0.1,3-0.1,4.5
		c0.6,1.4,1.2,2.9,1.7,4.3c0.3,11.4,0.6,22.7,0.9,34.1c-4.9-5.5-3.3-13.3-7.5-19.7c0.5,4.5-7.5,4.9-3.8,11
		c5.7,9.4,7.5,19.8,6.6,30.8c-0.3,3.2-1,6.9,2.1,9.5c-0.7,18.1,0.8,36.1,4.2,53.9c-6.7-0.1-6.5,4.4-6.5,9.2c0.1,15,0,30.1,0,47.3
		c-4.4-7,0.1-13.4-4.6-17.9c-1.5-5.2,3.7-12.3-4.4-15.7c-0.1-6.7,0-13.5-0.3-20.2c-0.1-2.2,1.2-6.2-3.1-5.6c-3,0.4-6.5,4-4.6,6.3
		c5.6,6.5,0.9,12.8,1.2,19.2c0.4,7.7-1.9,15.8,3.1,24.2c1.5-3.5,2.3-7,5.8-8.2c0.8,0,1.5,0,2.3,0c0,23.3,0,46.7,0,70
		c-1.7,0.3-3.3,0.6-5,1c0.4,0.8,0.7,2.2,1.4,2.4c3.3,1.3,3.2-1.4,3.7-3.4c6.2-1.1,4.4-6.1,4.5-9.9c0.2-10.9,0.1-21.8,0.1-32.6
		c0.7,0,1.4,0,2.1,0c0,22.5,0,45,0,67.5c-2,0.3-3.7,1-4,3.2c-2.6,25.9,2.7,51.7,1,77.6c0,0.7,0.2,3.6,2.4,2.2
		c0.8-0.5,0.5-2.7,0.7-4.1c1.5,0,3.1-0.1,4.6-0.1c3.5,3.4,2,7.7,2,11.7c0.2,21.7,0.3,43.3,0.4,65c0.7,14.7-2.7,29.9,4.9,44.1
		c-1.4-13.4,1.8-26.2,3.3-39.3c0.5,6.2,0.9,12.3,1.5,19.7c6.3-5.5,0.3-15.5,10.1-17.3c0.9,4.8,2.1,9.5,2.5,14.3
		c0.2,2.6,1.6,6.5-3,7.2c-11.5,1.7-10.7,8.7-7,17.3c1.7-1.8,2-6.3,5.3-4.5c4.5,2.5-0.3,4.8-1.5,5.7c-7.4,5.8-7.8,14.2-7.9,22.7
		c-3.1-5.9,0.9-13.1-4.8-19.5c-2.9,8.1,1.4,15.8-7.1,21.9c-3.7,2.7-0.6,14.6-0.6,22.8c3.8-2.6-0.1-7.2,4.2-9.7c0,10.1,0,19.8,0,29.4
		c-3.8,0-7.5,0-11.3,0c2-41.8-4.5-83.5-0.9-125.3c1.4,19.3-0.6,38.8,4.5,58.7c6-32.4-2.7-63.7-1.1-98.1c-3.4,5.6-0.9,10.6-7.4,12.7
		c1.8-6.8-3-15.9,2.9-17.9c11.2-3.8,6.3-6.6,1.5-10.9c-1.9-1.7-1.4-4.1-1.8-6.3c-3.1-19-2.2-38.1-2.3-57.2
		c-0.1-8.2,2.6-17.1-6.8-22.8c-2.4-1.5-2.6-5.5-2-8.4c2.9-13.2,0-26.4,0.6-39.4c1.1-24.7-6.1-48.4-5.6-72.9
		c0.1-4.4,0.2-10.7-5.6-13.6c-1.4-31.7-0.9-63.4-0.1-95c11.9,3.8,1.8,17,9.9,22.4c3.3-16.4-5.1-31.7-4.6-48.1
		C921.6,440.1,917.9,445.9,915.9,446.7z M936.3,437.7c1.6-20.8-2.1-41.2-5.3-61.5C926.6,397.3,935.2,417.1,936.3,437.7z
		 M926.2,339.8c-1.6,5.1-2.7,10.2,0.6,17.7C929.5,349.8,929.6,344.8,926.2,339.8z M922.5,218.8c1,4.8-2.4,10.2,3.2,16.4
		C926.6,228.1,927.8,222.9,922.5,218.8z M937.3,681.7c-3.9,6-5,10-1.3,16.4C938.4,692.2,938.1,688.1,937.3,681.7z M938.3,450.2
		c0.3,1.8,1,2.7,2.3,2.4c0.5-0.1,1.2-1.3,1-1.7c-0.4-0.9-1.2-1.6-1.9-2.4C939.2,449.2,938.6,449.9,938.3,450.2z"/>
	<path class="st2" d="M937.9,672.5c0-23.3,0-46.7,0-70c0,0,0,0,0,0c4.7,4.4,0.2,10.9,4.6,17.9c0-17.2,0.1-32.3,0-47.3
		c0-4.8-0.2-9.3,6.5-9.2c0,7.5,0,14.9,0,22.8c8.1-3.7,12.4-14.6,9-21.6c-2.8-5.9-3.8,2.5-5.6,1.3c-3.5-19-1.2-38.2-7.6-56.4
		c-3.1-2.6-2.4-6.2-2.1-9.5c0.9-11-0.9-21.4-6.6-30.8c-3.7-6.1,4.3-6.5,3.8-11c4.2,6.5,2.6,14.3,7.5,19.7
		c2.8,11.6,3.7,23.4,4.3,35.2c0.6,13.4,2.1,26.8,3.3,41.5c5.3-4.8,1.4-10.2,5.2-14.2c0.4,19.7,4,38.5,2.5,57.7
		c-0.1,1.9,1.8,6.4-2.1,5.5c-8.4-1.9-6.4,4-6.7,7.9c-0.4,5-0.1,10-0.1,16.7c-2-3-2.9-4.3-4.2-6.3c-1.8,18.5,3.5,35.5,1.9,52.8
		c-0.1,1.1-0.2,2.5,0.4,3.3c7.8,9.9,7.8,22.6,10.4,33.9c6.3,27.1,5.2,55.3,7.1,85.8c12.5-15.5,14-33.3,20.5-49.4
		c-3.5,3.3-7.5,1.3-11.8,3c3-15.3,2.5-30.6,10.4-44.3c-0.5,9,9.3,14.5,7.9,23c-2.6,15.7,7.4,32.5-4,47.5c-0.9,1.2-0.6,3.8-0.2,5.5
		c2.2,8.7,2.1,17.6,2.5,27.3c3.9-4.7-0.4-10.6,4.1-14.2c0,8.2,0.1,16.5,0.1,24.7c0,4.4-0.3,8.9,0,13.3c0.5,6.7-0.6,14,6.4,18.5
		c0,2.9,0,5.8,0,8.7c-5.2,1.1-4.7,5.4-4.1,8.8c1.7,9.2-4.6,19.5,4,27.6c0,2.2-0.1,4.4-0.1,6.7c-5.8,6.9-0.1,13.6,0.6,20.3
		c0,0.7-0.1,1.4-0.2,2.1c-2.5-2.5-4-3.8-5.2,1.3c-3,12.9-0.6,26-1.5,38.9c-3,0-6,0-9.1,0c0-3,0.5-6.1-0.2-9
		c-3-12.8-2.8-25.7-2.2-38.7c0.3-6.2,2.7-11.6,4.2-17.3c1.1-3.9-0.4-6.8-4.3-7.8c-5.2-1.2-4,3.1-4.1,5.7
		c-0.4,8.5-12.2,17.1,0.1,25.6c0,0-1,1.7-1.5,2.5c-7.4,12.2-5.4,25.7-5.4,39c-8.3,0-16.6,0-25,0.1c0-9.7,0-19.3,0-29.4
		c-4.3,2.5-0.4,7-4.2,9.7c0-8.2-3.1-20.2,0.6-22.8c8.5-6.1,4.2-13.8,7.1-21.9c5.7,6.3,1.6,13.5,4.8,19.5c0.2-8.5,0.5-16.9,7.9-22.7
		c1.2-0.9,6-3.2,1.5-5.7c-3.2-1.8-3.6,2.7-5.3,4.5c-3.6-8.6-4.5-15.6,7-17.3c4.7-0.7,3.3-4.6,3-7.2c-0.4-4.8-1.6-9.5-2.5-14.3
		c-9.8,1.7-3.8,11.8-10.1,17.3c-0.5-7.4-1-13.5-1.5-19.7c-1.6,13.1-4.7,26-3.3,39.3c-7.5-14.2-4.2-29.3-4.9-44.1
		c5.8-0.8,4.2-5.4,4.2-8.8c0.1-13.5,0.1-27.1,0.1-40.6c0-10.9,0-21.8-0.1-32.7c0-2.3-0.2-4.9-3.2-5c-3.1-0.1-3.2,2.6-3.3,4.8
		c-0.1,1.9,0,3.8-0.1,5.6c-1.5,0-3.1,0.1-4.6,0.1c0-26.3-0.1-52.6-0.1-78.9c0-22.5,0-45,0-67.5c-0.7,0-1.4,0-2.1,0
		c0,10.9,0.1,21.8-0.1,32.6C942.4,666.4,944.2,671.4,937.9,672.5L937.9,672.5z M961.3,760.7c0.9,16.7-3.8,33.1-2.9,49.8
		c0.1,1.9-0.9,5,2.8,4.6c1.9-0.2,3.9-1.6,3.4-3.7C960.6,794.7,964.6,777.5,961.3,760.7z M979,889.1c4.1-6,5.7-9.8,1.2-14.6
		C977.5,878.9,978.8,882.8,979,889.1z M966.1,924.8c1.4-4.8,1.9-7.8-0.2-11C964.5,916.9,964.9,919.8,966.1,924.8z"/>
	<path class="st3" d="M916.2,566.5c5.8,2.9,5.7,9.1,5.6,13.6c-0.5,24.5,6.6,48.2,5.6,72.9c-0.6,13,2.3,26.2-0.6,39.4
		c-0.6,2.9-0.5,7,2,8.4c9.5,5.7,6.8,14.6,6.8,22.8c0.1,19.1-0.8,38.2,2.3,57.2c0.4,2.2-0.1,4.5,1.8,6.3c4.8,4.3,9.7,7.2-1.5,10.9
		c-5.9,2-1.2,11.1-2.9,17.9c6.5-2.1,4-7.1,7.4-12.7c-1.6,34.4,7.1,65.7,1.1,98.1c-5.1-19.9-3.1-39.4-4.5-58.7
		c-3.6,41.8,2.9,83.6,0.9,125.3c-24.4,1.1-24.6,1.1-23.4-23.5c0.3-6.3-1.6-12.7,0.7-18.9c3.2-2.2,3.1-4.5,0.2-6.8
		c-1.5-32.3-1.1-64.6-0.7-97c4.5-8.4,4.7-16.8-0.3-25.2c0-16.4-0.1-32.9-0.1-49.3c5.4-6.1,5.1-12.2,0.1-18.4
		c-0.1-1.4-0.1-2.8-0.2-4.2c3.4-0.7,5.4-2.9,5.4-6.3c0.2-27.9,2.9-55.8,0.2-83.7c-0.4-3.8-2.3-5.3-5.8-5.2
		C916.3,608.5,916.3,587.5,916.2,566.5z M928.8,841.8c-4.8-43.4,7.8-87,0.2-130.5C921.4,754.7,924.8,798.2,928.8,841.8z"/>
	<path class="st2" d="M948.9,270.7c-6.6-15.6-2.9-31.4-0.8-47.1c0.7-5,2.1-9.3-2.9-13c-3.9-2.8-2.7-7.5-2.7-11.5
		c-0.1-22.5-0.1-45-0.1-67.5c0-4.1,0.2-8.3-2-12c0.1-3.1,0.2-6.2,0.3-9.2c1.2-1.4,2.6-2.7,3.6-4.2c5.9-8.3,5.3-17.8,2-26.3
		c-2.7-7-10.6-2.4-16-3.3c-1.8-0.3-3.7,0-5.6,0c2.7-6.6,8.7-6.1,14.1-6c9.6,0.3,19.1,0.9,28.7-0.7c0.2,2.3-1.1,5.8,2.5,5.8
		c3.1,0,6.2-1.6,6.2-5.8c0.9-0.1,1.7-0.2,2.6-0.3c0.1,3.2,1.9,5.1,5,4.6c14.2-2.6,18.7,4,18.1,17.4c-0.5,10.7,5.2,15.9,16.3,14.2
		c1.1-0.2,2.2,0,3.4,0.1c0.2,5.6-2.4,14.1,8.8,9.1c-0.1,3.7-0.1,7.4-0.2,11.1c-6.1,2-11.4,1.3-15.4-4.3c1.9-1.4,2.1-3.1,0.1-4.4
		c-9.5-6.1-20.2-7.5-27,2.5c-4.9,7.1-11.6,8.1-18.8,10.4c-0.9-4.5,5.8-7.7,1.3-11.5c-2.3-1.9-5,0.5-7.4,1.2c-5.2,1.6-4.8,6-4.4,10.2
		c0,0.4,0.1,0.8,0.2,1.1c3.5,5.9,0.1,10.5-4,13.6c-2.5,1.9-3.3,3.3-3.3,6.1c0.1,11.7,0,23.3,0.1,35c0.1,8.6,3.6,3.1,6.2,1.4
		c2.3,5.5-4.6,15.9,9.6,15.1c-2.5,3.2-7.5,3.3-6.6,6.9c4.1,14.6-2.3,29.6,2.4,44.2C966.2,262.9,959.7,269.9,948.9,270.7z
		 M967.9,111.8c0.3-0.6,0.9-1.4,0.7-1.9c-0.2-0.5-1.2-0.6-1.8-0.9c-0.3,0.6-0.9,1.4-0.7,1.9C966.3,111.4,967.2,111.6,967.9,111.8z"
		/>
	<path class="st4" d="M1005.7,925.4c-0.7-6.8-6.3-13.4-0.6-20.3c11.3-13.3,14.2-29.4,13.8-46c-0.2-8.3,3.5-5,7.1-3.6
		c2.4,2.5,1,7.3,5.2,8.8c2.2,13.5,1.3,27.2,1.1,40.8c-12.4,4.9-12.4,7.4-0.6,22.8c-0.1,1.3-0.3,2.7-0.4,4c-4,0.4-8.3,0-9.9,5.4
		c-0.7,2.4,2.5,7.7-4.3,6.5c-5.4-1-4.7-4.8-4.7-8.5c0-8.4,0-16.7,0-26.5C1007.3,914.6,1014.4,922.7,1005.7,925.4z"/>
	<path class="st1" d="M924.7,76.6c1.9,0,3.8-0.3,5.6,0c5.5,1,13.4-3.6,16,3.3c3.3,8.5,3.9,18-2,26.3c-1.1,1.5-2.4,2.8-3.6,4.2
		c-9.9-1.8-10,4.6-9.7,11.4c-1.4,0.7-2.8,1.4-4.2,2.2c0-1.5,0.1-3-0.1-4.5c-0.3-2.8,0.7-7.1-4-6.2c-4.2,0.8-0.9,4.2-0.9,6.4
		c0,9,0,18,0,27c-4.3,0.4-4.1,3.6-4.1,6.7c0,6-0.1,12-0.1,18c-0.6,0.1-1.1,0-1.7,0c-0.2-24.4-0.6-48.8-0.5-73.2
		C915.4,90,918.6,82.5,924.7,76.6z"/>
	<path class="st0" d="M1021.4,105.8c-1.1,0-2.3-0.3-3.4-0.1c-11.1,1.7-16.8-3.4-16.3-14.2c0.7-13.4-3.9-19.9-18.1-17.4
		c-3.1,0.6-4.9-1.4-5-4.6c7.8-1.3,15.8-1.4,23.7-2.8c15.9-2.8,22.4,4,25.8,24.1c0.3,1.8,0.1,3.7,0.2,5.6c-3.3,2.1-2.1,5.8-3.1,8.7
		C1024,105.4,1022.7,105.6,1021.4,105.8z"/>
	<path class="st0" d="M1005.7,925.4c8.7-2.8,1.6-10.8,6.8-16.8c0,9.8,0,18.2,0,26.5c0,3.7-0.6,7.6,4.7,8.5c6.7,1.2,3.6-4.1,4.3-6.5
		c1.6-5.4,5.9-5,9.9-5.4c0.3,7.3,0.9,14.7,1,22c0.3,15,0.2,15-15.6,14.1c0.2-5.7,0.4-11.4-4.1-16.1c-5.5,5.7,0.7,10.8-0.1,16.1
		c-2.3,0.1-4.6,0.2-7,0.3c0-13.5-0.1-27-0.1-40.5C1005.6,926.8,1005.7,926.1,1005.7,925.4z"/>
	<path class="st1" d="M976.4,967.9c0-13.2-1.9-26.7,5.4-39c0.5-0.9,1.6-2.5,1.5-2.5c-12.4-8.5-0.5-17.1-0.1-25.6
		c0.1-2.6-1.1-6.9,4.1-5.7c3.9,0.9,5.4,3.9,4.3,7.8c-1.6,5.7-3.9,11.1-4.2,17.3c-0.6,13-0.9,25.9,2.2,38.7c0.7,2.8,0.2,6,0.2,9
		C985.3,967.8,980.9,967.9,976.4,967.9z"/>
	<path class="st1" d="M916.4,629.5c3.6-0.1,5.5,1.4,5.8,5.2c2.6,27.9,0,55.8-0.2,83.7c0,3.4-2.1,5.5-5.4,6.3
		C914.9,692.9,915.3,661.2,916.4,629.5z"/>
	<path class="st3" d="M915.9,446.7c1.9-0.8,5.7-6.7,5.5-0.9c-0.5,16.3,7.9,31.7,4.6,48.1c-8.1-5.4,2-18.7-9.9-22.4
		C916.1,463.2,916,455,915.9,446.7z"/>
	<path class="st4" d="M1005.6,927.5c0,13.5,0.1,27,0.1,40.5c-2.3-0.1-4.5-0.2-6.8-0.3c0.9-13-1.5-26,1.5-38.9
		C1001.5,923.7,1003.1,925.1,1005.6,927.5z"/>
	<path class="st2" d="M1031.3,864.2c-4.2-1.4-2.8-6.3-5.2-8.8c0-13.9,0-27.8,0-42c6.3,5.3-2.8,15.3,6,19.6
		C1032.1,843.4,1033.2,853.9,1031.3,864.2z"/>
	<path class="st0" d="M1031.8,927.8c-11.9-15.3-11.8-17.9,0.6-22.8C1032.7,912.6,1033.4,920.2,1031.8,927.8z"/>
	<path class="st3" d="M915.9,171.4c0.6,0.1,1.1,0.1,1.7,0c0.8,9.7,1.6,19.4,2.4,29.2c-1.2,3.9,2.6,9.5-4.1,11.3
		C915.9,198.4,915.9,184.9,915.9,171.4z"/>
	<path class="st4" d="M1030.1,171.2c-5.9-6.3-6-24.5-0.3-31.3C1029.9,150.4,1030,160.8,1030.1,171.2z"/>
	<path class="st4" d="M1031.8,475.9c-3.8,0.4-5.2,3.9-8.4,7.1c-3.1-9.8,2.8-17.1,3.1-26c3.7,5.2-1.5,12,5.3,14.9
		C1031.8,473.2,1031.8,474.5,1031.8,475.9z"/>
	<path class="st2" d="M915.9,410.6c9.7,5.6,4.7,15.6,9.7,24.8c-11.1-4.1-5.3-13.3-9.9-17.7C915.8,415.2,915.9,412.9,915.9,410.6z"/>
	<path class="st4" d="M1031.4,335.8c-6.4-10.9-2.3-22.5-2.2-33.9c1,0.1,2.1,0.2,3.1,0.4C1026.8,313.3,1035.7,324.7,1031.4,335.8z"/>
	<path class="st4" d="M1032.3,731.1c-2.7-0.8-6.6,2.7-7.9-0.5c-0.8-1.9-4.8-7.7,3.1-8.5c2.3-0.2-1.6-7.6,4.1-8.7
		C1034.5,719.3,1029.5,725.3,1032.3,731.1z"/>
	<path class="st1" d="M916.7,796.5c5,8.3,4.8,16.7,0.3,25.2C915.7,813.3,915,805,916.7,796.5z"/>
	<path class="st1" d="M1021.4,105.8c1.3-0.2,2.6-0.4,3.8-0.6c1.7,0.3,3.3,0.5,5,0.8c0,3,0,6,0,9
		C1019,119.9,1021.7,111.4,1021.4,105.8z"/>
	<path class="st4" d="M1012.6,967.8c0.8-5.2-5.4-10.4,0.1-16.1c4.5,4.7,4.3,10.4,4.1,16.1C1015.4,967.9,1014,967.8,1012.6,967.8z"/>
	<path class="st1" d="M916.7,728.8c5,6.2,5.3,12.3-0.1,18.4C915.5,741.1,915.3,734.9,916.7,728.8z"/>
	<path class="st0" d="M976.2,69.9c0.1,4.2-3,5.8-6.2,5.8c-3.6,0-2.4-3.5-2.5-5.8C970.4,69.9,973.3,69.9,976.2,69.9z"/>
	<path class="st2" d="M1030.2,105.9c-1.7-0.3-3.3-0.5-5-0.8c1-2.9-0.2-6.6,3.1-8.7C1032.2,99,1030.6,102.6,1030.2,105.9z"/>
	<path class="st1" d="M917.7,918.7c2.9,2.4,2.9,4.7-0.2,6.8C916.5,923.2,916.3,920.9,917.7,918.7z"/>
	<path class="st4" d="M948.9,270.7c10.9-0.8,17.4-7.8,14.4-17.2c-4.7-14.7,1.7-29.6-2.4-44.2c-1-3.5,4-3.7,6.6-6.9
		c-14.2,0.8-7.3-9.6-9.6-15.1c-2.6,1.7-6.1,7.2-6.2-1.4c-0.1-11.7,0-23.3-0.1-35c0-2.8,0.8-4.2,3.3-6.1c4.1-3.1,7.5-7.7,4-13.6
		c-0.2-0.3-0.2-0.7-0.2-1.1c-0.4-4.2-0.8-8.6,4.4-10.2c2.4-0.7,5.1-3.1,7.4-1.2c4.5,3.8-2.2,7-1.3,11.5c7.2-2.2,13.9-3.2,18.8-10.4
		c6.8-9.9,17.5-8.5,27-2.5c2.1,1.3,1.9,3-0.1,4.4c-2.5-0.7-5-1.7-7.5-2c-7.8-1.1-13.5,0.6-12.6,10.4c0.5,5.2-0.2,10.3,1.5,15.5
		c3.6,11,0.6,21.8-1.7,32.6c-2.1-0.5-4.2,1.9-6.3-0.2c-1.2-1.2,1-5.7-2.7-3.8c-3,1.5-6.8,3.7-6.5,8.4c0.2,2.8,1,5,3.9,6.1
		c5,1.8,8-2,11.7-3.9c-0.9,4.4-0.8,8.8,2,16.4c0-9,0-14.9,0-22.6c3.8,4.7,2.9,8.1,2.5,11c-2.1,16.6,3.5,32.7,2.7,49.4
		c-1.3,25.4-5.6,50.6-5.1,76.1c0.1,5.2,1.1,10.1-0.6,16c-5.9,21.2-3.6,42.8,0,64.4c3.8-0.8,2.3-4.3,3.7-5.2
		c11.2,30.3-5.7,59.9-0.5,90.1c-3.6-0.1-1.5-3.5-4.3-4.4c-0.1,6.6-1.2,12.7,3,18.8c7.3,10.3,4.2,22.1,0,31.7
		c-7.4,17.3-1.4,34.7-3.4,51.9c-1.5,13,2.8,25.5,2.2,38.3c-0.2,4.5,0.2,8.9-2.9,12.9c-1.2,1.6-2,4.6-1.3,6.3
		c7.2,19.5,5.8,39.6,5.3,59.8c0,1.8-1,8.5,5.8,6.3c3.3-1,1.9,2.3,2,3.6c0.2,6,0.1,12,0.1,18c-3.7,0.9-0.9-4.1-3.9-3.8
		c-1,3.6-0.9,7.2,0.3,10.7c5.5,16.3,2.7,32.3-2.1,48.1c-1.8,5.9-0.5,12-1.1,17.9c-4.5,3.6-0.2,9.5-4.1,14.2
		c-0.4-9.6-0.3-18.6-2.5-27.3c-0.4-1.8-0.7-4.3,0.2-5.5c11.3-15,1.4-31.8,4-47.5c1.4-8.5-8.4-14-7.9-23
		c-7.8,13.8-7.4,29.1-10.4,44.3c4.3-1.8,8.3,0.3,11.8-3c-6.5,16.1-8,33.9-20.5,49.4c-1.9-30.6-0.8-58.7-7.1-85.8
		c-2.6-11.3-2.6-24-10.4-33.9c-0.6-0.7-0.5-2.2-0.4-3.3c1.7-17.3-3.7-34.3-1.9-52.8c1.3,2,2.2,3.3,4.2,6.3c0-6.7-0.3-11.7,0.1-16.7
		c0.3-3.9-1.7-9.8,6.7-7.9c3.9,0.9,2-3.6,2.1-5.5c1.4-19.1-2.2-38-2.5-57.7c-3.8,4,0.1,9.4-5.2,14.2c-1.2-14.8-2.7-28.1-3.3-41.5
		c-0.6-11.9-1.5-23.7-4.3-35.2c-0.3-11.4-0.6-22.7-0.9-34.1c8.4,14.6,3.1,31.4,7.3,46.7c3.7,13.3,1.8,27.3,3.7,41
		c-0.4-12.4,3.4-24.5,2.3-36.6c-1.4-15.6-4.4-31.1-7.2-46.5c-1.2-6.8-3.2-17.5-0.3-19.4c8.4-5.4,2-12.9,5.3-18.2
		c0.2-0.3,0.6-0.5,0.9-0.7c4.7,2.5-0.4,9.8,6,12c1.2-6.9,4.8-14.2-6-16.5c-3.7-1-8.7-0.5-7.1-7.1c0.7-2.8-1.4-3.9-3.8-4.4
		c-0.4-18.8,0.2-37.7-4.6-56.2c8.1,4,10.5,0.4,11.3-7.5c0.5-5.1-4.5-11.8,3.5-15.3c2,4.1-1,9,3.3,13.4c3-4.7,1.6-9.1,1.9-13.3
		c8.5-3.3,3-8.9,3.3-13.5c-4.8,3.9-2.6,9-3.2,13.6c-2.6-7.1-5.8-14.6-3.2-22c5-14.6,4.5-16-10.3-16.4
		C949.2,275.2,949,273,948.9,270.7z M990,327.6c3.5-3.9,1.8-8.7,2.1-13c0.9-12-4.6-25-1.3-35.5c5-15.8,1.8-28.2-5.6-41.3
		c-1.2-2.2-2.5-4.2-4.9-3.5c-2.8,0.8-1.5,3.7-1.7,5.8c-0.5,5.1,5.1,7.8,4.6,13.4c-1.1,12.1-1.9,24.4-1.6,36.6
		c0.3,12.7-2.2,25.5,0.3,39.8C985,324.6,987.1,322,990,327.6z M984.4,661.5c-1.4,4.3-1.2,8.9-4.1,11.9c-6.6,6.7-5.3,13.1-1.8,20.8
		c2.2,5,3.6,9.9,10,8.9c7.2-1.1,2.7-7.2,3.6-10.9C994.9,680.6,983.1,672.8,984.4,661.5z M975.1,584.5c1,0,1.9,0,2.9-0.1
		c0-13.4,0-26.8,0-43.2C972.6,557.6,973.7,571.1,975.1,584.5z M970.2,502.5c1.5-6.6,8.5-9.9,6.1-16.9c-0.6-1.7-0.5-3.8-2.7-4.3
		c-1.7-0.4-3.2,0.4-3.4,2C969.5,489.2,964.6,495,970.2,502.5z M985.4,481.8c2.7-7,3-11.4-0.8-18.8
		C983.1,470.5,982.3,474.8,985.4,481.8z M985.1,196.2c-2.6,5.9-2.3,9.7-1,14C986.2,206.4,985.1,202.8,985.1,196.2z M979.3,194.3
		c0,3.5,0,7.1,0,10.6C981.2,201.3,981.2,197.8,979.3,194.3z M989.7,201.8c-0.4-0.6-0.7-1.1-1-1.7c-0.3,0.6-0.8,1.1-0.8,1.7
		c0,0.6,0.6,1.1,0.9,1.7C989.1,203,989.4,202.4,989.7,201.8z"/>
	<path class="st4" d="M1005.3,853.3c-6.9-4.5-5.8-11.8-6.4-18.5c-0.4-4.4,0-8.9,0-13.3c10.8,0.5,4.8-8.8,9.3-15.7
		c-1.6,11.7,2.1,20.1,1.9,29.1C1010,841.5,1011.2,848.3,1005.3,853.3z"/>
	<path class="st4" d="M1005.2,898.4c-8.6-8.1-2.3-18.5-4-27.6c-0.6-3.4-1.1-7.7,4.1-8.8C1007.1,874.2,1009.2,886.3,1005.2,898.4z"/>
	<path class="st2" d="M994.4,184.9c-3.7,1.9-6.7,5.7-11.7,3.9c-3-1.1-3.8-3.3-3.9-6.1c-0.3-4.7,3.5-6.8,6.5-8.4
		c3.8-1.9,1.5,2.6,2.7,3.8c2.1,2.1,4.2-0.3,6.3,0.2C994.3,180.4,994.3,182.6,994.4,184.9z"/>
	<path class="st4" d="M1023.2,194.5c1.9,10.4-3.2,19.3,2.6,27.5c1.2,1.7,0.4,5.9-2.8,6.3c-3.7,0.5-3.7-3-3.8-5.5
		C1019,213.9,1018.6,204.9,1023.2,194.5z"/>
	<path class="st4" d="M1017.5,701.9c0-7.3,0-14.6,0-21.9c0.3,0,0.6,0,1,0c0,7.3,0,14.6,0,21.9
		C1018.2,701.8,1017.8,701.9,1017.5,701.9z"/>
	<path class="st4" d="M1027.7,688.4c0,5.8,0,11.6,0,17.4c-0.3,0-0.6,0-0.9,0c0-5.8,0-11.6,0-17.4
		C1027,688.4,1027.4,688.4,1027.7,688.4z"/>
	<path class="st4" d="M1021.7,722.5c-3.1-5.3-4.5-8.1-0.7-14.3C1021.3,713.8,1021.4,716.7,1021.7,722.5z"/>
	<path class="st4" d="M1020.6,234.2c1.3,1.5,1.1,3.2,0.3,4.8c-0.1,0.1-1.3-0.2-1.4-0.4C1019.3,237,1018.6,235.3,1020.6,234.2z"/>
	<path class="st4" d="M1014.1,851.7c0.6,0.3,1.6,0.4,1.8,0.9c0.2,0.5-0.4,1.2-0.7,1.9c-0.6-0.3-1.6-0.4-1.8-0.9
		C1013.2,853.1,1013.8,852.4,1014.1,851.7z"/>
	<path class="st2" d="M947.4,394.7c2.4,0.5,4.5,1.6,3.8,4.4c-1.6,6.6,3.4,6.1,7.1,7.1c0,1.5,0,3,0,4.5c-0.3,0.2-0.7,0.4-0.9,0.7
		c-3.3,5.3,3,12.8-5.3,18.2c-2.9,1.9-0.9,12.6,0.3,19.4c2.9,15.4,5.8,30.9,7.2,46.5c1.1,12.1-2.7,24.3-2.3,36.6
		c-1.9-13.7,0-27.6-3.7-41c-4.2-15.3,1.1-32.1-7.3-46.7c-0.6-1.4-1.2-2.9-1.7-4.3c2.3-1.4,2.5-2.9,0.1-4.5
		c0.3-21.5-7.1-42.1-7.5-63.6c-0.3-16.5-2.7-33.1-4.2-49.6c2.2-6.7-5.2-11.3-4-17.7c2.2-0.7,4.3-1.5,6.5-2.2c0,9,0.1,18,2.5,26.9
		c3.4,23.9,2.6,48.3,8.2,75C946.9,399,947.1,396.9,947.4,394.7z"/>
	<path class="st2" d="M949.3,277.4c14.8,0.4,15.3,1.7,10.3,16.4c-2.6,7.5,0.6,14.9,3.2,22l0,0c-0.3,4.1,1,8.6-1.9,13.3
		c-4.3-4.4-1.3-9.4-3.3-13.4c-8,3.5-3,10.3-3.5,15.3c-0.8,7.9-3.1,11.5-11.3,7.5c-0.3-3.2-0.5-6.3-0.7-9.5c-0.5-2.8-1.1-5.7-1.6-8.5
		c7.3,0.9,2.7,7.4,5.5,11.2C950.6,313.5,948.5,295.3,949.3,277.4z"/>
	<path class="st4" d="M949.3,776.3c0-1.9,0-3.8,0.1-5.6c0.1-2.3,0.3-4.9,3.3-4.8c3,0.1,3.2,2.7,3.2,5c0.1,10.9,0.1,21.8,0.1,32.7
		c0,13.5,0,27.1-0.1,40.6c0,3.4,1.5,8-4.2,8.8c-0.1-21.7-0.2-43.3-0.4-65C951.3,784,952.8,779.7,949.3,776.3z"/>
	<path class="st4" d="M944.7,510c6.4,18.2,4.1,37.4,7.6,56.4c1.8,1.2,2.8-7.2,5.6-1.3c3.4,7.1-0.9,18-9,21.6c0-7.8,0-15.3,0-22.8
		C945.6,546.1,944,528.1,944.7,510z"/>
	<path class="st3" d="M935.7,602.5c-3.4,1.1-4.2,4.7-5.8,8.2c-5-8.4-2.6-16.5-3.1-24.2c-0.4-6.3,4.4-12.7-1.2-19.2
		c-1.9-2.2,1.6-5.9,4.6-6.3c4.2-0.6,3,3.4,3.1,5.6c0.3,6.7,0.2,13.5,0.3,20.2C934.2,592.1,935,597.3,935.7,602.5z"/>
	<path class="st3" d="M940.4,320.5c0.5,2.8,1.1,5.7,1.6,8.5c-1.3,0.1-2.6,0.2-4,0.2c-2.3-8.8-2.5-17.8-2.5-26.9
		c-1.9-16.6-5.2-33.1-4.1-50.7c5.8,2.6,3.5,7,4.5,10.2c-1,13.7,1.4,27.1,4.2,40.5C940.2,308.4,940.3,314.4,940.4,320.5z"/>
	<path class="st3" d="M944.5,697.5c0,26.3,0.1,52.6,0.1,78.9c-0.2,1.4,0.1,3.6-0.7,4.1c-2.1,1.3-2.4-1.5-2.4-2.2
		c1.7-25.9-3.6-51.7-1-77.6C940.8,698.6,942.6,697.8,944.5,697.5z"/>
	<path class="st2" d="M936.3,437.7c-1.1-20.6-9.7-40.4-5.3-61.5C934.1,396.5,937.9,416.8,936.3,437.7z"/>
	<path class="st2" d="M919.9,200.6c-0.8-9.7-1.6-19.4-2.4-29.2c0-6,0.1-12,0.1-18c0-3-0.2-6.2,4.1-6.7c0.1,3,0.2,6,0.2,9.1
		C920.8,170.8,924.6,185.9,919.9,200.6z"/>
	<path class="st2" d="M940.2,302.3c-2.8-13.3-5.3-26.7-4.2-40.5c0.7,0.2,2,0.3,2.1,0.6C940.1,275.7,945.5,288.7,940.2,302.3z"/>
	<path class="st3" d="M922,155.9c-0.1-3-0.2-6-0.2-9.1c0-9,0.1-18,0-27c0-2.3-3.3-5.6,0.9-6.4c4.7-1,3.7,3.4,4,6.2
		c0.1,1.5,0.1,3,0.1,4.5c-0.6,8.9-1.1,17.7-1.7,26.6C924.6,152.7,924,154.7,922,155.9z"/>
	<path class="st2" d="M925.1,150.6c0.6-8.9,1.1-17.7,1.7-26.6c1.4-0.7,2.8-1.4,4.2-2.2c0,6,0.1,12,0.1,18c0,1.5,0.1,3,0.1,4.5
		c0,0.7,0,1.4,0.1,2.1c0,2.9,0,5.7,0,9.2C928.2,154.5,928.2,150.5,925.1,150.6z"/>
	<path class="st2" d="M926.7,331.6c-5.7,3.2-4.2-1.9-4.3-4.1c-0.2-10.4-0.1-20.9-0.1-32c3.7,2.4,0.6,7.3,4,9
		C926.4,313.6,926.5,322.6,926.7,331.6z"/>
	<path class="st3" d="M931.1,139.8c0-6-0.1-12-0.1-18c-0.4-6.8-0.2-13.2,9.7-11.4c-0.1,3.1-0.2,6.2-0.3,9.2c-5.3-0.8-7,1.7-7.1,6.8
		C933.2,130.9,935.3,135.9,931.1,139.8z"/>
	<path class="st3" d="M926.7,331.6c-0.1-9-0.2-18-0.3-27c0.9,0,1.9,0,2.8,0c-1.1,6.5,6.2,11,4,17.7
		C925.6,321.7,933,331.5,926.7,331.6z"/>
	<path class="st2" d="M926.2,339.8c3.4,5,3.2,10,0.6,17.7C923.6,350.1,924.7,344.9,926.2,339.8z"/>
	<path class="st2" d="M922.5,218.8c5.2,4.1,4,9.3,3.2,16.4C920.1,229,923.5,223.6,922.5,218.8z"/>
	<path class="st3" d="M937.3,681.7c0.8,6.4,1.1,10.5-1.3,16.4C932.3,691.7,933.4,687.8,937.3,681.7z"/>
	<path class="st2" d="M935.7,602.5c-0.7-5.2-1.4-10.4-2.1-15.6c8.1,3.4,2.9,10.5,4.4,15.7c0,0,0,0,0,0
		C937.2,602.5,936.4,602.5,935.7,602.5z"/>
	<path class="st3" d="M938,672.6c-0.5,1.9-0.4,4.7-3.7,3.4c-0.7-0.3-0.9-1.6-1.4-2.4C934.6,673.2,936.3,672.8,938,672.6
		C937.9,672.5,938,672.6,938,672.6z"/>
	<path class="st2" d="M938.3,450.2c0.3-0.4,0.9-1.1,1.4-1.8c0.6,0.8,1.5,1.5,1.9,2.4c0.2,0.4-0.5,1.6-1,1.7
		C939.3,452.9,938.6,452.1,938.3,450.2z"/>
	<path class="st4" d="M944.8,435.6c2.3,1.6,2.1,3.1-0.1,4.5C944.7,438.6,944.8,437.1,944.8,435.6z"/>
	<path class="st3" d="M931.3,146.4c0-0.7-0.1-1.4-0.1-2.1c0.3,0.5,0.6,1,0.9,1.5C932.1,145.9,931.6,146.2,931.3,146.4z"/>
	<path class="st4" d="M961.3,760.7c3.3,16.8-0.7,33.9,3.3,50.6c0.5,2.1-1.5,3.5-3.4,3.7c-3.8,0.5-2.7-2.6-2.8-4.6
		C957.5,793.8,962.2,777.5,961.3,760.7z"/>
	<path class="st1" d="M979,889.1c-0.2-6.3-1.5-10.2,1.2-14.6C984.7,879.3,983.1,883.2,979,889.1z"/>
	<path class="st1" d="M966.1,924.8c-1.2-5-1.6-7.9-0.2-11C968,917,967.5,920,966.1,924.8z"/>
	<path class="st1" d="M928.8,841.8c-4-43.6-7.4-87.1,0.2-130.5C936.6,754.8,924,798.4,928.8,841.8z"/>
	<path class="st4" d="M967.9,111.8c-0.6-0.3-1.6-0.4-1.8-0.9c-0.2-0.5,0.4-1.2,0.7-1.9c0.6,0.3,1.6,0.4,1.8,0.9
		C968.8,110.4,968.1,111.2,967.9,111.8z"/>
	<path class="st2" d="M990,327.6c-2.9-5.5-5-3-8,2.3c-2.5-14.3,0-27.1-0.3-39.8c-0.3-12.2,0.5-24.4,1.6-36.6
		c0.5-5.6-5.1-8.3-4.6-13.4c0.2-2.1-1.1-5,1.7-5.8c2.4-0.7,3.7,1.3,4.9,3.5c7.3,13.1,10.6,25.5,5.6,41.3
		c-3.3,10.5,2.2,23.5,1.3,35.5C991.7,318.9,993.5,323.6,990,327.6z"/>
	<path class="st2" d="M984.4,661.5c-1.3,11.3,10.5,19.1,7.6,30.6c-0.9,3.7,3.6,9.8-3.6,10.9c-6.3,1-7.7-3.9-10-8.9
		c-3.5-7.7-4.8-14.1,1.8-20.8C983.2,670.5,983,665.8,984.4,661.5z"/>
	<path class="st1" d="M938.1,329.3c1.3-0.1,2.6-0.2,4-0.2c0.2,3.2,0.5,6.3,0.7,9.5c4.8,18.5,4.3,37.4,4.6,56.2
		c-0.2,2.2-0.5,4.3-1.1,9.6C940.7,377.5,941.5,353.2,938.1,329.3z"/>
	<path class="st2" d="M975.1,584.5c-1.5-13.5-2.5-27,2.9-43.2c0,16.3,0,29.7,0,43.2C977.1,584.5,976.1,584.5,975.1,584.5z"/>
	<path class="st2" d="M970.2,502.5c-5.6-7.4-0.8-13.2-0.1-19.2c0.2-1.6,1.7-2.3,3.4-2c2.3,0.5,2.1,2.5,2.7,4.3
		C978.7,492.5,971.7,495.9,970.2,502.5z"/>
	<path class="st0" d="M958.3,410.6c0-1.5,0-3,0-4.5c10.8,2.3,7.2,9.6,6,16.5C957.9,420.4,963,413.2,958.3,410.6z"/>
	<path class="st2" d="M985.4,481.8c-3.1-6.9-2.3-11.3-0.8-18.8C988.4,470.4,988.1,474.8,985.4,481.8z"/>
	<path class="st2" d="M962.8,315.8c0.7-4.6-1.6-9.7,3.2-13.6C965.7,306.9,971.3,312.6,962.8,315.8
		C962.8,315.8,962.8,315.8,962.8,315.8z"/>
	<path class="st2" d="M985.1,196.2c0.1,6.6,1.1,10.2-1,14C982.8,205.9,982.5,202.1,985.1,196.2z"/>
	<path class="st2" d="M979.3,194.3c1.8,3.5,1.9,7,0,10.6C979.3,201.4,979.3,197.8,979.3,194.3z"/>
	<path class="st2" d="M989.7,201.8c-0.3,0.6-0.6,1.1-1,1.7c-0.3-0.6-0.9-1.1-0.9-1.7c0-0.6,0.5-1.1,0.8-1.7
		C989.1,200.7,989.4,201.2,989.7,201.8z"/>
</g>
<g>
	<path class="st5" d="M759.5,1056.1c-1.1-5.8,2-12.5-4.3-17c-0.2,12.5-0.1,25,0.1,37.5h4.3C760.2,1069.6,760.7,1062.8,759.5,1056.1z
		"/>
	<path class="st6" d="M1064.3,1076.5h10.2C1071.1,1076.5,1067.7,1076.5,1064.3,1076.5z"/>
	<path class="st6" d="M1177.2,1043c-0.8,9.7,1.2,19.7-2.3,33.5h5.7c0-11.2,0.1-22.4,0.1-33.6c0,0,0,0,0,0
		C1179.5,1043,1178.4,1043,1177.2,1043C1177.2,1043,1177.2,1043,1177.2,1043z"/>
	<path class="st6" d="M883.2,1070.1c8.2-1,17.5,1.2,18.1-13.2c0.3-7.6,11.3-7,17.8-6c41.5,6.4,83.3,1.9,125,3.3l0,0
		c-16.5-13.9-38.6-8-58.3-15.9c5.4-9.6,13.7-5.7,20.3-6.9c2.5,0,5.1,0,7.6,0c0,0,0,0,0,0c1.3-3.8,2.5-7.6,3.8-11.4
		c-4.8-0.3-8.9-1.3-7.6-7.7c0,0,0,0,0,0c0,0,0,0,0,0c-26.3-7-53.2-2.5-79.8-3.8c0,0,0,0,0,0c-6.4,5.9-18.2,6.9-11.5,22.2
		c5,11.2-9.9,20.3-22.3,12.2c-15-9.7-27.3-7.1-42.1-0.1c-15.7,7.4-33.3,4.2-50,2.3c-7.2-0.8-9.4-7.5-11-13.8
		c-7.7,1.5-13.2,4.4-4.7,11.8c8.7,7.6,8.1,15.9,1.1,23.1c-3.1,3.2-5.2,6.6-6.5,10.2h45.5c6.2-1.8,16.1-1.9,22.6-2.9
		C861.8,1071.9,872.6,1071.5,883.2,1070.1z M993.4,1016.6c-15.7,5.1-25.9,2.8-36.1,1.7C967.5,1016.6,977.5,1010.6,993.4,1016.6z"/>
	<path class="st6" d="M1148.1,1069.8c-10,7.5-17.7,7.6-22.9-6.2c-3.2-8.5-12.9-14-12.7-24.6c-5.1-1.3-10.1-2.5-15.2-3.8c0,0,0,0,0,0
		c0.4,10.7-9.4,16.9-11.4,26.6c3,1,6.2,1.6,9,3c5.5,2.6,17.1-2.8,15.9,7.1c-0.3,2.4-1.7,3.8-3.6,4.5h64.7
		C1166.9,1059.5,1158.3,1062.2,1148.1,1069.8z"/>
	<path class="st7" d="M1001.9,972.6c-10.1-5.1-20.5-8.1-26.2,5.7c9.9,3.1,20.9-2.8,30.5,3.6c0,0,0,0,0,0c27.9-5.4,55.7-6.3,83.6,0.1
		c0,0,0,0,0,0c18.5-9.1,38.4,3.1,57-3.8c0,0,0,0,0,0c0-1.3,0-2.5,0-3.8c0,0,0,0,0,0h0c-7.1-4-16.5-1.2-22.8-7.6c0,0,0,0,0,0
		c-14.7-7-32.4-6.6-45.1-18.5c-25.5-1.4-50.9-1-76.1,3.1c-1.3,0-2.6,0.1-3.8,0.1c-1.3,1.4-2.7,2.8-4,4.2l0,0
		C998.3,960.4,1005.1,963.4,1001.9,972.6z"/>
	<path class="st8" d="M768.4,1051.8c0.1,8.2,1.3,16.5,1.4,24.7h2.9c0.5-1.4,1.1-2.8,1.8-4.2c4.4-8.9,5.8-17,2.8-27.1
		c-3.5-11.7,1.6-19.9,15.7-18.7c0.8,1,1.6,1.9,2.5,2.8c0.6-0.6,1.1-1.1,1.7-1.7c0,0,0,0,0,0c0,0,0,0,0,0c6-2.2,12-4.4,18.4-6.7
		c-3.8-6.4-10.7-4.7-14.6-8.4c0,0,0,0,0,0c-3.8-1.1-8.9,2.4-11.3-2.8c-0.2-0.4,4.9-3.2,7.5-4.9c-7.3-7.9-21.1,6.8-26.6-7.6
		c-12,11.4-17,25.3-15.2,41.8c0,0,0,0,0,0v0C765.6,1037.1,768.2,1043.4,768.4,1051.8z"/>
	<path class="st8" d="M759.5,1056.1c1.2,6.7,0.7,13.6,0.1,20.5h10.2c-0.1-8.3-1.3-16.5-1.4-24.7c-0.1-8.4-2.8-14.7-13.1-12.7v0
		C761.5,1043.6,758.4,1050.3,759.5,1056.1z"/>
	<path class="st8" d="M789.6,1066.4c7-7.2,7.6-15.4-1.1-23.1c-8.5-7.5-3-10.3,4.7-11.8c0,0,0,0,0,0c0.7-0.7,1.4-1.4,2.1-2.1
		c-0.8-0.9-1.7-1.8-2.5-2.8c-14.1-1.2-19.1,7-15.7,18.7c3,10.1,1.6,18.2-2.8,27.1c-0.7,1.4-1.3,2.8-1.8,4.2h10.5
		C784.4,1073,786.5,1069.6,789.6,1066.4z"/>
	<path class="st9" d="M1149.8,980.9c-0.3,0.6-0.6,1.3-1,1.8c-3.7,6.3-9.9,8-16.4,7.1c-14.5-2.2-28.9,0-43.3-0.5
		c-1.2-0.2-2.5-0.4-3.7-0.6c-3.2,5-6,10.1-7,16.2c0,0,0,0,0,0h0c13.8,1.2,28.1-2.4,41.7,2.2c1.3,0.4,2.7,0.9,3.9,1.6c0,0,0,0,0,0
		c0,0,0,0,0,0c0,0,0,0,0,0c15.1,2.7,30.8,2.1,45.5,7.5c-3,10.9-11.7,8.1-20.2,6.9c0.4,9.5,9.1,8.2,12.7,12.2c0,0,0,0,0,0
		c4.5,2.3,9,4.6,13.5,6.9c0.1-0.1,0.2-0.3,0.3-0.4c1.9-0.5,3.5-0.1,4.9,1.2c0,0,0,0,0,0c-0.8-14.2-1.6-28.5-7-41.9c0,0,0,0,0,0
		c0,0,0,0,0,0C1165.7,994.3,1157.8,987.6,1149.8,980.9z"/>
	<path class="st9" d="M1175.8,1041.7c-0.1,0.1-0.2,0.3-0.3,0.4c0.6,0.3,1.1,0.6,1.7,0.9c0,0,0,0,0,0c0,0,0,0,0,0c1.2,0,2.4,0,3.5,0
		C1179.3,1041.7,1177.7,1041.3,1175.8,1041.7z"/>
	<path class="st9" d="M1085.4,988.7c1.2,0.2,2.5,0.4,3.7,0.6c14.4,0.5,28.9-1.6,43.3,0.5c6.4,1,12.6-0.7,16.4-7.1
		c0.4-0.6,0.7-1.2,1-1.8c-1-0.9-2.1-1.7-3.1-2.6c0,0,0,0,0,0c0,0,0,0,0,0c-18.6,6.8-38.5-5.3-57,3.8c0,0,0,0,0,0c0,0,0,0,0,0
		C1088.3,984.2,1086.8,986.4,1085.4,988.7z"/>
	<path class="st10" d="M909.9,958.6c-0.9,8.5-10.7,13.7-18.5,13c-15.3-1.3-29.9,4.1-45,2.7c-1.3,1.2-2.6,2.5-4,3.7c0,0,0,0,0,0
		c0,0,0,0,0,0c0,1.3,0.1,2.6,0.1,3.9c0,0,0,0,0,0c0,0,0,0,0,0c38.2,2.6,76-4.5,114.1-3.8c0,0,0,0,0,0c0,0,0,0,0,0
		c-2.6-5.8-7.5-4.7-12.6-4.6c-13.8,0.1-16.9-6.4-10.2-18.1c0,0,0,0,0,0c0.1-2.3,0.1-4.7,0.2-7c-13.9,0-27.9,0-41.8,0
		c0.6,0.3,1.2,0.5,1.7,0.9C899,953.4,910.9,949,909.9,958.6z"/>
	<path class="st11" d="M956.7,959C956.7,959,956.7,959,956.7,959c-5.5,0.1-11,0.5-16.3-0.8c1.4,3.7,3.8,6.2,9.2,7.5
		c9.5,2.3,12.9,6.9,9.7,12.6c4.5,0.6,9,2.2,13.5,1c-2.9-6.1-0.4-10.7,6-15.3c5-3.7,11.9-3.4,16-8.3c0,0,0,0,0,0
		c-2.5-0.2-5-0.4-7.5-0.5C977.6,960.3,966.9,957.6,956.7,959z"/>
	<path class="st11" d="M978.9,964.1c-6.3,4.6-8.8,9.2-6,15.3c0.9-0.2,1.8-0.6,2.8-1.1h0c5.7-13.8,16.1-10.8,26.2-5.7
		c3.3-9.2-3.6-12.2-7-16.8C990.7,960.7,983.9,960.4,978.9,964.1z"/>
	<path class="st11" d="M949.7,965.8c-5.5-1.3-7.8-3.9-9.2-7.5c-2.2-0.6-4.4-1.4-6.5-2.8c-6.7,11.7-3.7,18.2,10.2,18.1
		c5,0,9.9-1.2,12.6,4.6c0,0,0,0,0,0c0.9,0,1.8,0.1,2.7,0.2C962.6,972.6,959.2,968,949.7,965.8z"/>
	<path class="st12" d="M837.5,958c-7.4,7.3-17.2,10.5-25.2,16.5c-2.5,2.5-5.1,5.1-7.6,7.6c12.1,2.8,23.1-4.5,34.9-4.2
		c0.2-1.8,0.7-3.4,1.8-5c4.1-3.8,8.9-5,13.9-5.5c3.4-1.6,7.1-2.5,10.8-3.7c6.2-1.9,12.8-3.4,10.6-12.5c0,0,0,0,0,0c0,0,0,0,0,0
		c-13.5-5.6-27.6-3-41.4-2.9C838.4,950.9,843.2,952.2,837.5,958z"/>
	<path class="st12" d="M842.4,978.1c1.3-1.2,2.6-2.5,4-3.7c2.4-3.4,5.5-5.5,8.8-7c-5,0.5-9.8,1.7-13.9,5.5c-1.1,1.6-1.6,3.3-1.8,5
		C840.5,977.9,841.4,978,842.4,978.1C842.4,978.1,842.4,978.1,842.4,978.1z"/>
	<path class="st13" d="M798.9,1003.7c13-8.5,26.5-16,41.4-20.9c-0.2-0.3-0.3-0.6-0.5-1c-0.1-0.4-0.2-0.8-0.2-1.2
		c-10.6,8.5-22.2,10.6-35.3,3.7c-0.5-0.8-0.8-1.6-1.1-2.3c-7.4,0.1-13.9,6-21.6,3.5c0,0,0,0,0,0c0,0,0,0,0,0
		c-3.7,3.9-7.4,7.9-11.1,11.8c0,0,0,0,0,0l0,0C780.2,998.5,792.6,988.1,798.9,1003.7z"/>
	<path class="st13" d="M797,1004.9c0.6-0.4,1.2-0.8,1.8-1.2c-6.2-15.6-18.7-5.2-28.4-6.4l0,0C775.9,1011.7,789.7,997,797,1004.9z"/>
	<path class="st13" d="M842.6,982c0-1.3-0.1-2.6-0.1-3.9c0,0,0,0,0,0c-0.9,0.9-1.9,1.7-2.9,2.5c0.1,0.4,0.1,0.8,0.2,1.2
		c0.1,0.3,0.3,0.7,0.5,1C841,982.5,841.8,982.2,842.6,982C842.6,982,842.6,982,842.6,982z"/>
	<path class="st13" d="M839.5,977.9c-11.8-0.3-22.8,6.9-34.9,4.2c0,0,0,0,0,0c-0.5,0-1-0.1-1.5-0.1c0.2,0.7,0.6,1.5,1.1,2.3
		c13.1,6.9,24.7,4.7,35.3-3.7C839.4,979.6,839.4,978.7,839.5,977.9z"/>
	<path class="st13" d="M839.5,977.9c-0.1,0.9-0.1,1.8,0.1,2.7c1-0.8,1.9-1.6,2.9-2.5C841.4,978,840.5,977.9,839.5,977.9z"/>
	<path class="st14" d="M878.7,964c7.1-2.8,11.3-7.5,13.6-15.6c0,0,0,0,0,0c0,0,0,0,0,0c-5.5-0.4-11.1-1.4-15.8,2.8
		C882.1,958,883.1,961.1,878.7,964z"/>
	<path class="st14" d="M878.7,964c-1.3,0.9-3.1,1.7-5.4,2.6c-8.7,3.4-18.5,2.9-26.9,7.7c15.1,1.3,29.7-4.1,45-2.7
		c7.8,0.7,17.7-4.5,18.5-13c1-9.6-11-5.2-15.9-9.3c-0.5-0.4-1.1-0.6-1.7-0.9c0,0,0,0,0,0C890,956.6,885.7,961.2,878.7,964z"/>
	<path class="st14" d="M866,963.7c-3.6,1.1-7.4,2.1-10.8,3.7c5.4-0.5,11.1-0.1,16.3-1.2c2.7-0.6,5-1.3,7.1-2.1
		c4.4-2.9,3.4-6-2.1-12.8c0,0,0,0,0,0C878.8,960.3,872.1,961.8,866,963.7z"/>
	<path class="st14" d="M846.4,974.4c8.3-4.8,18.2-4.3,26.9-7.7c2.3-0.9,4.1-1.8,5.4-2.6c-2.1,0.9-4.5,1.5-7.1,2.1
		c-5.2,1.1-10.9,0.7-16.3,1.2C851.8,968.9,848.8,971,846.4,974.4z"/>
	<path class="st15" d="M835.1,948.4c-12.1-1.5-23.6-1.6-30.1,11.4c1.4,3.5,0.7,8.1,2.6,11.3C814.8,961.2,827.2,957.5,835.1,948.4z"
		/>
	<path class="st15" d="M807.6,971.2c0.9,1.4,2.3,2.6,4.6,3.3c8.1-6,17.8-9.2,25.2-16.5c5.8-5.7,0.9-7-2.3-9.6
		C827.2,957.5,814.8,961.2,807.6,971.2z"/>
	<path class="st16" d="M1127.2,959.3c7.1,6.5,21.5,2.8,23.6,16.2c3.6,1,7.2,1.9,10.8,2.9c-9.4-13.3-19.6-25.6-37.8-26.2
		c-1,2-1.6,3.9-1.7,5.9C1123.8,958.5,1125.5,958.9,1127.2,959.3z"/>
	<path class="st16" d="M1127.2,959.3c-1.7-0.5-3.4-0.9-5-1.3c-0.2,2.9,0.4,5.9,1.8,8.8c0,0,0,0,0,0c0,0,0,0,0,0
		c6.3,6.4,15.7,3.6,22.8,7.6h0c1.3,0.4,2.7,0.7,4,1.1C1148.7,962.2,1134.2,965.8,1127.2,959.3z"/>
	<path class="st17" d="M1118.1,957.2c0.7-1.6,2.5-3.3,5.7-5c-14.9-1.9-29.7-6.5-45-3.8c0,0,0,0,0,0c0,0,0,0,0,0
		C1091.7,952.5,1105,954.3,1118.1,957.2z"/>
	<path class="st17" d="M1118.1,957.2c-13.1-2.9-26.4-4.7-39.3-8.7c0,0,0,0,0,0c12.7,11.8,30.4,11.5,45.1,18.5
		C1119.3,963.7,1116.6,960.4,1118.1,957.2z"/>
	<path class="st17" d="M1118.1,957.2c1.3,0.3,2.7,0.6,4,0.9c0.2-2,0.7-3.9,1.7-5.9C1120.7,953.9,1118.9,955.5,1118.1,957.2z"/>
	<path class="st17" d="M1122.1,958.1c-1.3-0.3-2.7-0.6-4-0.9c-1.5,3.3,1.2,6.5,5.8,9.7c0,0,0,0,0,0
		C1122.5,963.9,1121.9,961,1122.1,958.1z"/>
	<path class="st18" d="M802.8,980.2c-0.2-2.1,0.6-4,1.9-5.8c-6.1-1.8,0.1-9.7,0.3-14.6c-7.8,8.5-15.6,17.1-23.4,25.6
		C788.8,984.7,794.4,973.1,802.8,980.2z"/>
	<path class="st18" d="M804.6,982C804.6,982,804.6,982,804.6,982c2.5-2.5,5.1-5.1,7.6-7.6c-3.6,0.5-6,0.5-7.5,0
		c-1.3,1.8-2.1,3.7-1.9,5.8C803.4,980.7,804,981.3,804.6,982z"/>
	<path class="st18" d="M803.2,982c-0.2-0.6-0.3-1.2-0.4-1.8c-8.4-7.1-14,4.4-21.2,5.3c0,0,0,0,0,0C789.3,988,795.8,982.1,803.2,982z
		"/>
	<path class="st18" d="M804.6,982C804.6,982,804.6,982,804.6,982c-0.6-0.7-1.2-1.3-1.8-1.8c0.1,0.6,0.2,1.2,0.4,1.8
		C803.6,982,804.1,982,804.6,982C804.6,982,804.6,982,804.6,982z"/>
	<path class="st18" d="M804.7,974.5c0.7-1,1.6-1.9,2.6-2.8c0.1-0.2,0.2-0.3,0.4-0.5c-2-3.2-1.2-7.8-2.6-11.3
		C804.8,964.8,798.6,972.7,804.7,974.5z"/>
	<path class="st18" d="M812.2,974.5c-2.4-0.7-3.8-1.8-4.6-3.3c-0.1,0.2-0.2,0.3-0.4,0.5c-1,0.9-1.8,1.8-2.6,2.8
		C806.3,974.9,808.7,975,812.2,974.5z"/>
	<path class="st16" d="M956.9,953.6c10.2,0.1,20.4,0.3,30.5,1.6c-10.1-9-22.5-6-34.2-6.6C954.8,950.1,956.2,951.7,956.9,953.6z"/>
	<path class="st16" d="M956.7,959c10.2-1.4,20.9,1.3,30.6-3.8c-10.1-1.3-20.3-1.6-30.5-1.6C957.5,955.2,957.5,957,956.7,959z"/>
	<path class="st19" d="M939.1,954.3c4.4-0.7,8.9-0.6,13.4-0.6c-0.6-1.4-0.5-3,0.7-5c-6.3-0.1-12.7-0.1-19-0.2c0,0,0,0,0,0
		c0,0,0,0,0,0C936,950.2,937.9,951.9,939.1,954.3z"/>
	<path class="st19" d="M933.9,955.4C933.9,955.4,933.9,955.4,933.9,955.4c1.7-0.6,3.4-0.9,5.2-1.2c-1.2-2.3-3.1-4-5-5.8c0,0,0,0,0,0
		C934,950.8,934,953.1,933.9,955.4C933.9,955.4,933.9,955.4,933.9,955.4z"/>
	<path class="st19" d="M940.4,958.2c5.3,1.3,10.8,0.9,16.3,0.8c0,0,0,0,0,0c0,0,0,0,0,0c-1.5-1.8-3.4-3.4-4.2-5.4
		c-4.5,0.1-9,0-13.4,0.6c0.1,0.1,0.2,0.3,0.2,0.4C939.7,956,940,957.1,940.4,958.2z"/>
	<path class="st19" d="M939.3,954.7c-0.1-0.2-0.2-0.3-0.2-0.4c-1.7,0.3-3.5,0.6-5.2,1.2c0,0,0,0,0,0c2.1,1.4,4.3,2.2,6.5,2.8
		C940,957.1,939.7,956,939.3,954.7z"/>
	<path class="st19" d="M952.5,953.6c1,0,2,0,3-0.1c0.5,0,1,0,1.5,0c-0.7-1.8-2.1-3.4-3.7-4.9C951.9,950.6,951.9,952.2,952.5,953.6z"
		/>
	<path class="st19" d="M956.7,959c0.8-2.1,0.8-3.9,0.2-5.4c-0.5,0-1,0-1.5,0c-1,0-2,0.1-3,0.1C953.3,955.6,955.2,957.2,956.7,959
		C956.7,959,956.7,959,956.7,959z"/>
	<path class="st20" d="M1159,980.9c6.5,4.8,9,14.4,14.7,20.1c-1-9.2-3.9-17.4-12.1-22.6c0,0,0,0,0,0c0,0,0,0,0,0
		C1160.5,979.6,1159.8,980.5,1159,980.9z"/>
	<path class="st20" d="M1152,978.2c-0.4-0.3-0.8-0.5-1.2-0.8c0,0.2-0.1,0.5-0.1,0.7C1151.2,978.1,1151.6,978.1,1152,978.2z"/>
	<path class="st20" d="M1150.7,978.1c0-0.2,0.1-0.5,0.1-0.7c-1.2-0.8-2.5-1.8-4.1-2.9c0,0,0,0,0,0c0,1.3,0,2.5,0,3.8
		C1148.2,978.1,1149.5,978,1150.7,978.1z"/>
	<path class="st20" d="M1159,980.9c-1.4,0.7-3.1,0-7-2.7c-0.4,0-0.8-0.1-1.3-0.1c-0.2,1-0.5,1.9-0.9,2.8c8,6.7,15.9,13.4,23.9,20.2
		c0,0,0,0,0,0C1168,995.3,1165.5,985.7,1159,980.9z"/>
	<path class="st20" d="M1149.8,980.9c0.4-0.9,0.7-1.8,0.9-2.8c-1.2-0.1-2.6,0-4,0.2c0,0,0,0,0,0
		C1147.7,979.1,1148.8,980,1149.8,980.9z"/>
	<path class="st20" d="M1150.9,976.7c0,0.2-0.1,0.4-0.1,0.7c0.4,0.3,0.8,0.6,1.2,0.8c2.8,0.3,5.1,1.3,7,2.7c0.8-0.4,1.5-1.3,2.6-2.5
		c0,0,0,0,0,0c-3.6-1-7.2-1.9-10.8-2.9C1150.8,975.9,1150.9,976.3,1150.9,976.7z"/>
	<path class="st20" d="M1150.9,976.7c0-0.4-0.1-0.8-0.2-1.2c-1.3-0.4-2.7-0.7-4-1.1c1.6,1.1,2.9,2.1,4.1,2.9
		C1150.9,977.2,1150.9,976.9,1150.9,976.7z"/>
	<path class="st20" d="M1159,980.9c-1.9-1.4-4.2-2.4-7-2.7C1155.9,980.9,1157.6,981.6,1159,980.9z"/>
	<path class="st10" d="M1002.7,951.5c-1.3-1.3-2.6-1.7-3.8,0.1c0,0,0,0,0,0c0,0,0,0,0,0C1000.1,950.3,1001.4,950.2,1002.7,951.5z"/>
	<path class="st10" d="M998.9,951.6C998.9,951.6,998.9,951.6,998.9,951.6c1.3,0,2.6-0.1,3.8-0.1
		C1001.4,950.2,1000.1,950.3,998.9,951.6z"/>
	<path class="st20" d="M913.2,1010.1c4.8-5.7,12.4-8.3,20.9-10.2c24.7,1,49.9-5.5,73.9,4.9c2.1,1.9,4.1,3.7,6.1,5.7
		c9.7-3.4,20-1.1,29.9-2.1c0,0,0,0,0,0c-2.8-13.5-16.6-4.5-22.7-11.2c-7.8-0.3-12.5-3.6-14.4-9.9c-10.9-0.5-22.9,5.9-32.2-5
		c-0.3-0.4-0.5-0.7-0.7-1.1c-5.3,8.7-10.6,4.9-15.8-1.2c-1.2,1.6-2.8,3.2-4.9,4.9c-36.5,3.6-72.9,12-109.6,2.1
		c-1-0.8-1.8-1.7-2.4-2.7c-7.9,13.7-24.1,21.5-42.4,20.5c-0.6,5,3,2.7,5.8,1.9c6.4-0.1,12.1,1.5,15.1,5.6c21.6,0,43.1,0,64.7-0.1
		C894,1011.7,903.6,1010.9,913.2,1010.1z"/>
	<path class="st20" d="M1008,1004.8c-24-10.4-49.2-3.9-73.9-4.9c-8.5,1.9-16.1,4.5-20.9,10.2c5.6-0.5,11.2-0.9,16.8-1.4c0,0,0,0,0,0
		c0,0,0,0,0,0c26.6,1.2,53.5-3.2,79.8,3.8c0,0,0,0,0,0c1.4-0.8,2.8-1.4,4.2-1.9C1012.2,1008.6,1010.1,1006.7,1008,1004.8z"/>
	<path class="st20" d="M974,981.4c0.2,0.3,0.4,0.7,0.7,1.1c9.4,10.8,21.3,4.5,32.2,5c-0.5-1.6-0.8-3.4-0.8-5.4c0,0,0,0,0,0
		c0,0,0,0,0,0c-9.5-6.4-20.5-0.6-30.5-3.6c0,0,0,0,0,0C975.1,979.5,974.6,980.5,974,981.4z"/>
	<path class="st20" d="M819.8,1012.6c-3-4.1-8.7-5.7-15.1-5.6c-2.8,0.8-6.4,3.1-5.8-1.9c-0.6,0-1.2-0.1-1.8-0.1
		c-2.6,1.7-7.7,4.5-7.5,4.9c2.4,5.2,7.5,1.7,11.3,2.8c0,0,0,0,0,0c0,0,0,0,0,0C807.2,1012.6,813.5,1012.6,819.8,1012.6z"/>
	<path class="st20" d="M843.7,987.1c36.7,9.9,73.1,1.5,109.6-2.1c2.1-1.7,3.8-3.3,4.9-4.9c-0.5-0.6-1.1-1.3-1.6-1.9c0,0,0,0,0,0
		c-38.1-0.7-75.9,6.4-114.1,3.8c0,0,0,0,0,0c-0.4,0.9-0.9,1.7-1.3,2.5C841.9,985.5,842.7,986.4,843.7,987.1z"/>
	<path class="st20" d="M974,981.4c-0.4-0.7-0.8-1.3-1.1-2c-4.5,1.2-9-0.4-13.5-1c-0.3,0.6-0.7,1.2-1.1,1.8
		C963.5,986.3,968.7,990.1,974,981.4z"/>
	<path class="st20" d="M975.7,978.3C975.7,978.3,975.7,978.3,975.7,978.3L975.7,978.3c-0.9,0.5-1.8,0.8-2.7,1.1
		c0.3,0.6,0.7,1.3,1.1,2C974.6,980.5,975.1,979.5,975.7,978.3z"/>
	<path class="st20" d="M959.4,978.4c-0.9-0.1-1.8-0.2-2.7-0.2c0.5,0.7,1.1,1.3,1.6,1.9C958.7,979.5,959.1,979,959.4,978.4z"/>
	<path class="st20" d="M798.8,1005c18.3,1,34.4-6.9,42.4-20.5c-0.4-0.5-0.7-1.1-1-1.7c-14.8,4.9-28.4,12.4-41.4,20.9
		c0,0.1,0.1,0.2,0.1,0.3C798.9,1004.4,798.9,1004.7,798.8,1005z"/>
	<path class="st20" d="M799,1004c0-0.1-0.1-0.2-0.1-0.3c-0.6,0.4-1.2,0.8-1.8,1.2c0.6,0.1,1.2,0.1,1.8,0.1
		C798.9,1004.7,798.9,1004.4,799,1004z"/>
	<path class="st20" d="M842.6,982c-0.8,0.2-1.6,0.5-2.3,0.8c0.3,0.6,0.6,1.2,1,1.7C841.7,983.7,842.1,982.8,842.6,982z"/>
	<path class="st21" d="M1045.9,1053.9c-0.3,1.4-0.8,2.8-1.4,4.4c-6.8,6.2-15.4,5.2-23.4,5.1c-31-0.2-62,1.8-92.9-1.3
		c-4.5-0.5-9.5-1.3-12.8,2c-4.7,4.8-9.7,8.1-15,10.4c3.2-1.2,6.4-2.6,9.6-4.2c7.4-3.8,16.1-2.9,24.2-2.5c45.5,2.5,91-1.5,136.5-0.1
		c3.7,0.1,11.3,4.6,9.8-5.6c0.1-0.8,0.3-1.6,0.5-2.3C1069.8,1055.2,1058.3,1051.9,1045.9,1053.9z"/>
	<path class="st21" d="M900.4,1074.5c5.2-2.3,10.3-5.6,15-10.4c3.2-3.3,8.3-2.5,12.8-2c30.9,3.1,61.9,1.1,92.9,1.3
		c8,0.1,16.6,1.1,23.4-5.1c0.7-1.6,1.1-3,1.4-4.4c-0.6,0.1-1.2,0.2-1.9,0.3c0,0,0,0,0,0l0,0c-41.6-1.3-83.4,3.1-125-3.3
		c-6.5-1-17.5-1.7-17.8,6c-0.6,14.4-9.9,12.1-18.1,13.2c-10.6,1.4-21.4,1.8-32,3.5c-6.5,1.1-16.4,1.2-22.6,2.9h65.8
		C896.4,1075.9,898.4,1075.3,900.4,1074.5z"/>
	<path class="st21" d="M1110.8,1072c1.2-9.9-10.4-4.5-15.9-7.1c-2.8-1.3-6-2-9-3c-1.6-0.7-3.3-1.4-4.9-2.1c-0.2,0.8-0.3,1.5-0.5,2.3
		c1.5,10.2-6.1,5.7-9.8,5.6c-45.5-1.4-91,2.5-136.5,0.1c-8.1-0.4-16.9-1.3-24.2,2.5c-3.2,1.6-6.4,3-9.6,4.2c-1.7,0.8-3.5,1.4-5.2,2
		h169.1c3.4,0,6.8,0,10.2,0h32.7C1109.2,1075.8,1110.5,1074.4,1110.8,1072z"/>
	<path class="st21" d="M895.2,1076.5c1.8-0.6,3.5-1.2,5.2-2c-2,0.7-4,1.4-6,2H895.2z"/>
	<path class="st21" d="M1092.4,1076.9c4.4,0.2,10.8,1.2,14.8-0.4h-32.7C1080.5,1076.6,1086.5,1076.7,1092.4,1076.9z"/>
	<path class="st21" d="M850.3,1034.5c14.8-3.5,28.6-6.2,43.5-3.2c6.4,1.3,13.5,1.9,14.2-7.2c0.3-3.8,1.2-7,2.5-9.7
		c-4.7,1.4-9.5,2.6-14.4,3.3c0.6,0.3,1.3,0.6,1.9,0.9c0.1,1.6,0.1,3.1,0.2,4.7c-27.6-2.5-54.2,5.8-81.6,5.9
		c-4.1,2.5-9.7,3.5-14.2,5.3c-0.2,0-0.5,0-0.7,0C816.6,1044.3,834.3,1038.3,850.3,1034.5z"/>
	<path class="st21" d="M804.2,1045.3c16.8,1.9,34.3,5.1,50-2.3c14.8-7,27-9.6,42.1,0.1c12.4,8,27.3-1,22.3-12.2
		c-6.7-15.3,5.1-16.3,11.5-22.2c-6.6,1.6-13.1,3.8-19.6,5.7c-1.3,2.7-2.2,5.9-2.5,9.7c-0.7,9.1-7.8,8.5-14.2,7.2
		c-14.9-3.1-28.7-0.3-43.5,3.2c-16,3.8-33.6,9.8-48.7,0c-3.1-0.1-5.7-1.6-8.4-3c0,0,0,0,0,0C794.8,1037.8,797,1044.5,804.2,1045.3z"
		/>
	<path class="st21" d="M801.6,1034.5c0.2,0,0.5,0,0.7,0c4.5-1.8,10.2-2.8,14.2-5.3c-6.5,0-13-0.4-19.5-1.5c0,0,0,0,0,0
		c-0.6,0.6-1.1,1.1-1.7,1.7C797.4,1031.4,799.5,1033.1,801.6,1034.5z"/>
	<path class="st21" d="M793.2,1031.5C793.2,1031.5,793.2,1031.5,793.2,1031.5c2.6,1.5,5.3,2.9,8.4,3c-2.1-1.4-4.2-3.1-6.2-5.2
		C794.7,1030.1,793.9,1030.8,793.2,1031.5C793.2,1031.5,793.2,1031.5,793.2,1031.5z"/>
	<path class="st21" d="M884.4,1012.5c3.9,1.7,7.8,3.5,11.6,5.2c4.9-0.7,9.6-1.9,14.4-3.3c0.8-1.6,1.7-3.1,2.8-4.3
		C903.6,1010.9,894,1011.7,884.4,1012.5z"/>
	<path class="st21" d="M913.2,1010.1c-1.1,1.3-2,2.7-2.8,4.3c6.5-1.9,13-4.1,19.6-5.7c0,0,0,0,0,0
		C924.5,1009.2,918.9,1009.6,913.2,1010.1z"/>
	<path class="st21" d="M1074.5,1020.1C1074.5,1020.1,1074.5,1020.1,1074.5,1020.1c-16.8,11.6-36.1,9.8-54.8,10.9
		c-0.6,1-1.4,1.9-2.2,2.9c15.5,3,31.1,5.3,45.6,12.7c0.4,0.2,0.8,0.4,1.2,0.6c2.1,0.3,4.1,0.9,6.2,1.8c5.6,0.6,10.7-2.1,13-10.7
		c2-7.4,6.2-8.5,11.2-5.1c0.2-0.4,0.5-0.8,0.7-1.1c6.2-4.1,12.1-2.2,17.9,0.8c3.2,2,4.5,5,5.7,8.2c9.7,1.8,19-0.8,28.4-3.1
		c-4.2-4.5-6.7-10.2-7.6-17c-0.6-1-1.2-1.9-1.8-2.6C1116.9,1020.1,1095.8,1022.1,1074.5,1020.1z"/>
	<path class="st21" d="M1113.3,1032.8c-5.8-3-11.7-4.9-17.9-0.8c-0.2,0.4-0.5,0.8-0.7,1.1c0.9,0.6,1.7,1.3,2.6,2.2c0,0,0,0,0,0
		c0,0,0,0,0,0c5.1,1.3,10.1,2.5,15.2,3.8c2.2,0.9,4.3,1.5,6.5,1.9C1117.7,1037.8,1116.4,1034.8,1113.3,1032.8z"/>
	<path class="st21" d="M1019.7,1031c-2,0.1-4,0.3-6,0.5c0,0,0,0,0,0c0,0,0,0,0,0c-2.5,0-5.1,0-7.6,0c3.8,0.9,7.6,1.6,11.4,2.4
		C1018.3,1032.9,1019.1,1032,1019.7,1031z"/>
	<path class="st21" d="M1139.8,1020.8c0.9,6.8,3.4,12.6,7.6,17c4.8-1.2,9.7-2.3,14.6-2.6v0c0,0,0,0,0,0c-3.6-4-12.3-2.7-12.7-12.2
		c8.5,1.2,17.2,4,20.2-6.9c-10.5,0.3-21,1.2-31.4,2.1C1138.6,1019,1139.2,1019.8,1139.8,1020.8z"/>
	<path class="st21" d="M1064.3,1047.2c2.1,0.9,4.2,1.6,6.2,1.8C1068.4,1048,1066.4,1047.4,1064.3,1047.2z"/>
	<path class="st22" d="M1120.9,1045.7c0.7,1.5,1.7,3,3,4.2c12.6,12.4,34.3,10.8,48.7-4.4c-5.2,2-10.6,1.5-16-1.2
		c-1-0.5-1.9-0.9-2.8-1.5C1142.2,1052.2,1132.3,1053.1,1120.9,1045.7z"/>
	<path class="st22" d="M1123.9,1049.9c-1.3-1.3-2.2-2.7-3-4.2c-2.7-1.7-5.5-3.9-8.4-6.6c-0.2,10.6,9.5,16.1,12.7,24.6
		c5.2,13.7,13,13.7,22.9,6.2c10.1-7.7,18.8-10.3,23.8,6.7h3c3.5-13.9,1.5-23.9,2.3-33.5c-1.5,1.1-3.1,1.9-4.6,2.5
		C1158.2,1060.7,1136.5,1062.3,1123.9,1049.9z"/>
	<path class="st22" d="M1153.8,1042.9c0.9,0.5,1.8,1,2.8,1.5c5.5,2.6,10.8,3.2,16,1.2c1-1.1,2-2.2,2.9-3.4c-4.5-2.3-9-4.6-13.5-6.9
		C1159.1,1038.2,1156.4,1040.8,1153.8,1042.9z"/>
	<path class="st22" d="M1177.2,1043C1177.2,1043,1177.2,1043,1177.2,1043c-0.6-0.3-1.1-0.6-1.7-0.9c-0.9,1.2-1.9,2.3-2.9,3.4
		C1174.1,1044.9,1175.7,1044.1,1177.2,1043z"/>
	<path class="st22" d="M1119,1041c0.6,1.6,1.2,3.2,1.9,4.7c11.4,7.4,21.3,6.5,32.9-2.8c-2.5-1.4-4.6-3.1-6.4-5
		C1138,1040.2,1128.7,1042.8,1119,1041z"/>
	<path class="st22" d="M1112.5,1039.1c2.9,2.7,5.7,4.9,8.4,6.6c-0.8-1.5-1.3-3.1-1.9-4.7C1116.8,1040.6,1114.7,1040,1112.5,1039.1z"
		/>
	<path class="st22" d="M1147.4,1037.9c1.8,1.9,3.9,3.6,6.4,5c2.6-2.1,5.3-4.7,8.2-7.6v0C1157,1035.6,1152.2,1036.7,1147.4,1037.9z"
		/>
	<path class="st23" d="M1063.1,1004.9c-1.2,0-2.5,0-3.7,0c0,0,0,0,0,0c-3.2,6.9-7.1,10.4-13,5.7c-0.4,0.5-0.8,1-1.3,1.4
		c-9.3,2.8-18.6,3.2-27.9,1.8c1.6,1.9,3,4,4.1,6.3c12.1,0,24.3,0,36.4,0c5.2-1.1,10.3-2.7,15.1-5c7.6-0.2,15.2-0.4,22.9-0.7
		c-5.9-0.5-11.5-1.9-16.9-5.5c-3.3-0.3-6.6-0.9-9.8-1.9C1067,1006.9,1065,1006.2,1063.1,1004.9z"/>
	<path class="st23" d="M1017.2,1013.9c-2.4-0.4-4.9-0.8-7.3-1.4c0,0,0,0,0,0c-1.3,6.4,2.8,7.4,7.6,7.7c1.2,0,2.5,0,3.7,0
		C1020.1,1017.8,1018.7,1015.8,1017.2,1013.9z"/>
	<path class="st23" d="M1078.8,1009c5.3,3.6,11,5,16.9,5.5c24.6-0.8,49.2-1.4,73.7,1.7c-14.7-5.4-30.4-4.8-45.5-7.5c0,0,0,0,0,0
		C1109,1006.8,1093.8,1010.5,1078.8,1009z"/>
	<path class="st23" d="M1120,1007.1c1.3,0.5,2.6,1,3.9,1.6C1122.6,1008,1121.3,1007.4,1120,1007.1z"/>
	<path class="st23" d="M1045,1012c0.5-0.5,0.9-1,1.3-1.4c-0.7-0.6-1.5-1.3-2.3-2.1c0,0,0,0,0,0c0,0,0,0,0,0
		c-9.9,1-20.3-1.3-29.9,2.1c1.1,1.1,2.1,2.2,3,3.3C1026.5,1015.2,1035.8,1014.8,1045,1012z"/>
	<path class="st23" d="M1014.1,1010.5c-1.4,0.5-2.8,1.1-4.2,1.9c2.4,0.6,4.9,1.1,7.3,1.4C1016.2,1012.7,1015.2,1011.6,1014.1,1010.5
		z"/>
	<path class="st23" d="M1057.7,1020.1c5.6,0,11.2,0,16.8,0c0,0,0,0,0,0c0,0,0,0,0,0c21.3,2,42.4,0,63.5-1.9
		c-5-5.6-12.5-2.8-18.9-3.7c-7.7-0.4-15.7,0.6-23.4-0.1c-7.6,0.2-15.2,0.5-22.9,0.7C1068,1017.5,1062.9,1019,1057.7,1020.1z"/>
	<path class="st23" d="M1095.7,1014.5c7.7,0.6,15.6-0.3,23.4,0.1c6.4,0.9,13.9-1.9,18.9,3.7c10.5-0.9,20.9-1.8,31.4-2.1
		C1144.9,1013.1,1120.3,1013.7,1095.7,1014.5z"/>
	<path class="st24" d="M1044.9,1045.5c1.4,1.8,1.8,4.2,1.3,7.2c2.1-1.5,4.2-2.7,6.3-3.6c-0.8-0.4-1.7-0.7-2.4-1.2
		C1048.3,1047,1046.6,1046.2,1044.9,1045.5z"/>
	<path class="st24" d="M1077.6,1053.5c1.3,1.1,2.7,2.3,4.1,3.7c0.5-1.7,1.1-3.4,1.9-5c-1.2,0.8-2.6,1.3-4.5,1.3
		C1078.5,1053.5,1078.1,1053.5,1077.6,1053.5z"/>
	<path class="st24" d="M1044.9,1045.5c-8.4-3.3-16.7-4-25.3-5.6c-4.9-0.9-14,2.1-13.5-8.4c-6.6,1.2-14.9-2.7-20.3,6.9
		c19.7,7.9,41.8,2,58.3,15.9c0.7-0.6,1.4-1.1,2.1-1.6C1046.7,1049.7,1046.3,1047.3,1044.9,1045.5z"/>
	<path class="st24" d="M1083.5,1052.2c-0.7,1.6-1.3,3.3-1.9,5c1.4,1.4,2.8,3,4.2,4.7c2-9.6,11.9-15.9,11.4-26.6
		c-1.1,0.6-2.1,1.4-3.2,2C1088.6,1040.4,1088.3,1048.9,1083.5,1052.2z"/>
	<path class="st24" d="M1077.6,1053.5c-8.5-0.1-17.9-1.3-25.1-4.4c-2.1,0.9-4.2,2.1-6.3,3.6c-0.1,0.4-0.2,0.8-0.3,1.2
		c12.4-2.1,23.8,1.3,35,5.8c0.2-0.9,0.4-1.8,0.7-2.6C1080.3,1055.8,1078.9,1054.6,1077.6,1053.5z"/>
	<path class="st24" d="M1044.1,1054.3C1044.1,1054.3,1044.1,1054.3,1044.1,1054.3c0.6-0.1,1.2-0.2,1.9-0.3c0.1-0.4,0.2-0.8,0.3-1.2
		C1045.5,1053.2,1044.8,1053.7,1044.1,1054.3z"/>
	<path class="st24" d="M1081.7,1057.2c-0.3,0.9-0.5,1.7-0.7,2.6c1.7,0.7,3.3,1.4,4.9,2.1C1084.5,1060.2,1083.1,1058.6,1081.7,1057.2
		z"/>
	<path class="st24" d="M1079,1053.5c1.9,0,3.3-0.5,4.5-1.3c3-6.7,7.4-12.7,11.2-19c-5-3.4-9.2-2.3-11.2,5.1
		c-2.3,8.6-7.4,11.3-13,10.7c2.4,1.1,4.7,2.6,7.1,4.5C1078.1,1053.5,1078.5,1053.5,1079,1053.5z"/>
	<path class="st24" d="M1011.2,1036.9c7.6,1.8,14.7,4.7,22.4,4.8c5.7,0,9.4,1.4,11.4,3.9c1.7,0.7,3.4,1.5,5.2,2.4
		c0.8,0.4,1.6,0.8,2.4,1.2c4-1.8,7.9-2.4,11.7-1.9c-0.4-0.2-0.8-0.4-1.2-0.6c-14.5-7.4-30.1-9.8-45.6-12.7c-0.1,0.1-0.2,0.2-0.3,0.3
		C1015.3,1035.6,1013.3,1036.7,1011.2,1036.9z"/>
	<path class="st24" d="M1019.6,1039.9c8.6,1.6,16.9,2.3,25.3,5.6c-1.9-2.5-5.7-3.8-11.4-3.9c-7.7-0.1-14.7-2.9-22.4-4.8
		c2.1-0.2,4.2-1.3,6.1-2.8c0.1-0.1,0.2-0.2,0.3-0.3c-3.8-0.7-7.6-1.5-11.4-2.4C1005.6,1042,1014.7,1039,1019.6,1039.9z"/>
	<path class="st24" d="M1094.7,1033.2c-3.8,6.3-8.2,12.3-11.2,19c4.8-3.3,5.1-11.8,10.6-14.9c1.1-0.6,2.1-1.4,3.2-2c0,0,0,0,0,0
		C1096.4,1034.5,1095.5,1033.7,1094.7,1033.2z"/>
	<path class="st24" d="M1052.5,1049.1c7.2,3.1,16.6,4.3,25.1,4.4c-2.4-1.9-4.7-3.4-7.1-4.5c-2-0.2-4.1-0.9-6.2-1.8
		C1060.4,1046.7,1056.5,1047.3,1052.5,1049.1z"/>
	<path class="st24" d="M1021.8,1022c0.3,2.1,0.1,4.1-0.6,5.9c3.5-1.3,7.1-2.3,10.8-3.2C1028.6,1024.3,1025.2,1023.4,1021.8,1022z"/>
	<path class="st24" d="M1021.8,1022c-1.4-0.6-2.8-1.2-4.3-1.9c-1.3,3.8-2.5,7.6-3.8,11.4c2.4-1.4,5-2.5,7.5-3.5
		C1021.9,1026.1,1022.1,1024.2,1021.8,1022z"/>
	<path class="st24" d="M1032,1024.8c-3.7,0.8-7.3,1.8-10.8,3.2c-0.4,1.1-0.9,2.1-1.5,3c18.7-1.1,38,0.7,54.8-10.9
		C1060.3,1023,1046.2,1027,1032,1024.8z"/>
	<path class="st24" d="M1019.7,1031c0.6-1,1.1-2,1.5-3c-2.6,1-5.1,2.1-7.5,3.5c0,0,0,0,0,0C1015.7,1031.3,1017.7,1031.1,1019.7,1031
		z"/>
	<path class="st24" d="M1021.8,1022c3.4,1.3,6.8,2.2,10.2,2.8c8.5-1.9,17.2-2.8,25.7-4.7c-12.1,0-24.3,0-36.4,0
		c0.1,0.2,0.2,0.3,0.3,0.5C1021.6,1021.1,1021.7,1021.6,1021.8,1022z"/>
	<path class="st24" d="M1021.5,1020.6c-0.1-0.2-0.2-0.3-0.3-0.5c-1.2,0-2.5,0-3.7,0c1.4,0.7,2.8,1.4,4.3,1.9
		C1021.7,1021.6,1021.6,1021.1,1021.5,1020.6z"/>
	<path class="st24" d="M1074.5,1020.1C1074.5,1020.1,1074.5,1020.1,1074.5,1020.1c-5.6,0-11.2,0-16.8,0c-8.5,1.9-17.2,2.8-25.7,4.7
		C1046.2,1027,1060.3,1023,1074.5,1020.1z"/>
	<path class="st25" d="M993.4,1016.6c-15.8-6-25.9,0-36.1,1.7C967.5,1019.4,977.7,1021.7,993.4,1016.6z"/>
	<path class="st20" d="M1052.5,996.2c1.2,1.8,2.5,3.4,3.9,5.1c1.3-1,2.7-1.9,4.3-2.5c2-0.5,4-0.6,6-0.3c2.6,2.5,5.4,4.2,8.3,5.5
		c-3.1-7.5-1.9-12.8,2.3-16.5c-20.8-3-41.5-5-62.4-1c3.9,1.5,7.9,2.9,11.4,5.1C1035.5,982.4,1044.4,984,1052.5,996.2z"/>
	<path class="st20" d="M1077.2,987.5c2.9-2.5,7.2-4.2,12.5-5.4c-27.9-6.4-55.7-5.5-83.6-0.1c2.6,2,5.6,3.3,8.6,4.5
		C1035.7,982.5,1056.4,984.5,1077.2,987.5z"/>
	<path class="st20" d="M1074.9,1003.9c0.8,0.4,1.7,0.7,2.5,0.9c0.3,0,0.6,0,0.9,0c0,0,0,0,0,0c1-6.1,3.9-11.2,7-16.2
		c-2.7-0.4-5.4-0.8-8.2-1.2C1073,991.1,1071.8,996.4,1074.9,1003.9z"/>
	<path class="st20" d="M1085.4,988.7c1.4-2.2,2.9-4.4,4.4-6.7c0,0,0,0,0,0c-5.3,1.2-9.6,2.9-12.5,5.4
		C1079.9,987.8,1082.6,988.3,1085.4,988.7z"/>
	<path class="st20" d="M1021.3,997.3c1.6-2.2,3.2-4.1,4.9-5.7c-3.5-2.2-7.5-3.5-11.4-5.1c-1.8,0.3-3.5,0.7-5.3,1.1
		c-0.8-0.1-1.7-0.2-2.5-0.2C1008.8,993.6,1013.6,996.9,1021.3,997.3z"/>
	<path class="st20" d="M1007,987.4c0.8,0,1.7,0.1,2.5,0.2c1.8-0.4,3.5-0.8,5.3-1.1c-3-1.2-6-2.5-8.6-4.5c0,0,0,0,0,0
		C1006.2,984,1006.5,985.8,1007,987.4z"/>
	<path class="st20" d="M1060.6,998.7c-1.6,0.6-2.9,1.5-4.3,2.5c1,1.2,2,2.4,3,3.6c0,0,0,0,0,0c0,0,0,0,0,0c1.2,0,2.5,0,3.7,0
		c4.1,0,8.2,0,12.2-0.1c-0.1-0.3-0.3-0.6-0.4-1c-2.9-1.2-5.7-3-8.3-5.5C1064.6,998.1,1062.6,998.2,1060.6,998.7z"/>
	<path class="st20" d="M1063.1,1004.9c2,1.2,3.9,1.9,5.9,2.2C1067,1006.5,1065,1005.8,1063.1,1004.9z"/>
	<path class="st20" d="M1077.4,1004.9c-0.8-0.3-1.7-0.6-2.5-0.9c0.1,0.3,0.3,0.6,0.4,1C1076,1004.9,1076.7,1004.9,1077.4,1004.9z"/>
	<path class="st6" d="M821.7,1017.4c0.1,0.8,0.2,1.7,0.2,2.7c-0.1,1.6-0.4,3-0.9,4.2c8.5-1.8,17.1-3.9,25.7-5.3
		C838.3,1019,830,1018.6,821.7,1017.4z"/>
	<path class="st6" d="M876.8,1018.4c-1,0-1.9,0.1-2.9,0.1C874.9,1018.6,875.8,1018.6,876.8,1018.4z"/>
	<path class="st6" d="M821.8,1020.1c0-1,0-1.8-0.2-2.7c-7-1-13.9-2.5-20.8-4.8c3.9,3.8,10.8,2,14.6,8.4c-6.4,2.3-12.4,4.5-18.4,6.7
		c0,0,0,0,0,0c8.1-0.3,16-1.7,23.9-3.4C821.5,1023.1,821.8,1021.7,821.8,1020.1z"/>
	<path class="st6" d="M873.8,1018.5c0.1,0,0.1,0,0.2,0c1,0,1.9-0.1,2.9-0.1c3-0.5,6.1-2.4,7.6-5.9c-21.6,0-43.1,0-64.7,0.1
		c1,1.3,1.6,2.9,1.9,4.8c8.3,1.2,16.6,1.6,24.9,1.7C855.5,1017.7,864.5,1017.1,873.8,1018.5z"/>
	<path class="st6" d="M819.8,1012.6c-6.3,0-12.6,0-18.9,0c0,0,0,0,0,0c6.9,2.3,13.8,3.8,20.8,4.8
		C821.4,1015.5,820.7,1013.9,819.8,1012.6z"/>
	<path class="st6" d="M898.2,1023.3c-0.1-1.6-0.1-3.1-0.2-4.7c-0.6-0.3-1.3-0.6-1.9-0.9c-4.4,0.6-8.8,0.9-13.4,0.5
		c-2,0-3.9,0.1-5.9,0.1c-1,0.2-2,0.2-2.9,0.1c-9.1,0.3-18.2,0.6-27.3,0.6c-8.6,1.3-17.1,3.5-25.7,5.3c-0.9,2.2-2.5,3.7-4.4,4.9
		C843.9,1029.1,870.6,1020.7,898.2,1023.3z"/>
	<path class="st6" d="M816.6,1029.2c1.9-1.2,3.5-2.7,4.4-4.9c-7.9,1.7-15.8,3.1-23.9,3.4C803.6,1028.8,810.1,1029.3,816.6,1029.2z"
		/>
	<path class="st6" d="M876.8,1018.4c2-0.1,3.9-0.1,5.9-0.1c4.6,0.4,9,0.1,13.4-0.5c-3.9-1.7-7.8-3.5-11.6-5.2
		C882.9,1016,879.8,1017.9,876.8,1018.4z"/>
	<path class="st6" d="M846.6,1019.1c9.1,0.1,18.2-0.3,27.3-0.6c-0.1,0-0.1,0-0.2,0C864.5,1017.1,855.5,1017.7,846.6,1019.1z"/>
	<path class="st24" d="M1101.8,1006.9c6,0.1,12.2-1.5,18.2,0.1c-13.6-4.6-27.8-1-41.7-2.2h0c-0.1,0.1-0.2,0.1-0.3,0.2
		C1085.5,1007.3,1093.7,1006.8,1101.8,1006.9z"/>
	<polygon class="st24" points="1123.9,1008.7 1123.9,1008.7 1123.9,1008.7 	"/>
	<path class="st24" d="M1069,1007.1c3.3,1,6.5,1.5,9.8,1.9c-0.8-0.5-1.6-1.1-2.4-1.8c-0.2-0.4-0.4-0.8-0.6-1.1
		C1073.6,1007,1071.3,1007.4,1069,1007.1z"/>
	<path class="st24" d="M1101.8,1006.9c-8.1-0.1-16.3,0.4-23.8-1.9c-0.7,0.4-1.4,0.7-2.1,1c0.2,0.4,0.4,0.8,0.6,1.1
		c0.8,0.6,1.6,1.2,2.4,1.8c14.9,1.5,30.2-2.2,45.1-0.3c0,0,0,0,0,0c-1.3-0.6-2.6-1.2-3.9-1.6C1114,1005.5,1107.8,1007,1101.8,1006.9
		z"/>
	<path class="st24" d="M1078,1005c0.1-0.1,0.2-0.1,0.3-0.2c-0.3,0-0.6,0-0.9,0C1077.6,1004.9,1077.8,1005,1078,1005z"/>
	<path class="st24" d="M1063.1,1004.9c2,0.9,3.9,1.6,5.9,2.2c2.3,0.3,4.6-0.1,6.9-1c-0.2-0.4-0.4-0.8-0.6-1.2
		C1071.2,1004.9,1067.1,1004.9,1063.1,1004.9z"/>
	<path class="st24" d="M1075.9,1006.1c0.7-0.3,1.4-0.6,2.1-1c-0.2-0.1-0.4-0.1-0.6-0.2c-0.7,0-1.4,0-2.1,0
		C1075.5,1005.3,1075.7,1005.7,1075.9,1006.1z"/>
	<path class="st24" d="M1051.2,1002.9c-5-7.8-10.9-10.1-17.4-9.5c2.4,0.1,4.8,0.1,7.1,1c8,3.2,10.5,7.4,7.6,12.8
		c1.4-0.7,2.8-1.7,4-2.8C1052,1004.1,1051.6,1003.6,1051.2,1002.9z"/>
	<path class="st24" d="M1040.9,994.4c-2.3-0.9-4.7-0.9-7.1-1c-4,0.4-8.2,1.8-12.4,3.8c6.1,6.7,19.9-2.2,22.7,11.2
		c1.7-0.1,3.1-0.6,4.5-1.2C1051.3,1001.8,1048.9,997.6,1040.9,994.4z"/>
	<path class="st24" d="M1052.5,1004.5c-1.3,1.1-2.6,2-4,2.8c-0.5,1.1-1.3,2.2-2.2,3.3c5.9,4.7,9.8,1.2,13-5.7
		C1056.8,1005.9,1054.4,1005.9,1052.5,1004.5z"/>
	<path class="st24" d="M1046.3,1010.6c1-1.2,1.7-2.3,2.2-3.3c-1.3,0.7-2.8,1.1-4.5,1.2c0,0,0,0,0,0
		C1044.8,1009.3,1045.6,1010,1046.3,1010.6z"/>
	<path class="st24" d="M1033.8,993.5c6.5-0.6,12.4,1.7,17.4,9.5c0.4,0.6,0.9,1.1,1.4,1.5c1.3-1.1,2.5-2.2,3.8-3.2
		c-1.4-1.6-2.7-3.3-3.9-5.1c-8.1-12.2-17-13.8-26.3-4.6c0.1,0.1,0.2,0.1,0.3,0.2C1028.8,993.2,1031.3,993.4,1033.8,993.5z"/>
	<path class="st24" d="M1026.5,991.8c-0.1-0.1-0.2-0.1-0.3-0.2c-1.6,1.6-3.2,3.5-4.9,5.7c4.3-2,8.5-3.4,12.4-3.8
		C1031.3,993.4,1028.8,993.2,1026.5,991.8z"/>
	<path class="st24" d="M1059.3,1004.9C1059.3,1004.9,1059.3,1004.9,1059.3,1004.9c-1-1.2-2-2.4-3-3.7c-1.3,1-2.5,2.2-3.8,3.2
		C1054.4,1005.9,1056.8,1005.9,1059.3,1004.9z"/>
</g>
</svg>
