<?xml version="1.0" encoding="utf-8"?>
<!-- Generator: Adobe Illustrator 22.0.0, SVG Export Plug-In . SVG Version: 6.00 Build 0)  -->
<svg version="1.1" xmlns="http://www.w3.org/2000/svg" xmlns:xlink="http://www.w3.org/1999/xlink" x="0px" y="0px"
	 viewBox="0 0 800 800" style="enable-background:new 0 0 800 800;" xml:space="preserve">
<style type="text/css">
	.st0{fill:#808080;}
	.st1{fill:#666666;}
	.st2{fill:#4D4D4D;}
	.st3{fill:#9D7654;}
	.st4{fill:#846248;}
	.st5{fill:none;stroke:#73543B;stroke-width:3;stroke-miterlimit:10;}
	.st6{fill:none;stroke:#563F2C;stroke-width:3;stroke-miterlimit:10;}
</style>
<g id="Layer_1">
</g>
<g id="Layer_2">
	<g>
		<path class="st0" d="M398.5,776.4c-22.2-0.6-43.5-1.8-58.4-3.9l58.4,0.5l0.1-12.1l-60.4,1.3l0-27.6l-30.8-0.2
			c-12.7-1.5,3.1-2.6,30.8-3.1l0-31v-3.7h-27c-10,0-18.2,8.1-18.2,18.2v87.1l105.3-0.7L398.5,776.4z"/>
		<path class="st0" d="M502.9,709.7c-1.2-4.2-3.9-7.8-7.5-10.2C499.8,702.7,501.9,707,502.9,709.7z"/>
		<path class="st0" d="M338.2,731.3c17-0.3,38.5-0.3,60.6,0.1l0.2-34.8h-60.8v3.7L338.2,731.3z"/>
		<polygon class="st0" points="338.2,734.6 338.2,762.2 398.6,760.9 398.7,735 		"/>
		<path class="st1" d="M485.4,696.6c3.7,0,7.1,1.1,9.9,3c-1.7-1.2-3.8-2.3-6.3-3c-4.1-1.1-15.5-1.5-28.9-1.5v1.5H485.4z"/>
		<path class="st1" d="M503.6,712.2c0,0-0.2-1-0.7-2.5c0.5,1.6,0.7,3.3,0.7,5.1V712.2z"/>
		<polygon class="st1" points="399,696.6 399,696.6 399,696.6 		"/>
		<path class="st1" d="M399,696.6h61.2v-1.5C433.5,695.1,399,696.6,399,696.6L399,696.6z"/>
		<polygon class="st1" points="398.3,801.2 398.3,801.9 503.6,801.9 503.6,800.5 		"/>
		<path class="st1" d="M460.2,696.6v3.7v33.2c10.5,0.6,20.1,1.3,28.2,2.2l-28.2-0.2v25.5h-61l-0.6,0l-0.1,12.1l89.9,0.8
			c-16.4,2.5-54.2,3.6-89.9,2.7l-0.2,24.7l105.3-0.7v-85.7c0-1.8-0.3-3.5-0.7-5.1c-1-2.7-3.1-7-7.5-10.2c-2.9-1.9-6.3-3-9.9-3H460.2
			z"/>
		<path class="st1" d="M399,696.6L399,696.6l-0.2,34.8c0.1,0,0.2,0,0.3,0L399,696.6z"/>
		<polygon class="st1" points="399.1,735 398.7,735 398.6,760.9 399.2,760.9 		"/>
		<polygon class="st1" points="399.2,760.9 460.2,760.9 460.2,735.5 399.1,735 		"/>
		<path class="st1" d="M460.2,733.4v-33.2v-3.7H399l0.1,34.8C420,731.7,441.4,732.3,460.2,733.4z"/>
		<path class="st2" d="M307.4,734.4l30.8,0.2l0-3.3C310.5,731.7,294.7,732.9,307.4,734.4z"/>
		<path class="st2" d="M398.8,731.3c-22.1-0.4-43.6-0.3-60.6-0.1l0,3.3l60.6,0.4L398.8,731.3z"/>
		<path class="st2" d="M488.4,735.7c-8.2-0.9-17.8-1.6-28.2-2.2v2L488.4,735.7z"/>
		<path class="st2" d="M399.1,735l0-3.7c-0.1,0-0.2,0-0.3,0l0,3.7L399.1,735z"/>
		<path class="st2" d="M399.1,735l61.1,0.4v-2c-18.7-1.1-40.2-1.8-61.1-2.1L399.1,735z"/>
		<path class="st2" d="M340.1,772.5c14.9,2.1,36.2,3.4,58.4,3.9l0-3.4L340.1,772.5z"/>
		<path class="st2" d="M488.4,773.8l-89.9-0.8l0,3.4C434.2,777.3,472,776.3,488.4,773.8z"/>
		<path class="st3" d="M399,696.6l-1.4-526.9c-3.3-27.5,1.6-36.9,9.8-36.8c-17.2-4.3-35.6,2.6-48.9,20.6l0,0
			c-13,17.6-20.3,41.4-20.3,66.2v476.9H399L399,696.6z M359.8,464.4c0,97.5,4.2,176.3,9.5,176.3C364,640.8,359.8,561.9,359.8,464.4z
			 M381.4,346.8c0.7,0,1.4-87.8,1.4-196.4C382.7,259,382.1,346.8,381.4,346.8z"/>
		<path class="st3" d="M422.6,139.9c2.8,2.1,5.6,4.6,8.3,7.2C428.3,144.3,425.5,141.9,422.6,139.9z"/>
		<polygon class="st3" points="436.2,153.4 436.2,153.4 436.2,153.4 		"/>
		<path class="st4" d="M407.3,132.8c5.3,1.3,10.4,3.7,15.3,7.1C417.1,135.7,411.7,132.9,407.3,132.8z"/>
		<path class="st4" d="M460.2,231.6V221c0-22.6-6.6-44.2-18.4-60.1l-5.5-7.5l0,0C451.6,174.1,460.2,202.2,460.2,231.6z"/>
		<path class="st4" d="M433.3,149.4c-0.8-0.8-1.6-1.6-2.4-2.3c1.8,1.9,3.6,4,5.3,6.3L433.3,149.4z"/>
		<path class="st4" d="M397.5,169.6l1.4,526.9c0,0,34.5-1.5,61.2-1.5V231.6c0-29.3-8.6-57.4-23.9-78.2l0,0l0,0
			c-1.7-2.3-3.5-4.4-5.3-6.3c-2.8-2.7-5.6-5.1-8.3-7.2c-4.9-3.4-10-5.7-15.3-7.1C399.1,132.7,394.2,142.2,397.5,169.6z M440.2,192.1
			c0,74.2-1.2,134.3-2.7,134.3C439,326.3,440.2,266.3,440.2,192.1z M440.2,524.5c0,81.2-8.8,146.9-19.6,146.9
			C431.4,671.4,440.2,605.7,440.2,524.5z M428.7,476.1c-8.6,0-15.6-68.9-15.6-154C413.1,407.2,420.1,476.1,428.7,476.1z"/>
	</g>
	<path class="st5" d="M368.4,649.1c-5.2,0-9.5-78.9-9.5-176.3"/>
	<path class="st5" d="M380.6,355.2c0.7,0,1.4-87.8,1.4-196.4"/>
	<path class="st6" d="M419.8,679.7c10.8,0,19.6-65.7,19.6-146.9"/>
	<path class="st6" d="M427.9,484.4c-8.6,0-15.6-68.9-15.6-154"/>
	<path class="st6" d="M436.6,334.7c1.5,0,2.7-60,2.7-134.3"/>
</g>
</svg>
