<svg id="Layer_1" data-name="Layer 1" xmlns="http://www.w3.org/2000/svg" viewBox="0 0 99.8 101.6"><title>1</title><path d="M273.2,279.3c-10.1,3.3-20,7.2-30.7,8.5-5.7.7-11.4.8-17.1,1v-.7c1.8-2.9,2.1-6.2,2.9-9.5a66.93,66.93,0,0,1,2-7.7,4.09,4.09,0,0,1,3.2-3,7.58,7.58,0,0,0,1.6-.6.76.76,0,0,1-.1-.4c-2.5-1.9-2.5-1.9-1.5-5,.9-2.8,2.5-5.4,2.3-8.5a7,7,0,0,0-.5-2.5c-.2-.4-.5-1-.3-1.2,1.2-1.6,0-2.2-1-3-.6-.4-.6-1.1-.8-1.8a42.22,42.22,0,0,0-2-6c-1.4-3-1.2-3.7,1.5-5.6-2.3-1.2-2.4-3.3-2.4-5.5a30.17,30.17,0,0,0-.2-5.2,7.35,7.35,0,0,1,.2-3.6c.6-1.7.1-3.3.1-5a2.85,2.85,0,0,1,3.4-3.1c12.5,1.1,23.7,5.6,34.6,11.6,5.5,3,10.5,6.9,16,9.9,2.4,1.3,4.9,1.7,7.4,2.4a49.71,49.71,0,0,0,8.4,1.6,50.87,50.87,0,1,0-3.6,36.4,43.44,43.44,0,0,0-7.6,1.7C283.8,276.2,278.5,277.6,273.2,279.3Z" transform="translate(-200.4 -199.2)"/></svg>