<svg id="Layer_1" data-name="Layer 1" xmlns="http://www.w3.org/2000/svg" viewBox="0 0 74 63.6"><title>2</title><path d="M218.2,225.5v.3a32.66,32.66,0,0,1,2.5-3.6C218.3,222.3,217.6,223.1,218.2,225.5Z" transform="translate(-213 -218.2)"/><path d="M218.3,225.8a37.42,37.42,0,0,0-5.3,19,37,37,0,0,0,74,0,36,36,0,0,0-1.5-10.5,29.21,29.21,0,0,0-7.2.6c-3.6.8-6.7,2.7-9.7,4.6A233.5,233.5,0,0,1,238,255.4c-2.9,1.2-5.6,2.9-8.8,3.4-2.5.4-5.5-1.3-6.1-3.6a90.44,90.44,0,0,0-3.1-10.1c-2.1-5.7-2.1-11.5-1.9-17.4" transform="translate(-213 -218.2)"/><path d="M229,219.9a20.38,20.38,0,0,0-4.7-1.7,34.23,34.23,0,0,0-3.6,4h.1A16.41,16.41,0,0,0,229,219.9Z" transform="translate(-213 -218.2)"/></svg>