<svg id="Layer_1" data-name="Layer 1" xmlns="http://www.w3.org/2000/svg" viewBox="0 0 52 42.8"><title>3</title><path d="M271.9,246.8a2.57,2.57,0,0,1-4.1-.8c-.3-.5-.4-1-.7-1.5-.9-1.4-1.2-1.4-2.4-.3-5.8,5.2-11,11.1-17.6,15.4-3,1.9-5.9.7-6.2-2.8a14.27,14.27,0,0,1,.6-6.8,15.29,15.29,0,0,0,1.3-7.3c0-.5-.2-1.3.4-1.5,1.6-.6,1.2-1.8,1.2-3,0-2.9-.5-6,3-7.9-1.2-.2-1.9-.2-2.6-.3-4.9-.6-9.8-1.3-14.6-1.9a25.56,25.56,0,0,0-6.2,16.8,26,26,0,1,0,52,0,24.37,24.37,0,0,0-.1-2.7c-1.1,1.3-2.2,2.6-3.2,3.9A5.72,5.72,0,0,1,271.9,246.8Z" transform="translate(-224 -228.1)"/></svg>