<svg id="Layer_1" data-name="Layer 1" xmlns="http://www.w3.org/2000/svg" viewBox="0 0 90.8 79.7"><title>8</title><path d="M230.1,287.2c-4.3-.9-8.3-2.4-12.4-3.2a12.54,12.54,0,0,1-2.5-.9c-1.2-.5-1.3-.9-.9-2.4.7-2.8,2.8-3.9,4.8-5.2,3.2-2.1,6-4.5,7.7-8,.6-1.3,1.6-1.5,2.9-1,.1,0,.2.1.3.1.9.3,2.1,1.5,2.6.6s-1.1-1-1.7-1.6a1.45,1.45,0,0,1-.4-2,9.14,9.14,0,0,1,2-2.4c1.1-1,2.2-2.1,3.4-3.1.1-.1.3-.2.3-.3,2.1-2.9,3.6-6.2,6.4-8.6,1-.9,1.6-1.5,2.8-.7.5.3,1.1.9,1.6.3s0-1.3-.5-1.7a2.34,2.34,0,0,1-.2-3.5,2.86,2.86,0,0,1,3.9-.9,73.7,73.7,0,0,1,12,8c8,6.3,14.9,13.8,22.3,20.7a37.52,37.52,0,0,0,5.3,4.4l.1.1a.1.1,0,0,0,.1.1,45.41,45.41,0,1,0-69.8,13c2.8-.5,5.6-1,8.4-1.6A2.83,2.83,0,0,0,230.1,287.2Z" transform="translate(-204.5 -209.3)"/></svg>