<?xml version="1.0" encoding="utf-8"?>
<!-- Generator: Adobe Illustrator 22.0.0, SVG Export Plug-In . SVG Version: 6.00 Build 0)  -->
<svg version="1.1" xmlns="http://www.w3.org/2000/svg" xmlns:xlink="http://www.w3.org/1999/xlink" x="0px" y="0px"
	 viewBox="0 0 500 500" style="enable-background:new 0 0 500 500;" xml:space="preserve">
<style type="text/css">
	.st0{display:none;}
	.st1{display:inline;}
</style>
<g id="Layer_1">
	<g>
		<path d="M40.5,288.1c1.8-2.9,2.1-6.2,2.9-9.5c0.6-2.6,1.1-5.2,2-7.7c0.6-1.6,1.5-2.7,3.2-3c0.6-0.1,1.1-0.4,1.6-0.6
			c-0.1-0.2-0.1-0.3-0.1-0.4c-2.5-1.9-2.5-1.9-1.5-5c0.9-2.8,2.5-5.4,2.3-8.5c-0.1-0.9-0.1-1.7-0.5-2.5c-0.2-0.4-0.5-1-0.3-1.2
			c1.2-1.6,0-2.2-1-3c-0.6-0.4-0.6-1.1-0.8-1.8c-0.6-2-1.1-4.1-2-6c-1.4-3-1.2-3.7,1.5-5.6c-2.3-1.2-2.4-3.3-2.4-5.5
			c0-1.7,0.1-3.5-0.2-5.2c-0.2-1.2-0.2-2.4,0.2-3.6c0.6-1.7,0.1-3.3,0.1-5c0-2.1,1.3-3.3,3.4-3.1c12.5,1.1,23.7,5.6,34.6,11.6
			c5.5,3,10.5,6.9,16,9.9c2.4,1.3,4.9,1.7,7.4,2.4c7.4,2.1,14.9,2.2,22.5,1.5c2.3-0.2,4.6-0.3,7.2-0.5c-0.6-0.9-1.4-1.1-2.2-1.3
			c-1.7-0.4-3.4-0.8-5.1-1.3c-1-0.3-2.3-0.6-2.4-1.9c-0.1-1.4,0.6-2.7,1.9-3.4c3.3-1.8,6.8-2.3,10.4-1.3c2.7,0.7,5.4,1.4,8,2.5
			c4.7,1.9,9.3,2.4,14.3,1.4c7.1-1.4,14.3-1.9,21.5-3c8-1.2,16-2.5,24.1-3.7c8.5-1.3,17-2.4,25.5-4.2c0.5-0.1,0.9-0.2,1.6-0.4
			c-4.3-0.9-8.3-2.4-12.4-3.2c-0.8-0.2-1.7-0.5-2.5-0.9c-1.2-0.5-1.3-0.9-0.9-2.4c0.7-2.8,2.8-3.9,4.8-5.2c3.2-2.1,6-4.5,7.7-8
			c0.6-1.3,1.6-1.5,2.9-1c0.1,0,0.2,0.1,0.3,0.1c0.9,0.3,2.1,1.5,2.6,0.6c0.6-1-1.1-1-1.7-1.6c-0.7-0.6-0.8-1.2-0.4-2
			c0.5-0.9,1.2-1.7,2-2.4c1.1-1,2.2-2.1,3.4-3.1c0.1-0.1,0.3-0.2,0.3-0.3c2.1-2.9,3.6-6.2,6.4-8.6c1-0.9,1.6-1.5,2.8-0.7
			c0.5,0.3,1.1,0.9,1.6,0.3c0.5-0.6,0-1.3-0.5-1.7c-1.2-1.1-1.1-2.3-0.2-3.5c1-1.3,2.3-1.7,3.9-0.9c4.3,2.2,8.2,5,12,8
			c8,6.3,14.9,13.8,22.3,20.7c1.7,1.6,3.3,3.1,5.3,4.4c0,0,0.1,0.1,0.1,0.1c2.4,3.7,6.5,3.1,10.1,3.6c6.8,1,13.7,0.5,20.6,0.7
			c11.4,0.4,22.7,1.4,34,3c13.4,1.8,26.3,5.5,39.5,8.1c6.6,1.3,12.9,3.4,19.4,5.2c5.4,1.5,10.8,3.1,16.1,4.9
			c6.9,2.4,13.3,5.7,19.4,9.6c2,1.3,3.7,2.9,5,4.9c1.8,2.7,1.6,5.1-1.4,6.9c-1.1,0.6-2.2,1.2-3.3,1.7c-1.1,0.5-2.2,1-3.6,1.6
			c2.2,0.9,4.1,0.5,5.9,0c1.7-0.5,3.1-0.2,4,1.5c0,0.5,0,1.1,0,1.6c-1,2-2.7,3.3-4.5,4.5c-4.7,3.2-9.9,5.4-15.4,6.7
			c-12.2,2.9-24.3,6.4-36.7,8.6c-8.9,1.6-17.6,4.2-26.4,6.2c-1.7,0.4-2.8,1.1-3.8,2.5c-3.9,5.8-8.1,11.4-12.7,16.6
			c-1.7,1.9-3.3,3.9-5.5,5.3c-0.8,0.5-1.8,1-2.7,0.3c-1.6-1.1-2.5-2.6-2.8-4.6c-0.4-3.9-0.3-7.8-0.3-11.8c0-2,0-2-2-1.6
			c-8.9,1.7-17.9,2.7-26.9,3.7c-10.1,1.2-20.2,1.4-30.4,1.6c-3.8,0.1-7.6-0.5-11.4-0.7c-0.7,0-1.3-0.1-1.6,0.8
			c-1.6,4.5-5.2,7.6-7.9,11.3c-0.2,0.3-0.5,0.6-0.8,0.8c-1.5,1.2-3.2,0.8-4.1-0.8c-0.3-0.5-0.4-1-0.7-1.5c-0.9-1.4-1.2-1.4-2.4-0.3
			c-5.8,5.2-11,11.1-17.6,15.4c-3,1.9-5.9,0.7-6.2-2.8c-0.2-2.3-0.3-4.6,0.6-6.8c1-2.3,1.5-4.8,1.3-7.3c0-0.5-0.2-1.3,0.4-1.5
			c1.6-0.6,1.2-1.8,1.2-3c0-2.9-0.5-6,3-7.9c-1.2-0.2-1.9-0.2-2.6-0.3c-7.1-0.9-14.2-1.9-21.4-2.8c-5.2-0.6-10.4-1.2-15.6-1.5
			c-4.2-0.3-8.4-0.6-12.5,0.3c-3.6,0.8-6.7,2.7-9.7,4.6c-9.8,6-20,11.4-30.6,15.9c-2.9,1.2-5.6,2.9-8.8,3.4
			c-2.5,0.4-5.5-1.3-6.1-3.6c-0.9-3.4-1.8-6.8-3.1-10.1c-2.1-5.7-2.1-11.5-1.9-17.4c0-0.8,0.4-1.4,0.2-2.3c-0.6-2.4,0.1-3.2,2.6-3.3
			c2.8-0.1,5.6-0.5,8.1-2.3c-3.3-1.6-6.6-2.3-9.9-2.6c-9.4-1-18.8-1.8-28,1.2c-5.2,1.7-10.6,3.1-15.8,4.8c-10.1,3.3-20,7.2-30.7,8.5
			c-5.7,0.7-11.4,0.8-17.1,1C40.5,288.6,40.5,288.3,40.5,288.1z"/>
	</g>
</g>
<g id="Layer_2" class="st0">
	<circle class="st1" cx="66.2" cy="250" r="50.8"/>
	<circle class="st1" cx="253.9" cy="186.9" r="45.4"/>
	<circle class="st1" cx="163" cy="300.8" r="37"/>
	<circle class="st1" cx="246" cy="309.8" r="26"/>
	<circle class="st1" cx="364" cy="309.8" r="28"/>
	<circle class="st1" cx="447" cy="252.2" r="33.7"/>
	<circle class="st1" cx="365.7" cy="218.5" r="29.7"/>
	<circle class="st1" cx="149" cy="218.5" r="26"/>
	<circle class="st1" cx="304" cy="298.9" r="17.1"/>
</g>
</svg>
