<?xml version="1.0" encoding="utf-8"?>
<!-- Generator: Adobe Illustrator 22.0.0, SVG Export Plug-In . SVG Version: 6.00 Build 0)  -->
<svg version="1.1" xmlns="http://www.w3.org/2000/svg" xmlns:xlink="http://www.w3.org/1999/xlink" x="0px" y="0px"
	 viewBox="0 0 500 500" style="enable-background:new 0 0 500 500;" xml:space="preserve">
<g id="Layer_1">
</g>
<g id="Layer_2">
	<g>
		<path d="M131.2,281.5c0,0.1,0,0.2,0,0.3c0.8-1.3,1.6-2.5,2.5-3.6C131.3,278.3,130.6,279.1,131.2,281.5z"/>
		<path d="M88.2,279.3c-10.1,3.3-20,7.2-30.7,8.5c-5.7,0.7-11.4,0.8-17.1,1c0-0.2,0-0.4,0-0.7c1.8-2.9,2.1-6.2,2.9-9.5
			c0.6-2.6,1.1-5.2,2-7.7c0.6-1.6,1.5-2.7,3.2-3c0.6-0.1,1.1-0.4,1.6-0.6c-0.1-0.2-0.1-0.3-0.1-0.4c-2.5-1.9-2.5-1.9-1.5-5
			c0.9-2.8,2.5-5.4,2.3-8.5c-0.1-0.9-0.1-1.7-0.5-2.5c-0.2-0.4-0.5-1-0.3-1.2c1.2-1.6,0-2.2-1-3c-0.6-0.4-0.6-1.1-0.8-1.8
			c-0.6-2-1.1-4.1-2-6c-1.4-3-1.2-3.7,1.5-5.6c-2.3-1.2-2.4-3.3-2.4-5.5c0-1.7,0.1-3.5-0.2-5.2c-0.2-1.2-0.2-2.4,0.2-3.6
			c0.6-1.7,0.1-3.3,0.1-5c0-2.1,1.3-3.3,3.4-3.1c12.5,1.1,23.7,5.6,34.6,11.6c5.5,3,10.5,6.9,16,9.9c2.4,1.3,4.9,1.7,7.4,2.4
			c2.8,0.8,5.6,1.3,8.4,1.6c-5.9-21.5-25.6-37.2-49-37.2c-28.1,0-50.8,22.8-50.8,50.8s22.8,50.8,50.8,50.8c19.9,0,37.1-11.4,45.4-28
			c-2.5,0.3-5,0.9-7.6,1.7C98.8,276.2,93.5,277.6,88.2,279.3z"/>
		<path d="M234.1,219.2c-4.3-0.9-8.3-2.4-12.4-3.2c-0.8-0.2-1.7-0.5-2.5-0.9c-1.2-0.5-1.3-0.9-0.9-2.4c0.7-2.8,2.8-3.9,4.8-5.2
			c3.2-2.1,6-4.5,7.7-8c0.6-1.3,1.6-1.5,2.9-1c0.1,0,0.2,0.1,0.3,0.1c0.9,0.3,2.1,1.5,2.6,0.6c0.6-1-1.1-1-1.7-1.6
			c-0.7-0.6-0.8-1.2-0.4-2c0.5-0.9,1.2-1.7,2-2.4c1.1-1,2.2-2.1,3.4-3.1c0.1-0.1,0.3-0.2,0.3-0.3c2.1-2.9,3.6-6.2,6.4-8.6
			c1-0.9,1.6-1.5,2.8-0.7c0.5,0.3,1.1,0.9,1.6,0.3c0.5-0.6,0-1.3-0.5-1.7c-1.2-1.1-1.1-2.3-0.2-3.5c1-1.3,2.3-1.7,3.9-0.9
			c4.3,2.2,8.2,5,12,8c8,6.3,14.9,13.8,22.3,20.7c1.7,1.6,3.3,3.1,5.3,4.4c0,0,0.1,0.1,0.1,0.1c0,0.1,0.1,0.1,0.1,0.1
			c3.4-6.4,5.3-13.6,5.3-21.3c0-25.1-20.3-45.4-45.4-45.4s-45.4,20.3-45.4,45.4c0,13.7,6.1,26,15.7,34.3c2.8-0.5,5.6-1,8.4-1.6
			C233,219.5,233.5,219.4,234.1,219.2z"/>
		<path d="M191.3,290.9c-3.6,0.8-6.7,2.7-9.7,4.6c-9.8,6-20,11.4-30.6,15.9c-2.9,1.2-5.6,2.9-8.8,3.4c-2.5,0.4-5.5-1.3-6.1-3.6
			c-0.9-3.4-1.8-6.8-3.1-10.1c-2.1-5.7-2.1-11.5-1.9-17.4c0-0.7,0.3-1.3,0.2-1.9c-3.3,5.6-5.3,12.1-5.3,19c0,20.4,16.6,37,37,37
			s37-16.6,37-37c0-3.7-0.5-7.2-1.5-10.5C196.1,290.3,193.7,290.4,191.3,290.9z"/>
		<path d="M142,275.9c-1.5-0.8-3.1-1.3-4.7-1.7c-1.3,1.2-2.5,2.6-3.6,4c0,0,0.1,0,0.1,0C136.6,278,139.4,277.6,142,275.9z"/>
		<path d="M267.9,311.8c-1.5,1.2-3.2,0.8-4.1-0.8c-0.3-0.5-0.4-1-0.7-1.5c-0.9-1.4-1.2-1.4-2.4-0.3c-5.8,5.2-11,11.1-17.6,15.4
			c-3,1.9-5.9,0.7-6.2-2.8c-0.2-2.3-0.3-4.6,0.6-6.8c1-2.3,1.5-4.8,1.3-7.3c0-0.5-0.2-1.3,0.4-1.5c1.6-0.6,1.2-1.8,1.2-3
			c0-2.9-0.5-6,3-7.9c-1.2-0.2-1.9-0.2-2.6-0.3c-4.9-0.6-9.8-1.3-14.6-1.9c-3.9,4.5-6.2,10.4-6.2,16.8c0,14.4,11.6,26,26,26
			s26-11.6,26-26c0-0.9,0-1.8-0.1-2.7c-1.1,1.3-2.2,2.6-3.2,3.9C268.5,311.3,268.2,311.6,267.9,311.8z"/>
		<path d="M372.8,290.1c-3.9,5.8-8.1,11.4-12.7,16.6c-1.7,1.9-3.3,3.9-5.5,5.3c-0.8,0.5-1.8,1-2.7,0.3c-1.6-1.1-2.5-2.6-2.8-4.6
			c-0.4-3.9-0.3-7.8-0.3-11.8c0-2,0-2-2-1.6c-2.3,0.4-4.5,0.8-6.8,1.2c-2.5,4.2-4,9.1-4,14.4c0,15.5,12.5,28,28,28s28-12.5,28-28
			c0-9.5-4.8-18-12.1-23c-1.1,0.3-2.2,0.5-3.3,0.8C374.9,287.9,373.8,288.7,372.8,290.1z"/>
		<path d="M447,218.5c-10.1,0-19.1,4.5-25.3,11.5c4,1.2,7.9,2.3,11.8,3.7c6.9,2.4,13.3,5.7,19.4,9.6c2,1.3,3.7,2.9,5,4.9
			c1.8,2.7,1.6,5.1-1.4,6.9c-1.1,0.6-2.2,1.2-3.3,1.7c-1.1,0.5-2.2,1-3.6,1.6c2.2,0.9,4.1,0.5,5.9,0c1.7-0.5,3.1-0.2,4,1.5
			c0,0.5,0,1.1,0,1.6c-1,2-2.7,3.3-4.5,4.5c-4.7,3.2-9.9,5.4-15.4,6.7c-5.3,1.3-10.5,2.6-15.8,3.9c6,5.7,14.1,9.2,23.1,9.2
			c18.6,0,33.7-15.1,33.7-33.7C480.7,233.6,465.6,218.5,447,218.5z"/>
		<path d="M395,222.9c0.2-1.4,0.3-2.9,0.3-4.4c0-16.4-13.3-29.7-29.7-29.7c-14.6,0-26.7,10.5-29.2,24.3c7.4,0.5,14.7,1.3,22.1,2.3
			C370.9,217.1,382.9,220.4,395,222.9z"/>
		<path d="M134.3,234.6c-1.7-0.4-3.4-0.8-5.1-1.3c-1-0.3-2.3-0.6-2.4-1.9c-0.1-1.4,0.6-2.7,1.9-3.4c3.3-1.8,6.8-2.3,10.4-1.3
			c2.7,0.7,5.4,1.4,8,2.5c4.7,1.9,9.3,2.4,14.3,1.4c3.7-0.7,7.5-1.2,11.3-1.7c1.4-3.2,2.1-6.7,2.1-10.4c0-14.4-11.6-26-26-26
			s-26,11.6-26,26c0,6.9,2.7,13.2,7.1,17.8c2.1-0.2,4.2-0.3,6.4-0.5C135.9,234.9,135.1,234.7,134.3,234.6z"/>
		<path d="M289.6,299.6c-0.9,0-1.8,0-2.6,0c0.3,9.1,7.8,16.4,17.1,16.4c9.4,0,17.1-7.6,17.1-17.1c0-0.4,0-0.7-0.1-1
			c-0.4,0-0.7,0.1-1.1,0.1C309.8,299.2,299.7,299.4,289.6,299.6z"/>
	</g>
	<path d="M83.8,262c-0.2-4-0.4-7.9-0.7-11.9c-0.2-3.5,0.3-7.7-2.9-10c-3.1-2.2-6.2-0.6-8.3,2c-2.6,3.3-5.2,6.6-7.8,9.9
		c-1.7,2.1-2,5,0,7.1c1.7,1.8,5.4,2.1,7.1,0c0.8-1,1.5-1.9,2.3-2.9c0.1,1.9,0.2,3.8,0.3,5.8C74.2,268.4,84.2,268.4,83.8,262z"/>
	<path d="M180.8,375c1.7-2.2,2.6-4.9,2-8.2c-2.8-14.4-15.9-26.8-30.6-19.1c-5.7,3-0.7,11.6,5,8.6c6.4-3.3,11,1.3,13.5,6.8
		c0.6,1.3,1.9,3.2,1.9,4.7c0,2-0.9,2.1-2.9,2.7c-0.7,0.2-1.5,0.3-2.2,0.4c-1-0.4-2-0.8-3-1.3c-3.6-1.5-6.6-1.6-10.1,0
		c-2.1,1-2.7,3.6-2.3,5.6c1.2,6,8.3,6.3,13.9,5.8c0.5,0.3,1,0.5,1.2,0.6c3.5,1.2,7.1,1.8,10.8,2.1
		C183.2,384.3,184.2,377.7,180.8,375z"/>
	<path d="M257.7,366.2c-1.8-3.6-4.7-6.5-8-8.8c3.8-2.6,7-5.9,6.5-10.4c-1-8.7-12.3-9.7-18.9-7.9c-6.2,1.7-3.6,11.3,2.7,9.6
		c2.2-0.6,3-0.2,4.4,0c-2.7,1.8-5.4,3.4-8.1,5.1c-3.4,2.1-3.2,8.2,1.2,9.1c3.7,0.8,7,2.3,9.6,5.2c0.4,0.4,0.7,0.8,1,1.2
		c-1.7,0.6-4.2,1.2-4.6,1.3c-6.3,1-3.6,10.7,2.7,9.6C253,379.1,262.1,374.6,257.7,366.2z"/>
	<path d="M319.5,352.7c-1.8-5.9-2.8-11.9-3.1-18c-0.3-6.4-10-6.5-10,0c0,2-1.4,6.5-3.4,3.4c-1.2-2,0.2-5.7,0.7-7.7
		c1.7-6.2-8-8.9-9.6-2.7c-2,7.4-2.4,18.1,6.7,21.1c2.7,0.9,5.2,0.7,7.4-0.1c0.5,2.3,1,4.5,1.7,6.8
		C311.7,361.5,321.4,358.8,319.5,352.7z"/>
	<path d="M419.4,354.1c-2.6-3.9-7.9-5.2-11.9-6.9c-3-1.2-6-2.4-9-3.7c-0.6-0.2-1.1-0.5-1.6-0.7c-0.1-0.1-0.1-0.1-0.2-0.1
		c1.3-0.5,3.4-0.2,4.6-0.1c6.4,0.2,6.4-9.8,0-10c-5-0.2-10.6,0.5-13.6,5.1c-2.5,3.8-2.3,8.9,1.2,12.1c4,3.6,11,5.2,16,7.2
		c0.1,0.1,0.3,0.1,0.4,0.2c-1.3-0.1-2.7-0.2-4-0.3c-6.4-0.8-6.3,9.2,0,10c4.7,0.6,11.4,1.3,15.7-1.1
		C421,363.3,421.9,357.9,419.4,354.1z"/>
	<path d="M468,199.9c-2.3-0.6-4.1,0.3-5.2,1.8c-1.6-3.3,0.7-6.8,4.5-7.6c6.3-1.3,3.6-11-2.7-9.6c-6.3,1.3-11.2,6.2-12.2,12.6
		c-1.1,7.2,3,13.4,9.2,16.7c5.5,2.8,14.5,6,17.5-1.8C482.1,204.8,473.4,201.4,468,199.9z"/>
	<path d="M375.6,148.6c-1.1-3.2-4.3-4.5-7.3-3c-3.5,1.7-7,2.2-10.9,2c-6.4-0.4-6.4,9.6,0,10c2.6,0.2,5.1,0,7.6-0.5
		c-0.8,2.2-1.8,4.3-2.2,5.5c-1.3,3.8-2.5,7.6-3.8,11.3c-2,6.1,7.6,8.7,9.6,2.7l4.9-14.8C374.9,157.5,377.2,153.1,375.6,148.6z"/>
	<path d="M258,102.5c0.1-0.2,0.1-0.4,0.2-0.6c0.8-2.9-1-5.1-3.5-6.2c-4.1-1.6-8.4-1.8-12.7-1.2c-2.1,0.3-3.5,2.5-3.6,4.5
		c-6.2,0.8-12.4,4.3-12,11.5c0.2,4.2,2.8,7.6,6.3,9.7c-0.7,0.5-1.4,1.1-2,1.8c-6.2,7-0.2,18,8.7,18.3c10.2,0.4,15.7-10.3,14-19.2
		c-0.1-0.7-0.3-1.4-0.5-2.1c2.7-3.8,4.3-8.4,5.6-13.1C258.8,104.7,258.6,103.4,258,102.5z M243.6,126.7c-0.4,1.6-2.2,4.4-4.2,3.8
		c-3.4-1.1,1.6-3.2,4.3-4.3C243.7,126.3,243.7,126.5,243.6,126.7z M244.6,112.8c-2-0.1-6.4,0.5-7.6-1.6c-1.4-2.4,2.6-2.2,4.3-2.2
		c3.2,0,4.8-2.4,4.8-4.8c0.8,0,1.6,0.1,2.4,0.2c-0.8,2.8-1.6,6-3.3,8.5C245.1,112.8,244.9,112.8,244.6,112.8z"/>
	<path d="M164,145.1c0.6-1.3,0.6-2.8-0.2-4.3c-2.4-4.4-6.7-7.1-11.4-7.6c-1.2-1.5-3.4-2.5-5.3-1.8c-7,2.6-10.8,9.3-9.6,16.6
		c0,0.1,0,0.1,0.1,0.2c-1,2.4-1.2,5.1-0.5,7.6c1.5,5.7,7.1,9.5,12.6,10.8c1.8,0.4,3.4,0.6,4.9,0.4c0.2,3.7,0.3,7.4,0.5,11
		c0.3,6.4,10.3,6.4,10,0l-0.9-18.6C165.9,155.2,165.8,149.8,164,145.1z M152.4,156.9c-2.1-0.2-8.4-3.9-4.5-5.7
		c3.9-1.8,2.9-6.4,0-8.3c0.7,0.1,1.4,0.1,2.1,0c1.1-0.2,2.5,0.2,3.6,1.1c-0.1,0.3-0.1,0.7-0.1,1.1c0.2,3.9,0.4,7.7,0.5,11.6
		C153.6,156.9,153.1,157,152.4,156.9z"/>
</g>
</svg>
