<?xml version="1.0" encoding="utf-8"?>
<!-- Generator: Adobe Illustrator 22.0.0, SVG Export Plug-In . SVG Version: 6.00 Build 0)  -->
<svg version="1.1" id="Layer_1" xmlns="http://www.w3.org/2000/svg" xmlns:xlink="http://www.w3.org/1999/xlink" x="0px" y="0px"
	 viewBox="0 0 1926 1086" style="enable-background:new 0 0 1926 1086;" xml:space="preserve">
<style type="text/css">
	.st0{fill:#A39272;stroke:#000000;stroke-width:6;stroke-miterlimit:10;}
	.st1{fill:none;stroke:#000000;stroke-width:4;stroke-miterlimit:10;}
	.st2{fill:#BFBFBF;stroke:#000000;stroke-width:4;stroke-miterlimit:10;}
	.st3{fill:#524939;stroke:#000000;stroke-width:4;stroke-miterlimit:10;}
	.st4{fill:#512D17;}
	.st5{fill:#693D1A;}
	.st6{fill:none;stroke:#000000;stroke-width:6;stroke-miterlimit:10;}
	.st7{fill:#606060;stroke:#000000;stroke-width:4;stroke-miterlimit:10;}
	.st8{fill:#404040;stroke:#000000;stroke-width:2;stroke-miterlimit:10;}
	.st9{fill:none;stroke:#000000;stroke-width:2;stroke-miterlimit:10;}
	.st10{fill:none;stroke:#512D17;stroke-width:3;stroke-miterlimit:10;}
	.st11{fill:none;stroke:#693D1A;stroke-width:3;stroke-miterlimit:10;}
	.st12{fill:#BFBFBF;stroke:#000000;stroke-width:2;stroke-miterlimit:10;}
	.st13{fill:#606060;stroke:#000000;stroke-width:2;stroke-miterlimit:10;}
	.st14{fill:#9DB7BF;stroke:#000000;stroke-width:5;stroke-miterlimit:10;}
	.st15{fill:#D1F4FF;stroke:#000000;stroke-width:5;stroke-miterlimit:10;}
	.st16{fill:#9DB7BF;}
	.st17{font-family:'OldEnglishTextMT';}
	.st18{font-size:78.22px;}
	.st19{font-size:78.5361px;}
	.st20{font-size:78.3607px;}
	.st21{font-size:78.2825px;}
	.st22{font-size:78.4114px;}
	.st23{font-size:78.5517px;}
	.st24{font-size:77.9261px;}
	.st25{fill:#272E30;}
	.st26{opacity:0.38;}
</style>
<title>Porta_oficial_ultimate</title>
<g id="Muro">
	<rect x="3" y="3" class="st0" width="1920" height="1080"/>
	<line class="st1" x1="3" y1="979" x2="538.3" y2="980.8"/>
	<line class="st1" x1="3" y1="881.2" x2="538.3" y2="881.2"/>
	<line class="st1" x1="3" y1="778.5" x2="538.3" y2="782.3"/>
	<line class="st1" x1="3" y1="679.7" x2="541.7" y2="681"/>
	<line class="st1" x1="3" y1="575.3" x2="550.1" y2="577.7"/>
	<line class="st1" x1="3" y1="472.1" x2="560.3" y2="472.9"/>
	<line class="st1" x1="3" y1="357.1" x2="578.8" y2="363.1"/>
	<line class="st1" x1="3" y1="234.7" x2="698.3" y2="237.8"/>
	<line class="st1" x1="208" y1="977" x2="208" y2="1081"/>
	<line class="st1" x1="436.9" y1="983.5" x2="436.9" y2="1083"/>
	<line class="st1" x1="125.7" y1="881.2" x2="125.7" y2="980.8"/>
	<line class="st1" x1="316" y1="880.2" x2="316" y2="979.8"/>
	<line class="st1" x1="260" y1="778.5" x2="260" y2="884"/>
	<line class="st1" x1="406" y1="782.3" x2="406" y2="881.2"/>
	<line class="st1" x1="142.7" y1="679.7" x2="142.7" y2="782.3"/>
	<line class="st1" x1="321.9" y1="681" x2="321.9" y2="780.4"/>
	<line class="st1" x1="201.4" y1="577.7" x2="201.4" y2="679.7"/>
	<line class="st1" x1="422.9" y1="577.7" x2="422.9" y2="680.3"/>
	<line class="st1" x1="92" y1="472.9" x2="92" y2="573.2"/>
	<line class="st1" x1="270.6" y1="472.5" x2="272.4" y2="573.2"/>
	<line class="st1" x1="3" y1="116.3" x2="1923" y2="116.3"/>
	<line class="st1" x1="1225.4" y1="238.8" x2="1923" y2="234.2"/>
	<line class="st1" x1="1337" y1="363.1" x2="1923" y2="363.1"/>
	<line class="st1" x1="1361.1" y1="474.5" x2="1923" y2="471.8"/>
	<line class="st1" x1="1373.4" y1="576.9" x2="1923" y2="572.6"/>
	<line class="st1" x1="1385.4" y1="681" x2="1923" y2="679.5"/>
	<line class="st1" x1="1385.4" y1="782.3" x2="1923" y2="782.3"/>
	<line class="st1" x1="1385.4" y1="888.1" x2="1923" y2="888.1"/>
	<line class="st1" x1="1384.3" y1="985.2" x2="1923" y2="985.2"/>
	<line class="st1" x1="120.8" y1="358.3" x2="120.8" y2="472.1"/>
	<line class="st1" x1="386.4" y1="363.1" x2="386.4" y2="472.1"/>
	<line class="st1" x1="213" y1="235.2" x2="213" y2="357.5"/>
	<line class="st1" x1="459.6" y1="236.7" x2="459.6" y2="363.1"/>
	<line class="st1" x1="131.8" y1="116.3" x2="131.8" y2="236.7"/>
	<line class="st1" x1="523.8" y1="116.3" x2="523.8" y2="238.8"/>
	<line class="st1" x1="851.3" y1="116.3" x2="851.3" y2="209.9"/>
	<line class="st1" x1="1177.3" y1="116.3" x2="1178.6" y2="225.8"/>
	<line class="st1" x1="1384.3" y1="116.3" x2="1384.3" y2="238.8"/>
	<line class="st1" x1="1673.4" y1="116.3" x2="1673.4" y2="236.7"/>
	<line class="st1" x1="249.6" y1="3" x2="249.6" y2="116.3"/>
	<line class="st1" x1="490.2" y1="3" x2="490.2" y2="116.3"/>
	<line class="st1" x1="780.6" y1="3" x2="780.6" y2="116.3"/>
	<line class="st1" x1="1108.7" y1="3" x2="1108.7" y2="116.3"/>
	<line class="st1" x1="1346.2" y1="3" x2="1346.2" y2="116.3"/>
	<line class="st1" x1="1608.3" y1="3" x2="1608.3" y2="116.3"/>
	<line class="st1" x1="1426.9" y1="235.7" x2="1426.9" y2="362.1"/>
	<line class="st1" x1="1648.2" y1="234.7" x2="1647.6" y2="363.1"/>
	<line class="st1" x1="1505.2" y1="363.1" x2="1505.2" y2="476.7"/>
	<line class="st1" x1="1711.5" y1="362.5" x2="1711.5" y2="471.5"/>
	<line class="st1" x1="1552.9" y1="474.5" x2="1552.9" y2="576.5"/>
	<line class="st1" x1="1763.2" y1="474.5" x2="1763.2" y2="573.2"/>
	<line class="st1" x1="1431.5" y1="576.5" x2="1431.5" y2="681"/>
	<line class="st1" x1="1620.5" y1="573.2" x2="1620" y2="681"/>
	<line class="st1" x1="1482.8" y1="680.3" x2="1482.8" y2="782.3"/>
	<line class="st1" x1="1701.5" y1="681" x2="1701.5" y2="782.3"/>
	<line class="st1" x1="1540.5" y1="782.3" x2="1540.5" y2="888.1"/>
	<line class="st1" x1="1746.3" y1="782.3" x2="1746.3" y2="888.1"/>
	<line class="st1" x1="1580.9" y1="888.1" x2="1580.9" y2="985.2"/>
	<path class="st2" d="M1715.5,983.5"/>
	<line class="st1" x1="1494" y1="983.5" x2="1494" y2="1083"/>
	<rect x="1471" y="782.3" class="st3" width="69.5" height="105.9"/>
	<rect x="1519" y="888.1" class="st3" width="61.9" height="97"/>
	<rect x="1580.9" y="985.2" class="st3" width="65.1" height="97.8"/>
	<polygon class="st3" points="1646,985.2 1646,888.1 1702.5,888.1 1702.8,985.2 	"/>
	<rect x="1677" y="835.2" class="st3" width="69.3" height="53"/>
	<polygon class="st3" points="1725.5,888.1 1725.5,984.3 1786.3,985.2 1786.3,888.1 	"/>
	<rect x="1786.3" y="985.2" class="st3" width="62.5" height="97.8"/>
	<polygon class="st3" points="1826.8,985.2 1826.8,888.1 1882.8,888.1 1882.8,984.8 	"/>
	<rect x="1860.5" y="782.3" class="st3" width="62.5" height="105.9"/>
	<rect x="1608.3" y="59.6" class="st3" width="314.7" height="56.6"/>
	<rect x="1666.5" y="116.3" class="st3" width="256.5" height="55.8"/>
	<line class="st1" x1="1534.5" y1="3" x2="1534.5" y2="116.3"/>
	<line class="st1" x1="1538.5" y1="116.3" x2="1538.5" y2="236.7"/>
	<line class="st1" x1="1552.9" y1="236.7" x2="1552.9" y2="363.1"/>
	<rect x="1536.5" y="59.6" class="st3" width="71.8" height="56.6"/>
	<polygon class="st3" points="1538.5,116.3 1538.5,236.7 1672.3,236.5 1672.3,116.3 	"/>
	<polygon class="st3" points="1538.5,238.8 1648.2,238.8 1647.5,363.1 1538.5,363.1 	"/>
	<polygon class="st3" points="1505.2,362.8 1711.5,362.5 1711.5,418.4 1505.2,419.9 	"/>
	<rect x="3" y="3" class="st3" width="246.6" height="113.3"/>
	<rect x="3" y="116.3" class="st3" width="128.8" height="118.4"/>
	<polygon class="st3" points="3,234.7 249.6,235.2 249.6,360.1 3,357.1 	"/>
	<polygon class="st3" points="88.4,1031 208,1031 208,979 89.5,979 	"/>
	<polygon class="st3" points="260,835 406,834.5 406,881.2 260,881.2 	"/>
	<rect x="436.9" y="980.8" class="st3" width="101.4" height="48.3"/>
	<rect x="192.5" y="881.2" class="st3" width="123.5" height="95.8"/>
	<polygon class="st3" points="363.6,881.2 361.5,979.7 473.5,980.8 473.5,881.2 	"/>
	<line class="st1" x1="87" y1="1083" x2="89.5" y2="979"/>
	<polygon class="st3" points="316,930.9 362.6,931 362.6,948 316,948 	"/>
	<line class="st1" x1="1677" y1="782.3" x2="1677" y2="888.1"/>
	<polygon class="st3" points="271.5,522.8 550.1,523.8 547.3,579.3 270.7,577.7 	"/>
	<polygon class="st3" points="1620.5,619.8 1918.7,619.8 1920,572.6 1620.5,573.2 	"/>
	<polygon class="st3" points="233.7,680.3 233.7,778.5 142.7,778.5 142.7,679.5 	"/>
	<polygon class="st3" points="1593.3,679.5 1593.3,782.3 1711.5,782.3 1711.5,681 	"/>
	<polygon class="st3" points="79.6,576.5 79.6,679.5 3,679.5 3,574.8 	"/>
	<polygon class="st3" points="290.9,363.1 290.9,472.5 386.4,472.7 386.4,363.1 	"/>
	<polygon class="st3" points="1366.9,516.2 1552.9,516.2 1552.9,474.5 1365.4,474.5 	"/>
</g>
<g id="Porta">
	<path class="st4" d="M655.5,254l-11.3,829H539.5l-1.3-245.7l5.1-142.7c0,0,4.5-87.7,6.8-116.9c2-26.2,6.9-78.7,10.1-104.8
		c2.2-18,7.7-54,10.9-71.9c3.3-18.5,11.6-55.6,18.4-73.5c4.4-11.4,14.2-34.4,22.9-44C620.8,274.3,655.5,254,655.5,254z"/>
	<polygon class="st5" points="744.8,225.8 744.8,1083 644.2,1083 650.2,644.1 654.2,351.1 655.5,254 698.3,237.8 	"/>
	<polygon class="st4" points="851.4,209.9 851.4,526.9 851.4,743.4 851.4,1083 744.8,1083 744.8,711 744.8,402.9 744.8,225.8 
		802,215.9 	"/>
	<polygon class="st5" points="851.4,209.9 919.9,206 955.2,205.6 947.9,1083 851.4,1083 	"/>
	<polygon class="st4" points="1072.8,209.9 1072.8,560.8 1072.8,1083 975.8,1083 975.8,205.2 1023.8,206.6 	"/>
	<polygon class="st5" points="1168.1,223.1 1168.1,504.6 1168.1,1083 1072.8,1083 1072.8,209.9 1108.7,213.8 	"/>
	<polygon class="st5" points="1267.7,1083 1262,254 1288.8,271.5 1315.3,307.5 1345.5,394.1 1361.1,474.5 1373.4,576.9 
		1382.9,733.3 1385.4,917.4 1381.3,1083 	"/>
	<polygon class="st4" points="1168.1,223.1 1225.4,238.8 1262,254 1267.7,1083 1168.1,1083 	"/>
	<path class="st6" d="M612.4,283.6c-89.7,100.1-72.9,799.4-72.9,799.4h841.8c0,0,31.8-651.6-80.9-799.4
		C1219.5,177.4,704.5,180.8,612.4,283.6z"/>
	<polygon class="st7" points="950,205.7 947.9,1083 975.8,1083 978.6,205.3 	"/>
	<polygon class="st2" points="578.8,434.9 590.9,449.1 949.4,449.1 949.5,420.6 567.7,420.6 	"/>
	<polygon class="st2" points="978.6,420.6 1346.2,420.6 1318.1,449.1 978.6,449.1 	"/>
	<polygon class="st2" points="554,810.6 567.1,825 947.9,825 947.9,796.2 543.8,796.3 	"/>
	<polygon class="st2" points="978.6,796.3 1378.9,796.3 1351.4,824.8 978.6,824.8 	"/>
	<ellipse class="st8" cx="925.7" cy="810.6" rx="5.8" ry="4.8"/>
	<ellipse class="st8" cx="818.5" cy="810.6" rx="5.8" ry="4.8"/>
	<ellipse class="st8" cx="707.6" cy="810.6" rx="5.8" ry="4.8"/>
	<ellipse class="st8" cx="599.3" cy="810.6" rx="5.8" ry="4.8"/>
	<ellipse class="st8" cx="1326.8" cy="810.6" rx="5.8" ry="4.8"/>
	<ellipse class="st8" cx="1219.6" cy="810.6" rx="5.8" ry="4.8"/>
	<ellipse class="st8" cx="1108.7" cy="810.6" rx="5.8" ry="4.8"/>
	<ellipse class="st8" cx="1000.5" cy="810.6" rx="5.8" ry="4.8"/>
	<ellipse class="st8" cx="931.5" cy="434.9" rx="5.8" ry="4.8"/>
	<ellipse class="st8" cx="824.3" cy="434.9" rx="5.8" ry="4.8"/>
	<ellipse class="st8" cx="713.4" cy="434.9" rx="5.8" ry="4.8"/>
	<ellipse class="st8" cx="605.1" cy="434.9" rx="5.8" ry="4.8"/>
	<ellipse class="st8" cx="1315.3" cy="434.9" rx="5.8" ry="4.8"/>
	<ellipse class="st8" cx="1208.1" cy="434.9" rx="5.8" ry="4.8"/>
	<ellipse class="st8" cx="1097.2" cy="434.9" rx="5.8" ry="4.8"/>
	<ellipse class="st8" cx="988.9" cy="434.9" rx="5.8" ry="4.8"/>
	<line class="st9" x1="963.9" y1="205.2" x2="961.8" y2="1083"/>
	<line class="st10" x1="701.8" y1="500.8" x2="701.8" y2="580.8"/>
	<line class="st10" x1="676.9" y1="609.3" x2="676.9" y2="681"/>
	<line class="st10" x1="700.2" y1="694" x2="700.2" y2="753.3"/>
	<line class="st10" x1="655.5" y1="852" x2="655.5" y2="910.5"/>
	<line class="st10" x1="676.9" y1="910.5" x2="676.9" y2="951.3"/>
	<line class="st10" x1="694.5" y1="956.7" x2="694.5" y2="1013.7"/>
	<line class="st10" x1="682.5" y1="274.3" x2="682.5" y2="308.5"/>
	<line class="st11" x1="610.9" y1="363.1" x2="610.9" y2="393.1"/>
	<line class="st11" x1="630.2" y1="319.8" x2="630.2" y2="342.9"/>
	<line class="st11" x1="593.6" y1="485.4" x2="593.6" y2="547"/>
	<line class="st11" x1="589.1" y1="620.3" x2="589.1" y2="672.7"/>
	<line class="st11" x1="623.6" y1="694.6" x2="623.6" y2="752.6"/>
	<line class="st11" x1="578.8" y1="852" x2="578.8" y2="930.9"/>
	<line class="st11" x1="599.3" y1="942.1" x2="599.3" y2="1006.8"/>
	<line class="st11" x1="578.8" y1="1024.5" x2="578.8" y2="1066.8"/>
	<line class="st11" x1="623.6" y1="874.3" x2="623.6" y2="922.8"/>
	<line class="st10" x1="713.4" y1="331.3" x2="713.4" y2="386.8"/>
	<line class="st11" x1="818.5" y1="230.4" x2="818.5" y2="299"/>
	<line class="st11" x1="798.1" y1="340.2" x2="798.1" y2="393.1"/>
	<line class="st11" x1="812.7" y1="476.7" x2="812.7" y2="540.8"/>
	<line class="st11" x1="784.5" y1="589.2" x2="784.5" y2="629.5"/>
	<line class="st11" x1="798.1" y1="714.4" x2="798.1" y2="778.5"/>
	<line class="st11" x1="792.7" y1="868.6" x2="792.7" y2="918.3"/>
	<line class="st11" x1="780.6" y1="1011.8" x2="780.6" y2="1051.3"/>
	<line class="st11" x1="824.3" y1="980.8" x2="824.3" y2="1032.8"/>
	<line class="st10" x1="913.6" y1="233.3" x2="913.6" y2="284.7"/>
	<line class="st10" x1="887.2" y1="319.8" x2="887.2" y2="399.9"/>
	<line class="st10" x1="879.1" y1="540.8" x2="879.1" y2="605.5"/>
	<line class="st10" x1="913.6" y1="625.5" x2="913.6" y2="705.6"/>
	<line class="st10" x1="887.2" y1="722.9" x2="887.2" y2="782.3"/>
	<line class="st10" x1="909.7" y1="845" x2="909.7" y2="893.4"/>
	<line class="st10" x1="879.1" y1="910.5" x2="879.1" y2="969"/>
	<line class="st10" x1="906.6" y1="1025.4" x2="906.6" y2="1065.9"/>
	<line class="st11" x1="1009.7" y1="221.7" x2="1009.7" y2="274.3"/>
	<line class="st11" x1="1039.6" y1="303.6" x2="1039.6" y2="351.1"/>
	<line class="st11" x1="1024.3" y1="480.7" x2="1024.3" y2="528.5"/>
	<line class="st11" x1="1052.7" y1="585.1" x2="1052.7" y2="654.4"/>
	<line class="st11" x1="1018.3" y1="679.7" x2="1018.3" y2="731.8"/>
	<line class="st11" x1="1038.9" y1="843.1" x2="1038.9" y2="891.4"/>
	<line class="st11" x1="1000.5" y1="888.1" x2="1000.5" y2="930.9"/>
	<line class="st11" x1="1048.6" y1="959" x2="1048.6" y2="1002.5"/>
	<line class="st11" x1="1012.2" y1="979" x2="1012.2" y2="1025.4"/>
	<line class="st10" x1="1112.9" y1="234.7" x2="1112.9" y2="294.7"/>
	<line class="st10" x1="1142.4" y1="319.8" x2="1142.4" y2="386.8"/>
	<line class="st10" x1="1102.9" y1="460.7" x2="1102.9" y2="512.3"/>
	<line class="st10" x1="1138.7" y1="545" x2="1138.7" y2="605.5"/>
	<line class="st10" x1="1108.7" y1="650.7" x2="1108.7" y2="746.4"/>
	<line class="st10" x1="1138.7" y1="844" x2="1138.7" y2="913.6"/>
	<line class="st10" x1="1097.5" y1="909.5" x2="1097.5" y2="970"/>
	<line class="st10" x1="1125.6" y1="983.5" x2="1125.6" y2="1043.9"/>
	<line class="st11" x1="1202.3" y1="254.9" x2="1202.3" y2="307.6"/>
	<line class="st11" x1="1236.8" y1="351.8" x2="1236.8" y2="404.4"/>
	<line class="st11" x1="1208.1" y1="502.2" x2="1208.1" y2="580.8"/>
	<line class="st11" x1="1245.3" y1="589.6" x2="1245.3" y2="659.4"/>
	<line class="st11" x1="1194.8" y1="687" x2="1194.8" y2="752.6"/>
	<line class="st11" x1="1213.8" y1="848" x2="1213.8" y2="910.5"/>
	<line class="st11" x1="1241.5" y1="939.8" x2="1241.5" y2="992.4"/>
	<line class="st11" x1="1201.3" y1="1009.1" x2="1201.3" y2="1061.7"/>
	<line class="st10" x1="1280.7" y1="289.7" x2="1280.7" y2="336.7"/>
	<line class="st10" x1="1315.3" y1="358.3" x2="1315.3" y2="397.9"/>
	<line class="st10" x1="1289.2" y1="472.1" x2="1289.2" y2="541.5"/>
	<line class="st10" x1="1351.4" y1="573.2" x2="1351.4" y2="633.2"/>
	<line class="st10" x1="1315.3" y1="713.2" x2="1315.3" y2="773.2"/>
	<line class="st10" x1="1295.7" y1="851.2" x2="1295.7" y2="911.3"/>
	<line class="st10" x1="1340.6" y1="912.4" x2="1340.6" y2="972.5"/>
	<line class="st10" x1="1305" y1="995.4" x2="1305" y2="1055.5"/>
	<rect x="856.6" y="625.4" class="st12" width="82.4" height="80.3"/>
	<path class="st13" d="M897.8,648.6c0,0-6.5-0.7-8.6,0c-2.4,0.8-7.2,3.6-8.5,6c-1.4,2.6-2.3,5.5-2.6,8.5c-0.3,2.8-0.5,11.2,0.3,14
		c0.7,2.3,3.9,6.2,5.8,7.6c2.3,1.8,7.2,4.8,9.9,5.5c2,0.5,5.8,2.1,7.8,2.1s6.8-1.6,8.9-2.1c2.3-0.6,7-2.6,8.5-4.7s2.3-7.8,2.4-10.6
		c-0.1-4.4-0.8-8.8-2-13.1c-0.7-2.4-2.5-7.3-4.2-8.9c-2.4-2.2-11.9-4.3-11.9-4.3l-0.4,5.1c0,0,4.9,2.6,6.2,4
		c1.4,1.6,3.2,5.7,3.8,7.9c0.8,2.6,2.1,8.4,1.2,11c-0.6,1.6-3.5,3.5-5,4.2c-2.9,1.1-6,1.7-9.1,1.7c-2.1-0.3-4.1-0.8-6-1.7
		c-1.4-0.6-4.3-2.1-5.3-3.4c-1.3-1.6-2.5-5.9-2.7-8c0-2,0.2-4,0.8-5.9c0.7-2.1,1.7-4.2,3.1-5.9c1.6-1.6,7.8-4,7.8-4L897.8,648.6z"/>
	<path class="st13" d="M894.3,647.6c0,0-0.5,5.6,0.1,6.6s2.5,3.2,4.8,3.5c2,0.2,5.3-1.3,5.5-2.2c1.7-5.3,1.9-9.8-0.1-12.7
		c-0.8-1.1-1.5-3-4.3-3.3c-2.3-0.2-4.6,1.9-5.4,2.8C893.5,644.2,894.3,647.6,894.3,647.6z"/>
	<ellipse class="st8" cx="866.1" cy="634.3" rx="4.8" ry="5.2"/>
	<ellipse class="st8" cx="930.2" cy="634.3" rx="4.8" ry="5.2"/>
	<ellipse class="st8" cx="866.1" cy="696.3" rx="4.8" ry="5.2"/>
	<ellipse class="st8" cx="930.2" cy="696.3" rx="4.8" ry="5.2"/>
	<rect x="986.4" y="625.4" class="st12" width="82.4" height="80.3"/>
	<path class="st13" d="M1027.6,648.6c0,0-6.5-0.7-8.6,0c-2.4,0.8-7.2,3.6-8.5,6c-1.4,2.6-2.3,5.5-2.6,8.5c-0.3,2.8-0.5,11.2,0.3,14
		c0.7,2.3,3.9,6.2,5.8,7.6c2.3,1.8,7.2,4.8,9.9,5.5c2,0.5,5.7,2.1,7.8,2.1s6.8-1.6,8.8-2.1c2.3-0.6,7-2.6,8.5-4.7s2.3-7.8,2.4-10.6
		c-0.1-4.4-0.8-8.8-2-13.1c-0.7-2.4-2.5-7.3-4.2-8.9c-2.4-2.2-11.9-4.3-11.9-4.3l-0.4,5.1c0,0,4.9,2.6,6.2,4
		c1.4,1.6,3.2,5.7,3.8,7.9c0.8,2.6,2.1,8.4,1.2,11c-0.6,1.6-3.6,3.5-5,4.2c-2.9,1.1-6,1.7-9.1,1.7c-2.1-0.3-4.1-0.8-6-1.7
		c-1.4-0.6-4.3-2.1-5.3-3.4c-1.3-1.6-2.5-5.9-2.7-8c0-2,0.2-4,0.8-5.9c0.7-2.1,1.7-4,3.1-5.8c1.6-1.6,7.8-4,7.8-4L1027.6,648.6z"/>
	<path class="st13" d="M1024.1,647.6c0,0-0.5,5.6,0.1,6.6s2.5,3.2,4.8,3.5c2,0.2,5.3-1.3,5.5-2.2c1.7-5.3,1.9-9.8-0.1-12.7
		c-0.8-1.1-1.5-3-4.3-3.3c-2.3-0.2-4.6,1.9-5.4,2.8C1023.3,644.2,1024.1,647.6,1024.1,647.6z"/>
	<ellipse class="st8" cx="995.9" cy="634.3" rx="4.8" ry="5.2"/>
	<ellipse class="st8" cx="1059.9" cy="634.3" rx="4.8" ry="5.2"/>
	<ellipse class="st8" cx="995.9" cy="696.3" rx="4.8" ry="5.2"/>
	<ellipse class="st8" cx="1059.9" cy="696.3" rx="4.8" ry="5.2"/>
</g>
<g id="Faixa_-_reino">
	<polygon class="st14" points="1224.5,172 1268.9,219 1272.4,171.1 1346.2,167.4 1268.9,90.6 1217.1,124.4 	"/>
	<polyline class="st14" points="638.9,115.7 569.3,185.7 650.9,177 650.9,219 718.6,175.2 	"/>
	<path class="st15" d="M834,44.8c-15.8,3.4-47.7,11.8-63.1,17.1c-14.2,4.9-58.4,29.3-58.4,29.3S677,92.1,665.3,94
		C653,96,617,106.9,617,106.9l33.9,24.5l22.8,14l17.9,24.6l20.9,28c0,0,67-25,90-30.6c21.2-5.2,64.5-11.1,86.1-13.1
		c21.9-2.1,66-4,88-3.5c26.7,0.6,106.6,8.8,106.6,8.8s61.8,1.6,81.4,7.9c14.6,4.6,54.1,30.6,54.1,30.6s13-42.9,19.7-56
		c3.7-7.2,14.5-22.4,14.5-22.4l54.6-32.8l-85.6-5.4c-9.7-0.2-26.5-17.1-38.1-22.4c-12.9-5.9-39.8-10.1-54.9-12.3
		c-18.5-2.6-78.8-9-97.4-10.5c-19.9-1.6-52-2.3-71.9-2.3c-15.5,0-49.5,1.3-64.8,2.7C879.8,37.9,848.4,41.7,834,44.8z"/>
	<path class="st16" d="M1232.8,148.9c-17.8-13.6-36-21.3-59.1-26.3c-78.4-16.7-158.5-33.5-239-28c-17.2,1.2-34.3,3.4-51.3,5.6
		c-49.9,6.4-100.4,13.3-146.3,31.4c-20.3,8-32.1,16.8-51.1,26.8l27.5,36.7l91-31l55-8.8L905,150l47-1.5l57.7,1.5l41.3,4.8l43,3.2
		l42.5,2.5c0,0,25.8,0.7,36,6.9c26.5,15.9,45.4,26.8,45.4,26.8L1232.8,148.9z"/>
	<text transform="matrix(0.8147 -0.4053 0.4454 0.8953 735.86 165.6702)" class="st17 st18">R</text>
	<text transform="matrix(0.8552 -0.3111 0.3419 0.9398 780.3497 143.4401)" class="st17 st18">e</text>
	<text transform="matrix(0.8756 -0.2478 0.2723 0.9622 801.4099 136.2505)" class="st17 st18">i</text>
	<text transform="matrix(0.8861 -0.2073 0.2278 0.9737 815.5001 132.2099)" class="st17 st18">n</text>
	<text transform="matrix(0.8962 -0.158 0.1736 0.9848 845.4997 125.0506)" class="st17 st18">o</text>
	<text transform="matrix(0.9063 -7.967795e-02 8.963770e-02 0.996 894.4002 117.8097)" class="st17 st19">d</text>
	<text transform="matrix(0.9084 -4.991024e-02 5.989229e-02 0.9982 922.0396 115.1603)" class="st17 st20">e</text>
	<text transform="matrix(0.9093 2.997603e-02 -3.996804e-02 0.9992 966.9302 113.4393)" class="st17 st21">P</text>
	<text transform="matrix(0.9078 5.985354e-02 -6.982913e-02 0.9976 1014.651 115.37)" class="st17 st22">r</text>
	<text transform="matrix(0.9063 8.200113e-02 -9.011113e-02 0.9959 1037.7803 117.02)" class="st17 st18">ä</text>
	<text transform="matrix(0.9037 0.1065 -0.117 0.9931 1065.5199 119.4402)" class="st17 st18">g</text>
	<text transform="matrix(0.8931 0.1747 -0.192 0.9814 1095.0399 122.5503)" class="st17 st18">n</text>
	<text transform="matrix(0.8763 0.239 -0.2589 0.9659 1125.0697 128.779)" class="st17 st23">a</text>
	<text transform="matrix(0.8694 0.2689 -0.2955 0.9553 1151.8296 135.93)" class="st17 st18">n</text>
	<text transform="matrix(0.8632 0.3011 -0.3312 0.9435 1181.4899 145.2004)" class="st17 st24">z</text>
	<polygon class="st25" points="652.8,174.9 682.3,160.6 699.7,184.8 652.2,215.7 	"/>
	<polygon class="st25" points="1237,151.3 1245.1,155.4 1256.2,161.4 1263.7,165.5 1267.9,167.9 1270.1,169 1267.1,213.8 
		1228.6,173.4 	"/>
</g>
<rect x="3" y="3" class="st26" width="1920" height="1080"/>
</svg>
