<?xml version="1.0" encoding="utf-8"?>
<!-- Generator: Adobe Illustrator 22.0.0, SVG Export Plug-In . SVG Version: 6.00 Build 0)  -->
<svg version="1.1" id="Layer_1" xmlns="http://www.w3.org/2000/svg" xmlns:xlink="http://www.w3.org/1999/xlink" x="0px" y="0px"
	 viewBox="0 0 500 500" style="enable-background:new 0 0 500 500;" xml:space="preserve">
<path d="M288.8,279.4c-3.5,6.8-4,12.8-4.9,18.7c-1.4,9-2.3,17.7-7.3,26.1c-0.9,1.5-1.6,3.1-2.2,4.7c10.1-3,19-8.5,26.2-15.8
	c-0.5-1-1.1-2-1.7-2.9C293.7,301,290.1,291.3,288.8,279.4z"/>
<path d="M242.6,280c6.5-12.1,17.1-20.5,29.3-26c11.7-5.3,21.9-12,31.7-20.5c0.4-0.3,0.7-0.6,1.1-0.9c-11.1-13.9-28.2-22.8-47.4-22.8
	c-33.6,0-60.8,27.2-60.8,60.8c0,25.5,15.7,47.3,37.9,56.3C233.2,311.1,234.3,295.3,242.6,280z"/>
</svg>
