<?xml version="1.0" encoding="utf-8"?>
<!-- Generator: Adobe Illustrator 22.0.0, SVG Export Plug-In . SVG Version: 6.00 Build 0)  -->
<svg version="1.1" id="Layer_1" xmlns="http://www.w3.org/2000/svg" xmlns:xlink="http://www.w3.org/1999/xlink" x="0px" y="0px"
	 viewBox="0 0 500 500" style="enable-background:new 0 0 500 500;" xml:space="preserve">
<path d="M248.8,200.9c-32,0-58.9,22-66.4,51.7c4-2.8,8.4-5.2,13.2-7c3.1-1.2,4-3.6,4-6.7c0-3.4,0-6.9,1.9-9.9c1.6-2.7,3.7-5.6,7.2-5
	c3.4,0.7,1.8,4.2,2.3,6.5c0.9,4.1,1.6,8.2,2.6,13.2c5.8-3.5,10.1-7.4,13-13c0.9-1.7,1.4-4.2,3.8-3.7c2.6,0.5,3.1,3.1,3.4,5.4
	c0.5,3.5-0.8,6.8-2,9.9c-3.7,9.2-0.4,16.5,5.9,22.8c4,3.9,7.3,7.8,7.2,13.7c-0.1,2.7,2,4.6,3.6,6.5c5.2,6,9.8,12.6,15.7,17.8
	c7,6.2,5.6,13.2,3.1,20.1c-2.5,6.9-9.4,8.5-15.6,10.3c-3.7,1-6-1.5-8.5-4.3c-10.1-11.2-24.5-14.1-38.1-18.2c-2.2-0.7-3,1.3-3.5,2.9
	c-0.4,1.3-0.8,2.6-1.2,3.9c12.4,12.4,29.5,20,48.4,20c37.8,0,68.4-30.6,68.4-68.4S286.6,200.9,248.8,200.9z"/>
</svg>
