<?xml version="1.0" encoding="utf-8"?>
<!-- Generator: Adobe Illustrator 22.0.0, SVG Export Plug-In . SVG Version: 6.00 Build 0)  -->
<svg version="1.1" id="Layer_1" xmlns="http://www.w3.org/2000/svg" xmlns:xlink="http://www.w3.org/1999/xlink" x="0px" y="0px"
	 viewBox="0 0 500 500" style="enable-background:new 0 0 500 500;" xml:space="preserve">
<path d="M261.5,280.6c-4.8-5.5-8.1-1.5-12.6,1.6c0.4-4.1,0.7-7,1-10.3c-3.4,1.1-3.1,5.3-7.2,5.9c-1.2-4.8,0.6-9.1,2.1-13.4
	c2.8-8.2,5-16.3,0.6-24c-13.9,2.3-24.5,14.4-24.5,29c0,16.2,13.2,29.4,29.4,29.4c16.2,0,29.4-13.2,29.4-29.4c0-3.7-0.7-7.2-1.9-10.5
	c-1.1,6.4-3.2,12.5-6.8,18.5C268.6,281.2,265.8,285.5,261.5,280.6z"/>
</svg>
