<?xml version="1.0" encoding="utf-8"?>
<!-- Generator: Adobe Illustrator 22.0.0, SVG Export Plug-In . SVG Version: 6.00 Build 0)  -->
<svg version="1.1" id="Layer_1" xmlns="http://www.w3.org/2000/svg" xmlns:xlink="http://www.w3.org/1999/xlink" x="0px" y="0px"
	 viewBox="0 0 500 500" style="enable-background:new 0 0 500 500;" xml:space="preserve">
<path d="M263.7,261.6c-4.9,9.5-8.8,19.4-10.3,29.9c11.2-1.5,19.8-11.1,19.8-22.7c0-5.1-1.7-9.8-4.5-13.6
	C266.7,257,265,259,263.7,261.6z"/>
<path d="M237.3,265c-0.2-5.4,2.4-10.3,6.2-14.5c1.2-1.4,2.3-2.8,3.4-4.3c-11,1.7-19.4,11.1-19.4,22.6c0,7.5,3.6,14.1,9.2,18.3
	C237.2,279.7,237.5,272.4,237.3,265z"/>
</svg>
