<?xml version="1.0" encoding="utf-8"?>
<!-- Generator: Adobe Illustrator 22.0.0, SVG Export Plug-In . SVG Version: 6.00 Build 0)  -->
<svg version="1.1" id="Layer_1" xmlns="http://www.w3.org/2000/svg" xmlns:xlink="http://www.w3.org/1999/xlink" x="0px" y="0px"
	 viewBox="0 0 500 500" style="enable-background:new 0 0 500 500;" xml:space="preserve">
<path d="M223.9,270.8c-0.8-1.5-2.5-1.4-3.7-0.5c-0.3,0.2-0.7,0.5-1,0.7c0.8,11.2,7.5,20.8,17,25.6c-0.6-1.7-1-3.4-1.1-5.3
	C234.5,282.8,227.6,277.7,223.9,270.8z"/>
<path d="M261.7,243.2c-0.3,0.5-0.8,0.8-1.2,1.2c-14.1,13.2-15,13.7-6.7,30.8c3.7,7.5,4.6,15.5,6.2,23.2
	c12.4-4.1,21.3-15.8,21.3-29.5c0-12.3-7.2-23-17.6-28.1C263,241.5,262.4,242.3,261.7,243.2z"/>
</svg>
