<?xml version="1.0" encoding="utf-8"?>
<!-- Generator: Adobe Illustrator 22.0.0, SVG Export Plug-In . SVG Version: 6.00 Build 0)  -->
<svg version="1.1" id="Layer_1" xmlns="http://www.w3.org/2000/svg" xmlns:xlink="http://www.w3.org/1999/xlink" x="0px" y="0px"
	 viewBox="0 0 500 500" style="enable-background:new 0 0 500 500;" xml:space="preserve">
<path d="M256.6,287.1c-4.3,0.2-8.5-0.4-12.6-1.5c-3-0.8-4.5-2.4-5.4-5.7c-3.1-11.8-6.7-23.4-11.3-34.6c-6.3,6.1-10.2,14.6-10.2,24
	c0,18.4,14.9,33.3,33.3,33.3c18.4,0,33.3-14.9,33.3-33.3c0-18.4-14.9-33.3-33.3-33.3c-2.9,0-5.7,0.4-8.4,1.1
	c4.8,14.2,9.6,28.5,20,40.3C267.2,283.4,264.9,286.7,256.6,287.1z"/>
</svg>
