<?xml version="1.0" encoding="utf-8"?>
<!-- Generator: Adobe Illustrator 22.0.0, SVG Export Plug-In . SVG Version: 6.00 Build 0)  -->
<svg version="1.1" id="Layer_1" xmlns="http://www.w3.org/2000/svg" xmlns:xlink="http://www.w3.org/1999/xlink" x="0px" y="0px"
	 viewBox="0 0 500 500" style="enable-background:new 0 0 500 500;" xml:space="preserve">
<path d="M262.2,228.5c-10.6,4.6-7.7,13-6,20.9c3,14.7,7.3,28.9,16.7,41.1c3.4,4.4,2,7.4-3.6,8c-6,0.7-11.9-0.4-17.6-2.1
	c-2.6-0.8-5-2.8-4.6-5.4c1.5-11.4-5.7-20.5-8-30.9c-0.2-1.1-0.6-2.2-0.8-3.3c-2.8-12.3-2.9-12.4-15-8.4c-6.2,2-8.2-0.6-7-6.1
	c1.4-7,5.7-12.4,11.8-15.9c3.4-1.9,4.8-4.2,4.8-7.3c-20.2,7.1-34.7,26.3-34.7,49c0,28.7,23.2,51.9,51.9,51.9
	c28.7,0,51.9-23.2,51.9-51.9c0-22.7-14.5-41.9-34.8-49c-1,2.2-2.1,4.5-3.1,6.7C263.8,226.8,263.1,228.1,262.2,228.5z"/>
</svg>
