<?xml version="1.0" encoding="utf-8"?>
<!-- Generator: Adobe Illustrator 22.0.0, SVG Export Plug-In . SVG Version: 6.00 Build 0)  -->
<svg version="1.1" xmlns="http://www.w3.org/2000/svg" xmlns:xlink="http://www.w3.org/1999/xlink" x="0px" y="0px"
	 viewBox="0 0 500 500" style="enable-background:new 0 0 500 500;" xml:space="preserve">
<g id="Layer_1">
	<g>
		<path d="M137.2,241.4c-2.7,5.4-3.1,10-3.8,14.6c-1.1,7-1.8,13.8-5.7,20.4c-4.7,8-3.5,17.6-2,26.6c2.1,12.1,1.7,23.8-4.9,34.6
			c-1.8,2.9-4,6.3-7.3,2.4c-3.8-4.3-6.3-1.1-9.9,1.2c0.3-3.2,0.5-5.5,0.8-8c-2.7,0.9-2.5,4.2-5.7,4.6c-0.9-3.8,0.5-7.1,1.6-10.5
			c2.5-7.4,4.5-14.8-1.6-21.6c-0.3-0.3-0.5-0.8-0.5-1.2c-3-21.1-8.3-42.4,2.8-62.8c5.1-9.4,13.4-16,22.9-20.3
			c9.2-4.1,17.1-9.4,24.8-16c15-12.8,33.2-14.7,52-11.1c12.5,2.4,25.1,2.5,37.7,2.2c7.2-0.2,14-2.1,20.4-5.2
			c22.5-10.6,42.1-25.1,58.4-44c8.8-10.2,17.7-20.5,30.9-25.5c2.5-0.9,3.1-2.9,3.1-5.3c0-2.7,0-5.4,1.5-7.7c1.3-2.1,2.9-4.4,5.6-3.9
			c2.7,0.5,1.4,3.3,1.8,5.1c0.7,3.2,1.3,6.4,2,10.3c4.5-2.7,7.9-5.8,10.2-10.2c0.7-1.3,1.1-3.3,3-2.9c2,0.4,2.4,2.5,2.7,4.2
			c0.4,2.7-0.6,5.3-1.6,7.7c-2.9,7.2-0.4,12.9,4.6,17.8c3.1,3.1,5.7,6.1,5.6,10.7c0,2.1,1.5,3.6,2.8,5.1c4,4.7,7.6,9.9,12.2,14
			c5.5,4.9,4.4,10.3,2.4,15.7c-1.9,5.4-7.3,6.7-12.2,8c-2.9,0.8-4.7-1.2-6.6-3.3c-7.9-8.8-19.1-11-29.8-14.2
			c-1.7-0.5-2.4,1.1-2.7,2.3c-4.2,15.3-14.4,28.6-14.6,45.1c-0.1,7.3,0.3,14.5,0.8,21.8c0.6,9.5-2.4,17.6-9.3,23.9
			c-3.6,3.3-3.7,6-0.8,9.6c2.9,3.6,5.4,7.6,8.4,11.1c4.2,4.9,5.3,10.1,2.7,15.9c-3.5,7.9-7.2,15.7-10.8,23.5
			c-0.4,0.8-0.9,1.8-1.6,2.1c-8.3,3.6-6,10.1-4.7,16.4c2.4,11.5,5.7,22.6,13.1,32.1c2.7,3.4,1.6,5.8-2.8,6.3
			c-4.7,0.5-9.3-0.3-13.7-1.6c-2-0.6-3.9-2.2-3.6-4.3c1.1-8.9-4.5-16-6.2-24.1c-0.2-0.9-0.5-1.7-0.7-2.6c-2.2-9.6-2.2-9.7-11.7-6.5
			c-4.9,1.6-6.4-0.5-5.5-4.8c1.1-5.5,4.4-9.7,9.2-12.4c3.5-2,4.3-4.4,3.5-8.2c-2.3-10.4-5-20.6-8.9-30.5c-2.1-5.4-5.5-7.9-10.8-8
			c-4.4-0.1-9-0.5-13.2,0.5c-19.4,4.9-38.6,3.1-57.8-1.3c-4.8-1.1-8.7-0.8-11.6,3.6c-0.2,0.4-0.6,0.6-0.9,0.9
			c-11.1,10.4-11.8,10.7-5.2,24.1c4.1,8.3,3.8,17.2,6.8,25.4c5.3,14.2,8.5,29.3,19,41.2c4.1,4.7,2.4,7.3-4.2,7.6
			c-3.3,0.2-6.6-0.3-9.8-1.2c-2.4-0.6-3.5-1.9-4.2-4.4c-4.6-17.2-10.4-34.1-20.1-49.2c-1.4-2.1-2-4.3-2.2-6.8
			c-0.5-6.7-5.8-10.7-8.8-16.1c-0.6-1.2-2-1.1-2.9-0.4c-4.4,3.3-9.4,6-12.1,11.1c-5.1,9.9-8.8,20.1-8.5,31.5
			c0.1,3.3,0.1,6.7-0.2,9.9c-0.5,5.6,0.5,10.3,5.5,13.9c3.2,2.4,6.2,6.7,4.7,10.2c-1.6,3.7-6.6,2.1-10.3,1.6
			c-7.8-0.9-14.9-10.7-14.6-19.6c0.5-15,3.2-29.8,2.7-44.9c-0.1-4.2,1.9-8.1,4.8-11.4c1.9-2.1,3.4-4.6,5.2-6.8
			c9.2-11.8,4.8-23-1.7-34.1C141,258.3,138.1,250.7,137.2,241.4z"/>
	</g>
</g>
<g id="Layer_2">
</g>
</svg>
