<?xml version="1.0" encoding="utf-8"?>
<!-- Generator: Adobe Illustrator 22.0.0, SVG Export Plug-In . SVG Version: 6.00 Build 0)  -->
<svg version="1.1" xmlns="http://www.w3.org/2000/svg" xmlns:xlink="http://www.w3.org/1999/xlink" x="0px" y="0px"
	 viewBox="0 0 500 500" style="enable-background:new 0 0 500 500;" xml:space="preserve">
<style type="text/css">
	.st0{fill:#080808;}
</style>
<g id="Layer_1">
</g>
<g id="Layer_2">
	<g>
		<path d="M426.8,49.9c-32,0-58.9,22-66.4,51.7c4-2.8,8.4-5.2,13.2-7c3.1-1.2,4-3.6,4-6.7c0-3.4,0-6.9,1.9-9.9
			c1.6-2.7,3.7-5.6,7.2-5c3.4,0.7,1.8,4.2,2.3,6.5c0.9,4.1,1.6,8.2,2.6,13.2c5.8-3.5,10.1-7.4,13-13c0.9-1.7,1.4-4.2,3.8-3.7
			c2.6,0.5,3.1,3.1,3.4,5.4c0.5,3.5-0.8,6.8-2,9.9c-3.7,9.2-0.4,16.5,5.9,22.8c4,3.9,7.3,7.8,7.2,13.7c-0.1,2.7,2,4.6,3.6,6.5
			c5.2,6,9.8,12.6,15.7,17.8c7,6.2,5.6,13.2,3.1,20.1c-2.5,6.9-9.4,8.5-15.6,10.3c-3.7,1-6-1.5-8.5-4.3
			c-10.1-11.2-24.5-14.1-38.1-18.2c-2.2-0.7-3,1.3-3.5,2.9c-0.4,1.3-0.8,2.6-1.2,3.9c12.4,12.4,29.5,20,48.4,20
			c37.8,0,68.4-30.6,68.4-68.4S464.6,49.9,426.8,49.9z"/>
		<path d="M103.8,247.4c-3.5,6.8-4,12.8-4.9,18.7c-1.4,9-2.3,17.7-7.3,26.1c-0.9,1.5-1.6,3.1-2.2,4.7c10.1-3,19-8.5,26.2-15.8
			c-0.5-1-1.1-2-1.7-2.9C108.7,269,105.1,259.3,103.8,247.4z"/>
		<path d="M57.6,248c6.5-12.1,17.1-20.5,29.3-26c11.7-5.3,21.9-12,31.7-20.5c0.4-0.3,0.7-0.6,1.1-0.9
			c-11.1-13.9-28.2-22.8-47.4-22.8c-33.6,0-60.8,27.2-60.8,60.8c0,25.5,15.7,47.3,37.9,56.3C48.2,279.1,49.3,263.3,57.6,248z"/>
		<path d="M73.5,373.6c-4.8-5.5-8.1-1.5-12.6,1.6c0.4-4.1,0.7-7,1-10.3c-3.4,1.1-3.1,5.3-7.2,5.9c-1.2-4.8,0.6-9.1,2.1-13.4
			c2.8-8.2,5-16.3,0.6-24c-13.9,2.3-24.5,14.4-24.5,29c0,16.2,13.2,29.4,29.4,29.4c16.2,0,29.4-13.2,29.4-29.4
			c0-3.7-0.7-7.2-1.9-10.5c-1.1,6.4-3.2,12.5-6.8,18.5C80.6,374.2,77.8,378.5,73.5,373.6z"/>
		<path d="M347.2,358.5c-10.6,4.6-7.7,13-6,20.9c3,14.7,7.3,28.9,16.7,41.1c3.4,4.4,2,7.4-3.6,8c-6,0.7-11.9-0.4-17.6-2.1
			c-2.6-0.8-5-2.8-4.6-5.4c1.5-11.4-5.7-20.5-8-30.9c-0.2-1.1-0.6-2.2-0.8-3.3c-2.8-12.3-2.9-12.4-15-8.4c-6.2,2-8.2-0.6-7-6.1
			c1.4-7,5.7-12.4,11.8-15.9c3.4-1.9,4.8-4.2,4.8-7.3c-20.2,7.1-34.7,26.3-34.7,49c0,28.7,23.2,51.9,51.9,51.9
			c28.7,0,51.9-23.2,51.9-51.9c0-22.7-14.5-41.9-34.8-49c-1,2.2-2.1,4.5-3.1,6.7C348.8,356.8,348.1,358.1,347.2,358.5z"/>
		<path d="M148.9,327.8c-0.8-1.5-2.5-1.4-3.7-0.5c-0.3,0.2-0.7,0.5-1,0.7c0.8,11.2,7.5,20.8,17,25.6c-0.6-1.7-1-3.4-1.1-5.3
			C159.5,339.8,152.6,334.7,148.9,327.8z"/>
		<path d="M186.7,300.2c-0.3,0.5-0.8,0.8-1.2,1.2c-14.1,13.2-15,13.7-6.7,30.8c3.7,7.5,4.6,15.5,6.2,23.2
			c12.4-4.1,21.3-15.8,21.3-29.5c0-12.3-7.2-23-17.6-28.1C188,298.5,187.4,299.3,186.7,300.2z"/>
		<path d="M125.6,412.4c4.1,3,8,8.6,6.1,13c-2,4.8-8.4,2.7-13.1,2.1c-6.7-0.8-12.9-6.6-16.2-13.9c-0.1,0.7-0.1,1.4-0.1,2.1
			c0,9.7,7.9,17.6,17.6,17.6c9.7,0,17.6-7.9,17.6-17.6c0-9.7-7.9-17.6-17.6-17.6c-0.5,0-0.9,0-1.3,0.1
			C118.6,403.8,120.4,408.6,125.6,412.4z"/>
		<path d="M129.7,341.6c-4.9,9.5-8.8,19.4-10.3,29.9c11.2-1.5,19.8-11.1,19.8-22.7c0-5.1-1.7-9.8-4.5-13.6
			C132.7,337,131,339,129.7,341.6z"/>
		<path d="M103.3,345c-0.2-5.4,2.4-10.3,6.2-14.5c1.2-1.4,2.3-2.8,3.4-4.3c-11,1.7-19.4,11.1-19.4,22.6c0,7.5,3.6,14.1,9.2,18.3
			C103.2,359.7,103.5,352.4,103.3,345z"/>
		<path d="M206.6,427.1c-4.3,0.2-8.5-0.4-12.6-1.5c-3-0.8-4.5-2.4-5.4-5.7c-3.1-11.8-6.7-23.4-11.3-34.6c-6.3,6.1-10.2,14.6-10.2,24
			c0,18.4,14.9,33.3,33.3,33.3c18.4,0,33.3-14.9,33.3-33.3c0-18.4-14.9-33.3-33.3-33.3c-2.9,0-5.7,0.4-8.4,1.1
			c4.8,14.2,9.6,28.5,20,40.3C217.2,423.4,214.9,426.7,206.6,427.1z"/>
		<path d="M359.7,305.4c5.4,6.2,6.8,12.9,3.4,20.4c-2.7,6-5.5,12.1-8.3,18.1c1.2,0.1,2.4,0.2,3.6,0.2c16.6,0,30.1-13.5,30.1-30.1
			S375,284,358.4,284c-4.2,0-8.3,0.9-11.9,2.5c0.3,1.5,1.1,3.1,2.5,4.8C352.6,295.9,355.8,301,359.7,305.4z"/>
		<path d="M361.9,248.5c0.2,2.4,0.1,4.7-0.1,6.9c0.6,0,1.2,0,1.9,0c21.4,0,38.8-17.4,38.8-38.8c0-18-12.3-33.1-28.9-37.5
			c-5.8,13.3-12.5,26.4-12.7,41.5C360.8,229.9,361.3,239.2,361.9,248.5z"/>
		<path d="M185.1,187.4c3.5,0.7,7,1.2,10.4,1.6c0-0.2,0-0.3,0-0.5c0-15.6-12.6-28.2-28.2-28.2c-15.6,0-28.2,12.6-28.2,28.2
			c0,0.3,0,0.6,0,1C153.5,184.3,169.2,184.3,185.1,187.4z"/>
		<path d="M310.7,150.6c-6.5-12-19.2-20.1-33.7-20.1c-21.2,0-38.4,17.2-38.4,38.4c0,7.3,2,14.1,5.6,20c5.2-1.1,10.3-3,15.2-5.3
			C278.2,174.8,295.3,163.8,310.7,150.6z"/>
		<path d="M292.4,296.7c-5.6-0.2-11.5-0.7-16.9,0.7c-3,0.8-6.1,1.4-9.1,1.9c0,0,0,0,0,0c0,16.1,13.1,29.2,29.2,29.2
			c6,0,11.6-1.8,16.2-4.9c-1.7-5.6-3.5-11.2-5.7-16.7C303.6,300.1,299.2,296.9,292.4,296.7z"/>
		<path d="M206.5,296.7c1,9.6,9.2,17.2,19.1,17.2c8.3,0,15.4-5.3,18.1-12.8C231.2,301.1,218.8,299.4,206.5,296.7z"/>
		<path class="st0" d="M74.9,246.6c0-5.3-6.5-6.4-9.3-2.5c-2.5,3.4-5.5,6.4-8.9,8.8c-5.2,3.7-0.2,12.4,5,8.6
			c1.1-0.8,2.2-1.7,3.3-2.5c0,3,0,6,0.1,9c0,6.4,10,6.4,10,0C75,260.9,74.9,253.8,74.9,246.6z"/>
		<path class="st0" d="M54.2,425.6c-4.5-1-8.7-2.4-12.8-4.2c3.7-7,2.8-16.1-2.8-22.5c-6.3-7.2-23.8-13.4-29.1-1.6
			c-2.6,5.8,6,10.9,8.6,5c2.2-4.9,11.3,1,13.3,3.6c2.6,3.2,2.9,7.3,1.1,10.6c-4.9-2.9-10.7-4.9-15.5-0.4c-4.5,4.1-3.2,11,2,13.8
			c4.7,2.6,10.5,1.6,14.9-1c5.5,2.9,11.4,4.9,17.5,6.2C57.8,436.6,60.5,427,54.2,425.6z"/>
		<path class="st0" d="M137.1,314c-0.2-3.3-1.9-5.7-4.2-7.4c1.3-3.1,1.3-6.7-0.9-10c-4.6-7-15.3-5.9-19.4,0.9
			c-3.3,5.5,5.3,10.6,8.6,5c1.6-2.7,3.7,1.3,1.4,1.5c-0.5,0-0.9,0.1-1.4,0.2c-5.5,1-4.3,10.4,1.3,9.8c0.4,0,0.9-0.1,1.3-0.2
			c0,0,0,0,0,0c1.2-0.2,2,0.1,3,0.7c1.1,0.6-0.9-0.1,0.8,0.7c-5.8-2.7-10.9,5.9-5,8.6C129.7,327.2,137.7,321.9,137.1,314z"/>
		<path class="st0" d="M134.4,472.7c-1.4-8.3-2.9-16.6-4.3-24.9c-0.8-4.7-9-4.8-9.6,0c-0.6,4-4-1.8-4.3-3c-1.8-6.2-11.5-3.5-9.6,2.7
			c1.6,5.6,5.4,10.9,11.6,11.6c1.3,0.2,2.6,0.1,3.8-0.2c1,5.5,1.9,11,2.9,16.5C125.9,481.7,135.5,479,134.4,472.7z"/>
		<path class="st0" d="M183.8,292.3c-0.6-2.3-2.2-4.1-4.1-5.5c1.8-0.7,3.2-2.8,3.2-4.7c0-3-2.3-4.7-5-5c-5-0.6-9.4,1.2-13.3,4.2
			c-1.8,1.4-1.7,4.3-0.8,6.1c1.7,3.2,4.7,4.9,7.9,6.4c0.4,0.2,0.8,0.4,1.2,0.6c-1.1,0-2.2,0.1-3.3-0.1c-6.3-1-9,8.6-2.7,9.6
			c4.2,0.7,8.6,1.2,12.4-1.2C182.8,300.5,184.9,296.3,183.8,292.3z"/>
		<path class="st0" d="M253.8,464.3c-3.9-3.4-9.8-5.6-15.1-5.2c1.4-3.8,4-7.4,8.4-7.7c6.4-0.4,6.4-10.4,0-10
			c-12,0.8-18.1,11.2-19.5,22.1c-0.7,4.9-2,11.3,1.1,15.8c3.2,4.7,10,5.3,15.2,5.2c5.4-0.2,10.8-2.3,13.2-7.4
			C259.1,472.4,257.5,467.5,253.8,464.3z M244.6,474.4c-1.7,0.2-6.1,0.3-7.3-0.9c-0.6-0.5-0.8-1.6-0.8-2.9c0.3-0.3,0.7-0.7,1-1.1
			c1.3-2,7.3,0.6,8.8,1.5C248.7,472.7,247.4,474,244.6,474.4z"/>
		<path class="st0" d="M245.4,284.7c-0.8-4.7-1.5-9.4-2.3-14.1c-0.6-3.5-4.7-4.1-7.3-3c-2.7,1.2-5.4,2.4-8.1,3.5
			c-2.5,1.1-3,4.7-1.8,6.8c1.5,2.6,4.4,2.9,6.8,1.8c0.6-0.2,1.1-0.5,1.7-0.7l1.3,8.3c0.4,2.7,3.7,4.2,6.2,3.5
			C244.8,290.1,245.8,287.4,245.4,284.7z"/>
		<path class="st0" d="M309.2,281.3c-0.7-2.7-1.9-5.1-3.6-7.1c1.6-3.1,2.3-6.6,1.9-10c-0.2-1.9-1.3-3.2-2.7-4
			c0.1-1.6-0.6-3.2-2.5-4.1c-7.4-3.9-17.1-0.3-18.2,8.6c-0.5,3.8,0.8,7.4,3.4,10.1c-2.9,0.9-5.2,2.4-6.4,5.9
			c-3.3,10.1,6.2,16.4,14.9,17.3c4.3,0.4,9.5,0.8,12.4-3.1C311.1,291.2,310.2,285.3,309.2,281.3z M297.3,264.7
			c0.1,0,0.2,0.1,0.3,0.1c0.1,1.6-0.1,3.1-0.7,4.4c-0.7-0.3-1.3-0.7-1.8-1.1C293.1,266.3,294.4,263.2,297.3,264.7z M295.9,287.8
			c-1.4-0.2-5.2-0.8-5.3-2.9c-0.1-2,2.9-1.4,4.6-1.9c1.2-0.4,2.3-0.9,3.4-1.5c0.2,0.3,0.5,0.7,0.6,1.1c0.7,1.6,0.9,3.7,0.9,5.5
			c-0.1,0-0.1,0-0.2,0C298.7,287.8,297.2,288,295.9,287.8z"/>
		<path class="st0" d="M425,429c-0.5-9.3-1-18.6-1.5-27.9c-0.1-1.7-0.9-3-2.1-3.8c-0.1-0.6-0.2-1.1-0.5-1.7
			c-6.3-12.7-24.7-4.3-22,8.8c1.3,6.4,7.2,11,13.7,11.5c0.6,0,1.2,0,1.8,0c0.2,4.4,0.5,8.8,0.7,13.1
			C415.4,435.4,425.4,435.4,425,429z M412.2,400.7c0.3,0.5,0.6,1,0.9,1.3c-0.3,1.2-0.7,2.7-0.9,3.8c-1-0.3-1.8-0.7-2.6-1.4
			C407.2,401.5,410.4,397,412.2,400.7z"/>
		<path class="st0" d="M414.4,325.7c-1.2-7.7-2.5-15.5-3.7-23.2c-0.7-4.2-7.3-4.9-9.1-1.2c-2.2,4.5-5.4,7.6-9.9,9.8
			c-5.8,2.8-0.7,11.4,5,8.6c2.2-1.1,4.2-2.4,6-3.9c0.7,4.2,1.3,8.3,2,12.5C405.7,334.7,415.4,332,414.4,325.7z"/>
		<path class="st0" d="M436.1,308.9c-0.8-0.4-1.6-0.6-2.3-0.6c1.4-1.4,2-3.5,0.5-5.7c-3.8-5.9-11.9-4.1-14.3,2.1
			c-2.2,5.7-1.7,13.7,2.8,18.1c4.2,4.1,11.5,4.9,15.5,0.2C441.9,318.7,441.2,311.6,436.1,308.9z M430,309.9c-0.6,0.6-1,1.4-1.3,2.2
			c0-0.2,0-0.5,0-0.7c0-0.4,0.1-1,0.2-1.5C429.3,310,429.7,310,430,309.9z"/>
		<path class="st0" d="M430,212.5c-0.9-3.5-5.9-5-8.4-2.2c-4.9,5.6-8.6,11.6-11.4,18.4c-2.5,5.9,7.2,8.5,9.6,2.7
			c0.7-1.6,1.4-3.2,2.3-4.7c0.3,4,0.2,8.1-0.3,12.2c-0.7,6.4,9.3,6.3,10,0C432.8,230,432.1,221.1,430,212.5z"/>
		<path class="st0" d="M455,219.7c-0.2-5.4,0.5-10.7-4.5-14.1c-2.3-1.6-5.5-0.4-6.8,1.8c-2.4,3.7-4.7,7.3-7.1,11
			c-3.5,5.4,4.9,10.3,8.5,5.2c0,0.9,0.1,1.9,0.1,2.8c0.1,4.8,0.3,9.7,0.4,14.5c0.2,6.4,10.2,6.4,10,0
			C455.4,233.9,455.2,226.8,455,219.7z"/>
		<path class="st0" d="M357,41.6c-0.9-4.7-6.8-4.3-9.1-1.2c-2.5,3.3-4.9,6.6-7.4,9.9c-1.6,2.2-0.3,5.6,1.8,6.8
			c2.4,1.5,5,0.5,6.6-1.5c0.1,1.5,0.2,2.9,0.2,4.4c0.2,6.4,10.2,6.4,10,0C358.9,53.8,358.2,47.7,357,41.6z"/>
		<path class="st0" d="M387.3,48.5C387.2,48.5,387.2,48.5,387.3,48.5c0.1-2.4-0.2-5-1-7.3c-1.8-5.2-4.8-11.6-10.5-13.5
			c-5.4-1.8-10.6,0.8-12.6,6c-2.2,5.8,6.8,8.5,9.4,3.2c0,0,0.1,0.1,0.1,0.2c0.2,0.4,1,0.9,1.3,1.3c1.1,1.5,2,3.6,2.6,5.4
			c0.4,1.2,0.7,2.4,0.6,3.5c-1.4,0-2.9,0-4.4,0c-4.6,0.2-6.3,5.2-3.5,8.5c3,3.6,8.1,3.8,12,1.7c1.1,0.1,2.2,0.3,3.3,0.5
			C390.9,59.3,393.6,49.7,387.3,48.5z"/>
		<path class="st0" d="M252.5,117.7c-1.2-5.1-2.3-10.2-3.5-15.4c-0.9-4.2-7.1-4.9-9.1-1.2c-3.7,6.8-7.5,13.5-11.2,20.3
			c-3.1,5.6,5.5,10.7,8.6,5l4.9-8.9c0.2,0.9,0.4,1.9,0.6,2.8C244.3,126.7,253.9,124,252.5,117.7z"/>
		<path class="st0" d="M277.1,104.7c-2.6-4.5-0.3-10-5.2-13.3c-4.4-3-9.4-1.3-13.6,1.1c-5.5,3.3-0.5,11.9,5,8.6
			c0.6-0.4,1.3-0.8,2-1.1c0,0.1,0,0.2,0,0.3c-0.3,1.3,0.3,3.3,0.7,4.5c0.5,1.4,1.2,2.9,2,4.2c0.6,1.1,2.4,5.4,3.5,5.7
			c-6.2-1.8-8.8,7.9-2.7,9.6c4.5,1.3,9-1,11.1-5.2C282.4,114.1,279.7,109,277.1,104.7z"/>
		<path class="st0" d="M143.8,153c-0.7-8.1-1.3-16.2-2-24.3c-0.4-4.5-6.9-7.3-9.3-2.5c-3.3,6.7-6.7,13.4-10,20.2
			c-2.9,5.7,5.8,10.8,8.6,5c0.7-1.5,1.5-3,2.2-4.5c0.2,2,0.3,4,0.5,6.1C134.4,159.4,144.4,159.4,143.8,153z"/>
		<path class="st0" d="M183.5,144.8c-2.1-8.3-4.2-16.7-6.2-25c-1.2-4.7-8.6-4.8-9.6,0c-0.5,2.4-1.5,9.3-5.2,8.7
			c-3.2-0.5-3-7.1-3.1-9.2c-0.2-6.4-10.2-6.4-10,0c0.3,7.9,2.5,17.6,11.7,19.1c4.1,0.7,7.3-0.7,9.8-3c1,4.1,2,8.1,3,12.2
			C175.4,153.7,185,151,183.5,144.8z"/>
	</g>
</g>
</svg>
