<svg id="Layer_6" data-name="Layer 6" xmlns="http://www.w3.org/2000/svg" viewBox="0 0 682.49 915.66"><defs><style>.cls-1{fill:#2d2828;}.cls-1,.cls-2,.cls-5,.cls-6,.cls-7{stroke:#000;stroke-miterlimit:10;}.cls-2,.cls-4,.cls-7{fill:#dda95f;}.cls-2{stroke-width:4px;}.cls-3{fill:#1c150c;}.cls-5,.cls-8{fill:#6f5530;}.cls-5{stroke-width:6px;}.cls-6{fill:#241a0c;}.cls-6,.cls-7{stroke-width:2px;}</style></defs><title>barril</title><path class="cls-1" d="M702.81,915.46c2.64,12.52,1.15,12.3,16.61,20,21.55,10.74,62.48,32.39,85.37,38,22.49,5.52,62.92,15.79,85.64,19.66,30,5.12,92.57,7.6,122.87,7.87,39.9.36,114.4-17,153.31-27.53,26.25-7.07,53-23.5,76.93-38,13.44-8.14,26.15-17.13,28.25-28.75,3-16.64-9.5-64.5-9.5-64.5s-1.06,19.3-17.77,28.17c-52,27.62-58.69,46.93-81.78,52.32-36.76,8.59-111.7,24.54-149.14,26.38-31.23,1.53-93.94-1.48-124.94-6.33-20.31-3.17-60.3-14.35-80-21.15-21.41-7.4-56.19-29.76-76.77-40C709.1,870.34,705,838.94,705,838.94S699.25,898.53,702.81,915.46Z" transform="translate(-633.34 -85.84)"/><path class="cls-2" d="M722.49,889.28c-27.3-22.23-56.56-112.52-67.2-156.09C642,678.78,634,561.33,635.52,503.48c1.12-43.58,13.57-129.92,23.72-170.82,11.35-45.75,35.06-146,63.25-170.82,111.49-98.07,404.78-93.87,517.88,0,21.32,17.7,42.86,89.62,51.39,123.7,10.85,43.32,17.29,136.5,19.77,182.59,2.29,42.57,3.76,128.48,0,170.82-3.49,39.31-16.69,117-27.67,153.14-8.09,26.6-26.21,83.41-43.49,97.19C1126.22,980.31,836.1,981.8,722.49,889.28Z" transform="translate(-633.34 -85.84)"/><path class="cls-3" d="M739.34,192.93c46.49,51.67,103,57,177.22,59q84.32,2.27,168.64,2.69c60.16.31,129.92-5.7,164.53-64l-9.36-28.83-43.89-28-99.15-32.44L988.4,90l-99.69,6.28L817.15,112.3l-66.22,29-28.44,20.59Z" transform="translate(-633.34 -85.84)"/><path d="M736.16,196.11A165.52,165.52,0,0,0,805,241.87c26.87,9.28,55.6,12.1,83.84,13.55,38,1.94,76.06,2.27,114.07,2.87,35.87.56,71.94,1.84,107.8.49,27.31-1,55.23-4.28,80.8-14.38a134.42,134.42,0,0,0,34.13-19.31c10.59-8.35,21.45-19.37,27.64-31.52,1.67-3.27.31-5.72-.74-9l-4.31-13.27c-1.62-5-2.35-11.28-7-14.29-13.42-8.74-27-17.21-40.54-25.81a29.7,29.7,0,0,0-7.22-3.06l-19.55-6.4-54.84-18c-7.69-2.52-15.7-6.25-23.81-7.1l-44-4.64L997.9,86.46a116.08,116.08,0,0,0-20.51-.31l-55,3.47c-11.45.72-23.54.41-34.88,2.28-14.08,2.33-28.09,6.31-42,9.43l-24.22,5.44a42.82,42.82,0,0,0-8.27,2.47l-46.21,20.2c-5.73,2.51-11.8,4.69-17.34,7.58-4.47,2.34-8.51,5.94-12.6,8.9l-16.62,12a4.62,4.62,0,0,0-1.61,6.16l16.85,31.08c2.76,5.09,10.53.55,7.77-4.54l-16.85-31.09-1.62,6.16,24.15-17.48c4.61-3.34,9.21-5.26,14.47-7.56l34.12-14.92c7.17-3.14,14.41-7.11,21.86-9.56-2.25.74-.28.23.32.13,1.42-.24,2.84-.64,4.24-1l14.72-3.31,36.85-8.27,12.08-2.71,2.26-.51c-1.13.23-1.32.11-.09.08,8-.19,16-1,23.93-1.51l69.42-4.37c12.32-.77,24.9,1.73,37.14,3l69.84,7.37c2.27.24,4.58.4,6.84.72,1.27.18-1.48-.41-.48,0,.73.29,1.5.49,2.25.74l25.43,8.32L1190,136.5c1.72.57,3.56,1,5.24,1.72-2.24-.94,0,.17.55.57,1.57,1.08,3.22,2,4.82,3.06l30.48,19.41,7,4.47L1236,163l9.36,28.82.45-3.46c-35.14,58.35-107.54,62.07-168.58,61.7q-67.95-.4-135.9-2c-36-.86-72.7-.71-108.14-7.92s-66.33-23.56-90.7-50.42C738.62,185.45,732.27,191.83,736.16,196.11Z" transform="translate(-633.34 -85.84)"/><path class="cls-4" d="M795.35,197.91c59.78,18.35,67,26.06,125.08,27.53,44,1.12,101,8.54,145,8.74,47.12.23,132.29-8.73,159.39-51.67,0,0-26.51-24.62-36.52-30.47-10.4-6.08-33.07-12.88-44.28-16.39-17.66-5.52-53.3-15.38-71.4-18.35-19.92-3.27-60.21-5.16-80.32-5.9-19.34-.71-58.12-1.79-77.41,0-12.43,1.15-37.08,6-49.26,9.18-14.33,3.73-42.76,12.76-56.45,19-12.87,5.86-49.48,28.85-49.48,28.85Z" transform="translate(-633.34 -85.84)"/><path d="M793.76,203.7c27.16,8.36,54,19.65,82.22,24.16,15.47,2.48,31.1,3.18,46.74,3.64,17.93.54,35.83,1.91,53.71,3.33,60.48,4.79,121.5,10.26,181-5.32,27.3-7.15,56.72-19.3,72.61-44a6.07,6.07,0,0,0-.94-7.27c-8.56-7.94-17.29-15.75-26.38-23.08-5.52-4.44-11-8.5-17.48-11.42a256.51,256.51,0,0,0-26.79-9.88c-33.23-10.7-67.38-21.22-102.24-24.63-36.68-3.58-73.85-4.83-110.7-4.84-17.78,0-35,1-52.54,4.22a408.63,408.63,0,0,0-52.42,13.1c-17.54,5.63-34.27,12-50.23,21.19-11.35,6.53-22.53,13.36-33.62,20.32-3,1.88-4.32,6.86-1.22,9.42l35.65,29.49c5.91,4.88,14.44-3.56,8.48-8.49L764,164.18l-1.21,9.43c21.51-13.5,42.88-27.15,66.94-35.59,32.66-11.47,67-20.64,101.72-21.45,35.87-.84,72,.73,107.8,3.28,16.75,1.19,33.11,3.05,49.47,6.89,17.75,4.16,35.39,9,52.8,14.4,16.81,5.2,35.65,9.42,49.86,20.27,10.24,7.81,19.83,16.59,29.26,25.34l-.94-7.27c-13.15,20.43-38,30.67-60.39,37.08-25.3,7.23-51.72,10.41-78,11.37-31.51,1.14-63.06-1.74-94.45-4.27-17.7-1.42-35.41-2.87-53.16-3.72-15.89-.77-31.81-.81-47.64-2.69-30.69-3.65-59.76-16.09-89.09-25.12C789.55,189.85,786.39,201.43,793.76,203.7Z" transform="translate(-633.34 -85.84)"/><ellipse class="cls-5" cx="355.33" cy="86.46" rx="62.52" ry="16.21"/><rect class="cls-6" x="327.47" y="78.46" width="58" height="13.5"/><polygon class="cls-7" points="333.47 86.46 345.11 86.46 345.11 82.96 341.21 82.96 341.21 58.96 374.47 58.96 374.47 82.96 368.97 82.96 368.47 86.46 383.47 86.46 383.47 82.96 378.47 82.96 377.97 51.96 337.97 51.96 337.97 81.96 333.47 81.96 333.47 86.46"/><path class="cls-8" d="M767.33,227.23s-22.84,80.28-34.63,112.18c-9.49,25.67-15.84,77.15-21,103.45-7.06,35.8-13.85,96.37-14.39,132.53-.43,28.63,3.5,104.55,6.64,132.36,3.48,30.78,13.14,91.51,20.41,121C729,847.7,745.6,901,745.6,901l69.83,29.25L788.28,819.59s-13-81.44-15.73-110.53c-2-22.24-6.19-70.4-6.19-94,0-25.29,5.82-100.93,5.82-100.93S788.93,400,799.11,356.45c8.1-34.59,30.21-101.8,30.21-101.8Z" transform="translate(-633.34 -85.84)"/><polygon class="cls-8" points="316.37 176.23 316.31 261.43 316.37 351.88 316.37 438.14 316.37 603.55 316.31 733.32 316.31 871.57 401.54 872.27 401.54 713.66 401.54 593.07 401.54 447.57 401.54 324.35 396.85 229.97 396.94 174.92 316.37 176.23"/><path class="cls-8" d="M1198.11,244.6s27.6,64.22,38.24,96.12c8.56,25.67,17.45,75.84,22.13,102.14,6.38,35.8,12.8,112.07,13.29,148.23.38,28.62-4,84.14-6.89,111.95-3.14,30.78-18.54,92.39-25.1,121.9-4.21,18.94-13.94,74.84-13.94,74.84l-59.72,29.06,16-113.07s19-86.27,21.42-115.35c1.85-22.24,5.15-73.48,4.06-98-1-23.22-3.87-93.52-8.85-124.09-4.67-28.74-19.3-76.76-28.17-112.2-8.54-34.1-32.72-106.71-32.72-106.71Z" transform="translate(-633.34 -85.84)"/><path class="cls-1" d="M635.08,549.21S688,584,706.31,593.64c21.35,11.28,64.07,34.69,86.87,40.81,22.39,6,62.63,18.13,85.3,22.51,29.9,5.77,92.38,11,122.67,12C1041,670.18,1120,659.12,1159,649.5c26.35-6.49,87.11-28.71,111.31-42.69,13.56-7.84,44.2-25.19,44.2-25.19l-4.75-61.47s-46,29.3-62.86,37.67c-21.71,10.76-67.85,30.06-91,34.95-36.89,7.77-111.56,17.91-149,18.92-31.25.84-93.9-3.55-124.81-9.08C861.81,599,822,586.93,802.44,579.7c-21.3-7.88-62.89-27.27-83.31-37.91-22.63-11.81-80.71-53.35-80.71-53.35Z" transform="translate(-633.34 -85.84)"/><path class="cls-1" d="M661.77,757.31s28.84,18.35,47.34,27.63c21.52,10.81,64.61,33.27,87.5,38.89,22.48,5.52,62.9,16.75,85.63,20.62,30,5.11,92.55,9,122.85,9.28,39.9.35,118.62-12.45,157.53-22.93,26.24-7.07,86.65-30.62,110.61-45.13,13.44-8.14,14.82-8.9,14.82-8.9l14.67-72.94s-36.9,24.63-53.66,33.37c-21.54,11.23-67.36,31.56-90.45,36.95-36.76,8.59-111.26,20.37-148.7,22.21C978.68,797.89,916,794.87,885,790c-20.31-3.18-60.31-14.36-80-21.15-21.42-7.41-63.31-25.87-83.9-36.07-22.81-11.3-74.22-46.59-74.22-46.59Z" transform="translate(-633.34 -85.84)"/><path class="cls-1" d="M649.57,381.07s41.78,25.57,60.2,35.07c21.43,11.06,64.32,34,87.17,39.92,22.43,5.78,62.76,17.48,85.45,21.62,30,5.46,92.47,10.09,122.77,10.72,39.89.82,118.71-11,157.71-21.08,26.3-6.76,86.9-29.6,111-43.83,13.51-8,33.56-17.28,33.56-17.28l-5.8-60.42s-34.69,20.4-51.52,28.95c-21.64,11-67.63,30.76-90.76,35.89-36.83,8.15-111.43,19.06-148.88,20.46-31.24,1.16-93.92-2.59-124.88-7.79-20.28-3.42-60.18-15.07-79.78-22.09-21.36-7.66-63.09-26.61-83.59-37C699.49,352.59,661.39,324,661.39,324Z" transform="translate(-633.34 -85.84)"/><path class="cls-1" d="M698.27,201.71s28.83,15.73,47.33,27.84c21.54,14.09,45.56,28.16,68.46,35.8,22.49,7.5,53.76,19.33,76.5,24.78,30,7.18,92.58,13.7,122.89,14.84,39.92,1.5,118.68-12.45,157.6-24.54,26.26-8.16,66.24-25.34,91-41.24,20.21-13,16.89-13,16.89-13l-12.73-51.92s-1.66,3.87-32.1,13.05c-23.62,7.12-44,15.91-67.08,22-36.78,9.78-111.31,22.57-148.76,23.88-31.25,1.09-94-4.33-125-11.21-20.32-4.51-60.33-19.56-80-28.58-21.42-9.84-29.41-10.53-50-23.84-22.83-14.75-37.79-23.59-37.79-23.59Z" transform="translate(-633.34 -85.84)"/></svg>