<svg xmlns="http://www.w3.org/2000/svg" viewBox="0 0 5332.26 4358.71"><defs><style>.cls-1{fill:#3d372b;}.cls-1,.cls-10,.cls-14,.cls-15,.cls-16,.cls-17,.cls-18,.cls-19,.cls-2,.cls-21,.cls-22,.cls-24,.cls-26,.cls-27,.cls-29,.cls-3,.cls-30,.cls-31,.cls-32,.cls-34,.cls-36,.cls-39,.cls-5,.cls-6,.cls-7,.cls-8,.cls-9{stroke:#000;stroke-miterlimit:10;}.cls-1,.cls-17,.cls-18,.cls-19,.cls-2,.cls-26,.cls-27,.cls-3,.cls-30,.cls-31,.cls-32,.cls-34,.cls-36,.cls-39,.cls-5,.cls-6,.cls-7,.cls-8{stroke-width:10px;}.cls-2{fill:none;}.cls-3{fill:#a39272;}.cls-4,.cls-5{fill:#ffc900;}.cls-6{fill:#7a6e56;}.cls-7{fill:#777884;}.cls-8{fill:#2c2d37;}.cls-9{fill:#2d2828;}.cls-10,.cls-13,.cls-16{fill:#dda95f;}.cls-10{stroke-width:4px;}.cls-11{fill:#1c150c;}.cls-12,.cls-14{fill:#6f5530;}.cls-14{stroke-width:6px;}.cls-15{fill:#241a0c;}.cls-15,.cls-16{stroke-width:2px;}.cls-17{fill:#222;}.cls-18{fill:#444;}.cls-19{fill:#7a7a7a;}.cls-20,.cls-26{fill:#693d1a;}.cls-21{fill:#140b06;}.cls-21,.cls-24{stroke-width:5px;}.cls-22,.cls-23,.cls-24,.cls-27{fill:#512d17;}.cls-22,.cls-29{stroke-width:3px;}.cls-25{fill:#17c7ff;}.cls-28{opacity:0.58;}.cls-29,.cls-39{fill:#888;}.cls-31{fill:#1a0f06;}.cls-32{fill:#351f0d;}.cls-33{fill:#5c5c5c;}.cls-34{fill:#dbffa2;}.cls-35,.cls-36{fill:#6e8051;}.cls-37{fill:#df220f;}.cls-38{fill:#ff9b21;}</style></defs><title>cenario</title><g id="cenário"><polygon class="cls-1" points="840.57 7.12 818.02 2902.59 4688.57 2902.59 4669.13 7.12 840.57 7.12"/><polyline class="cls-2" points="5324.57 242.36 5324.57 4294.84 8.57 4294.84"/><path class="cls-3" d="M2513-1207.45c0,886.14-605.13,1366.57-1302.89,1366.57S-423-341.09-423-1227.23,316.73-2683.94,1014.49-2683.94,2513-2093.59,2513-1207.45Z" transform="translate(1663.57 2766.12)"/><line class="cls-2" x1="1889.01" y1="327.34" x2="3516.77" y2="353.31"/><line class="cls-2" x1="2135.68" y1="194.82" x2="3222.71" y2="194.82"/><line class="cls-2" x1="1692.87" y1="482.72" x2="3708.33" y2="505.82"/><line class="cls-2" x1="1477.96" y1="736.79" x2="3912" y2="736.79"/><line class="cls-2" x1="1340.92" y1="999.36" x2="4059.02" y2="994.43"/><line class="cls-2" x1="1266.59" y1="1257.17" x2="4144.46" y2="1257.17"/><line class="cls-2" x1="1240.57" y1="1503.71" x2="4175.53" y2="1503.71"/><line class="cls-2" x1="1257.2" y1="1739.85" x2="4170.36" y2="1711.11"/><line class="cls-2" x1="1304.8" y1="1957.22" x2="4139.14" y2="1922.09"/><line class="cls-2" x1="1424.02" y1="2173.16" x2="4080.57" y2="2121.64"/><line class="cls-2" x1="1579.06" y1="2373.14" x2="3953.17" y2="2373.14"/><line class="cls-2" x1="1828.32" y1="2587.91" x2="3772.44" y2="2587.91"/><line class="cls-2" x1="1926.11" y1="3745.51" x2="3601.06" y2="3739.39"/><line class="cls-2" x1="2562.07" y1="87.38" x2="2562.07" y2="194.82"/><line class="cls-2" x1="2891.77" y1="99.96" x2="2891.77" y2="194.82"/><line class="cls-2" x1="2378.22" y1="194.82" x2="2378.22" y2="327.34"/><line class="cls-2" x1="2766.11" y1="194.82" x2="2766.11" y2="340.33"/><line class="cls-2" x1="3086.34" y1="194.82" x2="3086.34" y2="344.94"/><line class="cls-2" x1="2103.27" y1="330.76" x2="2103.27" y2="482.72"/><line class="cls-2" x1="2469" y1="336.6" x2="2469" y2="491.62"/><line class="cls-4" x1="2840.08" y1="342.52" x2="2838.03" y2="494.27"/><line class="cls-5" x1="3255.02" y1="349.14" x2="3255.02" y2="500.62"/><line class="cls-5" x1="2921.23" y1="340.33" x2="2921.23" y2="496.8"/><line class="cls-5" x1="1847.15" y1="482.72" x2="1847.15" y2="736.79"/><line class="cls-5" x1="2207.99" y1="488.62" x2="2207.99" y2="736.79"/><line class="cls-5" x1="2661.44" y1="485.67" x2="2661.44" y2="733.84"/><line class="cls-5" x1="3167.29" y1="488.62" x2="3167.29" y2="736.79"/><line class="cls-5" x1="3531.39" y1="505.74" x2="3531.39" y2="733.84"/><line class="cls-5" x1="1632.69" y1="736.79" x2="1632.69" y2="999.36"/><line class="cls-5" x1="1994.86" y1="725.86" x2="1994.86" y2="986.46"/><line class="cls-5" x1="2378.22" y1="736.79" x2="2378.22" y2="996.9"/><line class="cls-5" x1="2838.03" y1="727.34" x2="2838.03" y2="984.98"/><line class="cls-5" x1="3305.28" y1="736.79" x2="3305.28" y2="994.43"/><line class="cls-5" x1="3677.44" y1="736.79" x2="3682.59" y2="994.43"/><line class="cls-5" x1="1542.96" y1="999.36" x2="1542.96" y2="1257.17"/><line class="cls-5" x1="1929.08" y1="999.36" x2="1929.08" y2="1257.17"/><line class="cls-5" x1="2434.63" y1="994.43" x2="2434.63" y2="1257.17"/><line class="cls-5" x1="2891.77" y1="994.43" x2="2891.77" y2="1257.17"/><line class="cls-5" x1="3359.69" y1="995.7" x2="3359.69" y2="1257.17"/><line class="cls-5" x1="3746.99" y1="994.43" x2="3746.99" y2="1257.17"/><line class="cls-5" x1="1672.32" y1="1257.17" x2="1672.32" y2="1503.71"/><line class="cls-5" x1="2162.98" y1="1257.17" x2="2162.98" y2="1503.71"/><line class="cls-5" x1="2605.38" y1="1257.17" x2="2605.38" y2="1503.71"/><line class="cls-5" x1="3179.92" y1="1257.17" x2="3179.92" y2="1503.71"/><line class="cls-5" x1="3610.05" y1="1257.17" x2="3610.05" y2="1503.71"/><line class="cls-5" x1="3883.15" y1="1503.71" x2="3883.15" y2="1711.11"/><line class="cls-5" x1="1743.96" y1="1503.71" x2="1743.96" y2="1735.05"/><line class="cls-5" x1="1496.3" y1="1739.85" x2="1496.3" y2="1954.85"/><line class="cls-5" x1="1724.4" y1="1739.85" x2="1729.2" y2="1951.96"/><line class="cls-5" x1="1579.06" y1="1954.85" x2="1579.06" y2="2170.15"/><line class="cls-5" x1="3987.22" y1="1712.92" x2="3987.22" y2="1925.48"/><line class="cls-5" x1="3836.49" y1="1922.09" x2="3836.49" y2="2127.19"/><line class="cls-5" x1="2240.58" y1="2903.98" x2="2240.58" y2="3128.39"/><line class="cls-5" x1="2821.89" y1="2904.11" x2="2821.89" y2="3128.39"/><line class="cls-5" x1="3244.88" y1="2902.59" x2="3244.88" y2="3128.39"/><line class="cls-5" x1="3897.5" y1="2130.99" x2="3897.5" y2="2373.14"/><line class="cls-5" x1="2351.43" y1="3109.59" x2="2351.43" y2="3292.86"/><line class="cls-5" x1="2081.13" y1="3128.39" x2="2081.13" y2="3295.87"/><line class="cls-5" x1="2972.58" y1="3128.39" x2="2972.58" y2="3292.86"/><line class="cls-5" x1="2704.43" y1="3293.48" x2="2701.15" y2="3497.5"/><line class="cls-5" x1="3140.58" y1="3293.48" x2="3140.58" y2="3490.3"/><polygon class="cls-6" points="8.57 4335.12 818.02 2902.59 840.57 7.12 8.57 279.73 8.57 4335.12"/><polygon class="cls-6" points="4669.13 7.12 5324.57 242.36 5324.57 4335.12 4688.57 2902.59 4669.32 35.17 4669.13 7.12"/><path class="cls-2" d="M-490.62,241" transform="translate(1663.57 2766.12)"/><line class="cls-2" x1="840.57" y1="7.12" x2="4669.13" y2="7.12"/><line class="cls-2" x1="8.57" y1="3943.12" x2="819.58" y2="2703.19"/><line class="cls-2" x1="8.57" y1="3627.09" x2="821.23" y2="2491.13"/><line class="cls-2" x1="8.57" y1="3352.84" x2="818.02" y2="2319.12"/><line class="cls-2" x1="8.57" y1="3061.25" x2="824.25" y2="2103.09"/><line class="cls-2" x1="8.57" y1="2735.12" x2="825.99" y2="1879.1"/><line class="cls-2" x1="8.57" y1="2451.12" x2="821.23" y2="1663.12"/><line class="cls-2" x1="8.57" y1="2170.15" x2="829.54" y2="1423.1"/><line class="cls-2" x1="8.57" y1="1879.1" x2="831.23" y2="1207.11"/><line class="cls-2" x1="8.57" y1="1619.38" x2="832.84" y2="999.36"/><line class="cls-2" x1="8.57" y1="1399.12" x2="834.22" y2="823.11"/><line class="cls-2" x1="8.57" y1="1147.12" x2="835.77" y2="622.82"/><line class="cls-2" x1="8.57" y1="919.12" x2="837.09" y2="454.47"/><line class="cls-2" x1="8.57" y1="686.8" x2="840.57" y2="252.32"/><line class="cls-2" x1="8.57" y1="494.27" x2="840.57" y2="123.12"/><line class="cls-2" x1="161.59" y1="3709.17" x2="213.06" y2="3943.12"/><line class="cls-2" x1="338.61" y1="3438.52" x2="396.8" y2="3627.09"/><line class="cls-2" x1="541.46" y1="3128.39" x2="589.37" y2="3295.87"/><line class="cls-2" x1="689.15" y1="2902.59" x2="728.47" y2="3046.08"/><line class="cls-2" x1="214.65" y1="212.21" x2="214.65" y2="402.34"/><line class="cls-2" x1="466.76" y1="129.6" x2="466.76" y2="279.73"/><line class="cls-2" x1="689.15" y1="56.74" x2="689.19" y2="190.65"/><line class="cls-2" x1="173.03" y1="420.9" x2="173.03" y2="608.49"/><line class="cls-2" x1="420.71" y1="310.42" x2="424.57" y2="469.56"/><line class="cls-2" x1="642.16" y1="211.63" x2="642.16" y2="359.92"/><line class="cls-2" x1="255.96" y1="557.61" x2="255.96" y2="780.38"/><line class="cls-2" x1="517.74" y1="420.9" x2="517.74" y2="633.57"/><line class="cls-2" x1="728.47" y1="307.27" x2="729.7" y2="514.7"/><line class="cls-2" x1="150.91" y1="839.3" x2="150.91" y2="1056.91"/><line class="cls-2" x1="396.8" y1="701.4" x2="396.8" y2="901.06"/><line class="cls-2" x1="642.16" y1="563.79" x2="642.16" y2="745.54"/><line class="cls-2" x1="214.65" y1="1016.51" x2="212.05" y2="1257.17"/><line class="cls-2" x1="494.24" y1="839.3" x2="494.24" y2="1056.91"/><line class="cls-2" x1="711.81" y1="701.4" x2="711.81" y2="908.5"/><line class="cls-2" x1="121.44" y1="1320.38" x2="136.56" y2="1523.11"/><line class="cls-2" x1="384.52" y1="1136.84" x2="396.8" y2="1327.35"/><line class="cls-2" x1="602.18" y1="984.98" x2="602.18" y2="1172.86"/><line class="cls-2" x1="301.39" y1="1399.12" x2="301.39" y2="1639.92"/><line class="cls-2" x1="556.65" y1="1207.11" x2="565.42" y2="1424.24"/><line class="cls-2" x1="767.79" y1="1048.3" x2="769.95" y2="1257.17"/><line class="cls-2" x1="187.32" y1="1733.09" x2="187.32" y2="2007.49"/><line class="cls-2" x1="384.52" y1="1572" x2="396.8" y2="1819.2"/><line class="cls-2" x1="660.71" y1="1346.4" x2="665.91" y2="1572"/><line class="cls-2" x1="261.87" y1="1939.66" x2="272.64" y2="2195.07"/><line class="cls-2" x1="494.24" y1="1725.48" x2="494.24" y2="1980.19"/><line class="cls-2" x1="711.81" y1="1530.24" x2="728.47" y2="1753.07"/><line class="cls-2" x1="129" y1="2334.35" x2="136.56" y2="2601.09"/><line class="cls-2" x1="367.71" y1="2102.88" x2="384.52" y2="2341.42"/><line class="cls-2" x1="598.49" y1="1879.1" x2="612.3" y2="2102.88"/><line class="cls-2" x1="267.25" y1="2464.22" x2="272.64" y2="2751.05"/><line class="cls-2" x1="545.2" y1="2173.16" x2="556.65" y2="2417.43"/><line class="cls-2" x1="711.81" y1="1998.68" x2="720.14" y2="2225.39"/><line class="cls-2" x1="196.13" y1="2840.93" x2="200.94" y2="3107.18"/><line class="cls-2" x1="466.76" y1="2523.02" x2="492.28" y2="2735.12"/><line class="cls-2" x1="689.15" y1="2261.78" x2="689.15" y2="2483.7"/><line class="cls-2" x1="132.78" y1="3194.22" x2="150.91" y2="3423.23"/><line class="cls-2" x1="376.11" y1="2883.47" x2="376.11" y2="3113.32"/><line class="cls-2" x1="605.4" y1="2582.17" x2="612.3" y2="2783.17"/><line class="cls-2" x1="198.53" y1="3361.55" x2="215.28" y2="3627.09"/><line class="cls-2" x1="424.57" y1="3045.59" x2="444.19" y2="3277.11"/><line class="cls-2" x1="646.68" y1="2735.12" x2="665.91" y2="2945.79"/><polygon class="cls-7" points="818.02 2902.59 8.57 4335.12 5324.57 4335.12 4688.57 2902.59 818.02 2902.59"/><line class="cls-2" x1="5324.57" y1="3811.12" x2="4686.46" y2="2587.91"/><line class="cls-2" x1="5324.57" y1="3352.84" x2="4684.31" y2="2268.6"/><line class="cls-2" x1="5324.57" y1="2966.17" x2="4688.57" y2="1998.68"/><line class="cls-2" x1="5324.57" y1="2587.91" x2="4680.25" y2="1663.12"/><line class="cls-2" x1="5324.57" y1="2225.39" x2="4678.35" y2="1380.44"/><line class="cls-2" x1="5324.57" y1="1895.12" x2="4676.54" y2="1111.02"/><line class="cls-2" x1="5324.57" y1="1543.11" x2="4674.61" y2="823.11"/><line class="cls-2" x1="5324.57" y1="1183.11" x2="4672.68" y2="535.12"/><line class="cls-2" x1="5324.57" y1="859.12" x2="4671.2" y2="315.13"/><line class="cls-2" x1="5324.57" y1="535.12" x2="4669.13" y2="153.42"/><line class="cls-2" x1="5152.75" y1="180.7" x2="5152.75" y2="435.06"/><line class="cls-2" x1="4892.74" y1="87.38" x2="4892.74" y2="283.64"/><line class="cls-2" x1="4804.34" y1="232.16" x2="4804.34" y2="435.06"/><line class="cls-2" x1="5082.85" y1="394.35" x2="5082.85" y2="657.87"/><line class="cls-2" x1="4856.68" y1="469.56" x2="4856.68" y2="718.02"/><line class="cls-2" x1="5177.64" y1="736.79" x2="5177.64" y2="1019.12"/><line class="cls-2" x1="4892.74" y1="753.87" x2="4892.74" y2="1048.3"/><line class="cls-2" x1="5134.76" y1="994.43" x2="5113.57" y2="1309.37"/><line class="cls-2" x1="4789.45" y1="950.33" x2="4789.45" y2="1247.64"/><line class="cls-2" x1="4985.09" y1="1167.04" x2="4960.71" y2="1454.86"/><line class="cls-2" x1="5194.59" y1="1399.12" x2="5163.05" y2="1699.69"/><line class="cls-2" x1="4914.65" y1="1399.12" x2="4892.74" y2="1660.76"/><line class="cls-2" x1="5132.83" y1="1663.12" x2="5113.57" y2="1949.5"/><line class="cls-2" x1="4821.38" y1="1567.45" x2="4804.34" y2="1841.23"/><line class="cls-2" x1="5030.77" y1="1841.23" x2="5006.57" y2="2131.49"/><line class="cls-2" x1="5113.57" y1="2285.06" x2="5095.84" y2="2618.23"/><line class="cls-2" x1="4892.74" y1="1949.5" x2="4876.83" y2="2285.06"/><line class="cls-2" x1="4769.4" y1="2121.64" x2="4769.4" y2="2412.69"/><line class="cls-2" x1="5030.77" y1="2519.24" x2="5018.67" y2="2840.93"/><line class="cls-2" x1="4841.41" y1="2534.63" x2="4841.41" y2="2884.93"/><line class="cls-2" x1="5152.75" y1="3061.88" x2="5124.16" y2="3426.96"/><line class="cls-2" x1="4892.74" y1="2983.34" x2="4876.83" y2="3292.86"/><line class="cls-2" x1="5175.51" y1="3525.38" x2="5152.75" y2="3918.72"/><line class="cls-5" x1="2240.58" y1="1488.72" x2="2240.58" y2="1735.26"/><line class="cls-8" x1="2724.77" y1="1503.07" x2="2724.77" y2="1735.05"/><line class="cls-8" x1="3255.02" y1="1503.07" x2="3255.02" y2="1720.14"/><line class="cls-8" x1="2081.13" y1="1731.72" x2="2081.13" y2="1939.66"/><line class="cls-8" x1="2679.2" y1="1731.72" x2="2682.72" y2="1940.14"/><line class="cls-8" x1="3359.69" y1="1719.11" x2="3359.69" y2="1940.14"/><line class="cls-8" x1="2207.99" y1="1939.66" x2="2207.99" y2="2157.95"/><line class="cls-8" x1="2821.89" y1="1939.66" x2="2821.89" y2="2147.4"/><line class="cls-8" x1="3426.78" y1="1930.92" x2="3426.78" y2="2134.32"/><line class="cls-8" x1="1913.81" y1="2147.4" x2="1926.11" y2="2372.74"/><line class="cls-8" x1="2434.63" y1="2147.4" x2="2434.63" y2="2373.14"/><line class="cls-8" x1="2972.58" y1="2147.4" x2="2972.58" y2="2373.14"/><line class="cls-8" x1="3500.57" y1="2130.99" x2="3500.57" y2="2372.74"/><line class="cls-8" x1="2103.27" y1="2372.74" x2="2103.27" y2="2587.91"/><line class="cls-8" x1="2603.06" y1="2372.74" x2="2603.06" y2="2587.91"/><line class="cls-8" x1="3179.92" y1="2386.33" x2="3179.92" y2="2587.91"/><line class="cls-8" x1="3601.06" y1="2373.14" x2="3601.06" y2="2587.91"/><line class="cls-8" x1="2378.22" y1="2587.91" x2="2378.22" y2="2793.09"/><line class="cls-8" x1="2795.9" y1="2587.91" x2="2800.55" y2="2783.17"/><line class="cls-8" x1="3276.57" y1="2587.91" x2="3276.57" y2="2802.37"/></g><g id="Barril"><path class="cls-9" d="M2410,389.6c2.63,12.53,1.15,12.3,16.6,20,21.55,10.74,62.49,32.4,85.38,38,22.48,5.51,62.91,15.78,85.64,19.66,30,5.11,92.57,7.59,122.87,7.86,39.9.36,114.39-17,153.3-27.52,26.25-7.07,53-23.51,76.93-38,13.44-8.13,26.15-17.13,28.25-28.75,3-16.64-9.5-64.5-9.5-64.5s-1.06,19.31-17.77,28.18c-52,27.61-58.69,46.92-81.78,52.31-36.76,8.59-111.7,24.55-149.13,26.38-31.24,1.53-94-1.48-124.94-6.32-20.31-3.18-60.31-14.36-80-21.16-21.42-7.4-56.2-29.76-76.78-39.95-22.82-11.3-26.89-42.7-26.89-42.7S2406.4,372.67,2410,389.6Z" transform="translate(1663.57 2766.12)"/><path class="cls-10" d="M2429.65,363.43c-27.31-22.24-56.57-112.53-67.21-156.09-13.29-54.41-21.25-171.86-19.77-229.72,1.12-43.58,13.58-129.91,23.72-170.82,11.35-45.74,35.07-146,63.26-170.81,111.49-98.07,404.77-93.88,517.87,0,21.33,17.7,42.86,89.62,51.4,123.69,10.84,43.32,17.28,136.51,19.76,182.6,2.29,42.56,3.76,128.48,0,170.81-3.49,39.31-16.69,117-27.67,153.15-8.09,26.6-26.21,83.41-43.49,97.19C2833.37,454.45,2543.25,455.94,2429.65,363.43Z" transform="translate(1663.57 2766.12)"/><path class="cls-11" d="M2446.49-332.93c46.49,51.67,103,57,177.22,59q84.32,2.28,168.64,2.7c60.16.3,129.93-5.71,164.53-64L2947.52-364,2903.63-392l-99.15-32.45L2695.56-435.9l-99.7,6.28-71.56,16.06-66.22,29L2429.65-364Z" transform="translate(1663.57 2766.12)"/><path d="M2443.31-329.75A165.43,165.43,0,0,0,2512.1-284c26.87,9.29,55.6,12.1,83.84,13.55,38,1.94,76.06,2.27,114.07,2.87,35.87.57,71.94,1.85,107.81.5,27.3-1,55.22-4.28,80.8-14.39a134.62,134.62,0,0,0,34.12-19.3c10.6-8.36,21.45-19.38,27.64-31.52,1.67-3.28.31-5.73-.74-9l-4.31-13.27c-1.62-5-2.35-11.28-6.95-14.28-13.43-8.75-27-17.21-40.55-25.82a29.53,29.53,0,0,0-7.22-3.06l-19.55-6.4L2826.23-422c-7.7-2.51-15.71-6.24-23.82-7.1l-44-4.64-53.36-5.63a116.08,116.08,0,0,0-20.51-.31l-55,3.47c-11.45.72-23.53.41-34.87,2.28-14.09,2.33-28.09,6.31-42,9.43l-24.22,5.44a44.17,44.17,0,0,0-8.26,2.47l-46.22,20.21c-5.73,2.5-11.79,4.68-17.34,7.58-4.47,2.34-8.51,5.94-12.6,8.9l-16.62,12a4.64,4.64,0,0,0-1.61,6.16l16.85,31.08c2.76,5.09,10.53.56,7.77-4.54l-16.85-31.08-1.61,6.15,24.14-17.48c4.61-3.34,9.21-5.26,14.47-7.56l34.13-14.92c7.17-3.14,14.41-7.1,21.85-9.56-2.25.75-.28.23.33.13,1.42-.24,2.83-.64,4.23-1l14.72-3.31,36.85-8.27,12.09-2.71c.75-.17,1.5-.35,2.26-.51-1.14.24-1.33.11-.1.08,8-.19,16-1,23.93-1.5l69.42-4.37c12.33-.78,24.9,1.73,37.14,3l69.84,7.36c2.28.24,4.58.4,6.84.72,1.27.19-1.48-.41-.48,0,.73.29,1.51.5,2.25.74l25.43,8.32,65.88,21.56c1.73.57,3.57,1,5.24,1.72-2.24-.94,0,.17.56.57,1.56,1.08,3.21,2.05,4.81,3.07l30.49,19.41,7,4.46-2.07-2.69,9.36,28.83.45-3.47c-35.13,58.35-107.54,62.07-168.57,61.7q-68-.4-135.91-2c-36-.86-72.7-.71-108.14-7.91s-66.33-23.56-90.69-50.42C2445.78-340.41,2439.43-334,2443.31-329.75Z" transform="translate(1663.57 2766.12)"/><path class="cls-12" d="M2474.49-298.63s-22.85,80.28-34.64,112.18c-9.48,25.68-15.84,77.15-21,103.45-7.06,35.8-13.85,96.38-14.39,132.54-.43,28.62,3.5,104.55,6.64,132.35,3.48,30.78,13.14,91.51,20.42,121,4.66,18.93,21.27,72.23,21.27,72.23l69.82,29.25-27.15-110.66s-13-81.44-15.73-110.53c-2-22.24-6.19-70.39-6.19-93.95,0-25.29,5.82-100.94,5.82-100.94s16.75-114.18,26.94-157.72c8.09-34.59,30.21-101.79,30.21-101.79Z" transform="translate(1663.57 2766.12)"/><polygon class="cls-12" points="4320.43 2502.34 4320.38 2587.54 4320.44 2677.99 4320.44 2764.25 4320.44 2929.66 4320.38 3059.43 4320.38 3197.68 4405.61 3198.38 4405.61 3039.77 4405.61 2919.18 4405.61 2773.68 4405.61 2650.46 4400.91 2556.08 4401 2501.03 4320.43 2502.34"/><path class="cls-12" d="M2905.27-281.25s27.59,64.22,38.23,96.11c8.56,25.68,17.46,75.84,22.14,102.14,6.37,35.8,12.79,112.07,13.28,148.23.39,28.62-4.05,84.15-6.88,112-3.14,30.78-18.55,92.4-25.11,121.91C2942.72,318,2933,373.92,2933,373.92L2873.27,403l16-113.07s19-86.26,21.43-115.35c1.85-22.24,5.14-73.48,4-98-1-23.22-3.87-93.52-8.85-124.09-4.67-28.74-19.29-76.76-28.17-112.2-8.54-34.09-32.72-106.71-32.72-106.71Z" transform="translate(1663.57 2766.12)"/><path class="cls-9" d="M2342.23,23.35s52.89,34.74,71.23,44.44c21.35,11.27,64.07,34.68,86.87,40.8,22.4,6,62.64,18.14,85.3,22.51,29.9,5.77,92.39,11,122.68,12,39.88,1.23,118.79-9.83,157.86-19.45,26.35-6.49,87.12-28.71,111.31-42.69,13.56-7.83,44.2-25.19,44.2-25.19l-4.75-61.47s-46,29.3-62.86,37.67c-21.71,10.76-67.84,30.07-91,34.95-36.88,7.77-111.56,17.91-149,18.92-31.26.84-93.91-3.55-124.82-9.08-20.26-3.62-60.07-15.68-79.62-22.91-21.3-7.88-62.89-27.26-83.31-37.91-22.64-11.81-80.71-53.35-80.71-53.35Z" transform="translate(1663.57 2766.12)"/><path class="cls-9" d="M2368.92,231.45s28.85,18.35,47.34,27.63c21.53,10.81,64.61,33.27,87.5,38.89,22.48,5.52,62.91,16.75,85.63,20.62,30,5.11,92.55,9,122.85,9.28,39.9.36,118.62-12.44,157.53-22.92,26.24-7.07,86.65-30.63,110.62-45.14,13.44-8.13,14.82-8.9,14.82-8.9L3009.87,178s-36.89,24.63-53.65,33.37c-21.54,11.24-67.37,31.56-90.46,36.95-36.76,8.59-111.26,20.37-148.69,22.21-31.24,1.53-94-1.48-124.94-6.33-20.31-3.17-60.31-14.35-80-21.15-21.42-7.4-63.31-25.87-83.89-36.07-22.82-11.3-74.22-46.59-74.22-46.59Z" transform="translate(1663.57 2766.12)"/><path class="cls-9" d="M2356.72-144.79s41.78,25.58,60.2,35.08c21.43,11,64.33,34,87.17,39.91,22.44,5.78,62.76,17.48,85.46,21.62,29.94,5.47,92.46,10.09,122.76,10.72,39.9.83,118.72-11,157.71-21.07,26.31-6.77,86.91-29.61,111-43.84,13.51-8,33.56-17.28,33.56-17.28l-5.8-60.42s-34.69,20.41-51.52,28.95c-21.63,11-67.63,30.77-90.76,35.89-36.83,8.15-111.42,19.06-148.87,20.46-31.25,1.16-93.93-2.58-124.88-7.79-20.28-3.41-60.18-15.06-79.79-22.09-21.36-7.66-63.09-26.61-83.59-37-22.72-11.57-60.82-40.18-60.82-40.18Z" transform="translate(1663.57 2766.12)"/><path class="cls-9" d="M2405.42-324.15s28.83,15.73,47.34,27.84c21.53,14.09,45.55,28.17,68.45,35.8,22.49,7.5,53.76,19.33,76.5,24.78,30,7.19,92.59,13.71,122.9,14.84,39.92,1.5,118.67-12.44,157.6-24.54,26.26-8.16,66.24-25.34,91-41.23,20.22-13,16.89-13,16.89-13l-12.73-51.92s-1.66,3.87-32.1,13.05c-23.62,7.12-44,15.91-67.08,22.05-36.77,9.78-111.31,22.57-148.76,23.88-31.25,1.1-94-4.33-125-11.21-20.32-4.51-60.33-19.56-80-28.58-21.43-9.83-29.42-10.53-50-23.84-22.83-14.75-37.78-23.59-37.78-23.59Z" transform="translate(1663.57 2766.12)"/></g><g id="Tampa_do_barril" data-name="Tampa do barril"><path class="cls-13" d="M2502.54-313.89c59.78,18.35,67,26.05,125.08,27.53,44,1.12,101,8.53,145,8.74,47.12.23,132.29-8.73,159.39-51.67,0,0-26.51-24.62-36.52-30.48-10.4-6.07-33.07-12.87-44.28-16.38-17.66-5.53-53.3-15.38-71.4-18.35-19.92-3.28-60.21-5.16-80.32-5.9-19.34-.71-58.12-1.79-77.41,0-12.43,1.15-37.08,6-49.26,9.17-14.33,3.74-42.76,12.77-56.45,19-12.87,5.86-49.48,28.85-49.48,28.85Z" transform="translate(1663.57 2766.12)"/><path d="M2501-308.1c27.16,8.36,54,19.65,82.22,24.16,15.47,2.48,31.1,3.18,46.74,3.64,17.93.54,35.83,1.91,53.71,3.33,60.48,4.79,121.5,10.26,181-5.32,27.3-7.16,56.72-19.3,72.61-44a6.07,6.07,0,0,0-.94-7.27c-8.56-7.94-17.29-15.75-26.38-23.08-5.52-4.44-11-8.5-17.48-11.42a254.26,254.26,0,0,0-26.79-9.88c-33.23-10.7-67.38-21.22-102.24-24.63-36.68-3.59-73.85-4.83-110.7-4.84-17.78,0-35,1.05-52.54,4.21a408.66,408.66,0,0,0-52.42,13.11c-17.54,5.63-34.27,12-50.23,21.19-11.35,6.53-22.53,13.36-33.62,20.31-3,1.89-4.32,6.86-1.22,9.43l35.65,29.48c5.91,4.89,14.44-3.55,8.48-8.48l-35.64-29.49-1.21,9.43c21.51-13.5,42.88-27.15,66.94-35.59,32.66-11.47,67-20.64,101.72-21.45,35.87-.84,72,.73,107.8,3.28,16.75,1.19,33.11,3.05,49.47,6.89,17.75,4.16,35.39,9,52.8,14.39,16.81,5.21,35.65,9.43,49.86,20.28,10.24,7.81,19.83,16.59,29.26,25.34l-.94-7.27c-13.15,20.43-38,30.67-60.39,37.08-25.3,7.23-51.72,10.41-78,11.37-31.51,1.14-63.06-1.74-94.45-4.27-17.7-1.42-35.41-2.88-53.16-3.73-15.89-.76-31.81-.8-47.64-2.68-30.69-3.65-59.76-16.09-89.09-25.12C2496.74-321.95,2493.58-310.37,2501-308.1Z" transform="translate(1663.57 2766.12)"/><ellipse class="cls-14" cx="4359.44" cy="2426.63" rx="62.52" ry="16.21"/><rect class="cls-15" x="4331.57" y="2418.62" width="58" height="13.5"/><polygon class="cls-16" points="4337.57 2426.63 4349.21 2426.63 4349.21 2423.12 4345.31 2423.12 4345.31 2399.12 4378.57 2399.12 4378.57 2423.12 4373.07 2423.12 4372.57 2426.63 4387.57 2426.63 4387.57 2423.12 4382.57 2423.12 4382.07 2392.12 4342.07 2392.12 4342.07 2422.12 4337.57 2422.12 4337.57 2426.63"/></g><g id="Armadura"><path class="cls-17" d="M3020.49-671.38l-82.2,150.22s-22.68-70.93-41.4-85.57c-13.74-10.73-53.49-23.56-68.28-14.31-20,12.53-26.21,68.23-23,91.61,4.49,32.28,65,113,65,113l105,65,93.18-273.48Z" transform="translate(1663.57 2766.12)"/><path class="cls-17" d="M2963.65-929.43c-7.07-32-8.51-100.35,6.86-129.71,13.81-26.38,66.69-66.43,96.32-79.28,31.1-13.49,104-29.78,137.26-20.16,19.44,5.62,45.15,37.08,57.36,51.56,21.76,25.83,55.77,83.2,70.14,112.69,14.75,30.29,26.45,97,45.43,125.44,17.65,26.46,77.64,63.31,95.4,89.71,18.72,27.84,45.58,122.72,45.58,122.72l-13.66,258-40.08,227.6,3.1,168.53,7.85,154.49,84.77,139-90.93,53-11.5,141.7,4.22,147.28,7.72,308.32,57.22-21.47-35.28,136.65-16.84,167s9.8,62.08,7.74,83c-2.1,21.33-13.41,55.28-35.55,64-29.94,11.8-98.86-5.24-131.82-7-30.95-1.64-97.46,8.07-123.82-6.55-24.15-13.39-60.67-63.23-55.45-87.66,5-23.24,59.71-48.08,83.26-59.4,20.64-9.92,68.81-21,68.81-21l4-238.49-5.13-153.79s-60.28-67.88-68.65-92.69c-5.31-15.7-14.41-57.85-12.55-74.06,2.49-21.6,32.41-62.81,31.37-84.53-2.14-44.88-74.58-162.63-74.58-162.63s-5.79-176-28.19-219.64c-25-48.76-22.56-117.73-29.44-170.66-6.42-49.5-42.08-213.3-42.08-213.3s-83.89,96-115.86,101.15c-47.93,7.67-97.48-45.3-124.06-81.61-24.27-33.16-43-111.24-48-150.23-3.61-27.95-4.86-83.77,6-110.06,7.82-18.91,28.87-58.76,51.84-59.67,33-1.32,104.16,191.73,104.16,191.73l105.95-226s-1.71-97.65,7.37-128.62c10.61-36.16-31.75-140.56-31.75-140.56S2969.88-901.22,2963.65-929.43Z" transform="translate(1663.57 2766.12)"/><path class="cls-18" d="M3288.81,861.51l178.07-24.4,2.61,104.28,57.22-21.47-30.82,100.65-4.46,36-9.77,96.92-7.07,70s12,62.64,7.74,83c-3.77,17.92-20.1,54.21-35.55,64-13,8.27-61.65,4.13-61.65,4.13L3315,1363.62l-93.54.82-30.28-7.37s-59.95-62.12-55.45-87.66c3.64-20.64,66.33-51.25,66.33-51.25l39.43-26.31,46.31-2.8Z" transform="translate(1663.57 2766.12)"/><polyline class="cls-17" points="4740.11 2509.33 4847.03 2356.27 4881.97 2268.59 4892.52 2250.69 4919.04 2313.65"/><path class="cls-18" d="M3214.94-479.39l26.51,63s57.32-11.88,73.25-22.53c15-10,39.94-38.72,46.06-55.73,9.94-27.65,8.69-89.47,0-117.54-6-19.46-32.14-52.33-46.06-67.2-11.76-12.54-37.84-36.86-54.09-42.48-24-8.3-77.68-8.61-101.56,0-14.19,5.11-37.69,26.2-46.44,38.48-9.91,13.94-24,64.07-24,64.07l-85.37,131.13-13.84-32.93-.83-78,31.92-72.23,22.53-79,33.57-39,85-35.13,99-27L3377-868.89l68.9,62.48,51.35,84.5L3518-656.46l-6,113.21-7.66,144.74-24.49,139.08-15.59,88.52,10.95,323,84.77,139-90.93,53-83.92,34.84L3283.45,418.4l-194.84,40.87,16-139.23,8-159.47,2.54-61.35L3104.61-7.44l-42.08-213.3Z" transform="translate(1663.57 2766.12)"/><polygon class="cls-17" points="4772.18 1782.7 4853.07 1759.42 4876.47 1782.7 4853.07 1822.49 4831.18 1865.48 4772.18 1897.24 4772.18 1959.23 4684.06 2044.21 4604.18 2005.93 4620.18 1969.07 4588.18 1945.05 4588.18 1901.82 4588.18 1860.81 4772.18 1782.7"/><polygon class="cls-17" points="4588.18 1790.7 4853.07 1759.42 4876.47 1782.7 4831.18 1865.48 4772.18 1897.24 4772.18 1959.23 4924.18 1914.7 5040.59 1897.24 4995.16 1771.79 4925.01 1659.11 4867.66 1607.54 4784.38 1611.62 4730.4 1627.7 4655.71 1680.33 4634.08 1706.99 4588.18 1790.7"/><polygon class="cls-17" points="4854.7 4123.19 4876.47 4046.7 4865.59 3984.28 4882.51 3976.14 4905.02 4049.66 4884.99 4130.57 4854.7 4123.19"/><polygon class="cls-17" points="4940.44 4130.48 4956.35 4053.35 4905.02 3957.97 4930.69 3957.97 4978.26 4044.23 4978.53 4129.74 4940.44 4130.48"/><path class="cls-17" d="M3223.44,539.56s5.94,39.81,1.87,52.22c-4.69,14.28-30.3,33.83-37.33,47.11-7.11,13.43-20.43,43-18.14,58,3.06,20,46.14,66.64,46.14,66.64s28.41,15.82,33.51,24.93c9,16,6.66,73,6.66,73l149.42-13.61,99.18-17.46,8.87-109.56-17.49-85.29L3493,514.67,3373,538.08Z" transform="translate(1663.57 2766.12)"/><polygon class="cls-18" points="5159.46 3094.58 5122.14 3287.51 4900.39 3311.61 4854.7 3210.09 5159.46 3094.58"/><polygon class="cls-19" points="4622.18 1786.68 4622.18 1846.38 4829.57 1766.18 4622.18 1786.68"/></g><g id="Jarra_-_agua" data-name="Jarra - agua"><path class="cls-20" d="M-930.32,487.14c-15.44-89-13-193.86,15.18-287.48,13.71-45.47,50.84-81.55,64.27-127.1,28.64-97.18,13.64-188.45-3.81-289.34-9.32-53.87-57.09-100.66-45.74-154.15,8.73-41.14,44.31-72.55,83.74-87.17s82.55-15.13,124.59-14q84.86,2.31,169.23,12.6c28.22,3.45,57.67,8.08,80.47,25.07,32.35,24.11,57.26,72.16,57,112.5-.36,54.79-21,206.19-10.54,261.39,19.65,103.75-6.31,54.18,52.54,150C-269.77,209.38-222.22,338-254.1,475.08c-13,56-49.72,136.78-99.3,166-32,18.84-75.22,18.26-112,23.43-70,9.86-162.39,16.3-230.54,7.16-59.39-8-120.75-20.07-168.67-56s-50.61-56.07-65.71-128.46" transform="translate(1663.57 2766.12)"/><path d="M-926,485.94a658.06,658.06,0,0,1-5.58-181,578,578,0,0,1,17.34-92.25c3.94-14.27,8.76-27.84,15.62-41,6.25-12,13.44-23.41,20.56-34.88,15-24.15,27.87-48,35-75.73a413.33,413.33,0,0,0,12.58-92.6c1.6-62.91-8.44-126.53-20.19-188.18-4.92-25.79-17.77-49.15-28.9-72.63-10.86-22.9-21.41-48.18-17.17-74.06,9-55.08,64.14-86.95,114.51-96.52,31.14-5.91,63.1-5.52,94.65-4.58q50.89,1.51,101.67,5.9c31.83,2.75,64.53,4.92,95.78,11.83,14.33,3.17,28.44,7.89,40.8,16,10.56,6.89,19.66,16.08,27.41,26,16.28,20.76,28.14,46.59,31.27,72.92,2,17.05,0,34.79-1.21,51.83-3.2,44-7.66,88-10.07,132.06-1.12,20.34-1.93,40.76-1.27,61.14.62,19.14,4.43,37.45,7.4,56.32,2.19,14,3.43,28,5.24,42a71.81,71.81,0,0,0,7.63,24.43c7.94,15.35,17.72,29.83,26.79,44.51,15.84,25.62,31.22,51.47,44.92,78.3,27,52.82,48.21,109,57.59,167.78,9,56.41,6.38,115.19-10.08,170a373.57,373.57,0,0,1-28.22,68.61c-11.49,21.48-25.24,42.27-43,59.11-19.2,18.22-42.43,27.09-68.28,31.42-13.95,2.33-28.06,3.52-42.12,5-13.83,1.41-27.56,3.46-41.35,5.15-57.54,7.05-116.07,11-174,7.65a612.63,612.63,0,0,1-83.47-11.1c-28-5.56-55.87-13.22-81.68-25.62-36.22-17.4-71.73-44.05-84.9-83.4-7-20.89-10.77-42.85-15.25-64.37-1.18-5.67-9.86-3.27-8.68,2.39,8.12,39,13.7,80.53,42.91,110.05,38.46,38.86,90.69,58.61,143.31,69.25,57.21,11.56,114.81,14.57,173,11.79,29.67-1.42,59.28-4,88.75-7.64,13.79-1.69,27.52-3.74,41.35-5.15,14.23-1.45,28.5-2.71,42.64-5,25.87-4.14,49.79-12.62,69.73-30,18.34-16,32.74-36.49,44.72-57.54a376.23,376.23,0,0,0,47-150.75c11.46-122.79-38.56-239.09-101.6-341.46-10.41-16.9-21.52-33.54-31-51a65.92,65.92,0,0,1-7.82-23c-1.93-14.62-3.2-29.27-5.49-43.85-3-19.32-6.72-37.89-7.17-57.5-1-44.88,3.27-89.91,7-134.58,1.76-21.18,3.64-42.35,5-63.56,1.25-18.79,2.5-37.52-1.46-56.09-5.49-25.81-18.09-50.43-35.1-70.52-18.18-21.47-41.59-34.17-68.9-40.23-31.31-6.94-64.05-9.15-95.93-11.95q-51.86-4.56-103.92-6.1c-59-1.75-123.43-.61-172.32,37.17-20,15.42-36.22,36.19-43.26,60.67-7.3,25.39-1.57,50.68,8.43,74.45,10.57,25.14,25,48.77,32.57,75.12,4.28,15,6.13,30.73,8.67,46.05,2.75,16.56,5.37,33.15,7.57,49.8,8.46,63.92,10.4,129-5.82,191.92a196,196,0,0,1-15.54,41.82c-6.49,12.54-14,24.48-21.47,36.47s-14.8,24-20.92,36.69c-6.28,13-10.59,26.63-14.32,40.58-16.24,60.72-22.22,124.26-19.8,187a664,664,0,0,0,9.11,87.06c1,5.7,9.65,3.28,8.68-2.39Z" transform="translate(1663.57 2766.12)"/><path class="cls-21" d="M-894.35-401.17s17.36,25.35,25.63,31.95c14,11.2,48.45,26.75,66,33.31,21.17,7.91,65.69,19.59,88.5,22.64,21.49,2.88,65.24,1.29,87,1.48,23.63.2,71,2,94.5,0,22.81-1.9,70.16-5.19,90-15.08,14.07-7,42.5-42.35,42.5-42.35l-17-48-25.14-22.41-42.42-16.09-46.48-6.36L-633-469.86l-59.1-2.23-59.87.7L-806.5-463l-37.91,14.62-38.81,30.53Z" transform="translate(1663.57 2766.12)"/><path class="cls-22" d="M-894.35-322.26c6.2,10.29,27.77,18,40,24.73,16,8.9,51.81,21.35,69,27.67,19.28,7.07,63.73,14.25,84,17.51,23.37,3.74,69.33,1.61,93,1.65,25.06,0,68.54-3.4,93.23-7.68C-497-261.54-454-271-437.4-279c12.49-6,51.94-35.42,51.94-35.42l-14.79-54.75s-29.22,35.36-42.5,42.35c-16.3,8.58-54.09,11.72-72.42,13.61-22.87,2.36-69,1.49-91.93,1.8-22.28.3-66.95,2.8-89.13.67-18.56-1.78-55.17-9.64-73.11-14.71-16.39-4.63-48.5-16.33-63.95-23.52-9.24-4.3-27.68-13.58-35.43-20.2s-22-22.26-22-22.26l-7.67,29.29S-897.68-327.79-894.35-322.26Z" transform="translate(1663.57 2766.12)"/><path class="cls-23" d="M-352,75.47c-46.12,24.07-81.74,26.13-133.72,28.36s-104-3.36-155.59-9.64C-708.82,86-782.88,66.88-844.61,38.46l-15.71,74.2s48,24.36,65,29.8c23.92,7.64,75.14,18.55,100.67,22,33.48,4.53,100.88,11.08,134.66,11.33,32,.25,96.5-.8,128-6.66,18-3.35,53.42-13.61,70-21.34,10.16-4.73,38.47-23,38.47-23Z" transform="translate(1663.57 2766.12)"/><path d="M-353.55,72.88A234.19,234.19,0,0,1-437,97.7a675.58,675.58,0,0,1-98.13,3.13c-36.12-1.4-72.11-5.39-108-9.85a739.54,739.54,0,0,1-96-18.57c-35.57-9.32-70.56-21.21-104-36.54-1.64-.75-4-.26-4.41,1.79l-15.7,74.2a3.08,3.08,0,0,0,1.38,3.39c24.51,12.43,49.45,25.78,76,33.14a749,749,0,0,0,116.9,22.2c40.5,4.52,81.26,8.36,122,8.23,21.44-.07,42.88-.55,64.29-1.68,18.9-1,38.07-2.17,56.61-6.17,21.8-4.72,44.26-10.9,64.6-20.17,13.79-6.29,26.66-15.21,39.38-23.4a3.07,3.07,0,0,0,1.07-4.11L-349.45,74c-1.93-3.35-7.12-.33-5.18,3l28.56,49.34,1.08-4.1c-11.33,7.29-22.73,14.65-34.61,21-17.06,9.15-37,14.2-55.64,19-38.54,9.93-79.39,10-119,10.48s-78.79-2.36-118.12-6.37a842.36,842.36,0,0,1-117-19.87c-9.36-2.31-18.86-4.58-27.93-7.85-8.26-3-16.25-6.7-24.21-10.39q-18.84-8.75-37.37-18.17l1.38,3.39,15.7-74.2-4.41,1.79C-785.81,68.7-720.61,86.19-655,95.4c69.68,9.78,140,15.23,210.28,9,33.19-2.91,64.51-11,94.18-26.39C-347.09,76.28-350.12,71.1-353.55,72.88Z" transform="translate(1663.57 2766.12)"/><path class="cls-24" d="M-320.08,570.13s-68.21,17.78-91.5,20.33c-30.56,3.36-92.41,3.15-123,0-31.24-3.21-95.16-5.84-125.83-12.63-24-5.31-84.52-20.07-108-27.36-27.35-8.48-66.69-35.57-91.66-49.62-18.63-10.48-68.52-43.61-68.52-43.61l11.18,61.7s14.64,47.86,25,60.53c7.24,8.86,42,39.59,42,39.59s52.79,26.85,70,32.41c19.73,6.38,75.63,12.49,75.63,12.49l91.37,9.51,95-4,53-5,72.21-7.48,33.13-11.38,22.73-20.36,24.19-27.66,28.08-41.84Z" transform="translate(1663.57 2766.12)"/><path class="cls-25" d="M-889.4-401.19s36.62-23,46.17-24.82c11.88-2.25,28.46,1,40.5,0,14-1.2,53.47,1.21,67.5,0,14.94-1.28,39.54-4,54,0,11.21,3.09,22.72,11.16,33.93,14.26,9.69,2.67,30.15,0,40.2,0,14.09,0,39.87-2.48,53-4.44,13.55-2,41.22-7.64,54.32-7.49,8.86.09,25.89,6.15,34.34,8.82,11.63,3.67,34.33,12.92,44.11,20.77,5.32,4.26,14.89,22.8,14.89,22.8s-20.23,28.16-30.66,36.1c-6.76,5.13-33.05,12.94-44.67,14.66-18.57,2.77-75,3.67-75,3.67l-54,2.06s-56.55.78-74-.06c-14.79-.71-58-11.9-58-11.9l-47.67-12.43-36.33-16s-2.67.66-30-15.69C-864.57-375.57-890.47-398.74-889.4-401.19Z" transform="translate(1663.57 2766.12)"/></g><g id="Mesa"><polygon class="cls-26" points="1655.77 2579.72 1655.77 3243.91 1655.77 3521.96 1798.96 3521.96 1872.5 3470.19 1862.82 2579.72 1655.77 2579.72"/><polygon class="cls-27" points="1798.24 3520.22 1798.24 2360.74 1862.1 2360.74 1871.78 3468.45 1798.24 3520.22"/><polygon class="cls-26" points="3593.38 2657.92 3593.38 3253.9 3593.38 3513.61 3735.37 3513.61 3808.28 3456.95 3746.15 2655.39 3593.38 2657.92"/><polygon class="cls-27" points="3735.37 3513.61 3735.37 3254.7 3789.18 3210.53 3808.28 3456.95 3735.37 3513.61"/><polygon class="cls-26" points="3777.11 3179.11 3777.11 3883.28 3775.11 4207.28 3919.38 4299.28 4063.11 4193.28 4064.26 3185.92 3777.11 3179.11"/><polygon class="cls-27" points="3919.38 4299.28 3919.38 3399.59 4064.01 3400.91 4063.11 4193.28 3919.38 4299.28"/><polygon class="cls-26" points="1399.37 3190.84 1399.37 3895.01 1397.37 4219.01 1541.64 4311.01 1685.37 4205.01 1686.52 3197.65 1399.37 3190.84"/><polygon class="cls-27" points="4109.37 3160.24 1354.88 3182.46 1354.88 3411.49 4109.37 3409.01 4109.37 3160.24"/><polyline class="cls-26" points="2781.17 2479.35 2781.17 3175.51 1354.88 3175.51 1354.88 1997.01 2779.22 1987.01 2781.17 2479.35"/><polygon class="cls-27" points="4111.37 1987.01 4201.11 2075.1 4201.11 3160.24 4109.37 3395.01 4109.37 3157.99 4111.37 1987.01"/><path class="cls-26" d="M1117.6,409.39c-3.88-11.68-1.95-1188.5-1.95-1188.5H2447.8l-2,1173.23Z" transform="translate(1663.57 2766.12)"/><polyline class="cls-2" points="1354.88 2621.72 4111.37 2621.72 4201.11 2681.01"/><polyline class="cls-2" points="1354.88 2979.39 4109.66 2989.34 4201.11 3031.01"/><polyline class="cls-2" points="1354.88 2794.01 4109.66 2794.01 4201.11 2849.01"/><g class="cls-28"><path class="cls-23" d="M-33.31-267.49C3.54-247.16,44.24-237,84.78-238c12-.31,24.21-1.56,35.94,1.59,6.08,1.63,11.92,4.42,18,6,12.37,3.18,25.21,1.22,37.75-.76l67.64-10.65c-4.26-5.09-10.68-6.24-16.65-7.07-36.82-5.08-73.9-7.67-110.55-14.32-13.19-2.39-26.33-5.3-39.62-6.68-11.88-1.24-23.82-1.24-35.74-1.24H-43a16.56,16.56,0,0,0,9.53,6" transform="translate(1663.57 2766.12)"/></g><g class="cls-28"><path class="cls-23" d="M-280.35,351.8a511.51,511.51,0,0,0,175.19-.92C-90,348.17-74.65,344.79-59.6,348c11.46,2.43,22.18,8.59,33.56,11.53,30.81,8,61.87-8.13,92.62-16.38,20.93-5.61,42.4-7.61,63.79-9.29,37.77-3,75.68-5,113.47-2.46-4,17.05-17.39,28.27-30.62,36-40.69,23.87-87.17,28.32-132.4,30.23-38,1.6-76.11,1.68-114.17,1.76l-266,.58,13.12-48.68" transform="translate(1663.57 2766.12)"/></g><g class="cls-28"><path class="cls-23" d="M-10.29,76.13a295.91,295.91,0,0,0-44.88-4.45c-17.34-.38-39.22,5-42.94,25.4-2.79,15.3,7.73,30.38,20,35.55s25.74,3.06,38.66,1.26a680.88,680.88,0,0,1,81.23-6.41c28.15-.54,57.65,1.11,82,18.09,12.55,8.75,23.16,21.23,36,29.29,15.33,9.59,32.92,12.33,50.14,14a488.66,488.66,0,0,0,100.44-.6c33.41-3.66,69.76-12.95,90.37-44.78-38.5-12-80.29,3.71-118.61-9.13,45.9-41.47,108.07-41.87,165.46-40.51,32.24.76,64.58,1.53,96.45,7.38,20.56,3.77,41.34,9.89,58.68,23.7s30.85,36.53,31.38,61.54c14.32-37.7,10.12-88.89-18.37-112.19-17-13.94-38.81-15.46-59.39-16.43q-209.44-9.95-419.13-8C72.13,50.49,6.52,52-57.11,68.69" transform="translate(1663.57 2766.12)"/></g><g class="cls-28"><path class="cls-23" d="M963.86-108.59a364.75,364.75,0,0,1-166.84.78c-10.92-2.51-22.8-5.39-32.72.68-5.82,3.56-10.14,9.76-14.67,15.41-23,28.67-56.82,46-89.65,40.64-15.69-2.58-30.49-10-45.22-17-39-18.53-80.11-34.63-121.91-31.1-10.83.91-23,4.29-28.38,15.65L496-75.81c18.91,4.64,38.18,9.44,55,20.9,13.33,9.09,24.63,22.09,38.12,30.81C604.62-14.1,622.3-10.17,639.78-8a273.05,273.05,0,0,0,79.81-1.57c18.79-3.21,37.28-8.47,55.75-13.73L925.69-66.09c7.79-2.21,15.71-4.5,22.58-9.44,10.21-7.36,17-19.79,23.5-31.81L958.34-108" transform="translate(1663.57 2766.12)"/></g><path class="cls-20" d="M399.81,350.55c-6.71,10.26-12.79,25.31,0,33.63,10.69,7,24.27,4.42,33.33-3.89,1.42-1.31-.7-3.42-2.12-2.12-7.74,7.1-19.14,9.51-28.55,4.11-12.42-7.12-6.12-20.95-.07-30.21,1.06-1.62-1.53-3.13-2.59-1.52Z" transform="translate(1663.57 2766.12)"/><g class="cls-28"><path class="cls-23" d="M-236,240.19A739.88,739.88,0,0,0-156.62,256c12.41,1.77,25,3.27,36.67,8.77,9.82,4.63,18.6,12,28.17,17.29,11.59,6.45,24.16,9.86,36.63,13.24,7.92,2.14,16,4.3,24.09,3,7.11-1.17,13.7-5,20.55-7.53,13.9-5.17,28.73-5.05,43.29-4.88,24.43.28,49.35.65,72.5,10.07,7.38,3,18.42,4.74,20.27-4.36,1.5-7.34-5.48-12.78-11.36-15.45C25.36,235.76-73.8,250.31-167.09,229c-24.14-5.51-51.42-12.7-71.45,4.41" transform="translate(1663.57 2766.12)"/></g><polyline class="cls-2" points="1354.88 2427.77 4109.66 2427.77 4201.11 2482.53"/><polyline class="cls-2" points="1354.88 2225.9 4109.66 2225.9 4201.11 2289.01"/><line class="cls-27" x1="2781.19" y1="3179.11" x2="2781.14" y2="3412.64"/><g class="cls-28"><path class="cls-23" d="M1079.19-495.09a364.89,364.89,0,0,1-166.84.78c-10.92-2.51-22.8-5.39-32.72.67-5.82,3.56-10.14,9.77-14.67,15.42-23,28.67-56.82,46-89.65,40.63-15.69-2.58-30.49-10-45.22-17-39-18.54-80.11-34.64-121.91-31.11-10.83.92-23,4.29-28.38,15.66l31.57,7.75c18.91,4.65,38.18,9.45,55,20.91,13.33,9.09,24.63,22.08,38.12,30.8,15.49,10,33.17,13.94,50.65,16.12a272.71,272.71,0,0,0,79.81-1.57c18.79-3.2,37.28-8.47,55.75-13.72L1041-452.59c7.78-2.22,15.71-4.5,22.58-9.45,10.21-7.35,17-19.79,23.5-31.81l-13.43-.68" transform="translate(1663.57 2766.12)"/></g><g class="cls-28"><path class="cls-23" d="M1481.14-688.71a294.62,294.62,0,0,0-44.88-4.44c-17.34-.39-39.22,5-42.94,25.4-2.79,15.29,7.73,30.37,20,35.54s25.74,3.06,38.66,1.26a680.88,680.88,0,0,1,81.23-6.41c28.15-.54,57.65,1.11,82,18.09,12.55,8.75,23.16,21.24,36,29.29,15.33,9.59,32.92,12.33,50.14,14a489.36,489.36,0,0,0,100.44-.61c33.41-3.65,69.76-12.95,90.37-44.78-38.5-12-80.29,3.72-118.6-9.13C1819.5-672,1881.68-672.36,1939.06-671c32.24.76,64.58,1.54,96.46,7.38,20.55,3.77,41.33,9.89,58.67,23.7s30.85,36.53,31.38,61.54c14.32-37.7,10.12-88.88-18.37-112.19-17-13.93-38.81-15.45-59.39-16.43q-209.44-9.93-419.13-8c-65.11.61-130.73,2.16-194.36,18.81" transform="translate(1663.57 2766.12)"/></g><g class="cls-28"><path class="cls-23" d="M1567.46-276.2a444.63,444.63,0,0,0,211.06,45.94c21.52-.7,43.36-3,64.33,2,10.87,2.56,21.28,7,32.17,9.45,22.11,5,45.12,1.55,67.6-1.88l121.21-18.49c-7.56-8.22-19-10-29.71-11.23-65.88-7.64-132.22-11.23-197.77-21.42-23.58-3.66-47.06-8.19-70.84-10.21-21.25-1.8-42.63-1.6-64-1.39L1550.17-282a29.52,29.52,0,0,0,17,9.56" transform="translate(1663.57 2766.12)"/></g><line class="cls-27" x1="4109.37" y1="3160.24" x2="4201.11" y2="3160.24"/><polygon class="cls-27" points="1541.64 4311.01 1541.64 3411.32 1686.27 3412.64 1685.37 4205.01 1541.64 4311.01"/><polygon class="cls-27" points="1354.88 3411.49 1287.37 3166.11 1291.37 2079.65 1354.88 1997.01 1354.88 3411.49"/><line class="cls-27" x1="1354.88" y1="2225.9" x2="1290.71" y2="2257.45"/><line class="cls-27" x1="1354.88" y1="2427.77" x2="1289.99" y2="2455.15"/><line class="cls-27" x1="1354.88" y1="2621.72" x2="1287.37" y2="2655.39"/><line class="cls-27" x1="1354.88" y1="2794" x2="1287.37" y2="2836.61"/><line class="cls-27" x1="1354.88" y1="2979.39" x2="1287.37" y2="3015.01"/><line class="cls-27" x1="1354.88" y1="3175.51" x2="1287.37" y2="3166.11"/><g class="cls-28"><path class="cls-23" d="M2226,248.35a364.61,364.61,0,0,1-166.84.78c-10.93-2.51-22.8-5.38-32.72.68-5.82,3.56-10.14,9.77-14.68,15.42-23,28.67-56.81,46-89.64,40.63-15.69-2.58-30.49-10-45.22-17-39-18.54-80.11-34.64-121.91-31.11-10.83.91-23,4.29-28.39,15.66l31.58,7.75c18.91,4.65,38.18,9.45,55,20.91,13.33,9.09,24.62,22.08,38.12,30.8,15.49,10,33.16,13.94,50.65,16.12a273.05,273.05,0,0,0,79.81-1.57c18.79-3.2,37.28-8.47,55.74-13.72l150.36-42.81c7.78-2.22,15.71-4.5,22.57-9.45,10.22-7.35,17-19.79,23.51-31.81l-13.43-.68" transform="translate(1663.57 2766.12)"/></g><g class="cls-28"><path class="cls-23" d="M2085.71-64.42c36.85,20.34,77.55,30.49,118.08,29.46,12-.31,24.21-1.56,35.95,1.59,6.08,1.63,11.91,4.42,18,6,12.37,3.18,25.21,1.22,37.76-.76l67.63-10.65c-4.25-5.09-10.68-6.24-16.64-7.06-36.83-5.09-73.9-7.68-110.56-14.33-13.19-2.39-26.32-5.3-39.61-6.68-11.88-1.24-23.82-1.24-35.75-1.24H2076a16.57,16.57,0,0,0,9.52,6" transform="translate(1663.57 2766.12)"/></g></g><g id="Caneca"><path class="cls-29" d="M26-382.74,6.49-347.59s31.13,17.69,42.5,21c13.15,3.9,40.81,5.55,54.5,6.34,17.47,1,52.54,1.23,70,0,11.33-.79,34-3.35,45-6.34,9.93-2.7,38-15.69,38-15.69L233.79-377Z" transform="translate(1663.57 2766.12)"/><path class="cls-27" d="M32.77-374C22.32-382.58,11.11-417.27,7-434,2-454.92-1.1-500-.53-522.28-.1-539,4.66-572.2,8.55-587.92,12.9-605.49,22-644,32.77-653.55c42.7-37.69,155-36.07,198.34,0,8.16,6.8,16.41,34.43,19.68,47.53,4.15,16.64,6.62,52.45,7.57,70.16.88,16.36,1.44,49.37,0,65.64-1.34,15.1-6.39,45-10.6,58.84-3.1,10.22-10,32.05-16.65,37.35C187.39-339.06,76.28-338.48,32.77-374Z" transform="translate(1663.57 2766.12)"/><path class="cls-30" d="M32.77-653.55S52.16-629.43,61-624.45c10.28,5.79,34.28,9.22,46,10.55,14.41,1.63,43.53.91,58,0,11.57-.73,35.33-1.3,46-5.83,8.18-3.47,27.72-22.25,27.72-22.25l-7.6-11.57-42.78-20.39L145-681.21l-45.51,2-37.31,9Z" transform="translate(1663.57 2766.12)"/><path class="cls-29" d="M8.76-584S32.91-570,43-564.23c14.68,8.43,50.24,14.1,67,16.5,12.62,1.81,38.27.76,51,0,12.57-.75,37.69-3.35,50-6,11.55-2.49,42.7-13.36,42.7-13.36l.8,32.36s-35.92,10.56-49.5,13c-18.71,3.36-56.67,7.62-75.67,7.33-14.45-.22-43.22-4.24-57.33-7.33-11.86-2.6-35.54-9-46.33-14.53-6.16-3.17-22.12-16.68-22.12-16.68Z" transform="translate(1663.57 2766.12)"/><path class="cls-29" d="M3.54-475.23s26,22.06,36,27.5c8.87,4.87,28.2,11.39,38,13.9,11.51,2.94,35.15,6.21,47,7.1a378.51,378.51,0,0,0,40,0,318.54,318.54,0,0,0,34-4.5c7.78-1.65,23.16-6,30.5-9s22.59-8.12,22.59-8.12L246-417s-15.49,6.15-23.52,8.78c-12.6,4.13-36.3,9.7-49.5,11-15.63,1.56-47.5,2.51-63,0-13.57-2.21-45.52-8.15-58-13.91-8-3.67-22.94-12.92-30-18.11-4.57-3.35-17-15-17-15Z" transform="translate(1663.57 2766.12)"/><circle class="cls-29" cx="1685.18" cy="2208.52" r="6.62"/><circle class="cls-29" cx="1788.81" cy="2236.15" r="8.25"/><circle class="cls-29" cx="1903.43" cy="2221.52" r="6.37"/><circle class="cls-29" cx="1682.43" cy="2317.77" r="6.88"/><circle class="cls-29" cx="1785.22" cy="2353.56" r="7.66"/><circle class="cls-29" cx="1899.56" cy="2338.04" r="7.36"/><path class="cls-23" d="M299.45-600.42a29.05,29.05,0,0,1,4.08,15.7c-.13,4.34-1.66,9.17-5.58,11a15.13,15.13,0,0,1-6.53,1H259.24V-551c7.5.21,18.11-4.54,25.25-2.25,3.94,1.27,3.54-2.29,4.45-1.19.58.7,1.1,4.31,1.22,5.22l1.56,11.05c.58,4.15-.37,12.24-.73,16.42-.48,5.6-.14,13.88-1.06,19.43-1.51,9.18-1.31,14.81-1.75,24.09-.3,6.38,0,16.46-2.45,22.34-.32.74-2.05-2.27-2.74-1.86s-.36,4.15-1.25,4c-8.58-1.17-15.67-4.36-24.25-5.53L253-440.09l22-.66a3.28,3.28,0,0,1,2.63.7,3.27,3.27,0,0,1,.52,2.29l-.38,16.38c-.22,9.18-1,19.57-8.1,25.38-1.19,1-2.8,1.8-4.21,1.19a4.3,4.3,0,0,1-2.06-2.63,17.54,17.54,0,0,1,3.9-18.25c-2.66-1.58-6.25-.52-8.45,1.65s-3.33,5.18-4.33,8.1c-2.76,8-5,17.37-.4,24.48,4.36,6.76,13.37,8.84,21.4,8.52a23,23,0,0,0,7.63-1.36,22.63,22.63,0,0,0,8.21-6.2c11.28-12.51,15.09-29.87,18.35-46.4,1.36-6.93,2.71-13.91,3-21,.73-19-6.36-38.07-3.1-56.81,1-6,3.14-11.82,4.61-17.76,5.56-22.44,11.8-46,8.31-68.85l2-6c1.28-6.46-.84-6.87-3.64-12.83-1.26-2.68-2.91-5.21-3.62-8.08-1.61-6.49,1.83-13.46.13-19.93a18.44,18.44,0,0,0-5.94-8.81c-5.16-4.57-12-7.4-18.91-7-10.2.67-18.93,8.45-23.23,17.73s-4.86,19.84-4.44,30c.36,8.67,2.15,18.59,9.63,23l3.44-25.17c.61-4.46,1.35-9.19,4.32-12.57s9-4.38,11.78-.81a3,3,0,0,1,.46,3.38c-.67,1-.21,4.17-.21,5.36,0,4.25,4.29,8.12,5.16,12.51" transform="translate(1663.57 2766.12)"/><path d="M298.16-599.67c2.73,4.91,4.4,10.6,3.79,16.27-.35,3.25-1.48,6.39-4.47,8-2.75,1.5-6,1.17-9.05,1.17H259.24a1.52,1.52,0,0,0-1.5,1.5V-551a1.52,1.52,0,0,0,1.5,1.5c6.34,0,12.35-2.31,18.64-2.79,3.19-.24,8.84,2.45,11.27-.74q1-1.25-1.11.45c.17.72.31,1.43.43,2.16.19,1.07.33,2.16.48,3.24.22,1.6.45,3.19.67,4.79a75,75,0,0,1,.13,17.84c-.57,6.25-.39,12.52-.92,18.76-.57,6.71-1.62,13.25-1.86,20-.24,6.55-.25,13.14-.75,19.67a43.41,43.41,0,0,1-.82,6.13l-.31,1.31c-.81,1.2-.47,1.69,1,1.48-1.29-.8-1.46-1.87-3.1-2.05a1.47,1.47,0,0,0-1.29.74c-.47.73-.32,2.22-.77,2.77.1.87-.1,1-.61.29l-1.78-.33c-1.41-.42-2.89-.65-4.31-1-5.44-1.4-10.77-3.05-16.34-3.91a1.54,1.54,0,0,0-1.85,1.05l-4.49,19.14a1.52,1.52,0,0,0,1.44,1.9l12-.36c2.68-.08,10.25-1.58,11.64,1.19,1,2-.18,7.6-.23,10-.08,3.35-.11,6.7-.28,10.05-.3,5.86-.91,14.28-5.49,18.66a3.07,3.07,0,0,1-3.22,1.46c-2,1.15-3,.62-3-1.59a15.3,15.3,0,0,1-.55-5.17,16.55,16.55,0,0,1,4.51-10.29A1.52,1.52,0,0,0,268-417c-13.87-6.06-19,19.53-17.91,28.51,1.78,14.72,19.32,19.78,31.93,16.13,14.06-4.08,21.23-22.91,24.81-35.5,5.12-18,8.66-36.95,6.51-55.66-1.15-10.07-3.14-20.09-3.17-30.26,0-10.48,3.35-20.05,5.87-30.09,4.74-19,9.72-38.43,8.82-58.13-.16-3.31-1.2-7-.53-10.19.48-2.24,1.61-4.19,1.89-6.5.81-6.85-4.89-12.26-7-18.41-3-8.62,2.78-17.65-2.43-25.94-3.75-6-10.74-10.37-17.57-11.81-17.05-3.59-30.39,11-34.15,26.3a78,78,0,0,0-1.24,28.24c1,7.33,3.48,14.32,9.9,18.48a1.51,1.51,0,0,0,2.2-.9L278.73-603c.77-5.65.81-14.63,6.18-18.1,3.66-2.36,7.58-1.46,7.87,3.28.09,1.63-.16,3.29,0,4.94.49,4.87,4,8.29,5.21,12.91a1.51,1.51,0,0,0,2.9-.8c-1-3.64-3.6-6.45-4.71-10-1-3.15.24-5.58.16-8.58-.14-4.89-5.69-6.67-9.72-5.68-5.94,1.45-8.48,7.13-9.54,12.65-1.84,9.52-2.72,19.31-4,28.91l2.2-.89c-11.55-7.49-10.09-28.3-8-40,2.56-14.26,13.38-30.09,29.81-27.72,7.58,1.09,16.79,6.57,18.86,14.44,1.81,6.85-1.94,13.88.14,20.77,1.75,5.82,7.94,11.71,7.15,18-.34,2.79-2,5.31-2.19,8.07-.32,4,.92,8.56,1,12.63a118,118,0,0,1-.58,12.18,199.2,199.2,0,0,1-4.24,24.84c-1.79,7.94-3.67,15.89-5.9,23.72-2,6.95-3.78,13.76-4,21-.53,15.42,4,30.47,4,45.87,0,14.8-3.72,30.91-8.15,45A68.65,68.65,0,0,1,293-384.9c-5.63,7.55-12.29,11.1-21.83,10.39S253.25-380.57,253-391c-.16-6,3.86-27.62,13.54-23.39l-.3-2.35c-4.69,5.12-8.42,16-3,22.06,5.59,6.24,12.52-6,13.91-10.26,3.25-9.87,2.46-21.67,2.47-31.9,0-3.47-1-5.22-4.63-5.4-7.24-.35-14.74.44-22,.66l1.45,1.89,4.5-19.13-1.85,1.05a123.49,123.49,0,0,1,13.81,3.23c3,.8,7.9,3,10.84,2.35a2.27,2.27,0,0,0,2-2c.25-1.41-1.24-2.4-.29-1.43.29.3.81,1,1.27,1.13,5.88,1.75,5.13-27.68,5.26-31.28.26-7.48,1.61-14.81,2-22.27.37-6.85.59-13.66,1.12-20.5a71.65,71.65,0,0,0-.75-15.83c-.45-3.14-.16-9.51-3-11.56a1.48,1.48,0,0,0-1.51,0c-1.68.81-2,1.15-4.22.94a33,33,0,0,0-7.23-.13c-5.78.65-11.36,2.6-17.2,2.64l1.5,1.5v-21.73l-1.5,1.5h21.14c5.54,0,13.21,1.38,18.33-1.18,10.2-5.09,6.28-21.19,2-28.79a1.5,1.5,0,0,0-2.59,1.51Z" transform="translate(1663.57 2766.12)"/><path class="cls-25" d="M43.13-640.45A78.86,78.86,0,0,1,80-653a17.68,17.68,0,0,1,7.46.62c3.3,1.22,5.69,4.08,8.63,6,7.3,4.87,17.12,3.63,25.29.43S137-654,145.5-656.31c5.86-1.59,12-1.87,18.05-2.1,4.89-.2,10-.34,14.46,1.65,3.47,1.55,6.3,4.27,9.7,6,5.25,2.64,11.38,2.64,17.25,2.81s12.09.68,16.9,4.07,7.33,10.65,3.77,15.33c-1.67,2.19-4.31,3.41-6.89,4.37-12.54,4.63-26.2,5-39.57,5.31l-41.85,1c-17.76.41-35.73.8-53.07-3.08S50-633.55,39.68-648" transform="translate(1663.57 2766.12)"/></g><g id="Escudo_-_mesa" data-name="Escudo - mesa"><polygon class="cls-19" points="3559.06 2195.59 3271.68 2478.15 3490.52 2664.38 3855.1 2685.54 3802.54 2346.7 3595.43 2159.83 3559.06 2195.59"/><polygon class="cls-31" points="3570.45 2243.99 3336.36 2470.17 3511.53 2628.07 3816.14 2645.75 3768.18 2371.24 3600.31 2213.28 3570.45 2243.99"/><polygon class="cls-19" points="3456.89 2350.25 3769.23 2643.03 3816.14 2645.75 3802.62 2596.81 3494.64 2313.78 3456.89 2350.25"/><polygon class="cls-19" points="3480.01 2599.67 3733.96 2338.51 3768.18 2371.24 3511.53 2628.07 3480.01 2599.67"/><ellipse class="cls-26" cx="1642.89" cy="-294.73" rx="7.01" ry="6.11" transform="translate(2336.55 3829.78) rotate(-44.3)"/><ellipse class="cls-26" cx="1931.61" cy="-578.43" rx="7.54" ry="6.57" transform="translate(2616.79 3950.77) rotate(-44.3)"/><ellipse class="cls-26" cx="2116.57" cy="-417.32" rx="8.11" ry="7.07" transform="translate(2556.85 4125.76) rotate(-44.3)"/><ellipse class="cls-26" cx="1835.26" cy="-121.67" rx="7.9" ry="6.89" transform="translate(2270.37 4013.35) rotate(-44.3)"/><ellipse class="cls-26" cx="2168.55" cy="-103.36" rx="8.33" ry="7.26" transform="translate(2352.35 4251.34) rotate(-44.3)"/></g><g id="Machado"><path class="cls-32" d="M436,24,417.53,64l-5.42,29.76,610.22,242.09s14.05-14.81,17.19-21.66c2.52-5.5-1.08-26.45-1.08-26.45Z" transform="translate(1663.57 2766.12)"/><path class="cls-19" d="M487,39.17s26.65-19.55,33.77-27.05c7.53-7.92,24-34.24,24-34.24L585.49-6.74l-11.61,29L560.26,61.64l3.66,23,8.3,30.49L523.75,132.8,487,161.49s-9.65,27.16-11,36.42c-1.23,8.24-4.3,25.44,0,33.13,4,7.19,20.65,18.39,29.87,22.47,8.65,3.84,38.93,8.6,38.93,8.6l-14,53s-41,4.1-54.77,4.69c-13.25.57-39.95,1.27-53.11,0-17.06-1.64-50.31-8.63-66.38-13-12.33-3.36-37-10.82-47.24-16.76-9.61-5.59-30.57-27.88-30.57-27.88s61.91-37.1,79.47-51.6c18-14.85,48.49-47.78,61.4-65.1,6.38-8.55,17.55-26.44,20.4-35.92,3.39-11.27,2.41-46.09,2.41-46.09Z" transform="translate(1663.57 2766.12)"/><polygon class="cls-33" points="2212.85 2762.88 2228.17 2762.88 2220.51 2797.23 2206.11 2822.33 2217.14 2873.44 2182.22 2885.24 2140.05 2915.3 2120.96 2956.01 2120.96 2991.79 2140.05 3019.49 2174.56 3036.59 2186.82 3036.59 2183.75 3068.48 2113.3 3073.08 2048.14 3068.48 2001.5 3052.69 1973.93 3031.36 2015.28 3001.92 2059.86 2968.06 2095.64 2923.89 2124.02 2885.24 2127.09 2832.65 2171.5 2810.11 2212.85 2762.88"/></g><g id="Vela_01" data-name="Vela 01"><polygon class="cls-34" points="1005.75 1073.16 1005.75 842.41 1027.83 829.03 1040.82 839.07 1055.1 842.41 1073.28 829.03 1110.94 842.41 1139.51 844.08 1153.8 829.03 1164.18 850.77 1169.38 1073.16 1005.75 1073.16"/><polygon class="cls-35" points="1005.75 845.75 1021.71 873.62 1027.88 897.03 1035.6 910.97 1054.64 932.71 1054.64 912.08 1066.98 893.13 1087.57 884.77 1094.26 908.74 1107.63 922.12 1118.95 932.71 1125.13 913.75 1130.27 897.59 1138.51 883.66 1149.31 908.18 1153.94 913.2 1164.18 854.12 1153.8 832.38 1139.51 847.43 1110.94 845.75 1073.28 832.38 1055.1 845.75 1040.82 842.41 1027.83 832.38 1005.75 845.75"/><line class="cls-36" x1="1084.97" y1="826.43" x2="1084.97" y2="768.59"/><path class="cls-37" d="M-600.76-2124c6-2.68,10.9,5.56,11.75,12.06a84.48,84.48,0,0,1-19.15,64.83c-10.32,12.13-25.17,23.91-23.68,39.77,1.46,15.44,17.64,24.45,31.86,30.59,18,7.79,39.82,15,56.27,4.29,10.58-6.91,15.86-19.75,17.63-32.28,3.32-23.46-3.7-47.61-16.11-67.79s-29.89-36.78-48.56-51.34" transform="translate(1663.57 2766.12)"/><path class="cls-38" d="M-591.7-2096.83c4.07-2.1,7.4,4.35,8,9.45,2.05,18-2.8,36.93-13,50.76-7,9.5-17.09,18.72-16.08,31.15,1,12.09,12,19.15,21.63,24,12.25,6.1,27,11.78,38.22,3.36,7.18-5.41,10.77-15.47,12-25.28,2.26-18.37-2.51-37.28-10.94-53.09s-20.3-28.8-33-40.2" transform="translate(1663.57 2766.12)"/><path class="cls-4" d="M-583.62-2075.37c3.27-1.63,6,3.39,6.43,7.36,1.65,14-2.26,28.76-10.48,39.53-5.64,7.4-13.76,14.58-12.94,24.26.79,9.42,9.64,14.91,17.42,18.65,9.86,4.75,21.77,9.18,30.77,2.62,5.79-4.21,8.67-12,9.64-19.68,1.82-14.32-2-29-8.81-41.35s-16.35-22.43-26.55-31.31" transform="translate(1663.57 2766.12)"/><rect class="cls-19" x="862.07" y="813.04" width="73.14" height="73.14"/><rect class="cls-19" x="1248.93" y="813.04" width="73.14" height="73.14"/><polygon class="cls-19" points="883.23 839.83 914.73 839.83 914.73 856.1 898.98 868.45 883.23 856.1 883.23 839.83"/><polygon class="cls-19" points="1269.75 839.83 1301.25 839.83 1301.25 856.1 1285.5 868.45 1269.75 856.1 1269.75 839.83"/><rect class="cls-19" x="872.99" y="1081.15" width="51.98" height="20.19"/><rect class="cls-19" x="1259.51" y="1081.15" width="51.98" height="20.19"/><polygon class="cls-19" points="892.23 1089.47 892.23 849.61 905.73 854.14 905.73 1089.47 892.23 1089.47"/><polygon class="cls-19" points="1278.75 1089.47 1278.75 849.61 1292.25 854.14 1292.25 1089.47 1278.75 1089.47"/><rect class="cls-26" x="857.57" y="1073.16" width="460" height="55.18"/></g><g id="vela_02" data-name="vela 02"><rect class="cls-26" x="4184.92" y="1073.16" width="460" height="55.18"/><polygon class="cls-34" points="4333.11 1073.16 4333.11 842.41 4355.18 829.03 4368.17 839.07 4382.45 842.41 4400.64 829.03 4438.29 842.41 4466.86 844.08 4481.15 829.03 4491.54 850.77 4496.73 1073.16 4333.11 1073.16"/><polygon class="cls-35" points="4333.11 845.75 4349.06 873.62 4355.23 897.03 4362.95 910.97 4381.99 932.71 4381.99 912.08 4394.34 893.13 4414.92 884.77 4421.61 908.74 4434.99 922.12 4446.31 932.71 4452.48 913.75 4457.63 897.59 4465.86 883.66 4476.66 908.18 4481.3 913.2 4491.54 854.12 4481.15 832.38 4466.86 847.43 4438.29 845.75 4400.64 832.38 4382.45 845.75 4368.17 842.41 4355.18 832.38 4333.11 845.75"/><line class="cls-36" x1="4414.92" y1="838.15" x2="4414.92" y2="780.31"/><path class="cls-37" d="M2726.59-2124c6-2.68,10.9,5.56,11.75,12.06a84.44,84.44,0,0,1-19.15,64.83c-10.32,12.13-25.16,23.91-23.67,39.77,1.45,15.44,17.64,24.45,31.85,30.59,18,7.79,39.82,15,56.27,4.29,10.58-6.91,15.86-19.75,17.63-32.28,3.32-23.46-3.7-47.61-16.11-67.79s-29.89-36.78-48.56-51.34" transform="translate(1663.57 2766.12)"/><path class="cls-38" d="M2735.66-2096.83c4.06-2.1,7.4,4.35,8,9.45,2,18-2.81,36.93-13,50.76-7,9.5-17.09,18.72-16.08,31.15,1,12.09,12,19.15,21.63,24,12.26,6.1,27.05,11.78,38.22,3.36,7.19-5.41,10.77-15.47,12-25.28,2.26-18.37-2.51-37.28-10.94-53.09s-20.3-28.8-33-40.2" transform="translate(1663.57 2766.12)"/><path class="cls-4" d="M2743.74-2075.37c3.27-1.63,6,3.39,6.42,7.36,1.65,14-2.26,28.76-10.47,39.53-5.65,7.4-13.77,14.58-13,24.26.79,9.42,9.65,14.91,17.42,18.65,9.87,4.75,21.78,9.18,30.78,2.62,5.78-4.21,8.67-12,9.64-19.68,1.81-14.32-2-29-8.81-41.35s-16.35-22.43-26.56-31.31" transform="translate(1663.57 2766.12)"/><rect class="cls-19" x="4184.92" y="822.54" width="73.14" height="73.14"/><rect class="cls-19" x="4571.78" y="822.54" width="73.14" height="73.14"/><polygon class="cls-19" points="4206.08 849.34 4237.58 849.34 4237.58 865.61 4221.83 877.96 4206.08 865.61 4206.08 849.34"/><polygon class="cls-19" points="4592.6 849.34 4624.1 849.34 4624.1 865.61 4608.35 877.96 4592.6 865.61 4592.6 849.34"/><rect class="cls-19" x="4195.84" y="1090.66" width="51.98" height="20.19"/><rect class="cls-19" x="4582.36" y="1090.66" width="51.98" height="20.19"/><polygon class="cls-19" points="4215.08 1098.98 4215.08 859.12 4228.58 863.65 4228.58 1098.98 4215.08 1098.98"/><polygon class="cls-19" points="4601.6 1098.98 4601.6 859.12 4615.1 863.65 4615.1 1098.98 4601.6 1098.98"/></g><g id="pare.esc."><polygon class="cls-39" points="480.8 1691.01 467.35 1583.03 530.01 1579.77 543.5 1667.26 480.8 1691.01"/><polygon class="cls-39" points="460.8 2293.29 441.95 2440.25 462.8 2519.23 503.07 2453.37 522.76 2305.21 460.8 2293.29"/><polygon class="cls-39" points="210.77 1873.88 129.13 1794.85 170.82 1747.58 253.12 1822.88 210.77 1873.88"/><polygon class="cls-39" points="626.26 2245.78 723.06 2335.53 786.57 2357.12 754.97 2289.53 657.63 2198.45 626.26 2245.78"/><polygon class="cls-39" points="407.25 1551 422.09 1639.59 474.97 1597.84 558.97 1586.58 601.78 1619.21 590.69 1534.63 407.25 1551"/><polygon class="cls-26" points="479.68 1540.92 475.12 1498.31 468.78 1463.39 471.22 1427.59 514.49 1434.15 520.03 1464.89 517.4 1500.44 516.06 1538.86 479.68 1540.92"/><ellipse class="cls-39" cx="-1169.77" cy="-1331.35" rx="24.74" ry="46.26" transform="matrix(0.09, -1, 1, 0.09, 1926.04, 390.96)"/><polygon class="cls-39" points="65.63 1811.36 135.27 1873.48 144.37 1801.58 195.65 1732.56 247.45 1728.86 183.11 1667.36 65.63 1811.36"/><polygon class="cls-26" points="114.67 1756.19 79.01 1729.54 48.3 1709.84 21.97 1682.28 51.99 1651.28 79.01 1668.65 105.04 1696.19 134.04 1724.72 114.67 1756.19"/><ellipse class="cls-39" cx="-1613.64" cy="-1088.5" rx="39.39" ry="22.13" transform="translate(1891.1 1046.16) rotate(-52.93)"/><path class="cls-39" d="M-1117-1118.54l-396,219.79s38.13,133.28,53.48,177.51c11.78,33.94,37.51,102,58.16,131.48,21.82,31.13,77.56,85.16,109.84,105.4,58.07,36.39,257.23,95.47,257.23,95.47s62.73-193.56,70.8-261.14c5.52-46.2-2-145.65-9.5-191.58-10.07-62.06-88-235.71-88-235.71l-22.34-57.59Z" transform="translate(1663.57 2766.12)"/><path class="cls-26" d="M-1148.18-1045.23l-314.6,173.9s35.3,120.82,48.89,155.52c10.43,26.64,33.11,80.08,51,103.34,18.87,24.57,61.62,71.22,87.12,90.48,74.22,56.05,226,90.7,226,90.7s50.1-169.57,56-222.16c4-35.94-3.75-113.6-10.69-149.52-9.37-48.52-55.6-182.36-55.6-182.36l-40.36-88.08Z" transform="translate(1663.57 2766.12)"/><polygon class="cls-39" points="354.15 1810.39 588.87 2328 613.77 2334.84 629.5 2279.95 411.26 1778.45 354.15 1810.39"/><polygon class="cls-39" points="300.64 2153.65 655.77 1937.55 634.33 1884.06 271.43 2100.51 300.64 2153.65"/></g></svg>