<svg id="Layer_2" data-name="Layer 2" xmlns="http://www.w3.org/2000/svg" viewBox="0 0 774.65 369.96"><defs><style>.cls-1{fill:#351f0d;}.cls-1,.cls-2{stroke:#000;stroke-miterlimit:10;stroke-width:10px;}.cls-2{fill:#7a7a7a;}.cls-3{fill:#5c5c5c;}</style></defs><title>machado</title><path class="cls-1" d="M854,384,835.53,424l-5.42,29.76,610.22,242.09s14.05-14.81,17.19-21.66c2.52-5.5-1.08-26.45-1.08-26.45Z" transform="translate(-688.76 -331.75)"/><path class="cls-2" d="M905,399.17s26.65-19.55,33.77-27.05c7.53-7.92,24-34.24,24-34.24l40.73,15.38-11.61,28.95-13.62,39.43,3.66,23,8.3,30.49L941.75,492.8,905,521.49s-9.65,27.16-11,36.42c-1.23,8.24-4.3,25.44,0,33.13,4,7.19,20.65,18.39,29.87,22.47,8.65,3.84,38.93,8.6,38.93,8.6l-14,53s-41,4.1-54.77,4.69c-13.25.57-40,1.27-53.11,0-17.06-1.64-50.31-8.63-66.38-13-12.33-3.36-37-10.82-47.24-16.76-9.61-5.59-30.57-27.88-30.57-27.88s61.91-37.1,79.47-51.6c18-14.85,48.49-47.78,61.4-65.1,6.38-8.55,17.55-26.44,20.4-35.92,3.39-11.27,2.41-46.09,2.41-46.09Z" transform="translate(-688.76 -331.75)"/><polygon class="cls-3" points="278.52 25 293.84 25 286.18 59.35 271.78 84.45 282.81 135.56 247.89 147.37 205.72 177.42 186.63 218.13 186.63 253.92 205.72 281.62 240.23 298.71 252.48 298.71 249.42 330.6 178.97 335.2 113.81 330.6 67.17 314.81 39.6 293.48 80.95 264.04 125.53 230.18 161.31 186.01 189.69 147.37 192.75 94.77 237.17 72.23 278.52 25"/></svg>