<svg id="Layer_7" data-name="Layer 7" xmlns="http://www.w3.org/2000/svg" viewBox="0 0 477.14 135.39"><defs><style>.cls-1,.cls-4{fill:#dda95f;}.cls-2{fill:#6f5530;stroke-width:6px;}.cls-2,.cls-3,.cls-4{stroke:#000;stroke-miterlimit:10;}.cls-3{fill:#241a0c;}.cls-3,.cls-4{stroke-width:2px;}</style></defs><title>tampa</title><path class="cls-1" d="M802.92,459c59.78,18.35,67,26,125.08,27.53,44,1.11,101,8.53,145,8.74,47.12.22,132.29-8.74,159.4-51.67,0,0-26.51-24.63-36.53-30.48-10.4-6.08-33.07-12.88-44.28-16.38-17.66-5.53-53.3-15.38-71.39-18.36-19.93-3.27-60.22-5.16-80.33-5.89-19.34-.71-58.12-1.79-77.41,0-12.43,1.15-37.08,6-49.26,9.17-14.33,3.73-42.76,12.77-56.45,19-12.87,5.86-49.48,28.84-49.48,28.84Z" transform="translate(-761.26 -365.48)"/><path d="M801.33,464.75c27.16,8.37,54,19.65,82.22,24.17,15.48,2.48,31.1,3.17,46.74,3.64,17.93.54,35.83,1.91,53.71,3.33,60.48,4.79,121.5,10.26,181-5.33,27.31-7.15,56.72-19.3,72.61-44a6.07,6.07,0,0,0-.94-7.27c-8.56-7.94-17.29-15.75-26.38-23.07-5.52-4.44-11-8.5-17.48-11.42a256.57,256.57,0,0,0-26.79-9.89c-33.23-10.69-67.38-21.21-102.24-24.62-36.68-3.59-73.85-4.83-110.69-4.84-17.79,0-35,1-52.55,4.21A408.66,408.66,0,0,0,848.1,382.8c-17.54,5.63-34.27,12-50.23,21.18-11.35,6.54-22.53,13.36-33.62,20.32-3,1.89-4.31,6.86-1.21,9.43l35.64,29.48c5.91,4.89,14.44-3.55,8.49-8.48l-35.65-29.49-1.21,9.42c21.51-13.49,42.88-27.14,66.94-35.59,32.66-11.46,67-20.64,101.73-21.45,35.86-.83,72,.73,107.79,3.29,16.75,1.19,33.11,3,49.47,6.88,17.75,4.17,35.39,9,52.8,14.4,16.81,5.21,35.65,9.43,49.86,20.27,10.24,7.82,19.83,16.59,29.26,25.35l-.94-7.27c-13.15,20.42-38,30.66-60.39,37.07-25.3,7.24-51.72,10.42-78,11.37-31.51,1.15-63.06-1.74-94.45-4.26-17.7-1.42-35.41-2.88-53.15-3.73-15.9-.76-31.82-.8-47.65-2.68-30.68-3.66-59.76-16.09-89.09-25.13C797.12,450.91,794,462.48,801.33,464.75Z" transform="translate(-761.26 -365.48)"/><ellipse class="cls-2" cx="234.99" cy="67.88" rx="62.52" ry="16.21"/><rect class="cls-3" x="207.12" y="59.88" width="58" height="13.5"/><polygon class="cls-4" points="213.12 67.88 224.77 67.88 224.77 64.38 220.86 64.38 220.86 40.38 254.12 40.38 254.12 64.38 248.62 64.38 248.12 67.88 263.12 67.88 263.12 64.38 258.12 64.38 257.62 33.38 217.62 33.38 217.62 63.38 213.12 63.38 213.12 67.88"/></svg>