<?xml version="1.0" encoding="utf-8"?>
<!-- Generator: Adobe Illustrator 22.0.0, SVG Export Plug-In . SVG Version: 6.00 Build 0)  -->
<svg version="1.1" id="Layer_1" xmlns="http://www.w3.org/2000/svg" xmlns:xlink="http://www.w3.org/1999/xlink" x="0px" y="0px"
	 viewBox="0 0 500 500" style="enable-background:new 0 0 500 500;" xml:space="preserve">
<style type="text/css">
	.st0{fill:#7D3F18;stroke:#000000;stroke-miterlimit:10;}
	.st1{fill:#3F200C;}
	.st2{stroke:#000000;stroke-width:0.5;stroke-miterlimit:10;}
	.st3{fill:#FFFFFF;}
	.st4{fill:none;stroke:#000000;stroke-miterlimit:10;}
	.st5{stroke:#000000;stroke-miterlimit:10;}
</style>
<g id="Layer_11">
	<path d="M487.6,159.4l6.6,43.6l5.7,45.3v36.2v45.7l-4.4,32.6l-0.7-12.7l-4.1,39.1l-3.1-13.1c0,0-11.2,51.8-11,50.3
		c0.1-1.5,0-14.6,0-14.6l-8.4,31.5l-3.5-14.4l-12.5,27.5l-2.1-15.7l-8.5,6.6v-16.5l-5.2,1.9l2.8-34.1l-6,7.2l4.9-77.4l-4.9,9.3
		l4.1-29.6L487.6,159.4z"/>
	<path class="st0" d="M226.5,295c0,0,29.9,0.6,39.7,0c14.4-0.8,43.6-3.2,57.9-7.4c8.4-2.5,24.7-10.8,32.8-15.4
		c5.9-3.4,17.2-18.4,23.3-15.4c0,0,6.6,18.4,8.1,25c1.3,5.7,2.2,18,3.7,23.9c1.3,5.3,5.2,15.2,7.1,20.1c2.4,6.3,8.2,18.2,10.3,25
		c1.8,5.7,4.6,17.6,5.2,23.9c0.1,1.9,0.1,5.5,0,7.4c-1.6,18.6-6.2,56.9-13,73c-2.2,5.5-12.4,20.7-12.4,20.7l25.3,1.1
		c0,0,8.5-18.8,10.3-26c2.8-10.8,4-33.8,5.9-45.1c1.9-11.2,8.4-32.6,9.6-44c0.3-3,0.3-9.1,0-12.3c-1-8.9-5.9-25.8-7.8-34.5
		c-1-4.7-3.7-14.2-3.7-19c-0.1-5.5,3.4-21.2,3.4-21.2s21.2,55.4,28.7,73.6c2.8,6.6,9.6,18.8,11.5,26c1.8,6.8,2.5,21.4,2.9,28.6
		c0.3,5.7,0,17.6,0,23.3c0,5.5,0,21.8,0,21.8l-11.8,28.3h23.3l6.3-26.4c0,0,2.6-11,2.6-14.8c-0.1-5.7-3.8-16.1-4.4-21.8
		c-1-10.2,0-30.9-0.4-41.3c-0.4-9.9-1.6-29.8-2.9-39.8c-2.1-14.6-10.2-42.5-12.2-57.1c-0.7-5.5-1.9-17.1-1.5-22.8
		c0.7-10.4,8.1-40.2,8.1-40.2s7.1-28.6,7.1-38.7c-0.1-8.7-3.5-26.2-7.1-33.4c-4-8.3-16.3-19-22.5-23.9c-4.9-3.8-15.5-8.9-20.6-11.6
		c-7.7-4.2-22.7-13.5-30.6-16.5c-3.7-1.3-11.3-2.8-15.2-2.8c-5.9,0-17.7,3.2-23.6,4.9c-11.2,3-33.1,11.4-44.2,14.8
		c-12.1,3.8-36.2,12.5-48.6,13.8c-4.6,0.4-13.8-0.4-18.4-1.7c-5.4-1.3-15.8-7-21.1-9.1c-4.9-1.9-14.6-5.7-19.6-7
		c-6.2-1.5-18.8-1.9-25-3.2c-5.2-1.1-20.6-5.3-20.6-5.3l-39.7-22.2l-24.3-14.8l-8.1-4.2l-19.1-8.5l-16.6-8c0,0-4.6-9.3-5.9-12.7
		s-2.8-11.2-4.4-14.4c-1.2-2.3-4.1-8.5-5.9-7.4c-1.9,1.3,0,12.3,0,12.3s-0.4,7.6,0,10.2C48.8,24.9,52,31,52,31s-6-3.8-8.1-3.8
		c-2.2,0.2-8.1,5.3-8.1,5.3s-4.3-11.2-6.3-14.4c-1-1.7-3.7-3.8-4.9-5.3c-0.9-1.3-2.1-6.1-3.4-5.9c-2.2,0.4-3.1,8.5-3.4,11.6
		c-0.3,4.2,1.2,13.1,2.6,16.9c1,2.8,6.3,9.1,6.3,9.1S20.1,55.3,18,59.4c-1.3,2.5-4.1,8-4.9,11.2c-0.4,1.9-0.1,5.9,0,8
		c0.3,2.8,2.2,7.8,2.2,10.6c0,5.7-4.9,22.2-4.9,22.2s-3.5,18-5.6,23.3c-0.9,2.3-3.8,5.5-4.4,8c-0.7,2.8-0.6,8.9,0,11.6
		c0.9,4.2,4.4,11.4,6.3,14.8c1.2,2.1,3.4,6.6,5.2,7.4c2.9,1.7,9.9,0.4,13-1.1c3.7-1.9,9.7-9.3,12.5-13.3c1.6-2.3,4.1-7.8,5.9-10.2
		c3.2-4,10.7-10.6,14.7-13.3c2.6-1.9,8.8-3.2,11.5-5.3c0.9-0.6,2.9-3.8,2.9-3.8L91.6,155l25,32.4l10,13.3l7.8,37l5.2,22.8l5.9,12.7
		l15.2,15.9l12.5,36.6c0,0,11.2,32.8,14,44.4c1.6,6.6,3.2,20.3,4.4,27.1c1,6.1,3.8,18.2,4.4,24.3c0.6,7,0.3,21.4,0,28.6
		c-0.1,4.4-0.3,13.8-1.5,18c-1.5,4.9-9.3,16.9-9.3,16.9h22.1h21.1c0,0,4.4-14.2,5.6-19c0.9-4,1.9-12.7,1.9-16.9
		c0-10.4-6.6-39.1-6.6-39.1l-2.6-19.7c0,0,3.4-4.9,3.7-7c1.3-7.6-3.2-22.8-3.7-30.7C225.6,339,226.5,295,226.5,295z"/>
	<polygon class="st1" points="248.1,172.3 276.5,190.5 306.4,177.8 346.5,177.8 373,140 405.8,113.7 436.1,103.4 408.7,88.8 384,86 
		351.5,96.8 310.4,112.5 271.4,119.4 214.1,105.7 194.5,146.9 	"/>
	<ellipse class="st2" cx="53.2" cy="79.2" rx="4.6" ry="6.8"/>
	<ellipse class="st3" cx="55.1" cy="75.4" rx="1.5" ry="2.1"/>
	<path class="st3" d="M30.8,161.5c0,0-6.2,0.4-7.7-1.3c-0.3-0.4-0.6-1.7-0.6-2.3c0-2.1,1.9-5.9,2.1-8c0-1.9-0.6-5.7-1.3-7.4
		c-0.4-0.8-1.8-2.5-2.5-2.8c-1.6-0.4-6.5,2.3-6.5,2.3v-4.9l3.2-13.8l6.2-23.9L27,84.7l4.1-9.9l15.3-45.9L42,29.5l-5.6,4.9
		c0,0-13.7,19-17.7,26.2c-1.3,2.5-4.1,8-4.9,11.2c-0.4,1.9-0.1,5.9,0,8c0.3,2.8,2.2,10.6,2.2,10.6l-1.8,10.8l-4.6,18.8l-4.1,15.7
		c0,0-3.1,5.9-3.5,8.3c-0.6,2.8-0.6,8.5-0.1,11.2c0.4,2.5,3.5,9.3,3.5,9.3s2.5,5.3,3.7,7.2c0.9,1.5,2.9,4.4,4.3,5.1
		c1.6,1.1,4.6,1.3,6.2,0.4C23.3,175.1,30.8,161.5,30.8,161.5z"/>
	<path d="M18,157.1c0,0,2.8,0.4,3.7-0.8c0.9-1.3,1.5-5.3,1.5-7.2c0-1.5-0.6-4.4-1.3-5.5c-0.7-0.8-2.8-1.5-3.7-1.3
		c-1.2,0.2-3.8,3.6-3.8,3.6l4,3.8L18,157.1z"/>
	<path d="M54.8,34.8L46.3,50l-0.7-1.9l-7.2,18.2l0.7-4.4l-7.8,14.2L31,74.8l-7.7,14.6V86L16.4,96l0.9-2.3l-5.7,7l2.8-13.1l-2.8,3.6
		l1-16.7l-1.9,2.5l10-22l-2.4,1.7l16.3-19.9l-2.2,1.5c0,0,6.8-7.4,9.4-8.7c1-0.6,4.4-0.6,4.4-0.6L54.8,34.8z"/>
	<path d="M30.1,42c0,0-2.6-5.1-3.4-6.8c-0.9-1.9-2.4-6.1-2.8-8.3c-0.3-1.9,0-8,0-8s3.4,5.1,4.6,7c1.8,2.8,6.6,11.6,6.6,11.6L30.1,42
		z"/>
	<polygon points="67,36.7 75,56 76.8,71 77.6,87.9 77.6,103.8 77.6,111.4 81.6,93.8 82.2,105.3 85.3,96.8 87.4,106.5 88.2,100.4 
		91.3,110.1 91.3,103.4 96.2,113.7 96.2,105.9 100.5,114.8 100.5,107 105.2,119.6 105.6,112 109.4,124.3 110.6,118.2 113.9,127.9 
		116.1,120.7 122.8,135.1 122.8,128.7 128.1,141.9 128.9,135.9 133.1,156.2 134.2,150.3 136.7,177.8 138,170.8 142.6,187.1 
		143.1,177 148.3,190.5 151.5,176.1 155.1,188 157.1,174.6 163,190.5 165.2,173.4 170.5,186.7 171.7,170.8 177,183.1 177.7,161.7 
		184.4,171.5 188.3,185.4 187.9,164.3 192.9,167.2 190.3,154.3 198.2,162.8 197,148.8 200.6,153.9 199.8,137 205.9,141.9 204.5,130 
		212.3,134.2 208.5,121.5 214.1,125.4 212,113.7 225.9,122 221.2,112.7 238.1,122.6 233,112.7 253.3,115.6 231.3,106.1 219.7,102.5 
		207,100.4 187.6,97.4 165.7,89.4 129.6,66.1 	"/>
	<path class="st4" d="M431.8,274.9c0,0-9.6-17.1-13.1-22.4c-3.7-5.7-11.6-16.3-15.9-21.2c-1.5-1.7-4.4-5.5-6.3-6.1
		c-2.4-0.8-7.5,0.6-9.7,2.1c-0.9,0.6-2.9,3.4-2.9,3.4"/>
	<path class="st4" d="M206.3,485.8c0,0,5.7-11.6,6.8-16.1c1-4.4,1.8-13.5,1.9-18.2c0.1-7.8-0.7-23.3-1.6-30.9c-0.7-6.3-5-25-5-25
		l-4.3-17.8c0,0-7.4-33-10.3-44c-2.2-8.5-7.7-24.8-10-33c-1.5-5.3-2.9-16.7-5.3-21.2c-2.6-4.7-10.7-9.3-14.1-12.9
		c-2.5-2.8-9.4-11.8-9.4-11.8"/>
	<path class="st1" d="M380.5,256.5l4.3-12.9l3.7-15.7c0,0,3.1-1.5,5.4-1.5c2.9,0,5.2,1.5,5.2,1.5l18,22l10.9,18.2l3.1,7.4l-1.9,8
		l-10.2-9.9c0,0-7.7-11.6-11-13.3c-5.9-2.8-24.9,3-24.9,3L380.5,256.5z"/>
	<polyline points="19.5,177.2 22.6,174.2 30.8,161.5 39.4,149.7 35.5,158.8 30.4,169.6 25.5,176.5 	"/>
	<polygon points="190,485.8 185.3,485.8 181.7,488.6 180.8,494.3 182.5,500 191.1,500 205.1,500 208.4,497.5 209.8,490.5 
		206.7,485.8 	"/>
	<polygon points="228.4,485.8 230.6,485.8 232.1,489.6 232.1,495.8 227.5,500 209.8,500 207.3,497.5 206.3,490.5 207.3,485.8 	"/>
	<path class="st5" d="M391.6,475.2c0,0-2.8-0.6-3.5,0c-0.9,0.8-2.8,1.9-3.2,3.2c-0.4,1.1-0.9,3.6-0.7,4.7c0.3,1.7,2.1,4.9,3.2,5.7
		c5.9,4,25.8,0,25.8,0l3.1-4V482l-1.8-5.7L391.6,475.2z"/>
	<path class="st5" d="M466,476.3c0,0-2.2-0.2-2.9,0c-0.9,0.4-2.8,1.9-3.4,3.2c-0.6,1.9-0.7,6.8,0,8.5c0.7,1.5,4.7,2.5,4.7,2.5h16.3
		l7.1-1.1l1.3-6.6l-2.4-6.3H466L466,476.3L466,476.3z"/>
	<path class="st1" d="M156,258l-2.6,22.6l8.1,9.1l19.6,56.9l7.7,26.7l4.3,27.7c0,0,3.7,16.7,4.1,22.2c0.9,10.6-1.5,41.7-1.5,41.7
		s0.1,4.7-0.3,5.9c-1.5,4.9-10,15.2-10,15.2h20.9c0,0,6.8-15.7,7.2-22.6c0.3-5.1,0.6-18.6,0.6-18.6l-1.3-24.1l-8.4-38.7l-7.4-31.9
		l-5.3-19.9l-7.9-27.3c0,0-2.8-19.3-6-22.4C170.1,272.4,156,258,156,258z"/>
</g>
</svg>
