<?xml version="1.0" encoding="utf-8"?>
<!-- Generator: Adobe Illustrator 22.0.0, SVG Export Plug-In . SVG Version: 6.00 Build 0)  -->
<svg version="1.1" xmlns="http://www.w3.org/2000/svg" xmlns:xlink="http://www.w3.org/1999/xlink" x="0px" y="0px"
	 viewBox="0 0 200 200" style="enable-background:new 0 0 200 200;" xml:space="preserve">
<style type="text/css">
	.st0{fill:#97B600;stroke:#000000;stroke-miterlimit:10;}
	.st1{stroke:#000000;stroke-miterlimit:10;}
	.st2{fill:#EEEDED;}
	.st3{fill:#2E2929;}
	.st4{fill:#0C0A0A;}
	.st5{fill:#394400;stroke:#000000;stroke-miterlimit:10;}
	.st6{fill:#D9A9E7;stroke:#000000;stroke-width:0.75;stroke-miterlimit:10;}
	.st7{fill:none;stroke:#000000;stroke-miterlimit:10;}
	.st8{fill:none;stroke:#000000;stroke-width:0.5;stroke-miterlimit:10;}
	.st9{fill:#718900;}
	.st10{fill:#718900;stroke:#000000;stroke-miterlimit:10;}
	.st11{display:none;}
	.st12{display:inline;fill:#97B600;stroke:#000000;stroke-miterlimit:10;}
	.st13{display:inline;stroke:#000000;stroke-miterlimit:10;}
	.st14{display:inline;fill:#EEEDED;}
	.st15{display:inline;fill:#2E2929;}
	.st16{display:inline;fill:#0C0A0A;}
	.st17{display:inline;fill:#D9A9E7;stroke:#000000;stroke-width:0.75;stroke-miterlimit:10;}
	.st18{display:inline;fill:none;stroke:#000000;stroke-width:0.5;stroke-miterlimit:10;}
	.st19{display:inline;fill:#718900;}
	.st20{display:inline;fill:#718900;stroke:#000000;stroke-miterlimit:10;}
	.st21{display:inline;fill:#394400;stroke:#000000;stroke-miterlimit:10;}
	.st22{display:inline;fill:none;stroke:#000000;stroke-miterlimit:10;}
	.st23{display:inline;opacity:0;fill:none;stroke:#000000;stroke-miterlimit:10;}
</style>
<g id="Layer_2">
	<path class="st0" d="M20.2,79.1c-1.4-3.3-3.4-10.5-4.7-13.9C14.7,63.1,12,57,12,57s-0.7-2.8-1.2-3.4c-2-2.3-10.7-4.8-10.7-4.8
		L10.1,40c0,0,1.6-1.2,2-1.6c0.7-0.7,1.8-2.9,2.6-3.5c0.8-0.6,2.9-1.4,3.9-1.6c0.8-0.2,2.4,0.1,3.3,0c0.9-0.1,2.5-1.1,3.4-1.3
		c1.9-0.3,5.7-0.3,7.6,0c2.4,0.3,7.1,1.8,9.3,2.9c1.5,0.6,4.4,2.5,5.8,3.5c2.1,1.6,6,5.3,7.7,7.5c1.9,2.2,4.7,7.3,6.3,9.7
		c1.1,1.7,3,5.4,4.4,6.8c2.6,2.9,12.3,9.1,12.3,9.1l9.1,6.4L100,88l10.7,10.4l17.7,19.8l14.6,14.1l19.5,22.2l2.3,3.7l14,15.5
		l21.1,23.5h-4.6l0.9,2.9l-7.4-6.1c0,0-22.1-21.7-30.5-27c-1.8-1.2-7.7-3.4-7.7-3.4s1.6,3.4,1.9,4.6c0.4,1.3,0.7,5.3,0.7,5.3
		s-4.7-1.9-6.2-2.9c-3.5-2-9.9-7.7-13.3-9.8c-2-1.2-6-3.5-8.1-4.1c-3-0.9-9.1-0.7-12.1-1.1c-3.4-0.3-10.1-0.7-13.5-1.4
		c-2.4-0.4-7.1-2-9.5-2.7c-3.9-1.1-11.8-2.3-15.6-3.7c-4.2-1.5-12.4-5.6-16.3-8c-3.4-2.1-9.5-7.4-12.4-10.1
		c-3.3-3.1-8.9-10.6-12.3-13.7c-1.8-1.6-6-3.7-7.4-5.7c-2-2.8-4-9.7-4.7-13.1c-0.6-2.9-0.4-9-0.5-12c0-1,0.2-3,0-4
		C21.1,80.6,20.4,79.7,20.2,79.1z"/>
	<ellipse class="st1" cx="32.1" cy="44.6" rx="4" ry="4.6"/>
	<ellipse class="st2" cx="34.2" cy="43.2" rx="1.3" ry="1.5"/>
	<path class="st3" d="M5.9,50.5c0,0,9.2,2,12,0.5c0.5-0.2,1.3-1.3,1.4-1.9c0.2-1.1-0.7-3.1-1-4.1c-0.4-1-1.4-2.7-2-3.5
		C15.9,41,15,40.2,14.5,40c-1-0.4-3.9,0.1-3.9,0.1L0,48.8L5.9,50.5z"/>
	<path class="st4" d="M0,48.9l5.9-1.5l5.8-1.4l6.8-1l0.9,2.9c0,0,0.1,0.9,0.1,1.2c-0.2,0.6-0.9,1.6-1.4,1.9s-1.6,0.9-2.1,0.9
		c-0.8,0.1-3.2,0-3.2,0l-4.5-0.5L6,50.5L0,48.9z"/>
	<path class="st5" d="M58.7,104.4c-1.9-0.1-5.6-1.1-7.1-2.3c-1-0.7-2.6-2.9-3.1-4.1c-0.5-1.4-0.4-4.4,0-5.8c0.6-2.1,3.3-5.6,4.3-7.4
		c0.6-1.1,2-3.4,1.8-4.6c-0.5-1.6-4-2.4-5-3.6c-0.4-0.4-1.1-1.4-1-2c0.3-1.9,3.7-4.1,5-5.4c3.9-3.6,16.7-12.9,16.7-12.9l22.3-14.2
		l13.6-8.7l19.5-13.1l8.2-5.1l7.9-4.5l6.3-4.5l9.3-6.4v10.1l-2.6,5.3L145.6,30l-4.6,6.8l7-0.6l-10.7,15.5l-14,14.5L105.5,80
		l-14,10.7c0,0-15.3,8.3-20.3,10.5C68.3,102.5,61.8,104.5,58.7,104.4z"/>
	<polygon class="st6" points="87,157 81.2,159.6 70.7,163.4 63.3,166.3 57.8,169.4 56.6,171.5 56.6,176.1 61.9,177.2 65.2,181.2 
		60,179.1 54.4,184.1 55.3,179.3 47.7,182.8 50.1,179 43.6,178.5 50.3,176.4 51,169.8 52.9,166.3 63.4,161.9 77.9,155.9 82.6,155.1 
		84.8,155.1 	"/>
	<polygon class="st6" points="101.1,154.4 93.2,161.7 85,169.6 81,172.7 74.1,175.1 76.1,176.2 70.8,181.4 77.2,180.5 75.4,183.3 
		82.6,181.4 86.5,183.3 85.2,176.3 108.9,155.1 	"/>
	<polyline class="st7" points="57.9,77.6 70.4,71.1 88,60.2 106.4,49.1 119.2,40 146.4,15.9 	"/>
	<path class="st8" d="M151.1,169.6"/>
	<path class="st9" d="M21.9,81.4l12.9,12.9l13.3,10l16.3,11.7l18.9,13.6l27.8,16.5l14,9.6l-18-1.5l-6-0.5c0,0-21.1-4.8-25.4-6.4
		c-3.9-1.4-11.3-5-14.8-7c-3.1-1.8-11.1-8-11.1-8l-9.8-10.2l-6.2-6.3c0,0-5.4-4.2-6.8-6c-1.4-1.8-3.6-8.2-3.6-8.2s-1.4-4.7-1.6-6.3
		C21.5,92,21.9,81.4,21.9,81.4z"/>
	<path class="st10" d="M77.2,142.5c0,0,1.3,4.1,1.5,5.4c0.2,1.2,0.1,3.4,0,4.6c-0.1,0.9-0.7,3.5-0.7,3.5s5.2-1.3,6.9-0.9
		c0.7,0.2,2.2,1.9,2.2,1.9s2.1-5.4,2.8-7.3c0.5-1.3,1.7-5.1,1.7-5.1"/>
	<polyline class="st7" points="54.4,91.7 73.4,82.5 91.5,71.5 111.5,59.1 125.3,49.1 138.8,38.2 	"/>
	<polyline class="st8" points="194.5,196.4 182.6,182.2 169.7,168.9 	"/>
	<path class="st8" d="M146.4,144.6c0,0,5.2,4.8,6.7,6.6c1.9,2.3,8,10.1,8,10.1"/>
	<polyline class="st8" points="66.8,129.1 79.4,135 116,146.3 	"/>
	<path class="st8" d="M46.3,106.1c0,0,8.5,7.8,11.6,9.8c5.6,3.5,23.6,10.4,23.6,10.4"/>
	<polyline class="st7" points="65.3,96.9 85.7,86.5 113.9,66.5 136.2,46.8 	"/>
</g>
<g id="Layer_3" class="st11">
	<path class="st12" d="M20.5,79.2c-1.4-3.3-3.4-10.5-4.7-13.9c-0.8-2.1-3.5-8.2-3.5-8.2s-0.7-2.8-1.2-3.4c-2-2.3-10.7-4.8-10.7-4.8
		L10.5,40c0,0,1.6-1.2,2-1.6c0.7-0.7,1.8-2.9,2.6-3.5c0.8-0.6,2.9-1.4,3.9-1.6c0.8-0.2,2.4,0.1,3.3,0c0.9-0.1,2.5-1.1,3.4-1.3
		c1.9-0.3,5.7-0.3,7.6,0c2.4,0.3,7.1,1.8,9.3,2.9c1.5,0.6,4.4,2.5,5.8,3.5c2.1,1.6,6,5.3,7.7,7.5c1.9,2.2,4.7,7.3,6.3,9.7
		c1.1,1.7,3,5.4,4.4,6.8c2.6,2.9,12.3,9.1,12.3,9.1l9.1,6.4L100.4,88l10.7,10.4l17.7,19.7l14.6,14.1l19.5,22.2l2.3,3.7l14,15.5
		l21.1,23.5h-4.6l0.9,2.9l-7.4-6.1c0,0-22.1-21.7-30.5-27c-1.8-1.2-7.7-3.4-7.7-3.4s1.6,3.4,1.9,4.6c0.4,1.3,0.7,5.3,0.7,5.3
		s-4.7-1.9-6.2-2.9c-3.5-2-9.9-7.7-13.3-9.8c-2-1.2-6-3.5-8.1-4.1c-3-0.9-9.1-0.7-12.1-1.1c-3.4-0.3-10.1-0.7-13.5-1.4
		c-2.4-0.4-7.1-2-9.5-2.7c-3.9-1.1-11.8-2.3-15.6-3.7c-4.2-1.5-12.4-5.6-16.3-8c-3.4-2.1-9.5-7.4-12.4-10.1
		c-3.3-3.1-8.9-10.6-12.3-13.7c-1.8-1.6-6-3.7-7.4-5.7c-2-2.8-4-9.7-4.7-13.1c-0.6-2.9-0.4-9-0.5-12c0-1,0.2-3,0-3.9
		C21.5,80.7,20.7,79.7,20.5,79.2z"/>
	<ellipse class="st13" cx="32.5" cy="44.6" rx="4" ry="4.6"/>
	<ellipse class="st14" cx="34.5" cy="43.2" rx="1.3" ry="1.5"/>
	<path class="st15" d="M6.2,50.6c0,0,9.2,2,12,0.5c0.5-0.2,1.3-1.3,1.4-1.9c0.2-1.1-0.7-3.1-1-4.1c-0.4-1-1.4-2.7-2-3.5
		c-0.4-0.5-1.3-1.4-1.8-1.6c-1-0.4-3.9,0.1-3.9,0.1L0.3,48.9L6.2,50.6z"/>
	<path class="st16" d="M0.3,49l5.9-1.5l5.8-1.4l6.8-1l0.9,2.9c0,0,0.1,0.9,0.1,1.2c-0.2,0.6-0.9,1.6-1.4,1.9
		c-0.5,0.3-1.6,0.9-2.1,0.9c-0.8,0.1-3.2,0-3.2,0l-4.5-0.5l-2.2-0.9L0.3,49z"/>
	<polygon class="st17" points="87.4,157 81.6,159.7 71.1,163.4 63.6,166.3 58.1,169.4 56.9,171.5 56.9,176.1 62.2,177.2 65.6,181.2 
		60.4,179.1 54.7,184.1 55.6,179.3 48.1,182.8 50.4,179 43.9,178.5 50.6,176.4 51.3,169.8 53.2,166.3 63.7,161.9 78.2,155.9 
		82.9,155.1 85.1,155.1 	"/>
	<polygon class="st17" points="101.4,154.4 93.5,161.7 85.3,169.6 81.3,172.7 74.4,175.1 76.5,176.2 71.2,181.4 77.5,180.5 
		75.7,183.3 83,181.4 86.8,183.3 85.6,176.3 109.2,155.1 	"/>
	<path class="st18" d="M151.5,169.6"/>
	<path class="st19" d="M22.3,81.5l12.9,12.9l13.3,10l16.3,11.7l18.9,13.6l27.8,16.5l14,9.6l-18-1.5l-6-0.5c0,0-21.1-4.8-25.4-6.4
		c-3.9-1.4-11.3-5-14.8-7c-3.1-1.8-11.1-8-11.1-8l-9.8-10.2l-6.2-6.3c0,0-5.4-4.2-6.8-6c-1.4-1.8-3.6-8.2-3.6-8.2s-1.4-4.7-1.6-6.3
		C21.8,92,22.3,81.5,22.3,81.5z"/>
	<path class="st20" d="M77.5,142.5c0,0,1.3,4.1,1.5,5.4c0.2,1.2,0.1,3.4,0,4.6c-0.1,0.9-0.7,3.5-0.7,3.5s5.2-1.3,6.9-0.9
		c0.7,0.2,2.2,1.9,2.2,1.9s2.1-5.4,2.8-7.3c0.5-1.3,1.7-5.1,1.7-5.1"/>
	<polyline class="st18" points="194.9,196.4 182.9,182.2 170,168.9 	"/>
	<path class="st18" d="M146.7,144.6c0,0,5.2,4.8,6.7,6.6c1.9,2.3,8,10.1,8,10.1"/>
	<polyline class="st18" points="67.2,129.1 79.7,135 116.3,146.3 	"/>
	<path class="st18" d="M46.6,106.1c0,0,8.5,7.8,11.6,9.8c5.6,3.5,23.6,10.4,23.6,10.4"/>
	<path class="st21" d="M63.6,68.4c-1.9-0.3-5.9-0.2-7.6,0.5c-1.2,0.4-3.2,1.9-3.8,2.8c-0.7,1.1-1.1,3.6-1,4.9
		c0.2,1.9,2.4,5.4,3.1,7.2c0.4,1,1.5,3.3,1,4.2c-0.7,1.3-4.5,1.2-5.7,2c-0.4,0.3-1.4,0.9-1.4,1.5c0,1.7,3.1,4.2,4.2,5.6
		c3.4,3.8,14.8,14.4,14.8,14.4l20.4,16.6l12.5,10.2l17.7,15.1l7.5,6l7.3,5.5l5.6,5.1l8.4,7.4l1.7-8.6l-1.7-5.1l-6.9-14.2l-3.5-6.7
		l7.1,1.9l-8.3-15.3l-11.8-15.2l-15.9-15.4l-12.5-12c0,0-14.2-10.2-18.9-13.1C73,72,66.8,69,63.6,68.4z"/>
	<polyline class="st22" points="56.5,87.8 77.5,103.3 104.5,127.8 139.8,165 	"/>
	<polyline class="st22" points="133.8,141.3 113.8,115.9 89,90.5 69.3,77 	"/>
	<polyline class="st22" points="62.5,83.3 88.8,103.5 126.8,141.3 135.3,151.5 	"/>
	<line class="st23" x1="75.8" y1="58.5" x2="150.5" y2="0"/>
</g>
<g id="Layer_4">
</g>
</svg>
