<?xml version="1.0" encoding="utf-8"?>
<!-- Generator: Adobe Illustrator 22.0.0, SVG Export Plug-In . SVG Version: 6.00 Build 0)  -->
<svg version="1.1" id="Layer_1" xmlns="http://www.w3.org/2000/svg" xmlns:xlink="http://www.w3.org/1999/xlink" x="0px" y="0px"
	 viewBox="0 0 250 250" style="enable-background:new 0 0 250 250;" xml:space="preserve">
<style type="text/css">
	.st0{fill:#E3E3E8;stroke:#000000;stroke-miterlimit:10;}
	.st1{fill:#ACACB9;stroke:#000000;stroke-miterlimit:10;}
	.st2{fill:#FFFFFF;stroke:#000000;stroke-miterlimit:10;}
	.st3{fill:#90FFFF;stroke:#000000;stroke-miterlimit:10;}
	.st4{fill:#FFFFFF;}
	.st5{fill:#B5B5BD;stroke:#000000;stroke-miterlimit:10;}
	.st6{stroke:#000000;stroke-miterlimit:10;}
	.st7{fill:#2D2D2F;stroke:#000000;stroke-width:0.5;stroke-miterlimit:10;}
	.st8{fill:none;stroke:#000000;stroke-width:0.5;stroke-miterlimit:10;}
	.st9{fill:#1C1C21;stroke:#000000;stroke-width:0.5;stroke-miterlimit:10;}
	.st10{fill:#88888E;}
	.st11{fill:none;stroke:#000000;stroke-miterlimit:10;}
	.st12{fill:#1C1C21;}
</style>
<path class="st0" d="M20.7,22.2c0,0-10.2,27.6-13.4,37.2c-4.4,13.3-5.7,41.4-6.7,55.8c-1.3,17.7-1,52.1,4.7,68.2
	c6.1,17.5,20.9,66.2,50.7,66.1c45.8-0.2,145.7-0.1,145.7-0.1s8.5,1.4,15.8-2.8c11.3-6.5,23.3-39.8,26.7-57
	c3.9-19.5,8.2-71.7,4.2-99.8c-2.6-18.2-2.6-23.1-7.5-35.7c-4.1-10.5-14.1-31.9-14.1-31.9H20.7z"/>
<path class="st1" d="M26.4,22.2c0,0-9.5,26.5-12.5,35.7c-4.1,12.7-5.3,39.8-6.2,53.6c-1.2,17-0.9,50,4.4,65.5
	c5.7,16.7,17.7,46.5,30.5,52.7c36.2,17.6,150,9.1,150,9.1s17.2-2.6,21.2-4.8c10.8-5.8,18-34.5,21.2-51c3.6-18.7,7.7-68.8,3.9-95.8
	c-2.4-17.4-2.5-22.1-7-34.3c-3.8-10-13.1-30.6-13.1-30.6H26.4z"/>
<ellipse class="st0" cx="123.7" cy="22.2" rx="103.1" ry="22.2"/>
<ellipse class="st2" cx="125.4" cy="22.2" rx="87.4" ry="12.1"/>
<path class="st3" d="M12.4,63.8c0,0,11.4-5.5,15.2-4.4c4.5,1.3,10.4,13.3,14.9,14.7c5.6,1.7,17-6.5,22.7-5.4
	c4.9,0.9,16.8,11,17.9,11.3c1.1,0.3,16.6-9.1,22.5-7.8c3.8,0.8,7.1,8.7,10.9,9.5c4.1,0.9,15.9-6.4,20.1-5.8
	c6.1,0.9,18.6,7.1,24.7,8.7c13.2,3.5,27.5-9.8,41-6.4c3.2,0.8,7.3,8.1,10.4,9.3c6.2,2.4,24.9-9.5,24.9-9.5l2.7,36.1
	c0,0-1.2,34.3-2.3,45.7c-0.9,9.1-4,27.2-6,36.1c-1.6,7.2-6.1,21.4-9.8,27.8c-1.6,2.9-5.7,8.4-8.6,10.2c-4.6,2.8-15.8,4.1-21.2,4.8
	c-9.5,1.3-28.8,1.6-38.4,1.8c-10.5,0.2-42.1,0-42.1,0s-31.6-0.8-44.3-2.1c-7.3-0.8-21.6-3.2-27.7-7.2c-3.4-2.3-10.8-15.7-10.8-15.7
	s-9.4-17.9-11.9-24.2c-2.4-6-6.5-18.4-7.8-24.8c-1.2-5.8-2.2-17.5-2.5-23.4c-0.3-7.9,0.2-23.7,0.6-31.6c0.5-9.6,3.2-38.2,3.2-38.2
	L12.4,63.8z"/>
<ellipse class="st4" cx="46.3" cy="102.3" rx="2.2" ry="3"/>
<ellipse class="st4" cx="54.3" cy="97.1" rx="3.9" ry="5.2"/>
<ellipse class="st4" cx="54.3" cy="114" rx="1.7" ry="2.2"/>
<ellipse class="st4" cx="52" cy="107.2" rx="1.5" ry="2"/>
<ellipse class="st4" cx="197.4" cy="156.6" rx="2.2" ry="3"/>
<ellipse class="st4" cx="205.4" cy="168.3" rx="1.7" ry="2.2"/>
<ellipse class="st4" cx="203.1" cy="161.5" rx="1.5" ry="2"/>
<path class="st5" d="M31.3,194.7c0,0,7.6-6.2,10-7.9c3-2.2,8-5.3,10.8-8.1c2.6-2.7,7.8-8.2,10.6-10.4c1.2-0.9,3.5-2.6,4.8-2.9
	c1.9-0.6,5.8-0.6,7.7,0c3,1,11.1,7.4,11.1,7.4l-1.6,1.7l3.2,2.3l-0.9,2.2l4.2-1.6l0.4,4.3l7.9-1.8l-1.2,3.5l4.6,0.3l-2.1,4.8l18-7.2
	l8.2,1.9l11,3.7l17.7,1.3l18-1.1l18-2.7c0,0,10.4-1.4,13.7-2.7c2.6-1,8-3.1,10.2-5.6c0.6-0.7,1.9-2.6,1.8-3.7
	c-0.1-0.9-1.5-1.6-1.8-2.4c-0.2-0.6,0.2-2.1,0-2.7c-0.8-2.7-6.1-7.2-6.1-7.2s-6.5-4.9-8.7-6.1c-4-2.1-12.5-4.7-16.6-6.1
	c-4-1.4-12-4.3-16.1-5.3c-4-1-11.9-2.2-15.9-2.7c-4.2-0.5-12.7-1.2-17-1.3c-2.1-0.1-6.2,0.6-8.2,0c-4.8-1.4-18.2-10.6-18.2-10.6
	l1.7,2.9h-3.1l1.4,1.6l-6.5,0.8l3.6,2.4l-6.5,1.6l2.7,2.1c0,0-5.7,1.2-7.5,1.9c-2.8,1-8.4,3.5-11.1,4.8c-2.1,1-6.3,3.2-8.4,4
	c-2.1,0.7-6.3,1.9-8.4,1.9c-2.1-0.1-10.2-3.4-8.2-2.4c0.4,0.2-13.4-6.6-13.5-6.6l-13.5-6.6l-7.5-3.5l3.4,4.3l-2.1,0.6l6.2,4.7
	l-3.9,0.4l6.6,3.9l-3.5,1.2l6.9,4.9l-3.6,2.5l9.1,4.7l-7.7,5.2l7.8-0.1l-4.9,4.7l4.1-0.1l-2.5,3.9l3-0.2l-3.9,8.8L31.3,194.7z"/>
<ellipse class="st6" cx="204.3" cy="168.1" rx="2.6" ry="4"/>
<ellipse class="st4" cx="205.8" cy="166.6" rx="0.8" ry="1.2"/>
<polygon class="st7" points="217.5,172.7 213.6,175.2 206.8,177.6 202.5,179.9 203.1,176.3 206.8,172.1 212.1,169.6 215.2,166.6 
	215.7,167.6 215.7,170.3 "/>
<polygon class="st8" points="215.7,170.3 213.2,172.1 209.5,173.9 205,178 210.3,176.3 213.6,175.2 217.5,172.7 "/>
<polygon class="st9" points="175.3,167.8 170.1,166 160.5,164.8 153.9,164.8 147.4,166.6 145.6,167.8 147.9,168.1 147,170.3 
	150.8,170.3 149.7,171.3 153.2,172.1 152.6,173.2 156.4,174.1 155.5,175.7 161.3,174.7 160.5,176.9 166.8,174.1 171.9,173.2 "/>
<polygon class="st10" points="103,140.3 87.8,144.4 80.1,147.9 74,150.6 66.3,152.5 51.7,147.4 63.1,157.9 76,155.1 105.9,152.5 
	130.5,149.8 159,149.8 183.7,152.5 206.2,157.9 200.4,154.1 179.7,146.6 168.1,142.9 155.2,140.6 139.4,139.1 133.7,138.9 
	125.5,139.5 111.8,131.4 111.9,132.5 110.1,132.4 110.7,133.7 105.8,134.2 108.3,136.2 102,138 104.4,140.2 "/>
<path class="st11" d="M191.2,184.7c0,0-1.4-5.8-1.6-7.8c-0.2-2.3-0.2-6.9,0-9.2c0.3-2.5,1.2-7.6,2.1-9.8c0.7-1.8,3.6-6,3.6-6"/>
<polygon class="st12" points="103.8,140.1 126.3,139.5 110.6,130.4 111.4,131.7 108.8,131.8 109.9,133.3 104.3,134.1 107.4,136.2 
	100.6,137.8 "/>
<polygon class="st12" points="85.5,174.5 86.9,172.8 118.9,180.7 101.7,187.5 103.6,183.3 99.1,182.9 100.3,179.4 92.1,181.3 
	91.5,176.7 88,178.2 88.2,176.5 "/>
<line class="st9" x1="102.1" y1="139.7" x2="126.3" y2="139.2"/>
<line class="st9" x1="86.3" y1="172.7" x2="118.9" y2="181.1"/>
<path class="st12" d="M51.5,178.2c-4,4.7-17.8,13.8-17.8,13.8l6.6-11.8l3.2-6.6l0.4-0.9l-2.9,0.2l2.5-3.6l-3.5-0.1l4.8-4.6l-7.1-0.1
	l6.5-4.5l-8.8-4.7l3.3-2.4l-6.4-4.6l3.4-1.3l-5.7-3.6l3.4-0.3l-6.6-5l1.6-0.5l-2.1-2.7l17.1,8.3l8.3,4.1l11.4,10.6
	C63.1,157.9,55,174.1,51.5,178.2z"/>
<ellipse class="st4" cx="140.8" cy="217.2" rx="2.2" ry="3"/>
<ellipse class="st4" cx="148.8" cy="212" rx="3.9" ry="5.2"/>
<ellipse class="st4" cx="148.8" cy="228.9" rx="1.7" ry="2.2"/>
<ellipse class="st4" cx="146.5" cy="222.1" rx="1.5" ry="2"/>
<ellipse class="st4" cx="202.2" cy="115.9" rx="2.2" ry="3"/>
<ellipse class="st4" cx="210.2" cy="110.7" rx="3.9" ry="5.2"/>
<ellipse class="st4" cx="210.2" cy="127.7" rx="1.7" ry="2.2"/>
<ellipse class="st4" cx="207.9" cy="120.8" rx="1.5" ry="2"/>
</svg>
