<?xml version="1.0" encoding="utf-8"?>
<!-- Generator: Adobe Illustrator 22.0.0, SVG Export Plug-In . SVG Version: 6.00 Build 0)  -->
<svg version="1.1" id="Layer_1" xmlns="http://www.w3.org/2000/svg" xmlns:xlink="http://www.w3.org/1999/xlink" x="0px" y="0px"
	 viewBox="0 0 350 350" style="enable-background:new 0 0 350 350;" xml:space="preserve">
<style type="text/css">
	.st0{fill:#808080;stroke:#000000;stroke-miterlimit:10;}
	.st1{stroke:#000000;stroke-width:3;stroke-miterlimit:10;}
	.st2{fill:#FFFFFF;}
	.st3{fill:#DD8080;}
	.st4{fill:#404040;}
	.st5{fill:#A39898;}
	.st6{fill:#404040;stroke:#000000;stroke-miterlimit:10;}
	.st7{fill:#404040;stroke:#000000;stroke-width:0.25;stroke-miterlimit:10;}
</style>
<path class="st0" d="M116.4,206.8c0,0,13.1-11.2,17.7-13.4c4.2-2,12.5-6,16.5-8.3c2.2-1.3,6.2-4.9,8.6-5.6c1.1-0.3,3.4-0.2,4.5,0.1
	c8,2.7,28.5,20,28.5,20l13.6,6.6l-15.4,0.4l6.9,5.1l-14.4,1.7l8,5.4c0,0-5.2,0.8-7.4,0.8c-1.9,0-8.7-1.1-8.7-1.1l8.7,9.3l-10.7-0.6
	l-8.3,1l16.3,12.4l-6,2.8l-13.2-0.4c0,0,7.7,5.9,10.5,7.3c4,2,12.7,4.4,17,4.9c4.9,0.6,14.7,0,19.5-0.9c5.8-1.1,17-5.3,22.4-7.9
	c7-3.3,20.5-11.5,26.9-16.2c4-3,12.1-9.2,15.2-13.3c1.8-2.3,3.3-8.5,5.2-10.7c3-3.4,10.6-9.7,14.9-9.6c0.7,0,2,0.7,2.3,1.3
	c1.8,2.9,1.3,10.5,1.2,14c-0.1,3.6,0.6,10.9,0,14.4c-0.9,4.8-4.3,14.1-6.7,18.2c-3.1,5.1-10.9,14.1-15.6,17.4
	c-5.2,3.8-17.3,8.2-23.4,9.9c-6.2,1.7-19,2.7-25.4,3c-7.8,0.5-23.3,0.1-31.1,0c-7.8-0.1-23.4-0.7-31.1,0c-7.4,0.6-22.1,3.5-29.4,5.1
	c-6.9,1.5-20.5,5.1-27.2,7.4c-7.5,2.5-22.3,8.3-29.5,11.9c-5.2,2.6-15.4,8.3-20.1,11.8c-6.8,5.2-19,17.8-25.2,24
	c-2,2-6.1,6.1-7.9,8.5c-0.8,1.1-3.2,3.4-2.6,4.6c1.8,3.6,11.3,1.2,14.8,0c5.8-2,14.7-12.4,20.1-15.7c6.1-3.7,19.1-9.5,25.7-11.8
	c6.8-2.4,20.9-5.7,28-7c6.9-1.4,21-3.2,28-3.9c5.9-0.6,17.6-1.4,23.5-1.4c9.4-0.1,28.3,1.5,37.7,1.7c8.4,0.1,25.2,0.3,33.5-0.4
	c10.8-0.9,32.3-3.5,42.7-6.7c9.1-2.7,27.2-9.9,34.8-16c6.2-5,16.9-17.7,21.2-24.8c4.7-7.8,11.5-25.3,13.9-34.3
	c2-7.6,4.3-23.5,3.8-31.4c-0.4-7-3.9-20.6-6.5-27c-1.5-3.7-6.3-10.1-7.9-13.8c-1.3-2.9-3.8-12.4-3.8-12.4l6.1,1.4l-3.7-10.4
	l11.3,4.1l-16.8-17.9l14.8,3.9l-10.4-12.2l9.1,1.3l-14-14l11.9,3.7c0,0-23.3-27.9-30.6-36.7c-6.1-7.4-18.6-21.9-25.5-28.5
	c-4.7-4.5-14.6-12.8-19.9-16.4c-6.7-4.6-20.7-12.8-28.1-15.7c-5.7-2.2-17.5-5.1-23.4-5.7c-5.3-0.5-16.1,0.2-21.4,0.8
	c-6.3,0.7-18.8,3.2-24.9,4.9c-7,2-20.6,7.5-27.4,10.3c-5.5,2.3-16.4,7.4-21.9,9.8c-5.6,2.5-17,6.8-22.4,9.8
	C86.5,40.4,70.2,51.1,63,57.7c-4.1,3.7-11.9,12-15.1,16.7c-4.5,6.7-11.6,21.6-14.5,29.3c-1.7,4.6-3.2,14.5-4.8,19.1
	c-1,2.8-3.7,8-5.1,10.4c-1.9,3.2-7,8.8-8.7,12.1c-2,3.9-4.2,12.6-5.9,16.7c-1.2,3-3.7,9.2-5.4,11.9c-0.6,1-2.4,2.5-2.8,3.6
	c-0.5,1.2-0.8,4.2-0.3,5.4c0.5,1.1,2.8,2.6,3.9,2.7c1.9,0.2,7.2-3.1,7.2-3.1l19.1-11.2c0,0,18.5-14.8,25.7-16.6
	c2.8-0.7,8.8,0.4,11.6,1c4.4,1,12.7,5.2,17.1,6.6c7.9,2.7,32.1,9.2,32.1,9.2s-5.7,3.6-7.4,5.2c-3.2,3-7.3,12-11.2,13.8
	c-4.2,2-23.4,6.3-23.4,6.3l15.8,5L75,214l17.8-3.7L82.9,224l16.3-7.2l-4,7.2l8.4-5l-1,9.4L116.4,206.8z"/>
<ellipse class="st1" cx="22.9" cy="149.3" rx="3.6" ry="3.9"/>
<ellipse class="st2" cx="24.1" cy="146.7" rx="1.2" ry="1.3"/>
<path class="st3" d="M10.2,182.5l-3.5-4.1L3.4,175c0,0-2.1,1.8-2.5,2.9c-0.4,1-0.5,4.1,0,5.1c0.5,0.8,2.9,2.1,3.7,2.1
	C6.2,185.1,10.2,182.5,10.2,182.5z"/>
<polygon points="4.1,178.7 1.9,180.7 4.9,179.3 "/>
<polygon points="6.7,181.6 4.5,183.7 7.5,182.2 "/>
<path class="st4" d="M346.5,186c0,0-10.3,28.6-14.9,37.4c-7.5,14.3-23.2,43.7-35.2,53.2c-13,10.3-45.1,18.7-60.9,20.7
	c-15,1.9-45.4,1.5-60.5,2.6c-13.3,1-40,2.8-53.1,5.5c-9.6,2-37.5,12.2-37.5,12.2s38.5-7.3,51.5-8.7c7.2-0.8,21.9-2.3,29.3-2.4
	c9.4,0,38.4,1.7,38.4,1.7l34.7-0.1l35.7-6l8-2.8l19.3-7.9l8.4-5.3c0,0,16.6-16.7,20.7-23.3c3.1-5.1,10.1-21.9,10.1-21.9l5.1-16.1
	l2.8-20.2l0.2-8.2L346.5,186z"/>
<path class="st5" d="M118.7,170.9l43,7.8l-18,9.3l-11,5.3l-16.6,13L103.5,226l0.8-8.1l-7.2,4.2l3.3-6.5l-15.6,6.9l9.3-13l-16.3,3.4
	l14.4-11.2L77.8,197c0,0,15.5-2.9,21.9-6.2c1.9-1,4.3-7.2,10.3-13.4C111.8,175.5,118.7,170.9,118.7,170.9z"/>
<polygon class="st5" points="207.6,206.6 227.8,203.6 259.7,200.6 286.6,195.9 278.7,206.1 274,216.1 266.5,223.1 249.7,235.1 
	232.8,244.7 213.1,251.9 192.2,254.4 178.6,251.9 171.4,248.4 164.4,243.7 175,244.1 179.2,242.7 182.7,240.3 166.7,228.6 
	173,228.2 184.2,228.6 185.5,228.6 177.6,219.7 188.8,220.3 193.4,219 185.7,213.8 199.9,212.7 193,207.3 "/>
<line class="st6" x1="114.7" y1="170.9" x2="161.6" y2="178.7"/>
<polyline class="st6" points="293.6,196.5 283.1,196.5 207.6,206.6 "/>
<path class="st7" d="M75.2,69c0,0,29.9-4.1,39.8-3.7c12.9,0.5,38.4,5.7,51,8.9c27.6,6.9,108.7,35.9,108.7,35.9s-57-46.7-79.2-54.7
	c-16.2-5.8-50.9-7.5-67.7-5.2C114.2,52,75.2,69,75.2,69z"/>
<path class="st7" d="M311.8,123.1c0,0-29.2,8.1-39.2,9.1c-12.9,1.2-38.8-0.4-51.6-1.9c-28.2-3.1-111.8-20.8-111.8-20.8
	s61.7,38.6,84.5,43.5c16.7,3.6,51.3,0.5,67.8-4.1C275,145.3,311.8,123.1,311.8,123.1z"/>
</svg>
