<?xml version="1.0" encoding="utf-8"?>
<!-- Generator: Adobe Illustrator 22.0.0, SVG Export Plug-In . SVG Version: 6.00 Build 0)  -->
<svg version="1.1" id="Layer_1" xmlns="http://www.w3.org/2000/svg" xmlns:xlink="http://www.w3.org/1999/xlink" x="0px" y="0px"
	 viewBox="0 0 500 500" style="enable-background:new 0 0 500 500;" xml:space="preserve">
<path d="M199.4,306.9c-0.6-6.1-1.3-12.1,0.8-18c2.6-7.6,8.4-8,14.5-3c24,19.6,46.2,41.7,74.7,55.3c1.2,0.6,2.2,2.4,3.9,0.6
	c2.2-2.5-0.9-2.9-1.7-3.7c-14.3-13-27.6-27-39-42.4c-22.5-30.5-40.3-63.6-47-101.4c-2.7-15.4,0.8-31.4-2.9-46.9
	c-0.5-2,0.3-4.6,1-6.6c1.4-3.8,4.4-6.1,8.5-6.6c4.1-0.5,5.1,2.8,6.2,5.4c5.7,13.5,12.3,26.6,19.9,39.1
	c10.9,17.9,27.5,30.1,43.8,42.5c22.1,16.8,47.2,27.7,72.7,38.2c12.7,5.2,25.2,10.9,37.8,16.3c1.6-8.5,2.4-17.3,2.4-26.3
	c0-80-64.9-144.9-144.9-144.9s-144.9,64.9-144.9,144.9s64.9,144.9,144.9,144.9c1.4,0,2.7,0,4.1-0.1c-2.3-2-4.6-4.1-6.9-6.2
	C224.3,366.3,202.7,341.5,199.4,306.9z"/>
</svg>
