<?xml version="1.0" encoding="utf-8"?>
<!-- Generator: Adobe Illustrator 22.0.0, SVG Export Plug-In . SVG Version: 6.00 Build 0)  -->
<svg version="1.1" id="Layer_1" xmlns="http://www.w3.org/2000/svg" xmlns:xlink="http://www.w3.org/1999/xlink" x="0px" y="0px"
	 viewBox="0 0 500 500" style="enable-background:new 0 0 500 500;" xml:space="preserve">
<path d="M283.8,231.1"/>
<path d="M228.9,286"/>
<path d="M195.9,238.8c13.3,2.7,26.6,5,39.9,7.4c18.7,3.4,32.4,14.9,42.4,29.8c15.4,23.1,31.4,45.8,44.3,70.6c1.1,2.1,2.3,4,3.6,6
	c35.1-24.3,58.1-64.8,58.1-110.8c0-74.3-60.3-134.6-134.6-134.6c-68.7,0-125.4,51.5-133.6,118c3.8,1.1,7.7,2.1,11.7,2.8
	C150.3,232.1,173.3,234.3,195.9,238.8z"/>
</svg>
