<?xml version="1.0" encoding="utf-8"?>
<!-- Generator: Adobe Illustrator 22.0.0, SVG Export Plug-In . SVG Version: 6.00 Build 0)  -->
<svg version="1.1" id="Layer_1" xmlns="http://www.w3.org/2000/svg" xmlns:xlink="http://www.w3.org/1999/xlink" x="0px" y="0px"
	 viewBox="0 0 500 500" style="enable-background:new 0 0 500 500;" xml:space="preserve">
<path d="M355.7,313c5.4-2.5,11-4.7,16.5-7c-15.4-3.1-30.6-3.8-45.2-8.5c-9.3-3-17.3-8.1-25.4-13.3c-6.5-4.2-2.9-11.8-6.3-17
	c-0.7-1.1,3.4-3,5.9-3.8c11.6-3.5,23.6-5.9,34.2-12.3c4.9-3,9.8-5.9,14.4-9.6c-16.5,1.1-32.8,1-49-0.7c-24.2-2.6-48.4-6-70.3-17
	c-22-11.1-39.4-28-52.7-48.9c-2.9-4.5-4.6-9.5-5.7-14.8c-1.7-8.4,2.8-14.9,11.4-15.4c4.9-0.3,9.8,0.1,14.2,2
	c17.4,7.3,35.9,8.5,54.3,10.5c0.7,0.1,1.5-0.1,2.2-0.2c1-3.3-1.9-3.2-3.4-3.9c-10.1-4.6-20.6-8.5-30.4-13.6
	c-10.4-5.3-20.5-11.2-30.3-17.5c-37.6,24.9-62.5,67.6-62.5,116.1c0,76.9,62.3,139.2,139.2,139.2c33.8,0,64.9-12.1,89-32.2
	c-2.9-4.4-5.3-9.1-7.6-14C344.5,323,347.6,316.8,355.7,313z"/>
</svg>
