<?xml version="1.0" encoding="utf-8"?>
<!-- Generator: Adobe Illustrator 22.0.0, SVG Export Plug-In . SVG Version: 6.00 Build 0)  -->
<svg version="1.1" id="Layer_1" xmlns="http://www.w3.org/2000/svg" xmlns:xlink="http://www.w3.org/1999/xlink" x="0px" y="0px"
	 viewBox="0 0 500 500" style="enable-background:new 0 0 500 500;" xml:space="preserve">
<path d="M250.1,270.9c-12.7,3.7-23.2-1.4-32.6-16.1c-3-4.7-5.9-5.8-11.1-5.1c-12,1.8-24.8,0.1-33.5-6.9c-12.8-10.4-31.6-9.6-41.6-24
	c-0.8-1.1-3.2-1.3-4.9-1.7c-9-1.9-16.2-7-22.5-13.4c-6.6-6.7-4.5-15.7,4.2-19.6c13.6-6,28.1-8.3,42.5-10.9
	c26.1-4.8,52-11.1,78.1-15.8c25.7-4.7,51.1-10,75.1-20c12.4-5.2,25-11.1,33.9-22c1.2-1.4,2.1-2.8,2.7-4.2
	c-25.9-16.9-56.9-26.8-90.2-26.8c-91.4,0-165.4,74.1-165.4,165.4S159,415.2,250.3,415.2s165.4-74.1,165.4-165.4
	c0-8.3-0.6-16.4-1.8-24.3c-26.7,15.8-56.7,21.3-86.2,29.2C302.2,261.6,275.6,263.5,250.1,270.9z"/>
</svg>
