<?xml version="1.0" encoding="utf-8"?>
<!-- Generator: Adobe Illustrator 22.0.0, SVG Export Plug-In . SVG Version: 6.00 Build 0)  -->
<svg version="1.1" id="Layer_1" xmlns="http://www.w3.org/2000/svg" xmlns:xlink="http://www.w3.org/1999/xlink" x="0px" y="0px"
	 viewBox="0 0 500 500" style="enable-background:new 0 0 500 500;" xml:space="preserve">
<path d="M254.4,216c5.3,7.9,12.1,9.4,19.6,11.5c1.7,0.5,3.5,0.4,5.2,0.9c19.1,5,27.7,16.4,27.9,36.7c0,6.1-3.7,8.2-9.2,8.7
	c-18.1,1.7-36.1,3.5-53.4,9.7c-12.9,4.6-23.6,12.3-34.4,20.2c-8,5.8-14.5,13-21,20.3c11.6,6,24.7,9.4,38.7,9.4
	c46.5,0,84.2-37.7,84.2-84.2s-37.7-84.2-84.2-84.2c-14,0-27.2,3.4-38.8,9.5c6.7,1.6,11.7,2.5,16.6,3.9
	C227,184.3,242.6,198.3,254.4,216z"/>
</svg>
