<?xml version="1.0" encoding="utf-8"?>
<!-- Generator: Adobe Illustrator 22.0.0, SVG Export Plug-In . SVG Version: 6.00 Build 0)  -->
<svg version="1.1" id="Layer_1" xmlns="http://www.w3.org/2000/svg" xmlns:xlink="http://www.w3.org/1999/xlink" x="0px" y="0px"
	 viewBox="0 0 500 500" style="enable-background:new 0 0 500 500;" xml:space="preserve">
<path d="M283.8,231.1"/>
<path d="M228.9,286"/>
<g>
	<path d="M165,287.2c-7-0.7-13-1.2-18.8-3.2c-3.3-1.2-6.2-3-9-5c-2.5-1.8-1.8-4.8-2.6-7.1c-0.3-1,1.5-1.4,2.5-1.8
		c4.4-1.4,9-2.3,13.1-4.7c1.5-0.9,2.9-1.8,4.7-2.8c-1.3-0.8-2.4-0.5-3.4-0.4c-13.1,0.5-26-0.9-38.3-5.3
		c-11.6-4.1-20.1-12.2-26.3-22.8c-0.8-1.4-1.2-3-1.6-4.5c-1-3.7,1.2-6.7,5-6.9c2-0.1,4.2-0.1,6,0.9c4.9,2.7,10.5,1.8,15.5,3.5
		c1.4,0.4,3,0.5,4.9,0c-1.4-1.3-3-1.7-4.4-2.2c-11.5-4.3-20.7-12.2-30.7-18.8c-8.1-5.4-13.6-13.2-19.4-20.7
		c-4.6-5.9-5.6-13.3-6.7-20.6c-0.2-1.5,0.2-3,0.9-4.4c1.4-3,3.9-3.2,6.4-1.1c9.2,8,18.2,16.4,29.3,21.9c0.3,0.2,0.7,0.3,1.1,0.3
		c-4.6-4.6-9-9.3-13.2-14.2c-10.4-12.1-17.1-26.2-21.3-41.5c-1.1-4-1-8.2-0.9-12.4c0-2.6,0.1-5.3-0.5-7.9c-0.3-1.3,0-2.6,0.3-3.9
		c0.5-1.8,1.8-2.6,3.5-2.9c1.9-0.3,2.4,1.1,3,2.4c2.3,5.2,4.7,10.3,7.7,15.2c4.4,7.3,11.1,12.2,17.7,17.3c9,6.9,19.5,10.9,29.7,15.6
		c15.6,7.2,31.9,12.3,47.9,18.3c8.4,3.1,17.3,3.3,25.9,4.9c5.6,1,11.1,2.1,16.7,3.3c1.6,0.3,3.2,0.2,4.8,0.4
		c12,1.7,19.1,9.5,25.1,19.1c5.5,8.8,10.4,18.1,16.5,26.5c9.7,13.4,19.1,27.2,32.1,37.8c4.2,3.5,8.5,6.9,12.8,10.3
		c2.6,2,4.8,1.7,7.1-0.8c2.2-2.5,4.4-5.1,7.5-6.5c8.6-3.8,14.6-10.3,19.5-18c5.5-8.6,11.4-17,19.2-23.8c1.1-0.9,1.3-2.2,1.6-3.5
		c2-8.5,4.9-16.7,9.6-24.1c1.6-2.4,3.3-4.6,5.7-6.3c1.8-1.3,2.5-2.8,1.5-5.2c-1.6-4.2-1.2-8.6-0.2-12.9c0.8-3.3,1.8-4.1,5.1-3.3
		c3.9,1,7.9,1.9,11.6,3.5c0.7,0.3,1.4,1.2,2.2,0.4c0.6-0.7,0-1.6-0.2-2.3c-0.8-2.3-1.5-4.7-2.7-6.8c-1.7-3-1.3-6.5-2.6-9.6
		c-0.4-1.1,0.8-1.2,1.5-1.3c3.1-0.5,5.8,0.5,8.4,2c1,0.6,2,1.3,3.6,2.2c-0.9-2.7-1.8-4.9-2.4-7.1c-0.7-2.7-1.2-5.8,1.6-7.4
		c2.7-1.7,5,0.5,7,2.1c2.8,2.3,4.9,5.4,7.5,8.5c0.5-2.4-0.4-4.2-0.7-6.1c-0.6-3-1.4-5.9-1.3-9c0.1-3.2,2-4.2,4.6-2.5
		c1.9,1.3,3.6,3,5.5,4.3c1.9,1.4,3.6,3,5.3,5.5c-0.3-3.5-0.7-6.3-0.9-9.1c-0.2-2.7,0.1-5.3,3.5-6.2c3.2-0.8,4.3,1.6,5.6,3.6
		c4.9,7.4,7.6,15.7,9.5,24.2c3.6,15.7,4.3,31.7,2.8,47.6c-1.7,17.9-9.8,33.4-22.7,45.7c-8.2,7.8-16.9,15.1-26.8,20.8
		c-0.7,0.4-1.3,0.9-1.9,1.3c0,0.7,0.4,0.9,0.8,1c8.4,1.5,15.3,5.5,20.7,12.2c1.4,1.7,2.9,3.4,4.1,5.3c1.1,1.7,2.9,2.1,4.6,2.6
		c1.9,0.6,4,0.8,5.9,1.4c6.2,1.9,10.4,8.5,9.4,15c-0.4,2.7-2.4,3.3-4.7,3.4c-6.9,0.3-13.6,1.4-20.2,3.7c-7.4,2.5-13.7,6.9-18.7,12.5
		c-9.1,10-18.4,19.6-30,26.7c-8.4,5.2-16,11.7-24.9,16.3c-3.9,2-8,3.5-12.1,4.8c-5.6,1.8-11.2,3.4-16.6,5.6c-6.6,2.7-14,3.1-21,4.5
		c-8,1.6-16.1,1.7-24.2,1.9c-6.5,0.2-12.9,0.7-19.4,1.1c-5.8,0.3-11.5-1.1-17.1-2c-2.7-0.4-4.9,0.1-7.2,1.4
		c-9.7,5.5-20.5,8.1-31.3,10.4c-5.2,1.1-10.3,3-15.6,3.6c-6.1,0.8-12.2,1.9-18.1,3.5c-5.8,1.6-9.2-2.3-12.1-6.2
		c-1.5-2-2.8-2.4-5.2-2.3c-5.7,0.1-11.3-0.8-15.7-5c-0.5-0.5-1.2-0.8-1.9-0.9c-4.3-1.1-8.3-2.7-11.3-6.1c-0.7-0.8-1.7-1-2.7-1.2
		c-3.4-0.9-6.3-2.7-8.7-5.3c-2.7-3-2-6.7,1.6-8.4c3.7-1.7,7.7-2.6,11.6-3.4c15.6-3.1,31.2-5.9,46.7-9.3c10-2.2,19.9-4.7,28.6-10.6
		c1.2-0.8,2.3-1.6,3.4-2.6c3.2-3,3.4-4.3,1.1-8c-2.2-3.7-3.5-7.7-4.3-12c-0.3-2-1.2-3.1-3.1-3.6c-7-2.2-13.5-5.6-20.2-8.4
		c-6.2-2.5-9.7-7.5-12.3-13.2c-1.7-3.7-0.4-6.4,3.2-8.2C160.6,289,162.4,288.3,165,287.2z"/>
</g>
</svg>
