<?xml version="1.0" encoding="utf-8"?>
<!-- Generator: Adobe Illustrator 22.0.0, SVG Export Plug-In . SVG Version: 6.00 Build 0)  -->
<svg version="1.1" id="Layer_1" xmlns="http://www.w3.org/2000/svg" xmlns:xlink="http://www.w3.org/1999/xlink" x="0px" y="0px"
	 viewBox="0 0 1920 1080" style="enable-background:new 0 0 1920 1080;" xml:space="preserve">
<style type="text/css">
	.st0{fill:#8A725F;stroke:#000000;stroke-width:2;stroke-miterlimit:10;}
	.st1{fill:#2C3B3F;stroke:#000000;stroke-width:3;stroke-miterlimit:10;}
	.st2{fill:#512D17;stroke:#000000;stroke-width:3;stroke-miterlimit:10;}
	.st3{fill:#693D1A;stroke:#000000;stroke-width:3;stroke-miterlimit:10;}
	.st4{fill:#876448;stroke:#000000;stroke-width:3;stroke-miterlimit:10;}
	.st5{fill:#140B06;stroke:#000000;stroke-width:3;stroke-miterlimit:10;}
	.st6{fill:none;stroke:#000000;stroke-width:3;stroke-miterlimit:10;}
	.st7{fill:#29170C;stroke:#000000;stroke-width:3;stroke-miterlimit:10;}
	.st8{fill:#3F1C02;stroke:#000000;stroke-width:2;stroke-miterlimit:10;}
	.st9{fill:#4D290B;}
	.st10{stroke:#000000;stroke-width:3;stroke-miterlimit:10;}
	.st11{fill:none;stroke:#000000;stroke-width:2;stroke-miterlimit:10;}
	.st12{fill:#160B02;stroke:#000000;stroke-width:0.25;stroke-miterlimit:10;}
	.st13{fill:#080401;stroke:#000000;stroke-width:0.25;stroke-miterlimit:10;}
	.st14{fill:#1E0F02;stroke:#000000;stroke-width:0.25;stroke-miterlimit:10;}
	.st15{fill:#140B06;stroke:#000000;stroke-width:4;stroke-miterlimit:10;}
	.st16{fill:#512D17;}
	.st17{fill:#29170C;stroke:#000000;stroke-width:2;stroke-miterlimit:10;}
	.st18{fill:#DCD5D1;stroke:#000000;stroke-width:3;stroke-miterlimit:10;}
	.st19{fill:#617277;stroke:#000000;stroke-width:3;stroke-miterlimit:10;}
	.st20{fill:#140B06;stroke:#000000;stroke-width:2;stroke-miterlimit:10;}
	.st21{fill:#81989E;stroke:#000000;stroke-width:3;stroke-miterlimit:10;}
	.st22{fill:#512D17;stroke:#000000;stroke-width:4;stroke-miterlimit:10;}
	.st23{fill:#3D2211;stroke:#000000;stroke-width:3;stroke-miterlimit:10;}
	.st24{fill:#57757E;stroke:#000000;stroke-width:3;stroke-miterlimit:10;}
	.st25{fill:#3D2211;stroke:#000000;stroke-width:4;stroke-miterlimit:10;}
	.st26{fill:none;stroke:#000000;stroke-width:4;stroke-miterlimit:10;}
	.st27{fill:#080401;stroke:#000000;stroke-width:2;stroke-miterlimit:10;}
	.st28{fill:#160B02;stroke:#000000;stroke-width:2;stroke-miterlimit:10;}
	.st29{fill:#3D2211;stroke:#000000;stroke-width:2;stroke-miterlimit:10;}
	.st30{fill:#1E0F02;stroke:#000000;stroke-width:2;stroke-miterlimit:10;}
	.st31{fill:none;}
	.st32{fill:#693D1A;stroke:#000000;stroke-miterlimit:10;}
	.st33{fill:#57757E;stroke:#000000;stroke-width:0.5;stroke-miterlimit:10;}
	.st34{display:none;fill:#693D1A;stroke:#000000;stroke-width:3;stroke-miterlimit:10;}
	.st35{fill:#545C56;stroke:#000000;stroke-width:3;stroke-miterlimit:10;}
	.st36{opacity:0.67;fill:#DCD5D1;}
</style>
<g id="Layer_2_1_">
	<polygon class="st0" points="1580.8,586.1 1521.6,9.1 1593.9,0.7 1652.3,577.8 	"/>
	<polygon class="st1" points="1492.6,582.6 1492.6,0.5 1918.7,0.5 1918.7,582.6 	"/>
	<polygon class="st2" points="1725.8,0.5 1847.6,3.3 1846.1,579.4 1728.1,577.1 	"/>
	<polygon class="st3" points="1807.3,0.7 1918.7,0.5 1919,577.4 1805.8,578.4 	"/>
	<polygon class="st1" points="0,581 0,-1.2 390.8,-1.2 390.8,581 	"/>
	<path class="st4" d="M389.3,581H-1.5v99.3c1.1,3.6-0.3,7.2,1.5,10.7c-1.8-3.6-0.4-7.2-1.5-10.7v116.5C-0.6,761.2,2.7,725.9-1,690
		c3.7,35.9,0.4,71.2-0.5,106.8v28c0.1,3.7,0.3,7.5,0.5,11.2c2,20,3,40,3,59c1,61.1,0,123.2-1,184.4h388.3V581z"/>
	<path class="st4" d="M2,895c0-19-1-39-3-59c-0.2-3.8-0.4-7.5-0.5-11.2v254.6H1C2,1018.2,3,956.1,2,895z"/>
	<polygon class="st4" points="1590.1,1080 1590.1,580 1920,580 1920,1080 	"/>
	<polygon class="st5" points="1625.2,676.7 1631.2,682.4 1639.9,698.6 1647,712.8 1655.5,731 1663.5,749.1 1671.1,770.2 
		1675.4,785.5 1676.9,799.3 1671,790.7 1661.1,772.5 1653,752 1646.3,733.6 1634.4,703.4 	"/>
	<path class="st6" d="M1523.9,722.3l-16.4,9.8c0,0-5.2,14.2-5.5,19.1c-0.6,8.7,3,25.8,5.5,34c2.7,9,10.2,26.4,15.6,34.1
		c4.1,5.9,14,16.8,20.5,20.3c2.8,1.5,12.7,3,12.7,3l51-14.3l62-16.6l14.4-4.2c0,0-8.8-10.7-11.3-14.5c-3.5-5.4-9.6-16.8-12.3-22.7
		c-4-8.8-13.4-36.2-13.4-36.2s-9.3-23-12.2-30.8c-2.9-7.9-11-31.8-11-31.8l-1.3-5.7l-70.4,40.7L1523.9,722.3z"/>
	<path class="st6" d="M1622.1,665.9c0,0,7.7,8.6,9.9,11.8c3.3,4.7,8.8,14.7,11.5,19.8c2.4,4.5,6.8,13.8,8.9,18.4
		c2.9,6.2,8.5,18.6,11.2,24.9c2.2,5.2,6.4,15.7,8.3,21c2,5.4,6,16.4,7.4,22c1.5,5.9,4.2,23.8,4.2,23.8s-8.2-9.8-10.6-13.4
		c-3.8-5.7-10.2-17.7-13.1-23.8c-3.8-8.4-9.5-26-12.8-34.7c-2.6-6.7-10.6-26.7-10.6-26.7l-6.1-16.8l-7-20.7L1622.1,665.9z"/>
	<polygon class="st3" points="1625.6,677.8 1503.4,744.2 1507.4,732.1 1622.1,665.9 	"/>
	<polygon class="st2" points="1634.4,703.4 1587,727.8 1503.7,769.7 1501.9,756 1501.9,751.2 1503.4,744.2 1625.6,677.8 	"/>
	<polygon class="st3" points="1647.2,735.7 1510.2,793.3 1506.1,780.4 1503.7,769.7 1634.4,703.4 	"/>
	<polygon class="st2" points="1522.3,818.3 1660,770.4 1647.2,735.7 1510.2,793.3 1515.9,807.7 	"/>
	<polygon class="st3" points="1675.4,797.4 1611.5,816 1540.6,837.8 1530.5,828.5 1522.3,818.3 1660,770.4 1669.2,788 	"/>
	<polygon class="st2" points="1683.6,807.6 1556.2,842.7 1543.5,839.7 1540.6,837.8 1674.6,796.5 	"/>
	<path class="st7" d="M1625.2,676.7c0,0,4.4,3.8,5.6,5.3c1.9,2.5,4.7,8.2,6.1,10.9c2.5,4.8,7.4,14.4,9.8,19.3
		c2,4.2,7.8,16.8,7.8,16.8s8.4,18.5,10.8,24.8c2,5.2,5.5,15.7,7.2,21c1.1,3.4,3,10.3,3.5,13.9c0.4,2.6,0.8,10.7,0.8,10.7l6.7,8.3
		c0,0-2.1-13.5-3-17.9c-0.3-1.7-1-5.2-1.5-6.8c-1.5-5.4-7.2-21.1-7.2-21.1l-14.1-34l-8.6-18.7l-4.5-9.2l-5.2-9.8l-7.5-12.5
		l-9.9-11.8L1625.2,676.7z"/>
	<polygon class="st2" points="393.4,584.5 390.3,0 295.6,-1.9 297.7,579.4 	"/>
	<polygon class="st3" points="0,0 111.7,0 111.7,580 -1.5,581 	"/>
	<path class="st8" d="M1602.1,307.1l53.6-3.1l63.3-1.7h64h51.3l31-2c0,0,0.6-10.5,0-14c-0.4-2.4-2.7-7.1-4.8-8.4
		c-9.4-5.7-44.1-3.2-44.1-3.2l-35.2,1.2l-34.5,1.8l-140.5,7.2l-4.3,1.6v20.6H1602.1z"/>
	<polygon class="st9" points="1637.9,694.7 1632.2,697 1629.4,689.1 1634.5,688.1 	"/>
	<polygon class="st9" points="1648.5,715.8 1640.6,718.9 1644.7,729.6 1653.3,726.2 	"/>
	<polygon class="st9" points="1663.5,749.1 1653.6,753.1 1656.9,762 1666.9,758 	"/>
	<polygon class="st9" points="1673.6,778.2 1665.5,781.4 1668.7,787 1675.2,784.4 	"/>
	<path class="st7" d="M1676.7,796.2c0,0,9.3-2.7,11.9-4.1c2.5-1.3,7.4-5.1,9.4-6.9c2-1.7,4.2-6.6,4.2-8.9c0-3.8-5-7.9-8.5-9.9
		c-2.7-1.5-8-2.5-11.4-2.4c-2.9,0-12.4,1.5-12.4,1.5l0.8,3.9c0,0,7.6-0.4,10-0.2c1.5,0.2,4.5,0.8,5.9,1.3c1.3,0.5,3.8,2,4.9,2.8
		c1,0.7,2.2,2.4,2.4,3.6c0.2,1.2-0.3,3-1,4.1c-1,1.4-3.2,4-4.6,5c-1.4,1.1-4.8,2.8-6.5,3.6c-1.4,0.6-5.6,2.2-5.6,2.2L1676.7,796.2z"
		/>
	<path class="st10" d="M1600,678.7c0,0,1.1,18.7,2.4,24.7c2.1,9.4,9.3,27.2,12.9,36.1c4.1,10.5,13.1,31.3,18,41.5
		c3,6.4,9,19.3,12.9,25.1c1.8,2.6,8.2,9.6,8.2,9.6l-13.1,3.5c0,0-10.4-13.8-13.3-18.7c-5.7-9.7-15.1-30.3-19.4-40.7
		c-3.9-9.3-10.7-28.3-13.7-37.9c-1.9-6-5.6-18.1-6.7-24.3c-0.5-2.9-1-11.7-1-11.7L1600,678.7z"/>
	<polygon class="st11" points="1611.7,298.6 1616.3,298.6 1620.2,302 1626.5,302 1629.3,298.6 1636.8,298.6 1640.5,302 1648.5,302 
		1651,298.6 1660.3,298.6 1663.3,302.7 1671.7,302.7 1673.8,298.6 1683,298.6 1684.5,302.4 1692,302.2 1695.7,297.3 1702.8,297.5 
		1705.7,302 1716.3,301.8 1718.3,296.8 1727.6,297 1729.5,301.6 1739.7,301.4 1742.8,296.5 1750.5,296.3 1753.3,300.7 1762.3,300.7 
		1764.6,296.7 1773.5,296.5 1776.3,300.7 1787.3,300.7 1789,296.5 1802.7,296.5 1806,300.3 1811.5,300.3 1815.2,295.1 1824.8,295.1 
		1828,300.3 1834,300.3 1836.8,295.1 1846,295.1 1849.5,300.3 1856,300.3 1857.8,295.1 1865.3,295.1 1865.8,298.9 1865.3,286.4 
		1859,277.9 1853.7,277.9 1849.5,278.2 1845,282.2 1835.8,281.5 1832.1,279.4 1821.3,276.7 1818.4,281 1807.1,281 1802.7,276.7 
		1792.3,276.7 1788.8,280.5 1776.3,280 1772.3,276.7 1764.7,276.9 1762.3,281.3 1743,281.3 1740,278.2 1725,278.9 1722.7,282.4 
		1705.7,283.5 1702.5,280.1 1689.3,280.8 1683.3,286.4 1671.4,286.4 1665.8,283.9 1651,282.7 1648.5,286.6 1639,286.6 1636.8,283.4 
		1628.8,283.9 1626.5,288.5 1617.5,288 1614,284.6 1606.3,285 1601.5,289.7 1601.5,293.4 	"/>
	<polygon class="st12" points="1616.3,298.6 1620.2,302 1620.2,288.2 1615.2,286.6 	"/>
	<polygon class="st12" points="1626.5,302 1626.5,288.5 1628.8,283.9 1629.3,298.6 	"/>
	<polygon class="st13" points="1629.3,298.6 1636.8,298.6 1636.8,283.4 1628.8,283.9 	"/>
	<polygon class="st12" points="1636.8,298.6 1640.5,302 1640.5,286.6 1639,286.6 1636.8,283.4 	"/>
	<rect x="1640.5" y="286.6" class="st14" width="8" height="15.4"/>
	<polygon class="st12" points="1648.5,302 1651,298.6 1651,282.7 1648.5,286.6 	"/>
	<polygon class="st3" points="1614.4,-1.6 1725.8,0.5 1726.1,578.4 1612.9,579.4 	"/>
	<polygon class="st2" points="1492.6,0.5 1614.4,-1.6 1612.9,579.4 1494.9,577.1 	"/>
	<polygon class="st13" points="1651,298.6 1660.3,298.6 1660.3,282.2 1651,282.7 	"/>
	<polygon class="st12" points="1664.5,300.3 1665.8,283.9 1660.3,282.2 1660.3,298.6 1663.3,302.7 	"/>
	<polygon class="st14" points="1663.3,302.7 1669.5,302.7 1671.4,286.4 1665.8,283.9 	"/>
	<polygon class="st12" points="1671.7,302.7 1673.8,298.6 1673.8,286.6 1671.4,286.4 1669.5,302.7 	"/>
	<polygon class="st13" points="1683,298.6 1673.8,298.6 1673.8,286.6 1683.3,286.4 	"/>
	<polygon class="st14" points="1684.5,302.4 1683,298.6 1683.3,286.4 1689.3,280.8 1692,302.2 	"/>
	<polygon class="st13" points="1695.7,297.3 1695.7,280.4 1702.5,280.1 1702.8,297.5 	"/>
	<polygon class="st14" points="1692,302.2 1695.7,297.3 1695.7,280.4 1689.3,280.8 	"/>
	<polygon class="st2" points="112.1,-1.6 229.9,-1.6 223.8,578.4 110.6,579.4 	"/>
	<polygon class="st3" points="229.9,-1.6 295.6,-1.9 297.7,579.4 223.8,578.4 	"/>
	<polygon class="st12" points="1702.8,297.5 1705.7,302 1705.7,283.5 1702.5,280.1 	"/>
	<polygon class="st14" points="1705.7,302 1716.3,301.8 1716.3,282.7 1705.7,283.5 	"/>
	<polygon class="st12" points="1716.3,301.8 1718.3,296.8 1719,282.2 1716.3,282.7 	"/>
	<polygon class="st13" points="1718.3,296.8 1727.6,297 1727.6,278.8 1725,278.9 1722.7,282.4 1719,282.2 	"/>
	<polygon class="st12" points="1727.6,297 1729.5,301.6 1730.5,278.6 1727.6,278.8 	"/>
	<polygon class="st14" points="1739.7,301.4 1729.5,301.6 1730.5,278.6 1740,278.2 	"/>
	<polygon class="st12" points="1742.8,296.5 1739.7,301.4 1740,278.2 1743,281.3 	"/>
	<polygon class="st13" points="1750.5,296.3 1742.8,296.5 1743,281.3 1750.5,281.3 	"/>
	<polygon class="st12" points="1753.3,300.7 1750.5,296.3 1750.5,281.3 1753.3,281.3 	"/>
	<rect x="1753.3" y="281.3" class="st14" width="9.1" height="19.4"/>
	<polygon class="st12" points="1764.7,276.9 1762.3,281.3 1762.3,300.7 1763.5,298.6 1764.6,296.7 	"/>
	<polygon class="st13" points="1773.5,296.5 1764.6,296.7 1764.7,276.9 1772.3,276.7 	"/>
	<polygon class="st12" points="1776.3,280 1772.3,276.7 1773.5,296.5 1776.3,300.7 	"/>
	<polygon class="st14" points="1786.7,280.4 1776.3,280 1776.3,300.7 1787.3,300.7 	"/>
	<polygon class="st12" points="1788.8,280.5 1786.7,280.4 1787.3,300.7 1789,296.5 	"/>
	<polygon class="st13" points="1788.8,280.5 1792.3,276.7 1802.7,276.7 1802.7,296.5 1789,296.5 	"/>
	<polygon class="st12" points="1807.1,281 1802.7,276.7 1802.7,296.5 1806,300.3 	"/>
	<polygon class="st14" points="1811.5,300.3 1806,300.3 1807.1,281 1813.2,280.8 	"/>
	<polygon class="st12" points="1815.2,295.1 1811.5,300.3 1813.2,280.8 1817.7,276.9 	"/>
	<polygon class="st13" points="1824.8,295.1 1815.2,295.1 1817.7,276.9 1821.3,276.7 1824.8,276.9 	"/>
	<polygon class="st14" points="1827.4,299.4 1827.4,299.4 1834,300.3 1834,278.2 1827.4,278.2 	"/>
	<polygon class="st12" points="1834,300.3 1836.8,295.1 1835.8,281.5 1834,278.2 	"/>
	<polygon class="st13" points="1836.8,295.1 1846,295.1 1845,282.2 1835.8,281.5 	"/>
	<polygon class="st12" points="1846,295.1 1849.5,300.3 1849.5,278.2 1845,282.2 	"/>
	<polygon class="st14" points="1849.5,298.6 1856.6,298.6 1856.6,278.2 1849.5,277.5 	"/>
	<polygon class="st12" points="1856.6,298.6 1859,294.3 1859,282.2 1856.6,278.8 	"/>
	<polygon class="st13" points="1865.8,298.9 1862.8,294.6 1859,294.3 1859,282.2 1862.4,283.9 1865.8,291.6 	"/>
	<polygon class="st14" points="1626.5,302 1620.2,302 1620.2,288.2 1626.5,287.9 	"/>
	<path class="st10" d="M1537.2,714.8c0,0-3.1,9.1-3.5,12.2c-0.4,3.9,0.3,11.8,0.9,15.6c0.7,4.8,3.3,14,4.7,18.6
		c1.7,6,5.5,18.1,7.9,23.9c2,4.9,6.5,14.4,9.1,18.9c2.7,4.6,8.6,13.5,12.2,17.4c2.5,2.8,8.2,8,11.5,10c1.6,0.9,7,2.6,7,2.6l-14.4,4
		c0,0-4.5-2.7-5.8-3.7c-3-2.4-8.6-7.6-11-10.5c-4-4.7-10.6-15.1-13.7-20.4c-2.3-4-6.1-12.2-7.8-16.5c-2.6-6.3-7-19.3-8.7-25.9
		c-1.3-5.3-3.4-16-3.6-21.4c-0.1-4.3,1.9-17.4,1.9-17.4L1537.2,714.8z"/>
	<path class="st7" d="M1635.2,705.7c0,0,5.2-1.9,6.9-2.7c1.6-0.7,5-2.1,6.4-3.3c1.3-1.1,3.4-3.8,4.2-5.2c0.7-1.3,1.6-4,1.9-5.3
		c0.2-0.9,0.8-2.7,0.6-3.6c-0.4-1.2-2.4-3-3.5-3.7c-1.6-1.3-5.4-3.2-7.4-4s-6.2-1.8-8.4-2c-2.7-0.2-10.9,0.7-10.9,0.7l-1.2-5.2
		c0,0,10.9-1.4,14.7-1c3.6,0.4,10.8,2.2,13.8,4c3.1,1.9,8.9,7.1,9.4,10.6c0.4,2.3-1.5,8.8-2.9,10.8c-1.8,2.7-6.7,7.2-9.5,9.1
		c-2.8,1.9-12.6,5.2-12.6,5.2L1635.2,705.7"/>
	<polygon class="st15" points="1771.8,686.9 1779.3,683.5 1797.6,681.3 1813.4,679.9 1833.5,678.8 1853.2,678.1 1875.7,678.7 
		1891.4,680.3 1904.8,684.1 1894.6,686.4 1874,688.9 1852.1,688.9 1832.4,688.3 1800,688.2 	"/>
	<path class="st10" d="M1606.5,888.1c0,0,22.6,15.5,30.9,19c11,4.7,46.7,11.5,46.7,11.5s33.3,5,44.4,5.8c17.6,1.1,53,0.9,70.7,0
		c15.1-0.7,45.4-2.5,60.2-5.8c13.1-2.9,50.8-17.9,50.8-17.9v19.6c0,0-39.9,14.5-53.7,17.3c-20.5,4.1-62.6,6.4-83.5,6.9
		c-19.6,0.5-59.1,0.5-78.6-2.3c-13-1.9-38.5-8.3-50.5-13.2c-10.8-4.4-37-18.1-43.4-27.7c-3.1-4.6,0.4-17.3,0.4-17.3L1606.5,888.1z"
		/>
	<path class="st6" d="M1600.9,884.1c0,0-3.9,22.7-4.4,30.3c-0.6,8.5-3.7,25.1-3.5,33.5c0.3,11.2-0.5,34.3,0,45.6
		c0.5,11.2,2.9,35.6,4.6,46.7c1.8,10.9,15.2,40.6,15.2,40.6h260.6c0,0,17.1-14.8,21-21c8.4-13.3,18.4-43.8,21-59.4
		c1.8-10.1,0.7-30.7,0-40.9c-0.7-9.9-5.3-39.2-5.3-39.2v-19.6l-46.4,16.7l-35,5l-55.4,2.6l-45-0.7l-37.5-4.8l-26.7-5.2l-26.8-7.3
		L1600.9,884.1z"/>
	<path class="st2" d="M1600.9,884.1c0,0,19.6-15.9,27.2-19.6c7.1-3.5,22.7-7.3,30.4-9.3c11-2.7,33.2-6.6,44.4-8
		c11.2-1.6,33.7-3.5,45-4.1c11.8-0.5,35.5-0.9,47.3,0c10.6,0.8,31.7,3.8,42.1,6.3c8.6,2.1,25.8,6.8,33.3,11.5
		c11.9,7.4,39.7,39.8,39.7,39.8s-34.4,13.7-46.4,16.7c-9.2,2.2-28.2,4.2-37.7,5.2c-6.7,0.7-20.2,1.6-26.9,1.7
		c-16.4,0.5-49.1,0-65.5,0c-1.3,0-3.9,0.1-5.3,0c-9.5-0.6-28.3-2.8-37.5-4.8c-4.4-1-18.3-1.6-22.6-2.8c-9-2.2-22.3-6.3-30.9-9.8
		C1627.4,903.1,1600.9,884.1,1600.9,884.1z"/>
	<polygon class="st2" points="1673.8,938.1 1673.8,1080.9 1638.6,1080.9 1634.3,1009.5 1634.3,956.7 1634.3,924.7 	"/>
	<polygon class="st3" points="1722.2,944.1 1719.9,1080.9 1673.8,1080.9 1673.8,938.1 1704.7,943.4 	"/>
	<polygon class="st2" points="1766.6,944.7 1766.6,1080.9 1719.9,1080.9 1722.2,944.1 	"/>
	<polygon class="st3" points="1811.1,942.7 1815,971.7 1820.5,1033.2 1820.3,1080.9 1766.6,1080.9 1766.6,944.7 	"/>
	<path class="st2" d="M1856.5,937.6c0,0,5.3,19.8,6.4,26.5c2.5,14.9,5.5,60.2,5.5,60.2v56.5h-48.2c0,0,0.7-35.8,0.2-47.7
		c-0.5-12.7-4.5-50.7-4.5-50.7s-0.6-8.1-1-10.8c-0.8-7.3-4-29-4-29L1856.5,937.6z"/>
	<polygon class="st3" points="1886.8,928.6 1893.4,967 1899.1,1021.9 1894.5,1059.9 1873.5,1080.9 1868.5,1080.9 1868.5,1024.4 
		1864.3,979.7 1862.9,964.2 1856.5,937.6 	"/>
	<path class="st16" d="M1910.3,920.3l-23.5,8.2c0,0,4.6,32,6,41.6c1.9,13.7,5.1,39.9,5,53.6c-0.1,9.6-3.2,36.1-3.2,36.1
		s9.3-19.4,11.7-26.1c3-8.1,8-24.7,9.3-33.2c1.1-6.8,1.1-20.8,1-27.7c-0.2-7-2.6-28-2.6-28L1910.3,920.3z"/>
	<polygon class="st3" points="1717.3,922.9 1795.2,843.1 1827.2,847.4 1848,852.4 1870.6,861 1893.1,881.8 1910.3,900.8 
		1863.9,917.5 1828.9,922.5 1811.1,923.8 1728.6,924.4 	"/>
	<path class="st6" d="M368.1,786.3c0,0,0.6-74,0-98.7c-0.7-32.4-3.5-97.1-5.8-129.3c-2.2-31.2-8.2-93.5-11.3-124.7
		c-2-19.5-6.5-58.5-8.7-78c-1.3-11.5-5.3-46-5.3-46h-15.4l4.1-47.3c0,0-35.1-2.7-45.3-4.7c-13.9-2.7-41.8-8.3-54.7-14
		c-5.8-2.6-17.8-8.7-21.3-14c-4.8-7.4-5.2-25.9-6-34.7c-0.7-8.3,0-25,0-33.3s-0.7-25,0-33.3c0.5-6.1,0.7-18.9,4-24
		c4.4-6.7,19.4-14,26.7-17.3c6.6-3,20.8-6.7,28-8c11.2-2.1,34-3.5,45.3-4c10.3-0.5,41.3,0,41.3,0l66.7,4l59.3,4.7
		c0,0,41,5.8,50,15.3c5.9,6.2,8,33.3,8,33.3V173L511,197.7l-24.7,18l-41.3,6.7l-29.3,24l-13.3,61.3l-12,1.3l-0.7,152.7l-3.3,324.7
		c0,0-7.6,6.2-10.7,6C373.3,792.1,368.1,786.3,368.1,786.3z"/>
	<rect x="46.5" y="71.6" class="st17" width="288.1" height="344.4"/>
	<rect x="74.1" y="92.2" class="st18" width="239.7" height="303.4"/>
	<polygon class="st19" points="75.3,112.6 316.3,112.6 314.9,264.4 75.3,264.4 	"/>
	<path class="st20" d="M200.4,133.8l190.5-19.3l-0.5-6.8c0,0-49.5-2.7-66.1-2.6c-13.4,0.1-40.2,1.7-53.5,3
		c-9.3,0.9-28.2,2.6-37.1,4.9C224.2,115.3,200.4,133.8,200.4,133.8z"/>
	<polygon class="st21" points="196.2,152.1 194.7,303.9 74.8,303.9 74.8,152.1 	"/>
	<polygon class="st21" points="314.5,303.9 194.7,303.9 196.2,152.1 315.9,152.1 	"/>
	<line class="st18" x1="74.8" y1="225.3" x2="314.5" y2="228"/>
	<line class="st3" x1="74.4" y1="139.4" x2="314.1" y2="141.1"/>
	<line class="st3" x1="195.8" y1="112.6" x2="196.6" y2="171.1"/>
	<polygon class="st3" points="75.3,112.6 316.3,112.6 313.8,92.2 74.1,92.2 	"/>
	<path class="st22" d="M204.3,229.7c0,0,15.7-8.7,21.3-10.7c8.5-3,26.4-6,35.3-7.3c10.9-1.6,33-3.5,44-4c13.8-0.6,41.5,0,55.3,0
		c11.5,0,46,0,46,0l45.3,2.7l34.7,5.3l19-13.8l-47-13.5c0,0-32-4.3-42.7-5.3c-11.6-1.1-35-2.9-46.7-3.3c-16.3-0.6-49-0.4-65.3,0
		c-12.7,0.3-38.2,0.3-50.7,2.7c-14.1,2.7-54.3,18.1-54.3,18.1L204.3,229.7z"/>
	<polygon class="st10" points="321.6,262 319.7,236.3 415,236.3 415.7,246.3 402.3,307.7 390.3,309 370.7,312.3 337,309.7 
		321.6,309.7 	"/>
	<path class="st23" d="M486.3,215.7l-34.7-5.3l-66.7-2.7l-47.3-0.2c0,0-27.5-0.5-36.7,0c-10,0.5-30.1,2.6-40,4.2
		c-8.9,1.4-26.8,4.4-35.3,7.3c-5.6,2-21.3,10.7-21.3,10.7s9.5,7.9,13.1,9.9c5.6,3.1,17.8,7.5,23.9,9.3c9.5,2.9,29.1,7.1,39,8.7
		c11.2,1.8,45.3,4.7,45.3,4.7l3.3-26h86l0.7,10l29.3-24L486.3,215.7z"/>
	<polygon class="st10" points="338.3,74.8 332.3,0 390.3,0 390.3,77.8 	"/>
	<path class="st2" d="M198.1,133c0,0,26.1-15,35.6-18c14-4.4,43.4-7,58-8c19-1.3,57-0.7,76,0c15.7,0.6,47,3,62.7,4.7
		c15.6,1.6,46.8,4.7,62,8.3c9.1,2.2,35.3,12.3,35.3,12.3s-2.1-27.1-8-33.3c-9-9.5-37.2-12.9-50-15.3c-19.5-3.7-59.5-4.6-79.3-5.9
		c-13-0.9-39-2.7-52-3c-11-0.2-33,0.1-44,0.6c-7.3,0.3-21.9,1.3-29.1,2.4c-7.4,1.1-22,4.4-29.1,6.6c-1.8,0.5-5.4,1.8-7.1,2.6
		c-7.1,3.6-22.4,10.6-26.7,17.3C198.4,110.4,198.1,133,198.1,133z"/>
	<path class="st3" d="M208.1,127c0,0,1.6,13,1.9,17.3c0.5,8.7,0.4,26.2,0,35c-0.2,4.4-1.6,17.5-1.6,17.5l-9.7,3.6l-0.7-26.1
		l0.1-41.3L208.1,127z"/>
	<path class="st3" d="M221.5,120.3c0,0,2.2,23.2,2.5,30.9c0.2,6,0.4,18.1,0,24.1c-0.3,4.2,0.1,15.9,0.1,15.9l12.1-4.1
		c0,0,1.6-17.5,1.9-23.3c0.2-4.1,0.2-12.3,0-16.4c-0.2-4.5-1-13.5-1.7-18c-0.5-3.6-0.9-15.1-0.9-15.1L221.5,120.3z"/>
	<path class="st3" d="M253.3,111.1c0,0,0.6,12,1.1,16c0.8,6.5,0.9,19.5,1,26.1c0.1,7.2,0,28.8,0,28.8l14.4-1.3c0,0,0.2-19,0-25.3
		c-0.2-6-1-18-1.7-24c-0.6-5.5-2-22-2-22L253.3,111.1z"/>
	<polygon class="st3" points="282,107.7 284,180.1 297.7,179.8 297.7,138 297.7,106.7 	"/>
	<polygon class="st3" points="308,106.7 308,179.3 322.3,179.3 322.3,106.2 	"/>
	<path class="st3" d="M379,179.3l0.7-71.6l-18.3-0.9c0,0,0.2,9.5,0,12.6c-0.3,5.1,0,15.2,0,20.3c0,6,0,18.1,0,24.1
		c0,3.9,0,15.5,0,15.5H379z"/>
	<polygon class="st3" points="335.3,106.9 335.3,179.3 352,179.3 352,106.2 	"/>
	<path class="st24" d="M200.4,109.5c0,0,20.8-10.4,28-13.1c7.1-2.7,21.6-7.1,29-8.7c9.2-2,27.9-4.4,37.3-5s28.3-0.3,37.7,0
		c14.5,0.4,43.5,2.1,58,3.3c23.6,1.9,71.2,4.8,94.3,10.1c9.7,2.2,37.5,13.4,37.5,13.4s-1.8-8.5-3.8-10.5c-9.2-8.8-36-13.8-48.7-15.3
		c-16.8-2-67.3-5-67.3-5l-64-3.9c0,0-22.8,0-30.3,0.2c-3.4,0.1-10.3,0.2-13.7,0.4c-7.3,0.4-21.9,1.2-29.1,2.4
		c-8.3,1.3-24.9,4.6-32.7,7.8c-7.6,3-22.7,10.6-28.4,16.5C202.7,103.6,200.4,109.5,200.4,109.5z"/>
	<path class="st24" d="M202.8,221.9c0,0,13.8-7.3,18.7-9.2c6.8-2.7,21-6.7,28.2-8.2c10.5-2.2,31.9-4.7,42.7-5.5
		c13.2-1,53-1.3,53-1.3h34.3l43.3,2.8c0,0,20.4,1,28.7,2.2c10.1,1.5,40,9.1,40,9.1l-5.3,3.9l-34.7-5.3c0,0-34-2.3-45.3-2.7
		c-12-0.4-36-0.4-48-0.4c-13.3,0-40,0-53.3,0.4c-4.8,0.1-14.3,0.6-19,1c-6.3,0.5-18.8,2.1-25,3c-5.1,0.8-15.3,2.5-20.4,3.6
		c-3.8,0.8-11.4,2.4-15,3.8c-5.6,2.1-21.3,10.7-21.3,10.7L202.8,221.9z"/>
	<path class="st10" d="M1492.6,517.7c3.1,0.7,12.2,3.8,16.4,4.7c9.4,1.9,28.7,4,38.3,4c10.7,0,42.7-4.3,42.7-4.3v-30.3
		c0,0-26.2-6.4-35.1-7.3c-9.9-1-30.1-1.2-40,0c-6.5,0.8-25.3,6-25.3,6L1492.6,517.7z"/>
	<path class="st10" d="M1492.6,625c0,0,13.3,2.5,17.8,3.3c5,1,14.9,3.5,20,4c4.2,0.4,12.7,0.3,17,0c6.8-0.5,20.3-2.4,27-3.7
		c4-0.7,15.7-3.7,15.7-3.7v-30c0,0-18.3-3.2-24.4-4c-6.4-0.9-19.3-2.9-25.8-2.7c-5,0.2-14.7,2.2-19.5,3.3
		c-7.1,1.7-27.8,8.7-27.8,8.7L1492.6,625L1492.6,625z"/>
	<path class="st25" d="M1492.6,63.8c0,0,63.3-4.2,84.4-4.8c19.8-0.6,59.5-1.1,79.3,0c25.6,1.4,76.9,5.8,102,10.9
		c18.3,3.7,53.8,15.4,71.3,21.8c13.6,5,40.7,15.9,53.3,23.2c9.9,5.7,37,27.3,37,27.3s0.8,59.9-9,76.4c-8,13.4-36.7,29-50.7,35.5
		c-20.7,9.6-65.8,18.1-88,23.2c-18.2,4.2-54.8,12-73.3,14.3c-24.2,3-97.5,5.4-97.5,5.4l-109-72.7V63.8H1492.6z"/>
	<path class="st8" d="M1492.6,167l52.8-4.3c0,0,59.7-3.4,79.7-3.3c18.4,0.1,73.7,3.8,73.7,3.8s47.6,4,63.3,6.5
		c12.9,2,38.4,7.5,51,11c8.8,2.5,26.3,7.7,34.3,12c4.8,2.6,14.9,8.4,17.3,13.3c1.7,3.5,0.9,11.9,0,15.7c-1.2,4.9-5.8,14.1-9,18
		c-5,6.1-24.8,19.6-24.8,19.6l29.4-9.6l31.5-17.3l15.9-13l3.3-4.4l4.5-13.3l3.3-25.6l1.1-35.7c0,0-27.1-21-37-26.7
		c-8.3-4.8-26.2-12.2-35.2-15.8c-11.6-4.6-35.2-12.9-47.2-16.6c-11.7-3.6-35.3-10.2-47.3-12.6c-8.9-1.8-27-3.8-36-4.8
		c-15.7-1.7-47.2-4.3-63-5c-8.5-0.4-34-0.5-34-0.5l-30.7,0.3l-42.3,1.7l-54.7,3.3L1492.6,167L1492.6,167z"/>
	<polygon class="st26" points="1492.6,167 1495.5,75 1519,81.5 1540,81.5 1547.3,71.5 1571.5,71.5 1580,76.5 1617.5,76 1625.5,71.5 
		1650.5,71.5 1655,78 1680.5,80 1690.5,71.5 1723.3,75 1732.5,87 1757,88.5 1766.5,83.5 1791.5,87 1796.5,97.5 1817.5,100.5 
		1823,95.5 1843.5,101 1846,110.5 1859,115 1867,111 1885.5,119.3 1885.5,128.5 1898.5,135 1905,133.5 1919.9,143 1918.2,181 
		1912.5,212.3 1894.5,203.3 1881.3,209.5 1868.8,199 1867,192.5 1855.5,181.2 1842.2,188.5 1835.8,168.7 1818.7,165.6 1810.3,163.8 
		1791.5,167 1784.5,163.8 1757.8,158.8 1732.5,160.8 1724.6,165.5 1685.5,162.4 1675.5,152.5 1655,150.8 1645,158.8 1625,159.3 
		1615,149.3 1580,149 1571.5,158.8 1539.5,158.8 1535.5,152.5 1520.5,150.5 	"/>
	<polygon class="st27" points="1520.5,150.5 1519,81.5 1540,81.5 1539.5,158.8 1535.5,152.5 	"/>
	<polygon class="st28" points="1571.5,158.8 1571.5,72.5 1580,76.5 1580,149 	"/>
	<polygon class="st28" points="1615,149.3 1615,76 1625.5,73.2 1625,159.3 	"/>
	<polygon class="st28" points="1655,150.8 1655.8,78.5 1648.4,73.8 1646.1,157.9 	"/>
	<polygon class="st28" points="1675.5,152.5 1675.6,151.3 1680.5,80 1690.4,73.2 1685.3,161 	"/>
	<polygon class="st28" points="1757,88.5 1757.8,158.8 1766.5,168.1 1766.5,83.5 	"/>
	<polygon class="st28" points="1791.4,88.5 1783.9,170.3 1791.5,167 1796.5,97.5 	"/>
	<polygon class="st28" points="1732.5,87 1732.5,160.8 1722.7,165.6 1724.9,78.5 	"/>
	<polygon class="st28" points="1823,95.5 1815.2,164.9 1807.1,165.9 1813,101 	"/>
	<polygon class="st28" points="1843.5,101 1835.8,168.7 1842.2,188.5 1849.5,111.7 	"/>
	<polygon class="st28" points="1859,115 1852.1,183.1 1860.3,183.1 1867,111 	"/>
	<polygon class="st26" points="1888.6,129.5 1872.2,205.2 1881.3,209.5 1898.5,135 	"/>
	<polygon class="st28" points="1905,133.5 1894.5,203.3 1881.3,209.5 1898.5,135 	"/>
	<path class="st29" d="M1602.1,303.9v10.4c0,0,13.1,2.3,17.6,2.7c14,1.2,42.5,1.1,56.7,1c26-0.1,78-1.7,104-2.8
		c13.3-0.5,39.9-1.7,53-2.9c5.3-0.5,16.1-1.6,20.8-2.9c2.4-0.7,6.7-2.7,8.2-4c1.3-1.1,3-5,3-5l-125.7,1L1602.1,303.9z"/>
	<polygon class="st30" points="1571.5,158.8 1539.5,158.8 1540,81.5 1547.3,71.5 1571.5,72.5 	"/>
	<polygon class="st27" points="1580,76.5 1615,76 1615,149.3 1580,149 	"/>
	<polygon class="st30" points="1625.5,71.5 1648.5,71.5 1646.1,157.9 1625,159.3 	"/>
	<polygon class="st27" points="1655,150.8 1675.5,152.5 1680.5,80 1655.8,78.5 	"/>
	<polygon class="st30" points="1690.5,71.5 1723.3,75 1722.7,165.6 1685.5,162.4 	"/>
	<polygon class="st27" points="1757.8,158.8 1732.5,160.8 1732.5,87 1757,88.5 	"/>
	<polygon class="st30" points="1783.9,170.3 1766.5,168.1 1766.5,83.5 1791.5,87 	"/>
	<polygon class="st27" points="1807.1,165.9 1813.2,99.9 1796.5,97.5 1791.5,167 	"/>
	<polygon class="st30" points="1815.2,164.9 1835.8,168.7 1843.5,101 1823,95.5 	"/>
	<polygon class="st27" points="1842.2,188.5 1852.1,183.1 1859,115 1849.5,111.7 	"/>
	<polygon class="st28" points="1867,192.5 1885,121.2 1887.2,130.8 1872.7,202.9 1868.8,199 	"/>
	<polygon class="st2" points="1671.7,319.2 1671.7,371.7 1688.7,374.7 1688.7,507.7 1689.6,804.4 1747.7,805 1747.7,372 
		1766.3,366.3 1766.3,317 	"/>
	<path class="st10" d="M1688.7,465c0,0,10,2.3,13.3,2.6c3,0.3,9,0.1,12,0c4.3-0.2,12.8-0.8,17-1.3s16.7-3,16.7-3V477
		c0,0-13.7,2.7-18.3,3.3c-4.6,0.6-14,1.7-18.7,1.7c-3.4-0.1-10.3-1-13.7-1.7c-2.1-0.4-8.3-2.3-8.3-2.3V465z"/>
	<path class="st10" d="M1671.7,371.7l17,3c0,0,21.5,2.5,28.7,2.2c7.7-0.3,30.3-4.8,30.3-4.8l18.7-5.7V317l-94.7,2.2V371.7z"/>
	<polygon class="st10" points="1688.7,782.3 1661,827.7 1773.7,827.7 1747.7,782.3 	"/>
	<polygon class="st31" points="1636.1,846.6 1668.5,810.8 1857.2,810.8 1883.1,846.6 	"/>
	<path class="st3" d="M1634.3,924.7l-36.2-23.3c0,0-4.5,32-5,42.8c-0.7,15.1-0.3,45.6,1.2,60.6c1.4,14.4,6.2,43.1,10.3,57
		c1.5,5,8.1,19.2,8.1,19.2h25.8l-6.7-82.4L1634.3,924.7z"/>
	<polygon class="st3" points="1773,687 1789.6,825 1779.9,816.8 1760.6,685.8 	"/>
	<polygon class="st2" points="1800,688.2 1805.2,741.2 1813.4,834.1 1800,830.7 1795.6,829 1789.6,825 1773,687 	"/>
	<polygon class="st3" points="1834.8,688.3 1837.8,836.8 1824.3,835.9 1813.4,834.1 1800,688.2 	"/>
	<polygon class="st2" points="1865.4,834.8 1871.7,689.1 1834.8,688.3 1837.8,836.8 1853.2,836.8 	"/>
	<polygon class="st3" points="1902.5,684.8 1896.2,751 1890.3,825 1878,830.9 1865.4,834.8 1871.7,689.1 1891.4,687 	"/>
	<polygon class="st2" points="1915,680.9 1900.7,812.3 1893.2,822.9 1890.3,825 1901.3,685.1 	"/>
	<path class="st7" d="M1771.8,686.9c0,0,5.2-2.7,7-3.3c3-0.9,9.3-1.3,12.4-1.7c5.4-0.6,16.1-1.6,21.5-2c4.6-0.3,18.5-1.1,18.5-1.1
		s20.3-1,27-0.9c5.6,0,16.7,0.7,22.2,1.1c3.6,0.3,10.7,1.1,14.2,1.8c2.6,0.6,10.2,3.2,10.2,3.2l10.2-3.2c0,0-13.3-3-17.8-3.8
		c-1.7-0.3-5.2-1-6.9-1.1c-5.5-0.6-22.2-1.1-22.2-1.1l-36.8,0.6l-20.5,1.1l-10.2,0.8l-11,1.3l-14.4,2.4l-14.6,4.9L1771.8,686.9z"/>
	<polygon class="st9" points="1793.2,681.7 1793.2,687.9 1784.8,687.5 1785.8,682.5 	"/>
	<polygon class="st9" points="1816.7,679.7 1816.7,688.2 1828.1,688.3 1828.1,679.1 	"/>
	<polygon class="st9" points="1853.2,678.1 1853.2,688.7 1862.7,688.9 1862.7,678.1 	"/>
	<polygon class="st9" points="1884,679.4 1884,688 1890.3,687.1 1890.3,680.2 	"/>
	<path class="st7" d="M1901.9,683.1c0,0,0.9-9.6,0.6-12.6c-0.3-2.8-2.1-8.7-3-11.3c-0.9-2.5-4.6-6.3-6.7-7.2
		c-3.6-1.4-9.2,1.7-12.3,4.2c-2.4,1.9-5.3,6.5-6.5,9.7c-1,2.7-3.2,12.1-3.2,12.1l3.9,0.7c0,0,2.4-7.2,3.5-9.4c0.7-1.4,2.4-3.9,3.4-5
		s3.3-2.8,4.4-3.5c1-0.7,3.1-1.1,4.2-0.9c1.2,0.2,2.7,1.4,3.4,2.5c0.9,1.4,2.5,4.4,3,6.1c0.5,1.8,0.8,5.5,0.9,7.3c0.1,1.5,0,6,0,6
		L1901.9,683.1z"/>
	<path class="st10" d="M1764.3,711.1c0,0,17.7,5.9,23.8,6.8c9.5,1.5,28.7,1.3,38.3,1.4c11.3,0,33.9-0.7,45.2-1.4
		c7-0.4,21.2-1.2,28.1-2.7c3.1-0.7,12-4.1,12-4.1l-1.6,13.4c0,0-16.6,4.6-22.3,5.5c-11.1,1.7-33.7,2.8-45,3
		c-10.1,0.2-30.2-0.5-40.3-1.2c-6.3-0.4-18.9-1.5-25.1-2.7c-2.9-0.6-11.2-3.4-11.2-3.4L1764.3,711.1z"/>
	<path class="st10" d="M1774.7,782.8c0,0,7.3,6.3,10.1,7.7c3.5,1.9,11.1,4,14.9,4.9c4.7,1.1,14.3,2.1,19,2.5
		c6.3,0.6,18.8,1.5,25.1,1.5c5.3,0,15.8-0.7,21-1.5s15.7-3,20.7-4.9c3.5-1.3,10.5-4.6,13.5-7c1.4-1.1,5-5.5,5-5.5l-1.6,14.9
		c0,0-4.1,3.2-5.6,4c-3.3,1.9-10.2,5.2-13.8,6.4c-5.8,2-17.9,4.3-24,5.2c-4.5,0.6-13.6,1.2-18.2,1.2c-6.8,0-20.5-0.6-27.3-1.5
		c-5.4-0.7-16.1-2.7-21.2-4.6c-4.1-1.5-15.4-8.2-15.4-8.2L1774.7,782.8z"/>
	<path class="st10" d="M1593.1,964.2c0,0,28.5,18.8,38.6,24.2c8.9,4.7,27.2,13.1,36.8,16.2c11.7,3.6,36.3,7.5,48.5,9.3
		c13.9,2,42,4.8,56.1,5.2c15.8,0.3,47.7,0.3,63.1-2.9c11.2-2.3,32.6-10.7,42.7-16.2c10.3-5.5,37.8-27.1,37.8-27.1l-0.1,18.8
		c0,0-26.5,21.9-36.5,27.4c-8.8,4.8-27.6,12.2-37.4,14.4c-13.3,2.9-40.7,3.9-54.3,4.1c-15.3,0.2-46.1-1-61.3-2.9
		c-13.4-1.6-40-6.5-52.9-10.4c-11.7-3.5-35-11.6-45.7-17.3c-9.5-5-35.2-24.3-35.2-24.3L1593.1,964.2z"/>
	<path class="st7" d="M1802.4,688.3c0,0,0.1-5.6,0-7.4c-0.1-1.8-0.1-5.5-0.7-7.2c-0.5-1.6-2.3-4.5-3.3-5.8c-0.9-1.1-3.1-2.9-4.2-3.8
		c-0.7-0.5-2.2-1.8-3.1-1.8c-1.3-0.1-3.6,1.2-4.8,1.8c-1.8,1.1-5,3.8-6.4,5.4c-1.4,1.6-4,5.1-4.9,7.1c-1.2,2.4-3.3,10.4-3.3,10.4
		l-5.2-0.8c0,0,2.8-10.7,4.5-14c1.7-3.2,6-9.2,8.8-11.3c2.9-2.2,9.9-5.7,13.3-4.9c2.2,0.5,7.7,4.6,9,6.7c1.8,2.7,4.2,8.9,5,12.1
		c0.8,3.3,0.2,13.6,0.2,13.6L1802.4,688.3"/>
	<path class="st10" d="M352.3,446.9c0,0,11.3,5.3,15.3,6.1c5.4,1,22,0,22,0v-19.4H371l-20,0.1L352.3,446.9z"/>
	<polygon class="st2" points="337,309.7 370.7,312.3 390.3,309 386.3,786.3 375.7,792.3 368.1,786.3 351,491.7 	"/>
	<polygon class="st10" points="367.1,769 353.8,804.4 390.3,805 386.5,769 	"/>
	<polygon class="st10" points="350.4,483.7 361.2,492.3 375.7,497 388.8,497 388.9,479.7 372.1,471 361.2,468.3 349.2,468.3 	"/>
	<path class="st32" d="M220.4,131.6c0,0-0.3,1-0.2,5.4c0.2,8.7,0.2,27,0,35.8c-0.1,4.4,0,18,0,18l-7,2.7l-0.4-26.1v-34.3
		L220.4,131.6z"/>
	<path class="st32" d="M249.9,128.7c0,0,0.5,4.2,0.9,8.5c0.8,8.7,1,16.1,1.2,24.8c0.1,4.4,1.3,18.9,1.3,18.9l-10,2.7l-0.9-26.3
		v-27.7L249.9,128.7z"/>
	<polygon class="st32" points="272.2,126.5 274.5,178.3 282,178.3 278.8,126.5 	"/>
	<polygon class="st32" points="300.2,123.6 300.2,178.3 304,178.3 304,123.3 	"/>
	<polygon class="st32" points="326.2,121 326.2,178.3 332.3,178.3 332.3,120.4 	"/>
	<polygon class="st32" points="354.8,118.1 354.8,178.3 359,178.3 359,117.7 	"/>
	<polygon class="st32" points="383,115.2 383,179.3 389,179.3 387.8,114.8 	"/>
	<polygon class="st28" points="1520.5,150.5 1492.6,167 1495.5,75 1519,81.5 	"/>
	<polygon class="st30" points="1860.3,183.1 1867,192.5 1885,121.2 1867,111 	"/>
	<polygon class="st27" points="1872.2,205.2 1881.3,209.5 1898.5,135 1888.6,129.5 	"/>
	<polygon class="st30" points="1912.5,212.3 1894.5,203.3 1905,133.5 1919.9,143 1918.9,176.1 	"/>
	<polygon class="st28" points="1547.3,71.5 1547.3,161 1536.5,154.4 1537.5,81.5 	"/>
	<path class="st24" d="M1492.6,177.7l26.4-1.7c0,0,23.2-2,31-2.5c9.9-0.6,29.6-1.6,39.5-2c11.1-0.4,33.2-1.2,44.3-1.2
		s33.2,0.7,44.3,1.2c9.8,0.4,29.3,1.7,39,2.5c8.3,0.7,25,2.6,33.3,3.7c6.8,0.9,20.5,2.8,27.3,4.1c7.2,1.4,21.5,4.8,28.5,6.8
		c5.9,1.7,17.7,5.4,23.4,7.8c3.3,1.4,9.9,4.5,12.8,6.6c2.8,2,8.3,6.4,9.9,9.5c1.7,3.2,3.1,10.8,2.4,14.4c-0.7,3.4-5.1,9.1-7.3,11.8
		c-3.6,4.4-12.3,11.9-16.5,15.8c-3.8,3.5-15.6,13.5-15.6,13.5l15.7-8.5c0,0,12.4-8.7,16.3-11.9c2.2-1.8,6.7-5.4,8.4-7.6
		c2.6-3.3,6.6-10.7,7.9-14.6c1.1-3.4,2.4-10.5,2.3-14.1c0-1.3-0.5-3.9-1.2-5c-1.6-2.7-6.6-6.7-9.2-8.5c-2.2-1.6-7.1-3.9-9.5-5
		c-3.3-1.6-9.9-4.5-13.2-5.8c-6.8-2.5-20.8-6.5-27.9-8.2c-7.6-1.9-22.9-5.3-30.6-6.7c-10-1.8-30.1-4.3-40.1-5.5
		c-11.6-1.3-35-3-46.6-3.9c-7.9-0.6-23.8-1.6-31.7-2c-10.9-0.5-43.8-1-43.8-1l-37.9,1.2l-44.6,3.2l-36.9,3v10.6H1492.6z"/>
	<polygon class="st24" points="1494,71.5 1540,68.8 1586.9,67.3 1640.5,66 1685.5,67.5 1722.7,71.5 1757.8,76 1796.5,85.8 
		1829.3,97.2 1855,107.5 1887.2,123.9 1907.2,136.8 1909.2,132.1 1888.4,117.1 1879.4,111.7 1835.8,93.4 1800.7,81.3 1758.3,69.9 
		1727.6,65.1 1681.7,60.8 1640.3,58.6 1582,58.6 1531,61.4 1494,63.6 	"/>
	<polygon class="st2" points="1590.1,1080 1590.1,733.6 1590.1,466.6 1602.1,327.1 1602.1,236.3 1543.6,220.6 1492.6,220.6 
		1492.6,1080 	"/>
	<polygon class="st10" points="1492.6,327 1499,347.7 1512.4,352.1 1532.3,343 1532.3,249 1532.3,220.6 1492.6,220.6 	"/>
	<path class="st10" d="M1601.1,338.5c0,0-8,5.1-11,5.8c-2.8,0.7-9.2,1.4-11.7,0c-3-1.6-6.4-8.1-7.3-11.3c-7.4-25.2,0-105,0-105
		l31.1,8.4L1601.1,338.5z"/>
	<polygon class="st12" points="1827.4,278.2 1827.4,299.4 1824.8,295.1 1824.8,276.9 	"/>
	<polygon class="st14" points="1862.4,283.9 1862.8,294.6 1865.8,298.9 1865.8,291.6 	"/>
	<path class="st33" d="M1787.3,273.9l43.4-2.4c0,0,9.1-0.1,12.1,0c2.6,0.1,7.8-0.1,10.2,0.4c2.6,0.5,7.8,2.2,9.4,3.6
		c1.1,0.9,1.6,4.4,1.6,4.4s-2.3-2.4-3.5-3c-2-1-6.8-2.1-9.2-2.4c-8.3-1-57.3,0.9-65.7,1.2"/>
	<path class="st33" d="M1864,301.4c0,0-18.6,0.6-25.2,0.4c-18.6-0.5-64.3,0.1-63.8,0.6l-48,0.4l-45,0.6l-31,0.9l-47.5,0.4v3.4
		l17.8-0.1l41.7-0.9l91-1.5l64.4-0.9h15.6c0,0,10.4,0,19-0.7l8.6-1.3L1864,301.4z"/>
	<path class="st10" d="M1590.1,537c0,0-25.7,8.9-34.6,11c-6.4,1.5-19.4,3.5-26,4c-4.8,0.4-14.5,0.8-19.3,0c-5.4-1-20.6-7.5-20.6-7.5
		v44.4c0,0,21.6,9.7,29.3,11.1c7,1.3,21.3,0.9,28.3,0c7.2-0.9,21.6-4.3,28.1-7.5c4.4-2.1,15.8-11.5,15.8-11.5L1590.1,537z"/>
	<polygon class="st10" points="1494,63.6 1492.6,0.5 1571.5,0 1571.5,58.4 	"/>
</g>
<g id="Layer_3">
</g>
<g id="Layer_2">
	<polygon class="st17" points="194.5,764.9 216.7,741.7 238.8,729.2 276.3,725.5 315.1,721.6 341.7,722.4 370,737.6 402.2,757.6 
		434.5,792 449.4,834.1 448.2,863.3 435.7,828.9 389.6,790.2 348.8,782.3 270.7,768.7 176,807.5 	"/>
	<polygon class="st2" points="159.4,839.5 194.5,764.9 216.7,741.7 245.9,729.2 309.8,721.5 341.7,722.4 363.9,734.1 394.9,751.9 
		411.4,764.9 434.5,792 449.4,834.1 444.2,790.2 421.4,745.7 405.2,729.2 363.9,707.4 331.1,695.2 294.7,690.6 257.4,698.1 
		226.6,710.2 203.3,729.2 181.9,751.9 165.2,779.7 155.7,818.6 	"/>
	<path class="st22" d="M279.6,761.3c-18.6,1.3-56.4,8.7-72.7,18.5c-14.1,8.4-38.6,33.6-46.1,49.2c-6.8,14.1-16.2,45.7-15.1,61.6
		c1.4,20.6,17.9,60.1,30.2,75.8c10.2,13.1,38.8,29.9,53.2,36.9c18.2,8.9,58.2,18,78.1,16.5c21.5-1.6,63.2-18,81.6-30.1
		c13.4-8.8,36.6-32.7,45.2-47c7-11.6,15.1-38.2,15.6-52.1c0.6-16-5.4-48.5-13.8-61.7c-9.9-15.5-40.4-36.1-55.9-44.3
		c-13.3-7-42.3-14.2-56.8-17.5c-6-1.4-18.3-2.8-24.4-3.6C293.9,762.8,284.4,761,279.6,761.3z"/>
	<polygon class="st3" points="176,807.5 187.4,761.3 198,751.6 203.3,745.7 198,786.1 	"/>
	<path class="st3" d="M237,768.7v-34.6c0,0,5.6-15.8,9.8-18.5c3.5-2.2,16,0,16,0v15.5v30.1L237,768.7z"/>
	<path class="st3" d="M279.6,761.3v-41.8c0,0,11-7.4,15.1-8.5c2.4-0.6,7.8-1.6,9.8,0c3.4,2.6,5.3,17.2,5.3,17.2v36.7L279.6,761.3z"
		/>
	<path class="st3" d="M323.1,767.1v-44.7c0,0,8.3-6.6,11.5-6.8c3.8-0.3,14.2,5.8,14.2,5.8v52.1L323.1,767.1z"/>
	<path class="st3" d="M226.6,771.6V738c0,0-11.3-2.1-14.3,0c-1.7,1.1-3.5,7.8-3.5,7.8l-1.8,34L226.6,771.6z"/>
	<path class="st3" d="M363.9,776.6v-42.5c0,0,8.5-5.1,11.5-4.9c4.1,0.3,14.2,8.8,14.2,8.8v52.2L363.9,776.6z"/>
	<path class="st3" d="M402.2,803.5v-45.9c0,0,8.2-1.5,10.5,0c3.6,2.3,8,16.1,8,16.1v44L402.2,803.5z"/>
	<polygon class="st3" points="428.8,825.4 428.8,784.8 440.2,797 440.2,817.7 438.6,839.1 	"/>
	<polygon class="st10" points="226.6,1077 240.6,1049.8 363.9,1049.8 382.5,1077 	"/>
	<polygon class="st2" points="249.9,901.2 245.9,1049.8 357.7,1049.8 357.7,901.2 	"/>
	<polygon class="st10" points="286.7,843.9 249.9,843.9 224.1,866.2 216.7,922.6 245.9,970.6 357.7,970.6 389.6,919.6 376.7,863.3 
		357.7,843.9 	"/>
	<path class="st24" d="M245.9,1000.8c0,0-36.6-16.6-47-25.3c-8.5-7-23-24.5-28.4-34.5c-5.7-10.6-13.8-34.3-14.8-46.6
		c-1-12.8,2.6-39,7.7-50.5c4.3-9.7,18.8-25,26.3-32c6.1-5.8,19.8-15.5,27-19.4c7.9-4.3,24.5-10.8,33.1-12.7
		c12.8-2.8,39-3.9,51.9-3.1c8.6,0.5,25.8,3.8,34.2,6.1c11.9,3.3,35.5,11.5,46.6,17.5c9.1,4.9,26.5,16.6,33.7,24.3
		c5.8,6.2,15,21,18.3,29.1c2.6,6.4,5,20.3,5.7,27.2c0.7,6.6,0.9,19.9,0,26.4c-0.7,5-3.5,14.8-5.7,19.2c-4.4,8.8-16.5,24.1-23.1,31.1
		c-4.9,5.2-16,14-21.8,18c-7.6,5.2-31.9,18-31.9,18v11.7c0,0,23.8-10.5,31-15.5c8.8-6.1,24.6-21.5,31.9-29.6
		c3.7-4,13.3-17.4,13.3-17.4s8.5-17.6,10.8-23.7c2.1-5.7,4.1-19.3,4.6-25.5c0.7-8,0.8-22.3-1.1-30.1c-2-7.9-4.6-21.8-9.7-29.2
		c-3.9-5.6-12.8-17.1-17.9-21.4c-6.5-5.4-24.1-17.8-31-22.5c-6.1-4.1-19-11.1-25.7-13.6c-8.4-3.2-26-6.2-34.7-8
		c-7.6-1.5-22.9-4.1-30.5-5.2c-4.8-0.7-14.3-2.2-19.1-2.2c-6.5,0.1-19.5,2.5-26,3.6c-4.2,0.8-12.6,2.5-16.7,3.7
		c-7.7,2.3-23.1,6.9-30.1,11.1c-8.7,5.3-23.9,19.9-30.9,27.8c-4.3,4.9-12.2,15.5-15.3,21.4c-4.1,8-9.5,25.5-11.6,34.4
		c-1.5,6.7-3.9,20.4-3.5,27.2c0.4,7.8,4.9,22.9,7.4,30.2c3.3,9.4,11.2,27.7,16.4,36c3.3,5.2,11.2,14.7,15.7,18.8
		c7.1,6.4,23.3,16.6,31.6,21.1c7,3.9,29.2,13,29.2,13V1000.8z"/>
	<path class="st24" d="M157.4,827.8c0,0,8.9-31.5,13.6-41.3c3.3-6.9,16.4-25.3,16.4-25.3s14.1-18.3,19.5-23.7
		c4.5-4.5,14.4-12.6,19.7-15.9c6.9-4.4,21.5-11.8,29.1-14.3c6.9-2.2,21.2-4.2,28.4-4.9c5.7-0.5,17.3-0.3,23.1,0
		c8.2,0.5,24.7,2,32.8,3.9c6.9,1.6,20.5,6.4,27.1,9.2c6.6,2.9,19.6,9.5,25.7,13.6c5,3.3,14.5,10.9,18.7,15.4
		c5,5.4,14,17.4,17.4,24.1c7,13.7,19.8,59.1,19.8,59.1l-3.9-35.4l-8.5-23.8l-14.8-22.9l-16.2-16.5l-18.7-12.1l-20.4-11.2l-20.8-6.8
		l-14.2-3.9l-36.4-4.6l-15.1,2l-22.2,5.5l-30.9,12.1l-16.1,13.2l-14.5,13.7l-14,14.8l-16.7,27.9l-8,27.8L157.4,827.8z"/>
	<path class="st17" d="M135.3,793.6L103,759.3l-32.2-20.1l-28.2-15.1l-26.6-0.8l-15.3,1.5c0.1,16.8-0.7,33.6-1.4,50.3l50.4,8.8
		l40.8,7.9l46.1,38.7l12.5,34.4l1.1-29.2L135.3,793.6z"/>
	<path class="st2" d="M145,791.9l-22.8-44.5L106,730.9l-41.3-21.8l-32.8-12.2l-32.6-4.1c1,10.6,1.4,21.1,1.4,31.5l9.9-1.2l31.6,6.1
		l22.5,6.5l31,17.8l16.5,13l23.1,27l14.9,42.1L145,791.9z"/>
	<path class="st22" d="M136.5,830.5c-9.9-15.5-40.4-36.1-55.9-44.3c-13.3-7-42.3-14.2-56.8-17.5c-6-1.4-18.1-2.8-24.2-3.6
		c-1,23.5-2.1,47.1-0.7,70.9c2,20,3,40,3,59c0.7,41.9,0.4,84.3-0.1,126.5c2.2,0,4.2,0,6-0.1c21.5-1.6,63.2-18,81.6-30.1
		c13.4-8.8,36.6-32.7,45.2-47c7-11.6,15.1-38.2,15.6-52.1C150.9,876.2,144.9,843.7,136.5,830.5z"/>
	<path class="st34" d="M10.6,729.9c0,0-2-14.6-5.3-17.2c-1-0.8-2.9-0.9-4.8-0.8c0.6,17.8,0,35.6-0.8,53.4l10.9,1.3V729.9z"/>
	<path class="st34" d="M23.9,768.8v-44.7c0,0,8.3-6.6,11.5-6.8c3.8-0.3,14.2,5.8,14.2,5.8v52.1L23.9,768.8z"/>
	<path class="st34" d="M64.7,778.3v-42.5c0,0,8.5-5.1,11.5-4.9c4.1,0.3,14.2,8.8,14.2,8.8v52.2L64.7,778.3z"/>
	<path class="st34" d="M103,805.1v-45.9c0,0,8.2-1.5,10.5,0c3.6,2.3,8,16.1,8,16.1v44L103,805.1z"/>
	<polygon class="st34" points="129.6,827 129.6,786.4 141,798.6 141,819.3 139.4,840.7 	"/>
	<path class="st10" d="M64.7,1051.5H1.5c-0.1,9.1-0.3,18.2-0.4,27.2h82.3L64.7,1051.5z"/>
	<path class="st2" d="M58.5,902.8H2.1c0.7,49.3,0.1,99.2-0.6,148.6h57V902.8z"/>
	<path class="st10" d="M90.4,921.3l-12.9-56.3l-19.1-19.4H-0.1C1.3,862.3,2,879,2,895c0.4,25.6,0.5,51.4,0.3,77.2h56.1L90.4,921.3z"
		/>
	<path class="st24" d="M149,864.9c-2-7.9-4.6-21.8-9.7-29.2c-3.9-5.6-12.8-17.1-17.9-21.4c-6.5-5.4-24.1-17.8-31-22.5
		c-6.1-4.1-19-11.1-25.7-13.6c-8.4-3.2-26-6.2-34.7-8c-7.5-1.5-22.6-4.1-30.3-5.2c-0.2,4.3-0.4,8.6-0.5,13c1.2,0,2.4,0.1,3.5,0.1
		c8.6,0.5,25.8,3.8,34.2,6.1c11.9,3.3,35.5,11.5,46.6,17.5c9.1,4.9,26.5,16.6,33.7,24.3c5.8,6.2,15,21,18.3,29.1
		c2.6,6.4,5,20.3,5.7,27.2c0.7,6.6,0.9,19.9,0,26.4c-0.7,5-3.5,14.8-5.7,19.2c-4.4,8.8-16.5,24.1-23.1,31.1c-4.9,5.2-16,14-21.8,18
		c-7.6,5.2-31.9,18-31.9,18v11.7c0,0,23.8-10.5,31-15.5c8.8-6.1,24.6-21.5,31.9-29.6c3.7-4,13.3-17.4,13.3-17.4s8.5-17.6,10.8-23.7
		c2.1-5.7,4.1-19.3,4.6-25.5C150.9,887,150.9,872.7,149,864.9z"/>
	<path class="st24" d="M145.5,794.1l-8.5-23.8l-14.8-22.9L106,730.9l-18.7-12.1l-20.4-11.2l-20.8-6.8l-14.2-3.9l-32.6-4.1
		c0.3,3.7,0.6,7.4,0.8,11.1c3,0.1,5.8,0.1,7.8,0.3c8.2,0.5,24.7,2,32.8,3.9c6.9,1.6,20.5,6.4,27.1,9.2c6.6,2.9,19.6,9.5,25.7,13.6
		c5,3.3,14.5,10.9,18.7,15.4c5,5.4,14,17.4,17.4,24.1c7,13.7,19.8,59.1,19.8,59.1L145.5,794.1z"/>
	<polygon class="st10" points="-0.7,750.8 47.5,764.2 92.5,784.8 129.3,811.9 143.9,827.8 140.2,807.5 82.8,765.1 42.1,744.6 
		-0.9,731.5 	"/>
	<path class="st2" d="M142,825.2l17.4-3.4c0,0,9-8.2,8.5-11.6c-0.6-4.4-14.2-10.8-20.1-11.4c-7-0.8-27.9,3.4-27.9,3.4L142,825.2z"/>
	<path class="st2" d="M108.1,790.2l16.1-6.4c0,0,7.3-9.6,6.2-12.9c-1.4-4.3-15.5-8.2-21.3-7.9c-6.9,0.4-26.2,8.2-26.2,8.2
		L108.1,790.2z"/>
	<path class="st2" d="M64.4,766.2l17.1-9.4c0,0,6.9-10.6,5.3-13.5c-2.1-3.7-18.2-4.5-24.6-2.9c-7.6,1.9-28.2,13.2-28.2,13.2
		L64.4,766.2z"/>
	<path class="st2" d="M19.4,750.8l17.1-9.4c0,0,6.9-10.6,5.3-13.5c-2.1-3.7-18.2-4.5-24.6-2.9C9.7,726.9,0.5,739,0.5,739L19.4,750.8
		z"/>
	<path class="st16" d="M452.1,462.3c2.9,6.6,3,12.6,4.4,19.7c1.3,6.6,0.2,20.4-1.4,27c-2.2,9.4-15.2,35.7-15.2,35.7s31-18.3,36-28.7
		c2.7-5.6,0.5-18.8,0-25c-0.7-8.8-1.3-27.2-5.4-35c-7-13.2-43.6-41-43.6-41S447.6,452.2,452.1,462.3z"/>
</g>
<g id="Modelo">
	<rect x="390.3" class="st35" width="1102.2" height="1080"/>
</g>
<polygon class="st36" points="74.1,395.6 11.1,650.3 351.8,650.3 313.8,395.6 "/>
</svg>
