<svg xmlns="http://www.w3.org/2000/svg" viewBox="0 0 1926 1086"><defs><style>.cls-1{fill:#a39272;}.cls-1,.cls-12,.cls-13,.cls-14,.cls-2,.cls-3,.cls-6,.cls-7,.cls-8,.cls-9{stroke:#000;}.cls-1,.cls-10,.cls-11,.cls-12,.cls-13,.cls-14,.cls-2,.cls-3,.cls-6,.cls-7,.cls-8,.cls-9{stroke-miterlimit:10;}.cls-1,.cls-6{stroke-width:6px;}.cls-12,.cls-2{fill:#bfbfbf;}.cls-2,.cls-3,.cls-7{stroke-width:4px;}.cls-3{fill:#524939;}.cls-4{fill:#512d17;}.cls-5{fill:#693d1a;}.cls-10,.cls-6{fill:none;}.cls-7,.cls-9{fill:#606060;}.cls-8{fill:#404040;}.cls-12,.cls-8,.cls-9{stroke-width:2px;}.cls-10{stroke:#512d17;}.cls-10,.cls-11{stroke-width:3px;}.cls-11{fill:#1a0f06;stroke:#693d1a;}.cls-13,.cls-15{fill:#9db7bf;}.cls-13,.cls-14{stroke-width:5px;}.cls-14{fill:#d1f4ff;}.cls-16{font-size:78.22px;font-family:OldLondon, Old London;}.cls-17{fill:#272e30;}</style></defs><title>Porta_oficial_ultimate</title><g id="Muro"><rect class="cls-1" x="3" y="3" width="1920" height="1080"/><line class="cls-2" x1="3" y1="979.02" x2="538.27" y2="980.76"/><line class="cls-2" x1="3" y1="881.22" x2="538.27" y2="881.22"/><line class="cls-2" x1="3" y1="778.49" x2="538.27" y2="782.25"/><line class="cls-2" x1="3" y1="679.71" x2="541.71" y2="680.97"/><line class="cls-2" x1="3" y1="575.26" x2="550.14" y2="577.69"/><line class="cls-2" x1="3" y1="472.13" x2="560.28" y2="472.88"/><line class="cls-2" x1="3" y1="357.11" x2="578.78" y2="363.08"/><line class="cls-2" x1="3" y1="234.66" x2="698.27" y2="237.78"/><line class="cls-2" x1="208" y1="977.02" x2="208" y2="1081"/><line class="cls-2" x1="436.9" y1="983.46" x2="436.9" y2="1083"/><line class="cls-2" x1="125.66" y1="881.22" x2="125.66" y2="980.76"/><line class="cls-2" x1="316" y1="880.2" x2="316" y2="979.75"/><line class="cls-2" x1="260" y1="778.49" x2="260" y2="883.98"/><line class="cls-2" x1="406.05" y1="782.25" x2="406.05" y2="881.22"/><line class="cls-2" x1="142.74" y1="679.71" x2="142.74" y2="782.25"/><line class="cls-2" x1="321.93" y1="680.97" x2="321.93" y2="780.37"/><line class="cls-2" x1="201.36" y1="577.69" x2="201.36" y2="679.71"/><line class="cls-2" x1="422.88" y1="577.69" x2="422.88" y2="680.34"/><line class="cls-2" x1="92.01" y1="472.88" x2="92.01" y2="573.15"/><line class="cls-2" x1="270.63" y1="472.49" x2="272.36" y2="573.15"/><line class="cls-2" x1="3" y1="116.28" x2="1923" y2="116.28"/><line class="cls-2" x1="1225.39" y1="238.76" x2="1923" y2="234.22"/><line class="cls-2" x1="1337.01" y1="363.08" x2="1923" y2="363.08"/><line class="cls-2" x1="1361.09" y1="474.47" x2="1923" y2="471.81"/><line class="cls-2" x1="1373.37" y1="576.93" x2="1923" y2="572.62"/><line class="cls-2" x1="1385.39" y1="680.97" x2="1923" y2="679.53"/><line class="cls-2" x1="1385.39" y1="782.25" x2="1923" y2="782.25"/><line class="cls-2" x1="1385.39" y1="888.14" x2="1923" y2="888.14"/><line class="cls-2" x1="1384.34" y1="985.19" x2="1923" y2="985.19"/><line class="cls-2" x1="120.85" y1="358.34" x2="120.85" y2="472.13"/><line class="cls-2" x1="386.43" y1="363.08" x2="386.43" y2="472.13"/><line class="cls-2" x1="213" y1="235.21" x2="213" y2="357.54"/><line class="cls-2" x1="459.6" y1="236.71" x2="459.6" y2="363.08"/><line class="cls-2" x1="131.8" y1="116.28" x2="131.8" y2="236.71"/><line class="cls-2" x1="523.82" y1="116.28" x2="523.82" y2="238.76"/><line class="cls-2" x1="851.35" y1="116.28" x2="851.35" y2="209.93"/><line class="cls-2" x1="1177.33" y1="116.28" x2="1178.61" y2="225.83"/><line class="cls-2" x1="1384.34" y1="116.28" x2="1384.34" y2="238.76"/><line class="cls-2" x1="1673.45" y1="116.28" x2="1673.45" y2="236.71"/><line class="cls-2" x1="249.58" y1="3" x2="249.58" y2="116.28"/><line class="cls-2" x1="490.17" y1="3" x2="490.17" y2="116.28"/><line class="cls-2" x1="780.59" y1="3" x2="780.59" y2="116.28"/><line class="cls-2" x1="1108.71" y1="3" x2="1108.71" y2="116.28"/><line class="cls-2" x1="1346.17" y1="3" x2="1346.17" y2="116.28"/><line class="cls-2" x1="1608.34" y1="3" x2="1608.34" y2="116.28"/><line class="cls-2" x1="1426.88" y1="235.68" x2="1426.88" y2="362.06"/><line class="cls-2" x1="1648.21" y1="234.66" x2="1647.61" y2="363.08"/><line class="cls-2" x1="1505.21" y1="363.08" x2="1505.21" y2="476.68"/><line class="cls-2" x1="1711.5" y1="362.49" x2="1711.5" y2="471.54"/><line class="cls-2" x1="1552.88" y1="474.47" x2="1552.88" y2="576.48"/><line class="cls-2" x1="1763.17" y1="474.47" x2="1763.17" y2="573.15"/><line class="cls-2" x1="1431.54" y1="576.48" x2="1431.54" y2="680.97"/><line class="cls-2" x1="1620.49" y1="573.15" x2="1619.96" y2="680.97"/><line class="cls-2" x1="1482.78" y1="680.34" x2="1482.78" y2="782.25"/><line class="cls-2" x1="1701.49" y1="680.97" x2="1701.49" y2="782.25"/><line class="cls-2" x1="1540.48" y1="782.25" x2="1540.48" y2="888.14"/><line class="cls-2" x1="1746.35" y1="782.25" x2="1746.35" y2="888.14"/><line class="cls-2" x1="1580.92" y1="888.14" x2="1580.92" y2="985.19"/><path class="cls-2" d="M1712.51,980.46" transform="translate(3 3)"/><line class="cls-2" x1="1493.99" y1="983.46" x2="1493.99" y2="1083"/><rect class="cls-3" x="1471" y="782.25" width="69.48" height="105.89"/><rect class="cls-3" x="1519" y="888.14" width="61.92" height="97.05"/><rect class="cls-3" x="1580.92" y="985.19" width="65.08" height="97.81"/><polygon class="cls-3" points="1646 985.19 1646 888.14 1702.53 888.14 1702.75 985.19 1646 985.19"/><rect class="cls-3" x="1677" y="835.19" width="69.35" height="52.95"/><polygon class="cls-3" points="1725.5 888.14 1725.5 984.25 1786.25 985.19 1786.25 888.14 1725.5 888.14"/><rect class="cls-3" x="1786.25" y="985.19" width="62.5" height="97.81"/><polygon class="cls-3" points="1826.75 985.19 1826.75 888.14 1882.77 888.14 1882.77 984.76 1826.75 985.19"/><rect class="cls-3" x="1860.5" y="782.25" width="62.5" height="105.89"/><rect class="cls-3" x="1608.34" y="59.64" width="314.66" height="56.64"/><rect class="cls-3" x="1666.5" y="116.28" width="256.5" height="55.75"/><line class="cls-3" x1="1534.5" y1="3" x2="1534.5" y2="116.28"/><line class="cls-3" x1="1538.5" y1="116.28" x2="1538.5" y2="236.72"/><line class="cls-3" x1="1552.88" y1="236.72" x2="1552.88" y2="363.08"/><rect class="cls-3" x="1536.5" y="59.64" width="71.84" height="56.64"/><polygon class="cls-3" points="1538.5 116.28 1538.5 236.72 1672.35 236.49 1672.35 116.28 1538.5 116.28"/><polygon class="cls-3" points="1538.5 238.76 1648.19 238.76 1647.53 363.08 1538.5 363.08 1538.5 238.76"/><polygon class="cls-3" points="1505.21 362.8 1711.5 362.49 1711.5 418.38 1505.21 419.88 1505.21 362.8"/><rect class="cls-3" x="3" y="3" width="246.58" height="113.28"/><rect class="cls-3" x="3" y="116.28" width="128.8" height="118.38"/><polygon class="cls-3" points="3 234.66 249.58 235.21 249.58 360.1 3 357.11 3 234.66"/><polygon class="cls-3" points="88.41 1031.01 208 1031.01 208 979.02 89.5 979.02 88.41 1031.01"/><polygon class="cls-3" points="260 835 406.05 834.5 406.05 881.22 260 881.22 260 835"/><rect class="cls-3" x="436.9" y="980.76" width="101.37" height="48.25"/><rect class="cls-3" x="192.5" y="881.22" width="123.5" height="95.8"/><polygon class="cls-3" points="363.63 881.22 361.5 979.72 473.5 980.76 473.5 881.22 363.63 881.22"/><line class="cls-3" x1="87" y1="1083" x2="89.5" y2="979.02"/><polygon class="cls-3" points="316 930.89 362.56 930.99 362.56 948 316 948 316 930.89"/><line class="cls-3" x1="1677" y1="782.25" x2="1677" y2="888.14"/><polygon class="cls-3" points="271.5 522.82 550.14 523.79 547.33 579.33 270.68 577.69 271.5 522.82"/><polygon class="cls-3" points="1620.49 619.75 1918.67 619.75 1920 572.62 1620.49 573.15 1620.49 619.75"/><polygon class="cls-3" points="233.73 680.25 233.73 778.49 142.74 778.49 142.74 679.53 233.73 680.25"/><polygon class="cls-3" points="1593.35 679.53 1593.35 782.25 1711.5 782.25 1711.5 680.97 1593.35 679.53"/><polygon class="cls-3" points="79.64 576.48 79.64 679.53 3 679.53 3 574.78 79.64 576.48"/><polygon class="cls-3" points="290.89 363.08 290.89 472.52 386.43 472.66 386.43 363.08 290.89 363.08"/><polygon class="cls-3" points="1366.87 516.15 1552.88 516.15 1552.88 474.47 1365.43 474.47 1366.87 516.15"/></g><g id="Porta"><path class="cls-4" d="M652.52,251l-11.31,829H536.52l-1.25-245.68,5.11-142.71s4.5-87.72,6.76-116.92c2-26.23,6.9-78.66,10.14-104.81,2.23-18,7.65-53.95,10.86-71.86,3.33-18.55,11.56-55.56,18.37-73.45,4.36-11.42,14.23-34.41,22.92-44C617.81,271.3,652.52,251,652.52,251Z" transform="translate(3 3)"/><polygon class="cls-5" points="744.79 225.83 744.79 1083 644.21 1083 650.2 644.1 654.2 351.14 655.52 253.97 698.27 237.78 744.79 225.83"/><polygon class="cls-4" points="851.36 209.93 851.36 526.94 851.36 743.36 851.36 1083 744.79 1083 744.79 711.01 744.79 402.94 744.79 225.83 802.02 215.85 851.36 209.93"/><polygon class="cls-5" points="851.36 209.93 919.91 205.96 955.16 205.58 947.88 1083 851.36 1083 851.36 209.93"/><polygon class="cls-4" points="1072.81 209.93 1072.81 560.82 1072.81 1083 975.78 1083 975.78 205.2 1023.75 206.59 1072.81 209.93"/><polygon class="cls-5" points="1168.08 223.14 1168.08 504.6 1168.08 1083 1072.81 1083 1072.81 209.93 1108.71 213.81 1168.08 223.14"/><polygon class="cls-5" points="1267.65 1083 1261.98 253.97 1288.8 271.49 1315.25 307.51 1345.47 394.12 1361.09 474.47 1373.37 576.93 1382.87 733.34 1385.39 917.41 1381.27 1083 1267.65 1083"/><polygon class="cls-4" points="1168.08 223.14 1225.39 238.76 1261.98 253.97 1267.65 1083 1168.08 1083 1168.08 223.14"/><path class="cls-6" d="M609.43,280.56C519.69,380.68,536.52,1080,536.52,1080h841.75s31.75-651.56-80.9-799.44C1216.48,174.38,701.54,177.79,609.43,280.56Z" transform="translate(3 3)"/><polygon class="cls-7" points="949.96 205.67 947.88 1083 975.78 1083 978.56 205.28 949.96 205.67"/><polygon class="cls-2" points="578.78 434.9 590.93 449.15 949.38 449.15 949.45 420.65 567.68 420.65 578.78 434.9"/><polygon class="cls-2" points="978.56 420.65 1346.17 420.65 1318.13 449.15 978.56 449.15 978.56 420.65"/><polygon class="cls-2" points="554 810.6 567.08 824.99 947.88 824.99 947.88 796.2 543.85 796.35 554 810.6"/><polygon class="cls-2" points="978.56 796.35 1378.88 796.35 1351.45 824.85 978.56 824.85 978.56 796.35"/><ellipse class="cls-8" cx="925.68" cy="810.6" rx="5.77" ry="4.75"/><ellipse class="cls-8" cx="818.51" cy="810.6" rx="5.77" ry="4.75"/><ellipse class="cls-8" cx="707.6" cy="810.6" rx="5.77" ry="4.75"/><ellipse class="cls-8" cx="599.34" cy="810.6" rx="5.77" ry="4.75"/><ellipse class="cls-8" cx="1326.79" cy="810.6" rx="5.77" ry="4.75"/><ellipse class="cls-8" cx="1219.62" cy="810.6" rx="5.77" ry="4.75"/><ellipse class="cls-8" cx="1108.71" cy="810.6" rx="5.77" ry="4.75"/><ellipse class="cls-8" cx="1000.45" cy="810.6" rx="5.77" ry="4.75"/><ellipse class="cls-8" cx="931.45" cy="434.9" rx="5.77" ry="4.75"/><ellipse class="cls-8" cx="824.28" cy="434.9" rx="5.77" ry="4.75"/><ellipse class="cls-8" cx="713.37" cy="434.9" rx="5.77" ry="4.75"/><ellipse class="cls-8" cx="605.11" cy="434.9" rx="5.77" ry="4.75"/><ellipse class="cls-8" cx="1315.25" cy="434.9" rx="5.77" ry="4.75"/><ellipse class="cls-8" cx="1208.08" cy="434.9" rx="5.77" ry="4.75"/><ellipse class="cls-8" cx="1097.17" cy="434.9" rx="5.77" ry="4.75"/><ellipse class="cls-8" cx="988.91" cy="434.9" rx="5.77" ry="4.75"/><line class="cls-9" x1="963.87" y1="205.2" x2="961.83" y2="1083"/><line class="cls-10" x1="701.84" y1="500.75" x2="701.84" y2="580.85"/><line class="cls-10" x1="676.92" y1="609.34" x2="676.92" y2="680.97"/><line class="cls-10" x1="700.16" y1="693.95" x2="700.16" y2="753.26"/><line class="cls-10" x1="655.52" y1="851.95" x2="655.52" y2="910.48"/><line class="cls-10" x1="676.92" y1="910.48" x2="676.92" y2="951.3"/><line class="cls-10" x1="694.5" y1="956.69" x2="694.5" y2="1013.68"/><line class="cls-10" x1="682.53" y1="274.32" x2="682.53" y2="308.54"/><line class="cls-11" x1="610.88" y1="363.08" x2="610.88" y2="393.12"/><line class="cls-11" x1="630.19" y1="319.76" x2="630.19" y2="342.87"/><line class="cls-11" x1="593.57" y1="485.35" x2="593.57" y2="546.96"/><line class="cls-11" x1="589.06" y1="620.28" x2="589.06" y2="672.65"/><line class="cls-11" x1="623.64" y1="694.61" x2="623.64" y2="752.6"/><line class="cls-11" x1="578.78" y1="851.95" x2="578.78" y2="930.89"/><line class="cls-11" x1="599.34" y1="942.06" x2="599.34" y2="1006.75"/><line class="cls-11" x1="578.78" y1="1024.47" x2="578.78" y2="1066.83"/><line class="cls-11" x1="623.64" y1="874.28" x2="623.64" y2="922.8"/><line class="cls-10" x1="713.37" y1="331.31" x2="713.37" y2="386.77"/><line class="cls-11" x1="818.51" y1="230.42" x2="818.51" y2="298.97"/><line class="cls-11" x1="798.07" y1="340.17" x2="798.07" y2="393.12"/><line class="cls-11" x1="812.74" y1="476.68" x2="812.74" y2="540.8"/><line class="cls-11" x1="784.55" y1="589.22" x2="784.55" y2="629.47"/><line class="cls-11" x1="798.07" y1="714.38" x2="798.07" y2="778.49"/><line class="cls-11" x1="792.74" y1="868.6" x2="792.74" y2="918.28"/><line class="cls-11" x1="780.59" y1="1011.85" x2="780.59" y2="1051.32"/><line class="cls-11" x1="824.28" y1="980.76" x2="824.28" y2="1032.75"/><line class="cls-10" x1="913.57" y1="233.25" x2="913.57" y2="284.72"/><line class="cls-10" x1="887.23" y1="319.76" x2="887.23" y2="399.86"/><line class="cls-10" x1="879.07" y1="540.8" x2="879.07" y2="605.49"/><line class="cls-10" x1="913.57" y1="625.52" x2="913.57" y2="705.62"/><line class="cls-10" x1="887.23" y1="722.94" x2="887.23" y2="782.25"/><line class="cls-10" x1="909.66" y1="845.02" x2="909.66" y2="893.44"/><line class="cls-10" x1="879.07" y1="910.48" x2="879.07" y2="969.01"/><line class="cls-10" x1="906.59" y1="1025.43" x2="906.59" y2="1065.86"/><line class="cls-11" x1="1009.72" y1="221.7" x2="1009.72" y2="274.32"/><line class="cls-11" x1="1039.59" y1="303.59" x2="1039.59" y2="351.14"/><line class="cls-11" x1="1024.3" y1="480.73" x2="1024.3" y2="528.48"/><line class="cls-11" x1="1052.67" y1="585.08" x2="1052.67" y2="654.42"/><line class="cls-11" x1="1018.34" y1="679.71" x2="1018.34" y2="731.8"/><line class="cls-11" x1="1038.87" y1="843.09" x2="1038.87" y2="891.42"/><line class="cls-11" x1="1000.45" y1="888.14" x2="1000.45" y2="930.89"/><line class="cls-11" x1="1048.55" y1="959" x2="1048.55" y2="1002.52"/><line class="cls-11" x1="1012.17" y1="979.02" x2="1012.17" y2="1025.43"/><line class="cls-10" x1="1112.93" y1="234.66" x2="1112.93" y2="294.73"/><line class="cls-10" x1="1142.4" y1="319.76" x2="1142.4" y2="386.77"/><line class="cls-10" x1="1102.94" y1="460.7" x2="1102.94" y2="512.3"/><line class="cls-10" x1="1138.66" y1="545.04" x2="1138.66" y2="605.49"/><line class="cls-10" x1="1108.71" y1="650.74" x2="1108.71" y2="746.44"/><line class="cls-10" x1="1138.66" y1="844.05" x2="1138.66" y2="913.56"/><line class="cls-10" x1="1097.54" y1="909.52" x2="1097.54" y2="969.98"/><line class="cls-10" x1="1125.58" y1="983.46" x2="1125.58" y2="1043.91"/><line class="cls-11" x1="1202.31" y1="254.94" x2="1202.31" y2="307.56"/><line class="cls-11" x1="1236.85" y1="351.79" x2="1236.85" y2="404.41"/><line class="cls-11" x1="1208.08" y1="502.17" x2="1208.08" y2="580.85"/><line class="cls-11" x1="1245.26" y1="589.56" x2="1245.26" y2="659.41"/><line class="cls-11" x1="1194.75" y1="687.01" x2="1194.75" y2="752.6"/><line class="cls-11" x1="1213.85" y1="847.97" x2="1213.85" y2="910.48"/><line class="cls-11" x1="1241.48" y1="939.75" x2="1241.48" y2="992.37"/><line class="cls-11" x1="1201.29" y1="1009.06" x2="1201.29" y2="1061.68"/><line class="cls-10" x1="1280.74" y1="289.72" x2="1280.74" y2="336.7"/><line class="cls-10" x1="1315.25" y1="358.34" x2="1315.25" y2="397.87"/><line class="cls-10" x1="1289.15" y1="472.13" x2="1289.15" y2="541.51"/><line class="cls-10" x1="1351.45" y1="573.15" x2="1351.45" y2="633.22"/><line class="cls-10" x1="1315.25" y1="713.15" x2="1315.25" y2="773.22"/><line class="cls-10" x1="1295.69" y1="851.18" x2="1295.69" y2="911.25"/><line class="cls-10" x1="1340.56" y1="912.41" x2="1340.56" y2="972.48"/><line class="cls-10" x1="1305.04" y1="995.39" x2="1305.04" y2="1055.47"/><rect class="cls-12" x="856.6" y="625.41" width="82.39" height="80.31"/><path class="cls-9" d="M894.8,645.62s-6.53-.66-8.59,0c-2.42.77-7.17,3.6-8.47,6a24,24,0,0,0-2.63,8.45c-.3,2.84-.51,11.24.32,14,.72,2.35,3.93,6.18,5.77,7.61,2.27,1.75,7.22,4.79,9.92,5.49,2,.52,5.75,2.12,7.79,2.12s6.8-1.58,8.86-2.12c2.3-.59,7-2.61,8.47-4.65s2.33-7.84,2.42-10.56a53.4,53.4,0,0,0-2-13.11c-.73-2.37-2.49-7.26-4.23-8.87-2.4-2.23-11.94-4.27-11.94-4.27l-.38,5.11s4.92,2.56,6.16,4c1.41,1.61,3.24,5.74,3.85,7.87.75,2.64,2.13,8.44,1.15,11-.61,1.6-3.55,3.55-5,4.24a25.52,25.52,0,0,1-9.1,1.68,22.18,22.18,0,0,1-6-1.68c-1.42-.64-4.31-2.11-5.3-3.4-1.25-1.64-2.49-5.92-2.69-8a20,20,0,0,1,.77-5.9A18.61,18.61,0,0,1,887,654.7c1.59-1.59,7.82-4,7.82-4Z" transform="translate(3 3)"/><path class="cls-9" d="M891.33,644.64s-.53,5.6.1,6.59,2.55,3.24,4.83,3.46c2,.19,5.25-1.34,5.52-2.15,1.73-5.28,1.93-9.79-.08-12.73-.76-1.11-1.53-3-4.26-3.26-2.31-.2-4.63,1.93-5.36,2.79C890.55,641.15,891.33,644.64,891.33,644.64Z" transform="translate(3 3)"/><ellipse class="cls-8" cx="866.11" cy="634.32" rx="4.75" ry="5.22"/><ellipse class="cls-8" cx="930.16" cy="634.32" rx="4.75" ry="5.22"/><ellipse class="cls-8" cx="866.11" cy="696.25" rx="4.75" ry="5.22"/><ellipse class="cls-8" cx="930.16" cy="696.25" rx="4.75" ry="5.22"/><rect class="cls-12" x="986.4" y="625.41" width="82.39" height="80.31"/><path class="cls-9" d="M1024.59,645.62s-6.53-.66-8.59,0c-2.41.77-7.17,3.6-8.47,6a24,24,0,0,0-2.63,8.45c-.29,2.84-.51,11.24.32,14,.72,2.35,3.93,6.18,5.78,7.61,2.27,1.75,7.21,4.79,9.92,5.49,2,.52,5.74,2.12,7.79,2.12s6.79-1.58,8.85-2.12c2.31-.59,7-2.61,8.47-4.65s2.33-7.84,2.43-10.56a53.88,53.88,0,0,0-2-13.11c-.73-2.37-2.5-7.26-4.24-8.87-2.4-2.23-11.93-4.27-11.93-4.27l-.39,5.11s4.92,2.56,6.16,4c1.41,1.61,3.24,5.74,3.85,7.87.76,2.64,2.14,8.44,1.16,11-.62,1.6-3.56,3.55-5,4.24a25.51,25.51,0,0,1-9.09,1.68,22.08,22.08,0,0,1-6-1.68c-1.42-.64-4.32-2.11-5.3-3.4-1.26-1.64-2.49-5.92-2.7-8a20,20,0,0,1,.77-5.9,18.83,18.83,0,0,1,3.08-5.75c1.6-1.59,7.82-4,7.82-4Z" transform="translate(3 3)"/><path class="cls-9" d="M1021.12,644.64s-.52,5.6.11,6.59,2.54,3.24,4.82,3.46c2,.19,5.25-1.34,5.52-2.15,1.73-5.28,1.93-9.79-.08-12.73-.76-1.11-1.53-3-4.25-3.26-2.32-.2-4.63,1.93-5.36,2.79C1020.34,641.15,1021.12,644.64,1021.12,644.64Z" transform="translate(3 3)"/><ellipse class="cls-8" cx="995.9" cy="634.32" rx="4.75" ry="5.22"/><ellipse class="cls-8" cx="1059.95" cy="634.32" rx="4.75" ry="5.22"/><ellipse class="cls-8" cx="995.9" cy="696.25" rx="4.75" ry="5.22"/><ellipse class="cls-8" cx="1059.95" cy="696.25" rx="4.75" ry="5.22"/></g><g id="Faixa_-_reino" data-name="Faixa - reino"><polygon class="cls-13" points="1224.47 172.03 1268.95 219.01 1272.41 171.05 1346.17 167.35 1268.95 90.61 1217.1 124.44 1224.47 172.03"/><polyline class="cls-13" points="638.89 115.69 569.33 185.74 650.92 176.98 650.92 219.01 718.56 175.23"/><path class="cls-14" d="M831,41.77c-15.83,3.4-47.69,11.8-63.08,17.12-14.15,4.89-58.44,29.28-58.44,29.28S674,89.11,662.33,91C650,93,614,103.93,614,103.93l33.89,24.52,22.75,14L688.5,167l20.93,28s67-25,90-30.64c21.22-5.19,64.47-11.06,86.12-13.14,21.92-2.1,66-4,88-3.5,26.71.56,106.58,8.76,106.58,8.76s61.79,1.63,81.41,7.88c14.63,4.65,54.13,30.64,54.13,30.64s13-42.94,19.67-56c3.7-7.23,14.46-22.41,14.46-22.41L1304.4,83.8l-85.64-5.45c-9.74-.19-26.49-17.12-38.08-22.39-12.94-5.87-39.76-10.12-54.89-12.25-18.51-2.6-78.84-9-97.45-10.5-19.86-1.64-52-2.34-71.94-2.34-15.45,0-49.45,1.34-64.85,2.72C876.84,34.91,845.43,38.65,831,41.77Z" transform="translate(3 3)"/><path class="cls-15" d="M1229.85,145.86c-17.75-13.59-36-21.34-59.1-26.27-78.38-16.7-158.45-33.53-239-28-17.2,1.18-34.28,3.37-51.34,5.59C830.54,103.62,780,110.49,734.1,128.53c-20.26,8-32.12,16.79-51.1,26.8L710.5,192l91-31,55-8.75L902,147l47-1.5,57.72,1.5,41.28,4.81,43,3.19,42.5,2.5s25.77.71,36,6.85c26.5,15.9,45.36,26.79,45.36,26.79Z" transform="translate(3 3)"/><text class="cls-16" transform="translate(735.86 165.67) rotate(-26.45) scale(0.91 1)">R</text><text class="cls-16" transform="translate(780.35 143.44) rotate(-19.99) scale(0.91 1)">e</text><text class="cls-16" transform="translate(801.41 136.25) rotate(-15.8) scale(0.91 1)">i</text><text class="cls-16" transform="translate(815.5 132.21) rotate(-13.17) scale(0.91 1)">n</text><text class="cls-16" transform="translate(845.5 125.05) rotate(-10) scale(0.91 1)">o</text><text class="cls-16" transform="translate(872.02 120.56) rotate(-7.08) scale(0.91 1)"> </text><text class="cls-16" transform="matrix(0.91, -0.08, 0.09, 1, 894.4, 117.81)">d</text><text class="cls-16" transform="matrix(0.91, -0.05, 0.06, 1, 922.04, 115.16)">e</text><text class="cls-16" transform="translate(944.61 113.8) rotate(-0.73) scale(0.91 1)"> </text><text class="cls-16" transform="matrix(0.91, 0.03, -0.04, 1, 966.93, 113.44)">P</text><text class="cls-16" transform="matrix(0.91, 0.06, -0.07, 1, 1014.65, 115.37)">r</text><text class="cls-16" transform="translate(1037.78 117.02) rotate(5.17) scale(0.91 1)">ä</text><text class="cls-16" transform="translate(1065.52 119.44) rotate(6.72) scale(0.91 1)">g</text><text class="cls-16" transform="translate(1095.04 122.55) rotate(11.07) scale(0.91 1)">n</text><text class="cls-16" transform="matrix(0.88, 0.24, -0.26, 0.97, 1125.07, 128.78)">a</text><text class="cls-16" transform="translate(1151.83 135.93) rotate(17.19) scale(0.91 1)">n</text><text class="cls-16" transform="matrix(0.86, 0.3, -0.33, 0.94, 1181.49, 145.2)">z</text><polygon class="cls-17" points="652.8 174.94 682.32 160.63 699.67 184.83 652.18 215.66 652.8 174.94"/><polygon class="cls-17" points="1237.02 151.28 1245.08 155.42 1256.17 161.42 1263.67 165.5 1267.92 167.92 1270.08 169 1267.08 213.83 1228.58 173.42 1237.02 151.28"/></g></svg>