<?xml version="1.0" encoding="utf-8"?>
<!-- Generator: Adobe Illustrator 22.0.0, SVG Export Plug-In . SVG Version: 6.00 Build 0)  -->
<svg version="1.1" id="Layer_1" xmlns="http://www.w3.org/2000/svg" xmlns:xlink="http://www.w3.org/1999/xlink" x="0px" y="0px"
	 viewBox="0 0 800 800" style="enable-background:new 0 0 800 800;" xml:space="preserve">
<style type="text/css">
	.st0{fill:#9D7654;}
	.st1{fill:#73543B;}
	.st2{fill:#846248;}
	.st3{fill:#4C3A2A;}
	.st4{fill:#BDBBBA;}
</style>
<g>
	<path class="st0" d="M117.2,412.7c4.5-8.4,10.6-10.9,17.9-10.7c5.8,0.2,11.7-1,17.5-1.5c1.8-0.2,3.7,0,3.9-3.5c2.5,0,5-0.3,7.4,0
		c3.7,0.4,4.8-2.1,4.3-6.7c0.8-1.1,2.1-2.1,2.4-3.4c3.5-12.4,11.6-12.9,19.2-14.6c2.3-0.5,4.6-0.2,6.5-2.8c1-1.4,3.7-1.1,3-3.9
		c-0.8-2.9-3-1.4-4.6-0.9c-11.6,3.3-23.4,5.6-34.6,11c-1.6-0.1-2.4,1-2.4,3.1c-0.4,0-0.8,0-1.1,0.1c-2.1,0.1-3.4,2.1-5.1,3.5
		c-2.7,2.4-5.7,4.9-9.1,1.4c0.9-0.7,1.1-1.9,1-3.3c0.1-0.5,0.1-1,0.1-1.5c0.4-0.1,0.7-0.2,1.1-0.3c3.8,6.6,3.4-0.9,5.9-3.2
		c-2.7,0-4.2,0-5.8,0c0-0.5,0-1-0.1-1.5c2.6-0.3,5-0.9,7.1-3.3c9-2.3,17.7-6.7,27-6.9c2,0.2,3.5-0.9,4.8-2.9
		c4.9,0.1,9.8-0.4,15.3-3.8c-6-2.9-10.6,0-15.3,2c-1.6,0.1-3.2,0.2-4.8,0.3c-2.7,0.5-5.5,0.5-8,1.5c-6.4,2.5-13.3,2.5-19,8.1
		c-5.3-6.2,2.1-5.1,2.4-8c4-0.3,8.2,0.5,12.2-2.1c-1.4-2.4-4,0.3-4.7-4c4.7,1.8,8.9,1.2,12.6-3.1c-5.5,1.9-11.1,1-17.3,0.8
		c4.4-3.3,8.4-3.1,12.4-3.1c9.6,0,18.9-3.1,28.3-5c-0.2-2.6-3.5-0.3-2.6-4.7c5.7,0,11.5-0.1,17.3,0c2.4,0,4.4-0.2,4.2-4.6
		c9.5-0.4,19.1-0.8,28.6-1.2c1.1,0.2,2.1,0.4,3.2,0.6c1.4,2.8,3,2.2,4.7,0.5c3.8,0.2,7.6,0.5,11.4,0.7c0.7,1.7,1.4,3.1,2.8,0.9
		c2.7,0.1,5.5,0.2,8.2,0.3c3.3,2.2,6.9,1.3,10.3,1.4c15.1,0.2,30.1-0.6,45.2,0.7c0.8,3.3,2.9,2.3,4.5,2.2c14.1-1,28.1,2.5,42.2,1.9
		c1.1,0,2.4-0.6,3.6,2.3c-2.4,1-5,6.9-6.5,3.3c-2.6-6.6-5.6-3.3-8.6-3.3c-4,0-8,0.4-12.1,0.1c-13.6-0.9-27.1-3.1-40.8-1.9
		c17.4,2.9,34.7,6.1,52.2,6c2.2,0,4.8-1.5,6.6,1.8c-3.1,0-6.2,0-9.3-0.1c-8.6,0-17.2,0-25.9,0c0,0.6,0,1.1,0,1.7c4.6,0,9.2,0,14.2,0
		c-1.1,2.5-3.1,0.3-3.6,3c3.6,0,7.1,0,10.6,0c3.5,0,6.9,0,10.4,0c0.4,1,2.7-1.9,1.7,1.8c-1.3,5-5.1,2-8.2,4.8c4,0,6.9-0.1,9.8,0
		c1.7,0.1,4.5-1,4.9,1.3c1.3,6.7,2.6,4.1,3.8,0.4c0.8-2.4,3.1-0.5,3.9-3.9c-3.3,1.3-5.6-0.8-7.7-3.8c4.8-1.9,9.5-3.7,14.6-2.6
		c-0.5-5.2-2.5-4.2-4.8-3.3c-1.9,0.7-4,1.4-6.3-2c11.7-1.8,22.7-1.1,33.2-6.7c-6.3,1.2-12.6,1.3-19.6,0.8c2.2-2.1,4.3-2.9,4.2-6.3
		c0.8,0,1.5,0,2.3-0.1c0.2,1.8,0.7,3,2.3,2.5c5.6-1.9,11.3-0.5,17-0.8c1.6-0.1,3.6-1,5.5,2.5c-3.4-0.2-6.3-2.4-8.6,1.8
		c2.5,0.7,5.2,2.6,7.3,1.7c9.8-4.3,19.8-2.2,29.7-2.8c1-0.1,2.5,0.5,2.6-2.9c-8.3-0.8-16.8,0.6-25-1.7c1.6-3.2,4-1.7,5.9-1.7
		c24.8,0.3,49.6,0.9,74.3,1.3c7.8,0.1,15.5-2.4,23.3-0.7c-3.1,5.4-7.3,1.2-10.8,2.6c-1.1,0.4-2.5-1.3-3.3,1.4
		c-1.1,3.6-1.3,3.6-3.2,2.4c-6.5-4.2-12.8-3.1-18.6,2.3c-1.3,1.2-4.3,1.4-3.8,5.2c0.4,3.3,3.3,0.7,4.3,2.7c-8,3.6-16.4,2.1-24.7,3.3
		c2.5,0.2,3.6,5.8,6.5,3.1c4.5-4.2,9.1-1.8,14.2-1.8c-2.9,9.1-8.6,4.4-12.6,6.8c2.7,2.4,6.1-1,8.4,2.6c-2.3,0-4.6,0.1-7,0.1
		c-5.9-0.6-11.5,1.5-18.1,2.5c3.6,4.1,7.2,0.3,9.7,3.9c-4.3,0.1-8.3,1.4-12.7,3c2,3,4,1.5,5.7,1.8c0,1,0.1,2.9,0,2.9
		c-3.6,0.3-6.4,3.8-10.1,3.9c-3.9,0.1-7.9,0.5-12.3,4.7c10.8,0.7,19.9-3.6,29-7.1c5.7-2.2,11.2-2.4,16.8,2.4c-1.1,1-1.7,1.7-2.3,2.3
		c-3.7,3.3-11.1-4.8-12,7.4c-0.5-0.7-1.2-2.1-1.6-2c-7.3,2.2-14.8,2.1-23.1,2.2c2.4,4.2,4.5,2.9,6.2,3c7.8,0.3,14.1,4.4,18.7,13.3
		c-4.9,0.6-9.7-0.8-14.7-0.2c8.3,0.8,15.7,7,24.1,6.7c0.1,0.3,0.2,0.5,0.2,0.8c0,0.2-0.2,0.6-0.3,0.6c-2.7,0.1-5.4,0.2-8.2,0.3
		c-8.3,0.7-16.1-2.6-24-5.1c-12.8-3.9-26.2-3-38.3-11.4c0.2-4.2,2.4-3.4,4.2-3.4c4,0,8,0.2,12.1,0.3c1.2,4.6,3,7.6,7,6.5
		c0.8-0.2,1.7,1.2,2.6,1.4c5.3,1,10.5,3.6,17.3,2.7c-2.3-2.3-3.3-3.3-4.3-4.3c0.1-0.2,0.2-0.4,0.3-0.7c-0.1,0.2-0.2,0.5-0.2,0.7
		c-6.2-0.1-10.8-5.3-15.5-9.9c-2-2.9-4.4-1.2-6.7-1.5c-1.6-0.3-2.4,0.8-2.6,3c-2.5,0-5.1,0-7.6,0.2c-3.5,0.3-6.4,0.1-7.4-6
		c-0.5-3.3-2.8-3.9-5.1-4.1c-3.6-0.3-6.9,1.3-10.3,1.9c-1.7,0-3.5,0.2-5.2-0.1c-3.7-0.7-5.3,1.2-4.4,6.4c-3.4,0-6.9,0-10.3,0
		c3.5,1.9,7,1.7,10.3,3.6c-0.5,1.3-1.4,1.5-2.3,1.5c-10.1-0.8-20.3,1.2-30.4-1.4c-1.3-0.3-3.6-1-3.4,2.5c0.1,2.7,2,2.1,3.3,2
		c2.3-0.3,4.6-0.8,6.9-1.3c2.8,5,5.6,4.7,8.5,0.2c5.1-0.1,10.2-0.2,15.2-0.3c4.1,0.4,8.8-2,12.1,4.6c-3-0.1-4.4,2.1-5.1,5.4
		c-5.5-0.5-10.9-1.1-16.4-1.6c-3.2-1.6-6.4-2-9.8-2c-9-0.2-18,1-27-1.4c-3-0.8-4.9-1.6-4.5-6.4c1.1-0.5,2.6,0.6,3.6-1.3
		c-1.1-1.5-3,0.3-3.8-1.5c8.6-5.1,17.7-6.1,26.8-6.3c2.5,0.7,5.6,2.9,5.2-4c3.7,0.7,7.4,2.7,10.6-1.9c7.8-1.7,15.7-3.3,23.5-5
		c1.2-0.1,2.4-0.1,3.6-0.2c4.5-0.7,9-1.4,13.4-2.2c0-0.6-0.1-1.2-0.1-1.9c-4.5,0.3-8.9,0.7-13.4,1c-1.3-0.1-2.7-0.4-3.6,1.5
		c-3.1,0-6.3-0.1-9.4-0.1c-1.1-1.4,3.6-4.6-0.6-4.7c-8.5-0.3-17.1-0.9-25.4,3.2c-5.6,0.4-11.3-0.9-16.9,1.6
		c5.8,2.8,11.4,1.8,16.9-1.6c6-0.6,12,1.1,17.9-1.3c2.3-1,4.2,0.4,4.4,4.4c-3.8-0.6-7.2,1.3-10.6,3.6c-11.3-0.8-22.3,5-33.6,3.4
		c-0.7-0.1-1.9,0.5-2,1c-0.5,5.7-3.6,3.2-5.8,3.6c-4.6,0.8-9.4-1.4-13.7,2.1c-4,0.7-7.6,4-11.8,3.2c-1.1-0.2-3.9-2.1-3.8,2.4
		c0.1,3.2,0.7,5.9,3.7,5.5c1.5-0.2,3.1,0,4.7,0c2.6,1.9,5.3,3.1,8.3,3.2c0.7,5,3.6,3.1,5.6,3.3c11,1.2,22-3.1,33.1-0.2
		c4.6,1.2,9.5,3.5,14.3,0.2c3.2,5.6,7.8,2.4,11.7,3.4c-0.2,1.4-0.6,3.1-1.6,2.9c-6.1-1.4-11.5,3-17.3,3.8c-2.5,0.8-5.1,1.6-7.6,2.3
		c0,0.8,0.1,1.5,0.1,2.3c5.7,0,11.3,0,17,0c0.8,0,1.6,0,2.4,0.1c3.9,0,7.9,0.1,11.8,0.1c1.2,3.3,5.5-0.8,5.8,4.6
		c-9.4,0.2-18.7-2.6-28.2-1.4c-4.6,0.6-8,6.6-13.1,5.6c8.5,0.8,16.8,4.2,25.4,2.5c-2.7,1.1-5.2,4.5-7.7,2.8c-5.7-3.8-7.2,6.8-11.8,6
		c0.2,1.9,2.5,0,2.3,2.3c-4,1.3-8.3-1.4-12,3.6c4,0,8,0,11.9,0c-12.9,2.6-25.7,1-38.5,1.8c17.7,1.4,35.3,1.3,53,1.6
		c1.9,0,2.9-3.1,5.2-1.1c4.2,3.7,9.3,3.1,14.1,4.1c10.6,2.2,20.6-5.8,31.2-3.5c-6-3.9-12.7-2.2-19.3-5.7c5.9-2,10.8-4.1,16.3,0.5
		c2.5,2.1,6.6,3.1,9.4-0.4c2.7-3.2,5.4-2.4,8.3-1.7c1.6,0.4,3.2,2.3,4.9-1c-2.2-2.2-4.6-1.2-6.8-1.3c-3.9-0.2-3.5-3.1-2.3-6.6
		c5.5,0,11,0,16.5,0.1c0.1,0.2,0.1,0.4,0.2,0.5c0.1,0.1,0.2,0.1,0.3,0.1c-0.2-0.2-0.3-0.4-0.5-0.7c-1.2-1.1-2.4-2.1-3.6-3.2
		c0-0.5,0.1-1.1,0.1-1.6c4-1.4-0.6-2.2-0.1-3.3c-0.2-2.2,2.9-4.3,0.1-6.6c7.7,2.5,15.8,0.7,23.2,3.9c-5.1,9.4-12.3,4.4-18.8,5.1
		c7.4,4,15.1,2.2,22.7,2.5c2.4,2.7,5.6,1.5,8.1,3.3c-3.2,3.6-7.2,0-10.7,2.3c1.8,1.8,3.9,0.4,5.7,1.1c2.6,1,5,3,5.4,6.5
		c0.6,4.8,0.4,5.5,3.1,4.3c5-2.1,10.1-0.7,15.1-1.3c3.1-0.4,6.4-0.3,9.1-2c1.3-0.8,1.6-6.3,3.9-2.2c1.2,2.2,4.8,2.7,3.7,7.2
		c-1.1,0-2.2,0-3.4,0c-1.7-4.3-3.3-4.3-4.9,0.1c-15.3,0.7-30.6,1.3-45.9,2c-6.3-2.5-12.6-2.8-18.8,0.1c-4.6,0-9.3,0.1-13.9,0.1
		c-4.8,0.6-9.7,1.3-14.9,1.9c1.1,3,2.8,2.4,4.2,2.9c-7.2,4.1-14.9,1.4-22.3,2.4c-4.7,0.6-9.7-0.4-14.4-2.6c-1-1.7-2.4-1.4-3.8-1.7
		c-16.2-3-32.5-1-48.8-1.6c-37.9-1.5-75.7,2.2-113.5,4.6c0.7-3.1-2.2-7.5,0.8-9.2c3.5-1.9,1.6-5.2,0.7-5.9c-4.3-4-1.3-6.4,0.7-9.1
		c1.6,0.9,3.2,2.7,5.2,0.5c-0.9-2.3-2.5-2.1-3.9-2.4c0.3-3.9,2-2,3.4-1.6c7.4,1.9,14.9,3.7,22.6,5.6c-0.7-3.2-3.5-1.9-3.8-5.2
		c5.3,2,3.6-6.6,7-8.6c4.2-2.4,7.3,2.9,11.5,1c-3-4.1-7.8-2.2-10.3-6.6c5.2-3.4,9.8,5.4,15.7,0.7c-3.4-2.4-6.3-6.2-8.9-6
		c-8.1,0.7-13.6-6.1-19.5-11.3c-3.5-3-6.2-8.2-4.7-15c3-0.1,5.6-1.1,6.4-6.5c-4.4,1-8.4,2-12.4,2.9c-2-0.4-4.2,1.1-5.9-1.6
		c0.6-0.5,1.6-1,1.7-1.6c0.1-1.1-0.8-1.7-1.5-1.6c-2.4,0.5-4.8,1.1-7.2,1.6c-1.2-0.5-2.6,0.6-3.7-1c1.9-3.3,4.7-4.6,7.1-7.1
		c-4.3,1.7-9.2-0.4-12.8,4.7c-0.4,0-0.8,0-1.2,0c-5.5-5.6-10.1-3.8-14.1,3.3c-3.1,2.6-7.8,3.9-4.7,11.4c0,0.5,0,1.1,0,1.6
		c-1.6,0-3.1,0.1-4.7,0.1c-0.8,0-1.6,0-2.4,0c-5.5,0.7-11.2-1.9-16.6,1.6c-1.4,1.5-2.4,3.1-4.4,4.1c-7.4,4-16.1-0.8-22.9,6.9
		c-1.4,1.6-4.2,1-6.1-1.1c-1.1-1.2-2.4-1.8-3.8-1.7c-1.6,0.1-3.3,0.3-3.6,3.1c-0.2,2.4,1.3,3.7,2.7,3.3c2.8-0.7,4,3.3,6.3,3.4
		c2.3,0.6,4.7,1.2,7,1.8c-0.4,2.6-0.8,5.2-1.2,7.8c-3.1,0.1-6.2,0.2-9.3,0.3c-6.1,0-12.2,0-18.2,0c0,0.9,0.1,1.9,0.1,2.8
		c7.2,0.8,14.3,4.4,21.6,0.6c0.8,0,1.5,0,2.3,0c0,2.1,0,4.1,0,6.2c0,0-0.1,0.1-0.1,0.1c-0.7,0.1-1.5,0.1-2.2,0.2c-0.3,0-0.7,0-1,0.1
		c-2,0-4.4-1.5-4.9,3c-3.5,1.4-7.1-1.1-10.6,1.2c-1.7,1.1-4.1,1.5-5.8-1.3c-2.8-3-6.1-0.9-9.1-1.6c-0.4-7.4-6.3-2.5-8-7.2
		c5.5-6.2,13.6-3.6,18.8-10.8c3.5-2.4,3.6-2.8,1.2-4.8C119.6,414.1,118.4,413.5,117.2,412.7z M458.3,370.7c-5.6,0.1-11.4-1-16.7,3.2
		C447.2,374.1,452.8,373.2,458.3,370.7c0.9-0.2,1.7-0.5,2.6-0.7c-0.1-0.2-0.2-0.6-0.3-0.6C459.5,368.9,458.8,369.5,458.3,370.7z
		 M259.2,400.1c-1.6,3.7,1,3.9,2.3,5c0,0.5,0,1.1,0,1.6c-0.5,0.2-1.3,0.3-1.3,0.6c-0.1,1.4,0.8,0.8,1.3,1c4,3.2,8.4,4.7,13,5.2
		c2.4,1.3,3.6,6.1,6.9,4.8c6.5,5,13.7,4.3,20.8,5c-5.3-6.1-12.2-4.4-18.2-7c-2-5.5-7.4-1.2-9.6-6.2c-3.6,0.2-3.4-7.1-7-6.7
		c0-1,0-2.1,0-3.1c4-2.6,8.4-1.5,12.6-2c6.3,2.6-0.4,4.9-0.2,8.6c4.6-2.2,8,2.5,12.2,3.2c6.2,5,12.9,7.6,20.1,8
		c5.9-0.3,12,4.3,17.9-0.8c-6.1,0.4-11.9-1.7-17.8-2.3c-5.2-0.4-10-2.3-14.2-6.5c2.4-6.4-1.4-4.6-3.5-4.9c-0.4-0.1-0.8-0.2-1.1-0.3
		c0-0.3,0.1-0.7,0.1-1c1.6-0.4,3.3-0.4,3.3-3.6c4.2-10.4,12.5-10.6,20.6-15.5c-10.6-2.7-18.6,3.5-27,6.2c-4.8,1.6-8.4,4.1-10.5-4.5
		c-0.5-2.2-1.6-2.1-2,0.5c-5.1,0.3-11.1-1.8-14.9,3.7c-2.6,3.9-5.9,5.1-8.7,8c-0.4,0.3-0.9,0.7-1.3,1c0.8,0.1,1.5,0.2,2.3,0.3
		c0.8,0.1,1.7,0.2,2.5,0.3C258.3,399.1,258.8,399.6,259.2,400.1z M339.3,432.8c8.6,0.4,17-2.6,25.6-2.8c-8.5,0-17.1,0-25.6,0
		c-4,0-8,0-12,0c-15.9-0.3-31.8,0.8-47.5-6.7c0.5,4.9,2.7,6.2,5.1,6.4c5.6,0.5,11.2,2.6,16.9,1.8c8.1-1.2,16.3,4.2,24.4,0.1
		c0.2,2.3,1.2,3.6,2.8,2.7C332.4,432.2,335.9,433.6,339.3,432.8z M183.8,388.8c0.1,2.2-0.9,5,1.4,6.2c1,0.5,1.9-0.2,2.5-1.4
		c1.3-2.6-0.2-3.8-1.5-4.9c3.5-5,7.8-8.5,14.1-11.9C191.6,375.1,185.4,380.4,183.8,388.8z M302,344.2c-26.6,7.5-53.6,8.4-80.4,12.4
		c0.2-4.4,2.9-2.6,3.2-5.6c-2.2,0-4.4-0.1-6.6,0c-1.7,0.1-4.3-1.1-4.6,1.8c-0.7,5.7-3.8,7.8-6.6,11.1
		C238.4,353.2,271.1,358,302,344.2z M426,383.8c11.6-2.3,23.8,0.4,34.9-7.2C449.2,377.3,437.5,379,426,383.8z M254.7,347.2
		c12.5,0.7,25-1.1,37.4-5.5c-4.7,1.2-9.2,1.5-13.6-1.6c-1.2-0.8-2.3,0-3,1.6c-1,2.4-2.7,2.9-4.6,2.8
		C265.4,343.9,260.1,345.2,254.7,347.2z M370.8,419.4c-10.2-3.8-20.3-2.8-30.5-2.2c0,0.7,0,1.5,0,2.2
		C350.5,419.4,360.7,419.4,370.8,419.4z M289.4,378.9c0.1,0.8,0.2,1.5,0.2,2.3c3-0.6,6.2-2.3,8.9-1.4c2.8,0.9,4.8-4.2,8.1-0.5
		c1.8,1.9,5.6,0,7.6-5C305.3,373.4,297.4,376.9,289.4,378.9z M340,425.9c-10.9-2.9-21.1-3.1-31.3-2
		C318.8,425.4,328.9,427.6,340,425.9z M405.5,367.9c0,0.4-0.1,0.8-0.1,1.2c2,0,3.9,0.1,5.9,0c1.5-0.1,3.3,0.9,4.2-1.6
		c0.5-1.4,0.1-3.2-0.7-3.5c-1.8-0.7-2.9-4.6-5.4-2c-1.2,1.3-2.7,2.1-4.2,3.2c1.2,1.5,2.9-0.3,3.8,2
		C407.7,367.3,406.6,367.6,405.5,367.9z M432.5,363c8.7,1,17.3,2.1,25.6-2C449.6,361.6,441,362.3,432.5,363z M307.6,436.7
		c0,0.5,0,0.9,0,1.4c6.9,0,13.8,0,20.7,0c0-0.5,0-0.9,0-1.4C321.4,436.7,314.5,436.7,307.6,436.7z M335.3,442.2c-7.5,0-15,0-22.6,0
		c0,0.7,0.1,1.5,0.1,2.2C320.4,441.6,328,443.7,335.3,442.2z M270.9,371.5c-6.1-1.3-11.9,0.7-17.7,3.2
		C259.3,376.2,264.9,372,270.9,371.5z M329.2,374c-4.2-2.2-8.4-1.9-14.1-0.4C320.7,377.3,325,374.1,329.2,374z M443.9,357.4
		c-5.6,0.9-11.2,1.8-16.8,2.6c0.1,0.7,0.1,1.5,0.2,2.2C432.6,359,438.6,363.1,443.9,357.4z M374.2,372.1c0-0.3,0.1-0.6,0.1-0.9
		c-7.8,0-15.5,0-23.3,0c0,0.3,0,0.6,0,0.9C358.8,372.1,366.5,372.1,374.2,372.1z M332.2,373.3c4.9,0.6,9.8,1.5,14.6-1
		C341.7,369.4,337,372.3,332.2,373.3z M254.8,445.9c0-0.7,0-1.4,0.1-2.1c-4.9-2-9.9-2.8-15.2-1.7
		C244.8,443.4,249.8,444.6,254.8,445.9z M135.5,417.8c-3.4,0-6.7,0-10.9,0C128.4,421.9,131.9,421,135.5,417.8z M303.6,453.4
		c-4.7,0.3-9.4-1.7-14.1-1.1C294,455.5,298.9,454,303.6,453.4z M269.6,449.5c-5.1-4.1-8.5-4.7-11.1-2.3
		C262,448,265.3,448.6,269.6,449.5z M361.4,367c0-0.3-0.1-0.5-0.1-0.8c-5,0-9.9,0-14.9,0c0,0.3,0,0.5,0,0.8
		C351.4,367,356.4,367,361.4,367z M348.7,423.6c0,0.2,0,0.5,0,0.7c3.8,0,7.6,0,11.4,0c0-0.2,0-0.5,0-0.7
		C356.4,423.6,352.5,423.6,348.7,423.6z M416.3,370.6c2.9,1.9,6.2,2,9.4,0C422.6,370.6,419.4,370.6,416.3,370.6z M433.8,369.9
		c-1.5-1.7-2.7-3.5-4.7-0.9C430.5,371.3,432,370.9,433.8,369.9z M413.8,373.1c-3.5-0.9-5.4-1.1-7.9,0.1
		C408.3,374.3,410.2,374.1,413.8,373.1z M428.1,379.3c-0.4-0.5-0.7-1.2-1.2-1.5c-0.5-0.3-1.1,0-0.9,1c0.2,0.6,0.7,1,1.2,1.3
		C427.5,380.1,427.8,379.6,428.1,379.3z M444.5,389.5c-0.3-0.2-0.6-0.6-0.9-0.6c-0.3,0-0.6,0.4-0.9,0.7c0.3,0.2,0.6,0.6,0.9,0.6
		C443.8,390.2,444.1,389.8,444.5,389.5z M260.9,441.4c-0.3,0.3-0.6,0.5-0.9,0.7c0.3,0.2,0.6,0.6,0.9,0.6c0.3,0,0.6-0.4,0.9-0.6
		C261.5,441.8,261.2,441.6,260.9,441.4z M396.1,350.2c-0.3-0.2-0.6-0.6-0.9-0.6c-0.3,0-0.6,0.4-0.9,0.6c0.3,0.2,0.6,0.6,0.9,0.6
		C395.5,350.8,395.8,350.4,396.1,350.2z M272.3,449.9c-0.2,0.1-0.4,0.1-0.5,0.2c0,0,0.1,0.4,0.1,0.6c0.2-0.1,0.4-0.1,0.5-0.2
		C272.4,450.4,272.3,450.1,272.3,449.9z"/>
	<path class="st1" d="M705.8,428c-7.4,5.1-14.7,10.1-22.1,15.2c-4.5-1.6-8.9-0.1-13.3,1.3c-0.6-4.5-3.1-3.2-5.1-3.2
		c-8.5-0.1-17,0-25.5,0c-1.4-4.2-4.2-3.3-6.7-3.3c-9,0-17.8-1.7-26.7-2.9c-5.3-0.7-10.9-1.8-17,2.4c8.2,1.3,15.5-0.6,22.5,2.6
		c-5.6,1.2-11.2,1.1-16.8,1.3c-2.7,0.1-6-1.6-8,1.1c-3.3,4.4-7.1,3.8-11,3.8c-8.9-3.6-17.9-0.2-26.8-2.4c0,0.8,0,1.6,0,2.5
		c8.2,0,16.3,0,24.5,0c0.8,6.1,5.2,1.1,7.3,4.9c-2.5,0-4.6,0.2-6.7,0c-3.5-0.4-4.6,1.9-4.1,6.3c-1.4-1.1-2.4-2.8-4.6-1.9
		c-2.7,1.2-5.8,1.2-8.5-1.1c-0.8-1.5-2-1.6-3.1-1.6c-4.9,0-9.8,0.1-14.6,0c-4.4-0.2-7.2-7.3-12.3-4.7c2.2-3.7,5.7,0.4,7.7-5.7
		c1.6-4.8,4.1,2.9,6,3.1c2.1,0.2,5.7,0.3,7-4.2c0.9-0.2,1.9-0.2,1.8-2c0-0.2-0.2-0.5-0.4-0.5c-1.3-0.1-1.3,1.3-1.4,2.5
		c-2.1,0.3-4-0.6-5.1-3.2c-1.3-3.1-3.2-3.7-5.5-3.3c-3.3,0.5-6.5-0.8-10.2-1.5c1.3,2.4,2.4,3.9,3.1,5.7c0.8,2.3,0.6,4.1-1.8,4
		c-9.7-0.2-19.2-1.3-28.7-4.1c5.6-2.6,11.4,3.6,17.1-1.4c-3.1,0.1-6-0.2-6.6-5c-0.5-3.8,2.8-1.6,3.9-3.7c-2.6-1.4-5.2-4.5-6.7,2.1
		c-0.5,2.4-2.5,2.2-4.1,2.2l0,0c-3.6-2.2-8.5-1.8-9.3-9.4c3.4-1.8,7.3,0.1,10.7-3c-1.3-1.7-3.7,0.3-4.3-2.7c3.8-4.3,7,1.7,10.4,0.7
		c8.8-2.7,16.9,3.8,25.6,4c5,0.1,10,4.3,15,6.5c3.3,1.5,5.2-2.4,7.5-4.3c0.8-0.6-2.3-0.9-2.5-3.5c5.6-0.1,10.9-4.2,16.7-1.8
		c1.6,0.7,3.9,0.2,3.9-3.2c0-2.8-1.9-3.1-3.5-3.1c-1.2,0-2.5-0.3-3.5,0.5c-5.1,4.1-12-0.7-16.4,6.8c-0.5,0.8-2.6,1-3.3,0.3
		c-4.1-4.3-8.7-2.3-13.1-2.8c-4.9-0.6-9.3-3-13.5-6.6c8.3,0.6,16.7,5.6,24-2.3c-5.5-6.3-12.6-0.9-19.2-5.5c3.3-0.2,6.1-0.4,8.8-0.6
		c0-0.3,0-0.7,0-1c-2-0.9-3.9-1.8-6-2.7c1.4-2,3.6,0.4,5.6-3.2c-7,3.3-12.2-4.3-18.5-2.5c-8.6,0-17.3,0-25.9,0c0-0.6,0-1.1,0-1.7
		c12.1,0,24.2,0,37.7,0c-3.5-2.5-6.2-2.1-8.1-4.8c0.7,0,1.5,0,2.2,0c0.4,0,0.8,0,1.2,0c5.6,2.2,11,2.4,16.1-2.7
		c1.4-1.4,3.5-1.3,5.9-0.1c4.9,2.4,10.3,2,15.5-0.2c1.1-0.5,2.5-0.9,2.2-3c-0.2-2.1-1.6-2.2-2.8-2.1c-3.3,0.2-6.7-1.1-9.8,1.6
		c-2.7,2.4-5.1,1.2-7.4-0.8c0.2-3.4,3.1-1.2,3.8-3.6c-1.4-1.3-3.4,0.7-4.6-1.8c1.7-0.2,3.2-0.4,6.1-0.8c-9.4-5.3-17.5-1.5-25.7-1.5
		c6.1-4.5,13.2-2,19.6-4.6c0.2,0.1,0.3,0.2,0.5,0.4c-0.2-0.1-0.3-0.2-0.5-0.4c0.2-2.5,1.1-3.7,2.7-1.9c1.9,2.2,4,2.3,6.1,1.7
		c8.4-2.6,16.8-5.8,25.3-8c6.6-1.7,11.5-10.6,19.1-8.3c2.7,0.8,2.7,0,4.5-4.2c0.5-1.1,2-1.5,3.1-2.1c1.5-0.7,3.5,0.9,5.1-2.6
		c-3.2,0.5-3.8-3.6-5.8-4.8c-4.2-2.5-6.5,2.2-9.7,4.7c-5.7,4.4-12,7.2-18.1,10.5c-1.4,0.8-3,3.1-4.2,0.9c-1.3-2.4,0.9-3.6,1.9-5
		c5.4-7.6,5.5-9.5,0.5-13.9c0.8-1.5,1.9-1.5,3.1-1.7c13.1-1.8,26.2-2.5,39.3-0.1c1.7,0.3,3.5,0.8,5.1-0.9c0.7,0,1.3,0,2,0.1
		c2.1,5.3,5.8,1.5,8.6,2.9c0.3,3.6,2.3,3.2,4,3.2c3.9-0.1,7.8-0.2,11.7-0.3c2-0.6,3.9-0.1,5.6,1.6c-0.2,1.8,0.2,4.7-1.5,4.8
		c-6.4,0.6-12.4,6.5-19.3,2.8c-4.4-2.3-8.9-0.2-13.2,1.9c-1.6,0.8-3.1,2.9-2.3,5.9c0.4,1.4,1.7,1.7,2.5,0.8c7.4-7.6,15.9-2.4,23.8-4
		c4.3-0.9,8.7-3.5,13.5-1.3c-2.6,2-7.3,0.5-7.6,4.3c-0.4,5.7-3.5,5.9-5.4,6.3c-13.3,2.7-26.7,4.1-40,7.1c-7.2,1.6-14.9,1.1-21.2,7.9
		c10-4.1,20.6-2.4,30.6-5.8c1.1-0.4,2.5-1.3,2.8,1.1c0.2,2-1.2,2.7-2.4,2.9c-1.6,0.2-3.1,0.3-4.7,0.2c-6.5-0.7-12.3,3.6-18.5,5.5
		c9.5-0.4,18.9-3.7,28.8-1.7c-6.9,3.3-13.4,5-20.4,4.5c-3.2-0.2-6.5,1.3-9.8,1.9c-3,0.6-4.2,3.4-4.1,7.3c0.1,4.9,2.9,3.9,4.8,3.6
		c11.1-1.7,22.3-3.7,33.3-5.6c0.3-3-2.9-3.9-2.2-4.2c4.3-1.8,0.5-4.5,0.6-6.5c0.1-1.9,0.8-2.8,2.1-3.4c2.1-1.1,4.2-1.3,6.3-1.6
		c6.3-0.9,12.6-1.8,18.3-5.7c-9.2-1.7-18.1,4.9-27.2,0.9c10.8-4.9,22.4-3.1,33.2-7.6c1.4-0.6,2.7,1.3,2.9,3.2
		c0.2,2.1-1.2,2.3-2.4,2.7c-0.9,0.3-2-0.5-2.7,1.2c2.6,0.9,4.9,0.2,7.4-0.4c8.1-1.9,16.1-5,24.4-5.6c0.1,1.5,0.1,3,0.2,4.5
		c-2.3,0.1-4.7,0.3-7,0.4c-4.3,0.3-5.3,2.8-2.1,7.7c-2.5,0.7-4.5,1.5-6.5,2.5c-3.2,1.6-6.2,6.6-9.6,4.2c-4-2.8-7.4-1.3-11.1,0
		c-1.7,0.6-4.8-0.2-4.3,3.6c0.4,3.2,3.5,2.1,5.1,1.5c9.1-3.7,18.7-1.6,27.7-5.3c2.2-0.9,3.6-0.3,5,2.6c-2.7,2.4-5.5,0.3-8,2.5
		c3.3-3,2.8,8.5,6.7,2.9c1-1.4,1.9-3.6,3.2-1.4c1.1,1.9-0.7,3.2-1.6,4.5c-0.6,0.9-1.8,1.2-1.7,3.1c8.3,1.7,16.3,0.5,24-4.3
		c1.7-1,2.9-0.2,3.2,1.9c0.3,2.5,2,5.6,0.6,7.6c-1.4,2-3.7,2.3-6,2.5c-6.5,0.5-13-3.5-19.4,0c-3.8,2.1-7.5,4.2-11.7,3.4
		c-1.2-0.2-3.4,0-2.3,2.8c1.2,3,0.8,6.7,1.8,9.2c1.5,3.4,4.9,8.7,6.9,6.6c3-3.1,6.5-2.8,9.3-5.5c6.6-0.6,13.6-3,18.1,6.9
		C705.2,427.3,705.5,427.6,705.8,428z M553.7,436.3c4.6,0,9.2,0,13.8,0c-3.3-1.8-6.6-1.7-9.8-3c-1.8-0.7-4.5-1.6-5.1,3
		c0,0.6,0,1.1,0,1.7c5,6.9,11,1.3,16.4,2.8c-5.1-1.1-10-3.4-15.2-2.8C553.7,437.4,553.7,436.9,553.7,436.3z M619.7,431.4
		L619.7,431.4c0.4,4.1,2.7,3.2,4.5,3.3c7.3,0.4,14.7,1.9,20.9-4.6c-4.5,0-9.3,0-14.1,0c6.3-0.7,11.8-4.4,17.2-8.3
		c2.8-2,2.3-3.8,0.5-6c-3.1-3.7-6.2-6-9.8-1c-5.1,7.1-10.1-2-15.2-0.5c-0.2,0.1-0.7-0.6-0.8-1.1c-1.2-3.6-1.8-4.1-2.8-1.5
		c-2.5,6.4-4.2-0.1-6.1-0.5c-1.9-0.4-1.7-3.4-0.8-5.4c1.4-3.1,4-3.2,5.7-1.6c2.7,2.4,5.5,2.9,8.4,2.5c6.2-0.9,12.4-2.1,18.7-1.6
		c2.8,0.2,2.8-1.9,2.7-5.2c-0.1-3.8-0.9-5.1-3.3-4.5c-6.3,1.5-12.6-0.4-19,3.8c-3.3,2.1-10.5,3.6-13.4-2.6c-2.5-5.4-4.7-2.8-6.5-1.6
		c-1.9,1.3-4.1,5.9-3,7.8c3.6,6.7,2.6,11.6-3.6,13.3c-2.7,0.7-5.5,0.5-8.6,0.8c1.9,2.5,5.4-0.3,5.3,2.9c-0.1,3.8-1.5,8.3-5.3,9.1
		C600.8,431,610.1,434.6,619.7,431.4z M549.1,401.9c0-0.6,0-1.3,0-1.9c5.4,0,10.7,0,16.1,0c0-0.6,0-1.1,0-1.7c-3.8,0-7.5,0-11.3,0
		c0-0.4,0-0.8,0-1.2c3.8,0,7.7,0,10.7,0c3.2-3.2-3.6-0.4-0.1-3.4c1.4-1.1,2.4-1.8,2-4.1c-0.3-2.6-1.8-2.4-3.2-2.5
		c-5.8-0.7-11.2,2.3-16.8,3c-3.3,0.4-5.5,1.9-6.7,5c4.4,9,10.9,9,17.5,8.5c0.7-0.1,1.5,0.7,2.2,0.9c0.9,0.3,0.9,3.6,2.5,1.7
		c0.4-0.5,0.6-1.5,0.6-2.2c-0.1-2.4-1.5-2.1-2.6-2.1C556.3,401.9,552.7,401.9,549.1,401.9z M583.8,362.4c8.4-0.5,16.9-1.3,25.1-4.5
		c1.4-0.6,3.6-0.8,3-3.8c-0.4-2.3-2.5-1.7-3.6-1.1C600.4,357,592.2,359.5,583.8,362.4z M632.1,378.1c7.4,1.8,12.8-0.5,18.1-3.2
		C644.5,373.8,638.9,373.5,632.1,378.1z M604.4,363.8c6.3,1,10.7-1.1,15-4.1C614.8,360.8,610,360.1,604.4,363.8z M579.2,391.5
		c-3.9-1.1-6.2-2.2-9.5,1.7C573.2,393.4,575.5,394.5,579.2,391.5z M581,415c-0.3,0.7-0.9,1.4-0.8,1.8c0.1,0.5,0.7,1.2,1.1,1.2
		c0.8,0.1,1.4-0.7,1.1-1.9C582.4,415.6,581.6,415.5,581,415z M570,379c-0.6-0.6-0.9-1.3-1.3-1.4c-0.5,0-1.3,0.3-1.4,0.8
		c-0.3,1.2,0.4,1.9,1.2,1.8C568.9,380.2,569.3,379.6,570,379z M658.3,418c-2.4-1.8-4-1.7-5.8-0.7C654,418.9,655.5,418.2,658.3,418z
		 M705.3,396.5c-0.3-0.2-0.7-0.6-1-0.5c-0.2,0.1-0.3,0.8-0.4,1.3c0.3,0.2,0.7,0.6,1,0.5C705.1,397.7,705.1,397,705.3,396.5z
		 M612.3,338.9c0.2,0.1,0.3,0.2,0.5,0.2c0.1,0,0.1-0.4,0.2-0.6c-0.2-0.1-0.3-0.2-0.5-0.2C612.4,338.3,612.3,338.7,612.3,338.9z"/>
	<path class="st2" d="M686.9,420c-2.8,2.6-6.3,2.4-9.3,5.5c-2,2.1-5.5-3.2-6.9-6.6c-1.1-2.5-0.6-6.1-1.8-9.2c-1.1-2.8,1.1-3,2.3-2.8
		c4.2,0.7,7.9-1.3,11.7-3.4c6.4-3.5,12.9,0.5,19.4,0c2.2-0.2,4.6-0.5,6-2.5c1.4-2-0.3-5.1-0.6-7.6c-0.3-2.1-1.5-2.9-3.2-1.9
		c-7.7,4.8-15.7,6-24,4.3c-0.2-1.9,1.1-2.1,1.7-3.1c0.9-1.3,2.7-2.6,1.6-4.5c-1.2-2.2-2.2,0-3.2,1.4c-3.9,5.5-3.4-5.9-6.7-2.9
		c2.5-2.2,5.3,0,8-2.5c-1.4-2.9-2.8-3.5-5-2.6c-9,3.7-18.6,1.6-27.7,5.3c-1.6,0.6-4.7,1.7-5.1-1.5c-0.5-3.8,2.6-2.9,4.3-3.6
		c3.7-1.4,7.1-2.9,11.1,0c3.4,2.5,6.4-2.6,9.6-4.2c2-1,4-1.8,6.5-2.5c-3.2-4.8-2.2-7.4,2.1-7.7c2.3-0.2,4.7-0.3,7-0.4
		c5.1,0.2,10.3-0.5,15.2,0.9c3,0.9,4.7-0.2,6.8-2.1c4,3.4,8.5,2.5,12.9,2.9c3.7,0.4,7.3,1.5,10.8,3.2c1.8,0.9,2.3,2.1,0.2,3.4
		c-6.3-3.1-11.2,0-15.2,6.6c-5.9,0.4-11.7,1.2-16.9,5.7c6.2,0.2,11.8-4.3,18-3.9c0,0.5,0,1-0.1,1.5c-0.2,2.2-3.4,6.7,1.3,5.6
		c10.3-2.3,20.4-0.6,30.6,1.2c-0.5,9.2-5.7,9.3-10.3,9.5c-7.2,0.3-14,2.8-20.5,6.8c-10.7-0.9-21.4-3.2-32.9-0.7c2.9,4,6,0.9,8.3,3.2
		c-1.9,1.6-3.9,0.4-5.8,0.8C682.5,412.7,682.4,415.7,686.9,420z"/>
	<path class="st2" d="M684.5,362.6c-8.3,0.6-16.3,3.7-24.4,5.6c-2.5,0.6-4.8,1.2-7.4,0.4c0.7-1.7,1.8-0.9,2.7-1.2
		c1.1-0.4,2.6-0.6,2.4-2.7c-0.2-2-1.5-3.8-2.9-3.2c-10.8,4.5-22.4,2.7-33.2,7.6c9.2,4,18.1-2.6,27.2-0.9c-5.8,3.9-12.1,4.8-18.3,5.7
		c-2.2,0.3-4.3,0.5-6.3,1.6c-1.2,0.7-1.9,1.5-2.1,3.4c-0.2,2.1,3.7,4.8-0.6,6.5c-0.8,0.3,2.5,1.2,2.2,4.2c-11,1.9-22.1,3.9-33.3,5.6
		c-1.9,0.3-4.7,1.3-4.8-3.6c-0.1-3.9,1.1-6.7,4.1-7.3c3.3-0.7,6.6-2.1,9.8-1.9c6.9,0.4,13.5-1.3,20.4-4.5
		c-9.9-2.1-19.2,1.3-28.8,1.7c6.2-1.9,11.9-6.3,18.5-5.5c1.6,0.2,3.1,0.1,4.7-0.2c1.2-0.2,2.6-0.9,2.4-2.9c-0.2-2.4-1.7-1.5-2.8-1.1
		c-10.1,3.4-20.6,1.7-30.6,5.8c6.3-6.8,14-6.4,21.2-7.9c13.3-2.9,26.7-4.4,40-7.1c1.9-0.4,5-0.5,5.4-6.3c0.3-3.8,5-2.3,7.6-4.3
		c-4.8-2.3-9.2,0.3-13.5,1.3c-7.9,1.7-16.5-3.5-23.8,4c-0.8,0.9-2.1,0.6-2.5-0.8c-0.8-2.9,0.7-5.1,2.3-5.9c4.2-2.1,8.8-4.3,13.2-1.9
		c6.9,3.7,12.9-2.1,19.3-2.8c1.6-0.2,1.3-3,1.5-4.8c3.1-2.2,6.2-4.3,9.3-6.5c4.3,3.5,9.1,5.5,13,10c-1.4,5.7-5.3,3.8-8.2,5.2
		c-1.5,1-3,2.1-3.9,4.5c2.7,0.6,5.1,0.6,7.3-1.5c1.7,0.3,3.5-0.7,4.8,1.6c-1.4,0.8-3.6-1.2-4.2,2.4c8.1,2.7,10.3,2.3,13.5-2.1
		c6.3-0.5,12.2,1.5,17.5,6.4c-2.7,2.3-5.5,1.7-8.5,0.8C691.2,358.9,687.4,357.8,684.5,362.6z"/>
	<path class="st3" d="M227.4,463.9c37.8-2.4,75.6-6.1,113.5-4.6c16.3,0.6,32.6-1.4,48.8,1.6c1.3,0.3,2.8,0,3.8,1.7
		c-9.4,0.6-18.8,1.9-28.2,1.7c-36.7-0.6-73.4,0.9-110.1,2.3c-32.2,1.2-64.2-3.3-96.2-4.8c-21.4-1-42.8,0.9-64.1,2
		c-4.3,0.2-9.6,2.2-9.9-7.8c11.3-1,22.6-2.2,33.9-2.9c11.5-0.7,23,1.6,34.4,2.3c23.2,1.5,46.2,5.7,69.4,5.8
		C223.2,465.5,225.6,463.6,227.4,463.9z"/>
	<path class="st2" d="M670.4,444.6c4.4-1.4,8.8-3,13.3-1.3c-5.8,4.9-11.6,9.7-17.4,14.6c-2.5-1.7-5.3-1.7-8-1.8
		c-22.9-0.6-45.8,1.7-68.7,3.5c-6.6,0.5-12.7-4.9-19.3-2.1c-0.5-4.4,0.6-6.7,4.1-6.3c2.1,0.3,4.2,0,6.7,0c-2.1-3.7-6.5,1.2-7.3-4.9
		c0.8,0,1.5-0.1,2.3-0.1c3.9,0.1,7.6,0.6,11-3.8c2-2.6,5.3-1,8-1.1c5.6-0.2,11.2,0,16.8-1.3c-7-3.2-14.2-1.3-22.5-2.6
		c6.1-4.2,11.7-3.1,17-2.4c8.9,1.2,17.8,2.9,26.7,2.9c2.5,0,5.2-0.9,6.7,3.3c0,0,0,0,0,0c-3.7,0.2-7.5-0.7-11.9,0.9
		c2.8,3.9,5.9,1,9.5,4.3c-5.3,0-9.3,0-13.2,0c0,0.7,0,1.4,0,2.1c5.6,0.1,10.9,4.8,16.6,0.9c3.5,0,7-0.1,10.5-0.1c0.9,0,1.7,0,2.6,0
		c4.9,2.9,9.7,4.8,14-1.6C669.5,447.8,670.3,446.7,670.4,444.6L670.4,444.6z"/>
	<path class="st3" d="M570.3,457.3c6.6-2.8,12.7,2.6,19.3,2.1c22.9-1.8,45.8-4.1,68.7-3.5c2.8,0.1,5.5,0.1,8,1.8
		c-1,2-2.5,2.5-4.1,2.5c-16.1-0.1-32.1,2.7-48.1,3.4c-18.1,0.8-36.4,3.3-54.4-3.1c-6.2-2.2-12.5-1.5-18.8-1.2
		c-32.5,1.6-65,3.4-97.6,5.1c-1,0.1-1.9-0.1-2.9-0.2c0-1.1-0.1-2.2-0.1-3.2c0.1-1,0.3-2,0.4-3.1c4.6,0,9.3-0.1,13.9-0.1
		c6.3,2.4,12.6,2.4,18.8-0.1c15.3-0.7,30.6-1.3,45.9-2c1.6,0,3.2,0,4.9-0.1c1.1,0,2.2,0,3.4,0c9.9-0.4,19.7-0.9,29.6-1.3
		c2.7,2.2,5.7,2.3,8.5,1.1C567.9,454.5,568.9,456.2,570.3,457.3z"/>
	<path class="st4" d="M622.1,331.8c-1.5,1.7-3.4,1.2-5.1,0.9c-13.1-2.5-26.2-1.7-39.3,0.1c-1.2,0.2-2.3,0.2-3.1,1.7
		c-13.3,0.3-26.5,0.6-39.8,0.9c-7.8-1.6-15.6,0.8-23.3,0.7c-24.8-0.3-49.6-0.9-74.3-1.3c-2,0-4.4-1.5-5.9,1.7
		c-10.3-0.1-20.5-0.1-30.8-0.2c-0.8,0-1.5,0-2.3,0.1c-3.3,0-6.7,0.7-9.8-1.6c0.5-1.1,1-2.3,1.4-3.4c2.4-3.2,5.8-2.3,8.4-2.1
		c9.7,0.8,19.4-0.8,29.1,0.2c6.9,0.7,13.7-0.1,20.6,0.3c34.6,1.6,69.3,2.4,103.9,1.4c10.2-0.3,20.4,0.5,30.6-3.9
		c8.7-3.8,18.3-0.5,27.3,1.8C613.8,330,618.4,327.4,622.1,331.8z"/>
	<path class="st0" d="M222.6,461.2c-23.2-0.1-46.2-4.3-69.4-5.8c-11.5-0.7-22.9-3-34.4-2.3c-11.3,0.7-22.6,1.9-33.9,2.9
		c-0.3-2-0.6-4-0.8-6c4.1-1.4,8.1-2.8,12.2-4.1c1.4,2.9,2.5,5.7,5.8,4.1c3.2-1.5,2.6-4.5,2.6-7.6c3.1-1.6,6.2-2.7,9.5-2.4
		c0,0.8-0.2,1.6-0.1,2.4c0.1,2.4-3.2,4-1.2,6.3c1.6,1.8,3.5,0.5,5.3-1.3c1.6-1.7,4.6-3.5,5.8-1.6c3.6,5.6,6.8,1.6,10.2,0.4
		c8.3,0.9,16.4,3.5,24.7,3.2c17.1,0.7,34,4.8,51.1,5.5C214,455.1,220.1,452.7,222.6,461.2z"/>
	<path class="st4" d="M245.3,333.7c-9.5,0.4-19.1,0.8-28.6,1.2c-13,1-25.9,2-38.9,3c-6.7-1-13.3,1.3-20,1.7
		c-11.3-0.1-22.6-1-33.9,0.2c-6.2,0.7-12.8-1.2-18.6,3.6c-1,0.5-2.3,0.6-1.8,2.9c-0.4,0-0.8,0-1.1,0c0.6-1.3,0.6-2.5-0.6-3.1
		c-0.3-0.2-0.7,0.1-1.1,0.1c0.2,0.9,0.4,1.9,0.6,2.8c-2.6,0.6-4.7-1.4-8.7-2.5c9-5.9,17.1-7.3,25-8.6c22.8-3.9,45.8-0.9,68.7-1.7
		c14.3-0.5,28.5-2.1,42.6-4.6C234.8,327.3,240.6,327.4,245.3,333.7z"/>
	<path class="st0" d="M89.8,355.3c4.4-4.2,9.6-1.2,14.2-3.3c1.7-0.8,4.7,0.9,4.3-4.2c0.3-0.2,0.7-0.3,1-0.3c0.3,0.2,0.6,0.2,1,0.2
		c1.8,3.9,4.6,3.4,7.4,3.1c6.7,0.6,13.4,1.2,20.1,1.8c1.3,0.9,4-1.8,3.9,2.2c-0.1,4.2-0.4,4,2.7,4.4c0.9,0.1,2.7-1.5,2.8,1.6
		c-5.9,1.6-11.9,2-17.6,4.9c-5.6-0.3-11.3,1.2-16.3-5.4c-2-2.7-7-3.3-9.7,2.2c-1.2-0.1-2.3-0.1-3.5-0.2
		C98,356.4,92.7,359.3,89.8,355.3z M135,360.9c0.4-0.6,1-1.2,0.9-1.7c0-0.5-0.6-1.2-1-1.3c-0.8-0.1-1.5,0.4-1.3,1.7
		C133.7,360.1,134.4,360.4,135,360.9z"/>
	<path class="st4" d="M331.1,338.8c-15.1-1.3-30.1-0.4-45.2-0.7c-3.5-0.1-7,0.8-10.3-1.4c1.2-3.2,3.4-2,5.3-2
		c10.4-0.1,20.8,0.3,31.1-0.1c18.5-0.8,37-1.9,55.5-3.6c3.4-0.3,7.3-0.2,10.6-3.3c2-1.8,4,0,4.8,3.5c-0.5,1.6-0.9,3.1-1.4,4.7
		c-6.6,0.4-13.2,0.8-19.9,1.2c-3.9-0.5-7.9-1.8-11.6,1.2C343.7,338.6,337.4,338.7,331.1,338.8z"/>
	<path class="st0" d="M686.9,420c-4.5-4.3-4.4-7.2,0.2-8.2c1.9-0.4,3.9,0.7,5.8-0.8c-2.3-2.2-5.5,0.8-8.3-3.2
		c11.5-2.5,22.2-0.2,32.9,0.7c0,0.5,0,1.1,0.1,1.6c-1.5,2-3.4,1.6-5.2,1.7c-2.7,0.5-5.8-1.6-8.6,1.9c2.9,2.2,5.7,0.8,8.2,1.3
		c1.9,1.1,4.2,1,5.7,3.9c-4,3.1-8,6.1-11.9,9.2c-0.3-0.4-0.6-0.7-0.8-1.2C700.4,417,693.5,419.3,686.9,420z"/>
	<path class="st2" d="M168.3,390.3c0.4,4.6-0.6,7.1-4.3,6.7c-2.5-0.3-4.9,0-7.4,0c-6.9-3.1-13.7-6.2-20.6-9.4
		c1.4-1.3,2.7-2.5,4.1-3.8c0.4,0,0.7-0.1,1.1-0.2c0.4,0.1,0.8,0.1,1.2,0.2c3.3,3.4,6.3,0.9,9.1-1.4c1.6-1.4,3-3.4,5.1-3.5
		C157,389.1,158.4,390.5,168.3,390.3z"/>
	<path class="st0" d="M748.2,392.3c-10.2-1.8-20.3-3.6-30.6-1.2c-4.7,1-1.5-3.4-1.3-5.6c2.3,0,4.6,0.1,7,0.1
		c7.3-2.4,14.5-0.3,21.7,0.5c2.1,0.2,4.9-0.7,5.5,4C750.3,391.7,749.2,392,748.2,392.3z"/>
	<path class="st2" d="M103.5,362.6c2.7-5.5,7.6-5,9.7-2.2c5,6.7,10.6,5.1,16.3,5.4c0,0.6,0,1.1,0,1.7c-1.5,2.4-5.5,1.2-4.9,6.6
		c-0.4,0.6-0.8,1.3-1.2,1.9c-2.3-0.8-4.6-1.6-6.9-2.5c0.3-5.2-2.9-4.8-5-5.8C108.7,366.4,105.4,366.7,103.5,362.6z"/>
	<path class="st3" d="M684.5,362.6c2.9-4.8,6.7-3.7,10.3-2.5c3,1,5.7,1.5,8.5-0.8c2.3,1.1,4.7,2.3,7.2,3.5c-1.2,1.9-2.3,2.8-3.7,3.1
		c-2.1,1.9-3.8,3-6.8,2.1c-4.9-1.4-10.1-0.7-15.2-0.9C684.6,365.5,684.5,364.1,684.5,362.6z"/>
	<path class="st4" d="M663.3,332.7c-3.1,2.2-6.2,4.3-9.3,6.5c-1.7-1.7-3.5-2.2-5.6-1.6c-0.6-2.9-2.3-3.2-4.2-3.2
		c-3.9,0.1-7.7,0.2-11.6,0.3c-2.8-1.4-6.5,2.4-8.6-2.9C637.1,331.1,650.2,329.8,663.3,332.7z"/>
	<path class="st1" d="M748.2,392.3c1-0.3,2.1-0.5,2.3-2.3c3.2,6,2.8,9.6-2.5,11.6c-10,3.8-20,8.4-30.5,8.6c0-0.5,0-1.1-0.1-1.6
		c6.5-3.9,13.3-6.4,20.5-6.8C742.5,401.5,747.7,401.4,748.2,392.3z"/>
	<path class="st1" d="M123.4,375.9c0.4-0.6,0.8-1.3,1.2-1.9c0.8,0.6,1.7,1.1,2.5,1.7c0.3,2.5,1.2,2.5,2.9,2.3
		c5.1-0.7,10-1.7,14.9-3.9c0,0.5,0,1,0.1,1.5c0,1.1-0.1,2.1-0.1,3.2c-0.4,0.1-0.7,0.2-1.1,0.3c-0.2,0.1-0.5,0.3-0.5,0.3
		c0.1,0.4,0.2,0.8,0.3,1.2c0.1,1.4-0.1,2.6-1,3.3c-0.4-0.1-0.8-0.1-1.2-0.2c-0.4-0.9-0.8-0.9-1.1,0.2c-1.4,1.3-2.7,2.5-4.1,3.8
		c-0.3-6.5-3.7-5.9-6.6-5.1C125.2,383.8,122.9,382.7,123.4,375.9z"/>
	<path class="st1" d="M103.5,362.6c1.9,4.1,5.2,3.8,8,5.1c2.1,1,5.3,0.6,5,5.8c-6.9-2.4-13.9-3.7-21.2-4.8c0.3-3.5,2.3-4.5,3.7-6.1
		c0,0,0.5,0,0.5,0l0.5-0.1C101.2,362.5,102.4,362.5,103.5,362.6z"/>
	<path class="st4" d="M114.2,440c-3.3-0.3-6.5,0.8-9.5,2.4c-3,0-5.8,1.2-8.4,3.5c-4.1,1.4-8.1,2.8-12.2,4.1
		c-0.7-3.1,0.4-5.2,2.4-5.2c7.8-0.2,14.6-5.9,22.2-6.9c3,0.7,6.3-1.4,9.1,1.6C116.5,439.7,115.4,439.8,114.2,440z"/>
	<path class="st3" d="M668.1,347.9c2.8-1.4,6.7,0.5,8.2-5.2c2.3,1.4,4.5,3.1,6.8,4.1c2.8,1.2,1.6,3.7,1.4,6
		c-2.7-0.1-5.4-0.1-8.1-0.2c-1.3-2.3-3.2-1.3-4.8-1.6C670.4,349.9,669.2,348.9,668.1,347.9z"/>
	<path class="st3" d="M723.3,385.5c-2.3,0-4.6-0.1-7-0.1c0-0.5,0-1,0.1-1.5c1.2-2.5-0.6-1.4-1.2-1.9c4.1-6.7,9-9.8,15.2-6.6
		c-3.4,2.4-6.7,4.8-10.1,7.2C721,384.5,723.2,382.9,723.3,385.5z"/>
	<path class="st1" d="M676.4,352.5c2.7,0.1,5.4,0.1,8.1,0.2c0.4,0.1,0.8,0.1,1.2,0.2c-3.2,4.4-5.4,4.7-13.5,2.1
		C672.7,351.3,675,353.3,676.4,352.5z"/>
	<path class="st2" d="M100,362.4l-0.5,0.1c0,0-0.5,0-0.5,0c-4.4-3.7-10.2-1.7-15-6.9c2.4-1.9,4.1-1.2,5.9-0.3
		C92.7,359.3,98,356.4,100,362.4z"/>
	<path class="st2" d="M440.8,458c-0.1,1-0.3,2-0.4,3.1c-1.6,0-3.4-0.9-4.6,1.7c-1.9,0-3.8,0.1-5.7,0.1c-1.4-0.5-3.1,0.1-4.2-2.9
		C431.1,459.2,436,458.6,440.8,458z"/>
	<path class="st2" d="M117.2,412.7c1.2,0.8,2.4,1.4,3.5,2.4c2.3,2,2.2,2.4-1.2,4.8C119.6,417,113.7,417.7,117.2,412.7z"/>
	<path class="st0" d="M381.5,336c0.5-1.6,0.9-3.1,1.4-4.7c2.3,0,4.6,0,6.9,0.1c-0.5,1.1-1,2.3-1.4,3.4
		C386.1,335.4,384,337,381.5,336z"/>
	<path class="st1" d="M711.9,414.9c-2.6-0.4-5.3,0.9-8.2-1.3c2.8-3.5,5.9-1.4,8.6-1.9C712.2,412.8,712,413.9,711.9,414.9z"/>
	<path class="st0" d="M435.9,462.7c1.2-2.6,3-1.7,4.6-1.7c0,1.1,0.1,2.2,0.1,3.2C438.2,468.4,437.2,464.4,435.9,462.7z"/>
	<path class="st3" d="M109.4,347.6c-0.4-0.1-0.7,0-1,0.3c-1.6-0.6-3.2-1.1-4.8-1.7c-0.5-2.3,0.8-2.4,1.8-2.8
		C106.5,344.9,109.3,343.7,109.4,347.6z"/>
	<path class="st4" d="M253.2,334.8c-1.7,1.7-3.3,2.3-4.7-0.5C250.2,332.3,251.8,332.8,253.2,334.8z"/>
	<path class="st4" d="M267.4,336.4c-1.4,2.2-2.1,0.8-2.8-0.9C265.7,334.7,266.7,334.7,267.4,336.4z"/>
	<path class="st2" d="M101.3,345.9c-0.2-0.9-0.4-1.9-0.6-2.8c0.4,0,0.8-0.3,1.1-0.1c1.2,0.6,1.2,1.8,0.6,3.1
		C102,346,101.7,345.9,101.3,345.9z"/>
	<path class="st2" d="M534.9,335.3c13.3-0.3,26.5-0.6,39.8-0.9c5,4.4,4.9,6.3-0.5,13.9c-1,1.4-3.2,2.6-1.9,5
		c1.2,2.2,2.8-0.1,4.2-0.9c6.1-3.4,12.4-6.2,18.1-10.5c3.2-2.4,5.6-7.2,9.7-4.7c2,1.2,2.7,5.3,5.8,4.8c-1.6,3.5-3.6,1.8-5.1,2.6
		c-1.1,0.5-2.6,0.9-3.1,2.1c-1.8,4.2-1.8,5-4.5,4.2c-7.6-2.3-12.5,6.6-19.1,8.3c-8.5,2.2-16.8,5.5-25.3,8c-2.1,0.6-4.2,0.5-6.1-1.7
		c-1.6-1.8-2.5-0.6-2.7,1.9l0,0c-6.4,2.5-13.4,0-19.6,4.6c8.2,0,16.3-3.8,25.7,1.5c-2.9,0.4-4.4,0.6-6.1,0.8
		c1.3,2.6,3.2,0.5,4.6,1.8c-0.7,2.3-3.5,0.2-3.8,3.6c2.4,2,4.7,3.2,7.4,0.8c3-2.6,6.5-1.4,9.8-1.6c1.2-0.1,2.5,0,2.8,2.1
		c0.2,2.1-1.1,2.5-2.2,3c-5.2,2.2-10.6,2.6-15.5,0.2c-2.4-1.2-4.4-1.3-5.9,0.1c-5.1,5.1-10.5,5-16.1,2.7c-0.4-1.2-0.8-1.1-1.2,0
		c-0.7,0-1.5,0-2.2,0c-1.6-1.1-3.2-2.2-4.8-3.3c-7.6-3.3-15.1-2.5-22.4,1.7c-2,2-3.9,3.9-6.4,6.4c1.8,0,2.9,0,4,0c0,0.6,0,1.1,0,1.7
		c-2.3,0-4.6,0-8.1,0c3,2.5,6.8,2.5,5.8,8c-2.2,2.5-4.9,2.4-7.6,3.2c3.8,2.4,7.6,4,11.7,3.5c4.6-0.5,9.2,0.6,12.9,3.7
		c2.9,2.5,5.3,1.7,8.1,1.2c1.1-0.2,2.7,0,2.3-2.4c-0.1-0.9-1.3-2.1-2.1-2.3c-1.7-0.4-3.6,0.2-5.2-0.4c-4.5-1.7-9.6-1.3-13.2-6.5
		c-0.3-4.2,1.5-6,4.1-6.3c2.1-0.3,4.8-1.6,5.5,3.4c0.3,2.1,1.3,3,2.2,0.9c1.8-4.1,4.3-2,6.2-1.1c4.3,2,4.4-0.5,3.3-5
		c6.2-1.8,11.4,5.7,18.5,2.5c-2,3.6-4.2,1.2-5.6,3.2c2,0.9,4,1.8,6,2.7c0,0.3,0,0.7,0,1c-2.7,0.2-5.4,0.4-8.8,0.6
		c6.5,4.6,13.7-0.8,19.2,5.5c-7.4,7.9-15.7,2.9-24,2.3c4.2,3.6,8.7,6,13.5,6.6c4.4,0.5,9-1.5,13.1,2.8c0.7,0.7,2.8,0.5,3.3-0.3
		c4.4-7.5,11.3-2.8,16.4-6.8c0.9-0.7,2.3-0.5,3.5-0.5c1.6,0,3.5,0.2,3.5,3.1c0,3.4-2.3,3.8-3.9,3.2c-5.8-2.4-11.1,1.7-16.7,1.8
		c0.1,2.5,3.2,2.8,2.5,3.5c-2.3,1.8-4.3,5.7-7.5,4.3c-5-2.3-10-6.4-15-6.5c-8.7-0.2-16.7-6.6-25.6-4c-3.4,1-6.6-5-10.4-0.7
		c0.7,3,3.1,1,4.3,2.7c-3.4,3.1-7.4,1.2-10.7,3c0.8,7.6,5.7,7.2,9.3,9.4c-1.6,0.1-3.1,0.3-4.7,0.4c1.6,0.2,3.7,4.3,4.7-0.4
		c1.6,0,3.6,0.2,4.1-2.2c1.5-6.6,4.1-3.5,6.7-2.1c-1.1,2.1-4.4-0.1-3.9,3.7c0.6,4.8,3.6,5.1,6.6,5c-5.6,5-11.5-1.2-17.1,1.4
		c9.5,2.8,19.1,3.9,28.7,4.1c2.5,0,2.7-1.7,1.8-4c-0.6-1.8-1.7-3.3-3.1-5.7c3.8,0.8,7,2,10.2,1.5c2.3-0.3,4.2,0.2,5.5,3.3
		c1.1,2.6,2.9,3.5,5.1,3.2l0,0c-1.4,4.5-4.9,4.4-7,4.2c-1.8-0.2-4.4-7.8-6-3.1c-2,6.1-5.5,2-7.7,5.7c5.1-2.7,7.9,4.5,12.3,4.7
		c4.9,0.2,9.8,0,14.6,0c1.2,0,2.3,0.2,3.1,1.6c-9.9,0.4-19.7,0.9-29.6,1.3c1.1-4.5-2.4-5-3.7-7.2c-2.3-4.1-2.6,1.3-3.9,2.2
		c-2.7,1.8-6,1.7-9.1,2c-5,0.6-10.1-0.8-15.1,1.3c-2.8,1.2-2.5,0.5-3.1-4.3c-0.4-3.6-2.9-5.6-5.4-6.5c-1.8-0.7-3.9,0.7-5.7-1.1
		c3.5-2.3,7.5,1.3,10.7-2.3c1-1.2,3-1,2.9-4.4c-3.7,0.3-7.4,0.7-11,1c-7.6-0.4-15.2,1.5-22.7-2.5c6.5-0.7,13.7,4.3,18.8-5.1
		c-7.5-3.2-15.6-1.4-23.2-3.9c0,0-0.1-0.1-0.1-0.1c0-1.1,0-2.2,0-3.3c1.2-1,2.4-1,3.5,0l0.6,0l0.6,0c2.8,0.5,5.5,1.7,8.3,1.5
		c3.1-0.3-0.2-2,0-3.1c3.1-0.8,6.5,1.5,9.4-1.6c2.7-0.1,5.4-0.2,8.2-0.3c0.1,0,0.3-0.4,0.3-0.6c0-0.2-0.1-0.5-0.2-0.8
		c-1.6-6.4-6.6-3.5-9.4-6.5c-4.6-8.9-10.9-12.9-18.7-13.3c-1.8-0.1-3.8,1.2-6.2-3c8.3-0.2,15.8-0.1,23.1-2.2c0.4-0.1,1,1.3,1.6,2
		c0.9-12.2,8.3-4.1,12-7.4c0.6-0.6,1.3-1.2,2.3-2.3c-5.6-4.9-11.1-4.7-16.8-2.4c-9.1,3.6-18.2,7.8-29,7.1c4.3-4.2,8.4-4.5,12.3-4.7
		c3.7-0.1,6.6-3.6,10.1-3.9c0,0,0-1.9,0-2.9c4.6-2.4,9.3-2.9,14.1-3.3c8.2-0.5,16.7,2.5,23.1-1.6c-9.1,0-19.7,0-30.3,0
		c-2.4-3.6-6.1,0.2-9.7-3.9c6.6-1,12.2-3.1,18.1-2.5c10,3.8,20.2,3.2,30.4,2.1c-7.7-3.7-15.6-1.6-23.4-2.3c-2.3-3.6-5.7-0.2-8.4-2.6
		c4-2.4,9.8,2.3,12.6-6.8c-5.1,0-9.7-2.5-14.2,1.8c-2.9,2.8-4.1-2.9-6.5-3.1c8.3-1.2,16.7,0.3,24.7-3.3c-1-2-3.9,0.5-4.3-2.7
		c-0.5-3.8,2.5-3.9,3.8-5.2c5.8-5.4,12.1-6.5,18.6-2.3c1.9,1.2,2.1,1.3,3.2-2.4c0.8-2.7,2.2-1,3.3-1.4
		C527.6,336.5,531.8,340.6,534.9,335.3z M517.3,446.7c-4-3.3-8.3-1.8-12.4-2.1c-1.2-0.1-2.6,0.1-2.7,2.1c-0.1,2.7,1.6,2.4,2.9,2.7
		C509.4,450.6,513.2,447.3,517.3,446.7z"/>
	<path class="st2" d="M222.6,461.2c-2.4-8.5-8.5-6.1-12.5-6.3c-17.1-0.7-34-4.8-51.1-5.5c0.6-3.8-0.7-6.3-4.7-8.2
		c7.1,0.2,12.7,0.7,16.5-6.4c2.7,0,5.4-0.1,8.2-0.1c0.4,0.4,0.8,0.8,1.3,1.2c0.1-0.2,0.2-0.4,0.3-0.6c-0.5-0.2-1-0.4-1.5-0.6
		c0.4-0.6,0.8-1.1,1.2-1.7c0,0,0.5,0,0.5,0l0.5,0c0.8-0.6,1.6-1.1,2.5-1.7l0,0c1.1,2.1,1,6.5,3.8,5.6c1.3-0.4-0.2-2.7-0.3-4.1
		c0.7,0,1.5,0,2.2,0c4.5,0.7,8.4,4.2,12.9,5c-2.3,0.1-4.5,0.3-6.8,0.4c4.8,1.6,9.8,0.7,13.8,6c0.6,0.8,4.1,1.3,2.5-3
		c-1.9-5,0.3-4.9,2.7-5c3.9-0.1,7.6,2.6,11.6,1.6c0.2,0.1,0.3,0.2,0.5,0.4c-0.2-0.1-0.3-0.3-0.5-0.4c-4.9-0.8-7.2-5.9-9.3-11.1
		c1.5-1.5,4.3,1.3,5-2.2c0.4-1.8-1.7-1.3-2.8-1.6c-0.4-0.6-0.8-1.1-1.2-1.7c-0.6-1.2-1.3-1.7-2.3-1.3c-0.1,0.1-0.2,0.4-0.3,0.6
		c0.9,0.3,1.7,0.5,2.6,0.8c0.4,0.5,0.8,1.1,1.2,1.6c-3.7,2.6-7.1,3.1-9.3-3c2.1-4.1,0.6-5.2-2.2-5.2c-3.5,0-7,0.2-10.5,0.2
		c-1.1-0.4-2.2-0.4-2.3-2.8c-0.4-6,5-2.7,5.8-7.2c-2.9-1.4-9,0.5-4.9-8.3c0-0.5,0-1.1,0-1.6c5.6-0.6,3.5-7.4,4.7-11.4
		c4-7.1,8.6-8.8,14.1-3.3c-0.5,1.5-1.3,2.8-2.6,3c-5.1,0.9-2.8,8.3-5.2,12c-0.8,1.2,3.1,5.7,6.5,8.4c-1.9-8.5-2.2-15.3,4-18.5
		c1.3-0.7,2.2-1.6,1.6-3.5c-0.5-1.8-2-1.4-3.1-1.5c3.7-5.1,8.6-3,12.8-4.7c-2.4,2.5-5.2,3.7-7.1,7.1c1.1,1.6,2.5,0.6,3.7,1
		c-0.1,1.6,0,3.4-1.1,4.5c-1.5,1.5-3,2.9-2.1,5.9c0.4,1.4,1.4,2.7,2.2,2c1.6-1.5,4.4-1.6,3.9-5.9c-0.5-4.6,2.3-4.1,4.2-4.9
		c1.7,2.6,3.9,1.2,5.9,1.6c2,1.2,4,2.4,6,3.6c-1.5,6.8,1.2,12,4.7,15c5.9,5.2,11.4,12,19.5,11.3c2.7-0.2,5.5,3.6,8.9,6
		c-5.9,4.7-10.5-4.1-15.7-0.7c2.5,4.4,7.3,2.5,10.3,6.6c-4.2,1.9-7.3-3.4-11.5-1c-3.4,2-1.8,10.6-7,8.6c0.3,3.4,3.1,2,3.8,5.2
		c-7.7-1.9-15.2-3.7-22.6-5.6c-1.4-0.4-3.1-2.3-3.4,1.6c-0.4,0.6-0.9,1.3-1.3,1.9c-1.9,2.8-5,5.1-0.7,9.1c0.8,0.8,2.8,4-0.7,5.9
		c-3,1.7-0.1,6.1-0.8,9.2C225.6,463.6,223.2,465.5,222.6,461.2z M227.3,415c0.2,0.1,0.4,0.2,0.5,0.4
		C227.6,415.2,227.5,415.1,227.3,415c0.4-3.5-1-4.8-3.2-5.6c-2.2-0.9-4.7-1.6-6.5-3.4c-1-1-1.4-3.7-2.8-1.3
		c-1.2,2.2,0.1,4.8,1.7,4.8C220.6,409.8,223.3,414.8,227.3,415z M259.5,420.8c-4.8-6.5-9.7-7.9-14-10.5c-1.2-0.7-2.8,0-3.4,2.1
		c-0.4,1.2,0.1,2.1,1,2.4C248,416.6,252.9,418.4,259.5,420.8z M198.7,398.5c2.5,7.1,5.5,4.9,9.1,2.3
		C204.6,400,201.8,399.3,198.7,398.5z M232.1,405.3c-3.1-2.6-5.5-4.8-7.4,1.3C227.1,406.6,229.4,407.5,232.1,405.3z M255.1,431.9
		c-0.1-0.5-0.2-1.2-0.4-1.3c-0.2-0.1-0.7,0.3-1,0.5c0.1,0.5,0.2,1.2,0.4,1.3C254.4,432.5,254.8,432.1,255.1,431.9z"/>
	<path class="st2" d="M444.1,439.5c-1.2,3.5-1.7,6.4,2.3,6.6c2.2,0.1,4.6-0.9,6.8,1.3c-1.7,3.2-3.3,1.3-4.9,1
		c-2.9-0.7-5.6-1.5-8.3,1.7c-2.9,3.5-6.9,2.5-9.4,0.4c-5.4-4.6-10.4-2.5-16.3-0.5c6.5,3.5,13.3,1.8,19.3,5.7
		c-10.6-2.3-20.6,5.7-31.2,3.5c-4.8-1-9.9-0.4-14.1-4.1c-2.3-2-3.4,1.1-5.2,1.1c-17.7-0.3-35.3-0.2-53-1.6
		c12.8-0.9,25.7,0.7,38.5-1.8c-4,0-8,0-11.9,0c3.7-5.1,8-2.4,12-3.6c0.2-2.3-2.1-0.5-2.3-2.3c4.6,0.8,6.1-9.8,11.8-6
		c2.6,1.7,5.1-1.7,7.7-2.8c-8.6,1.7-16.9-1.7-25.4-2.5c5.1,1,8.4-5,13.1-5.6c0.3,3.6,2.2,3.1,3.9,3.2c15.9,0.5,31.9,1.1,47.8,1.6
		l0,0c1.3,2.3,3.1,1.3,4.8,1.7C434.7,437.3,439.5,437.3,444.1,439.5z M405,437.1c1.7,3.1,4.8,2,5.6,6.4c0.2,1.3,2,1.1,2.4-0.3
		c1.2-4.8,3.4-2.8,5.6-2.2c1.6,0.4,3.7,1.2,5.3-2.6C417.2,437.9,411.1,437.5,405,437.1z"/>
	<path class="st2" d="M457.1,424.9c2.7,2.3-0.3,4.4-0.1,6.6c-5.5,1.2-10.9-3.2-16.6,0.3c5.6,1,11.2,2,16.8,3
		c-0.1,0.5-0.1,1.1-0.1,1.6c-2.5,0.5-4.7,1.7-7.4,1.4c-8.1-1.2-16-5-24.3-3c0,0,0,0,0,0c-7.6-4.7-15.7-2.7-23.6-3.4
		c-0.3-5.4-4.6-1.4-5.8-4.6c-3.9-2.8-7.9-2.6-11.8-0.1c-0.8,0-1.6,0-2.4-0.1c-1.1-3-2.6-3.6-4.9-2.4c-1.9,1.1-3.9,1.7-4.6-2.3
		c5.8-0.8,11.2-5.2,17.3-3.8c1,0.2,1.4-1.5,1.6-2.9c5.1,0,10.3-0.1,15.4-0.1c0,0-0.1-0.1-0.1-0.1c4.1,3.4,8.7,1,13,1.7
		c0.2,2.3,1.2,3.4,2.8,3.2c5.5-0.9,10.8,1.2,16.1,2C444.5,422.8,450.9,422,457.1,424.9L457.1,424.9z"/>
	<path class="st2" d="M381.5,336c2.4,1,4.6-0.6,6.9-1.3c3.1,2.4,6.5,1.6,9.8,1.6c0.1,3.4-2,4.2-4.2,6.3c7,0.5,13.3,0.3,19.6-0.8
		c-10.4,5.6-21.5,4.9-33.2,6.7c2.3,3.4,4.4,2.7,6.3,2c2.3-0.9,4.3-1.9,4.8,3.3c-5.1-1.1-9.8,0.7-14.6,2.6c2.1,2.9,4.3,5.1,7.7,3.8
		c-0.8,3.4-3.1,1.6-3.9,3.9c-1.3,3.7-2.5,6.4-3.8-0.4c-0.4-2.3-3.2-1.3-4.9-1.3c-2.9-0.1-5.9,0-9.8,0c3.1-2.8,6.9,0.2,8.2-4.8
		c1-3.7-1.4-0.9-1.7-1.8c-3.5-2.4-6.9-2.4-10.4,0c-3.5,0-7,0-10.6,0c0.5-2.7,2.5-0.5,3.6-3c-4.9,0-9.6,0-14.2,0c0-0.6,0-1.1,0-1.7
		c8.6,0,17.2,0,25.9,0c3.1,2.4,6.2,2.3,9.3,0.1c-1.8-3.2-4.4-1.8-6.6-1.8c-17.5,0.1-34.9-3.1-52.2-6c13.6-1.2,27.2,1,40.8,1.9
		c4.1,0.3,8.1-0.1,12.1-0.1c3.1,0,6-3.4,8.6,3.3c1.4,3.6,4.1-2.3,6.5-3.3c-1.2-2.9-2.5-2.3-3.6-2.3c-14.1,0.6-28.1-2.9-42.2-1.9
		c-1.6,0.1-3.7,1.1-4.5-2.2c6.3-0.1,12.6-0.2,18.9-0.4c4,1,8,3.1,11.6-1.2C368.3,336.8,374.9,336.4,381.5,336z"/>
	<path class="st1" d="M226.1,438c-4,0.9-7.7-1.8-11.6-1.6c-2.4,0.1-4.5-0.1-2.7,5c1.6,4.3-2,3.7-2.5,3c-4-5.3-9-4.5-13.8-6
		c2.3-0.1,4.5-0.3,6.8-0.4c-4.5-0.9-8.4-4.3-12.9-5c1.1-4.7,3.6-2.8,5.9-2.4c3.6,0.7,7,2.9,10.7,2.5c-1.3-7.2-5.2-3.1-7.9-3.7
		c-12.2-2.7-23.3-11.3-35.6-13.2c-0.4-0.1-0.8-1.7-1.1-2.6c2-2.9,4.3-1.9,6.4-0.4c1.8,1.2,3.6,2.2,5.5,0.3c5.7,0.6,10.5,7.1,18,5
		c-5.2-5.6-9.4-10.1-14.6-12.8c0-1.5,0.2-2.9,1.2-3.7c3.9,0.9,7.6,4,11.9,3c-3.3-5.7-7.7-4.6-11.8-4.4c-2.1-0.1-4.2-0.3-6.1-1.9
		c5.4-3.5,11.1-1,16.6-1.6c0.2,1.2,0.2,2.8,1.4,2.4c0.4-0.1,0.6-1.6,1-2.4c1.6,0,3.1-0.1,4.7-0.1c-4.1,8.9,2,6.9,4.9,8.3
		c-0.8,4.5-6.2,1.2-5.8,7.2c0.2,2.4,1.2,2.4,2.3,2.8c1.8,2.3,4.1,1.3,6.1,1.3c2.7-0.1,5,0.3,6.6,3.7c2.3,6.2,5.6,5.7,9.3,3
		c0,0,0,0,0,0c1.1,0.2,3.1-0.2,2.8,1.6c-0.7,3.4-3.5,0.6-5,2.2C218.9,432.1,221.2,437.2,226.1,438L226.1,438z M192.1,419.2
		c5.6,5.2,10.4,6.2,15.4,6.2C203,423.3,198.9,419,192.1,419.2z"/>
	<path class="st2" d="M109.4,347.6c0-3.9-2.8-2.7-4.1-4.3c5.8-4.7,12.5-2.9,18.6-3.6c11.2-1.2,22.6-0.2,33.9-0.2
		c-0.6,2.7,4,6.7-1.1,8.1c-3.5-2.4-7.1-1.5-10.7-0.4c2.4,0.3,4.7,0.5,7.6,0.8c-2.2,2.6-5.9-0.9-6.4,4.6c-0.6,0.4-1.7,0.7-1.7,1.3
		c-0.3,1.8,0.9,1.7,1.8,2c1.6,3.8,6.4-1.3,7.1,5c-0.3,3-7.7,1.9-2.4,8c0,0.6,0,1.1,0,1.7c-2,2.4-4.5,3.1-7.1,3.3
		c-4.8,2.2-9.8,3.2-14.9,3.9c-1.7,0.2-2.6,0.2-2.9-2.3c0.3-3.3,2.1-3.2,3.8-3.4c3-0.4,6.2-0.7,8-4.9c3.6,0.1,7.4,0.5,8.2-6.5
		c-0.1-3.1-1.8-1.5-2.8-1.6c-3.1-0.4-2.7-0.2-2.7-4.4c0.1-4-2.6-1.4-3.9-2.2c-2.1-3.7-5.1-3.2-8.1-3.3c-2.1-0.1-5.3,0.7-6.1-0.8
		c-2.2-4.3-4-1.7-6-0.7c-2.4,0-4.9-0.1-7.3-0.1C110,347.8,109.7,347.7,109.4,347.6z M148.1,343.5c-5.8,0.2-11.8-2.6-17.9,2.1
		C136.7,347.5,142.3,344.4,148.1,343.5z"/>
	<path class="st2" d="M292,410.1c-4.2-0.7-7.6-5.4-12.2-3.2c-0.2-3.7,6.5-6,0.2-8.6c-4.5-3-9.2-0.5-13.8-1.5
		c-0.3-4.9,1.5-6.8,4.8-6.5c3.1,0.3,5.7-0.7,6.9-5.1c0.3-2.6,1.4-2.7,2-0.5c2.1,8.5,5.6,6,10.5,4.5c8.3-2.7,16.4-8.9,27-6.2
		c-8.1,4.9-16.5,5.1-20.6,15.5c-2-1.2,0-7.2-3.4-5.9c-1.8,0.7-4.1,2.8-4.3,5.8c-0.1,3.8,2.6,3.1,4.3,3.7c0,0.4-0.1,0.7-0.1,1
		c0.1,0.8-0.3,1.9,0.6,2.2c0.1,0,0.3-1.2,0.5-1.8c2.1,0.4,5.8-1.5,3.5,4.9C295.9,408.7,293.7,407.4,292,410.1z"/>
	<path class="st3" d="M380.6,385.6c-3.2,4.6-6.9,2.7-10.6,1.9c-2.4-0.3-4.1,0.9-5.2,4c-9.1,0.2-18.1,1.2-26.8,6.3
		c0.8,1.8,2.7,0,3.8,1.5c-0.9,1.9-2.4,0.7-3.6,1.3c-2.3-0.2-4.7-0.4-5.4,3.6c-0.2,1.3,2.7,0.7,1.6,3c-0.9,1.9-2.4,0.6-3.7,0.5
		c-1.4-0.2-3,0.5-4.4,0.8c-3-0.1-5.7-1.3-8.3-3.2c2.3-3.8,6.4,0.7,8.9-3.3c-2-3-4.6-0.5-7.3-2.8c2.9-0.4,5.2-1.2,5.6-5
		c4.4-3.5,9.2-1.3,13.7-2.1c2.2-0.4,5.3,2.1,5.8-3.6c0-0.5,1.3-1.1,2-1c11.4,1.6,22.3-4.1,33.6-3.4
		C380.5,384.5,380.5,385,380.6,385.6z"/>
	<path class="st1" d="M170.8,434.8c-3.8,7.1-9.4,6.7-16.5,6.4c4,1.9,5.2,4.4,4.7,8.2c-8.3,0.2-16.5-2.3-24.7-3.2
		c0-2.2-0.1-4.5-0.1-6.7c0.5-4.5,3-3,4.9-3c0.4,0.8,0.7,0.6,1-0.1c0.7-0.1,1.5-0.1,2.2-0.2c2.7,2.3,5.4,4.4,9.1,2.5
		c-0.8-0.9-1.2-1.8-1.6-1.8c-2.5-0.3-4.9-0.5-7.4-0.7c0-2.1,0-4.1,0-6.2c2.3,0.1,4.9-1.5,6.7,1.2c1.1,1.6,1.5,3.9,3.6,2.9
		c4.4-2.1,9-0.7,13.4-1l0,0c1.3,2.3,3.1,1.4,4.7,1.7L170.8,434.8z"/>
	<path class="st1" d="M168.3,390.3c-9.9,0.1-11.3-1.3-11.7-11.4c0.4,0,0.8,0,1.1-0.1c1.5,0,2.3-1.1,2.4-3.1c11.3-5.4,23-7.7,34.6-11
		c1.6-0.5,3.9-2,4.6,0.9c0.7,2.8-2,2.5-3,3.9c-1.9,2.6-4.2,2.3-6.5,2.8c-7.6,1.6-15.7,2.1-19.2,14.6
		C170.4,388.3,169.2,389.2,168.3,390.3z M164.2,387c0.3-0.2,0.6-0.4,0.9-0.6c-0.3-0.2-0.6-0.6-0.8-0.7c-0.3,0-0.6,0.4-0.9,0.6
		C163.7,386.5,163.9,386.7,164.2,387z"/>
	<path class="st2" d="M302,344.2c-30.9,13.8-63.6,9-94.9,19.8c2.8-3.3,5.9-5.4,6.6-11.1c0.3-2.9,3-1.7,4.6-1.8c2.1-0.2,4.3,0,6.6,0
		c-0.3,3-3,1.2-3.2,5.6C248.4,352.6,275.4,351.7,302,344.2z"/>
	<path class="st3" d="M161.3,413.4c0.4,0.9,0.7,2.5,1.1,2.6c12.4,1.9,23.4,10.5,35.6,13.2c2.7,0.6,6.6-3.5,7.9,3.7
		c-3.7,0.4-7.1-1.8-10.7-2.5c-2.2-0.4-4.7-2.3-5.9,2.4c-0.7,0-1.5,0-2.2,0c-0.9-1.7-2.2-1.4-3.5-1.5c0,0,0,0,0,0
		c-0.1-1.8-0.7-2.8-2-3.4c-11.3-5.1-22.7-9.2-34.6-9.5c-2.3-0.6-4.7-1.2-7-1.8c2.4-2.8,5.1-5.8,8.4-4.4
		C152.8,414,157,413,161.3,413.4z"/>
	<path class="st3" d="M400.6,388.8c3.4-0.6,6.8-2.2,10.3-1.9c2.3,0.2,4.6,0.8,5.1,4.1c1,6,3.9,6.3,7.4,6c2.5-0.2,5.1-0.1,7.6-0.2
		c2,0.2,4,0.3,6.2,0.5c-1.3,2-2.7,0.9-3.9,1.5c-4-0.1-8-0.3-12.1-0.3c-1.8,0-4.1-0.8-4.2,3.4c-0.9,0.7-1.2,1.9-1.3,3.3
		c-3.2-0.2-7.2,4.8-9.2,0.4c-3.7-8.2-9.1-6.5-14.3-7c0.4-1.1,0.8-2.1,1.1-3.2c1.7,0,3.5,0,5.2-0.1c1.5-0.1,3.6,0.7,4.2-1.6
		C403.6,391.3,400.6,391.2,400.6,388.8z"/>
	<path class="st2" d="M161.3,413.4c-4.3-0.4-8.5,0.6-12.8-1.2c-3.3-1.4-5.9,1.6-8.4,4.4c-2.4-0.1-3.6-4.2-6.3-3.4
		c-1.3,0.4-2.8-0.9-2.7-3.3c0.2-2.8,1.9-3,3.6-3.1c1.4-0.1,2.7,0.5,3.8,1.7c1.9,2.1,4.7,2.7,6.1,1.1c6.8-7.7,15.5-2.9,22.9-6.9
		c2-1.1,3-2.7,4.4-4.1c1.9,1.6,4,1.8,6.1,1.9c-0.1,0.5-0.1,0.9-0.1,1.4c-1,0.8-1.2,2.2-1.2,3.7c-1.2-0.1-2.3-0.2-3.5-0.3
		c-1.1,0-2.3-0.2-3.4-0.1c-1.2,0.1-3.1-0.6-3.1,2c0,2.2,1.5,2.7,2.9,2.8c0.8,0.1,1.5,0.1,2.3,0.1c0.4,1.1,0.9,2.1,1.3,3.2
		c-1.9,1.8-3.6,0.9-5.5-0.3C165.6,411.5,163.3,410.5,161.3,413.4z"/>
	<path class="st2" d="M177.8,337.9c13-1,25.9-2,38.9-3c0.2,4.4-1.8,4.7-4.2,4.6c-5.8-0.1-11.6,0-17.3,0c-0.8,4.5,2.5,2.1,2.6,4.7
		c-9.4,1.9-18.7,5-28.3,5c0-0.5,0-0.9,0-1.4c2.8-3.1,6.5-0.8,9.5-3.6c-3.8,0-7.7,0-11.5,0c2.3-1.5,4.7-1.6,7-1.4
		C176.9,343,178,341.3,177.8,337.9z M185.2,340.3c-0.3-0.2-0.6-0.6-0.9-0.6c-0.3,0-0.6,0.4-0.9,0.7c0.3,0.2,0.6,0.6,0.9,0.6
		C184.6,341,184.9,340.6,185.2,340.3z"/>
	<path class="st1" d="M415.8,405.1c0.1-1.4,0.3-2.6,1.3-3.3c12.1,8.4,25.6,7.5,38.3,11.4c7.9,2.4,15.8,5.8,24,5.1
		c-2.9,3.2-6.3,0.8-9.4,1.6c-2.8,0.6-5.8-1.6-8.3,1.6l-0.6,0c0,0-0.6,0-0.6,0c0-2.3,0.2-3.8-2.4-3.8c-4.8-0.1-9.6-1.3-14.4-2.3
		c-8.6-1.7-17.1-3.6-25.6-5.4C418.4,407.5,416.5,406.9,415.8,405.1z"/>
	<path class="st1" d="M147.1,418.4c11.9,0.3,23.3,4.4,34.6,9.5c1.3,0.6,2,1.6,2,3.4c-0.8,0.5-1.6,1.1-2.5,1.7
		c-3.2-7.5-8.3-3.9-12.8-4.2c3.5,3.5,8.3,0.1,11.7,4.2c-0.4,0.6-0.8,1.1-1.2,1.7c0,0,0,0,0,0c-2.7,0-5.4,0.1-8.2,0.1
		c0,0-0.1-0.1-0.1-0.1c-1.2-2.4-3.1-1.4-4.7-1.7c0,0,0,0,0,0c-0.5-2.7-3.4-0.4-4-3.4c1.1-0.9,2-1.7,3-2.6
		c-5.9-1.5-11.6-6.9-17.2,0.4c-0.2,0.3-1.3-0.8-2-1.3C146.3,423.6,146.7,421,147.1,418.4z"/>
	<path class="st1" d="M169.5,347.9c0,0.5,0,0.9,0,1.4c-4,0-8.1-0.1-12.4,3.1c6.3,0.2,11.8,1.1,17.3-0.8c-3.7,4.3-8,5-12.6,3.1
		c0.7,4.4,3.3,1.7,4.7,4c-4,2.7-8.2,1.8-12.2,2.1c-0.6-6.3-5.5-1.2-7.1-5c0.8-0.9,1.7-1.8,2.5-2.6c-0.9-0.2-1.7-0.4-2.6-0.6
		c0.5-5.4,4.2-2,6.4-4.6c-2.8-0.3-5.2-0.6-7.6-0.8c3.6-1.1,7.2-2.1,10.7,0.4C160.9,347.7,165.2,347.8,169.5,347.9z"/>
	<path class="st1" d="M326.3,408.4c1.5-0.3,3-1,4.4-0.8c1.3,0.2,2.8,1.4,3.7-0.5c1.1-2.3-1.8-1.8-1.6-3c0.7-4,3.1-3.8,5.4-3.6
		c-0.5,4.8,1.5,5.6,4.5,6.4c9,2.4,18,1.2,27,1.4c3.4,0.1,6.6,0.5,9.8,2c-0.1,0.4-0.1,0.9-0.1,1.4c-4.8,3.3-9.7,1-14.3-0.2
		c-11.1-2.9-22.1,1.3-33.1,0.2C329.9,411.5,327,413.4,326.3,408.4z"/>
	<path class="st2" d="M400.5,336.3c10.3,0.1,20.5,0.1,30.8,0.2c8.3,2.3,16.7,0.9,25,1.7c0,3.5-1.5,2.9-2.6,2.9
		c-9.9,0.6-19.9-1.4-29.7,2.8c-2,0.9-4.7-1-7.3-1.7c2.3-4.2,5.1-2,8.6-1.8c-1.8-3.5-3.9-2.6-5.5-2.5c-5.7,0.3-11.4-1.1-17,0.8
		C401.2,339.3,400.7,338.1,400.5,336.3z"/>
	<path class="st1" d="M433.4,398.8c1.2-0.6,2.6,0.5,3.9-1.5c-2.2-0.2-4.2-0.3-6.2-0.5c0.2-2.2,1-3.2,2.6-3c2,2.6,4.5,0.8,6.7,1.5
		c4.8,4.6,9.3,9.8,15.5,9.9l0,0c1,1,2.1,2.1,4.3,4.3c-6.8,0.8-12-1.7-17.3-2.7c-0.9-0.2-1.8-1.6-2.6-1.4
		C436.4,406.4,434.6,403.4,433.4,398.8z"/>
	<path class="st2" d="M415.8,405.1c0.7,1.7,2.6,2.4,2.4,4.9c-5.4,0.1-10.7,0.3-16.1,0.3c-1.7,0-2.6,0.5-2.7,2.9
		c-1.3,0.2-2.6,0.4-3.6-1.3c0.7-3.3,2.1-5.6,5.1-5.4c-3.4-6.6-8-4.2-12.1-4.6c0-0.5,0-1.1-0.1-1.6c0.9-0.1,1.8-0.3,2.3-1.5
		c0.4-0.1,0.9-0.1,1.3-0.2c5.2,0.5,10.5-1.3,14.3,7C408.6,409.9,412.7,404.9,415.8,405.1z"/>
	<path class="st3" d="M145.9,426.2c0.7,0.5,1.8,1.6,2,1.3c5.5-7.4,11.3-1.9,17.2-0.4c-1,0.9-1.9,1.7-3,2.6c0.6,3,3.4,0.7,4,3.4
		c-4.5,0.3-9-1.1-13.4,1c-2,1-2.5-1.3-3.6-2.9c-1.8-2.7-4.4-1.1-6.7-1.2c-0.8,0-1.5,0-2.3,0c-1.1-1.1-2.3-2.3-3.4-3.4
		C139.7,426.4,142.8,426.3,145.9,426.2z"/>
	<path class="st2" d="M134.1,439.5c0,2.2,0.1,4.5,0.1,6.7c-3.4,1.2-6.6,5.2-10.2-0.4c-1.2-1.9-4.2,0-5.8,1.6
		c-1.8,1.8-3.7,3.1-5.3,1.3c-2-2.3,1.3-3.9,1.2-6.3c0-0.8,0.1-1.6,0.1-2.4c1.2-0.2,2.3-0.3,3.5-0.5c1.7,2.7,4.1,2.3,5.8,1.2
		C127.1,438.5,130.7,440.9,134.1,439.5z"/>
	<path class="st1" d="M401.6,431.3c7.9,0.7,16-1.3,23.6,3.4c-15.9-0.5-31.9-1.1-47.8-1.6c-1.7-0.1-3.7,0.4-3.9-3.2
		C382.9,428.7,392.2,431.4,401.6,431.3z"/>
	<path class="st1" d="M326.2,431.5c-8.1,4.2-16.3-1.2-24.4-0.1c-5.7,0.8-11.3-1.3-16.9-1.8c-2.4-0.2-4.6-1.5-5.1-6.4
		c15.6,7.5,31.6,6.5,47.5,6.7C327,430.5,326.6,431,326.2,431.5z"/>
	<path class="st2" d="M426,383.8c11.5-4.8,23.2-6.4,34.9-7.2C449.8,384.1,437.6,381.5,426,383.8z"/>
	<path class="st1" d="M325.3,394c-0.4,3.9-2.7,4.6-5.6,5c2.7,2.2,5.3-0.2,7.3,2.8c-2.5,4-6.6-0.5-8.9,3.3c-1.6,0-3.1-0.2-4.7,0
		c-3,0.4-3.6-2.3-3.7-5.5c-0.1-4.5,2.6-2.6,3.8-2.4C317.7,398,321.3,394.7,325.3,394z"/>
	<path class="st1" d="M475.9,372.3c10.6,0,21.2,0,30.3,0c-6.5,4.1-14.9,1.1-23.1,1.6c-4.8,0.3-9.6,0.8-14.1,3.3
		c-1.7-0.4-3.7,1.2-5.7-1.8C467.6,373.6,471.6,372.4,475.9,372.3z"/>
	<path class="st1" d="M215.5,380.6c1.1,0.1,2.6-0.4,3.1,1.5c0.6,1.9-0.4,2.9-1.6,3.5c-6.2,3.2-5.9,9.9-4,18.5
		c-3.4-2.7-7.3-7.2-6.5-8.4c2.4-3.6,0.1-11.1,5.2-12c1.2-0.2,2-1.5,2.6-3C214.7,380.6,215.1,380.6,215.5,380.6z"/>
	<path class="st1" d="M278,385.3c-1.3,4.4-3.8,5.4-6.9,5.1c-3.3-0.3-5.1,1.5-4.8,6.5c-2.8,0.7-5.8-1.4-8.3,1.8
		c-0.8-0.1-1.7-0.2-2.5-0.3c-0.3-0.5-0.7-0.9-1-1.4c2.7-2.9,6-4.1,8.7-8C266.9,383.5,272.8,385.6,278,385.3z"/>
	<path class="st2" d="M254.7,347.2c5.4-1.9,10.8-3.3,16.3-2.7c1.8,0.2,3.5-0.3,4.6-2.8c0.7-1.6,1.8-2.5,3-1.6
		c4.4,3.2,8.9,2.8,13.6,1.6C279.7,346,267.2,347.9,254.7,347.2z"/>
	<path class="st1" d="M151.9,370.7c0-0.6,0-1.1,0-1.7c5.7-5.6,12.6-5.6,19-8.1c2.6-1,5.4-1,8-1.5c0,1.5,0,2.9,0,4.4
		C169.6,364,160.9,368.5,151.9,370.7z"/>
	<path class="st2" d="M370.8,419.4c-10.2,0-20.3,0-30.5,0c0-0.7,0-1.5,0-2.2C350.5,416.6,360.6,415.6,370.8,419.4z"/>
	<path class="st2" d="M289.4,378.9c8-2,15.8-5.5,24.9-4.7c-2,5-5.9,6.9-7.6,5c-3.3-3.6-5.3,1.5-8.1,0.5c-2.7-0.9-5.9,0.8-8.9,1.4
		C289.6,380.4,289.5,379.7,289.4,378.9z"/>
	<path class="st2" d="M136.6,426.6c1.1,1.1,2.3,2.3,3.4,3.4c-7.3,3.8-14.4,0.3-21.6-0.6c0-0.9-0.1-1.9-0.1-2.8
		C124.5,426.6,130.6,426.6,136.6,426.6z"/>
	<path class="st1" d="M491.3,365.8c7.8,0.6,15.7-1.4,23.4,2.3c-10.2,1.1-20.4,1.6-30.4-2.1C486.6,365.9,488.9,365.8,491.3,365.8z"/>
	<path class="st1" d="M478.3,410.1c2.8,3,7.8,0.1,9.4,6.5c-8.4,0.3-15.8-5.8-24.1-6.7C468.6,409.3,473.4,410.8,478.3,410.1z"/>
	<path class="st1" d="M284,416.3c6,2.7,12.9,1,18.2,7c-7.1-0.7-14.3,0-20.8-5C281.9,416.9,283,416.7,284,416.3z"/>
	<path class="st1" d="M425.3,434.7c8.3-2,16.2,1.9,24.3,3c2.7,0.4,4.9-0.8,7.4-1.4c1.2,1.1,2.4,2.1,3.6,3.2v0c-5.5,0-11,0-16.5-0.1
		c-4.5-2.3-9.3-2.2-14-3.2C428.4,436,426.6,437,425.3,434.7z"/>
	<path class="st1" d="M274.4,413.6c-4.6-0.4-8.9-2-13-5.2c0-0.5,0-1.1,0-1.6c0-0.5,0-1.1,0-1.6c1.8-1.6,3.9-1.8,5.9-1.7
		c3.6-0.4,3.4,7,7,6.7C274.4,411.3,274.4,412.4,274.4,413.6z"/>
	<path class="st2" d="M391,380.4c-0.1-4-2.1-5.4-4.4-4.4c-5.9,2.5-12,0.7-17.9,1.3l0,0c8.3-4.1,16.8-3.4,25.4-3.2
		c4.2,0.1-0.5,3.3,0.6,4.7C393.8,380.8,392.4,380.5,391,380.4z"/>
	<path class="st1" d="M292,410.1c1.6-2.8,3.9-1.4,5.9-1.6c4.3,4.2,9,6.2,14.2,6.5c0,1,0,2.1,0,3.1
		C304.9,417.8,298.2,415.2,292,410.1z"/>
	<path class="st1" d="M232.1,385.5c-1.9,0.8-4.7,0.3-4.2,4.9c0.5,4.3-2.3,4.4-3.9,5.9c-0.8,0.7-1.8-0.6-2.2-2
		c-0.9-3,0.7-4.4,2.1-5.9c1.1-1.1,1-2.9,1.1-4.5c2.4-0.6,4.8-1.2,7.2-1.6c0.8-0.2,1.7,0.4,1.5,1.6
		C233.7,384.6,232.6,385,232.1,385.5z"/>
	<path class="st2" d="M183.8,388.8c1.6-8.4,7.8-13.7,16.3-12c-6.2,3.4-10.5,6.8-14.1,11.9C185.3,388.8,184.5,388.8,183.8,388.8z"/>
	<path class="st1" d="M388.7,400.3c0,0.5,0,1.1,0.1,1.6c-5.1,0.1-10.2,0.2-15.2,0.3c-2.8-0.1-5.7-0.1-8.5-0.2
		c-2.3,0.5-4.6,1-6.9,1.3c-1.3,0.1-3.2,0.7-3.3-2c-0.1-3.5,2.1-2.8,3.4-2.5C368.4,401.5,378.6,399.4,388.7,400.3z"/>
	<path class="st2" d="M400.6,388.8c0,2.4,3,2.5,2.3,4.8c-0.7,2.2-2.7,1.5-4.2,1.6c-1.7,0.1-3.5,0.1-5.2,0.1
		c-0.8-0.1-1.7-0.1-2.5-0.2c-0.9-5.3,0.6-7.2,4.4-6.4C397.1,389,398.9,388.8,400.6,388.8z"/>
	<path class="st3" d="M395.8,412c1,1.7,2.3,1.4,3.6,1.3c2.3,0.7,5-1.1,7.1,1.8c-5.1,0-10.3,0.1-15.4,0.1c-3.9-1-8.5,2.2-11.7-3.4
		c0-0.5,0.1-0.9,0.1-1.4C384.9,410.9,390.3,411.4,395.8,412z"/>
	<path class="st2" d="M340,425.9c-11.1,1.7-21.2-0.5-31.3-2C318.9,422.8,329.1,423,340,425.9z"/>
	<path class="st1" d="M391,380.4c1.4,0.1,2.8,0.4,3.7-1.6c3.1,0,6.3,0.1,9.4,0.1c0,0.6,0,1.1,0,1.7c-7.8,1.7-15.7,3.3-23.5,5
		c0-0.5-0.1-1.1-0.2-1.6C383.8,381.7,387.2,379.7,391,380.4z"/>
	<path class="st2" d="M405.5,367.9c1.1-0.3,2.2-0.6,3.4-0.9c-0.9-2.3-2.5-0.5-3.8-2c1.5-1.1,3-1.9,4.2-3.2c2.5-2.5,3.6,1.3,5.4,2
		c0.8,0.3,1.3,2.1,0.7,3.5c-1,2.5-2.7,1.5-4.2,1.6c-1.9,0.1-3.9,0-5.9,0C405.4,368.7,405.4,368.3,405.5,367.9z"/>
	<path class="st2" d="M312.1,418.2c0-1,0-2.1,0-3.1c6,0.6,11.8,2.7,17.8,2.3C324.1,422.5,318,417.9,312.1,418.2z"/>
	<path class="st1" d="M473.6,457.7c-6.3,2.5-12.5,2.5-18.8,0.1C461,454.9,467.3,455.2,473.6,457.7z"/>
	<path class="st1" d="M339.3,430c8.5,0,17.1,0,25.6,0c-8.6,0.2-17,3.2-25.6,2.8C339.3,431.8,339.3,430.9,339.3,430z"/>
	<path class="st1" d="M293.4,402.2c-1.8-0.6-4.5,0-4.3-3.7c0.1-3,2.5-5.2,4.3-5.8c3.4-1.3,1.4,4.7,3.4,5.9
		C296.8,401.8,295,401.8,293.4,402.2z"/>
	<path class="st3" d="M257.9,398.6c2.5-3.2,5.6-1.1,8.3-1.8c4.6,1,9.3-1.5,13.8,1.5c-4.2,0.5-8.6-0.6-12.6,2
		c-2.7-0.1-5.5-0.2-8.2-0.2C258.8,399.6,258.3,399.1,257.9,398.6z"/>
	<path class="st1" d="M457.1,434.8c-5.6-1-11.2-2-16.8-3c5.7-3.5,11.1,0.9,16.6-0.3C456.5,432.6,461.1,433.4,457.1,434.8z"/>
	<path class="st2" d="M432.5,363c8.5-0.7,17.1-1.4,25.6-2C449.8,365.1,441.2,364,432.5,363z"/>
	<path class="st1" d="M372.2,421.8c0.7,4,2.7,3.3,4.6,2.3c2.2-1.3,3.8-0.6,4.9,2.4c-5.7,0-11.3,0-17,0c0-0.8-0.1-1.5-0.1-2.3
		C367.1,423.4,369.6,422.6,372.2,421.8z"/>
	<path class="st1" d="M183.7,359.2c4.6-2.1,9.2-4.9,15.3-2c-5.4,3.4-10.3,3.9-15.3,3.8C183.7,360.4,183.7,359.8,183.7,359.2z"/>
	<path class="st1" d="M243.9,390.7c-2-1.2-4-2.4-6-3.6c4-0.9,8-1.9,12.4-2.9C249.5,389.6,246.9,390.6,243.9,390.7z"/>
	<path class="st2" d="M368.7,377.3c-5.5,3.4-11.1,4.4-16.9,1.6C357.4,376.4,363.1,377.7,368.7,377.3
		C368.7,377.3,368.7,377.3,368.7,377.3z"/>
	<path class="st2" d="M339.3,430c0,0.9,0,1.9,0,2.8c-3.4,0.8-7-0.6-10.3,1.4c-1.6,0.9-2.5-0.4-2.8-2.7c0.4-0.5,0.7-1,1.1-1.5
		C331.3,430,335.3,430,339.3,430z"/>
	<path class="st1" d="M307.6,436.7c6.9,0,13.8,0,20.7,0c0,0.5,0,0.9,0,1.4c-6.9,0-13.8,0-20.7,0
		C307.6,437.6,307.6,437.2,307.6,436.7z"/>
	<path class="st2" d="M335.3,442.2c-7.4,1.5-15-0.6-22.5,2.2c0-0.7-0.1-1.5-0.1-2.2C320.3,442.2,327.8,442.2,335.3,442.2z"/>
	<path class="st1" d="M200.2,383.9c-1.2,4.1,0.9,10.8-4.7,11.4C192.4,387.8,197.1,386.5,200.2,383.9z"/>
	<path class="st2" d="M270.9,371.5c-5.9,0.5-11.5,4.7-17.7,3.2C258.9,372.2,264.7,370.2,270.9,371.5z"/>
	<path class="st2" d="M329.2,374c-4.2,0.1-8.5,3.4-14.1-0.4C320.7,372.1,325,371.8,329.2,374z"/>
	<path class="st2" d="M443.9,357.4c-5.2,5.7-11.2,1.6-16.7,4.8c-0.1-0.7-0.1-1.5-0.2-2.2C432.6,359.1,438.2,358.2,443.9,357.4z"/>
	<path class="st1" d="M374.2,372.1c-7.7,0-15.4,0-23.1,0c0-0.3,0-0.6,0-0.9c7.8,0,15.5,0,23.3,0
		C374.3,371.5,374.3,371.8,374.2,372.1z"/>
	<path class="st1" d="M332.2,373.3c4.8-1,9.5-3.9,14.6-1C342,374.8,337.1,373.9,332.2,373.3z"/>
	<path class="st1" d="M254.8,445.9c-5-1.3-10.1-2.5-15.1-3.8c5.2-1.2,10.3-0.3,15.2,1.7C254.9,444.5,254.9,445.2,254.8,445.9z"/>
	<path class="st2" d="M458.3,370.7c-5.4,2.5-11,3.4-16.7,3.2C446.9,369.7,452.6,370.8,458.3,370.7L458.3,370.7z"/>
	<path class="st2" d="M274.4,413.6c0-1.1,0-2.3,0-3.4c2.2,5,7.5,0.6,9.6,6.2c-1,0.3-2.1,0.6-2.6,2.1
		C278,419.7,276.9,414.9,274.4,413.6z"/>
	<path class="st1" d="M407.6,377.4c4.5-0.3,8.9-0.7,13.4-1c0,0.6,0.1,1.2,0.1,1.9c-4.5,0.7-9,1.4-13.4,2.2
		C407.6,379.4,407.6,378.4,407.6,377.4z"/>
	<path class="st2" d="M135.5,417.8c-3.6,3.2-7,4.1-10.9,0C128.8,417.8,132.1,417.8,135.5,417.8z"/>
	<path class="st1" d="M484.3,436.3c3.7-0.3,7.3-0.7,11-1c0.1,3.3-1.9,3.2-2.9,4.4C489.8,437.8,486.6,439.1,484.3,436.3z"/>
	<path class="st2" d="M303.6,453.4c-4.7,0.6-9.6,2.1-14.1-1.1C294.3,451.7,298.9,453.7,303.6,453.4z"/>
	<path class="st2" d="M259.2,400.1c2.7,0.1,5.5,0.2,8.2,0.2c0,1,0,2.1,0,3.1c-2.1-0.1-4.1,0.1-5.9,1.7
		C260.1,404,257.6,403.9,259.2,400.1z"/>
	<path class="st1" d="M391,395.1c0.8,0.1,1.7,0.1,2.5,0.2c-0.4,1.1-0.8,2.1-1.1,3.2c-0.4,0.1-0.9,0.1-1.3,0.2
		c-3.3-1.9-6.8-1.7-10.3-3.6C384.1,395.1,387.6,395.1,391,395.1z"/>
	<path class="st2" d="M269.6,449.5c-4.3-0.9-7.6-1.6-11.1-2.3C261.1,444.8,264.5,445.4,269.6,449.5z"/>
	<path class="st2" d="M361.4,367c-5,0-10,0-15,0c0-0.3,0-0.5,0-0.8c5,0,9.9,0,14.9,0C361.3,366.5,361.4,366.8,361.4,367z"/>
	<path class="st1" d="M183.8,388.8c0.8,0,1.5-0.1,2.3-0.1c1.4,1.1,2.8,2.2,1.5,4.9c-0.6,1.2-1.5,1.9-2.5,1.4
		C182.9,393.8,183.9,391,183.8,388.8z"/>
	<path class="st2" d="M365.1,402c2.8,0,5.7,0.1,8.5,0.2C370.7,406.8,367.9,407.1,365.1,402z"/>
	<path class="st2" d="M144.8,378.8c0-1.1,0.1-2.1,0.1-3.2c1.6,0,3.1,0,5.8,0C148.2,377.8,148.5,385.4,144.8,378.8z"/>
	<path class="st1" d="M384,426.5c3.9-2.5,7.9-2.7,11.8,0.1C391.9,426.6,387.9,426.5,384,426.5z"/>
	<path class="st2" d="M348.7,423.6c3.8,0,7.6,0,11.4,0c0,0.2,0,0.5,0,0.7c-3.8,0-7.6,0-11.4,0C348.7,424.1,348.7,423.9,348.7,423.6z
		"/>
	<path class="st2" d="M364.8,391.5c1.1-3,2.8-4.3,5.2-4C370.4,394.4,367.3,392.2,364.8,391.5z"/>
	<path class="st2" d="M416.3,370.6c3.1,0,6.3,0,9.4,0C422.5,372.7,419.2,372.5,416.3,370.6z"/>
	<path class="st2" d="M183.7,359.2c0,0.6,0,1.2,0,1.8c-1.3,2-2.9,3.1-4.8,2.9c0-1.5,0-2.9,0-4.4
		C180.5,359.4,182.1,359.3,183.7,359.2z"/>
	<path class="st1" d="M358.2,355.8c3.5-2.3,6.9-2.3,10.4,0C365.1,355.8,361.7,355.8,358.2,355.8z"/>
	<path class="st1" d="M372.2,351.2c-3.1,2.2-6.2,2.4-9.3-0.1C366,351.2,369.1,351.2,372.2,351.2z"/>
	<path class="st2" d="M433.8,369.9c-1.8,0.9-3.3,1.4-4.7-0.9C431.1,366.4,432.3,368.2,433.8,369.9z"/>
	<path class="st1" d="M229.6,439.6c0.4-0.6,0.9-1.3,1.3-1.9c1.4,0.3,3,0,3.9,2.4C232.9,442.3,231.3,440.6,229.6,439.6z"/>
	<path class="st2" d="M524.3,455.7c-1.6,0-3.2,0-4.9,0.1C521.1,451.4,522.7,451.4,524.3,455.7z"/>
	<path class="st2" d="M413.8,373.1c-3.6,1-5.4,1.2-7.9,0.1C408.4,372,410.3,372.2,413.8,373.1z"/>
	<path class="st2" d="M407.6,377.4c0,1,0,2,0,3c-1.2,0.1-2.4,0.1-3.6,0.2c0-0.6,0-1.1,0-1.7C404.9,377,406.3,377.3,407.6,377.4z"/>
	<path class="st3" d="M440.4,395.3c-2.2-0.6-4.7,1.1-6.7-1.5C435.9,394.1,438.4,392.4,440.4,395.3z"/>
	<path class="st2" d="M190.8,397c-0.3,0.8-0.5,2.3-1,2.4c-1.3,0.4-1.2-1.3-1.4-2.4C189.2,397,190,397,190.8,397z"/>
	<path class="st2" d="M428.1,379.3c-0.4,0.3-0.7,0.9-0.8,0.8c-0.5-0.3-1-0.7-1.2-1.3c-0.3-1,0.3-1.3,0.9-1
		C427.4,378.1,427.8,378.7,428.1,379.3z"/>
	<path class="st2" d="M160.2,375.8c-0.1,2-0.9,3.1-2.4,3.1C157.8,376.7,158.6,375.6,160.2,375.8z"/>
	<path class="st2" d="M458.3,370.7c0.5-1.2,1.3-1.8,2.3-1.3c0.1,0.1,0.2,0.4,0.3,0.6C460,370.2,459.1,370.5,458.3,370.7L458.3,370.7
		z"/>
	<path class="st2" d="M444.5,389.5c-0.3,0.3-0.6,0.7-0.9,0.7c-0.3,0-0.6-0.4-0.9-0.6c0.3-0.2,0.6-0.7,0.9-0.7
		C443.8,388.9,444.1,389.3,444.5,389.5z"/>
	<path class="st2" d="M260.9,441.4c0.3,0.2,0.6,0.5,0.9,0.7c-0.3,0.2-0.6,0.6-0.9,0.6c-0.3,0-0.6-0.4-0.9-0.6
		C260.3,441.8,260.6,441.6,260.9,441.4z"/>
	<path class="st2" d="M396.1,350.2c-0.3,0.3-0.6,0.6-0.9,0.7c-0.3,0-0.6-0.4-0.9-0.6c0.3-0.2,0.6-0.6,0.9-0.6
		C395.5,349.6,395.8,349.9,396.1,350.2z"/>
	<path class="st3" d="M254.4,397c0.3,0.5,0.7,0.9,1,1.4c-0.8-0.1-1.5-0.2-2.3-0.3C253.5,397.7,254,397.3,254.4,397z"/>
	<path class="st1" d="M294.4,403.6c-0.2,0.6-0.4,1.9-0.5,1.8c-0.9-0.2-0.5-1.3-0.6-2.2C293.7,403.4,294.1,403.5,294.4,403.6z"/>
	<path class="st2" d="M272.3,449.9c0,0.2,0.2,0.5,0.1,0.6c-0.1,0.1-0.3,0.2-0.5,0.2c0-0.2-0.2-0.5-0.1-0.6
		C271.9,450,272.1,449.9,272.3,449.9z"/>
	<path class="st2" d="M261.5,406.8c0,0.5,0,1.1,0,1.6c-0.5-0.2-1.4,0.4-1.3-1C260.2,407.1,261,407,261.5,406.8z"/>
	<path class="st3" d="M140,436.4c-0.3,0.7-0.6,0.9-1,0.1C139.4,436.5,139.7,436.4,140,436.4z"/>
	<path class="st1" d="M455.9,405.2c0.1-0.2,0.2-0.5,0.2-0.7C456.1,404.7,456,404.9,455.9,405.2C455.9,405.1,455.9,405.2,455.9,405.2
		z"/>
	<path class="st2" d="M143.5,380.6c-0.1-0.4-0.3-0.8-0.3-1.2c0,0,0.3-0.2,0.5-0.3C143.6,379.5,143.6,380.1,143.5,380.6z"/>
	<path class="st1" d="M460.6,439.6c0.2,0.2,0.3,0.4,0.5,0.7c-0.1,0-0.2,0-0.3-0.1C460.7,440,460.7,439.8,460.6,439.6
		C460.6,439.6,460.6,439.6,460.6,439.6z"/>
	<path class="st2" d="M619.7,431.4c-9.6,3.2-18.9-0.5-28.5-2.5c3.8-0.8,5.2-5.2,5.3-9.1c0.1-3.1-3.5-0.3-5.3-2.9
		c3.1-0.3,6-0.1,8.6-0.8c6.2-1.7,7.2-6.6,3.6-13.3c-1-1.9,1.1-6.5,3-7.8c1.8-1.2,4-3.8,6.5,1.6c2.9,6.1,10.1,4.7,13.4,2.6
		c6.4-4.2,12.8-2.3,19-3.8c2.4-0.6,3.3,0.7,3.3,4.5c0.1,3.3,0.1,5.5-2.7,5.2c-6.3-0.5-12.5,0.7-18.7,1.6c-2.9,0.4-5.7-0.1-8.4-2.5
		c-1.8-1.6-4.3-1.5-5.7,1.6c-0.9,1.9-1.1,5,0.8,5.4c1.9,0.3,3.6,6.9,6.1,0.5c1-2.5,1.6-2,2.8,1.5c0.1,0.5,0.6,1.1,0.8,1.1
		c5.1-1.5,10.1,7.5,15.2,0.5c3.6-5,6.8-2.8,9.8,1c1.9,2.3,2.3,4.1-0.5,6c-5.4,3.9-10.9,7.6-17.2,8.3c4.8,0,9.6,0,14.1,0
		c-6.2,6.5-13.6,5-20.9,4.6C622.4,434.6,620.1,435.5,619.7,431.4c2.3,0,4.6,0,8.5,0c-3.1-2-4.8-2.1-6.2-3.8c-1-1.2-2.6-2-3.5-0.3
		C618.2,427.8,619.3,430,619.7,431.4z M600.3,425.4c7.4,2.6,7.4,2.6,8.6-5.3C605.3,419.7,601.7,419.1,600.3,425.4z M609.4,399.2
		c-0.2-0.1-0.3-0.2-0.5-0.2c-0.1,0-0.1,0.4-0.2,0.6c0.2,0.1,0.3,0.2,0.5,0.2C609.3,399.8,609.4,399.4,609.4,399.2z"/>
	<path class="st2" d="M549.1,401.9c3.6,0,7.3,0,10.9,0c1.1,0,2.5-0.3,2.6,2.1c0,0.7-0.2,1.8-0.6,2.2c-1.6,1.9-1.6-1.4-2.5-1.7
		c-0.7-0.3-1.5-1-2.2-0.9c-6.6,0.5-13.1,0.5-17.5-8.5c1.1-3,3.3-4.6,6.7-5c5.6-0.7,11-3.7,16.8-3c1.4,0.2,2.9,0,3.2,2.5
		c0.3,2.3-0.7,3-2,4.1c-3.6,2.9,3.3,0.1,0.1,3.4c-3,0-6.8,0-10.7,0c0,0.4,0,0.8,0,1.2c3.8,0,7.5,0,11.3,0c0,0.6,0,1.1,0,1.7
		c-5.4,0-10.7,0-16.1,0C549.1,400.6,549.1,401.3,549.1,401.9z"/>
	<path class="st0" d="M492.4,392c-1.1,0-2.2,0-4,0c2.5-2.5,4.5-4.5,6.4-6.4c7.5-0.9,15.1,1.7,22.4-1.7c1.6,1.1,3.2,2.2,4.8,3.3
		c1.8,2.7,4.6,2.3,8.1,4.8C516.6,392,504.5,392,492.4,392z"/>
	<path class="st0" d="M490.2,401.7c0.9-5.5-2.8-5.5-5.8-8c3.5,0,5.8,0,8.1,0c8.6,0,17.3,0,25.9,0c1.2,4.5,1.1,7-3.3,5
		c-1.9-0.9-4.3-3-6.2,1.1c-0.9,2.1-2,1.2-2.2-0.9c-0.6-4.9-3.3-3.7-5.5-3.4c-2.5,0.4-4.4,2.1-4.1,6.3
		C494.8,401.8,492.5,401.8,490.2,401.7z"/>
	<path class="st3" d="M668,447.8c-4.3,6.4-9.2,4.5-14,1.6c2.7-3.8,7.1,0.6,11.3-4.9c-6.7,0-11.8,0-16.9,0c-3.1,0-6.3,0.7-8.6-3.1
		c0,0,0,0,0,0c8.5,0,17-0.1,25.5,0c1.9,0,4.5-1.2,5.1,3.2c0,0,0,0,0,0C668.8,444.5,668,445.6,668,447.8z"/>
	<path class="st2" d="M583.8,362.4c8.3-2.9,16.6-5.4,24.5-9.5c1.1-0.6,3.1-1.1,3.6,1.1c0.6,3-1.6,3.2-3,3.8
		C600.7,361,592.3,361.8,583.8,362.4z"/>
	<path class="st2" d="M632.1,378.1c6.8-4.6,12.4-4.3,18.1-3.2C644.9,377.6,639.5,379.9,632.1,378.1z"/>
	<path class="st2" d="M632.7,334.7c3.9-0.1,7.7-0.2,11.6-0.3c1.8-0.1,3.5,0.2,4.2,3.2c-3.9,0.1-7.8,0.3-11.7,0.3
		C634.9,337.9,633,338.3,632.7,334.7z"/>
	<path class="st3" d="M576.1,446.2c-0.8,0-1.5,0.1-2.3,0.1c-8.2,0-16.3,0-24.5,0c0-0.8,0-1.6,0-2.5
		C558.2,446,567.1,442.6,576.1,446.2z"/>
	<path class="st3" d="M553.7,438c5.2-0.6,10.2,1.7,15.2,2.8c-5.4-1.5-11.4,4.1-16.4-2.8c0,0,0.6,0,0.6,0L553.7,438z"/>
	<path class="st3" d="M552.5,436.3c0.6-4.6,3.4-3.7,5.1-3c3.2,1.3,6.5,1.2,9.8,3c-4.6,0-9.2,0-13.8,0
		C553.3,436.3,552.9,436.3,552.5,436.3z"/>
	<path class="st2" d="M604.4,363.8c5.6-3.6,10.4-2.9,15-4.1C615.2,362.7,610.7,364.8,604.4,363.8z"/>
	<path class="st2" d="M579.2,391.5c-3.7,2.9-6,1.9-9.5,1.7C572.9,389.3,575.3,390.4,579.2,391.5z"/>
	<path class="st2" d="M581,415c0.6,0.4,1.4,0.6,1.5,1.1c0.3,1.2-0.3,1.9-1.1,1.9c-0.4,0-1-0.7-1.1-1.2
		C580.2,416.4,580.7,415.7,581,415z"/>
	<path class="st2" d="M570,379c-0.7,0.6-1.1,1.2-1.5,1.2c-0.8,0.1-1.5-0.6-1.2-1.8c0.1-0.4,0.9-0.8,1.4-0.8
		C569,377.7,569.4,378.4,570,379z"/>
	<path class="st2" d="M658.3,418c-2.8,0.1-4.3,0.9-5.8-0.7C654.2,416.4,655.9,416.2,658.3,418z"/>
	<path class="st2" d="M547.8,441.3c0.2-1.2,0.1-2.6,1.4-2.5c0.1,0,0.4,0.3,0.4,0.5C549.7,441.1,548.7,441,547.8,441.3
		C547.8,441.3,547.8,441.3,547.8,441.3z"/>
	<path class="st2" d="M705.3,396.6c-0.1,0.5-0.2,1.1-0.4,1.3c-0.2,0.1-0.6-0.3-1-0.5c0.1-0.4,0.2-1.2,0.4-1.3
		C704.6,395.9,705,396.4,705.3,396.6z"/>
	<path class="st2" d="M612.3,338.9c0.1-0.2,0.1-0.6,0.2-0.6c0.2,0,0.3,0.1,0.5,0.2c-0.1,0.2-0.1,0.6-0.2,0.6
		C612.6,339.1,612.5,339,612.3,338.9z"/>
	<path class="st0" d="M524.2,387.1c0.4-1.1,0.8-1.2,1.2,0C525,387.1,524.6,387.1,524.2,387.1z"/>
	<path class="st2" d="M552.5,436.3c0.4,0,0.8,0,1.2,0c0,0.5,0,1.1,0,1.6c0,0-0.6,0-0.6,0s-0.6,0-0.6,0
		C552.5,437.4,552.5,436.9,552.5,436.3z"/>
	<path class="st2" d="M544.3,367.4c0.2,0.1,0.3,0.2,0.5,0.4C544.6,367.7,544.4,367.5,544.3,367.4
		C544.3,367.4,544.3,367.4,544.3,367.4z"/>
	<path class="st0" d="M715.2,382.1c0.5,0.4,2.4-0.7,1.2,1.9c-6.2-0.4-11.8,4-18,3.9C703.5,383.2,709.3,382.4,715.2,382.1z"/>
	<path class="st1" d="M668.1,347.9c1.1,1,2.3,2,3.4,3c-2.2,2.1-4.6,2.1-7.3,1.5C665.1,349.9,666.6,348.8,668.1,347.9z"/>
	<path class="st1" d="M639.8,441.3c2.3,3.9,5.6,3.1,8.6,3.1c5.1,0,10.2,0,16.9,0c-4.3,5.5-8.6,1.1-11.3,4.9c-0.9,0-1.7,0-2.6,0
		c-3.5-2.3-7-2.4-10.5,0.1c-5.8,3.9-11.1-0.8-16.6-0.9c0-0.7,0-1.4,0-2.1c4,0,7.9,0,13.2,0c-3.6-3.3-6.7-0.4-9.5-4.3
		C632.3,440.6,636.1,441.5,639.8,441.3z"/>
	<path class="st3" d="M640.9,449.5c3.5-2.5,7-2.4,10.5-0.1C647.9,449.4,644.4,449.4,640.9,449.5z"/>
	<path class="st1" d="M668,447.8c0-2.2,0.8-3.3,2.4-3.3C670.3,446.7,669.5,447.8,668,447.8z"/>
	<path class="st2" d="M96.3,445.9c2.6-2.3,5.4-3.4,8.4-3.5c0,3.1,0.6,6.1-2.6,7.6C98.7,451.5,97.7,448.7,96.3,445.9z"/>
	<path class="st0" d="M169.5,347.9c-4.3-0.1-8.6-0.1-12.8-0.2c5.2-1.4,0.6-5.5,1.1-8.1c6.7-0.4,13.2-2.7,20-1.7
		c0.2,3.4-0.8,5.1-3.4,4.9c-2.3-0.1-4.6,0-7,1.4c3.8,0,7.7,0,11.5,0C176,347,172.3,344.8,169.5,347.9z"/>
	<path class="st1" d="M147.1,360.9c-0.7,7-4.5,6.6-8.2,6.5c-3.2-2.5-6.3,1-9.4,0c0-0.6,0-1.1,0-1.7
		C135.2,362.9,141.3,362.5,147.1,360.9z"/>
	<path class="st1" d="M117.6,347.8c2-1,3.8-3.6,6,0.7c0.8,1.5,4,0.8,6.1,0.8c2.9,0.1,5.9-0.3,8.1,3.3c-6.7-0.6-13.4-1.2-20.1-1.8
		C117.7,349.8,117.7,348.8,117.6,347.8z"/>
	<path class="st3" d="M117.6,347.8c0,1,0,2,0,3c-2.7,0.3-5.5,0.8-7.4-3.1C112.8,347.8,115.2,347.8,117.6,347.8z"/>
	<path class="st2" d="M135,360.9c-0.6-0.5-1.3-0.8-1.4-1.3c-0.2-1.3,0.5-1.8,1.3-1.7c0.4,0.1,1,0.8,1,1.3
		C136,359.7,135.4,360.2,135,360.9z"/>
	<path class="st0" d="M361.7,337.2c-3.7,4.3-7.7,2.2-11.6,1.2C353.8,335.4,357.7,336.8,361.7,337.2z"/>
	<path class="st0" d="M140.2,383.9c0.3-1.1,0.7-1,1.1-0.2C140.9,383.8,140.5,383.8,140.2,383.9z"/>
	<path class="st0" d="M129.5,367.4c3.2,1,6.3-2.5,9.4,0c-1.9,4.2-5,4.4-8,4.9c-1.8,0.3-3.6,0.1-3.8,3.4c-0.8-0.6-1.6-1.1-2.5-1.7
		C124,368.6,128,369.8,129.5,367.4z"/>
	<path class="st0" d="M406.4,415c-2.1-2.9-4.7-1-7.1-1.8c0.1-2.4,1.1-2.9,2.7-2.9c5.4,0.1,10.7-0.2,16.1-0.3
		c8.5,1.8,17.1,3.7,25.6,5.4c4.8,1,9.6,2.2,14.4,2.3c2.6,0,2.4,1.5,2.4,3.8c-1.2-1-2.3-1.1-3.5,0c-12.6-2.1-25.2-4.2-37.8-6.3
		C415,415.1,410.7,415,406.4,415L406.4,415z"/>
	<path class="st1" d="M490.2,401.7c2.3,0.1,4.6,0.1,7,0.2c3.7,5.1,8.7,4.7,13.2,6.5c1.6,0.6,3.5,0,5.2,0.4c0.8,0.2,2,1.3,2.1,2.3
		c0.3,2.3-1.2,2.1-2.3,2.4c-2.8,0.6-5.1,1.3-8.1-1.2c-3.7-3.1-8.4-4.2-12.9-3.7c-4.1,0.4-7.9-1.1-11.7-3.5
		C485.3,404.1,488,404.2,490.2,401.7z"/>
	<path class="st1" d="M419.3,415.2c12.6,2.1,25.2,4.2,37.8,6.3c0,1.1,0,2.2,0,3.3c-6.1-2.9-12.6-2-18.8-3c-5.3-0.8-10.6-2.9-16.1-2
		c-1.6,0.3-2.6-0.9-2.8-3.2C419.3,416.2,419.3,415.7,419.3,415.2z"/>
	<path class="st1" d="M517.3,446.7c-4.1,0.6-7.9,3.9-12.2,2.8c-1.3-0.3-3,0-2.9-2.7c0.1-2.1,1.5-2.2,2.7-2.1
		C509,444.9,513.3,443.4,517.3,446.7z"/>
	<path class="st1" d="M517.2,383.9c-7.4,3.4-15,0.8-22.4,1.7C502.2,381.4,509.6,380.6,517.2,383.9z"/>
	<path class="st0" d="M461.7,421.6c2.5-3.2,5.5-1.1,8.3-1.6c-0.2,1.1,3.1,2.7,0,3.1C467.3,423.3,464.5,422.1,461.7,421.6z"/>
	<path class="st1" d="M503,433c-1,4.7-3.1,0.6-4.7,0.4C499.9,433.3,501.5,433.2,503,433C503,433.1,503,433,503,433z"/>
	<path class="st0" d="M259.5,420.8c-6.5-2.4-11.5-4.2-16.4-6c-0.9-0.3-1.3-1.2-1-2.4c0.6-2.1,2.2-2.9,3.4-2.1
		C249.8,412.9,254.6,414.3,259.5,420.8z"/>
	<path class="st1" d="M227.3,415c-4-0.3-6.6-5.3-10.7-5.4c-1.6-0.1-2.9-2.6-1.7-4.8c1.3-2.5,1.7,0.3,2.8,1.3
		c1.8,1.8,4.2,2.5,6.5,3.4C226.2,410.2,227.7,411.5,227.3,415L227.3,415z"/>
	<path class="st3" d="M180.2,433c-3.4-4.1-8.2-0.7-11.7-4.2c4.4,0.3,9.6-3.2,12.8,4.2c0,0-0.5,0-0.5,0L180.2,433z"/>
	<path class="st3" d="M209.7,420.2c-1.6-3.4-3.9-3.8-6.6-3.7c-2,0.1-4.3,1.1-6.1-1.3c3.5-0.1,7-0.2,10.5-0.2
		C210.2,415,211.8,416.1,209.7,420.2z"/>
	<path class="st1" d="M198.7,398.5c3.1,0.8,5.9,1.5,9.1,2.3C204.2,403.4,201.2,405.6,198.7,398.5z"/>
	<path class="st1" d="M232.1,405.3c-2.8,2.2-5,1.4-7.4,1.3C226.7,400.5,229,402.7,232.1,405.3z"/>
	<path class="st1" d="M183.7,431.3c1.2,0.1,2.6-0.3,3.5,1.5c0.1,1.4,1.6,3.7,0.3,4.1C184.7,437.8,184.8,433.5,183.7,431.3z"/>
	<path class="st0" d="M255.1,431.9c-0.3,0.2-0.8,0.6-1,0.5c-0.2-0.1-0.3-0.9-0.4-1.3c0.3-0.2,0.8-0.6,1-0.5
		C255,430.7,255,431.4,255.1,431.9z"/>
	<path class="st1" d="M217.8,421.6c-0.9-0.3-1.7-0.5-2.6-0.8c0.1-0.2,0.2-0.6,0.3-0.6C216.6,419.8,217.3,420.3,217.8,421.6
		L217.8,421.6z"/>
	<path class="st1" d="M179,434.7c0.5,0.2,1,0.4,1.5,0.6c-0.1,0.2-0.2,0.4-0.3,0.6C179.8,435.5,179.4,435.1,179,434.7
		C179,434.7,179,434.7,179,434.7z"/>
	<path class="st1" d="M226.1,438c0.2,0.1,0.3,0.3,0.5,0.4C226.4,438.2,226.3,438.1,226.1,438C226.1,438,226.1,438,226.1,438z"/>
	<path class="st1" d="M227.3,415c0.2,0.1,0.3,0.3,0.5,0.4C227.6,415.3,227.5,415.1,227.3,415C227.3,415,227.3,415,227.3,415z"/>
	<path class="st1" d="M217.9,421.5c0.4,0.6,0.8,1.1,1.2,1.7c0,0,0,0,0,0C218.6,422.7,218.2,422.2,217.9,421.5
		C217.8,421.6,217.9,421.5,217.9,421.5z"/>
	<path class="st1" d="M405,437.1c6.1,0.4,12.2,0.8,18.9,1.3c-1.6,3.8-3.6,3-5.3,2.6c-2.2-0.5-4.4-2.6-5.6,2.2
		c-0.3,1.3-2.1,1.6-2.4,0.3C409.9,439.1,406.8,440.1,405,437.1z"/>
	<path class="st3" d="M419.3,415.2c0,0.5,0.1,1,0.1,1.5c-4.3-0.8-8.8,1.7-13-1.7C410.7,415,415,415.1,419.3,415.2z"/>
	<path class="st3" d="M173.2,413.3c-0.4-1.1-0.9-2.1-1.3-3.2c0.4-1.6,0.9-3.2,1.3-4.9c1.2,0.1,2.3,0.2,3.5,0.3
		c5.2,2.6,9.4,7.2,14.6,12.8C183.7,420.4,178.9,414,173.2,413.3z"/>
	<path class="st3" d="M192.1,419.2c6.8-0.2,10.8,4.1,15.4,6.2C202.5,425.4,197.7,424.4,192.1,419.2z"/>
	<path class="st0" d="M177.8,401.8c0-0.5,0-0.9,0.1-1.4c4.2-0.2,8.6-1.3,11.8,4.4C185.4,405.9,181.8,402.8,177.8,401.8z"/>
	<path class="st1" d="M148.1,343.5c-5.8,0.9-11.4,4-17.9,2.1C136.3,340.9,142.3,343.6,148.1,343.5z"/>
	<path class="st0" d="M147.1,352.7c0.9,0.2,1.7,0.4,2.6,0.6c-0.8,0.9-1.7,1.8-2.5,2.6c-0.8-0.3-2-0.2-1.8-2
		C145.5,353.4,146.5,353.1,147.1,352.7z"/>
	<path class="st3" d="M142.4,436.1c2.5,0.2,4.9,0.4,7.4,0.7c0.4,0.1,0.8,0.9,1.6,1.8C147.6,440.6,144.9,438.5,142.4,436.1
		C142.3,436.2,142.4,436.1,142.4,436.1z"/>
	<path class="st3" d="M166,433c1.6,0.2,3.5-0.8,4.7,1.7C169.1,434.5,167.3,435.3,166,433z"/>
	<path class="st2" d="M164.2,387c-0.3-0.3-0.6-0.5-0.8-0.7c0.3-0.2,0.6-0.6,0.9-0.6c0.3,0,0.6,0.4,0.8,0.7
		C164.8,386.6,164.5,386.8,164.2,387z"/>
	<path class="st1" d="M173.2,405.3c-0.4,1.6-0.9,3.2-1.3,4.9c-0.8,0-1.5,0-2.3-0.1c-1.4-0.1-3-0.7-2.9-2.8c0-2.7,1.9-1.9,3.1-2
		C170.9,405.1,172,405.2,173.2,405.3z"/>
	<path class="st0" d="M185.2,340.3c-0.3,0.3-0.6,0.7-0.9,0.7c-0.3,0-0.6-0.4-0.9-0.6c0.3-0.2,0.6-0.6,0.9-0.7
		C184.6,339.7,184.9,340.1,185.2,340.3z"/>
	<path class="st1" d="M600.3,425.4c1.5-6.3,5.1-5.6,8.6-5.3C607.6,428,607.6,428,600.3,425.4z"/>
	<path class="st1" d="M619.7,431.4c-0.4-1.4-1.5-3.6-1.2-4.1c1-1.6,2.6-0.9,3.5,0.3c1.3,1.7,3.1,1.8,6.2,3.8
		C624.3,431.4,622,431.4,619.7,431.4C619.7,431.4,619.7,431.4,619.7,431.4z"/>
	<path class="st1" d="M609.4,399.2c-0.1,0.2-0.1,0.6-0.2,0.6c-0.2,0-0.3-0.1-0.5-0.2c0.1-0.2,0.1-0.6,0.2-0.6
		C609.1,399,609.3,399.1,609.4,399.2z"/>
</g>
</svg>
