<?xml version="1.0" encoding="utf-8"?>
<!-- Generator: Adobe Illustrator 22.0.0, SVG Export Plug-In . SVG Version: 6.00 Build 0)  -->
<svg version="1.1" id="Layer_1" xmlns="http://www.w3.org/2000/svg" xmlns:xlink="http://www.w3.org/1999/xlink" x="0px" y="0px"
	 viewBox="0 0 1920 1080" style="enable-background:new 0 0 1920 1080;" xml:space="preserve">
<style type="text/css">
	.st0{fill:#3ABCFF;stroke:#000000;stroke-width:3;stroke-miterlimit:10;}
	.st1{fill:#FFFFFF;}
	.st2{fill:#258031;}
	.st3{fill:none;stroke:#000000;stroke-miterlimit:10;}
	.st4{fill:#22B223;stroke:#000000;stroke-width:3;stroke-miterlimit:10;}
	.st5{fill:#A39272;stroke:#000000;stroke-width:3;stroke-miterlimit:10;}
	.st6{display:none;fill:#FFBE4A;stroke:#000000;stroke-width:3;stroke-miterlimit:10;}
	.st7{fill:#FFBE4A;stroke:#000000;stroke-width:3;stroke-miterlimit:10;}
	.st8{fill:none;stroke:#000000;stroke-width:3;stroke-miterlimit:10;}
	.st9{fill:#805F25;stroke:#000000;stroke-width:3;stroke-miterlimit:10;}
	.st10{fill:#512D17;stroke:#000000;stroke-width:3;stroke-miterlimit:10;}
	.st11{fill:#BFBFBF;stroke:#000000;stroke-width:3;stroke-miterlimit:10;}
	.st12{fill:#512D17;stroke:#000000;stroke-width:2;stroke-miterlimit:10;}
	.st13{fill:#FAFFE1;stroke:#000000;stroke-width:3;stroke-miterlimit:10;}
	.st14{stroke:#000000;stroke-width:0.5;stroke-miterlimit:10;}
	.st15{fill:#B65F1B;stroke:#000000;stroke-width:2;stroke-miterlimit:10;}
	.st16{fill:#4F2504;stroke:#000000;stroke-width:3;stroke-miterlimit:10;}
	.st17{fill:#AEA89D;stroke:#000000;stroke-miterlimit:10;}
	.st18{fill:#2C2A27;stroke:#000000;stroke-width:2;stroke-miterlimit:10;}
	.st19{fill:none;stroke:#000000;stroke-width:2;stroke-miterlimit:10;}
	.st20{fill:#9E421D;stroke:#000000;stroke-width:2;stroke-miterlimit:10;}
	.st21{fill:#47B300;stroke:#000000;stroke-width:2;stroke-miterlimit:10;}
	.st22{fill:#9E4E1D;stroke:#000000;stroke-width:2;stroke-miterlimit:10;}
	.st23{fill:#2C2A27;stroke:#000000;stroke-miterlimit:10;}
	.st24{fill:#2F660A;stroke:#000000;stroke-width:2;stroke-miterlimit:10;}
	.st25{stroke:#000000;stroke-width:2;stroke-miterlimit:10;}
	.st26{fill:#29170C;stroke:#000000;stroke-width:2;stroke-miterlimit:10;}
	.st27{fill:#0D2100;stroke:#000000;stroke-width:2;stroke-miterlimit:10;}
	.st28{fill:#0B0A0A;stroke:#000000;stroke-width:3;stroke-miterlimit:10;}
	.st29{fill:#60481C;stroke:#000000;stroke-width:3;stroke-miterlimit:10;}
	.st30{fill:#FFCB6E;stroke:#000000;stroke-width:3;stroke-miterlimit:10;}
	.st31{fill:#BF8F38;stroke:#000000;stroke-width:3;stroke-miterlimit:10;}
	.st32{stroke:#000000;stroke-width:3;stroke-miterlimit:10;}
	.st33{fill:#763A16;stroke:#000000;stroke-width:3;stroke-miterlimit:10;}
	.st34{fill:#2C2A27;stroke:#000000;stroke-width:3;stroke-miterlimit:10;}
	.st35{fill:#AEA89D;stroke:#000000;stroke-width:3;stroke-miterlimit:10;}
	.st36{fill:#5E5B5B;stroke:#000000;stroke-miterlimit:10;}
	.st37{fill:#BCB5B5;stroke:#000000;stroke-miterlimit:10;}
	.st38{fill:#0B0A0A;stroke:#000000;stroke-miterlimit:10;}
	.st39{fill:#3F382A;}
	.st40{fill:none;}
	.st41{fill:#231E14;}
	.st42{fill:#808080;}
	.st43{fill:#403013;}
	.st44{fill:#404040;}
	.st45{fill:#272B39;stroke:#000000;stroke-width:3;stroke-miterlimit:10;}
	.st46{fill:#805F25;}
	.st47{fill:#4492C2;stroke:#000000;stroke-width:3;stroke-miterlimit:10;}
	.st48{fill:#524939;}
</style>
<g id="Layer_7">
	<rect class="st0" width="1920" height="215.2"/>
	<g>
		<path class="st1" d="M27.8,24.9c-3.8-0.6-7.7-1.1-11.5-0.5c-3.8,0.7-7.6,2.8-9.2,6.2c-0.9,1.8-1.1,3.8-1,5.8
			c0.2,4.7,2.1,9.4,5.8,12.3c3.6,3,8.9,3.9,13.2,2c2.5-1.2,4.5-3.2,6.9-4.8c2.3-1.5,5.4-2.5,7.9-1.2c1.5,0.8,2.5,2.2,3.6,3.5
			c4.5,5.2,13,7.6,18.3,3.3c2.1-1.7,3.4-4.1,5.4-5.8c3.4-2.8,8.1-3.3,12.4-3.1c4.4,0.2,8.8,0.9,13.1-0.1c4.3-1,8.4-4.3,8.7-8.6
			c0.3-4.5-3.8-8.3-8.1-9.4c-4.4-1.1-8.9-0.1-13.3,1c-4.4,1-8.9,2.1-13.3,1.2c-4.5-0.9-8.3-3.9-12.6-5.7c-9.2-4.1-20.5-2.8-28.5,3.2
			"/>
		<g>
			<path d="M28.2,23.5c-7.4-1.1-17-2-21.7,5.2c-3.7,5.6-2,14,2.1,19c4.5,5.5,12.4,7.4,18.6,3.6c5-3,8.5-8.3,14.3-2.9
				c2.6,2.5,4.8,4.8,8.4,6c3,1,6.3,1.3,9.4,0.2c4.5-1.5,6.1-5.9,9.8-8.4C77,41,87.5,47,96,43c5.7-2.7,9-9.1,5.2-14.8
				C97,22.1,89.4,22,82.9,23.3c-7,1.4-13.3,3.7-20,0.7c-4.3-1.9-8.2-4.7-12.8-5.9C41.3,15.9,32,17.8,24.7,23
				c-1.6,1.1-0.1,3.7,1.5,2.6c7.5-5.3,17.2-7,26-3.7c7.6,2.9,12.8,7.6,21.4,6.4c4.9-0.6,9.6-2.6,14.6-2.7s13,2.5,11.5,9.2
				c-2.4,10.7-19,5.4-26.4,6.7c-3.3,0.6-6,1.9-8.4,4.3c-4,3.9-6.7,7.6-13,6c-4.2-1.1-6.3-3.8-9.2-6.6c-2-2-4.2-2.9-7-2.4
				c-3.5,0.5-5.9,3-8.7,4.9c-5,3.3-10.9,3.4-15.3-1.1C7.6,42.5,5.5,34,9.8,29.3c4.4-4.9,11.9-3.9,17.7-3
				C29.3,26.6,30.1,23.7,28.2,23.5L28.2,23.5z"/>
		</g>
	</g>
	<g>
		<path class="st1" d="M456.9,17.7c-3.8-0.6-7.7-1.1-11.5-0.5c-3.8,0.7-7.6,2.8-9.2,6.2c-0.9,1.8-1.1,3.8-1,5.8
			c0.2,4.7,2.1,9.4,5.8,12.3c3.6,3,8.9,3.9,13.2,2c2.5-1.2,4.5-3.2,6.9-4.8c2.3-1.5,5.4-2.5,7.9-1.2c1.5,0.8,2.5,2.2,3.6,3.5
			c4.5,5.2,13,7.6,18.3,3.3c2.1-1.7,3.4-4.1,5.4-5.8c3.4-2.8,8.1-3.3,12.4-3.1c4.4,0.2,8.8,0.9,13.1-0.1s8.4-4.3,8.7-8.6
			c0.3-4.5-3.8-8.3-8.1-9.4c-4.4-1.1-8.9-0.1-13.3,1c-4.4,1-8.9,2.1-13.3,1.2c-4.5-0.9-8.3-3.9-12.6-5.7C474,9.7,462.7,11,454.7,17"
			/>
		<g>
			<path d="M457.3,16.2c-7.4-1.1-17-2-21.7,5.2c-3.7,5.6-2,14,2.1,19c4.5,5.5,12.4,7.4,18.6,3.6c5-3,8.5-8.3,14.3-2.9
				c2.6,2.5,4.8,4.8,8.4,6c3,1,6.3,1.3,9.4,0.2c4.5-1.5,6.1-5.9,9.8-8.4c7.9-5.2,18.4,0.8,26.9-3.2c5.7-2.7,9-9.1,5.2-14.8
				c-4.2-6.1-11.8-6.2-18.3-4.9c-6.8,1.3-13.1,3.6-19.8,0.6c-4.3-1.9-8.2-4.7-12.8-5.9c-8.8-2.3-18.1-0.3-25.4,4.9
				c-1.6,1.1-0.1,3.7,1.5,2.6c7.5-5.3,17.2-7,26-3.7c7.6,2.9,12.8,7.6,21.4,6.4c4.9-0.6,9.6-2.6,14.6-2.7s13,2.5,11.5,9.2
				c-2.4,10.7-19,5.4-26.4,6.7c-3.3,0.6-6,1.9-8.4,4.3c-4,3.9-6.7,7.6-13,6c-4.2-1.1-6.3-3.8-9.2-6.6c-2-2-4.2-2.9-7-2.4
				c-3.5,0.5-5.9,3-8.7,4.9c-5,3.3-10.9,3.4-15.3-1.1c-4.1-4.1-6.2-12.6-1.9-17.3c4.4-4.9,11.9-3.9,17.7-3
				C458.4,19.4,459.2,16.5,457.3,16.2L457.3,16.2z"/>
		</g>
	</g>
	<g>
		<path class="st1" d="M1834.4,43.9c-3.8-0.6-7.7-1.1-11.5-0.5c-3.8,0.7-7.6,2.8-9.2,6.2c-0.9,1.8-1.1,3.8-1,5.8
			c0.2,4.7,2.1,9.4,5.8,12.3s8.9,3.9,13.2,2c2.5-1.2,4.5-3.2,6.9-4.8c2.3-1.5,5.4-2.5,7.9-1.2c1.5,0.8,2.5,2.2,3.6,3.5
			c4.5,5.2,13,7.6,18.3,3.3c2.1-1.7,3.4-4.1,5.4-5.8c3.4-2.8,8.1-3.3,12.4-3.1s8.8,0.9,13.1-0.1c4.3-1,8.4-4.3,8.7-8.6
			c0.3-4.5-3.8-8.3-8.1-9.4c-4.4-1.1-8.9-0.1-13.3,1c-4.4,1-8.9,2.1-13.3,1.2c-4.5-0.9-8.3-3.9-12.6-5.7c-9.2-4.1-20.5-2.8-28.5,3.2
			"/>
		<g>
			<path d="M1834.8,42.5c-7.4-1.1-17-2-21.7,5.2c-3.7,5.6-2,14,2.1,19c4.5,5.5,12.4,7.4,18.6,3.6c5-3,8.5-8.3,14.3-2.9
				c2.6,2.5,4.8,4.8,8.4,6c3,1,6.3,1.3,9.4,0.2c4.5-1.5,6.1-5.9,9.8-8.4c7.9-5.2,18.4,0.8,26.9-3.2c5.7-2.7,9-9.1,5.2-14.8
				c-4.2-6.1-11.8-6.2-18.3-4.9c-6.8,1.3-13.1,3.6-19.8,0.6c-4.3-1.9-8.2-4.7-12.8-5.9c-8.8-2.3-18.1-0.3-25.4,4.9
				c-1.6,1.1-0.1,3.7,1.5,2.6c7.5-5.3,17.2-7,26-3.7c7.6,2.9,12.8,7.6,21.4,6.4c4.9-0.6,9.6-2.6,14.6-2.7c5-0.1,13,2.5,11.5,9.2
				c-2.4,10.7-19,5.4-26.4,6.7c-3.3,0.6-6,1.9-8.4,4.3c-4,3.9-6.7,7.6-13,6c-4.2-1.1-6.3-3.8-9.2-6.6c-2-2-4.2-2.9-7-2.4
				c-3.5,0.5-5.9,3-8.7,4.9c-5,3.3-10.9,3.4-15.3-1.1c-4.1-4.1-6.2-12.6-1.9-17.3c4.4-4.9,11.9-3.9,17.7-3
				C1835.8,45.7,1836.7,42.8,1834.8,42.5L1834.8,42.5z"/>
		</g>
	</g>
	<g>
		<path class="st2" d="M-0.3,147.4c17.5-20,34.9-40,52.4-60c8.9-10.3,18.6-21,32.1-24.9c24.5-7,48.3,10.7,72.7,17.8
			c22.7,6.6,48.4,3.7,68.6-7.7c14.5-8.2,26.3-20.4,41.9-26.5c16.4-6.4,36.2-4.9,51.3,3.9c9.8,5.7,20.4,14.7,31.3,10.8
			c14.9-5.3,12.5-29.2,27.4-34.3c9.9-3.4,20.2,4.3,26.4,12.2s12.1,17.5,22.3,20.1c4.4,1.1,9.1,0.7,13.5-0.3C462,53,478,30,501.1,31
			c15,0.7,26.8,11.5,37.9,20.9s25.5,18.5,40,14.9c7.9-2,14.1-7.4,20.6-12c23-16.2,53.5-23,81.9-18.2c28.5,4.7,54.4,20.9,69.8,43.5
			c-214.9,62.6-437.5,116.2-662.9,108c-12.1-0.4-24.4-1.1-35.9-4.7c-21.8-6.8-38.2-23.2-53.5-39"/>
		<g>
			<path d="M0.7,148.4c11.8-13.5,23.6-27,35.4-40.5C46.3,96.2,56,83,68.1,73.1c13.3-10.9,28.8-12.7,45-7.9
				c14.6,4.3,28,11.9,42.6,16.3c27.6,8.3,57,2.5,80.4-13.9c12.5-8.7,24.3-18.9,39.5-22.4s31.2-0.8,44.5,7.3
				c9.6,5.8,21.7,15.1,33.2,8.5c8.2-4.7,10.5-14.8,14.5-22.6c2.5-4.9,5.9-9.5,11.6-10.9c8.3-1.9,16.3,4.1,21.5,9.9
				c8,8.9,13.9,21.2,27,23.2c27,4.2,44.1-26.6,69.9-28.1c31.1-1.8,45.7,39.3,77.2,36.4c13.7-1.2,23.7-12.6,35.3-18.9
				c13.8-7.6,29.3-12,44.9-13.2c29.4-2.2,59.3,7.7,81.1,27.8c5.2,4.9,9.9,10.2,14,16.1c0.3-0.7,0.6-1.5,0.9-2.2
				c-98.2,28.6-197.1,55.2-297.5,75c-100.1,19.7-201.7,32.7-303.8,33.9c-14.4,0.2-28.8,0.1-43.2-0.2c-14.3-0.3-29.1-0.2-43.3-2.6
				C37,179.9,18,161.9,0,143.4c-1.4-1.4-3.5,0.7-2.1,2.1c14.9,15.2,30.6,30.9,51.1,38.3c10.9,3.9,22.5,5,34,5.6
				c13.3,0.6,26.7,0.9,40,1c51.7,0.5,103.4-2.2,154.9-7.4c102.9-10.3,204.6-30.5,304.9-55.5c56.7-14.1,113.1-29.8,169.2-46.2
				c0.9-0.3,1.5-1.4,0.9-2.2C719.8,31.6,651.4,20,603,50.6c-6.3,4-11.9,9.2-18.7,12.5c-8.4,4.1-17.6,3.3-26-0.4
				C544,56.4,534.1,43.9,520.9,36c-11-6.7-23.4-8.5-35.5-3.8c-11.8,4.5-21.4,12.9-32.3,19c-6.6,3.7-14.3,7-22,6.7
				c-8.4-0.3-14.4-5.4-19.5-11.6c-7.7-9.4-15.8-22.6-29.7-22.2c-10.4,0.3-15.4,9.2-19.1,17.7c-2,4.7-3.9,9.9-7.5,13.7
				c-5.6,6-13.6,5.5-20.6,2.2c-6.8-3.2-12.7-8-19.5-11.2c-5.8-2.7-12.1-4.5-18.4-5.3c-14.3-1.8-28.2,1.5-40.5,8.7
				c-13.3,7.8-24.6,18.7-38.8,25c-14.3,6.3-30.5,8.6-46,6.8c-16.3-1.8-30.8-9.2-45.8-15.2c-12.7-5.1-26.6-9.2-40.3-5.8
				c-14,3.4-24.2,14-33.4,24.4c-12,13.6-23.8,27.3-35.7,41c-5.9,6.8-11.8,13.5-17.7,20.3C-2.6,147.7-0.5,149.9,0.7,148.4L0.7,148.4z
				"/>
		</g>
	</g>
	<g>
		<path class="st2" d="M1244.5,69c16.5,0.7,33,1.4,49.6,2.1c8.7,0.4,18.4,0.4,25-5.3c7.9-6.8,8.7-19.8,17.4-25.7
			c4-2.7,8.9-3.4,13.6-4c21.5-2.8,52.6-13.5,74.1-10.6s33.7,20,46.7,37.3c5.5,7.3,11.5,27.8,17.6,20.9
			c13.5-15.1,18.8-17.2,24.1-17.2c37,0.6,53.8-21.1,90.6-24.5c17.5-1.6,34.8,6.3,47.7,18.2c12.9,11.9,21.8,27.5,29.1,43.4
			c5.6,12.2,12.6,26.5,25.8,28.6c6.3,1,12.7-1.1,18.7-3.4c23.2-8.8,52.4,0.9,73.4-12.2c24.9-15.6,48.4-20.6,76.8-13
			c27.8,7.4,43.7-1.8,45.3,26.9c3,53.5-16.6,80.3-17,123.2c0,3.2,3.8,13.1,1.5,15.3c-2.3,2.3,12.2,0.1,9,0
			c-37.7-1.1-57.8-12.4-93.5-24.8c-116.2-40.3-236.9-67.7-359.1-81.3c-40.7-4.6-81.9-7.7-121.1-19.8c-39.1-12.1-76.7-34.4-98.4-69.1
			"/>
		<g>
			<path d="M1244.5,70.5c11.2,0.5,22.5,1,33.7,1.4c9.4,0.4,19.2,1.6,28.6,0.4c6.9-0.9,12.9-3.8,17-9.6c4.4-6.3,6-14.6,11.7-19.9
				c6.3-5.8,17.2-5.4,25.2-6.9c8.4-1.6,16.8-3.7,25.2-5.4c16.8-3.4,36-7.4,52,1c7.3,3.8,13.4,9.6,18.8,15.8
				c5.3,6.1,10.9,12.6,14.9,19.6c2.5,4.4,8.8,23.9,16.8,19c2.9-1.7,5.2-5.5,7.6-7.8c2.5-2.5,5.1-5,8-6.9c4.5-3.1,8.3-2.8,13.6-3
				c15.2-0.6,29.2-5.7,43-11.7c15.7-6.8,32.6-13.8,50-12.8c20.5,1.2,38.3,14.3,50.4,30.2c5.7,7.4,10.4,15.6,14.5,23.9
				c3.6,7.2,6.6,14.8,11,21.6c3.5,5.4,8,10.5,14,13.1c7.8,3.4,16,1.2,23.6-1.6c17-6.2,35-3.5,52.6-5.6c7.5-0.9,14.8-2.8,21.3-6.6
				c8.4-4.9,16.7-9.6,26-12.6c8.9-2.9,18.1-4.3,27.4-4.1c9.5,0.2,18.4,2.6,27.6,4.5c6.2,1.3,12.6,2,18.9,2.8
				c4.6,0.6,10,1.1,13.9,3.9c5,3.6,6.1,10.5,6.6,16.3c0.7,9.3,0.5,18.7-0.2,28c-1.4,16.2-5.2,31.9-9.1,47.7
				c-3.5,14.2-6.7,28.4-7.4,43.1c-0.1,2.9-0.3,5.8,0.2,8.7c0.6,3.3,2.5,7.5,1.7,11c-0.3,1.3-1.4,1.8-0.4,3.1c0.7,1,2.4,0.9,3.4,0.9
				c2.1,0.1,7.2,0.2,8.6-1.7c0.6-0.8-0.1-1.9-0.9-2.2c-3.5-1.2-8.8-0.5-12.5-0.8c-6.1-0.6-12.1-1.5-18-2.7c-9.3-2-18.4-4.8-27.4-8
				c-21.6-7.7-43-15.8-64.9-23c-46.4-15.2-93.5-28.2-141-39.3c-47.9-11.1-96.2-20-144.9-26.8c-48.3-6.7-97.8-8.7-145.4-19.9
				c-45.8-10.8-91.7-32.9-117.6-73.8c-1-1.6-3.6-0.1-2.6,1.5c50.4,79.6,155.5,81.5,238.7,91.7c99.3,12.2,197.4,33.5,292.9,63.4
				c25.6,8,50.8,16.8,75.9,26.1c10.4,3.9,20.8,7.6,31.6,10.1c5.4,1.3,10.9,2.3,16.5,3c2.9,0.4,5.8,0.7,8.7,0.9
				c2.7,0.2,6.7-0.4,9.2,0.5c-0.3-0.7-0.6-1.5-0.9-2.2c0.9-1.1,0.3-0.2-0.8-0.3c-1.1,0-2.2,0.3-3.3,0.4c-0.9,0.1-2.1-0.2-2.9,0
				c0.3-0.1-0.2,2.1,0.5,0.8c0.3-0.6,0.4-1.2,0.5-1.8c0.9-5.6-2.2-11.7-2-17.5c0.5-15.3,3.9-30.2,7.5-45.1c3.7-15,7.3-30,8.8-45.5
				c0.9-9.3,1.1-18.7,0.6-28c-0.3-5.5-0.8-11.4-3.7-16.3c-4.6-7.9-14.3-8.6-22.5-9.5c-16.1-1.9-31.6-7.4-48-7
				c-17.5,0.5-33.9,6.8-48.8,15.7c-15.9,9.6-33.7,8-51.6,8.9c-8.2,0.4-16.1,1.6-23.8,4.4c-9.7,3.5-19.4,5.2-27.7-2.2
				c-6-5.4-9.7-13-13.1-20.2c-3.9-8.3-7.9-16.5-12.7-24.2c-9.3-14.8-21.7-28.1-37.9-35.4c-16-7.1-32.6-6.2-49-1.3
				c-14.5,4.3-27.9,11.9-42.3,16.4c-8.2,2.6-16.7,4-25.3,4.1c-3.9,0-7.1,0.2-10.6,2.1c-5.6,3-10.3,8.1-14.6,12.8
				c-3,3.2-4.3,4.9-7.3,0.9c-1.8-2.5-3.2-5.3-4.5-8.1c-6.5-12.9-15.7-25.2-26.4-35.1c-11.3-10.5-24.7-14.9-40-14.1
				c-16.8,0.9-33.2,5.5-49.6,8.8c-7.6,1.5-16.5,1.5-23.6,4.8c-6.5,2.9-9.7,9-12.6,15.1c-4,8.4-8.3,15-18.2,16.7
				c-9.8,1.7-20.6,0.1-30.5-0.3c-10.9-0.5-21.8-0.9-32.7-1.4C1242.6,67.5,1242.6,70.5,1244.5,70.5L1244.5,70.5z"/>
		</g>
	</g>
	<line class="st3" x1="1291.9" y1="55.3" x2="1291.9" y2="88"/>
</g>
<g id="modelo">
</g>
<g id="Layer_6">
	<polyline class="st4" points="766.1,189.8 422.4,1080.1 0,1080 -0.6,295.7 766.1,189.8 	"/>
	<polygon class="st5" points="801.4,182.6 -0.1,364.2 2.9,140.2 46.5,134.5 52.5,115.7 120.9,109.8 133.5,127 206.5,120.5 
		211.7,95.9 291.3,86.3 297.2,107.3 393,95.9 402,71 479.4,63.7 491.2,88 565.3,79.9 568.6,52.4 635.6,44.2 648,68.8 730.6,55.9 
		740.8,23.2 855.5,10.5 855.5,30.2 943.8,30 943.8,6.7 1040.6,6.7 1040.6,24.3 1179,24.3 1175.1,6.7 1288.6,24.8 1288.6,40.6 
		1384.6,61.5 1389.5,43.5 1474.7,60 1479.4,78.7 1585,103.9 1593,89.3 1698.3,119 1702.5,136.5 1812.2,168.7 1825,158.8 1920,185.2 
		1920,423.7 1233.1,178.5 	"/>
	<polygon class="st6" points="831,24.3 711.1,43.4 711.1,24.3 598.6,37.5 598.6,60 489.8,80.5 489.8,55.9 377.9,70.6 380,97.2 
		232.9,131.3 222.1,108.6 80.3,150.4 80.3,176.5 0,204.1 3.8,857.5 751.4,190.2 	"/>
	<polygon class="st4" points="1243.8,182.2 1920,423.7 1920,1080.7 1467.8,1080.7 	"/>
	<polyline class="st7" points="751.5,94 389.2,143.6 3,195.1 	"/>
	<polyline class="st8" points="1.4,249 422.7,178.2 751.6,118.7 	"/>
	<polyline class="st7" points="752.4,155.9 457.2,216.4 166.1,277.9 0.6,311.5 	"/>
	<polyline class="st7" points="2.7,152.9 601,83.5 751.4,63.7 	"/>
	<line class="st8" x1="56" y1="146.7" x2="58" y2="187.7"/>
	<line class="st8" x1="186.9" y1="131.5" x2="189.4" y2="170.2"/>
	<line class="st8" x1="297.2" y1="118.7" x2="300.6" y2="155.4"/>
	<line class="st8" x1="411.8" y1="105.4" x2="413.7" y2="140.2"/>
	<line class="st8" x1="493.8" y1="95.9" x2="493.8" y2="129.3"/>
	<line class="st8" x1="601" y1="83.5" x2="603.5" y2="114.2"/>
	<line class="st8" x1="696.1" y1="71" x2="696.1" y2="101.6"/>
	<line class="st8" x1="98.5" y1="182.3" x2="98.5" y2="233.7"/>
	<line class="st8" x1="244" y1="162.9" x2="244" y2="208"/>
	<line class="st8" x1="368.6" y1="146.3" x2="368.6" y2="187.3"/>
	<line class="st8" x1="485.5" y1="129.3" x2="485.5" y2="166.8"/>
	<line class="st8" x1="592.9" y1="115.7" x2="592.9" y2="147.4"/>
	<line class="st8" x1="689.9" y1="102.4" x2="689.9" y2="129.9"/>
	<line class="st8" x1="80.3" y1="235.8" x2="82.9" y2="294.7"/>
	<line class="st8" x1="219.1" y1="212.4" x2="219.1" y2="266.7"/>
	<line class="st8" x1="427.9" y1="179.6" x2="427.9" y2="222.4"/>
	<line class="st8" x1="536.6" y1="156.6" x2="536.6" y2="200.8"/>
	<line class="st8" x1="628.3" y1="141.8" x2="628.3" y2="183.6"/>
	<line class="st8" x1="715" y1="126.7" x2="715" y2="165.8"/>
	<line class="st8" x1="115.9" y1="288.1" x2="115.9" y2="337.9"/>
	<line class="st8" x1="238.5" y1="262.6" x2="238.5" y2="310.2"/>
	<line class="st8" x1="362.3" y1="236.4" x2="362.3" y2="282.1"/>
	<line class="st8" x1="487.6" y1="210.2" x2="487.6" y2="253.7"/>
	<line class="st8" x1="586.8" y1="189.8" x2="586.8" y2="231.2"/>
	<line class="st8" x1="684.4" y1="169.8" x2="684.4" y2="209.1"/>
	<polyline class="st8" points="1244.3,44.2 1442.8,90.5 1738.4,167.8 1920,217.4 	"/>
	<polyline class="st8" points="1244.3,75.8 1442.8,124.8 1709.9,195.3 1920,251 	"/>
	<polyline class="st8" points="1244.3,110.4 1473.9,176.5 1790,261.1 1920,295.3 	"/>
	<polyline class="st7" points="1244.3,147.7 1468.6,217.4 1804,326.3 1920,364.1 	"/>
	<line class="st8" x1="1291.9" y1="88" x2="1291.9" y2="55.3"/>
	<line class="st8" x1="1351.4" y1="102.2" x2="1351.4" y2="68.8"/>
	<line class="st8" x1="1455.7" y1="128.3" x2="1456.9" y2="94.2"/>
	<line class="st8" x1="1744.9" y1="204.6" x2="1744.9" y2="169.6"/>
	<line class="st8" x1="1826.3" y1="226.1" x2="1826.3" y2="191.8"/>
	<line class="st8" x1="1283.8" y1="121.8" x2="1283.8" y2="85.5"/>
	<line class="st8" x1="1339.7" y1="137.9" x2="1342.1" y2="99.9"/>
	<line class="st8" x1="1297.2" y1="164.2" x2="1298.1" y2="125.9"/>
	<line class="st8" x1="1367.3" y1="185.2" x2="1367.3" y2="145.8"/>
	<line class="st8" x1="1432" y1="206" x2="1433.3" y2="173.1"/>
	<line class="st8" x1="1267.2" y1="190.7" x2="1267.2" y2="154.6"/>
	<line class="st8" x1="1323.9" y1="210.9" x2="1324.4" y2="172.6"/>
	<line class="st8" x1="1400" y1="236.8" x2="1400" y2="196.1"/>
	<line class="st8" x1="1796.9" y1="218.3" x2="1796.9" y2="263"/>
	<line class="st8" x1="1877.8" y1="239.8" x2="1878.1" y2="284.3"/>
	<line class="st8" x1="1774.4" y1="257" x2="1772" y2="315.9"/>
	<line class="st8" x1="1854.5" y1="278.1" x2="1852.4" y2="342.1"/>
	<line class="st8" x1="1804" y1="326.3" x2="1803.5" y2="382.1"/>
	<line class="st8" x1="1889.6" y1="354.2" x2="1889.7" y2="412.9"/>
	<g>
		<g>
			<path d="M529,326.7c3.8-0.2,7.7-0.5,11.5-0.7c3-0.2,6.2,0,9.1-0.9c0.5-0.1,1-0.5,1-1c1-5.8-8.2-9-11.5-12
				c0.1,0.6,0.2,1.2,0.2,1.8c1.2-2.6,10.5,1.3,12,2.1c0.8,0.4,2,0.1,2.2-0.9c0.9-5.9,0.6-11.4-1.1-17.1c-0.5,0.6-1,1.3-1.4,1.9
				c5.7-0.5,10.7,6.3,13.5,10.4c0.8,1.2,2.8,0.8,2.8-0.8c0-1.7,0.1-3.4,0.2-5.1c0.1-1.1,0.2-2.1,0.4-3.2c-0.3-1.6,0.3-2,1.7-1.1
				c1.1,0.2,3.3,2.7,4.1,3.4c1.4,1.1,2.8,2.2,4.1,3.4c1.5,1.2,3.6-0.9,2.1-2.1c-3-2.4-5.8-5-8.9-7.3c-1.3-1-2.4-2-4-1.2
				c-3.4,1.6-2.6,10.6-2.7,13.4c0.9-0.3,1.9-0.5,2.8-0.8c-3.4-5.1-9.2-12.5-16.1-11.9c-0.9,0.1-1.7,0.9-1.4,1.9
				c1.5,5.2,1.9,10.2,1.1,15.5c0.7-0.3,1.5-0.6,2.2-0.9c-3.3-1.7-13.7-5.9-16.1-1c-0.3,0.6-0.3,1.3,0.2,1.8
				c1.6,1.4,11.1,6.1,9.2,8.4c-0.7,0.8-6.5,0.4-7.7,0.5c-3.2,0.2-6.4,0.4-9.6,0.6C527.1,323.8,527,326.8,529,326.7L529,326.7z"/>
		</g>
	</g>
	<g>
		<g>
			<path d="M624,256.7c0.7-1.9,1.5-3.8,2.2-5.7c0.4-1,1.4-5.3,2.2-5.7c2.9-1.5,4.3,4.2,6.1,5.7c4.2,3.4,7.7-2.3,10.2-5.1
				c0.5-0.6,2.6-3.6,3.4-3.9c1.9-0.6,2.9,1.6,3.9,2.8c1.9,2.2,4.5,6.3,7.1,7.8c4.4,2.4,9.7-3.8,12.8-6.4c1.5-1.2-0.6-3.3-2.1-2.1
				c-1.9,1.5-4,3.9-6.2,4.8c-3.2,1.4-3.8,0.2-5.8-2.1c-2.1-2.4-4.3-6-7-7.7c-4.2-2.6-7.7,4-9.9,6.6c-6.7,7.7-6.9-6.8-12.6-5.3
				c-1.8,0.5-2.3,2.7-2.8,4.1c-1.5,3.8-3,7.7-4.5,11.5C620.5,257.7,623.4,258.5,624,256.7L624,256.7z"/>
		</g>
	</g>
	<g>
		<g>
			<path d="M396.1,318.5c5-3.7,8.2-8.5,9.4-14.7c-0.8,0.2-1.7,0.4-2.5,0.7c8.7,6.9,20.5,7.8,30.1,2c-0.7-0.2-1.4-0.4-2.1-0.5
				c1.7,3-0.6,6.8,1.7,9.6c1.4,1.7,3.4,1.9,5.5,1.8c6.8-0.4,13.1-4.3,17.8-9c-0.8-0.2-1.7-0.4-2.5-0.7c0.9,6.4,2.8,12.4,5.6,18.2
				c0.8,1.7,3.4,0.2,2.6-1.5c-2.7-5.6-4.4-11.4-5.3-17.5c-0.2-1.1-1.8-1.4-2.5-0.7c-3.8,3.9-8.5,6.8-13.9,7.9
				c-2.2,0.4-4.4-0.3-5.4-2.6c-0.3-0.6,0.2-2,0.1-2.6c0-1.7-0.3-2.8-1.1-4.3c-0.4-0.7-1.4-1-2.1-0.5c-8.3,5-18.8,4.5-26.4-1.6
				c-0.8-0.6-2.3-0.6-2.5,0.7c-1,5.3-3.6,9.6-8,12.9C393,317.1,394.5,319.7,396.1,318.5L396.1,318.5z"/>
		</g>
	</g>
	<g>
		<g>
			<path d="M1333.8,258.3c8-1.2,14.1-7.5,15.3-15.4c-0.9,0.1-1.8,0.2-2.7,0.4c2.4,4.8,3.6,9.1,8.9,11.3c4.6,1.9,9.7,1.2,14.3-0.4
				c0.5-0.2,3.7-1.9,4.1-1.6c1.1,0.7,0.4,2.6,0.4,3.9c0,3.1,0.3,6.2,1.3,9.2c1.5,4.4,4.4,8,8.5,10.2c1.7,0.9,3.2-1.7,1.5-2.6
				c-6.2-3.4-8.4-10-8.2-16.8c0-2.4,1.3-6.1-1.8-7c-1.4-0.4-2.7,0.4-4,0.9c-3.1,1.2-6.4,2.4-9.8,2.4c-3.5,0-7.3-1.2-9.4-4.3
				c-1.4-2-2-4.5-3.1-6.7c-0.5-1.1-2.6-0.9-2.7,0.4c-1,7.1-6.1,12.2-13.2,13.3C1331.1,255.7,1331.9,258.6,1333.8,258.3L1333.8,258.3
				z"/>
		</g>
	</g>
	<g>
		<g>
			<path d="M1387,331.4c1.7,2.9,3.6,5.7,5.8,8.1c1.3,1.5,4.2,5,6.5,5.2c4.3,0.4,9.3-7.8,11.3-10.9c-0.9-0.3-1.9-0.5-2.8-0.8
				c0.1,3.4-0.3,7.5,0.3,10.8c0.2,1.2,0.4,2.5,1.8,3c3.5,1.4,10-8,11.4-6.6c0.3,0.3-0.4,5-0.4,5.4c-0.1,1.8-0.3,3.6-0.5,5.4
				s-1,4.6-0.1,6.4c2.1,4,8.5,1.8,11.4,0.2c1.7-0.9,0.2-3.5-1.5-2.6c-1.2,0.7-3.8,2.1-5.3,1.5c-2.6-0.9-1.8-2.8-1.6-4.6
				c0.2-2.4,0.5-4.8,0.7-7.2c0.2-2.1,1.3-6.4-1.1-7.8c-2.5-1.4-5.5,2.2-7.3,3.5c-0.9,0.7-1.9,1.7-2.9,2.2c-1.8,0.9-1.1,1.4-1.6-0.7
				c-0.6-2.6-0.2-6.1-0.2-8.8c0-1.5-2-2-2.8-0.8c-1.9,2.9-6.1,10.2-10.2,7.8c-3.6-2-6.3-6.9-8.2-10.3
				C1388.6,328.2,1386,329.7,1387,331.4L1387,331.4z"/>
		</g>
	</g>
	<g>
		<g>
			<path d="M1836.2,449.4c4.6,0.7,9.1,1.4,13.7,2c2.6,0.4,6.8,1.8,9.4,0.8c1.7-0.6,2.4-1.8,2.7-3.4c0.4-2,0-4.4,0-6.4
				c0-2.7-0.4-4.3,2.1-2c2.9,2.7,4.3,7.6,5.5,11.3c0.4,1.5,0.8,3.2,2.5,3.6c2,0.5,3.2-1.4,4.2-2.7c3-3.7,5.8-7.6,8.6-11.4
				c-0.9-0.1-1.8-0.2-2.7-0.4c1.5,4.7,3.1,9.4,4.6,14.1c0.7,2.2,1.2,5.7,3.6,6.8c2.1,1,3.8-0.4,5.6-1.5c4-2.6,7.9-5.4,11.9-8
				c-0.7-0.3-1.5-0.6-2.2-0.9c1.9,8.7,4.4,17.3,7.5,25.7c0.7,1.8,3.6,1,2.9-0.8c-3.1-8.4-5.6-16.9-7.5-25.7
				c-0.2-0.9-1.4-1.4-2.2-0.9c-2.5,1.7-5,3.4-7.4,5c-1.9,1.3-5.8,5.4-8,3c-1.5-1.6-1.9-5.9-2.6-7.9c-1.1-3.2-2.1-6.5-3.2-9.7
				c-0.4-1.3-2-1.4-2.7-0.4c-2.5,3.3-4.8,6.9-7.5,9.9c-1.9,2.1-2,2.6-2.8-0.2c-0.4-1.3-0.9-2.6-1.4-3.8c-1.3-2.9-4.5-10.3-8.6-10.3
				c-4.4-0.1-3.1,6.2-3.1,8.7c0,1.6,0.5,4.5-1.5,5.4c-1.3,0.6-5.2-0.7-6.9-1c-4.6-0.7-9.1-1.4-13.7-2
				C1835.1,446.2,1834.3,449.1,1836.2,449.4L1836.2,449.4z"/>
		</g>
	</g>
	<g>
		<g>
			<path d="M1861.5,519.1c3.4,6.7,7.5,12.9,12.3,18.8c0.6,0.7,1.9,0.5,2.4-0.3c1.7-3.2,3.5-6.3,5.2-9.5c-0.9,0-1.7,0-2.6,0
				c3.6,6.6,6,13.4,7.3,20.8c0.1,0.6,0.8,1.2,1.4,1.1c7.4-0.9,13.8-3.8,19.3-8.9c-0.7,0-1.4,0-2.1,0c2.2,1.8-0.3,8.1-0.5,10.8
				c-0.3,3.4-0.2,6.8,0.3,10.1c0.9,6.8,3.3,13.2,7,19.1c1,1.6,3.6,0.1,2.6-1.5c-4.6-7.4-7.1-15.7-7-24.4c0.1-3.8,1.2-7.3,1.5-11.1
				c0.2-2.2,0-3.8-1.7-5.2c-0.6-0.5-1.5-0.6-2.1,0c-4.8,4.5-10.6,7.2-17.1,8c0.5,0.4,1,0.7,1.4,1.1c-1.3-7.6-3.8-14.8-7.6-21.5
				c-0.5-1-2.1-1-2.6,0c-1.7,3.2-3.5,6.3-5.2,9.5c0.8-0.1,1.6-0.2,2.4-0.3c-4.6-5.6-8.6-11.7-11.9-18.2
				C1863.3,515.9,1860.7,517.4,1861.5,519.1L1861.5,519.1z"/>
		</g>
	</g>
	<g>
		<g>
			<path d="M9,946.1c9.4-0.7,19.4-2.4,27.9-6.6c8.2-4,5.5-11.9,8.4-19c-0.9,0.1-1.8,0.2-2.7,0.4c1.9,3.6,4.9,14.3,10.9,12.5
				c2.7-0.8,4.1-4.2,5.5-6.4c2.8-4.3,5.5-8.6,8.3-12.9c-0.9-0.1-1.8-0.2-2.7-0.4c1.2,4.4,2.3,8.8,3.5,13.3c0.7,2.4,1.1,5.4,3.2,7.1
				c4.1,3.4,10.9,1,15-1.1c13.3-6.6,25-18.1,34.3-29.5c1.2-1.5-0.9-3.6-2.1-2.1c-7.3,8.9-15.6,16.9-24.9,23.5
				c-4,2.8-11.8,9.1-17,7.7c-6.7-1.8-7.6-14.1-9.1-19.8c-0.3-1.3-2.1-1.4-2.7-0.4c-2.9,4.6-5.9,9.2-8.8,13.7
				c-1.2,1.9-1.1,2.4-3.6,2.6c-2.5,0.2-2.1,0.1-3.1-1.7c-1.4-2.6-2.7-5.2-4-7.8c-0.7-1.3-2.3-0.7-2.7,0.4c-1,2.5-1.2,4.9-1.5,7.6
				c-0.6,5.7-2.4,8.5-7.9,10.7c-7.7,3-15.8,4.6-24,5.2C7.1,943.3,7.1,946.3,9,946.1L9,946.1z"/>
		</g>
	</g>
</g>
<g id="Tela_x5F_seleção">
	<polygon class="st9" points="1479.9,1080.7 422.4,1080.1 763.2,152.7 1236.1,156.4 	"/>
	<polygon class="st7" points="142,744.9 128.4,459.3 547.5,406.7 560.2,649.7 	"/>
	<polygon class="st10" points="511.8,442 131.4,492.6 128.4,459.3 508.7,406.7 	"/>
	<polygon class="st11" points="414.3,527.3 280.1,543.3 294.1,709.8 427.5,679.3 	"/>
	<polygon class="st10" points="402.2,543.3 297.9,557.9 308.8,706.1 413.9,681.1 	"/>
	<path class="st8" d="M511.8,393.7"/>
	<path class="st8" d="M283,89.9"/>
	<path class="st8" d="M519.5,210.9"/>
	<path class="st8" d="M301,113.7"/>
	<path class="st8" d="M73,507.5"/>
	<path class="st8" d="M542.3,244.7"/>
	<path class="st8" d="M332.9,156"/>
	<path class="st8" d="M109.4,536.2"/>
	<path class="st8" d="M568.6,280.9"/>
	<path class="st8" d="M146.1,565"/>
	<path class="st8" d="M180.2,592"/>
	<path class="st8" d="M210.4,615.7"/>
	<path class="st8" d="M238.6,639.5"/>
	<path class="st8" d="M264.5,662.9"/>
	<path class="st8" d="M422.4,595.1"/>
	<polygon class="st12" points="469.9,782 469.6,746.8 422.7,748.1 422.6,704.8 542,702.8 539.3,745.7 496.3,746.1 493.4,795.9 
		470.9,797.6 	"/>
	<path class="st13" d="M438.2,711.7l-0.4,10c0,0-9.4,10-9.8,14.2c-0.1,1.2,2.1,4.1,2.1,4.1l21.7,1c0,0,3.2-2.8,3.1-3.9
		c-0.1-4.2-7.7-15.1-7.7-15.1l1.1-10.1L438.2,711.7z"/>
	<path class="st13" d="M510.4,730.1c-1.8-1.6-8.5-3.4-9-5.6c-0.5-1.9,1.9-7.6,3.6-9.4c1.8-1.9,7.5-4.5,10.6-5.1
		c3.5-0.7,11.9-1.1,14.6,0.1c2.6,1.1,5.9,6.6,6.4,8.7c0.5,1.9-4.1,5.9-5,7.9c-1.1,2.1-1.9,3.7-3.1,5.8c-1.2,2-3.5,6.9-6.7,7.1
		c-2.8,0.3-5.7-2.4-7-3.9C513.3,734.1,512.1,731.6,510.4,730.1z"/>
	<ellipse transform="matrix(0.3327 -0.943 0.943 0.3327 -337.1575 963.1592)" cx="512" cy="719.8" rx="4.2" ry="3.5"/>
	<ellipse transform="matrix(0.9882 -0.1533 0.1533 0.9882 -103.9165 89.1964)" cx="526.5" cy="718.5" rx="3.5" ry="4.2"/>
	<polygon class="st14" points="520.6,726.4 517.4,728 520.2,730 521,729 522.5,729.6 523.4,727.7 	"/>
	<line class="st3" x1="517.8" y1="738.5" x2="518.5" y2="734.9"/>
	<line class="st3" x1="521.8" y1="739.7" x2="521.5" y2="735.3"/>
	<line class="st3" x1="525.4" y1="737.4" x2="524.5" y2="734.8"/>
</g>
<g id="Moinho">
	<polygon class="st15" points="1385.9,474.4 1571.2,518.3 1575.7,234.3 1390.7,196.1 	"/>
	<polygon class="st16" points="1571.2,518.3 1645.4,445.4 1641.7,204.3 1571.2,230.6 	"/>
	<path class="st17" d="M1533.8,89.3l-174.3,87.3c0,0,25.3,7.1,31.9,10.3c30,14.5,50.9,17.9,64.2,20.2c13.3,2.3,37,7.9,50.4,9
		c0,0,23.8,4.7,32.2,5.8c7.1,0.9,25.4,2.6,32.6,3.1c8.2,0.5,19.9,1.1,28,0.1c5.1-0.6,20.3-5.6,20.3-5.6L1533.8,89.3z"/>
	<path class="st17" d="M1619.3,219.5c0,0,11.1-4.3,12.7-7.7c1.5-3.2,5.7-10.6,5.1-14.1c-1.1-6.9-13.5-23.1-17.9-28.5
		c-14.7-18.3-72.4-59-72.4-59L1619.3,219.5z"/>
	<path class="st18" d="M1623.7,225.1c0,0,7.2-1.5,9.1-2.9s4.4-5.7,5.4-7.8c1.2-2.4,3.3-7.5,3.5-10.1c0.1-1.3-0.5-4.1-1.1-5.3
		c-0.8-1.6-4.5-5.7-4.5-5.7s0,14.4-9.5,21.6c-1,0.8-4.2,4.6-4.2,4.6L1623.7,225.1z"/>
	<line class="st19" x1="1402.3" y1="332.6" x2="1402.3" y2="358.4"/>
	<line class="st19" x1="1390.7" y1="327.5" x2="1392.2" y2="301.9"/>
	<line class="st19" x1="1427.1" y1="342.1" x2="1428.3" y2="317.5"/>
	<line class="st19" x1="1385.3" y1="273.6" x2="1383.7" y2="297.7"/>
	<polygon class="st12" points="1460.3,193.3 1370.1,341.6 1379.9,345.9 1468.6,197.7 	"/>
	<line class="st19" x1="1424.9" y1="288.9" x2="1421.6" y2="314.7"/>
	<line class="st19" x1="1402.3" y1="280.1" x2="1404.6" y2="256.9"/>
	<line class="st19" x1="1441.4" y1="294.5" x2="1446.3" y2="270.6"/>
	<polygon class="st15" points="1416.3,201.7 1446.1,220.9 1362.9,356.3 1325.3,335.5 	"/>
	<path class="st19" d="M1501.8,288.9"/>
	<path class="st19" d="M1495.8,314.7"/>
	<polygon class="st15" points="1450.3,223.7 1483.8,242 1404.9,379.7 1367.9,359.3 	"/>
	<line class="st19" x1="1530.9" y1="243.6" x2="1524.2" y2="269.1"/>
	<line class="st19" x1="1402.3" y1="212.7" x2="1404.3" y2="192.7"/>
	<line class="st19" x1="1520.1" y1="241.6" x2="1523.6" y2="219.5"/>
	<line class="st19" x1="1563.8" y1="249" x2="1566.3" y2="225.1"/>
	<polygon class="st20" points="1512.4,194.1 1471.1,186.4 1477.7,156 1520.1,160.4 	"/>
	<polyline class="st21" points="1520.1,160.4 1479.3,156.2 1505.6,149.5 1538.4,154.5 1534.7,162.6 1520.1,160.4 	"/>
	<polygon class="st22" points="1512.4,194.1 1533.6,186.6 1538.4,154.5 1520.1,160.4 	"/>
	<path class="st23" d="M1391.4,160.4l22.2,10.1c0,0,31.4,10.7,42.1,13.6c5.8,1.6,17.7,4.3,23.6,5.5c11.1,2.3,33.5,6.3,44.8,7.8
		c11,1.4,33,3.5,44.1,4c9.8,0.4,37.8,0,37.8,0l3,4.7c0,0-23.6,1.1-31.8,1c-13.3-0.2-39.9-2.5-53-4.3c-13.3-1.8-39.8-5.9-52.9-9
		c-12.3-2.9-36.2-10.5-48-14.7c-9.7-3.4-37.9-15.4-37.9-15.4L1391.4,160.4z"/>
	<path class="st23" d="M1452.2,130.2c0,0,16.7,8.5,22.6,10.6c7.3,2.6,22.6,6,30.2,7.5c6.4,1.3,19.5,3.2,26,3.9
		c5.9,0.7,17.8,1.9,23.8,2.2c5.4,0.2,20.9,0.1,20.9,0.1l-2.6-4c0,0-14.6-0.4-20.6-0.8c-6.7-0.5-14.9-1.1-21.5-2.2
		c-9.4-1.5-38.3-6.3-47.4-9c-6.8-2-27.9-10.2-27.9-10.2L1452.2,130.2z"/>
	<polygon class="st23" points="1375.9,182.7 1533.8,89.3 1535.3,91.7 1380.8,183.8 	"/>
	<polygon class="st23" points="1533.8,89.3 1413.8,196.4 1418.6,198.1 1535.3,91.7 	"/>
	<polygon class="st23" points="1474.7,210.8 1482.3,196.1 1486.8,196.9 1479.3,211.7 	"/>
	<polygon class="st24" points="1508.1,143.7 1533.8,89.3 1535.3,91.7 1511.9,144.4 	"/>
	<polygon class="st23" points="1598.9,225.1 1532.1,89.9 1534.2,88.4 1602.3,224.4 	"/>
	<polygon class="st23" points="1540.3,222.2 1532.1,89.9 1534.2,88.4 1543.8,222.2 	"/>
	<path class="st23" d="M1359.6,176.6c0,0-3.4-1.8-4.6-1.5c-1,0.2-3.8,1.4-4.2,2.3c-0.3,0.6-0.3,3.7,0.1,4.3c0.8,1.3,6.5,3.9,6.5,3.9
		s32.8,12.3,44,15.9c10.8,3.5,43.8,12.4,43.8,12.4l41.8,8.6c0,0,24.5,4.7,33.3,6.1c10.1,1.5,30.6,3.7,40.8,4.7
		c6.8,0.6,20.7,1.5,27.5,1.2c4.6-0.2,13.9-1.1,18.5-1.7c4-0.5,11.8-2,15.3-4.3c1.5-1,4.5-3.1,4.5-4.8c0-1.2-1.5-3.6-2.7-4.1
		c-1.7-0.7-5.9,0.7-5.9,0.7l-19,4.9l-23.8,0.6l-33.2-3.5l-38.9-6.3l-57.9-11.9l-61.2-19.8L1359.6,176.6z"/>
	<polygon class="st25" points="1508.3,189.2 1477.8,183.6 1482.8,161.4 1513.8,164.6 	"/>
	<path class="st26" d="M1490.6,170.2c0,0,4.1-0.3,5.3,0c1.4,0.4,4.2,1.7,4.9,2.9c0.6,1.1,0,4.8,0,4.8s-44.5,33-61.1,41.6
		c-2.9,1.5-11.2,4.2-13.2,1.8c-2.1-2.6,3.3-9.6,5.9-11.8C1445.4,197.9,1490.6,170.2,1490.6,170.2z"/>
	<polygon class="st27" points="1443.8,209.2 1456.4,199.4 1459.8,203.7 1446.7,213.6 	"/>
	<polygon class="st12" points="1447.4,209.7 1639.6,299.3 1644.8,289 1456.8,202.2 	"/>
	<polygon class="st15" points="1510.6,229.1 1534.8,207.5 1675.4,271.7 1657.4,297.7 	"/>
	<polygon class="st15" points="1482.3,255.8 1505.6,233.7 1653.1,303.9 1635.8,335.5 	"/>
	<polygon class="st12" points="1440.8,204 1289.8,134.6 1297.6,126.6 1451.3,196.7 	"/>
	<polygon class="st15" points="1262.1,150.5 1280.4,125 1417.7,190.7 1399.1,216.2 	"/>
	<polygon class="st15" points="1284.1,121.8 1302.2,95.9 1440.9,160 1420.8,187.4 	"/>
	<polygon class="st12" points="1471.1,197.6 1586.4,64.5 1577.4,58.8 1463.8,192.1 	"/>
	<polygon class="st15" points="1516.1,195.8 1490.1,172.5 1596.1,51.1 1629.6,77.2 	"/>
	<polygon class="st15" points="1486.3,169.1 1456.6,146.1 1558.7,21.7 1591.6,47.4 	"/>
	<path class="st23" d="M1607.4,201.4c0,0,5.6-2.2,7.3-3.3c2.1-1.3,6-4.6,7.7-6.5c1.3-1.5,3.3-4.9,4.2-6.6c0.5-0.9,1.6-4,1.6-4
		l2.7,3.9c0,0-1.6,4.8-2.5,6.3c-1.3,2.3-4.7,6.4-6.7,8.2c-1.8,1.6-4.7,3.9-6.9,4.8c-0.8,0.3-4.7,1.3-4.7,1.3L1607.4,201.4z"/>
	<path class="st23" d="M1576.6,154.4c0,0,6.6-0.9,8.7-1.3c1.7-0.4,5.1-1.3,6.8-2c1.4-0.5,5.2-2.7,5.2-2.7l-4.2-3.4
		c0,0-2.1,1.3-2.9,1.7c-1.4,0.6-4.4,1.6-6,2c-2.5,0.7-10.2,2-10.2,2L1576.6,154.4z"/>
	<polygon class="st10" points="1415.7,481.5 1423.3,372.5 1533.4,387 1530.9,507.4 	"/>
	<polygon class="st28" points="1471,379.7 1460.6,490.8 1465.8,491.7 1474.4,379.2 	"/>
	<polygon class="st28" points="1473.1,492.7 1468.9,492 1476.3,379.7 1480,380.2 	"/>
</g>
<g id="Layer_4">
	<polygon class="st29" points="1785.7,396.8 1826.3,461.2 1807.1,467.5 	"/>
	<polygon class="st30" points="1494.5,797.6 1724.7,665.9 1920,773 1920,843.4 	"/>
	<polygon class="st31" points="1794.7,544.4 1807.1,468 1680.2,457.7 1669.7,531.3 	"/>
	<path class="st32" d="M1760.3,539.7c0,0,5.1-30.9,2.3-40.7c-2.5-9.1-15.5-19.5-25.7-20.6c-10.1-1.1-27.9,6.5-33.4,14.6
		c-6,8.8-10.5,38.7-10.5,38.7L1760.3,539.7z"/>
	<polygon class="st7" points="1807.9,783 1920,843.4 1920,1076.8 1473,1012.2 1494.5,797.6 1619.9,757.9 	"/>
	<polygon class="st29" points="1807.1,468 1826.3,461.7 1818.6,533.9 1796.9,540 	"/>
	<polygon class="st7" points="1758.5,780.1 1654.4,767.1 1613.8,759.8 1617.6,536.7 1597.2,507.6 1653.7,507.4 1665.7,527.2 
		1698,529 1711.2,510.7 1756,514.7 1761.6,534.9 1790.6,538.6 1809.7,523.2 1860.2,530.6 1831.9,555.8 1807.9,783 	"/>
	<polygon class="st33" points="1764.3,1054.3 1774.2,920 1628.9,896.3 1617.1,1031.7 	"/>
	<polygon class="st28" points="1692.5,1043.3 1706.7,910.1 1715.4,910.4 1699.9,1044 	"/>
	<polygon class="st28" points="1682.9,1039.7 1696.8,907.8 1704.3,909.4 1692.5,1041.4 	"/>
	<polygon class="st31" points="1807.1,468 1781,389.3 1682.6,457.9 	"/>
	<ellipse transform="matrix(0.985 -0.1725 0.1725 0.985 -80.6238 305.7548)" class="st34" cx="1718.9" cy="616.8" rx="51" ry="47"/>
	<polygon class="st31" points="1807.1,468 1830.9,455.7 1792.5,450.6 1785.5,455.7 1761,454 1757.9,446.8 1734,444.1 1728.2,450.1 
		1708.2,448.2 1703.8,440.8 1663.8,437.6 1680.2,457.7 	"/>
	<line class="st8" x1="1810" y1="763" x2="1614.1" y2="739.9"/>
	<line class="st8" x1="1812.2" y1="740.7" x2="1614.5" y2="717"/>
	<line class="st8" x1="1814.5" y1="719.2" x2="1614.8" y2="697.4"/>
	<line class="st8" x1="1816.5" y1="698.8" x2="1615.1" y2="677.1"/>
	<line class="st8" x1="1818.6" y1="679" x2="1614.2" y2="658.1"/>
	<line class="st8" x1="1820.6" y1="659.4" x2="1615.7" y2="639.7"/>
	<line class="st8" x1="1822.8" y1="637.8" x2="1616" y2="618.7"/>
	<line class="st8" x1="1616.4" y1="597.1" x2="1825.2" y2="614.1"/>
	<line class="st8" x1="1827.6" y1="590.6" x2="1616.8" y2="573.7"/>
	<line class="st8" x1="1829.9" y1="569" x2="1617.1" y2="552.7"/>
	<line class="st8" x1="1758.5" y1="780.1" x2="1761.8" y2="757.3"/>
	<line class="st8" x1="1654.4" y1="767.1" x2="1656.4" y2="744.9"/>
	<line class="st8" x1="1746.1" y1="755.5" x2="1749.3" y2="733.2"/>
	<line class="st8" x1="1668" y1="746.3" x2="1669.3" y2="723.6"/>
	<line class="st8" x1="1779.2" y1="736.8" x2="1782" y2="715.7"/>
	<line class="st8" x1="1682.7" y1="725.2" x2="1684.3" y2="705"/>
	<line class="st8" x1="1757.5" y1="711.6" x2="1758.8" y2="692.6"/>
	<line class="st8" x1="1662.8" y1="702.6" x2="1665" y2="682.5"/>
	<line class="st8" x1="1745.2" y1="691.2" x2="1746.4" y2="671.6"/>
	<line class="st8" x1="1653.4" y1="681.3" x2="1657.3" y2="662.5"/>
	<line class="st8" x1="1782.4" y1="675.3" x2="1785.6" y2="656"/>
	<line class="st8" x1="1689.9" y1="665.9" x2="1692.6" y2="647.1"/>
	<line class="st8" x1="1665.6" y1="644.5" x2="1667.7" y2="623.5"/>
	<line class="st8" x1="1770.3" y1="654.5" x2="1774.3" y2="632.3"/>
	<line class="st8" x1="1793.3" y1="635.1" x2="1796.9" y2="611.8"/>
	<line class="st8" x1="1639.7" y1="620.9" x2="1642.5" y2="599.2"/>
	<line class="st8" x1="1659.6" y1="600.6" x2="1664" y2="577.5"/>
	<line class="st8" x1="1773.3" y1="609.8" x2="1776" y2="586.5"/>
	<line class="st8" x1="1767.1" y1="585.8" x2="1768.6" y2="564.3"/>
	<line class="st8" x1="1650.9" y1="577.3" x2="1656" y2="555.6"/>
	<path class="st7" d="M1831.9,555.8c-4.2-0.6-214.4-19.1-214.4-19.1"/>
	
		<ellipse transform="matrix(0.9905 -0.1375 0.1375 0.9905 -68.4992 242.1095)" class="st35" cx="1718.2" cy="616.9" rx="44" ry="40.1"/>
	
		<ellipse transform="matrix(0.999 -4.568394e-02 4.568394e-02 0.999 -26.5123 79.181)" class="st34" cx="1719.1" cy="619.6" rx="5.1" ry="4.4"/>
	<polygon class="st18" points="1721,620.4 1722.5,593.9 1718.4,593.8 1717.4,619.8 	"/>
	<polygon class="st18" points="1726,593.5 1715.5,592.8 1721.4,584.6 	"/>
	<polygon class="st18" points="1720.5,617.7 1697.7,620.5 1698.5,624.1 1720.7,621 	"/>
	<polygon class="st18" points="1696.6,617.5 1698.3,626.8 1690.1,622.9 	"/>
	<polygon class="st31" points="1807.9,783 1840.2,733.2 1858.1,562.5 1831.9,555.8 1808.5,780.1 	"/>
	<polygon class="st9" points="1858.1,562.5 1873.7,552.7 1844.7,544.4 1831.9,555.8 	"/>
	
		<rect x="1661.4" y="971.9" transform="matrix(0.1268 -0.9919 0.9919 0.1268 493.6314 2518.9744)" class="st36" width="32.3" height="14.4"/>
	
		<ellipse transform="matrix(8.304927e-02 -0.9965 0.9965 8.304927e-02 562.4822 2569.7747)" class="st37" cx="1677.7" cy="979.2" rx="7.7" ry="3.9"/>
	<circle class="st38" cx="1677.6" cy="979.1" r="1.9"/>
	
		<rect x="1702.5" y="978" transform="matrix(0.1268 -0.9919 0.9919 0.1268 523.4695 2565.0623)" class="st36" width="32.3" height="14.4"/>
	
		<ellipse transform="matrix(8.304927e-02 -0.9965 0.9965 8.304927e-02 594.2301 2616.2903)" class="st37" cx="1718.8" cy="985.2" rx="7.7" ry="3.9"/>
	<circle class="st38" cx="1718.7" cy="985.2" r="1.9"/>
	<polygon class="st31" points="1808.5,780.1 1840.2,733.2 1920,773 1920,843.4 	"/>
	<line class="st8" x1="1831.9" y1="569" x2="1856.8" y2="575"/>
	<line class="st8" x1="1827.6" y1="590.6" x2="1854.4" y2="598.2"/>
	<line class="st8" x1="1825.2" y1="614.1" x2="1851.9" y2="622.1"/>
	<line class="st8" x1="1822.8" y1="637.8" x2="1849.4" y2="645.2"/>
	<line class="st8" x1="1820.6" y1="659.4" x2="1847.3" y2="665.6"/>
	<line class="st8" x1="1818.6" y1="679" x2="1845.2" y2="685.4"/>
	<line class="st8" x1="1816.5" y1="698.8" x2="1843" y2="706.7"/>
	<line class="st8" x1="1814.5" y1="719.2" x2="1839.8" y2="722.3"/>
	<line class="st8" x1="1812.2" y1="740.7" x2="1840.4" y2="731.3"/>
	<line class="st8" x1="1811.6" y1="763" x2="1829.9" y2="749.1"/>
</g>
<g id="Layer_5">
	<polygon class="st39" points="872.5,52 872.5,76.9 1123.6,76.9 1123.6,50.5 	"/>
	<polygon class="st7" points="840.5,24.3 873.5,24.3 882.5,10.5 868.5,10.5 863.5,15.5 858,15.5 855.5,10.5 849,10.5 847,15.5 
		840.5,15.5 834.5,10.5 824.3,10.5 831,24.3 	"/>
	<polygon class="st31" points="854.4,52.4 816.6,122.7 751.4,78.1 840.5,24.3 1166.1,24.8 1244.3,80.5 1180.8,79.8 1155.5,50.3 	"/>
	<polygon class="st8" points="751.4,78.1 840.5,24.3 1166.1,24.8 1244.3,80.5 	"/>
	<polygon class="st7" points="1133.1,24.8 1166.1,24.8 1175.1,11 1161.1,11 1156.1,16 1150.6,16 1148.1,11 1141.6,11 1139.6,16 
		1133.1,16 1127.1,11 1116.9,11 1123.6,24.8 	"/>
	<polygon class="st7" points="1123.6,24.8 1123.6,88 1170.4,88 1166.1,24.8 	"/>
	<polygon class="st7" points="831,24.3 831,87.5 877.8,87.5 873.5,24.3 	"/>
	<polygon class="st7" points="747.5,6.7 750.8,24.3 816.5,24.3 824.3,6.7 811.6,6.7 807,12.7 797.6,12.3 790.6,6.7 776.2,6.7 
		771.3,12.3 761.8,11.8 758.1,7.1 	"/>
	<polyline class="st7" points="943.8,64.3 943.8,77.5 943.8,181.4 830.7,180.5 811.8,179.9 812.5,56.1 831.1,56.1 831.1,40.6 
		855.8,40.6 855.8,56.1 878.9,56.1 878.9,42.4 902,40.6 902,54.7 918.5,54.2 918.5,40.6 935.1,40.6 934.7,56.1 943.8,56.1 	"/>
	<line class="st40" x1="953.9" y1="29" x2="953.9" y2="6.9"/>
	<g>
		<path class="st1" d="M954.5,19.7c2.4-2,5.6-4.1,7.9-1.8c1.4,1.3,2.1,4.1,3.8,4.1c1.9,0.1,2.6-3.1,2.7-5.5c0.1-3.5-0.1-7.7-2.5-9.3
			c-3.7-2.4-8.2,3.7-11.9,1.4"/>
	</g>
	<polygon class="st7" points="1058.4,59.6 1058.4,180.2 1069,180.1 1181.4,180.1 1180.8,63 1175.4,62.9 1175.4,41 1170.3,40.6 
		1155.2,40.6 1155.2,59.6 1134.7,59.6 1134.7,41 1114.2,41 1114.2,59.6 1096,59.6 1096,40.6 1076.9,41 1076.3,59.6 	"/>
	<polygon class="st7" points="1060.7,56.3 1061.1,180.2 1050.6,191.5 1040.6,181.1 1040.6,56.3 1050.8,55.9 	"/>
	<line class="st40" x1="1050.6" y1="32.5" x2="1050.6" y2="10.7"/>
	<g>
		<path class="st1" d="M1051.3,23.3c2.4-2,5.6-4,7.9-1.8c1.4,1.3,2.1,4,3.8,4.1c1.9,0.1,2.6-3.1,2.7-5.4c0.1-3.4-0.1-7.5-2.5-9.1
			c-3.7-2.3-8.2,3.6-11.9,1.4"/>
	</g>
	<polygon class="st7" points="751.4,135.5 751.4,190.2 771.5,190.2 816.6,190.2 816.6,170.1 816.6,24.3 751.4,24.3 	"/>
	<g>
		<path d="M775.5,62.6c-0.8-2.4,0.7-5.2,3.1-6.4c2.4-1.2,5.4-1.1,7.9-0.3c1.3,0.4,2.5,1.1,3.2,2.2c0.7,1.1,0.8,2.4,0.8,3.7
			c0.1,5.4,0.2,10.9,0.3,16.3c-4.9-0.4-9.9-0.5-14.8-0.3c0.2-5.1,0.2-10.1,0.1-15.2"/>
	</g>
	<polygon class="st7" points="961.6,60.9 970.8,60.9 970.8,55.3 979.6,55.3 979.6,60.9 988.6,60.9 988.6,55.3 996.7,55.3 
		996.7,60.9 1005.2,60.9 1005.2,55.3 1013.8,55.3 1013.8,60.9 1025.1,60.9 1025.1,55.3 1034.3,55.3 1034.3,60.9 1040.6,60.9 
		1040.6,180 961.6,180.7 	"/>
	<g>
		<path d="M985.6,180.1c1.5-19-1.9-40.9,2.9-58.9c0.8-3.1,1.9-6.1,3.7-8.3c2.7-3.3,6.6-4,10.2-3.9c2.6,0,5.3,0.4,7.6,2
			c2.8,2,4.8,5.7,6.3,9.6c3.3,8.6,4.4,18.6,4.7,28.3c0.3,9.8-0.1,21.4,0.1,31.2"/>
	</g>
	<polygon class="st7" points="1179,135.5 1179,190.2 1199.1,190.2 1244.3,190.2 1244.3,170.1 1244.3,24.3 1179,24.3 	"/>
	<polygon class="st7" points="1175.1,6.7 1178.4,24.3 1244.1,24.3 1252,6.7 1239.2,6.7 1234.7,12.7 1225.2,12.3 1218.3,6.7 
		1203.9,6.7 1199,12.3 1189.5,11.8 1185.8,7.1 	"/>
	<g>
		<path d="M1203.2,62.6c-0.8-2.4,0.7-5.2,3.1-6.4s5.4-1.1,7.9-0.3c1.3,0.4,2.5,1.1,3.2,2.2c0.7,1.1,0.8,2.4,0.8,3.7
			c0.1,5.4,0.2,10.9,0.3,16.3c-4.9-0.4-9.9-0.5-14.8-0.3c0.2-5.1,0.2-10.1,0.1-15.2"/>
	</g>
	<g>
		<path class="st39" d="M850.1,41.3c-0.5-1.7,0.4-3.6,1.8-4.4c1.3-0.8,3-0.8,4.5-0.2c0.7,0.3,1.4,0.8,1.8,1.5
			c0.4,0.8,0.4,1.7,0.4,2.6c0.1,3.7,0.1,7.5,0.2,11.2c-2.8-0.3-5.6-0.3-8.3-0.2c0.1-3.5,0.1-7,0.1-10.5"/>
	</g>
	<g>
		<path class="st39" d="M1142.7,41.4c-0.5-1.7,0.4-3.6,1.8-4.4c1.3-0.8,3-0.8,4.5-0.2c0.7,0.3,1.4,0.8,1.8,1.5
			c0.4,0.8,0.4,1.7,0.4,2.6c0.1,3.7,0.1,7.5,0.2,11.2c-2.8-0.3-5.6-0.3-8.3-0.2c0.1-3.5,0.1-7,0.1-10.5"/>
	</g>
	<polygon class="st7" points="963.9,53.2 964.3,179.2 953.9,190.7 943.8,180.1 943.8,53.2 954,52.8 	"/>
	<polygon class="st41" points="943.8,53.2 963.9,53.2 953.9,29 	"/>
	<polygon class="st41" points="1040.6,56.3 1060.7,56.3 1050.6,32.5 	"/>
	<line class="st19" x1="816.6" y1="72.7" x2="943.8" y2="72.7"/>
	<line class="st19" x1="815.8" y1="91.8" x2="943" y2="91.8"/>
	<line class="st19" x1="816.6" y1="113" x2="943.8" y2="113"/>
	<line class="st19" x1="816.6" y1="132.1" x2="943.8" y2="132.1"/>
	<line class="st19" x1="817.5" y1="149.3" x2="944.6" y2="149.3"/>
	<line class="st19" x1="816.6" y1="168.2" x2="943.8" y2="168.2"/>
	<line class="st19" x1="840.8" y1="72.7" x2="840.8" y2="91.8"/>
	<line class="st19" x1="885.8" y1="72.7" x2="885.8" y2="91.8"/>
	<line class="st19" x1="927.8" y1="72.7" x2="927.8" y2="91.8"/>
	<line class="st19" x1="846.5" y1="91.8" x2="846.5" y2="113"/>
	<line class="st19" x1="889.7" y1="91.8" x2="889.7" y2="113"/>
	<line class="st19" x1="930.2" y1="91.8" x2="930.2" y2="113"/>
	<line class="st19" x1="850" y1="113" x2="850" y2="132.1"/>
	<line class="st19" x1="895.5" y1="113" x2="895.5" y2="132.1"/>
	<line class="st19" x1="934.2" y1="113" x2="934.2" y2="132.1"/>
	<line class="st19" x1="920.8" y1="132.1" x2="920.8" y2="149.3"/>
	<line class="st19" x1="877.8" y1="132.1" x2="877.8" y2="148.7"/>
	<line class="st19" x1="836.7" y1="131.3" x2="836.7" y2="149.3"/>
	<line class="st19" x1="855.2" y1="149.3" x2="855.2" y2="168.2"/>
	<line class="st19" x1="882.3" y1="149.3" x2="882.3" y2="168.2"/>
	<line class="st19" x1="914.8" y1="149.3" x2="914.8" y2="168.2"/>
	<line class="st19" x1="840.8" y1="168.2" x2="840.8" y2="180.7"/>
	<line class="st19" x1="887" y1="168.2" x2="887" y2="181"/>
	<line class="st19" x1="927.8" y1="168.2" x2="927.8" y2="181.3"/>
	<line class="st19" x1="1061.1" y1="75.8" x2="1180.4" y2="75.8"/>
	<line class="st19" x1="1060.4" y1="94" x2="1179.4" y2="94"/>
	<line class="st19" x1="1061.1" y1="113" x2="1179" y2="113"/>
	<line class="st19" x1="1061.1" y1="132.1" x2="1179" y2="132.1"/>
	<line class="st19" x1="1061.1" y1="149.3" x2="1179" y2="149.3"/>
	<line class="st19" x1="1061.1" y1="168.2" x2="1179" y2="168.2"/>
	<line class="st19" x1="1089" y1="75.8" x2="1089" y2="94"/>
	<line class="st19" x1="1134.8" y1="75.8" x2="1134.8" y2="94"/>
	<line class="st19" x1="1166" y1="75.8" x2="1166" y2="94"/>
	<line class="st19" x1="1083" y1="94" x2="1083" y2="113"/>
	<line class="st19" x1="1126.3" y1="94" x2="1126.3" y2="113"/>
	<line class="st19" x1="1161" y1="94" x2="1161" y2="113"/>
	<line class="st19" x1="1094.7" y1="113" x2="1094.7" y2="132.1"/>
	<line class="st19" x1="1130.7" y1="113" x2="1130.7" y2="132.1"/>
	<line class="st19" x1="1156.7" y1="113" x2="1156.7" y2="132.1"/>
	<line class="st19" x1="1075.7" y1="132.1" x2="1075.7" y2="149.3"/>
	<line class="st19" x1="1123.6" y1="132.1" x2="1123.6" y2="149.3"/>
	<line class="st19" x1="1153" y1="132.1" x2="1153" y2="149.3"/>
	<line class="st19" x1="1101.7" y1="148.7" x2="1101.7" y2="168.2"/>
	<line class="st19" x1="1142.6" y1="149.3" x2="1142.6" y2="168.2"/>
	<line class="st19" x1="1170.4" y1="148.7" x2="1170.4" y2="168.2"/>
	<line class="st19" x1="1083" y1="168.2" x2="1083" y2="179.9"/>
	<line class="st19" x1="1129" y1="168.2" x2="1129" y2="180.2"/>
	<line class="st19" x1="1163.3" y1="180.2" x2="1163.3" y2="168.2"/>
	<line class="st19" x1="964.3" y1="79.2" x2="1040.6" y2="79.2"/>
	<line class="st19" x1="964.3" y1="98.3" x2="1040.6" y2="98.3"/>
	<line class="st19" x1="963.9" y1="123.7" x2="987.9" y2="123.7"/>
	<line class="st19" x1="1017" y1="122.7" x2="1040.6" y2="122.7"/>
	<line class="st19" x1="964.3" y1="147.7" x2="985.8" y2="147.7"/>
	<line class="st19" x1="1020.9" y1="148.9" x2="1040.6" y2="148.7"/>
	<line class="st19" x1="964.3" y1="166" x2="986" y2="166"/>
	<line class="st19" x1="1020.9" y1="166" x2="1040.6" y2="166"/>
	<line class="st19" x1="987.9" y1="79.2" x2="987.9" y2="98.3"/>
	<line class="st19" x1="1027.3" y1="79.3" x2="1027.3" y2="98.3"/>
	<line class="st19" x1="978" y1="98.3" x2="978" y2="123.7"/>
	<line class="st19" x1="1021" y1="98.3" x2="1021" y2="121.8"/>
	<line class="st19" x1="971.7" y1="123.7" x2="971.7" y2="147.7"/>
	<line class="st19" x1="1034" y1="122.7" x2="1034" y2="148.7"/>
	<line class="st19" x1="979.7" y1="147.7" x2="979.7" y2="166"/>
	<line class="st19" x1="1027.3" y1="148.7" x2="1027.3" y2="166"/>
	<line class="st19" x1="975" y1="166" x2="975" y2="180.2"/>
	<line class="st19" x1="1030.8" y1="166" x2="1030.8" y2="179.9"/>
	<line class="st19" x1="751.4" y1="41.1" x2="815.8" y2="41.1"/>
	<line class="st19" x1="751.4" y1="61.3" x2="773.3" y2="61.3"/>
	<line class="st19" x1="790.6" y1="61.9" x2="816.6" y2="61.3"/>
	<line class="st19" x1="751.6" y1="84.9" x2="816.6" y2="84.9"/>
	<line class="st19" x1="752.4" y1="127.7" x2="817.6" y2="127.7"/>
	<line class="st19" x1="751.8" y1="149.3" x2="817.1" y2="149.3"/>
	<line class="st19" x1="752" y1="172.9" x2="817.3" y2="172.9"/>
	<line class="st19" x1="752.5" y1="107.3" x2="817.5" y2="107.3"/>
	<line class="st19" x1="770.3" y1="84.9" x2="770.3" y2="107.3"/>
	<line class="st19" x1="794" y1="107.3" x2="794" y2="127.7"/>
	<line class="st19" x1="779" y1="127.7" x2="779" y2="149.3"/>
	<line class="st19" x1="800" y1="149.3" x2="800" y2="172.9"/>
	<line class="st19" x1="766.1" y1="172.9" x2="766.1" y2="189.8"/>
	<line class="st19" x1="762.3" y1="61.6" x2="763.2" y2="83.6"/>
	<line class="st19" x1="794" y1="40.6" x2="794" y2="61.6"/>
	<line class="st19" x1="772" y1="24.3" x2="772" y2="41.1"/>
	<line class="st19" x1="1178.5" y1="41.3" x2="1243" y2="41.3"/>
	<line class="st19" x1="1217.7" y1="62.1" x2="1243.8" y2="61.5"/>
	<line class="st19" x1="1178.7" y1="85.1" x2="1243.8" y2="85.1"/>
	<line class="st19" x1="1179.5" y1="127.9" x2="1244.8" y2="127.9"/>
	<line class="st19" x1="1178.9" y1="149.5" x2="1244.2" y2="149.5"/>
	<line class="st19" x1="1179.2" y1="173.1" x2="1244.5" y2="173.1"/>
	<line class="st19" x1="1179.6" y1="107.5" x2="1244.7" y2="107.5"/>
	<line class="st19" x1="1197.5" y1="85.1" x2="1197.5" y2="107.5"/>
	<line class="st19" x1="1221.2" y1="107.5" x2="1221.2" y2="127.9"/>
	<line class="st19" x1="1206.1" y1="127.9" x2="1206.1" y2="149.5"/>
	<line class="st19" x1="1227.1" y1="149.5" x2="1227.1" y2="173.1"/>
	<line class="st19" x1="1193.2" y1="173.1" x2="1193.2" y2="190"/>
	<line class="st19" x1="1221.2" y1="40.8" x2="1221.2" y2="61.8"/>
	<line class="st19" x1="1199.1" y1="24.5" x2="1199.1" y2="41.3"/>
	<line class="st19" x1="1203.8" y1="62.7" x2="1179" y2="63"/>
	<line class="st19" x1="1191.4" y1="62.7" x2="1191.4" y2="84.9"/>
	<g>
		<path class="st42" d="M733.2,241.5c0.6,2.8,1.2,5.6,1.8,8.4c0.1,0.6,0.3,1.2,0.7,1.6c0.6,0.6,1.5,0.8,2.3,1
			c7.3,1.4,14.7,2.9,22,4.3c0.9,0.2,1.9,0.4,2.8,0c0.8-0.3,1.3-0.9,1.8-1.5c1.1-1.2,2.2-2.5,3.2-3.7c1.4-1.6,2.9-3.3,3.5-5.4
			c0.6-2,0.2-4.5-1.6-5.9c-2.1-1.6-5.3-1-7.7-2.2c-1.3-0.7-2.2-1.8-3.2-2.7c-3.8-3.1-9.4-3.4-14.1-1.8c-4.7,1.5-8.5,4.6-12.3,7.6"/>
		<g>
			<path class="st43" d="M731.7,241.9c0.8,3.5,0.6,9.7,4.2,11.6c2,1,5,1.1,7.1,1.6c3.1,0.6,6.1,1.2,9.2,1.8
				c3.8,0.7,9.1,3.1,12.6,0.5c3-2.3,7.3-7.4,8-11.2c0.6-3.1-0.6-6.2-3.6-7.6c-1.8-0.8-3.8-0.6-5.6-1.3c-2.5-1-4.3-3.5-6.8-4.6
				c-9.3-4.3-18.5,2-25.5,7.6c-1.5,1.2,0.6,3.3,2.1,2.1c5.8-4.6,13.2-10.1,21.1-7.4c2.8,0.9,4.4,3.4,6.9,4.6
				c3.6,1.8,9.8,0.7,7.7,7.6c-0.9,2.9-5.7,8.1-8.8,8.2c-3.4,0.2-7.6-1.5-11-2.2c-3.2-0.6-8.1-0.7-11-2.2c-3-1.5-3.1-7-3.8-9.9
				C734.2,239.2,731.3,240,731.7,241.9L731.7,241.9z"/>
		</g>
	</g>
	<g>
		<path class="st44" d="M733.2,244.2c3.1-0.6,6-2.1,9.3-1.7c2.2,0.2,4.3,1.3,6.4,2c2.4,0.9,5.1,1.5,7.7,1.6c2.5,0.2,4.9,0,7.4,0.3
			s5.1,1.1,6.5,2.7l-4.9,5.7l-2.8,2l-27.2-5.1L733.2,244.2z"/>
		<g>
			<path class="st43" d="M733.6,245.7c3.4-0.7,6.7-2.2,10.2-1.4c2.7,0.6,5.1,2,7.7,2.7c5.6,1.4,13.4-0.8,18,3.3c0-0.7,0-1.4,0-2.1
				c-1.3,1.5-2.5,3.1-3.9,4.5c-0.5,0.5-0.9,1-1.4,1.5c-0.6,0.5-2.8,1.6-1,1.3c-3.2,0.4-7.9-1.5-11.1-2.1c-4.7-0.9-9.5-2.2-14.2-2.7
				c-0.5-0.1-1-0.2-1.5-0.3c0.5,0.1,0.5,1.5,0.4-0.2c-0.1-2-1.4-4.4-2.1-6.3c-0.6-1.8-3.5-1-2.9,0.8c0.8,2.5,1.6,5,2.5,7.5
				c0.2,0.5,0.5,0.9,1,1c7.8,1.5,15.5,2.9,23.3,4.4c2.8,0.5,4.1,1.2,6.5-0.4c2.6-1.8,4.5-4.5,6.6-7c0.5-0.6,0.6-1.5,0-2.1
				c-5.3-4.8-12.8-2.5-19.3-4.1c-3.3-0.8-6.4-2.7-9.8-3c-3.3-0.3-6.5,1.1-9.7,1.8C730.9,243.2,731.7,246.1,733.6,245.7z"/>
		</g>
	</g>
	<g>
		<path class="st42" d="M150.8,1029c0.6,2.8,1.2,5.6,1.8,8.4c0.1,0.6,0.3,1.2,0.7,1.6c0.6,0.6,1.5,0.8,2.3,1
			c7.3,1.4,14.7,2.9,22,4.3c0.9,0.2,1.9,0.4,2.8,0c0.8-0.3,1.3-0.9,1.8-1.5c1.1-1.2,2.2-2.5,3.2-3.7c1.4-1.6,2.9-3.3,3.5-5.4
			s0.2-4.5-1.6-5.9c-2.1-1.6-5.3-1-7.7-2.2c-1.3-0.7-2.2-1.8-3.2-2.7c-3.8-3.1-9.4-3.4-14.1-1.8c-4.7,1.5-8.5,4.6-12.3,7.6"/>
		<g>
			<path class="st43" d="M149.4,1029.4c0.8,3.5,0.6,9.7,4.2,11.6c2,1,5,1.1,7.1,1.6c3.1,0.6,6.1,1.2,9.2,1.8
				c3.8,0.7,9.1,3.1,12.6,0.5c3-2.3,7.3-7.4,8-11.2c0.6-3.1-0.6-6.2-3.6-7.6c-1.8-0.8-3.8-0.6-5.6-1.3c-2.5-1-4.3-3.5-6.8-4.6
				c-9.3-4.3-18.5,2-25.5,7.6c-1.5,1.2,0.6,3.3,2.1,2.1c5.8-4.6,13.2-10.1,21.1-7.4c2.8,0.9,4.4,3.4,6.9,4.6
				c3.6,1.8,9.8,0.7,7.7,7.6c-0.9,2.9-5.7,8.1-8.8,8.2c-3.4,0.2-7.6-1.5-11-2.2c-3.2-0.6-8.1-0.7-11-2.2c-3-1.5-3.1-7-3.8-9.9
				C151.8,1026.7,148.9,1027.5,149.4,1029.4L149.4,1029.4z"/>
		</g>
	</g>
	<g>
		<path class="st44" d="M150.8,1031.7c3.1-0.6,6-2.1,9.3-1.7c2.2,0.2,4.3,1.3,6.4,2c2.4,0.9,5.1,1.5,7.7,1.6c2.5,0.2,4.9,0,7.4,0.3
			s5.1,1.1,6.5,2.7l-4.9,5.7l-2.8,2l-27.2-5.1L150.8,1031.7z"/>
		<g>
			<path class="st43" d="M151.2,1033.1c3.4-0.7,6.7-2.2,10.2-1.4c2.7,0.6,5.1,2,7.7,2.7c5.6,1.4,13.4-0.8,18,3.3c0-0.7,0-1.4,0-2.1
				c-1.3,1.5-2.5,3.1-3.9,4.5c-0.5,0.5-0.9,1-1.4,1.5c-0.6,0.5-2.8,1.6-1,1.3c-3.2,0.4-7.9-1.5-11.1-2.1c-4.7-0.9-9.5-2.2-14.2-2.7
				c-0.5-0.1-1-0.2-1.5-0.3c0.5,0.1,0.5,1.5,0.4-0.2c-0.2-2-1.4-4.4-2.1-6.3c-0.6-1.8-3.5-1-2.9,0.8c0.8,2.5,1.6,5,2.5,7.5
				c0.2,0.5,0.5,0.9,1,1c7.8,1.5,15.5,2.9,23.3,4.4c2.8,0.5,4.1,1.2,6.5-0.4c2.6-1.8,4.5-4.5,6.6-7c0.5-0.6,0.6-1.5,0-2.1
				c-5.3-4.8-12.8-2.5-19.3-4.1c-3.3-0.8-6.4-2.7-9.8-3c-3.3-0.3-6.5,1.1-9.7,1.8C148.5,1030.7,149.3,1033.6,151.2,1033.1z"/>
		</g>
	</g>
	<g>
		<path class="st42" d="M1525.5,715.9c0.6,2.8,1.2,5.6,1.8,8.4c0.1,0.6,0.3,1.2,0.7,1.6c0.6,0.6,1.5,0.8,2.3,1
			c7.3,1.4,14.7,2.9,22,4.3c0.9,0.2,1.9,0.4,2.8,0c0.8-0.3,1.3-0.9,1.8-1.5c1.1-1.2,2.2-2.5,3.2-3.7c1.4-1.6,2.9-3.3,3.5-5.4
			s0.2-4.5-1.6-5.9c-2.1-1.6-5.3-1-7.7-2.2c-1.3-0.7-2.2-1.8-3.2-2.7c-3.8-3.1-9.4-3.4-14.1-1.8s-8.5,4.6-12.3,7.6"/>
		<g>
			<path class="st43" d="M1524,716.3c0.8,3.5,0.6,9.7,4.2,11.6c2,1,5,1.1,7.1,1.6c3.1,0.6,6.1,1.2,9.2,1.8c3.8,0.7,9.1,3.1,12.6,0.5
				c3-2.3,7.3-7.4,8-11.2c0.6-3.1-0.6-6.2-3.6-7.6c-1.8-0.8-3.8-0.6-5.6-1.3c-2.5-1-4.3-3.5-6.8-4.6c-9.3-4.3-18.5,2-25.5,7.6
				c-1.5,1.2,0.6,3.3,2.1,2.1c5.8-4.6,13.2-10.1,21.1-7.4c2.8,0.9,4.4,3.4,6.9,4.6c3.6,1.8,9.8,0.7,7.7,7.6
				c-0.9,2.9-5.7,8.1-8.8,8.2c-3.4,0.2-7.6-1.5-11-2.2c-3.2-0.6-8.1-0.7-11-2.2c-3-1.5-3.1-7-3.8-9.9
				C1526.5,713.6,1523.6,714.4,1524,716.3L1524,716.3z"/>
		</g>
	</g>
	<g>
		<path class="st44" d="M1525.5,718.6c3.1-0.6,6-2.1,9.3-1.7c2.2,0.2,4.3,1.3,6.4,2c2.4,0.9,5.1,1.5,7.7,1.6c2.5,0.2,4.9,0,7.4,0.3
			s5.1,1.1,6.5,2.7l-4.9,5.7l-2.8,2l-27.2-5.1L1525.5,718.6z"/>
		<g>
			<path class="st43" d="M1525.8,720c3.4-0.7,6.7-2.2,10.2-1.4c2.7,0.6,5.1,2,7.7,2.7c5.6,1.4,13.4-0.8,18,3.3c0-0.7,0-1.4,0-2.1
				c-1.3,1.5-2.5,3.1-3.9,4.5c-0.5,0.5-0.9,1-1.4,1.5c-0.6,0.5-2.8,1.6-1,1.3c-3.2,0.4-7.9-1.5-11.1-2.1c-4.7-0.9-9.5-2.2-14.2-2.7
				c-0.5-0.1-1-0.2-1.5-0.3c0.5,0.1,0.5,1.5,0.4-0.2c-0.2-2-1.4-4.4-2.1-6.3c-0.6-1.8-3.5-1-2.9,0.8c0.8,2.5,1.6,5,2.5,7.5
				c0.2,0.5,0.5,0.9,1,1c7.8,1.5,15.5,2.9,23.3,4.4c2.8,0.5,4.1,1.2,6.5-0.4c2.6-1.8,4.5-4.5,6.6-7c0.5-0.6,0.6-1.5,0-2.1
				c-5.3-4.8-12.8-2.5-19.3-4.1c-3.3-0.8-6.4-2.7-9.8-3c-3.3-0.3-6.5,1.1-9.7,1.8C1523.2,717.5,1524,720.4,1525.8,720z"/>
		</g>
	</g>
	<g>
		<path class="st42" d="M1225,244c0.6,2.8,1.2,5.6,1.8,8.4c0.1,0.6,0.3,1.2,0.7,1.6c0.6,0.6,1.5,0.8,2.3,1c7.3,1.4,14.7,2.9,22,4.3
			c0.9,0.2,1.9,0.4,2.8,0c0.8-0.3,1.3-0.9,1.8-1.5c1.1-1.2,2.2-2.5,3.2-3.7c1.4-1.6,2.9-3.3,3.5-5.4c0.6-2,0.2-4.5-1.6-5.9
			c-2.1-1.6-5.3-1-7.7-2.2c-1.3-0.7-2.2-1.8-3.2-2.7c-3.8-3.1-9.4-3.4-14.1-1.8s-8.5,4.6-12.3,7.6"/>
		<g>
			<path class="st43" d="M1223.5,244.4c0.8,3.5,0.6,9.7,4.2,11.6c2,1,5,1.1,7.1,1.6c3.1,0.6,6.1,1.2,9.2,1.8
				c3.8,0.7,9.1,3.1,12.6,0.5c3-2.3,7.3-7.4,8-11.2c0.6-3.1-0.6-6.2-3.6-7.6c-1.8-0.8-3.8-0.6-5.6-1.3c-2.5-1-4.3-3.5-6.8-4.6
				c-9.3-4.3-18.5,2-25.5,7.6c-1.5,1.2,0.6,3.3,2.1,2.1c5.8-4.6,13.2-10.1,21.1-7.4c2.8,0.9,4.4,3.4,6.9,4.6
				c3.6,1.8,9.8,0.7,7.7,7.6c-0.9,2.9-5.7,8.1-8.8,8.2c-3.4,0.2-7.6-1.5-11-2.2c-3.2-0.6-8.1-0.7-11-2.2c-3-1.5-3.1-7-3.8-9.9
				C1226,241.7,1223.1,242.5,1223.5,244.4L1223.5,244.4z"/>
		</g>
	</g>
	<g>
		<path class="st44" d="M1224.9,246.7c3.1-0.6,6-2.1,9.3-1.7c2.2,0.2,4.3,1.3,6.4,2c2.4,0.9,5.1,1.5,7.7,1.6c2.5,0.2,4.9,0,7.4,0.3
			s5.1,1.1,6.5,2.7l-4.9,5.7l-2.8,2l-27.2-5.1L1224.9,246.7z"/>
		<g>
			<path class="st43" d="M1225.3,248.1c3.4-0.7,6.7-2.2,10.2-1.4c2.7,0.6,5.1,2,7.7,2.7c5.6,1.4,13.4-0.8,18,3.3c0-0.7,0-1.4,0-2.1
				c-1.3,1.5-2.5,3.1-3.9,4.5c-0.5,0.5-0.9,1-1.4,1.5c-0.6,0.5-2.8,1.6-1,1.3c-3.2,0.4-7.9-1.5-11.1-2.1c-4.7-0.9-9.5-2.2-14.2-2.7
				c-0.5-0.1-1-0.2-1.5-0.3c0.5,0.1,0.5,1.5,0.4-0.2c-0.2-2-1.4-4.4-2.1-6.3c-0.6-1.8-3.5-1-2.9,0.8c0.8,2.5,1.6,5,2.5,7.5
				c0.2,0.5,0.5,0.9,1,1c7.8,1.5,15.5,2.9,23.3,4.4c2.8,0.5,4.1,1.2,6.5-0.4c2.6-1.8,4.5-4.5,6.6-7c0.5-0.6,0.6-1.5,0-2.1
				c-5.3-4.8-12.8-2.5-19.3-4.1c-3.3-0.8-6.4-2.7-9.8-3c-3.3-0.3-6.5,1.1-9.7,1.8C1222.7,245.7,1223.5,248.6,1225.3,248.1z"/>
		</g>
	</g>
	<g>
		<path class="st42" d="M591,438.6c0.6,2.8,1.2,5.6,1.8,8.4c0.1,0.6,0.3,1.2,0.7,1.6c0.6,0.6,1.5,0.8,2.3,1c7.3,1.4,14.7,2.9,22,4.3
			c0.9,0.2,1.9,0.4,2.8,0c0.8-0.3,1.3-0.9,1.8-1.5c1.1-1.2,2.2-2.5,3.2-3.7c1.4-1.6,2.9-3.3,3.5-5.4c0.6-2,0.2-4.5-1.6-5.9
			c-2.1-1.6-5.3-1-7.7-2.2c-1.3-0.7-2.2-1.8-3.2-2.7c-3.8-3.1-9.4-3.4-14.1-1.8c-4.7,1.5-8.5,4.6-12.3,7.6"/>
		<g>
			<path class="st43" d="M589.6,439c0.8,3.5,0.6,9.7,4.2,11.6c2,1,5,1.1,7.1,1.6c3.1,0.6,6.1,1.2,9.2,1.8c3.8,0.7,9.1,3.1,12.6,0.5
				c3-2.3,7.3-7.4,8-11.2c0.6-3.1-0.6-6.2-3.6-7.6c-1.8-0.8-3.8-0.6-5.6-1.3c-2.5-1-4.3-3.5-6.8-4.6c-9.3-4.3-18.5,2-25.5,7.6
				c-1.5,1.2,0.6,3.3,2.1,2.1c5.8-4.6,13.2-10.1,21.1-7.4c2.8,0.9,4.4,3.4,6.9,4.6c3.6,1.8,9.8,0.7,7.7,7.6
				c-0.9,2.9-5.7,8.1-8.8,8.2c-3.4,0.2-7.6-1.5-11-2.2c-3.2-0.6-8.1-0.7-11-2.2c-3-1.5-3.1-7-3.8-9.9
				C592.1,436.4,589.2,437.2,589.6,439L589.6,439z"/>
		</g>
	</g>
	<g>
		<path class="st44" d="M591,441.3c3.1-0.6,6-2.1,9.3-1.7c2.2,0.2,4.3,1.3,6.4,2c2.4,0.9,5.1,1.5,7.7,1.6c2.5,0.2,4.9,0,7.4,0.3
			s5.1,1.1,6.5,2.7l-4.9,5.7l-2.8,2l-27.2-5.1L591,441.3z"/>
		<g>
			<path class="st43" d="M591.4,442.8c3.4-0.7,6.7-2.2,10.2-1.4c2.7,0.6,5.1,2,7.7,2.7c5.6,1.4,13.4-0.8,18,3.3c0-0.7,0-1.4,0-2.1
				c-1.3,1.5-2.5,3.1-3.9,4.5c-0.5,0.5-0.9,1-1.4,1.5c-0.6,0.5-2.8,1.6-1,1.3c-3.2,0.4-7.9-1.5-11.1-2.1c-4.7-0.9-9.5-2.2-14.2-2.7
				c-0.5-0.1-1-0.2-1.5-0.3c0.5,0.1,0.5,1.5,0.4-0.2c-0.1-2-1.4-4.4-2.1-6.3c-0.6-1.8-3.5-1-2.9,0.8c0.8,2.5,1.6,5,2.5,7.5
				c0.2,0.5,0.5,0.9,1,1c7.8,1.5,15.5,2.9,23.3,4.4c2.8,0.5,4.1,1.2,6.5-0.4c2.6-1.8,4.5-4.5,6.6-7c0.5-0.6,0.6-1.5,0-2.1
				c-5.3-4.8-12.8-2.5-19.3-4.1c-3.3-0.8-6.4-2.7-9.8-3c-3.3-0.3-6.5,1.1-9.7,1.8C588.7,440.3,589.5,443.2,591.4,442.8z"/>
		</g>
	</g>
	<line class="st8" x1="1494.4" y1="799" x2="1920" y2="884"/>
	<line class="st8" x1="1489.9" y1="839" x2="1919.9" y2="919.3"/>
	<line class="st8" x1="1486.9" y1="873.9" x2="1628.4" y2="902.3"/>
	<line class="st8" x1="1774.2" y1="925.3" x2="1919.9" y2="951.3"/>
	<line class="st8" x1="1920" y1="989" x2="1771.1" y2="962.3"/>
	<line class="st8" x1="1625.1" y1="939.4" x2="1482.9" y2="913.4"/>
	<line class="st8" x1="1920" y1="1020.7" x2="1768.7" y2="994.3"/>
	<line class="st8" x1="1622" y1="975.3" x2="1479.1" y2="951.3"/>
	<line class="st8" x1="1920" y1="1050" x2="1766.5" y2="1023.7"/>
	<line class="st8" x1="1619.4" y1="1005" x2="1475.9" y2="983.3"/>
	<line class="st8" x1="1554" y1="778.7" x2="1918.3" y2="843.4"/>
	<line class="st8" x1="1625.1" y1="761.9" x2="1619.5" y2="790.4"/>
	<line class="st8" x1="1691.3" y1="771.7" x2="1687.2" y2="802.4"/>
	<line class="st8" x1="1780.6" y1="781.4" x2="1775.5" y2="818"/>
	<line class="st8" x1="1843" y1="801.9" x2="1840.4" y2="829.5"/>
	<line class="st8" x1="1574.6" y1="782.4" x2="1569.3" y2="814"/>
	<line class="st8" x1="1656.4" y1="796.9" x2="1651.4" y2="830.4"/>
	<line class="st8" x1="1746.4" y1="812.9" x2="1742.5" y2="848.6"/>
	<line class="st8" x1="1847.3" y1="830.7" x2="1843" y2="868.6"/>
	<line class="st8" x1="1580.4" y1="816.2" x2="1573.3" y2="854.6"/>
	<line class="st8" x1="1668" y1="833.7" x2="1663.8" y2="871.5"/>
	<line class="st8" x1="1778.1" y1="855.7" x2="1774.2" y2="892.1"/>
	<line class="st8" x1="1875.4" y1="875.1" x2="1872.1" y2="910.4"/>
	<line class="st8" x1="1536" y1="847.6" x2="1529.1" y2="882.4"/>
	<line class="st8" x1="1619.5" y1="863.2" x2="1614.1" y2="899.5"/>
	<line class="st8" x1="1709.3" y1="880" x2="1704.9" y2="907.8"/>
	<line class="st8" x1="1811.6" y1="899.1" x2="1807.9" y2="931.4"/>
	<line class="st8" x1="1544.1" y1="885.4" x2="1537.8" y2="923.4"/>
	<line class="st8" x1="1622" y1="901.1" x2="1617.1" y2="937.9"/>
	<line class="st8" x1="1791.1" y1="928.4" x2="1788.6" y2="965.4"/>
	<line class="st8" x1="1843.3" y1="937.9" x2="1840.4" y2="974.7"/>
	<line class="st8" x1="1547.7" y1="925.2" x2="1540.9" y2="961.7"/>
	<line class="st8" x1="1604.6" y1="935.6" x2="1599.7" y2="971.6"/>
	<line class="st8" x1="1820.7" y1="971.2" x2="1817.8" y2="1002.8"/>
	<line class="st8" x1="1554" y1="963.9" x2="1550.6" y2="994.3"/>
	<line class="st8" x1="1799.4" y1="999.6" x2="1796.3" y2="1028.8"/>
	<line class="st8" x1="1878.3" y1="1013.4" x2="1875.4" y2="1042.3"/>
	<line class="st8" x1="1564.8" y1="996.8" x2="1561.3" y2="1025"/>
	<line class="st8" x1="1837.1" y1="1035.8" x2="1832.9" y2="1064.2"/>
</g>
<polygon class="st10" points="511.8,442 526.8,657.3 560.2,649.7 547.5,406.7 508.7,409.5 "/>
<polygon class="st10" points="142,744.9 176.1,737.1 166.2,454.4 128.4,459.3 "/>
<g id="Layer_8">
</g>
<polygon class="st9" points="142,744.9 1.9,536.2 -0.1,364.2 128.4,459.3 "/>
<polygon class="st28" points="301,600.4 405.7,584.4 404.3,568.4 299.7,583.2 "/>
<polygon class="st28" points="306.1,669.4 411,649.3 410.8,663 308.8,683 "/>
<ellipse class="st28" cx="397.7" cy="618.6" rx="5" ry="9"/>
<polygon class="st45" points="167.3,486 101,543 -0.6,450 0,341.3 254.7,172.9 436,231.2 527.5,259.5 568.6,439.2 485.5,416 
	332.9,373.6 "/>
<line class="st45" x1="332.9" y1="373.6" x2="254.7" y2="172.9"/>
<polyline class="st8" points="64.1,500.7 319.1,338.2 558.8,396.4 "/>
<polyline class="st8" points="21.4,467.3 295.9,278.7 545.9,340.1 "/>
<polyline class="st8" points="-0.6,403.3 274,222.4 534.4,289.8 "/>
<polygon class="st10" points="324.8,431.5 319.1,383.8 332.9,373.6 351.7,379.2 357.8,427.5 "/>
<polygon class="st10" points="319.1,383.8 233.3,443.8 266.1,439.8 321.4,402.9 "/>
<polygon class="st10" points="351.7,379.2 354.2,398.2 430.1,417.1 466.3,412.5 "/>
<polygon class="st46" points="355.8,398.5 359,427.4 423.8,416.9 "/>
<polygon class="st46" points="320.5,404.4 323.8,431.3 271.5,437.8 "/>
<line class="st0" x1="139.3" y1="688.6" x2="1.4" y2="497.3"/>
<line class="st0" x1="135.9" y1="624.7" x2="0" y2="461.3"/>
<line class="st0" x1="134" y1="575.8" x2="36.4" y2="479"/>
<line class="st0" x1="112.8" y1="651.9" x2="112.8" y2="701.4"/>
<line class="st0" x1="80.3" y1="606.8" x2="80.3" y2="653"/>
<line class="st0" x1="40.2" y1="551.2" x2="40.2" y2="593.2"/>
<line class="st0" x1="70.9" y1="546.6" x2="69.6" y2="592"/>
<line class="st0" x1="109.7" y1="593.2" x2="109.4" y2="647.2"/>
<line class="st0" x1="26" y1="492.6" x2="26" y2="531.5"/>
<line class="st0" x1="101" y1="543" x2="101" y2="582.7"/>
<line class="st0" x1="67.9" y1="510.3" x2="65.4" y2="540"/>
<line class="st0" x1="31.4" y1="475.1" x2="31.4" y2="499.1"/>
<line class="st9" x1="92.7" y1="534.9" x2="92.7" y2="534.9"/>
<line class="st0" x1="168.4" y1="519" x2="514" y2="476.7"/>
<line class="st0" x1="170.6" y1="564.7" x2="281" y2="551.7"/>
<line class="st0" x1="414.7" y1="534.5" x2="515.7" y2="520.9"/>
<line class="st0" x1="171.3" y1="606.3" x2="283.5" y2="593.9"/>
<line class="st0" x1="419.1" y1="574.6" x2="520.9" y2="559.5"/>
<line class="st0" x1="176.2" y1="694.8" x2="292.4" y2="674"/>
<line class="st0" x1="425.6" y1="647.8" x2="524.3" y2="629.8"/>
<line class="st0" x1="173.2" y1="651.9" x2="287.4" y2="635.7"/>
<line class="st0" x1="420.7" y1="613.5" x2="521.6" y2="599.2"/>
<line class="st0" x1="213.7" y1="688.6" x2="214.9" y2="728.3"/>
<line class="st0" x1="271.3" y1="677.8" x2="274.9" y2="714.6"/>
<line class="st0" x1="198.7" y1="648.3" x2="200.5" y2="690.4"/>
<line class="st0" x1="250.1" y1="641" x2="252.4" y2="681.2"/>
<line class="st0" x1="210.4" y1="602" x2="212.1" y2="646.4"/>
<line class="st0" x1="256.1" y1="596.9" x2="258.7" y2="639.8"/>
<line class="st0" x1="202" y1="560.9" x2="202.6" y2="602.9"/>
<line class="st0" x1="257.8" y1="554.1" x2="259.3" y2="596.2"/>
<line class="st0" x1="205.9" y1="514.4" x2="207.7" y2="560.4"/>
<line class="st0" x1="271.3" y1="506.4" x2="273.1" y2="552.6"/>
<line class="st0" x1="349.1" y1="496.9" x2="351" y2="534.9"/>
<line class="st0" x1="423.8" y1="487.7" x2="425.6" y2="533"/>
<line class="st0" x1="485.9" y1="480.1" x2="487.4" y2="524.7"/>
<line class="st0" x1="433.3" y1="532" x2="435.3" y2="572.2"/>
<line class="st0" x1="482.3" y1="525.4" x2="483.8" y2="565"/>
<line class="st0" x1="444.9" y1="570.8" x2="447" y2="609.8"/>
<line class="st0" x1="502.7" y1="562.2" x2="504.3" y2="601.6"/>
<line class="st0" x1="454.8" y1="608.7" x2="456.4" y2="642.2"/>
<line class="st0" x1="499.7" y1="602.3" x2="501.3" y2="634"/>
<line class="st0" x1="437.1" y1="645.7" x2="439.4" y2="677.2"/>
<line class="st0" x1="485.9" y1="636.8" x2="487.7" y2="666.2"/>
<line class="st0" x1="221.3" y1="480.1" x2="223.3" y2="512.3"/>
<line class="st0" x1="325.1" y1="466.9" x2="325.1" y2="499.8"/>
<line class="st0" x1="411" y1="455.4" x2="411" y2="489.3"/>
<line class="st0" x1="478.4" y1="446.5" x2="480.3" y2="480.8"/>
<polygon class="st34" points="1503.5,298 1501,354.5 1563.8,360.2 1566.3,303.3 "/>
<polygon class="st47" points="1501,354.5 1563.8,360.2 1565.9,310.5 1503.1,305.2 "/>
<line class="st34" x1="1533.6" y1="356.3" x2="1533.6" y2="307.8"/>
<line class="st34" x1="1501.4" y1="329.6" x2="1565.3" y2="333.2"/>
<polygon class="st12" points="1503.5,298 1566.3,303.3 1565.9,310.5 1503.1,305.2 "/>
<polygon class="st48" points="628.3,141.8 715,126.7 715,162.6 630,180.2 "/>
<polygon class="st48" points="370,185.4 485.5,166.8 485.5,131.5 368.6,146.3 "/>
<polygon class="st48" points="489.3,210.9 489.3,251 586.8,231.2 586.8,189.8 "/>
<polygon class="st48" points="188.1,168.7 58,186.4 58,148.1 185.3,133.3 "/>
<polygon class="st48" points="1352.8,102.2 1454.5,128.1 1455.7,95.9 1351.7,71.3 "/>
<polygon class="st48" points="1269,189.2 1322,209.3 1323.9,180.2 1269,156 "/>
<line class="st8" x1="1682.6" y1="232.4" x2="1682.6" y2="286.5"/>
<line class="st8" x1="1712.2" y1="296.5" x2="1712.2" y2="349.5"/>
<line class="st8" x1="1693.9" y1="191.1" x2="1693.9" y2="235.4"/>
<line class="st8" x1="1639.6" y1="142" x2="1637.1" y2="176.1"/>
<polygon class="st48" points="1684.3,286.5 1772,315.9 1773.2,257 1684.3,233.7 "/>
<polygon class="st48" points="1806,328.5 1804.8,382.5 1887.8,411.8 1887.8,355.3 "/>
<polygon class="st48" points="1746.5,172.3 1746.5,204.6 1824.8,223.8 1824.8,193.3 "/>
</svg>
