<?xml version="1.0" encoding="utf-8"?>
<!-- Generator: Adobe Illustrator 22.0.0, SVG Export Plug-In . SVG Version: 6.00 Build 0)  -->
<svg version="1.1" xmlns="http://www.w3.org/2000/svg" xmlns:xlink="http://www.w3.org/1999/xlink" x="0px" y="0px"
	 viewBox="0 0 160 160" style="enable-background:new 0 0 160 160;" xml:space="preserve">
<style type="text/css">
	.st0{fill:#3C3C42;stroke:#FF6F0F;stroke-width:3;stroke-miterlimit:10;}
	.st1{fill:#595A63;stroke:#000000;stroke-width:3;stroke-miterlimit:10;}
	.st2{fill:none;stroke:#000000;stroke-width:2;stroke-miterlimit:10;}
</style>
<g id="Layer_2">
	<g>
		
			<image style="overflow:visible;" width="255" height="245" xlink:href="4B5C9E6A.png"  transform="matrix(1 0 0 1 -46.4225 -42.4215)">
		</image>
	</g>
</g>
<g id="Layer_1">
	<path class="st0" d="M80,160c-44.2,0-80-35.8-80-80S35.8,0,80,0s80,35.8,80,80S124.2,160,80,160"/>
	<ellipse class="st1" cx="80" cy="80" rx="69.4" ry="69.4"/>
	<path id="Superior_esquerdo" class="st2" d="M54.2,36.3c-14.1,0-25.6,10.5-25.6,23.3v7.7c0,7.6,4,14.3,10.2,18.6c0-0.7,0-1.4,0-2.1
		c0-11.5,5.6-21.8,14.3-28.9c0.1-0.2,0.6-0.5,0.6-0.5c0.9-0.7,2-1.4,3.1-2.2c1.1-0.7,2.1-1.3,3.3-1.9c0,0,0,0,0.1-0.1
		c2.1-1.1,4.2-2,6.3-2.6c4.5-1.5,9.3-2.3,14.3-2.3v-9.1H54.2z"/>
	<path id="Superior_direito" class="st2" d="M107.2,36.3H80.7v9.3c0.1,0,0.2,0,0.3,0c9-0.4,20.6,3.9,25.9,8.3c0,0,0,0.1,0.1,0.1
		c0.2,0.1,0.4,0.3,0.6,0.4c0.6,0.5,1.5,1.1,1.5,1.2l0,0c8.4,7,13.7,17.1,13.7,28.3c0,0.7,0,1.4,0,2.1c6.1-4.3,10.2-11,10.2-18.6
		v-7.7C132.8,46.8,121.3,36.3,107.2,36.3z"/>
	<ellipse id="Circulo" class="st2" cx="80.7" cy="82.7" rx="42.2" ry="37.4"/>
	<path id="Inferior_x5F_direito" class="st2" d="M122.7,85.7c-1,19.2-19.4,34.4-42,34.4c0,0,0,0,0,0v11.6l0,0
		c28.6,0,51.9-20,51.9-44.7V70.5h-0.1C131.8,76.7,128.1,82.1,122.7,85.7z"/>
	<path id="Inferior_x5F_esquerdo" class="st2" d="M38.8,85.7c-5.4-3.6-9.1-9.1-9.9-15.2h-0.1v16.6c0,24.4,22.8,44.3,51,44.7
		c0.3,0,0.5,0,0.8,0l0,0v-11.6C58.2,120.1,39.9,104.9,38.8,85.7z"/>
	<g id="Taça">
		<path class="st2" d="M112,57.1c-2.1,0.4-4.4,0.2-6.3,1c-3.6,1.4-6.6,3.4-8.9,5.9c-2.2,2.4-3.5,5.1-3.9,8c-0.1,0.7,0,1.4,0.4,2
			c0.2,0.4,0.1,0.7-0.2,1.1c-1.3,1.4-2.7,2.8-4.1,4.1c-1.4,1.4-2.9,2.7-4,4.3c-0.3,0.5-0.6,0.9-0.7,1.4c0,0.6,0.2,1,0.9,1.3
			c1,0.5,2,0.9,3.2,0.9c0.2,0,0.4,0.1,0.7,0.1c0.8,0.2,1.2,0.5,1,1.1c-0.3,0.8-0.4,1.7-1.3,2.4c-0.6,0.5-0.5,1,0.2,1.4
			c0.3,0.2,0.6,0.4,1,0.6c0.4,0.2,0.4,0.5,0.1,0.7c-0.2,0.2-0.5,0.4-0.8,0.7c-0.4,0.4-0.4,0.7,0.1,1.1c0.1,0.1,0.3,0.2,0.4,0.3
			c1.2,0.9,1.5,1.8,0.9,3c-0.4,0.8-0.8,1.6-0.9,2.5c-0.1,1.1,0.5,2,1.6,2.6c1.3,0.9,2.8,1.3,4.6,1.2c3.1-0.1,6.3-0.2,9.4-0.2
			c0.4,0,0.7,0.1,1,0.3c1.5,1.6,2.6,3.1,2.8,5.1c0,0.6-2.9,2.6-5.6,3.9c-5.5,2.6-14.2,5.8-20.8,6c-5.7,0.1-12.6-0.7-18.5-2.9
			c-1.6-0.3-2.1-1.1-4.2-1.8c-2-0.5-3.9-2.2-4.5-2.6c-2-1.4,1-4.5,2.5-6.3c0.2-0.2,0.5-0.3,0.9-0.3c1.5-0.1,3.1-0.1,4.6-0.2
			c1.9-0.1,3.8-0.1,5.7-0.3c2.3-0.2,4-1.2,4.9-2.8c0.5-0.8,0.1-1.7-0.2-2.5c-0.3-0.6-0.6-1.2-0.9-1.8c-0.3-0.6-0.2-1.2,0.3-1.8
			c0.3-0.4,0.7-0.8,1.1-1.1c0.4-0.3,0.4-0.6,0-1c-0.3-0.2-0.6-0.5-0.9-0.7c-0.3-0.3-0.3-0.5,0.1-0.7c0.4-0.2,0.7-0.5,1-0.7
			c0.5-0.4,0.6-0.9,0.1-1.3c-0.7-0.6-1-1.3-1.3-2c-0.4-1-0.1-1.4,1.3-1.6c1.2-0.2,2.2-0.5,3.1-1c1.1-0.6,1.3-1.1,0.8-2
			c-0.5-1.1-1.5-2-2.5-2.8c-2.1-2-4.4-3.7-6.4-5.7c-0.5-0.5-0.7-0.9-0.4-1.6c0.5-1,0.2-2.1,0-3.1c-1.5-4.8-5.2-8.4-10.9-10.9
			c-2.4-1-5-1.8-7.7-2.2c-0.2-0.1-1.9-0.1-2.2-0.1c0.2-0.2,1.3-1.3,1.4-1.3c1.6-2.4,6.9-5.4,9.3-6.5c8.3-3.7,13.7-4.7,21-5.1
			c10.5-0.6,22.6,4,30.3,10.2C110.8,55.5,111.7,57,112,57.1z"/>
	</g>
</g>
</svg>
