<svg id="Layer_1" data-name="Layer 1" xmlns="http://www.w3.org/2000/svg" viewBox="0 0 142.83 144.06"><defs><style>.cls-1{fill:#b8987f;stroke:#000;stroke-miterlimit:10;stroke-width:4px;}.cls-2{fill:#aea89d;}</style></defs><title>botaoSeleçãoNovo</title><path class="cls-1" d="M130,200c0-15.34-.07-30.68,0-46a23.28,23.28,0,0,1,8.67-18.66c3.86-3.17,8.21-5.23,13.28-5.24,31.42-.06,62.85-.2,94.27,0,12.06.07,22.29,10.69,22.37,23.19.2,31.17.35,62.36-.11,93.53-.17,11.91-8.55,21.79-23.46,23.11-1.11.1-2.24.12-3.36.12-28.68,0-57.37.06-86.05-.08-9.85-.05-18.1-3.66-22.73-12.89a23.83,23.83,0,0,1-2.63-9.93c-.28-15.71-.12-31.42-.12-47.14Zm58.86,46.57h0c7.1,0,14.22-.28,21.31.07a39.71,39.71,0,0,0,24.13-6.39c10.79-7,18.3-16,18.22-29.71,0-5.86-.1-11.72.05-17.58.2-7.41-3.12-13.34-8.15-18.2a43.73,43.73,0,0,0-30.61-12.69q-12.7-.18-25.43,0c-2.95,0-4.06-1.09-3.93-4a77.71,77.71,0,0,0,0-8.22c-.07-1.15-.41-2.8-1.18-3.23s-2.43.18-3.28.85q-15.49,12.33-30.85,24.84c-1.79,1.46-2,3,0,4.56,10.49,8,21,16.08,31.44,24.08,2.36,1.79,3.63,1.23,3.84-1.71.18-2.73.07-5.48.12-8.22,0-2.33.87-3.71,3.55-3.67,8.48.11,17-.19,25.42.2,5.35.25,10.64,1.91,12.89,7.43a21.65,21.65,0,0,1-.09,17.08c-2.46,5.55-7.48,8.16-13.61,8.18-17.33.05-34.66.09-52,0-3.19,0-4.48,1-4.37,4.33.2,5.73,0,11.47.06,17.2,0,4.55.67,5.25,5.15,5.26C170.67,247.14,179.77,246.55,188.87,246.55Z" transform="translate(-127.98 -127.97)"/><path d="M188.87,246.55c-9.1,0-18.2.59-27.29.56-4.48,0-5.14-.71-5.15-5.26,0-5.73.14-11.47-.06-17.2-.11-3.3,1.18-4.35,4.37-4.33,17.32.08,34.65,0,52,0,6.13,0,11.15-2.63,13.61-8.18a21.65,21.65,0,0,0,.09-17.08c-2.25-5.52-7.54-7.18-12.89-7.43-8.45-.39-16.94-.09-25.42-.2-2.68,0-3.52,1.34-3.55,3.67-.05,2.74.06,5.49-.12,8.22-.21,2.94-1.48,3.5-3.84,1.71-10.49-8-20.95-16.07-31.44-24.08-2.07-1.57-1.82-3.1,0-4.56q15.39-12.47,30.85-24.84c.85-.67,2.55-1.25,3.28-.85s1.11,2.08,1.18,3.23a77.71,77.71,0,0,1,0,8.22c-.13,2.86,1,4,3.93,4q12.72-.21,25.43,0a43.73,43.73,0,0,1,30.61,12.69c5,4.86,8.35,10.79,8.15,18.2-.15,5.86-.08,11.72-.05,17.58.08,13.68-7.43,22.75-18.22,29.71a39.71,39.71,0,0,1-24.13,6.39c-7.09-.35-14.21-.07-21.31-.07ZM180.6,195.4c0-3.13.06-5.43,0-7.71-.09-2.83,1.19-4.07,4-4.05,9.6.07,19.22-.45,28.78.14,17.83,1.1,21.14,14.94,16.76,28.9-2.5,7.95-9.44,11.46-17.93,11.43-16-.05-31.92.07-47.87-.07-3.33,0-4.45,1.11-4.24,4.33s0,6.48,0,9.72c0,4.67.2,4.89,4.82,4.86,15.71-.09,31.42-.45,47.12-.21a36.09,36.09,0,0,0,21.41-6.51c8.94-6.08,15.23-13.93,15.17-25.48,0-5.48.48-11,0-16.44-.36-4-1.11-8.34-3.14-11.64-6.7-10.92-17.35-15.81-29.73-16.54-9.93-.59-19.93-.15-29.91-.15-5.3,0-5.3,0-5.31-5.45v-7.81c-2.13,1.33-3.11,1.81-3.95,2.47-7,5.57-14,11.23-21.09,16.71-2.74,2.11-2.28,3.5.22,5.36,7.2,5.35,14.27,10.86,21.41,16.28A33.34,33.34,0,0,0,180.6,195.4Z" transform="translate(-127.98 -127.97)"/><path class="cls-2" d="M180.6,195.4a33.34,33.34,0,0,1-3.41-1.86c-7.14-5.42-14.21-10.93-21.41-16.28-2.5-1.86-3-3.25-.22-5.36,7.1-5.48,14.06-11.14,21.09-16.71.84-.66,1.82-1.14,3.95-2.47v7.81c0,5.46,0,5.44,5.31,5.45,10,0,20-.44,29.91.15,12.38.73,23,5.62,29.73,16.54,2,3.3,2.78,7.67,3.14,11.64.48,5.44,0,11,0,16.44.06,11.55-6.23,19.4-15.17,25.48a36.09,36.09,0,0,1-21.41,6.51c-15.7-.24-31.41.12-47.12.21-4.62,0-4.81-.19-4.82-4.86,0-3.24.17-6.49,0-9.72S161,224,164.37,224c15.95.14,31.91,0,47.87.07,8.49,0,15.43-3.48,17.93-11.43,4.38-14,1.07-27.8-16.76-28.9-9.56-.59-19.18-.07-28.78-.14-2.85,0-4.13,1.22-4,4.05C180.66,190,180.6,192.27,180.6,195.4Z" transform="translate(-127.98 -127.97)"/></svg>