<?xml version="1.0" encoding="utf-8"?>
<!-- Generator: Adobe Illustrator 22.0.0, SVG Export Plug-In . SVG Version: 6.00 Build 0)  -->
<svg version="1.1" id="Layer_1" xmlns="http://www.w3.org/2000/svg" xmlns:xlink="http://www.w3.org/1999/xlink" x="0px" y="0px"
	 viewBox="0 0 245.6 171" style="enable-background:new 0 0 245.6 171;" xml:space="preserve">
<style type="text/css">
	.st0{fill:none;stroke:#B3B3B3;stroke-width:6;stroke-miterlimit:10;}
	.st1{fill:#806058;stroke:#A59EB2;stroke-width:30;stroke-miterlimit:10;}
	.st2{fill:#8A725F;}
	.st3{fill:none;stroke:#000000;stroke-width:2;stroke-miterlimit:10;}
	.st4{fill:none;}
	.st5{fill:#666666;}
</style>
<title>contadorMoldura</title>
<g id="Layer_1_1_">
	<ellipse class="st0" cx="34.8" cy="20.7" rx="7.8" ry="17.7"/>
	<path class="st0" d="M34.8,25.1c4.3,0,7.8,7.9,7.8,17.7s-3.5,21.7-7.8,21.7S27,52.5,27,42.7S30.5,25.1,34.8,25.1z"/>
	<path class="st0" d="M34.8,46.5c4.3,0,7.8,11.9,7.8,21.7s-3.5,17.7-7.8,17.7S27,77.9,27,68.2S30.5,46.5,34.8,46.5z"/>
	<ellipse class="st0" cx="217.3" cy="20.7" rx="7.8" ry="17.7"/>
	<ellipse class="st0" cx="217.3" cy="42.7" rx="7.8" ry="17.7"/>
	<ellipse class="st0" cx="217.3" cy="64.1" rx="7.8" ry="17.7"/>
	<rect x="15" y="68.2" class="st1" width="215.6" height="87.9"/>
	<rect x="19.4" y="72.1" class="st2" width="206.8" height="80.2"/>
	<path class="st3" d="M217.7,142.9"/>
	<path class="st3" d="M147.9,142.9"/>
	<path class="st3" d="M85.3,81.1"/>
	<path class="st3" d="M27,81.1"/>
	<rect x="217.3" y="117.1" class="st4" width="1.5" height="6.2"/>
	<circle class="st5" cx="12" cy="66.5" r="4.6"/>
	<circle class="st5" cx="12" cy="158.3" r="4.6"/>
	<circle class="st5" cx="232.5" cy="66.3" r="4.6"/>
	<circle class="st5" cx="232.5" cy="158" r="4.6"/>
</g>
</svg>
