<svg id="Layer_1" data-name="Layer 1" xmlns="http://www.w3.org/2000/svg" viewBox="0 0 725.35 689.97"><defs><style>.cls-1{fill:#a59eb2;}.cls-2{fill:#f1dbc9;}</style></defs><title>molduraFalaGuia</title><path class="cls-1" d="M137,720.69c-1.64,3.63-.58,8.93.48,11.9.68,2,1.16,4.3,3.28,6.4,1.84,1.76,3.67,2.09,6.08,3.42,1.64.88,5.51,1.65,7.44,2.09,1.64.33,5.11.66,6.65.22,2.42-.77,6.28-3.75,7.34-5.51s1.25-6.4.29-8.38c-.48-.88-5.21-3.2-6.47-3.31-2-.11-5.11.33-3.95,2.1.38.55,2.6,2.53,2.51,3.3-.2,1.11-3,1.11-4,.78-1.16-.33-3.28-2.32-3.48-3.53-.29-1.55,1.26-5,2.51-5.85,1.84-1.43,6.76-1.21,8.88-.66s7.43,2,7.43,2l5.89.44,6-.11s376,3.75,511.62-1.55l9.84-.66s9.37-1,12-1.43,8-.22,10,1.21c1.35,1,2.89,4.3,2.51,5.85-.29,1.21-2.13,4.19-3.48,4.41-1.15.22-4.92-.11-5-1.11-.09-.77,2.32-1.76,2.8-2.42,1.26-1.66-1.83-2.87-4-2.87-1.45,0-7.14.77-7.72,1.66-1.35,1.87-1.35,6.28-.29,8.15s5.21,5,7.91,5.85c1.74.55,7.44,2.2,9.27,2a34.75,34.75,0,0,0,7.72-1.54c2.8-1.21,6.66-4.52,8.69-6.29a29.33,29.33,0,0,0,5.21-6.61,16.38,16.38,0,0,0,1.35-10.26,61.12,61.12,0,0,1-2.8-14.88l-.29-3.53c-.19-134,1.06-544.47,1.06-544.47s-1.54-40.35,2.8-56l2.8-11.91c1.06-4.63,1.83-10.81.68-14.44a33.78,33.78,0,0,0-4.64-8.27c-1.93-2.32-5.21-6.29-7.91-7.94a34.11,34.11,0,0,0-8.2-3.31c-1.84-.33-5.8-.77-7.63-.22-2.7.88-7.14,4.52-8.3,6.61-1.25,2.32-2.41,8.05-1.25,10.37.57,1.1,6.08,5.07,7.52,5.18,2.22.22,5.41-3.42,4.06-5.62-.49-.66-1.74-1.43-1.64-2.43.19-1.32,3.47-1.32,4.53-1,1.26.44,3.67,2.76,4,4.3.29,1.87-1.45,5.95-2.9,7.06-2.12,1.65-5.69,4.52-8.2,4.19-3.38-.33-10.52-.33-10.52-.33L699,84.26,159.08,82.49h-5.21c-2.12.44-8.11-1.87-9.85-3.3-1.15-.89-2.5-4.19-2.12-5.74.29-1.21,2.51-2.86,3.67-3.2,1-.22,3.76-.11,3.86,1,.1.77-1.06,3.19-1.45,3.75-1.16,1.65,2.41,2.75,4.44,2.75,1.26,0,4.25-3.2,4.73-4,1.16-1.76,1.16-6.06.29-7.94s-4.54-4.85-6.85-5.62c-1.55-.55-4.92-.44-6.57-.22a33.44,33.44,0,0,0-7.33,2.32c-2.51,1.1-5.5,4.19-7.34,5.95-1.44,1.43-2.6,5-3.37,6.73-1.16,2.75.58,8.82,2.51,12.57.48,1.1,12.06,12.12,12.64,21.28l-1,140.8.58,159.44-.19,114.67L139.2,682.87l-.29,27.23S137.66,719.25,137,720.69Z" transform="translate(-31.72 -55.11)"/><path class="cls-1" d="M745.41,86.61H145.12A2.12,2.12,0,0,0,143,88.67c0,.63,0,1.26,0,1.88q0,100.17.08,200.34a6.41,6.41,0,0,1-3.28,6.05q-53.61,36.54-107.1,73.24a2.15,2.15,0,0,0,.2,3.66h0Q86.42,402.5,140,431.11c.58.31,1.14.67,1.74.93A1.89,1.89,0,0,1,143,434.1c-.06.88,0,1.76,0,2.64V721.43c0,.63,0,1.25,0,1.88a2.13,2.13,0,0,0,2.13,2.07H745.41a2.14,2.14,0,0,0,2.14-2.14V88.74A2.13,2.13,0,0,0,745.41,86.61Z" transform="translate(-31.72 -55.11)"/><path class="cls-2" d="M736.24,94.61H154.76a2.07,2.07,0,0,0-2.07,2c0,.6,0,1.21,0,1.82q0,97,.08,194.06a6.21,6.21,0,0,1-3.17,5.86Q97.63,333.75,45.81,369.3l0,0a2.06,2.06,0,0,0,.18,3.51l.06,0,103.74,55.47c.56.3,1.1.64,1.68.9a1.82,1.82,0,0,1,1.21,2c-.06.85,0,1.71,0,2.56V709.55c0,.6,0,1.21,0,1.82a2.07,2.07,0,0,0,2.07,2H736.24a2.07,2.07,0,0,0,2.07-2.07V96.68A2.07,2.07,0,0,0,736.24,94.61Z" transform="translate(-31.72 -55.11)"/></svg>