<svg id="Layer_4" data-name="Layer 4" xmlns="http://www.w3.org/2000/svg" viewBox="0 0 258.98 174.59"><defs><style>.cls-1,.cls-4,.cls-5{fill:none;}.cls-1{stroke:#b3b3b3;stroke-width:6px;}.cls-1,.cls-2,.cls-4{stroke-miterlimit:10;}.cls-2{fill:#806058;stroke:#a59eb2;stroke-width:30px;}.cls-3{fill:#8a725f;}.cls-4{stroke:#000;stroke-width:2px;}.cls-6{fill:#666;}.cls-7{fill:#d8d5d3;}</style></defs><title>botãoSeleção</title><ellipse class="cls-1" cx="32.58" cy="26.07" rx="8.26" ry="18.77"/><ellipse class="cls-1" cx="32.58" cy="49.42" rx="8.26" ry="18.77"/><ellipse class="cls-1" cx="32.58" cy="72.21" rx="8.26" ry="18.77"/><ellipse class="cls-1" cx="226.39" cy="21.77" rx="8.26" ry="18.77"/><ellipse class="cls-1" cx="226.39" cy="45.12" rx="8.26" ry="18.77"/><ellipse class="cls-1" cx="226.39" cy="67.91" rx="8.26" ry="18.77"/><rect class="cls-2" x="15" y="66.29" width="228.98" height="93.3"/><rect class="cls-3" x="19.67" y="70.4" width="219.55" height="85.16"/><path class="cls-4" d="M980,494.17" transform="translate(-749.78 -348.6)"/><path class="cls-4" d="M905.85,494.17" transform="translate(-749.78 -348.6)"/><path class="cls-4" d="M839.46,428.59" transform="translate(-749.78 -348.6)"/><path class="cls-4" d="M777.51,428.59" transform="translate(-749.78 -348.6)"/><rect class="cls-5" x="229.8" y="118.26" width="1.61" height="6.53"/><circle class="cls-6" cx="11.86" cy="64.52" r="4.83"/><circle class="cls-6" cx="11.86" cy="161.92" r="4.83"/><circle class="cls-6" cx="245.99" cy="64.27" r="4.83"/><circle class="cls-6" cx="245.99" cy="161.68" r="4.83"/><polygon class="cls-7" points="35.6 113.46 71.73 84.45 71.73 98.95 191.08 98.95 191.08 84.45 222.24 113.42 192.85 142.11 191.08 123.83 71.37 120.96 71.02 142.11 35.6 113.46"/></svg>