<?xml version="1.0" encoding="utf-8"?>
<!-- Generator: Adobe Illustrator 22.0.0, SVG Export Plug-In . SVG Version: 6.00 Build 0)  -->
<svg version="1.1" id="Layer_1" xmlns="http://www.w3.org/2000/svg" xmlns:xlink="http://www.w3.org/1999/xlink" x="0px" y="0px"
	 viewBox="0 0 934 317" style="enable-background:new 0 0 934 317;" xml:space="preserve">
<style type="text/css">
	.st0{fill:#A9A5A5;}
	.st1{fill:#0D0C0B;}
	.st2{fill:#96755D;}
	.st3{fill:#100F0E;}
	.st4{fill:#090706;}
	.st5{fill:#030202;}
	.st6{fill:#060504;}
	.st7{fill:#16110E;}
	.st8{fill:#FDFDFD;}
	.st9{fill:#0E0E0E;}
	.st10{fill:#070707;}
	.st11{fill:#090909;}
	.st12{fill:#D1D1D1;}
	.st13{fill:#F2F2F2;}
	.st14{fill:#F8F8F8;}
</style>
<g>
	<path class="st0" d="M835.4,22.2c2.6-3.5,6.2-5.7,10-7.6c11-5.5,22.7-7,34.8-6.1c7.3,0.5,14.4,2,21.1,5.1c3.5,1.6,6.8,3.6,9.3,6.6
		c3.1,3.7,4.1,7.8,2.3,12.3c-4.3,11.1-12.2,18.8-23.1,23.3c-2.1,0.9-2.8,1.9-2.7,4.1c0.1,71.2,0.1,142.3,0,213.5
		c0,2.1,0.5,3.4,2.4,4.4c1.8,1,3.3,2.5,4.5,4.2c1.7,2.5,1.5,5-0.5,7.2c-1.5,1.7-3.4,3-5.5,3.8c-12.1,4.4-24.4,5.8-36.9,2.2
		c-0.7-0.2-1.4-0.5-2-0.7c-0.1-0.1-0.2-0.2-0.4-0.4c5.2-0.9,10.2-2,14.7-4.7c1.6-1,3.1-2,4.2-3.5c2.1-2.8,1.7-5.4-1.4-7.3
		c-3.3-2-7.1-2.5-10.8-2.8c-3-0.2-6.1-0.3-9.1-0.3c-27.5,0-55.1,0-82.6,0c-65-0.1-130-0.1-195-0.2c-32.9,0-65.8-0.1-98.7-0.1
		c-61.4,0-122.8,0-184.2,0c-63.1,0-126.2-0.1-189.3-0.1c-8.1,0-16.2-0.5-24.2,0.6c-2.5,0.3-5,1-7.3,2.3c-3.1,1.9-3.6,4.6-1.4,7.4
		c2.2,2.8,5.3,4.3,8.5,5.6c3.3,1.3,6.7,2,10.6,2.6c-3.1,1.7-6.2,2.2-9.3,2.6c-10.1,1.5-19.9,0.1-29.5-3.3c-2.4-0.9-4.6-2.2-6.3-4.2
		c-2-2.3-2.1-4.7-0.4-7.2c1.3-2,3.1-3.5,5.1-4.6c1.4-0.8,1.7-1.8,1.7-3.3c-0.1-8.4,0-16.8,0-25.2c0-62.9,0-125.9,0-188.8
		c0-2.1-0.6-3-2.6-3.8C31.2,51.7,23.6,44.5,19,34.5c-3-6.5-1.8-11.6,3.6-16.3c5.9-5.1,13.1-7.3,20.5-8.6C56.4,7.1,69.5,7.8,82.2,13
		c5.1,2.1,9.9,4.7,13.4,9.2l0.1,0c-3.5-0.1-6.9-1.2-10.3-1.6c-8.2-1-16.4-1.6-24.5,0.7c-2.1,0.6-4.1,1.4-5.9,2.7
		c-4.4,3.1-5.4,7.6-2.6,12.1c2.8,4.6,7.1,7.5,11.7,10.1c10.4,5.8,21.7,8.9,33.1,11.6c0.8,0.2,1.6,0.1,2.4,0.1
		c243.9,0,487.8,0,731.7,0c5.3,0,10.2-1.9,15.1-3.4c9-2.7,17.7-5.9,25.4-11.5c2.3-1.7,4.5-3.6,6.1-6c3.7-5.5,2.4-10.7-3.5-13.8
		c-3.8-2.1-7.9-2.9-12.2-3.2c-8.3-0.6-16.4,0.3-24.5,2.2C837.1,22.1,836.3,22.5,835.4,22.2L835.4,22.2z M465.5,257.5
		c127.3,0,254.6,0,381.9,0.1c2.3,0,2.9-0.5,2.9-2.9c-0.1-59.1-0.1-118.2,0-177.2c0-2.4-0.7-2.8-3-2.8c-254.5,0.1-509,0.1-763.5,0
		c-2.4,0-3,0.5-3,3c0.1,58.8,0.1,117.7,0.1,176.5c0,3.9-0.5,3.4,3.2,3.4C211.3,257.5,338.4,257.5,465.5,257.5z"/>
	<path class="st0" d="M95.7,22.2c0.1,0.1,0.2,0.1,0.3,0.2c-0.1,0-0.2,0.1-0.3,0.1C95.7,22.3,95.7,22.2,95.7,22.2
		C95.7,22.1,95.7,22.2,95.7,22.2z"/>
	<path class="st0" d="M835.4,22.1c0,0.1,0,0.2,0,0.3c-0.1,0-0.2-0.1-0.3-0.1C835.2,22.3,835.3,22.2,835.4,22.1
		C835.4,22.2,835.4,22.1,835.4,22.1z"/>
	<path class="st1" d="M465.5,257.5c-127.1,0-254.2,0-381.4,0c-3.7,0-3.2,0.5-3.2-3.4c0-58.8,0-117.7-0.1-176.5c0-2.5,0.6-3,3-3
		c254.5,0.1,509,0.1,763.5,0c2.2,0,3,0.4,3,2.8c-0.1,59.1-0.1,118.2,0,177.2c0,2.4-0.6,2.9-2.9,2.9
		C720.1,257.5,592.8,257.5,465.5,257.5z M465.6,254.6c126.2,0,252.3,0,378.5,0c3.1,0,3.1,0,3.1-3.1c0-56.8,0-113.7,0-170.5
		c0-3.2,0-3.2-3.2-3.2c-252.3,0-504.5,0-756.8,0c-3.2,0-3.2,0-3.2,3.3c0,56.8,0,113.7,0,170.5c0,0.5,0,1,0,1.4
		c-0.1,1.3,0.5,1.7,1.7,1.6c0.7-0.1,1.4,0,2.2,0C213.7,254.6,339.6,254.6,465.6,254.6z"/>
	<path class="st2" d="M465.6,254.6c-125.9,0-251.9,0-377.8,0c-0.7,0-1.4,0-2.2,0c-1.2,0.1-1.8-0.4-1.7-1.6c0-0.5,0-1,0-1.4
		c0-56.8,0-113.7,0-170.5c0-3.3,0-3.3,3.2-3.3c252.3,0,504.5,0,756.8,0c3.2,0,3.2,0,3.2,3.2c0,56.8,0,113.7,0,170.5
		c0,3.1,0,3.1-3.1,3.1C717.9,254.6,591.7,254.6,465.6,254.6z M465.7,105.2c-116.6,0-233.1,0-349.7,0c-3.4,0-3-0.4-3,3.1
		c0,38.7,0,77.5-0.1,116.2c0,2.1,0.5,2.7,2.7,2.7c233.3,0,466.6-0.1,699.9,0c2.3,0,2.7-0.7,2.7-2.8c-0.1-38.7,0-77.3-0.1-116
		c0-3.6,0.4-3.2-3.2-3.2C698.5,105.2,582.1,105.2,465.7,105.2z M465.6,97c20.3,0,40.7,0,61,0c0.6,0,1.3,0,1.9,0
		c1.2,0,1.2-0.8,1.2-1.6c0-0.8-0.2-1.4-1.2-1.4c-0.6,0-1.1,0-1.7,0c-40.9,0-81.8,0-122.7,0c-0.5,0-1,0-1.4,0c-1.1,0-1.4,0.5-1.4,1.5
		c0,0.9,0.1,1.6,1.3,1.6c0.6,0,1.3,0,1.9,0C424.9,97,445.2,97,465.6,97z M529.7,245.1c19,0,37.9,0,56.9,0c1.9,0,3.8,0,5.8,0
		c1,0,1.4-0.3,1.4-1.4c0-1.1-0.3-1.7-1.5-1.5c-0.4,0-0.8,0-1.2,0c-41,0-82,0-123,0c-0.4,0-0.8,0-1.2,0c-1.3-0.1-1.4,0.6-1.4,1.6
		c0,2,1.5,1.3,2.4,1.3C488.5,245.1,509.1,245.1,529.7,245.1z M835,208.5c0-10.7,0-21.5,0-32.2c0-1,0.2-2.1-1.5-2.1
		c-1.7,0-1.4,1.1-1.4,2.1c0,21.2,0,42.4,0,63.6c0,1-0.4,2.1,1.4,2.2c1.9,0.1,1.5-1.2,1.5-2.2C835,229.5,835,219,835,208.5z
		 M96.3,117c0,6.9,0,13.7,0,20.6c0,1.1-0.4,2.3,1.5,2.3c1.8,0,1.6-1,1.6-2.2c0-13.8,0-27.6,0-41.5c0-1.1,0.3-2.3-1.5-2.3
		c-2,0-1.6,1.3-1.6,2.5C96.3,103.2,96.3,110.1,96.3,117z M99.4,197.1c0-7,0-13.9,0-20.9c0-1.1,0.1-2.1-1.5-2.1c-1.7,0-1.7,1-1.7,2.2
		c0,13.8,0,27.7,0,41.5c0,1.1-0.2,2.2,1.6,2.2c1.9,0,1.5-1.2,1.5-2.3C99.4,210.9,99.4,204,99.4,197.1z M832.1,116.8
		c0,7,0,14.1,0,21.1c0,0.9-0.2,1.9,1.3,2c1.6,0,1.6-0.9,1.6-2c0-13.9,0-27.8,0-41.7c0-1,0.2-2.1-1.5-2.1c-1.7,0-1.4,1.1-1.4,2.1
		C832.1,103,832.1,109.9,832.1,116.8z"/>
	<path class="st3" d="M465.7,105.2c116.4,0,232.8,0,349.2,0c3.6,0,3.2-0.4,3.2,3.2c0,38.7,0,77.3,0.1,116c0,2.1-0.5,2.8-2.7,2.8
		c-233.3-0.1-466.6-0.1-699.9,0c-2.1,0-2.7-0.5-2.7-2.7c0.1-38.7,0-77.5,0.1-116.2c0-3.5-0.4-3.1,3-3.1
		C232.6,105.2,349.1,105.2,465.7,105.2z M465.6,224.1c115.6,0,231.2,0,346.8,0.1c2.2,0,2.9-0.4,2.9-2.8c-0.1-36.8-0.1-73.6,0-110.5
		c0-2.3-0.6-2.8-2.9-2.8c-231.3,0.1-462.5,0.1-693.8,0c-2.4,0-2.8,0.7-2.8,2.9c0.1,36.7,0.1,73.5,0,110.2c0,2.4,0.6,3,3,3
		C234.4,224.1,350,224.1,465.6,224.1z"/>
	<path class="st4" d="M465.6,97c-20.3,0-40.7,0-61,0c-0.6,0-1.3,0-1.9,0c-1.1,0-1.3-0.7-1.3-1.6c0-1,0.3-1.5,1.4-1.5
		c0.5,0,1,0,1.4,0c40.9,0,81.8,0,122.7,0c0.6,0,1.1,0,1.7,0c1,0,1.2,0.6,1.2,1.4c0,0.9-0.1,1.6-1.2,1.6c-0.6,0-1.3,0-1.9,0
		C506.2,97,485.9,97,465.6,97z"/>
	<path class="st5" d="M529.7,245.1c-20.6,0-41.1,0-61.7,0c-0.9,0-2.4,0.8-2.4-1.3c0-1,0.2-1.7,1.4-1.6c0.4,0,0.8,0,1.2,0
		c41,0,82,0,123,0c0.4,0,0.8,0,1.2,0c1.2-0.1,1.5,0.4,1.5,1.5c0,1.1-0.5,1.4-1.4,1.4c-1.9,0-3.8,0-5.8,0
		C567.6,245.1,548.7,245.1,529.7,245.1z"/>
	<path class="st6" d="M835,208.5c0,10.5,0,21,0,31.5c0,1.1,0.4,2.3-1.5,2.2c-1.8-0.1-1.4-1.2-1.4-2.2c0-21.2,0-42.4,0-63.6
		c0-1-0.3-2.1,1.4-2.1c1.7,0,1.5,1,1.5,2.1C835,187.1,835,197.8,835,208.5z"/>
	<path class="st7" d="M96.3,117c0-6.9,0-13.7,0-20.6c0-1.2-0.3-2.5,1.6-2.5c1.8,0,1.5,1.3,1.5,2.3c0,13.8,0,27.6,0,41.5
		c0,1.2,0.1,2.2-1.6,2.2c-1.9,0-1.5-1.2-1.5-2.3C96.3,130.7,96.3,123.8,96.3,117z"/>
	<path class="st7" d="M99.4,197.1c0,6.9,0,13.8,0,20.6c0,1.1,0.3,2.3-1.5,2.3c-1.8,0-1.6-1.1-1.6-2.2c0-13.8,0-27.7,0-41.5
		c0-1.2-0.1-2.3,1.7-2.2c1.6,0,1.5,1.1,1.5,2.1C99.4,183.2,99.4,190.2,99.4,197.1z"/>
	<path class="st6" d="M832.1,116.8c0-6.9,0-13.7,0-20.6c0-1-0.3-2.1,1.4-2.1c1.7,0,1.5,1.1,1.5,2.1c0,13.9,0,27.8,0,41.7
		c0,1.1,0,2-1.6,2c-1.5,0-1.3-1-1.3-2C832.1,130.8,832.1,123.8,832.1,116.8z"/>
	<path class="st8" d="M465.6,224.1c-115.6,0-231.2,0-346.8,0.1c-2.4,0-3-0.6-3-3c0.1-36.7,0.1-73.5,0-110.2c0-2.2,0.3-2.9,2.8-2.9
		c231.3,0.1,462.5,0.1,693.8,0c2.3,0,2.9,0.5,2.9,2.8c-0.1,36.8-0.1,73.6,0,110.5c0,2.4-0.6,2.8-2.9,2.8
		C696.8,224.1,581.2,224.1,465.6,224.1z M464.1,164.3c-109.2,0-218.4,0-327.6,0c-2,0-2.5,0.5-2.5,2.5c0.1,14.4,0.1,28.8,0,43.2
		c0,2,0.5,2.5,2.5,2.4c26.2-0.1,52.4,0,78.5,0c192.1,0,384.3,0,576.4,0.1c2.2,0,2.7-0.5,2.7-2.7c-0.1-14.2-0.1-28.3,0-42.5
		c0-2.4-0.6-2.9-3-2.9C682.2,164.4,573.1,164.3,464.1,164.3z M576.6,142.1c0,2.6,0,4.9,0,7.1c0,0.5-0.3,1.4,0.6,1.1
		c1.3-0.5,3-0.6,2.8-2.9c-0.2-2.4,0-4.8-0.1-7.2c0-1.1,0.2-1.6,1.4-1.6c3.2,0.1,6.4,0,9.6,0c0.9,0,1.2,0.3,1.1,1.3
		c-0.4,3.2-1.7,5.9-4.5,7.5c-1.2,0.7-0.6,1.3-0.3,2.1c0.4,1.1,1.1,1,1.9,0.5c1.1-0.6,2.1-1.4,3-2.4c3.9-4.6,4.7-13.5,1.7-18.8
		c-1.8-3-4.2-5-7.9-4.9c-3.8,0.1-6.2,2.3-7.8,5.4c-0.7,1.3-1,2.7-1.3,4.1C576.5,136.6,576.7,139.5,576.6,142.1z M443.6,142.5
		c0,2.2,0,4.5,0,6.7c0,0.4-0.3,1.5,0.6,1.1c1.2-0.4,2.9-0.4,2.8-2.6c-0.2-2.5,0-5-0.1-7.4c0-1.3,0.4-1.7,1.7-1.6
		c3,0.1,6.1,0.1,9.1,0c1.4,0,1.5,0.5,1.3,1.7c-0.4,2.9-1.7,5.4-4.2,6.9c-1.4,0.8-0.9,1.6-0.4,2.5c0.7,1.3,1.5,0.5,2.2,0.1
		c0.9-0.6,1.7-1.2,2.4-2c4.2-4.8,4.9-14.2,1.4-19.5c-3.8-5.9-11.3-5.8-14.9,0.3c-0.9,1.6-1.5,3.3-1.7,5.2
		C443.5,136.7,443.6,139.6,443.6,142.5z M626,150.5c2.3-0.6,3.7-1.6,3.3-4.2c-0.3-2,0-4-0.1-6c0-1.2,0.2-1.7,1.6-1.7
		c3,0.1,6.1,0.1,9.1,0c1.4,0,1.6,0.5,1.4,1.7c-0.5,2.9-1.6,5.4-4.2,7c-1.3,0.8-1.1,1.4-0.5,2.4c0.7,1.3,1.4,0.6,2.1,0.2
		c1.4-0.7,2.5-1.8,3.3-3c3.6-5.6,3.7-11.5,1.2-17.3c-2.1-4.8-6.7-6.7-11-4.8c-4.1,1.7-5.9,5.3-6.2,9.5
		C625.8,139.6,626,144.9,626,150.5z M528,150.4c2.7-0.5,3.7-1.9,3.3-4.4c-0.2-1.1-0.1-2.2,0-3.4c0-0.4,0.1-0.9,0.3-1.1
		c0.8-0.7,5.5,0.1,6.2,1c1.6,2.3,3.3,4.5,4.8,6.9c1,1.7,2,0.7,3,0.2c1.6-0.7,0.3-1.4-0.1-2c-1-1.6-2.1-3.2-3.3-4.7
		c-1.2-1.4-1.3-2.2,0.5-3.4c3.5-2.4,4.3-7.1,2.3-10.9c-2-3.8-6.1-5.6-10.2-4.1c-4.5,1.6-6.4,5.4-6.6,9.7
		C527.7,139.6,528,144.9,528,150.4z M601.2,140.5c0,1.8,0,3.5,0,5.3c0,3.1,1.1,4.1,4.2,4.2c1.7,0,3.4,0,5,0c3.3,0,5.7-1.4,7.3-4.1
		c2.9-4.7,3-9.7,1.5-14.8c-1.4-4.4-4.8-7-8.7-7c-3.9,0-7.3,2.9-8.7,7.4C601.1,134.4,601.3,137.4,601.2,140.5z M503.3,137
		c-0.1,3.3,0.4,6.5,2.3,9.3c3.6,5.1,10.1,5.3,13.9,0.4c3.8-4.9,3.6-14.8-0.4-19.6c-3.3-3.9-8.8-4.2-12.4-0.5
		C504,129.5,503.3,133.1,503.3,137z M552.1,142.6c0,2.2,0,4.5,0,6.7c0,0.9,0.1,1.4,1.2,0.9c1.4-0.6,2.4-1.2,2.2-3.1
		c-0.2-3.3-0.1-6.7,0-10.1c0-2.5,0.3-5,1.6-7.2c2.3-3.8,6.5-3.9,8.9-0.2c3.4,5.1,2.1,14-2.8,17.8c-1.2,0.9-0.6,1.5-0.2,2.3
		c0.6,1.2,1.3,0.6,1.9,0.2c1.8-0.9,3.2-2.4,4.2-4.2c2.8-5.5,2.9-11.2,0.2-16.8c-1.1-2.2-2.8-3.9-5.3-4.6c-5.4-1.5-10.4,2.2-11.5,8.6
		C551.9,136.2,552.1,139.4,552.1,142.6z M296.9,150.4c3.4-0.9,3.4-0.9,3.4-3.9c0-3.4,0-6.7,0-10.1c0-1.6,0.2-3.2,0.7-4.7
		c1-3,3.2-4.9,5.6-4.8c2.3,0.1,4.4,2,5.2,4.9c0.8,2.6,0.7,5.4,0.5,8.1c-0.2,3.1-1.6,5.7-4.2,7.4c-1.2,0.7-1,1.3-0.5,2.2
		c0.6,1.1,1.2,1,2.1,0.5c1.2-0.7,2.2-1.5,3.1-2.6c3.5-4.4,4.3-13.3,1.5-18.2c-1.2-2.2-2.9-4-5.4-4.8c-5.2-1.5-10.3,1.9-11.4,8
		C296.3,138.4,297.2,144.4,296.9,150.4z M437.3,124c-3.4,0.9-3.4,0.9-3.4,3.9c0,3.4,0,6.7,0,10.1c0,1.8-0.2,3.5-0.9,5.2
		c-1,2.4-2.5,4.2-5.2,4.3c-2.2,0.1-4.3-1.8-5.3-4.5c-0.9-2.6-0.8-5.3-0.7-8.1c0.2-3.3,1.5-6.1,4.3-7.8c1.3-0.8,0.7-1.4,0.4-2.3
		c-0.5-1-1.1-0.9-1.9-0.4c-1.1,0.6-2.1,1.4-3,2.4c-4,4.8-4.6,14.2-1.1,19.4c2.8,4.3,8.3,5.6,12.1,2.7c2.3-1.8,3.8-4.2,4.2-7
		C437.8,135.9,436.9,129.9,437.3,124z M378.6,124.2c-9.9-1.5-13.3,4.3-13.7,11.2c-0.2,3.7-0.1,7.3-0.1,11c0,2.2,1.3,3.4,3.5,3.4
		c2.7,0.1,5.4,0.1,8.1,0c1.8-0.1,3.2-0.9,4.1-2.5c0.3-0.5,0.6-1.3-0.4-1.5c-0.7-0.1-1.3-1.5-2.1-0.1c-0.8,1.4-2.1,1.3-3.4,1.3
		c-6.7,0-6.7,0-6.5-6.7c0-1.2,0.4-1.7,1.6-1.7c1.9,0.1,3.8,0,5.8,0c1.6,0,1.9-1.4,1.9-2.3c0.1-1.1-1.2-0.6-1.8-0.6c-2-0.1-4,0-6,0
		c-0.8,0-1.3-0.1-1.3-1.1c-0.1-4.3,2.9-7.7,7-7.6C377.4,127,378.4,126.3,378.6,124.2z M405.1,150.3c4,0,7.9-3.2,8.5-7.1
		c0.6-4.1-1.7-7.5-6-8.8c-1.2-0.4-2.5-0.6-3.6-1.1c-1.3-0.5-2-1.5-1.9-3c0.1-1.5,0.9-2.5,2.3-3.1c1.7-0.7,3,0,4,1.3
		c1,1.3,1.7,0,2.5-0.2c0.8-0.2,0.6-0.7,0.2-1.3c-1.1-2-3.9-3.2-6.4-2.9c-2.9,0.4-5.1,2.4-5.8,5c-0.6,2.7,0.3,4.9,2.6,6.4
		c1.6,1.1,3.5,1.4,5.4,2c2,0.7,3.5,2,3.5,4.3c0,2.3-1.4,4.5-3.5,5.2c-2.3,0.8-4.1,0-5.5-1.8c-0.3-0.3-0.4-0.7-0.7-1
		c-1-1.1-1.7,0.1-2.5,0.4c-1,0.3-0.4,1-0.1,1.5C399.7,148.8,402,150.2,405.1,150.3z M349.5,142c-1.7,0.9-3.4,1-4.3,2.4
		c-1.2,1.9-2.7,3.2-5.1,2.9c-2.6-0.3-4-2.2-4.8-4.5c-1.2-3.8-1.2-7.6,0-11.3c0.7-2.1,1.9-3.9,4.3-4.4c2.3-0.5,4.1,0.5,5.2,2.5
		c0.9,1.7,1.9,0.6,2.7,0.2c1.5-0.7,0.2-1.5-0.2-2c-3.5-4.9-10.3-4.9-13.8,0.1c-3.3,4.8-3.2,10.1-1.7,15.4c1.3,4.5,5,7.2,8.9,7
		C345,150.1,348.2,147.1,349.5,142z M484.4,127.3c2.7,0,5.4,0,8,0c0.8,0,1.7-0.1,1.6,1.2c-0.2,4.5,0.5,9.1-0.6,13.6
		c-0.6,2.5-1.9,4.7-4.7,5.2c-2.4,0.5-4.2-0.7-5.3-2.8c-0.9-1.5-1.6-0.2-2.4,0.1c-1,0.3-0.8,0.9-0.3,1.6c1.2,1.8,2.7,3.1,4.8,3.7
		c5,1.4,9.8-1.7,11.2-7.4c1.2-4.7,0.5-9.5,0.6-14.3c0.1-2.6-1-3.6-3.6-3.8c-2-0.1-4,0.1-6-0.1C485.6,124.2,484.7,125,484.4,127.3z
		 M287.2,150.5c2.4-0.5,3.8-1.4,3.5-4c-0.2-2,0-4,0-6c0-5,0-10.1,0-15.1c0-0.5,0.4-1.6-0.7-1.3c-1.2,0.4-2.8,0.5-2.7,2.7
		c0.2,2.9,0,5.7,0,8.6C287.2,140.4,287.2,145.4,287.2,150.5z M355.1,150.4c2.3-0.4,3.5-1.3,3.4-3.9c-0.2-6.7-0.1-13.4-0.1-20.1
		c0-0.8-0.1-1.6-0.1-2.9c-1.2,1.3-3.2,0.8-3.2,2.9C355.1,134.4,355.1,142.3,355.1,150.4z M321.9,150.3c2.9-0.3,3.5-1.8,3.4-4.3
		c-0.2-6.6-0.1-13.2-0.1-19.9c0-0.7-0.1-1.5-0.1-2.7c-1.2,1.3-3.2,0.7-3.2,2.8C321.9,134.4,321.9,142.3,321.9,150.3z"/>
	<path d="M464.1,164.3c109,0,218.1,0,327.1-0.1c2.4,0,3,0.5,3,2.9c-0.1,14.2-0.1,28.3,0,42.5c0,2.2-0.5,2.7-2.7,2.7
		c-192.1-0.1-384.3-0.1-576.4-0.1c-26.2,0-52.4,0-78.5,0c-2,0-2.5-0.4-2.5-2.4c0.1-14.4,0.1-28.8,0-43.2c0-2,0.5-2.5,2.5-2.5
		C245.7,164.4,354.9,164.3,464.1,164.3z M464.1,165.3c-108.8,0-217.6,0-326.4-0.1c-2.2,0-2.7,0.5-2.7,2.7c0.1,13.5,0.1,27.1,0,40.6
		c0,2.5,0.7,2.9,3,2.9c97.2-0.1,194.4-0.1,291.6-0.1c120.3,0,240.6,0,361,0.1c2.2,0,2.7-0.5,2.7-2.7c-0.1-13.5-0.1-27.1,0-40.6
		c0-2.5-0.7-2.9-3-2.9C681.5,165.3,572.8,165.3,464.1,165.3z"/>
	<path class="st9" d="M576.6,142.1c0.1-2.6-0.2-5.5,0.3-8.5c0.2-1.4,0.6-2.8,1.3-4.1c1.6-3.2,4-5.4,7.8-5.4c3.7-0.1,6.1,1.9,7.9,4.9
		c3,5.3,2.2,14.2-1.7,18.8c-0.8,1-1.9,1.7-3,2.4c-0.8,0.5-1.4,0.5-1.9-0.5c-0.3-0.8-0.9-1.4,0.3-2.1c2.8-1.7,4.1-4.3,4.5-7.5
		c0.1-1-0.2-1.3-1.1-1.3c-3.2,0-6.4,0-9.6,0c-1.2,0-1.5,0.5-1.4,1.6c0.1,2.4-0.2,4.8,0.1,7.2c0.2,2.3-1.5,2.4-2.8,2.9
		c-0.9,0.3-0.6-0.7-0.6-1.1C576.6,147,576.6,144.7,576.6,142.1z M586.1,135.8c0.8,0,1.6,0,2.4,0c4.2,0,4.6-0.6,2.9-4.6
		c0-0.1-0.1-0.1-0.1-0.2c-1.1-2.1-2.4-4-5.1-4c-2.3,0-4.3,1.7-5.3,4.5c-0.2,0.6-0.3,1.2-0.5,1.8c-0.5,1.9,0,2.8,2.2,2.5
		C583.7,135.6,584.9,135.8,586.1,135.8z"/>
	<path class="st9" d="M443.6,142.5c0-2.9-0.1-5.7,0.3-8.6c0.2-1.9,0.8-3.6,1.7-5.2c3.6-6.1,11.1-6.2,14.9-0.3
		c3.5,5.3,2.8,14.8-1.4,19.5c-0.7,0.8-1.5,1.4-2.4,2c-0.7,0.4-1.5,1.2-2.2-0.1c-0.5-0.9-1-1.6,0.4-2.5c2.5-1.6,3.8-4,4.2-6.9
		c0.2-1.2,0-1.8-1.3-1.7c-3,0.1-6.1,0.1-9.1,0c-1.2,0-1.7,0.4-1.7,1.6c0.1,2.5-0.1,5,0.1,7.4c0.1,2.2-1.6,2.1-2.8,2.6
		c-0.9,0.3-0.6-0.7-0.6-1.1C443.6,146.9,443.6,144.7,443.6,142.5z M453.2,135.8c1.6,0,3.2,0,4.8,0c0.7,0,1.2,0,1.2-1
		c0.2-3.4-2.6-7.4-5.5-7.8c-2.9-0.4-5.7,2.3-6.4,6.2c0,0.2,0,0.5-0.1,0.7c-0.3,1.4,0,2.1,1.6,1.9
		C450.3,135.7,451.8,135.8,453.2,135.8z"/>
	<path class="st10" d="M626,150.5c0-5.6-0.2-10.9,0.1-16.3c0.2-4.2,2.1-7.8,6.2-9.5c4.3-1.9,8.9,0,11,4.8c2.5,5.9,2.4,11.8-1.2,17.3
		c-0.8,1.3-1.9,2.3-3.3,3c-0.7,0.4-1.5,1.1-2.1-0.2c-0.5-1-0.8-1.7,0.5-2.4c2.6-1.5,3.7-4.1,4.2-7c0.2-1.2,0-1.8-1.4-1.7
		c-3,0.1-6.1,0.1-9.1,0c-1.3,0-1.6,0.5-1.6,1.7c0.1,2-0.2,4,0.1,6C629.6,148.9,628.3,149.9,626,150.5z M635.3,135.8
		c0.7,0,1.4,0,2.2,0c4.4,0,4.8-0.5,3-4.6c-1-2.4-2.5-4.1-5.3-4.2c-2.2,0-4.4,1.9-5.3,4.5c-0.2,0.7-0.4,1.4-0.5,2.1
		c-0.4,1.5-0.1,2.4,1.8,2.2C632.6,135.7,633.9,135.8,635.3,135.8z"/>
	<path class="st11" d="M528,150.4c0-5.5-0.3-10.8,0.1-16.2c0.3-4.3,2.2-8.1,6.6-9.7c4.1-1.5,8.1,0.3,10.2,4.1
		c2,3.8,1.2,8.5-2.3,10.9c-1.8,1.2-1.6,2-0.5,3.4c1.2,1.5,2.3,3.1,3.3,4.7c0.4,0.6,1.7,1.3,0.1,2c-1,0.5-2,1.5-3-0.2
		c-1.5-2.4-3.2-4.6-4.8-6.9c-0.7-0.9-5.4-1.8-6.2-1c-0.2,0.2-0.3,0.7-0.3,1.1c0,1.1-0.2,2.3,0,3.4
		C531.7,148.5,530.7,149.9,528,150.4z M534.9,138.7c1.2-0.1,2.4-0.1,3.6-0.3c2.3-0.4,3.9-2.3,4.1-4.9c0.2-3.1-1.2-5.5-3.6-6.3
		c-2.3-0.8-4.4,0.1-5.9,2.4c-1,1.6-1.5,3.3-1.6,5.2C531.1,138.7,531.1,138.7,534.9,138.7z"/>
	<path class="st10" d="M601.2,140.5c0-3-0.2-6.1,0.7-9c1.4-4.4,4.7-7.3,8.7-7.4c3.9,0,7.3,2.6,8.7,7c1.6,5.1,1.4,10.1-1.5,14.8
		c-1.7,2.7-4.1,4.2-7.3,4.1c-1.7,0-3.4,0-5,0c-3.1-0.1-4.2-1.1-4.2-4.2C601.2,144,601.2,142.2,601.2,140.5z M604.5,140
		C604.6,140,604.6,140,604.5,140c0.1,1,0.1,1.9,0.1,2.9c0,4.1,0,4.1,4.2,4.1c2,0,4,0.1,5.5-1.6c3.3-3.6,3.4-12.7,0.3-16.5
		c-2.2-2.6-5.4-2.7-7.6-0.2c-1.3,1.5-2,3.3-2.1,5.2C604.7,136,604.6,138,604.5,140z"/>
	<path class="st11" d="M503.3,137c-0.1-3.9,0.7-7.5,3.5-10.3c3.6-3.7,9.1-3.4,12.4,0.5c4,4.8,4.2,14.6,0.4,19.6
		c-3.8,5-10.4,4.8-13.9-0.4C503.7,143.5,503.3,140.3,503.3,137z M506.7,137.3c0,2.6,0.2,5.1,1.7,7.4c2.3,3.6,6.7,3.7,8.8,0
		c2.7-4.8,2.7-10.1,0.1-14.9c-2.1-3.9-6.4-3.8-8.9-0.1C506.8,132.1,506.8,134.7,506.7,137.3z"/>
	<path class="st11" d="M552.1,142.6c0.1-3.2-0.2-6.4,0.4-9.6c1.1-6.3,6.1-10.1,11.5-8.6c2.5,0.7,4.2,2.3,5.3,4.6
		c2.7,5.6,2.6,11.3-0.2,16.8c-0.9,1.8-2.3,3.3-4.2,4.2c-0.7,0.3-1.4,1-1.9-0.2c-0.4-0.9-1-1.4,0.2-2.3c4.9-3.7,6.2-12.6,2.8-17.8
		c-2.4-3.7-6.6-3.6-8.9,0.2c-1.3,2.2-1.6,4.7-1.6,7.2c-0.1,3.4-0.2,6.7,0,10.1c0.1,1.9-0.9,2.5-2.2,3.1c-1.1,0.5-1.2,0-1.2-0.9
		C552.1,147,552.1,144.8,552.1,142.6z"/>
	<path class="st10" d="M296.9,150.4c0.3-6-0.6-12,0.5-17.9c1.2-6.1,6.3-9.5,11.4-8c2.6,0.8,4.2,2.6,5.4,4.8c2.8,4.9,2,13.8-1.5,18.2
		c-0.9,1.1-1.9,1.9-3.1,2.6c-0.9,0.5-1.5,0.7-2.1-0.5c-0.5-1-0.7-1.5,0.5-2.2c2.7-1.7,4-4.2,4.2-7.4c0.2-2.7,0.3-5.4-0.5-8.1
		c-0.9-2.9-3-4.8-5.2-4.9c-2.4-0.1-4.6,1.7-5.6,4.8c-0.5,1.5-0.7,3.1-0.7,4.7c0,3.4,0,6.7,0,10.1
		C300.3,149.5,300.3,149.5,296.9,150.4z"/>
	<path class="st10" d="M437.3,124c-0.3,5.9,0.5,11.9-0.5,17.7c-0.5,2.9-1.9,5.3-4.2,7c-3.8,2.9-9.2,1.7-12.1-2.7
		c-3.4-5.2-2.9-14.6,1.1-19.4c0.8-1,1.8-1.8,3-2.4c0.8-0.4,1.5-0.6,1.9,0.4c0.4,0.8,0.9,1.5-0.4,2.3c-2.9,1.7-4.2,4.5-4.3,7.8
		c-0.1,2.7-0.3,5.4,0.7,8.1c1,2.8,3.1,4.6,5.3,4.5c2.8-0.1,4.3-1.9,5.2-4.3c0.7-1.6,0.9-3.4,0.9-5.2c0-3.4,0-6.7,0-10.1
		C433.8,124.9,433.8,124.9,437.3,124z"/>
	<path class="st3" d="M378.6,124.2c-0.3,2.1-1.2,2.8-3.2,2.8c-4.1-0.1-7.1,3.4-7,7.6c0,1.1,0.5,1.1,1.3,1.1c2,0,4-0.1,6,0
		c0.7,0,1.9-0.5,1.8,0.6c-0.1,0.9-0.4,2.3-1.9,2.3c-1.9,0-3.8,0.1-5.8,0c-1.3-0.1-1.6,0.4-1.6,1.7c-0.3,6.8-0.3,6.8,6.5,6.7
		c1.3,0,2.6,0.1,3.4-1.3c0.8-1.4,1.4,0,2.1,0.1c1,0.2,0.7,0.9,0.4,1.5c-0.8,1.7-2.3,2.5-4.1,2.5c-2.7,0.1-5.4,0.1-8.1,0
		c-2.1-0.1-3.5-1.3-3.5-3.4c-0.1-3.7-0.2-7.4,0.1-11C365.4,128.6,368.7,122.7,378.6,124.2z"/>
	<path class="st11" d="M405.1,150.3c-3.1-0.1-5.5-1.5-7.2-4.1c-0.3-0.5-1-1.2,0.1-1.5c0.8-0.2,1.5-1.5,2.5-0.4
		c0.3,0.3,0.4,0.7,0.7,1c1.5,1.8,3.2,2.6,5.5,1.8c2.1-0.7,3.6-2.9,3.5-5.2c0-2.4-1.4-3.7-3.5-4.3c-1.8-0.6-3.7-0.9-5.4-2
		c-2.3-1.5-3.2-3.7-2.6-6.4c0.6-2.7,2.8-4.6,5.8-5c2.5-0.4,5.3,0.9,6.4,2.9c0.3,0.6,0.6,1.1-0.2,1.3c-0.8,0.2-1.5,1.5-2.5,0.2
		c-1-1.3-2.3-2-4-1.3c-1.4,0.6-2.2,1.5-2.3,3.1c-0.1,1.5,0.6,2.5,1.9,3c1.2,0.5,2.4,0.7,3.6,1.1c4.3,1.3,6.6,4.7,6,8.8
		C413,147.2,409.2,150.4,405.1,150.3z"/>
	<path class="st1" d="M349.5,142c-1.3,5.1-4.6,8.1-8.6,8.3c-3.9,0.2-7.6-2.5-8.9-7c-1.5-5.3-1.6-10.6,1.7-15.4
		c3.4-5,10.2-5.1,13.8-0.1c0.4,0.5,1.7,1.3,0.2,2c-0.8,0.4-1.8,1.5-2.7-0.2c-1.1-2-2.9-3-5.2-2.5c-2.4,0.5-3.6,2.3-4.3,4.4
		c-1.2,3.8-1.2,7.6,0,11.3c0.8,2.3,2.2,4.2,4.8,4.5c2.3,0.3,3.9-1,5.1-2.9C346.1,142.9,347.8,142.9,349.5,142z"/>
	<path class="st11" d="M484.4,127.3c0.3-2.3,1.3-3.2,3.4-2.9c2,0.2,4,0,6,0.1c2.6,0.1,3.7,1.2,3.6,3.8c-0.1,4.8,0.6,9.6-0.6,14.3
		c-1.4,5.7-6.2,8.8-11.2,7.4c-2.1-0.6-3.6-1.9-4.8-3.7c-0.5-0.7-0.7-1.3,0.3-1.6c0.8-0.2,1.5-1.5,2.4-0.1c1.2,2,2.9,3.2,5.3,2.8
		c2.8-0.5,4.1-2.7,4.7-5.2c1.1-4.5,0.3-9.1,0.6-13.6c0.1-1.2-0.8-1.2-1.6-1.2C489.7,127.3,487.1,127.3,484.4,127.3z"/>
	<path class="st9" d="M287.2,150.5c0-5.1,0-10.1,0-15.1c0-2.9,0.1-5.8,0-8.6c-0.1-2.1,1.5-2.3,2.7-2.7c1.1-0.3,0.7,0.8,0.7,1.3
		c0,5,0,10.1,0,15.1c0,2-0.2,4,0,6C290.9,149,289.6,150,287.2,150.5z"/>
	<path d="M355.1,150.4c0-8.1,0-16,0-24c0-2.1,2-1.6,3.2-2.9c0.1,1.3,0.1,2.1,0.1,2.9c0,6.7-0.1,13.4,0.1,20.1
		C358.6,149.2,357.4,150,355.1,150.4z"/>
	<path class="st10" d="M321.9,150.3c0-8,0-16,0-24c0-2.2,2-1.6,3.2-2.8c0.1,1.2,0.1,1.9,0.1,2.7c0,6.6-0.1,13.3,0.1,19.9
		C325.4,148.6,324.8,150,321.9,150.3z"/>
	<path class="st12" d="M464.1,165.3c108.7,0,217.4,0,326.1-0.1c2.3,0,3,0.4,3,2.9c-0.1,13.5-0.1,27.1,0,40.6c0,2.2-0.5,2.7-2.7,2.7
		c-120.3-0.1-240.6-0.1-361-0.1c-97.2,0-194.4,0-291.6,0.1c-2.3,0-3-0.4-3-2.9c0.1-13.5,0.1-27.1,0-40.6c0-2.2,0.5-2.7,2.7-2.7
		C246.5,165.3,355.3,165.3,464.1,165.3z"/>
	<path class="st13" d="M586.1,135.8c-1.2,0-2.4-0.1-3.6,0c-2.1,0.3-2.7-0.6-2.2-2.5c0.2-0.6,0.3-1.2,0.5-1.8c1-2.7,3-4.5,5.3-4.5
		c2.7,0,4.1,1.8,5.1,4c0,0.1,0.1,0.1,0.1,0.2c1.7,4,1.3,4.6-2.9,4.6C587.7,135.8,586.9,135.8,586.1,135.8z"/>
	<path class="st13" d="M453.2,135.8c-1.4,0-2.9-0.1-4.3,0c-1.6,0.2-1.9-0.6-1.6-1.9c0.1-0.2,0-0.5,0.1-0.7c0.7-3.8,3.5-6.5,6.4-6.2
		c2.8,0.4,5.6,4.4,5.5,7.8c0,1-0.6,1-1.2,1C456.4,135.8,454.8,135.8,453.2,135.8z"/>
	<path class="st13" d="M635.3,135.8c-1.4,0-2.7-0.1-4.1,0c-1.9,0.2-2.2-0.7-1.8-2.2c0.2-0.7,0.3-1.4,0.5-2.1
		c0.9-2.6,3.1-4.6,5.3-4.5c2.8,0,4.3,1.8,5.3,4.2c1.7,4.1,1.4,4.6-3,4.6C636.7,135.8,636,135.8,635.3,135.8z"/>
	<path class="st14" d="M534.9,138.7c-3.8-0.1-3.8-0.1-3.5-3.9c0.1-1.9,0.6-3.6,1.6-5.2c1.5-2.3,3.6-3.1,5.9-2.4
		c2.5,0.8,3.9,3.2,3.6,6.3c-0.2,2.6-1.7,4.5-4.1,4.9C537.3,138.6,536.1,138.6,534.9,138.7z"/>
	<path class="st14" d="M604.5,140c0.1-2,0.1-4,0.3-6c0.2-2,0.8-3.7,2.1-5.2c2.3-2.5,5.5-2.5,7.6,0.2c3.1,3.8,3,12.8-0.3,16.5
		c-1.5,1.7-3.5,1.7-5.5,1.6c-4.2,0-4.2,0-4.2-4.1C604.6,142,604.6,141,604.5,140C604.6,140,604.6,140,604.5,140z"/>
	<path class="st14" d="M506.7,137.3c0-2.6,0.1-5.3,1.6-7.6c2.4-3.7,6.8-3.8,8.9,0.1c2.6,4.9,2.6,10.1-0.1,14.9
		c-2.1,3.7-6.4,3.6-8.8,0C506.9,142.5,506.7,139.9,506.7,137.3z"/>
</g>
</svg>
